<?xml version="1.0" encoding="UTF-8"?>
<svg xmlns="http://www.w3.org/2000/svg" viewBox="0 0 1920 1080">
  <defs>
    <style>
      .cls-1 {
        fill: #ccc;
      }

      .cls-1, .cls-2, .cls-3, .cls-4, .cls-5, .cls-6, .cls-7 {
        stroke: #601113;
        stroke-miterlimit: 10;
        stroke-width: 5px;
      }

      .cls-8 {
        fill: #6d2613;
      }

      .cls-2 {
        fill: #fff;
      }

      .cls-3 {
        fill: #ffe5d2;
      }

      .cls-9 {
        fill: #601113;
      }

      .cls-4 {
        fill: #fcd6b1;
      }

      .cls-10 {
        fill: #423c3a;
      }

      .cls-11 {
        fill: #3d2111;
      }

      .cls-12 {
        fill: #f3fdff;
      }

      .cls-13 {
        fill: #faf1f1;
      }

      .cls-5 {
        fill: none;
      }

      .cls-6 {
        fill: #d8a995;
      }

      .cls-7 {
        fill: #ffd7ab;
      }
    </style>
  </defs>
  <g id="Layer_2" data-name="Layer 2">
    <path class="cls-13" d="M1429.57,406.49c-8.14-17.28-16.67-34.52-29.35-55.17-13.14-21.4-40.1-61.75-96.26-115.04-64.75-61.44-113.22-107.44-191.35-129.13-25.03-6.95-55.26-15.01-93.91-9.39-57.11,8.3-98.36,41.48-125.61,63.39-6.04,4.86-24.46,22.87-61.04,58.7-65.31,63.95-63.63,63.62-71.61,69.26-44.3,31.33-91.15,38.1-136.17,44.61-61.44,8.88-69.37-2.28-116.22,10.57-20.75,5.69-58.17,15.95-92.74,45.78-53.81,46.44-66.06,110.44-72.78,145.57-11.96,62.5-2.03,112.14,3.52,138.52,5.75,27.33,23.88,98.77,81,167.87,7.61,9.2,36.68,43.5,84.52,76.3,29.43,20.19,53.04,36.37,86.87,45.78,74.14,20.63,157.34-2.42,210.13-37.57,13.89-9.25,28.05-20.91,55.17-34.04,28.44-13.77,53.02-25.67,83.35-24.65,22.44.76,45.4,13.04,90.39,37.57,23.47,12.8,27.44,16.22,72.78,43.43,70.96,42.58,85.13,48.52,97.43,52.83,16.21,5.67,42.53,14.65,76.3,15.26,74.73,1.34,128.86-39.36,143.22-50.48,51.05-39.53,71.64-88.48,81-111.52,30.05-74,21.63-139.45,15.26-189-10.62-82.55-38.74-142.28-93.91-259.43v-.02h0Z"/>
    <polygon class="cls-7" points="588.93 885.8 526.11 885.8 521.29 695.31 588.93 695.31 588.93 885.8"/>
    <path class="cls-2" d="M609.7,548.95h19.42v166.41h-114.16v-71.67c0-52.29,42.45-94.74,94.74-94.74Z"/>
    <path class="cls-2" d="M640.27,539.96h126.23v345.84h-194.47v-277.6c0-37.66,30.58-68.24,68.24-68.24h0Z"/>
    <g>
      <polyline class="cls-5" points="720.51 689.4 738.07 664.2 751.93 691.5 757.47 703.58"/>
      <polyline class="cls-5" points="735.37 695.73 728.97 703.58 702.6 703.58 719.15 668.93 726.49 681.08"/>
      <polyline class="cls-5" points="751.62 703.58 772.72 703.58 760.31 672.17 749.27 686.26"/>
      <circle class="cls-9" cx="750.33" cy="703.58" r="3.8"/>
      <circle class="cls-9" cx="736.79" cy="693.88" r="3.8"/>
      <circle class="cls-9" cx="720.51" cy="689.4" r="3.8"/>
    </g>
    <polygon class="cls-1" points="727.42 603.78 694.21 632.15 660.66 572.77 694.21 554.58 727.42 603.78"/>
    <polygon class="cls-4" points="1347.1 891.82 1409.91 891.82 1414.73 701.33 1347.1 701.33 1347.1 891.82"/>
    <path class="cls-2" d="M1421.08,721.38h-114.16v-166.41h19.42c52.29,0,94.74,42.45,94.74,94.74v71.67h0Z"/>
    <path class="cls-2" d="M1364,891.82h-220.82v-345.84h152.59c37.66,0,68.24,30.58,68.24,68.24v277.6h0Z"/>
    <path class="cls-2" d="M1135.93,545.35h19.42v166.41h-114.16v-71.67c0-52.29,42.45-94.74,94.74-94.74Z"/>
    <path class="cls-1" d="M1209.9,569.58h49.96v74.26c0,7.07-5.74,12.81-12.81,12.81h-24.34c-7.07,0-12.81-5.74-12.81-12.81v-74.26h0Z"/>
    <ellipse class="cls-8" cx="1341.37" cy="335.12" rx="35.68" ry="47.8"/>
    <circle class="cls-8" cx="1150.17" cy="374.57" r="48.8"/>
    <rect class="cls-3" x="1185.38" y="487.69" width="94.85" height="87.07"/>
    <polygon class="cls-1" points="1246.46 574.21 1280.06 605.41 1314 540.11 1280.06 520.1 1246.46 574.21"/>
    <polygon class="cls-1" points="1232.79 571.23 1198.39 607.77 1163.65 531.28 1198.39 507.85 1232.79 571.23"/>
    <path class="cls-4" d="M1150.74,401.53c-6.54,78.12,34.44,145.32,91.53,150.09,46.95,3.93,90.15-35.58,107.67-93.18l20.27-2.36c12.44-1.45,18.65-15.82,11.18-25.87l-23.26-31.29c-1.29-69.32-40.01-125.82-92.18-130.19-57.09-4.78-108.67,54.67-115.21,132.79h0Z"/>
    <ellipse class="cls-8" cx="1281.43" cy="263.2" rx="74.87" ry="57.39"/>
    <circle class="cls-8" cx="1178.69" cy="295.23" r="68.69"/>
    <path class="cls-8" d="M1183.24,345.29c-10.16,29.06,15.59,60.02,26.88,58,16.29-2.93,24.42-78.54,7.07-86.29-9.41-4.2-27.85,10.85-33.95,28.29Z"/>
    <path class="cls-8" d="M1123.37,406.27c4.97,8.92,15.24,16.9,26.8,17.1,12.77.22,21.36-9.17,31.2-19.93,14.56-15.92,28.05-30.67,24.05-48.09-5-21.77-34.98-37.58-55.25-29.58-14.68,5.79-19.7,22.26-25.38,40.89-4.34,14.24-8.31,27.24-1.41,39.61h-.01Z"/>
    <path class="cls-4" d="M1194.41,381.08c-11.65-7.61-24.21-8.5-30-2.9-5.75,5.56-3.31,16.07-.97,26.13,1.62,6.95,3.88,16.68,12.58,24.19,3.07,2.65,9.84,8.49,19.36,7.74,7.55-.6,12.67-5.01,14.52-6.77"/>
    <circle class="cls-11" cx="562.45" cy="306.76" r="43.56"/>
    <circle class="cls-11" cx="555.11" cy="358.17" r="33.82"/>
    <rect class="cls-7" x="652.72" y="453.58" width="82.99" height="132.97" transform="translate(-170.38 450.22) rotate(-32.22)"/>
    <rect class="cls-12" x="506.77" y="385.43" width="81.48" height="8.88" transform="translate(-63.88 669.1) rotate(-60)"/>
    <rect class="cls-12" x="525.73" y="392.51" width="81.48" height="13.39" transform="translate(-62.48 690.18) rotate(-60)"/>
    <polygon class="cls-1" points="669.27 531.22 694.21 578.37 656.57 614.31 627.12 531.22 669.27 531.22"/>
    <polygon class="cls-1" points="705.97 582.15 727.42 632.15 780.11 582.15 727.42 548.95 705.97 582.15"/>
    <path class="cls-7" d="M745.14,387.77c-15.51-76.84-73.61-129.94-129.77-118.6-51.32,10.36-83.25,70.95-76.53,139.96l-33.58,58.17h48.58c24.05,55.19,71.53,89.45,117.71,80.12,56.16-11.34,89.11-82.82,73.59-159.66h0Z"/>
    <ellipse class="cls-11" cx="618.95" cy="259.45" rx="75.25" ry="67.64"/>
    <ellipse class="cls-11" cx="705.97" cy="299.23" rx="74.14" ry="83.68"/>
    <ellipse class="cls-11" cx="758.26" cy="408.3" rx="74.14" ry="83.68"/>
    <ellipse class="cls-11" cx="832.4" cy="475.5" rx="74.14" ry="83.68"/>
    <ellipse class="cls-11" cx="785.03" cy="520.1" rx="74.14" ry="83.68"/>
    <circle class="cls-11" cx="766.51" cy="337.67" r="50.2"/>
    <polygon class="cls-6" points="832.4 931.06 749.71 931.06 737.66 769.75 832.4 769.75 832.4 931.06"/>
    <polygon class="cls-6" points="1163.53 931.06 1080.84 931.06 1080.84 769.75 1175.58 769.75 1163.53 931.06"/>
    <path class="cls-2" d="M1185.38,684.52c0-65.68-39.32-79.92-109.81-131.52-22.82-20.45-52.96-32.89-86.02-32.89h-51.21c-31.95,0-61.17,11.65-83.7,30.89-72.17,38.24-127.22,61.86-127.22,133.53v92.46c0,4.49,3.64,8.14,8.14,8.14h81.98v145.95h279.73v-145.95h79.97c4.49,0,8.14-3.64,8.14-8.14v-92.46h0Z"/>
    <path class="cls-1" d="M948.11,541.84h29.14v139.08c0,3.24-2.63,5.88-5.88,5.88h-17.39c-3.24,0-5.88-2.63-5.88-5.88v-139.08h.01Z"/>
    <ellipse class="cls-10" cx="863.88" cy="337.67" rx="38.83" ry="45.4"/>
    <ellipse class="cls-10" cx="877.64" cy="271.95" rx="38.83" ry="45.4"/>
    <ellipse class="cls-10" cx="1059.43" cy="342.32" rx="38.83" ry="45.4"/>
    <ellipse class="cls-10" cx="1052.96" cy="277.45" rx="38.83" ry="45.4"/>
    <ellipse class="cls-10" cx="1001.39" cy="232.05" rx="38.83" ry="45.4"/>
    <ellipse class="cls-10" cx="930.49" cy="226.55" rx="46.58" ry="54.46"/>
    <ellipse class="cls-6" cx="962.68" cy="541.84" rx="62.17" ry="47.4"/>
    <path class="cls-1" d="M969.01,578.62l8.67,13.32c5.7,8.75,18.57,9.9,25.87,2.32l51.58-53.53c5.08-5.27,5.73-13.16,1.59-19.12l-3.3-4.76c-8.42-12.13-28.14-7.58-29.82,6.88h0c-.58,5.03-3.7,9.48-8.35,11.93l-40.24,21.12c-8.19,4.3-10.93,14.27-5.99,21.85h0Z"/>
    <path class="cls-1" d="M956.61,578.62l-8.67,13.32c-5.7,8.75-18.57,9.9-25.87,2.32l-51.58-53.53c-5.08-5.27-5.73-13.16-1.59-19.12l3.3-4.76c8.42-12.13,28.14-7.58,29.82,6.88h0c.58,5.03,3.7,9.48,8.35,11.93l40.24,21.12c8.19,4.3,10.93,14.27,5.99,21.85h.01Z"/>
    <path class="cls-6" d="M1074.8,362.63c-.41,0-.81.02-1.22.04-8-81.9-54.66-144.75-111.02-144.75s-103.01,62.85-111.02,144.75c-.4-.02-.81-.04-1.22-.04-15.08,0-27.31,16.05-27.31,35.85s12.23,35.85,27.31,35.85c1.43,0,2.83-.15,4.2-.42,13.3,71.33,56.63,123.62,108.03,123.62s94.74-52.28,108.03-123.62c1.37.28,2.77.42,4.2.42,15.08,0,27.31-16.05,27.31-35.85s-12.23-35.85-27.31-35.85h.02Z"/>
    <circle class="cls-10" cx="934.57" cy="236.2" r="46.69"/>
    <circle class="cls-10" cx="999.77" cy="245.68" r="37.21"/>
    <ellipse class="cls-10" cx="1045.81" cy="284.71" rx="35.03" ry="38.15"/>
    <ellipse class="cls-10" cx="878.92" cy="283.48" rx="33.71" ry="39.38"/>
    <polygon class="cls-10" points="863.88 379.32 845.29 408.3 845.29 306.76 863.88 306.76 863.88 379.32"/>
    <polygon class="cls-10" points="1054.69 385.71 1074.36 414.69 1074.36 313.15 1054.69 313.15 1054.69 385.71"/>
    <ellipse class="cls-10" cx="921.79" cy="402.89" rx="9.39" ry="16.78"/>
    <ellipse class="cls-10" cx="588.93" cy="405.44" rx="9.39" ry="16.78"/>
    <ellipse class="cls-10" cx="1006.58" cy="403.88" rx="9.39" ry="16.78"/>
    <ellipse class="cls-10" cx="1305.69" cy="403.88" rx="9.39" ry="16.78"/>
    <g>
      <polyline class="cls-5" points="1024.05 691.3 1041.6 666.1 1055.46 693.4 1061 705.48"/>
      <polyline class="cls-5" points="1038.9 697.63 1032.5 705.48 1006.13 705.48 1022.68 670.83 1030.02 682.98"/>
      <polyline class="cls-5" points="1055.15 705.48 1076.25 705.48 1063.84 674.07 1052.8 688.16"/>
      <circle class="cls-9" cx="1053.86" cy="705.48" r="3.8"/>
      <path class="cls-9" d="M1040.32,691.98c2.1,0,3.8,1.7,3.8,3.8s-1.7,3.8-3.8,3.8-3.8-1.7-3.8-3.8,1.7-3.8,3.8-3.8Z"/>
      <circle class="cls-9" cx="1024.05" cy="691.3" r="3.8"/>
    </g>
    <g>
      <polyline class="cls-5" points="1297.95 651.45 1315.5 626.25 1329.36 653.55 1334.91 665.63"/>
      <polyline class="cls-5" points="1312.81 657.78 1306.4 665.63 1280.03 665.63 1296.58 630.98 1303.92 643.13"/>
      <polyline class="cls-5" points="1329.05 665.63 1350.15 665.63 1337.74 634.22 1326.7 648.31"/>
      <circle class="cls-9" cx="1327.76" cy="665.63" r="3.8"/>
      <circle class="cls-9" cx="1314.22" cy="655.93" r="3.8"/>
      <circle class="cls-9" cx="1297.95" cy="651.45" r="3.8"/>
    </g>
  </g>
  <g id="Layer_1" data-name="Layer 1">
    <path class="cls-10" d="M638.32,480.82c-16.42,12.06-34.79,17.33-55.1,15.83-2.37-.18-4.2,2.03-3.55,4.31h0c.38,1.33,1.53,2.31,2.9,2.44,22.2,2.1,42.16-3.64,59.86-17.2,1.1-.84,1.55-2.28,1.17-3.61h0c-.66-2.28-3.38-3.17-5.29-1.77Z"/>
    <path class="cls-10" d="M1003.8,465.71c-24.95,9.32-50.06,11.73-75.32,7.48-3.05-.51-5.76,1.97-5.46,5.05v.04c.2,2,1.66,3.65,3.62,4.1,26.68,6.18,53.57,3.39,80.68-8.04,1.87-.79,2.99-2.72,2.79-4.74h0c-.3-3.06-3.43-4.97-6.31-3.9Z"/>
    <path class="cls-10" d="M1324.82,483.21c-19.01,9.07-38.02,9.07-57.03,0-2.2-1.05-4.75.57-4.75,3.01v.04c0,1.11.55,2.16,1.48,2.77,20.75,13.64,41.92,13.64,63.51,0,.96-.61,1.53-1.67,1.53-2.81h0c0-2.44-2.54-4.06-4.75-3.01Z"/>
  </g>
</svg>