<?xml version="1.0" encoding="UTF-8"?>
<svg id="Layer_2" data-name="Layer 2" xmlns="http://www.w3.org/2000/svg" xmlns:xlink="http://www.w3.org/1999/xlink" viewBox="0 0 1920 1080">
  <defs>
    <style>
      .cls-1 {
        filter: url(#drop-shadow-2);
      }

      .cls-2 {
        filter: url(#drop-shadow-6);
      }

      .cls-2, .cls-3, .cls-4, .cls-5 {
        fill: #ff9f48;
      }

      .cls-6 {
        fill: #fffcee;
      }

      .cls-3 {
        filter: url(#drop-shadow-7);
      }

      .cls-7 {
        fill: none;
        stroke: #fff0a9;
        stroke-miterlimit: 10;
        stroke-width: 2px;
      }

      .cls-8 {
        filter: url(#drop-shadow-1);
      }

      .cls-4 {
        filter: url(#drop-shadow-4);
      }

      .cls-9 {
        fill: #faf1f1;
      }

      .cls-10, .cls-11 {
        fill: #ffe164;
      }

      .cls-12 {
        fill: #1e405b;
      }

      .cls-13 {
        filter: url(#drop-shadow-3);
      }

      .cls-14 {
        fill: #fff0a9;
      }

      .cls-11 {
        filter: url(#drop-shadow-5);
      }

      .cls-15 {
        fill: #5292d1;
      }

      .cls-5 {
        filter: url(#drop-shadow-8);
      }
    </style>
    <filter id="drop-shadow-1" x="709" y="379" width="651" height="673" filterUnits="userSpaceOnUse">
      <feOffset dx="7" dy="7"/>
      <feGaussianBlur result="blur" stdDeviation="5"/>
      <feFlood flood-color="#000" flood-opacity=".5"/>
      <feComposite in2="blur" operator="in"/>
      <feComposite in="SourceGraphic"/>
    </filter>
    <filter id="drop-shadow-2" x="620" y="98" width="456" height="446" filterUnits="userSpaceOnUse">
      <feOffset dx="7" dy="7"/>
      <feGaussianBlur result="blur-2" stdDeviation="5"/>
      <feFlood flood-color="#000" flood-opacity=".5"/>
      <feComposite in2="blur-2" operator="in"/>
      <feComposite in="SourceGraphic"/>
    </filter>
    <filter id="drop-shadow-3" x="605" y="76" width="487" height="479" filterUnits="userSpaceOnUse">
      <feOffset dx="7" dy="7"/>
      <feGaussianBlur result="blur-3" stdDeviation="5"/>
      <feFlood flood-color="#000" flood-opacity=".5"/>
      <feComposite in2="blur-3" operator="in"/>
      <feComposite in="SourceGraphic"/>
    </filter>
    <filter id="drop-shadow-4" x="740" y="210" width="220" height="219" filterUnits="userSpaceOnUse">
      <feOffset dx="7" dy="7"/>
      <feGaussianBlur result="blur-4" stdDeviation="5"/>
      <feFlood flood-color="#000" flood-opacity=".5"/>
      <feComposite in2="blur-4" operator="in"/>
      <feComposite in="SourceGraphic"/>
    </filter>
    <filter id="drop-shadow-5" x="751" y="220" width="198" height="199" filterUnits="userSpaceOnUse">
      <feOffset dx="7" dy="7"/>
      <feGaussianBlur result="blur-5" stdDeviation="5"/>
      <feFlood flood-color="#000" flood-opacity=".5"/>
      <feComposite in2="blur-5" operator="in"/>
      <feComposite in="SourceGraphic"/>
    </filter>
    <filter id="drop-shadow-6" x="1069" y="321" width="287" height="283" filterUnits="userSpaceOnUse">
      <feOffset dx="7" dy="7"/>
      <feGaussianBlur result="blur-6" stdDeviation="5"/>
      <feFlood flood-color="#000" flood-opacity=".5"/>
      <feComposite in2="blur-6" operator="in"/>
      <feComposite in="SourceGraphic"/>
    </filter>
    <filter id="drop-shadow-7" x="1263" y="548" width="188" height="188" filterUnits="userSpaceOnUse">
      <feOffset dx="7" dy="7"/>
      <feGaussianBlur result="blur-7" stdDeviation="5"/>
      <feFlood flood-color="#000" flood-opacity=".5"/>
      <feComposite in2="blur-7" operator="in"/>
      <feComposite in="SourceGraphic"/>
    </filter>
    <filter id="drop-shadow-8" x="1377" y="392" width="148" height="152" filterUnits="userSpaceOnUse">
      <feOffset dx="7" dy="7"/>
      <feGaussianBlur result="blur-8" stdDeviation="5"/>
      <feFlood flood-color="#000" flood-opacity=".5"/>
      <feComposite in2="blur-8" operator="in"/>
      <feComposite in="SourceGraphic"/>
    </filter>
  </defs>
  <path class="cls-9" d="M1423.38,366.69c-8.14-17.28-16.67-34.52-29.35-55.17-13.14-21.4-40.1-61.75-96.26-115.04-64.75-61.44-113.22-107.44-191.35-129.13-25.03-6.95-55.26-15.01-93.91-9.39-57.11,8.3-98.36,41.48-125.61,63.39-6.04,4.86-24.46,22.87-61.04,58.7-65.31,63.95-63.63,63.62-71.61,69.26-44.3,31.33-91.15,38.1-136.17,44.61-61.44,8.88-69.37-2.28-116.22,10.57-20.75,5.69-58.17,15.95-92.74,45.78-53.81,46.44-66.06,110.44-72.78,145.57-11.96,62.5-2.03,112.14,3.52,138.52,5.75,27.33,23.88,98.77,81,167.87,7.61,9.2,36.68,43.5,84.52,76.3,29.43,20.19,53.04,36.37,86.87,45.78,74.14,20.63,157.34-2.42,210.13-37.57,13.89-9.25,28.05-20.91,55.17-34.04,28.44-13.77,53.02-25.67,83.35-24.65,22.44.76,45.4,13.04,90.39,37.57,23.47,12.8,27.44,16.22,72.78,43.43,70.96,42.58,85.13,48.52,97.43,52.83,16.21,5.67,42.53,14.65,76.3,15.26,74.73,1.34,128.86-39.36,143.22-50.48,51.05-39.53,71.64-88.48,81-111.52,30.05-74,21.63-139.45,15.26-189-10.62-82.55-38.74-142.28-93.91-259.43v-.02h0Z"/>
  <g class="cls-8">
    <path class="cls-12" d="M1000.76,1008.53l61.25-27.27c23.02-10.25,33.53-28.24,22.13-37.46-282.67-228.55-372.5-427.37-230.04-556.67l-134.5,59.88c-17.85,230.98,63.52,418.41,242.46,563.03,7.4,5.98,23.3,5.35,38.71-1.51Z"/>
    <path class="cls-12" d="M1256.52,874.16l34.75-48.36c13.06-18.17,13.06-36.68.19-38.64-319.19-48.61-477.16-160.83-425.85-323.82l-76.31,106.19c89.81,185.13,236.2,292.41,438.22,323.13,8.35,1.27,20.27-6.34,29.01-18.51Z"/>
    <g>
      <path class="cls-15" d="M1036.62,1022.83l59.99-29.94c22.55-11.25,32.25-29.69,20.46-38.39-292.45-215.9-390.94-410.57-254.3-546.01l-131.74,65.74c-7.67,231.54,81.86,415.21,266.98,551.82,7.65,5.65,23.52,4.32,38.61-3.21Z"/>
      <path class="cls-15" d="M1285.15,863.01l40.74-53.25c15.31-20.01,15.93-40.84,1.51-43.48-357.56-65.47-531.57-197.08-468.33-378.78l-89.46,116.93c94.83,211.37,255.95,337.03,482.27,378.42,9.36,1.71,23.02-6.45,33.27-19.85Z"/>
    </g>
  </g>
  <path class="cls-7" d="M1053.71,1014.3c-151.5-75.25-243.86-194.17-284.1-351.58"/>
  <path class="cls-7" d="M1280.05,868.97c-197.89-43.3-353.48-127.94-446.61-273.64"/>
  <path class="cls-7" d="M865.86,640.52l34.98-36.67c-22.33-13.13-37.22-31.94-44.66-56.43"/>
  <path class="cls-7" d="M834.63,819.07l61.06-47.55c-52.55-49.08-88.39-108.26-107.53-177.55"/>
  <path class="cls-7" d="M1108.7,985.27c-56.77-33.27-104.61-77.69-145.38-130.94"/>
  <line class="cls-7" x1="1080.42" y1="803.68" x2="1122.12" y2="737.41"/>
  <polyline class="cls-7" points="1101.27 770.55 1211.81 810.49 1231.3 778.01"/>
  <circle class="cls-14" cx="788.15" cy="593.97" r="5.48"/>
  <circle class="cls-14" cx="783.3" cy="541.94" r="5.48"/>
  <circle class="cls-14" cx="970.35" cy="919.8" r="5.48"/>
  <circle class="cls-14" cx="769.62" cy="662.71" r="5.48"/>
  <path class="cls-7" d="M744.95,474.34c-8.18,40.7-2.75,86.32,10.56,134.78"/>
  <circle class="cls-14" cx="755.5" cy="609.13" r="5.48"/>
  <circle class="cls-14" cx="963.32" cy="854.33" r="5.48"/>
  <circle class="cls-14" cx="833.45" cy="595.32" r="5.48"/>
  <circle class="cls-14" cx="856.18" cy="547.42" r="5.48"/>
  <circle class="cls-14" cx="952.5" cy="662.71" r="5.48"/>
  <circle class="cls-14" cx="1122.12" cy="737.41" r="5.48"/>
  <circle class="cls-14" cx="1231.3" cy="778.01" r="5.48"/>
  <path class="cls-7" d="M996.9,757.78l39.11-51.26c-34.15-8.33-60.81-24.1-83.51-43.8"/>
  <path class="cls-7" d="M867.89,866.71l36.71-21.31c14.97,32.91,35.86,58.9,65.75,74.4"/>
  <path class="cls-7" d="M788.15,474.34c-10.75,16.51-12.58,38.97-5.48,67.39"/>
  <g class="cls-1">
    <path class="cls-12" d="M905.89,286.8l-93.32-40.84,61.11-139.64c20.63,35.46,50.29,52.09,93.32,40.84l-61.11,139.64Z"/>
    <path class="cls-12" d="M809.32,518c-13.17-29.4-48.09-38.33-95.47-35.52l53.15-142.86,95.47,35.52-53.15,142.86Z"/>
    <path class="cls-12" d="M673.83,437.49c3.59-38.75-14.69-67.75-45.18-91.3l136.61-67.6,45.18,91.3-136.61,67.6Z"/>
    <path class="cls-12" d="M629.31,281.15c32.98-22.41,47.62-53.05,40.84-93.32l139.64,61.11-40.84,93.32-139.64-61.11Z"/>
    <path class="cls-12" d="M721.09,165.66c36.04-5.77,66.35-21.21,88.21-50.93l76.21,132-88.21,50.93-76.21-132Z"/>
    <path class="cls-12" d="M970.35,485.77c-38.47-16.02-69.68-1.73-95.23,36.16l-54.1-142.5,95.23-36.16,54.1,142.5Z"/>
    <path class="cls-12" d="M1053.71,348.81c-34.86,22.66-45.47,54.94-41.77,92.9l-139.02-62.5,41.77-92.9,139.02,62.5Z"/>
    <path class="cls-12" d="M1024.15,181.03c-15.36,40.86-5.71,73.36,25.79,98.54l-147.46,38.6-25.79-98.54,147.46-38.6Z"/>
  </g>
  <g class="cls-13">
    <path class="cls-15" d="M868.79,84.61h-51.84c-7.36,0-13.17,6.27-12.61,13.61l11.53,151.38h54.58l10.96-151.43c.53-7.32-5.27-13.56-12.61-13.56Z"/>
    <path class="cls-15" d="M816.9,532.81h51.84c7.36,0,13.17-6.27,12.61-13.61l-11.53-151.38h-54.58l-10.96,151.43c-.53,7.32,5.27,13.56,12.61,13.56Z"/>
    <path class="cls-15" d="M1069.58,338.5v-51.84c0-7.36-6.27-13.17-13.61-12.61l-151.38,11.53v54.58l151.43,10.96c7.32.53,13.56-5.27,13.56-12.61Z"/>
    <path class="cls-15" d="M613.74,286.61v51.84c0,7.36,6.27,13.17,13.61,12.61l151.38-11.53v-54.58s-151.43-10.96-151.43-10.96c-7.32-.53-13.56,5.27-13.56,12.61Z"/>
    <path class="cls-15" d="M689.71,126.57l-35.71,37.58c-5.07,5.34-4.53,13.86,1.18,18.51l117.67,95.92,37.6-39.56-102.22-112.26c-4.94-5.43-13.46-5.52-18.52-.2Z"/>
    <path class="cls-15" d="M1034.4,159.84l-37.58-35.71c-5.34-5.07-13.86-4.53-18.51,1.18l-95.92,117.67,39.56,37.6,112.26-102.22c5.43-4.94,5.52-13.46.2-18.52Z"/>
    <path class="cls-15" d="M656.44,470.41l37.58,35.71c5.34,5.07,13.86,4.53,18.51-1.18l95.92-117.67-39.56-37.6-112.26,102.22c-5.43,4.94-5.52,13.46-.2,18.52Z"/>
    <path class="cls-15" d="M994.19,493.3l35.27-37.99c5.01-5.4,4.37-13.91-1.39-18.5l-118.77-94.56-37.14,39.99,103.51,111.07c5.01,5.37,13.52,5.36,18.52-.02Z"/>
  </g>
  <circle class="cls-4" cx="843.16" cy="312.55" r="94.4"/>
  <circle class="cls-11" cx="842.82" cy="312.53" r="83.68"/>
  <path class="cls-6" d="M795.4,312.58c0-40.08,28.19-73.56,65.81-81.75-5.76-1.25-11.73-1.93-17.86-1.93-46.21,0-83.68,37.46-83.68,83.68s37.46,83.68,83.68,83.68c6.13,0,12.11-.68,17.86-1.93-37.63-8.19-65.81-41.67-65.81-81.75Z"/>
  <polygon class="cls-2" points="1268.68 329.46 1248.24 425.6 1333.36 474.74 1235.61 485.01 1215.18 581.15 1175.2 491.36 1077.46 501.63 1150.5 435.87 1110.52 346.09 1195.64 395.23 1268.68 329.46"/>
  <polygon class="cls-3" points="1340.84 556.74 1368.53 610.81 1428.5 601.19 1385.64 644.22 1413.32 698.29 1359.14 670.82 1316.28 713.85 1325.66 653.84 1271.49 626.37 1331.46 616.75 1340.84 556.74"/>
  <polygon class="cls-5" points="1389.42 420.05 1432.67 436.38 1461.57 400.3 1459.4 446.48 1502.65 462.81 1458.06 475.02 1455.89 521.2 1430.5 482.56 1385.91 494.77 1414.81 458.68 1389.42 420.05"/>
  <polygon class="cls-10" points="1260.05 325.8 1239.62 421.94 1324.73 471.08 1226.99 481.35 1206.56 577.48 1166.58 487.7 1068.84 497.97 1141.88 432.21 1101.9 342.42 1187.02 391.57 1260.05 325.8"/>
  <polygon class="cls-10" points="1332.22 553.08 1359.9 607.14 1419.88 597.52 1377.01 640.56 1404.7 694.63 1350.52 667.16 1307.65 710.19 1317.04 650.18 1262.86 622.71 1322.84 613.09 1332.22 553.08"/>
  <polygon class="cls-10" points="1380.8 416.38 1424.05 432.72 1452.95 396.63 1450.78 442.82 1494.03 459.15 1449.44 471.36 1447.27 517.54 1421.88 478.9 1377.29 491.11 1406.19 455.02 1380.8 416.38"/>
</svg>