<?xml version="1.0" encoding="UTF-8"?>
<svg xmlns="http://www.w3.org/2000/svg" xmlns:xlink="http://www.w3.org/1999/xlink" viewBox="0 0 1063.04 948.1">
  <defs>
    <style>
      .cls-1 {
        fill: url(#linear-gradient-2);
      }

      .cls-2 {
        filter: url(#drop-shadow-2);
      }

      .cls-3 {
        filter: url(#drop-shadow-6);
      }

      .cls-4 {
        filter: url(#drop-shadow-5);
      }

      .cls-5 {
        fill: #fff;
      }

      .cls-6 {
        filter: url(#drop-shadow-4);
      }

      .cls-7 {
        fill: #752121;
      }

      .cls-8 {
        fill: #d35353;
      }

      .cls-9, .cls-10 {
        fill: #d6d6d6;
      }

      .cls-11 {
        filter: url(#drop-shadow-3);
      }

      .cls-12 {
        fill: #828282;
      }

      .cls-13 {
        fill: #545454;
      }

      .cls-10 {
        filter: url(#drop-shadow-1);
      }

      .cls-14 {
        fill: url(#linear-gradient);
      }

      .cls-15 {
        fill: #b5b5b5;
      }
    </style>
    <filter id="drop-shadow-1" x="30.46" y="7.16" width="978" height="631" filterUnits="userSpaceOnUse">
      <feOffset dx="7" dy="7"/>
      <feGaussianBlur result="blur" stdDeviation="5"/>
      <feFlood flood-color="#000" flood-opacity=".75"/>
      <feComposite in2="blur" operator="in"/>
      <feComposite in="SourceGraphic"/>
    </filter>
    <linearGradient id="linear-gradient" x1="583.11" y1="401.91" x2="908.48" y2="401.91" gradientUnits="userSpaceOnUse">
      <stop offset="0" stop-color="#fcee21"/>
      <stop offset="1" stop-color="#f15a24"/>
    </linearGradient>
    <linearGradient id="linear-gradient-2" x1="217.25" y1="371.73" x2="625.47" y2="371.73" xlink:href="#linear-gradient"/>
    <filter id="drop-shadow-2" x="-5.54" y="269.16" width="350" height="690" filterUnits="userSpaceOnUse">
      <feOffset dx="4" dy="6"/>
      <feGaussianBlur result="blur-2" stdDeviation="3"/>
      <feFlood flood-color="#000" flood-opacity=".42"/>
      <feComposite in2="blur-2" operator="in"/>
      <feComposite in="SourceGraphic"/>
    </filter>
    <filter id="drop-shadow-3" x="366.46" y="212.16" width="231" height="751" filterUnits="userSpaceOnUse">
      <feOffset dx="4" dy="6"/>
      <feGaussianBlur result="blur-3" stdDeviation="3"/>
      <feFlood flood-color="#000" flood-opacity=".42"/>
      <feComposite in2="blur-3" operator="in"/>
      <feComposite in="SourceGraphic"/>
    </filter>
    <filter id="drop-shadow-4" x="251.46" y="-3.84" width="209" height="882" filterUnits="userSpaceOnUse">
      <feOffset dx="4" dy="6"/>
      <feGaussianBlur result="blur-4" stdDeviation="3"/>
      <feFlood flood-color="#000" flood-opacity=".42"/>
      <feComposite in2="blur-4" operator="in"/>
      <feComposite in="SourceGraphic"/>
    </filter>
    <filter id="drop-shadow-5" x="242.46" y="276.16" width="382" height="659" filterUnits="userSpaceOnUse">
      <feOffset dx="4" dy="6"/>
      <feGaussianBlur result="blur-5" stdDeviation="3"/>
      <feFlood flood-color="#000" flood-opacity=".42"/>
      <feComposite in2="blur-5" operator="in"/>
      <feComposite in="SourceGraphic"/>
    </filter>
    <filter id="drop-shadow-6" x="648.46" y="216.16" width="428" height="622" filterUnits="userSpaceOnUse">
      <feOffset dx="4" dy="6"/>
      <feGaussianBlur result="blur-6" stdDeviation="3"/>
      <feFlood flood-color="#000" flood-opacity=".42"/>
      <feComposite in2="blur-6" operator="in"/>
      <feComposite in="SourceGraphic"/>
    </filter>
  </defs>
  <g id="Layer_2" data-name="Layer 2">
    <path class="cls-10" d="M831.31,293.35c12.47.04,32.27,1.61,54.56,10.32,7.79,3.04,32.78,13.56,56.04,38.34,6.77,7.21,30.48,33.84,39.82,76.68,7.95,36.45,1.39,65.83-1.47,76.68-11.3,42.75-36.83,68.07-42.77,73.73-3.83,3.66-22.21,20.82-51.61,32.44-19.56,7.73-35.73,9.75-53.09,11.8-23.5,2.77-40.11,2.08-60.46,1.47-30.96-.92-61.94-.73-92.91-1.47-43.47-1.05-75.45-1.25-110.6-1.47-68.07-.43-70.96.64-129.77,0-66.68-.73-60.64-2.07-94.38-1.47-63.9,1.13-95.86,1.7-109.13,2.95q-12.18,1.15-43.12.73c-17.63-.24-46.07-10.4-51.26-12.53-29.53-12.13-48.81-29.61-57.51-38.34-10.05-10.08-26.89-26.98-36.87-54.56-14.73-40.74-4.47-77.07,0-92.91,2.79-9.87,10.78-34.78,30.97-60.46,7.41-9.43,20.78-26.1,44.24-39.82,24.37-14.24,46.47-17.6,57.51-19.17,15.76-2.24,29.02-4.12,45.72,0,17.64,4.35,27.27,12.48,30.97,8.85,3.82-3.76-4.16-14.71-10.32-32.44-8.86-25.51-7.84-47.46-7.37-57.51,1.11-23.73,7.75-40.52,16.22-61.94,6.93-17.53,13.6-34.37,28.02-53.09,16.35-21.22,33.44-32.86,50.14-44.24,17.42-11.87,35.67-24.3,63.41-32.44,9.61-2.82,39.6-10.77,78.16-5.9,30.78,3.89,52.36,14.1,69.31,22.12,15.11,7.15,32.6,15.58,51.61,32.44,9.58,8.49,24.1,21.6,35.39,42.77,9.73,18.23,14.75,33.92,14.75,33.92,5.72,17.86,5.85,27.78,11.8,29.49,5.82,1.68,10.61-6.38,22.12-14.75,16.29-11.84,32.93-14.76,41.29-16.22,31.8-5.58,57.4,6.61,61.94,8.85,7.5,3.7,25.9,13.94,39.82,35.39,14.15,21.81,15.63,42.81,16.22,53.09,1.25,21.61-3.71,38.82-7.37,48.66Z"/>
  </g>
  <g id="Layer_12" data-name="Layer 12">
    <path class="cls-5" d="M126.42,447.22c0-52.38,34.29-98.23,85.55-123.43-81.46,6.36-145.17,62.34-145.17,130.47,0,72.39,71.94,131.08,160.68,131.08,7.1,0,14.09-.38,20.95-1.11-70.81-18.74-122.01-72.99-122.01-137Z"/>
  </g>
  <g id="Layer_10" data-name="Layer 10">
    <path class="cls-13" d="M543.98,195.87l11.71-11.49c.95-.93,2.4-1.14,3.57-.51,23.55,12.75,42.91,30.09,57.48,52.72.76,1.18.59,2.73-.38,3.74l-13.89,14.41-58.49-58.88Z"/>
    <ellipse class="cls-12" cx="573.23" cy="225.31" rx="6.49" ry="41.5" transform="translate(7.77 469.46) rotate(-44.81)"/>
    <path class="cls-13" d="M974.8,514.67l-16.05,3.43c-1.3.28-2.64-.32-3.29-1.48-13.06-23.37-20.13-48.39-20.32-75.31,0-1.4.96-2.63,2.32-2.96l19.45-4.74,17.88,81.05Z"/>
    <ellipse class="cls-12" cx="965.86" cy="474.14" rx="6.49" ry="41.5" transform="translate(-79.48 219.25) rotate(-12.44)"/>
    <path class="cls-13" d="M85.81,419.48l12.94,10.09c1.05.82,1.45,2.23.98,3.47-9.52,25.02-24.16,46.51-44.66,63.95-1.07.91-2.63.95-3.76.12l-16.13-11.86,50.63-65.77Z"/>
    <ellipse class="cls-12" cx="60.49" cy="452.36" rx="41.5" ry="6.49" transform="translate(-334.86 224.35) rotate(-52.41)"/>
  </g>
  <g id="Layer_13" data-name="Layer 13">
    <path class="cls-14" d="M906.14,442.03c-1.02,0-1.89.66-2.21,1.57h-106.38v-30.66h-67.64c-.32-.91-1.18-1.57-2.21-1.57-1.3,0-2.35,1.05-2.35,2.35s1.05,2.35,2.35,2.35c1.02,0,1.89-.66,2.21-1.57h66.09v29.11h-113.36v-123.97h36.41v-50.37c.91-.32,1.57-1.18,1.57-2.21,0-1.3-1.05-2.35-2.35-2.35s-2.35,1.05-2.35,2.35c0,1.02.66,1.89,1.57,2.21v48.82h-34.86v-27.12c.88-.34,1.5-1.19,1.5-2.19,0-1.3-1.05-2.35-2.35-2.35s-2.35,1.05-2.35,2.35c0,1.05.69,1.93,1.64,2.23v62.54h-93.42c-.32-.91-1.18-1.57-2.21-1.57-1.3,0-2.35,1.05-2.35,2.35s1.05,2.35,2.35,2.35c1.02,0,1.89-.66,2.21-1.57h93.42v90.05h166.3v51.59h-65.79c-.32-.91-1.18-1.57-2.21-1.57-1.3,0-2.35,1.05-2.35,2.35s1.05,2.35,2.35,2.35c1.02,0,1.89-.66,2.21-1.57h65.79v36.25c-.91.32-1.57,1.18-1.57,2.21,0,1.3,1.05,2.35,2.35,2.35s2.35-1.05,2.35-2.35c0-1.02-.66-1.89-1.57-2.21v-89.39h55c.32.91,1.18,1.57,2.21,1.57,1.3,0,2.35-1.05,2.35-2.35s-1.05-2.35-2.35-2.35Z"/>
    <path class="cls-1" d="M623.12,474.8c-1.02,0-1.88.65-2.2,1.56h-164.7v39.96h-95.27v-103.6h28.61c.33.91,1.18,1.56,2.2,1.56,1.3,0,2.35-1.05,2.35-2.35s-1.05-2.35-2.35-2.35c-1.02,0-1.88.65-2.2,1.56h-76.82v-27.87h30.66v-67.64c.91-.32,1.57-1.18,1.57-2.21,0-1.3-1.05-2.35-2.35-2.35s-2.35,1.05-2.35,2.35c0,1.02.66,1.89,1.57,2.21v66.09h-29.11v-113.36h123.97v36.41h50.37c.32.91,1.18,1.57,2.21,1.57,1.3,0,2.35-1.05,2.35-2.35s-1.05-2.35-2.35-2.35c-1.02,0-1.89.66-2.21,1.57h-48.82v-34.86h27.12c.34.88,1.19,1.5,2.19,1.5,1.3,0,2.35-1.05,2.35-2.35s-1.05-2.35-2.35-2.35c-1.05,0-1.93.69-2.23,1.64h-62.54v-93.42c.91-.32,1.57-1.18,1.57-2.21,0-1.3-1.05-2.35-2.35-2.35s-2.35,1.05-2.35,2.35c0,1.02.66,1.89,1.57,2.21v93.42h-90.05v166.3h-51.59v-65.79c.91-.32,1.57-1.18,1.57-2.21,0-1.3-1.05-2.35-2.35-2.35s-2.35,1.05-2.35,2.35c0,1.02.66,1.89,1.57,2.21v65.79h-36.25c-.32-.91-1.18-1.57-2.21-1.57-1.3,0-2.35,1.05-2.35,2.35s1.05,2.35,2.35,2.35c1.02,0,1.89-.66,2.21-1.57h89.39v56.5c-.91.32-1.57,1.18-1.57,2.21,0,1.3,1.05,2.35,2.35,2.35s2.35-1.05,2.35-2.35c0-1.02-.66-1.89-1.57-2.21v-78.43h46.63v157.35c-.91.33-1.56,1.18-1.56,2.2,0,1.3,1.05,2.35,2.35,2.35s2.35-1.05,2.35-2.35c0-1.02-.65-1.88-1.56-2.2v-52.17h182.23c.33.91,1.18,1.56,2.2,1.56,1.3,0,2.35-1.05,2.35-2.35s-1.05-2.35-2.35-2.35c-1.02,0-1.88.65-2.2,1.56h-85.38v-38.38h163.12c.33.91,1.18,1.56,2.2,1.56,1.3,0,2.35-1.05,2.35-2.35s-1.05-2.35-2.35-2.35Z"/>
  </g>
  <g id="Layer_11" data-name="Layer 11">
    <circle class="cls-5" cx="110.06" cy="435.18" r="15.71" transform="translate(-97.04 36.93) rotate(-13.28)"/>
    <circle class="cls-9" cx="622.3" cy="234.83" r="15.71"/>
    <circle class="cls-9" cx="948.17" cy="513.23" r="15.71"/>
    <circle class="cls-9" cx="932.47" cy="440.34" r="15.71"/>
    <circle class="cls-9" cx="932.47" cy="463.74" r="15.71"/>
    <circle class="cls-9" cx="939.27" cy="489.85" r="15.71"/>
    <circle class="cls-9" cx="564.89" cy="179.85" r="15.71"/>
    <circle class="cls-9" cx="583.88" cy="195.56" r="15.71"/>
    <circle class="cls-9" cx="606.59" cy="211.26" r="15.71"/>
    <circle class="cls-5" cx="94.35" cy="454.56" r="15.71"/>
    <circle class="cls-9" cx="60.49" cy="497.7" r="15.71"/>
    <circle class="cls-5" cx="76.2" cy="478.42" r="15.71"/>
    <path class="cls-5" d="M495.57,104.55c36.96,0,71.59,9.94,101.38,27.28-29.21-49.97-83.42-83.54-145.47-83.54-93,0-168.39,75.39-168.39,168.39,0,22.4,4.39,43.78,12.33,63.33,12.94-99.01,97.62-175.46,200.15-175.46Z"/>
    <path class="cls-5" d="M726.37,191.52c41.72,0,77.21,26.66,90.37,63.87.48-3.5.75-7.08.75-10.71,0-42.82-34.71-77.54-77.54-77.54-29.98,0-55.96,17.02-68.86,41.92,15.62-11.04,34.69-17.54,55.27-17.54Z"/>
  </g>
  <g id="Layer_3" data-name="Layer 3">
    <g class="cls-2">
      <path class="cls-8" d="M40.72,442.71c-1.05.55-2.88-1.19-5.27-3.25-5.5-4.73-5.36-3.72-9.4-7.31-4.52-4.02-14.21-13.75-18.79-20.88-11.53-17.92-6.28-43.45-4.7-51.15,7.65-37.21,35.14-58.9,44.89-65.77,22.5-15.86,44.6-19.12,53.76-20.36,32.35-4.38,57.41,4.93,73.08,10.96,30.33,11.68,49.14,28.41,64.73,42.28,30.45,27.09,48.96,55.69,59.51,75.17,19.1,35.26,25.7,65.72,27.67,75.69,1.36,6.94,6.3,33.56,4.18,68.9-2.84,47.23-16.63,82.06-22.45,95.52-6.56,15.18-17.88,40.81-40.71,66.81-14.42,16.41-37.89,38.06-50.11,53.24-5.73,7.12-14.09,12.51-17.75,20.88-.41.94-3.97,7.35-6.44,7.83-1.94.38-3.71.61-3.83-.8-.72-8.87,14.51-24.81,20.18-30,20.76-18.99,36.13-43.16,54.81-64.2,35.31-39.79,56.91-102.1,57.94-159.73.89-49.49-13.55-86.44-20.36-103.35-7.81-19.42-28.65-69.43-79.86-109.62-21.45-16.83-50.8-39.86-93.96-42.28-13.21-.74-46.75-2.13-76.73,20.36-24.49,18.37-32.92,42.41-34.45,46.98-3.9,11.67-13.24,39.61,0,56.37,7.7,9.75,19.14,21.23,26.02,26.82.47.38-.64,2.25-1,5.01-.49,3.78-.11,5.41-.97,5.86Z"/>
      <path class="cls-7" d="M36.09,419.31l-15.51,21.34c-1.38,1.9-1.09,4.23.64,5.21l6.53,3.71c1.73.98,4.24.24,5.62-1.65l15.51-21.34c1.38-1.9,1.09-4.23-.64-5.21l-6.53-3.71c-1.73-.98-4.24-.24-5.62,1.65Z"/>
      <path class="cls-7" d="M56.06,430.67l-15.51,21.34c-1.38,1.9-1.09,4.23.64,5.21l9.66,5.49c9.54-6.61,16.68-15.69,20.49-28.2l-9.66-5.49c-1.73-.98-4.24-.24-5.62,1.65Z"/>
      <polygon class="cls-7" points="28.97 440.73 41.12 425.41 58.92 436.98 46.78 452.3 28.97 440.73"/>
      <g>
        <path class="cls-7" d="M171.17,815.61h15.6v2.39c0,.79-.64,1.43-1.43,1.43h-12.73c-.79,0-1.43-.64-1.43-1.43v-2.39h0Z" transform="translate(6.26 1636.39) rotate(-155.74)"/>
        <path class="cls-7" d="M175.4,811.9h7.8v8.69c0,.6-.49,1.09-1.09,1.09h-5.62c-.6,0-1.09-.49-1.09-1.09v-8.69h0Z" transform="translate(7.2 1635.12) rotate(-155.74)"/>
        <path class="cls-7" d="M181.03,803.52h4.98c.78,0,1.41.63,1.41,1.41v5.48c0,.5-.41.91-.91.91h-5.97c-.5,0-.91-.41-.91-.91v-5.48c0-.78.63-1.41,1.41-1.41Z" transform="translate(19.12 1618.94) rotate(-155.74)"/>
        <path class="cls-7" d="M184.84,795.05h4.98c.78,0,1.41.63,1.41,1.41v5.48c0,.5-.41.91-.91.91h-5.97c-.5,0-.91-.41-.91-.91v-5.48c0-.78.63-1.41,1.41-1.41Z" transform="translate(29.89 1604.33) rotate(-155.74)"/>
        <path class="cls-7" d="M188.66,786.59h4.98c.78,0,1.41.63,1.41,1.41v5.48c0,.5-.41.91-.91.91h-5.97c-.5,0-.91-.41-.91-.91v-5.48c0-.78.63-1.41,1.41-1.41Z" transform="translate(40.66 1589.71) rotate(-155.74)"/>
        <rect class="cls-7" x="178.66" y="808.34" width="5.2" height="8.19" rx=".74" ry=".74" transform="translate(12.73 1627.61) rotate(-155.74)"/>
        <rect class="cls-7" x="181.68" y="801.63" width="5.2" height="8.19" rx=".74" ry=".74" transform="translate(21.28 1616.02) rotate(-155.74)"/>
        <rect class="cls-7" x="185.78" y="792.54" width="5.2" height="8.19" rx=".74" ry=".74" transform="translate(32.83 1600.33) rotate(-155.74)"/>
        <path class="cls-15" d="M130.74,905.33h15.6v2.39c0,.79-.64,1.43-1.43,1.43h-12.73c-.79,0-1.43-.64-1.43-1.43v-2.39h0Z" transform="translate(384.96 23.19) rotate(24.26)"/>
        <path class="cls-15" d="M134.3,903.09h7.8v8.69c0,.6-.49,1.09-1.09,1.09h-5.62c-.6,0-1.09-.49-1.09-1.09v-8.69h0Z" transform="translate(385.23 23.39) rotate(24.26)"/>
        <rect class="cls-15" x="126.97" y="914.73" width="7.8" height="19.03" rx="1.26" ry="1.26" transform="translate(391.27 27.83) rotate(24.26)"/>
        <rect class="cls-8" x="141.64" y="819.5" width="34.22" height="85.77" rx="7.83" ry="7.83" transform="translate(368.31 10.92) rotate(24.26)"/>
        <rect class="cls-7" x="147.58" y="824.28" width="22.53" height="75.81" rx="3.78" ry="3.78" transform="translate(368.24 10.87) rotate(24.26)"/>
        <rect class="cls-8" x="163.1" y="833.05" width="15.6" height="4.77" rx="1.79" ry="1.79" transform="translate(358.31 3.55) rotate(24.26)"/>
        <rect class="cls-8" x="159.05" y="842.03" width="15.6" height="4.77" rx="1.79" ry="1.79" transform="translate(361.64 6.01) rotate(24.26)"/>
        <rect class="cls-8" x="155" y="851.02" width="15.6" height="4.77" rx="1.79" ry="1.79" transform="translate(364.98 8.46) rotate(24.26)"/>
        <rect class="cls-8" x="150.95" y="860" width="15.6" height="4.77" rx="1.79" ry="1.79" transform="translate(368.31 10.92) rotate(24.26)"/>
        <rect class="cls-8" x="146.9" y="868.99" width="15.6" height="4.77" rx="1.79" ry="1.79" transform="translate(371.65 13.38) rotate(24.26)"/>
        <rect class="cls-8" x="142.85" y="877.97" width="15.6" height="4.77" rx="1.79" ry="1.79" transform="translate(374.98 15.83) rotate(24.26)"/>
        <rect class="cls-8" x="138.81" y="886.96" width="15.6" height="4.77" rx="1.79" ry="1.79" transform="translate(378.31 18.29) rotate(24.26)"/>
        <path class="cls-8" d="M129.61,898.25h22.53v5.23c0,1.3-1.05,2.35-2.35,2.35h-17.83c-1.3,0-2.35-1.05-2.35-2.35v-5.23h0Z" transform="translate(383.03 21.76) rotate(24.26)"/>
        <path class="cls-8" d="M165.54,818.54h22.53v5.23c0,1.3-1.05,2.35-2.35,2.35h-17.83c-1.3,0-2.35-1.05-2.35-2.35v-5.23h0Z" transform="translate(.15 1644.69) rotate(-155.74)"/>
        <rect class="cls-15" x="132.96" y="909.75" width="5.2" height="8.19" rx=".74" ry=".74" transform="translate(387.41 24.99) rotate(24.26)"/>
        <rect class="cls-15" x="123.73" y="930.23" width="5.2" height="8.19" rx=".74" ry=".74" transform="translate(395.01 30.59) rotate(24.26)"/>
        <path class="cls-15" d="M125.37,934.75l-4.09,2.03c-.55.27-.86.97-.7,1.56l1.19,4.41c.16.59.73.85,1.27.57l4.09-2.03c.55-.27.86-.97.7-1.56l-1.19-4.41c-.16-.59-.73-.85-1.27-.57Z"/>
      </g>
    </g>
  </g>
  <g id="Layer_4" data-name="Layer 4">
    <g class="cls-11">
      <path class="cls-8" d="M570.62,231.73c-1.53-2.83-5.27-3.56-7.75-1.52-32.51,26.81-49.65,54.63-58.49,71.97-25.17,49.37-25.35,96.9-25.06,137.8.29,40.4,5.81,37.08,7.66,79.34,2.55,58.37-8.01,64-25.06,187.22,0,0-8.99,64.95-25.06,87.69-.67.95-4.7,6.37-7.66,14.62-1.42,3.95-2.17,7.36-2.59,9.73l7.67,3.46c1.87-4.66,4.82-11.71,8.83-20.14,6.01-12.63,8.91-16.85,12.53-25.06,3.86-8.76,5.82-15.94,9.05-29.93,6.38-27.67,10.42-50.42,11.83-58.46,5.25-29.81,5.09-31.17,9.74-57.07,4.94-27.51,5.18-26.32,7.66-41.76,4.39-27.4,6.58-41.48,6.26-59.85-.08-4.38-.98-14.98-2.78-36.19-1.86-21.9-2.66-28.55-3.48-38.28-2.11-25.09-3.67-43.54-2.09-66.12,1.25-17.87,3.09-41.44,14.62-68.9,7.93-18.89,17.56-32.76,21.58-38.28,7.05-9.69,13.6-16.72,18.79-22.27,8.4-8.97,16.23-16.2,22.64-21.72,1.81-1.56,2.28-4.17,1.15-6.27h0Z"/>
      <g>
        <rect class="cls-7" x="538.12" y="239.86" width="28.99" height="14.41" rx="2.64" ry="2.64" transform="translate(336.56 -318.4) rotate(45)"/>
        <path class="cls-7" d="M555.69,228.48l15.51,15.51c1.38,1.38,3.61,1.38,4.99,0l7.7-7.7c-3.52-8.86-9.97-15.93-20.5-20.5l-7.7,7.7c-1.38,1.38-1.38,3.61,0,4.99Z"/>
        <rect class="cls-7" x="551.87" y="229.25" width="16.18" height="20.93" transform="translate(362.04 -336.34) rotate(47.86)"/>
        <g>
          <path class="cls-15" d="M377.51,923.94h11.15v2.12c0,.34-.27.61-.61.61h-9.92c-.34,0-.61-.27-.61-.61v-2.12h0Z" transform="translate(413.97 -75.69) rotate(24.26)"/>
          <path class="cls-15" d="M379.84,922.81h5.57v6.34c0,.36-.29.65-.65.65h-4.27c-.36,0-.65-.29-.65-.65v-6.34h0Z" transform="translate(414.34 -75.41) rotate(24.26)"/>
          <rect class="cls-15" x="375.22" y="929.76" width="5.57" height="13.6" rx=".49" ry=".49" transform="translate(418.15 -72.61) rotate(24.26)"/>
          <rect class="cls-15" x="379.5" y="926.2" width="3.72" height="5.86" transform="translate(415.39 -74.64) rotate(24.26)"/>
          <path class="cls-7" d="M412.65,845.95h11.15v2.12c0,.34-.27.61-.61.61h-9.92c-.34,0-.61-.27-.61-.61v-2.12h0Z" transform="translate(451.41 1791.65) rotate(-155.74)"/>
          <path class="cls-7" d="M413.58,843.28h9.9v6.34c0,.36-.29.65-.65.65h-8.6c-.36,0-.65-.29-.65-.65v-6.34h0Z" transform="translate(452.23 1790.74) rotate(-155.74)"/>
          <rect class="cls-7" x="417.09" y="835.49" width="9.9" height="6.99" rx=".56" ry=".56" transform="translate(462.15 1777.28) rotate(-155.74)"/>
          <rect class="cls-7" x="420.61" y="827.7" width="9.9" height="6.99" rx=".56" ry=".56" transform="translate(472.06 1763.83) rotate(-155.74)"/>
          <rect class="cls-7" x="424.07" y="820" width="9.9" height="6.99" rx=".56" ry=".56" transform="translate(481.85 1750.55) rotate(-155.74)"/>
          <rect class="cls-7" x="416.5" y="841.03" width="6.6" height="5.86" transform="translate(455.82 1785.87) rotate(-155.74)"/>
          <rect class="cls-7" x="419.73" y="833.87" width="6.6" height="5.86" transform="translate(464.92 1773.52) rotate(-155.74)"/>
          <rect class="cls-7" x="423.11" y="826.37" width="6.6" height="5.86" transform="translate(474.47 1760.55) rotate(-155.74)"/>
          <rect class="cls-15" x="373.94" y="938.53" width="3.72" height="5.86" transform="translate(419.96 -71.27) rotate(24.26)"/>
          <path class="cls-15" d="M375.47,941.59l-3.75,1.86c-.14.07-.21.22-.17.37l1.09,4.04c.05.2.27.29.45.2l3.75-1.86c.14-.07.21-.22.17-.37l-1.09-4.04c-.05-.2-.27-.29-.45-.2Z"/>
          <rect class="cls-8" x="387.42" y="847.5" width="26.45" height="77.67" rx="1.98" ry="1.98" transform="translate(399.51 -86.34) rotate(24.26)"/>
          <rect class="cls-7" x="392.72" y="852.76" width="15.83" height="67.19" rx="1.98" ry="1.98" transform="translate(399.52 -86.34) rotate(24.26)"/>
          <rect class="cls-8" x="406.69" y="860.44" width="9.4" height="4.1" rx="1.54" ry="1.54" transform="translate(390.66 -92.86) rotate(24.26)"/>
          <rect class="cls-8" x="403.62" y="867.25" width="9.4" height="4.1" rx="1.54" ry="1.54" transform="translate(393.19 -91) rotate(24.26)"/>
          <rect class="cls-8" x="400.55" y="874.06" width="9.4" height="4.1" rx="1.54" ry="1.54" transform="translate(395.72 -89.14) rotate(24.26)"/>
          <rect class="cls-8" x="397.48" y="880.88" width="9.4" height="4.1" rx="1.54" ry="1.54" transform="translate(398.24 -87.28) rotate(24.26)"/>
          <rect class="cls-8" x="394.41" y="887.69" width="9.4" height="4.1" rx="1.54" ry="1.54" transform="translate(400.77 -85.41) rotate(24.26)"/>
          <rect class="cls-8" x="391.34" y="894.5" width="9.4" height="4.1" rx="1.54" ry="1.54" transform="translate(403.3 -83.55) rotate(24.26)"/>
          <rect class="cls-8" x="388.27" y="901.32" width="9.4" height="4.1" rx="1.54" ry="1.54" transform="translate(405.83 -81.69) rotate(24.26)"/>
          <rect class="cls-8" x="385.2" y="908.13" width="9.4" height="4.1" rx="1.54" ry="1.54" transform="translate(408.36 -79.82) rotate(24.26)"/>
          <path class="cls-8" d="M376.45,919.32h15.83v5.33c0,.51-.42.93-.93.93h-13.97c-.51,0-.93-.42-.93-.93v-5.33h0Z" transform="translate(412.91 -76.47) rotate(24.26)"/>
          <path class="cls-8" d="M408.98,847.13h15.83v5.33c0,.51-.42.93-.93.93h-13.97c-.51,0-.93-.42-.93-.93v-5.33h0Z" transform="translate(447.67 1796.73) rotate(-155.74)"/>
        </g>
      </g>
    </g>
  </g>
  <g id="Layer_5" data-name="Layer 5">
    <g class="cls-6">
      <path class="cls-8" d="M435.82,123.14s.63,11.29.87,23.49c.47,23.91-.81,53.61-1.22,62.64-.95,20.83-2.09,36.61-3.13,50.81-1.18,16.15-2.21,27.81-3.65,44.19-1.47,16.73-2.92,33.04-5.22,54.63-2.11,19.84-3.55,31.05-5.05,41.41-1.2,8.31-2.31,15.24-3.13,20.18-5.01,44.29-13.93,91.75-28.54,141.28-2.42,8.22-4.94,16.28-7.54,24.19-4.99,14.95-8.08,22.38-12.4,34.36-5.48,15.22-4.98,15.72-12.77,39.58-5.69,17.4-15.28,46.61-25.06,68.21-5.87,12.97-12.53,25.75-12.53,25.75-4.4,4.8-4.74,6.86-4.18,7.85.45.79,1.31.6,4.15,1.87,3.11,1.39,3.65,2.32,4.67,2.1,2.26-.49,2.9-5.78,3.01-6.61.7-5.38,2.49-4.98,13.22-29.58,11.41-26.15,21.22-53.74,22.27-56.72,3.03-8.57,5.97-17.54,11.83-35.5,6.59-20.16,6.36-20.12,11.83-36.89,11.01-33.71,14.21-40.56,21.23-64.38,0,0,3.79-12.87,7.31-26.45,9.26-35.74,12.93-68.21,18.44-119.01,7.15-65.98,10.73-98.97,11.83-114.49.99-14.01,3.25-48.21,4.18-92.22.78-36.92-.44-34.27.35-59.85.13-4.21.42-12.59-.35-23.84-.95-13.99-2.99-24.41-3.65-27.67-2.98-14.59-5.04-24.73-11.48-36.54-4.21-7.72-10.72-19.67-24.53-27.67-8.53-4.94-16.37-6.35-21.92-7.31-2.64-.45-15.39-2.5-31.84,1.04-7.33,1.58-22.78,5.1-37.58,17.75-12.69,10.85-18.45,22.88-21.4,29.23-2.49,5.36-6.93,15.13-7.83,28.71-.59,8.89-.58,17.02.88,17.26.66.11.96-1.53,3.8-4.37,1.85-1.86,2.68-2.12,3.19-3.44.7-1.79,0-3.39-.39-4.92-.58-2.26-.15-4.87.7-10.09,1.4-8.6,5.02-15.96,6.61-19.14,3.55-7.11,7.21-11.92,10.09-15.66,4.34-5.64,7.58-9.85,13.22-14.27,2.03-1.59,7.8-5.88,16.36-9.05,6.18-2.29,11.31-2.92,21.58-4.18,5.75-.71,10.21-1.23,16.36-1.04,5.31.16,9.98.35,15.66,2.44,4.46,1.64,7.56,3.73,9.74,5.22,6.09,4.16,9.72,8.52,10.44,9.4,4.26,5.2,6.22,9.98,8.35,15.31.11.27.23.58.37.93,2.27,5.94,3.38,10.6,4.16,14.03,2.46,10.92,3.69,16.38,4.87,24.01.4,2.59.83,5.64,1.24,9.08.52,4.36.87,8.25,1.72,20.67.48,7.05.72,10.58.87,13.22Z"/>
      <g>
        <g>
          <path class="cls-15" d="M269.77,846.77l-2.06-.93-.71-.32.32-.71,3.8-8.43-5.69-2.56-5.42,12.04c-.62,1.37,0,2.98,1.36,3.59l5.99,2.7,2.42-5.37Z"/>
          <path class="cls-15" d="M271.83,836.69l-3.8,8.43,2.06.93.71.32-.32.71-2.42,5.37,21.06,9.49c1.37.62,2.98,0,3.59-1.36l5.42-12.04-26.31-11.86Z"/>
        </g>
        <rect class="cls-7" x="297.28" y="785.27" width="16.36" height="6.75" transform="translate(350.97 -55.86) rotate(24.26)"/>
        <path class="cls-7" d="M309.63,763.42h11.35c1.38,0,2.5,1.12,2.5,2.5v4.25h-16.36v-4.25c0-1.38,1.12-2.5,2.5-2.5Z" transform="translate(342.86 -61.84) rotate(24.26)"/>
        <path class="cls-8" d="M308.4,832l1.45-3.21,3.98-.59c.76-.11,1.42-.61,1.74-1.31l4.83-10.72c.32-.7.25-1.52-.17-2.17l-2.2-3.37,4.81-10.68c.57-1.27,0-2.77-1.27-3.35l-32.74-14.75c-1.27-.57-2.77,0-3.35,1.27l-4.81,10.68-3.98.59c-.76.11-1.42.61-1.74,1.31l-4.83,10.72c-.32.7-.25,1.52.17,2.17l2.2,3.37-1.45,3.21c-.09.2,0,.43.2.52l1.43.64c.2.09.28.32.2.52l-.85,1.88c-.09.2-.32.28-.52.2l-1.43-.64c-.2-.09-.43,0-.52.2l-1.29,2.85c-.09.2,0,.43.2.52l1.43.64c.2.09.28.32.2.52l-.85,1.88c-.09.2-.32.28-.52.2l-1.43-.64c-.2-.09-.43,0-.52.2l-1.29,2.85c-.09.2,0,.43.2.52l1.43.64c.2.09.28.32.2.52l-.93,2.05c-.09.2-.32.28-.52.2l-1.43-.64c-.2-.09-.43,0-.52.2l-1.14,2.53-4.27.76c-.64.11-1.18.54-1.45,1.13l-.22.48c-.22.48,0,1.05.48,1.26l43.71,19.7c.48.22,1.05,0,1.26-.48l.22-.48c.27-.59.22-1.28-.11-1.84l-2.26-3.7,1.14-2.53c.09-.2,0-.43-.2-.52l-1.43-.64c-.2-.09-.28-.32-.2-.52l.93-2.05c.09-.2.32-.28.52-.2l1.43.64c.2.09.43,0,.52-.2l1.29-2.85c.09-.2,0-.43-.2-.52l-1.43-.64c-.2-.09-.28-.32-.2-.52l.85-1.88c.09-.2.32-.28.52-.2l1.43.64c.2.09.43,0,.52-.2l1.29-2.85c.09-.2,0-.43-.2-.52l-1.43-.64c-.2-.09-.28-.32-.2-.52l.85-1.88c.09-.2.32-.28.52-.2l1.43.64c.2.09.43,0,.52-.2Z"/>
        <rect class="cls-7" x="270.36" y="829.28" width="31.84" height="3.86" rx="1.45" ry="1.45" transform="translate(366.76 -44.23) rotate(24.26)"/>
        <rect class="cls-7" x="267.48" y="835.67" width="31.84" height="3.86" rx="1.45" ry="1.45" transform="translate(369.14 -42.48) rotate(24.26)"/>
        <rect class="cls-7" x="273.24" y="822.88" width="31.84" height="3.86" rx="1.45" ry="1.45" transform="translate(364.39 -45.98) rotate(24.26)"/>
        <path class="cls-8" d="M325.29,784.82l1.45-3.21c.27-.59,0-1.28-.59-1.55l-3.8-1.71c-.59-.27-.85-.96-.59-1.55h0c.27-.59.96-.85,1.55-.59l1.13.51c.59.27,1.28,0,1.55-.59l1.45-3.21c.27-.59,0-1.28-.59-1.55l-22.63-10.2c-.59-.27-1.28,0-1.55.59l-1.45,3.21c-.27.59,0,1.28.59,1.55l1.13.51c.59.27.85.96.59,1.55h0c-.27.59-.96.85-1.55.59l-3.8-1.71c-.59-.27-1.28,0-1.55.59l-1.45,3.21c-.27.59,0,1.28.59,1.55l3.8,1.71c.59.27.85.96.59,1.55l-.12.27c-.27.59-.96.85-1.55.59l-1.13-.51c-.59-.27-1.28,0-1.55.59l-1.45,3.21c-.27.59,0,1.28.59,1.55l22.63,10.2c.59.27,1.28,0,1.55-.59l1.45-3.21c.27-.59,0-1.28-.59-1.55l-1.13-.51c-.59-.27-.85-.96-.59-1.55l.12-.27c.27-.59.96-.85,1.55-.59l3.8,1.71c.59.27,1.28,0,1.55-.59Z"/>
      </g>
    </g>
  </g>
  <g id="Layer_6" data-name="Layer 6">
    <g class="cls-4">
      <path class="cls-8" d="M375.27,304.27c36.54,14.62,61.07,25.58,90.83,45.93,29.65,20.28,85.31,65.83,114.84,139.89,24.14,60.56,20.76,112.93,17.75,159.73-4.75,73.69-27.07,134.37-29.23,139.89-4.03,10.31-4.81,22.43-11.74,31.06-.24.3-1.51,1.81-1.04,2.87.33.76,1.36.87,3.37,1.46,2.89.85,3.07,1.51,3.94,1.41,2.3-.28,3.58-4.4,3.91-5.48,3.13-10.04,7.23-19.75,10.44-29.75,2.33-7.25,4.18-10.64,6.26-15.66,6.85-16.5,15.18-48.09,20.36-84.04,2.8-19.45,7.34-52.16,5.22-94.48-1.1-21.89-3.28-65.57-19.84-110.66-38.26-104.23-130.77-154.74-151.38-165.99,0,0-77.78-43.32-149.81-40.19-7.51.33-11.74-.16-29.23,2.09-1.08.14-10.8.7-11.45,2.85-.2.64.38,1.18,1.8,4.11.21.43.64,1.32,1.16,2.53.4.94.4,1,.47,1.13,1.03,1.87,9.56-1.14,12.72-1.74,4.12-.78,8.36-.64,12.53-1.04,8.34-.81,14.82-.68,22.45-.52,2.73.06,13.55.32,27.67,2.09,2.25.28,8.57,1.1,16.7,2.61,6.89,1.28,11.07,2.07,16.18,3.65,7.51,2.33,12.74,5.3,15.14,6.26Z"/>
      <g>
        <rect class="cls-7" x="550.45" y="825.73" width="6.52" height="28" transform="translate(393.88 -153.34) rotate(24.26)"/>
        <g>
          <path class="cls-15" d="M524.42,913.96l.38-.83.83.38,2.03.91,1.81-4.02-15.15-6.83-2.97,6.58c-.57,1.27,0,2.76,1.26,3.33l10,4.51,1.81-4.02Z"/>
          <path class="cls-15" d="M530.3,910.77l-1.81,4.02-.38.83-.83-.38-2.03-.91-1.81,4.02,2.35,1.06c1.27.57,2.76,0,3.33-1.26l2.97-6.58-1.78-.8Z"/>
        </g>
        <rect class="cls-8" x="521.77" y="850.2" width="26.45" height="62.35" rx="2.88" ry="2.88" transform="translate(409.34 -141.98) rotate(24.26)"/>
        <rect class="cls-7" x="522.77" y="876.53" width="15.57" height="29.4" rx="1.99" ry="1.99" transform="translate(412.99 -139.28) rotate(24.26)"/>
        <rect class="cls-7" x="534.06" y="858.38" width="15.57" height="15.57" rx="1.99" ry="1.99" transform="translate(403.69 -146.14) rotate(24.26)"/>
        <path class="cls-8" d="M555.72,859.22l-17.85-8.04,3.49-3.13c1.61-1.44,3.68-1.87,5.37-1.1l6.27,2.83c1.7.76,2.75,2.59,2.73,4.76l-.03,4.69Z"/>
        <path class="cls-8" d="M560.39,843.97l.31-.68c.25-.55,0-1.21-.55-1.46l-12.19-5.49c-.55-.25-1.21,0-1.46.55l-.31.68c-.25.55,0,1.21.55,1.46l.63.28c.55.25.8.9.55,1.46h0c-.25.55-.9.8-1.46.55l-.63-.28c-.55-.25-1.21,0-1.46.55l-.31.68c-.25.55,0,1.21.55,1.46l12.19,5.49c.55.25,1.21,0,1.46-.55l.31-.68c.25-.55,0-1.21-.55-1.46l-.63-.28c-.55-.25-.8-.9-.55-1.46h0c.25-.55.9-.8,1.46-.55l.63.28c.55.25,1.21,0,1.46-.55Z"/>
        <path class="cls-8" d="M564.78,834.23l.31-.68c.25-.55,0-1.21-.55-1.46l-12.19-5.49c-.55-.25-1.21,0-1.46.55l-.31.68c-.25.55,0,1.21.55,1.46l.63.28c.55.25.8.9.55,1.46h0c-.25.55-.9.8-1.46.55l-.63-.28c-.55-.25-1.21,0-1.46.55l-.31.68c-.25.55,0,1.21.55,1.46l12.19,5.49c.55.25,1.21,0,1.46-.55l.31-.68c.25-.55,0-1.21-.55-1.46l-.63-.28c-.55-.25-.8-.9-.55-1.46h0c.25-.55.9-.8,1.46-.55l.63.28c.55.25,1.21,0,1.46-.55Z"/>
        <rect class="cls-8" x="552.53" y="823.19" width="14.99" height="3.85" rx="1.44" ry="1.44" transform="translate(388.43 -157.23) rotate(24.26)"/>
      </g>
    </g>
  </g>
  <g id="Layer_7" data-name="Layer 7">
    <g class="cls-3">
      <path class="cls-8" d="M1000.47,456.83l.18,17.96c12.17-4.84,29.67-14.03,43.15-31.67,33.37-43.64,17.32-106.77-3.13-143.02-33.75-59.83-96.39-73.35-109.62-76.21-15.58-3.36-46.65-10.07-79.34,4.18-21.01,9.15-33.62,23.01-45.93,36.54-24.12,26.5-35.19,52.6-42.8,70.99-4.47,10.8-18.1,45.48-22.97,97.09-2.79,29.55,1.34,21.74,2.09,97.09.42,42.73-.41,95.28-14.62,128.41-3.26,7.6-5.75,15.54-9.4,22.97,0,0-8.61,28.45-14.1,42.09-.51,1.26.81,2.23.81,2.23.72.53,2.03,1.37,3.86,1.74,1.07.22,3.19,1.1,3.79-.15,2.16-4.5,3.2-8.49,3.3-9.33.51-4.19,3.14-9.67,10.69-30.31.74-2.03.14-.23,6.61-15.31,6.47-15.07,9.71-22.61,11.14-26.45,3.39-9.11,5.29-18.18,6.96-38.28,1.62-19.49,2.27-40.18,1.39-77.25-.37-15.82-.56-15.18-1.74-54.98-1-33.8-.95-37.14-.7-41.76.44-8.06,2.08-31.15,10.44-59.85,1.68-5.77,8.62-28.91,23.66-56.72,7.05-13.03,14.71-27,28.54-42.8,9.44-10.79,18.29-20.72,33.41-29.23,4.91-2.77,19.17-10.27,39.32-12.88,21.99-2.85,38.92,1.7,49.07,4.52,18.07,5.04,30.52,12.44,37.58,16.7,8.61,5.2,25.4,15.55,41.06,35.15,11.53,14.43,17.58,27.77,20.18,34.1,6.83,16.58,8.67,30.26,9.74,38.63,1.53,11.95,2.77,21.66.7,34.45-1.13,6.98-4.27,24.91-18.1,41.41,0,0-9.86,11.77-24.36,19.84"/>
      <path class="cls-7" d="M1006.87,476.68l-6.4-25.59c-.57-2.27-2.54-3.55-4.4-2.86l-7.04,2.62c-1.86.69-2.91,3.1-2.35,5.37l6.4,25.59c.57,2.27,2.54,3.55,4.4,2.86l7.04-2.62c1.86-.69,2.91-3.1,2.35-5.37Z"/>
      <path class="cls-7" d="M985.33,484.69l-6.4-25.59c-.57-2.27-2.54-3.55-4.4-2.86l-10.41,3.87c-1.06,11.56,1.31,22.87,8.45,33.82l10.41-3.87c1.86-.69,2.91-3.1,2.35-5.37Z"/>
      <polygon class="cls-7" points="995.02 457.46 998.96 476.61 978.66 482.82 974.72 463.68 995.02 457.46"/>
      <g>
        <rect class="cls-7" x="700.23" y="725.61" width="5.24" height="21.14" transform="translate(364.5 -223.76) rotate(24.26)"/>
        <g>
          <path class="cls-15" d="M664.39,809.88l-3.08-1.39.03-.06.35-.77,3.19-7.09-2.3-1.04-5.62,12.47c-.59,1.31,0,2.85,1.3,3.44l3.02,1.36,3.12-6.92Z"/>
          <path class="cls-15" d="M665.7,800.94l-3.19,7.09,2.25,1.01.13.06.7.31-3.5,7.76,10.92,4.92c1.31.59,2.85,0,3.44-1.3l5.62-12.47-16.37-7.38Z"/>
        </g>
        <path class="cls-8" d="M708.92,751.51l-21.58-9.73c-.63-.28-1.35-.3-2-.06l-5.61,2.15c-.64.25-1.15.73-1.44,1.36l-24.27,53.85c-.59,1.31,0,2.84,1.3,3.43l29.3,13.2c1.31.59,2.84,0,3.43-1.3l24.27-53.85c.28-.62.3-1.33.06-1.97l-2.1-5.63c-.24-.65-.73-1.17-1.36-1.46Z"/>
        <rect class="cls-7" x="670.68" y="755.93" width="24.66" height="48.55" rx="2.01" ry="2.01" transform="translate(380.84 -211.72) rotate(24.26)"/>
        <rect class="cls-8" x="679.9" y="763.43" width="19.28" height="4.57" rx="1.71" ry="1.71" transform="translate(375.46 -215.68) rotate(24.26)"/>
        <rect class="cls-8" x="675.53" y="773.12" width="19.28" height="4.57" rx="1.71" ry="1.71" transform="translate(379.06 -213.03) rotate(24.26)"/>
        <rect class="cls-8" x="671.19" y="782.75" width="19.28" height="4.57" rx="1.71" ry="1.71" transform="translate(382.63 -210.4) rotate(24.26)"/>
        <rect class="cls-8" x="666.84" y="792.42" width="19.28" height="4.57" rx="1.71" ry="1.71" transform="translate(386.22 -207.76) rotate(24.26)"/>
        <path class="cls-8" d="M690.32,742.51h15.69c.99,0,1.8.8,1.8,1.8v6.32h-19.28v-6.32c0-.99.8-1.8,1.8-1.8Z" transform="translate(368.35 -220.92) rotate(24.26)"/>
        <path class="cls-8" d="M712.17,733.91h0c.27-.59.14-1.22-.27-1.41l-12.29-5.54c-.42-.19-.97.14-1.24.73h0c-.27.59-.14,1.22.27,1.41l2.76,1.25-.48,1.06-.54-.25c-.42-.19-.97.14-1.24.73l-.95,2.11c-.27.59-.14,1.22.27,1.41l.54.25-.48,1.06-2.76-1.25c-.42-.19-.97.14-1.24.73h0c-.27.59-.14,1.22.27,1.41l12.29,5.54c.42.19.97-.14,1.24-.73h0c.27-.59.14-1.22-.27-1.41l-2.31-1.04.48-1.06.54.25c.42.19.97-.14,1.24-.73l.95-2.11c.27-.59.14-1.22-.27-1.41l-.54-.25.48-1.06,2.31,1.04c.42.19.97-.14,1.24-.73Z"/>
        <rect class="cls-8" x="699.81" y="724.89" width="15.14" height="2.48" rx=".93" ry=".93" transform="translate(360.77 -226.51) rotate(24.26)"/>
      </g>
    </g>
  </g>
</svg>