<?xml version="1.0" encoding="UTF-8"?>
<svg id="Layer_2" data-name="Layer 2" xmlns="http://www.w3.org/2000/svg" viewBox="0 0 1920 1080">
  <defs>
    <style>
      .cls-1 {
        opacity: .25;
      }

      .cls-2 {
        fill: #efefef;
      }

      .cls-3 {
        fill: none;
        stroke: #a5a5a5;
        stroke-miterlimit: 10;
        stroke-width: 4px;
      }
    </style>
  </defs>
  <rect class="cls-2" width="1920" height="1080"/>
  <g class="cls-1">
    <polyline class="cls-3" points="1636.95 249.71 1563.6 209.91 1563.6 39.09 1636.95 74.23 1636.95 509.94 1564.26 556.08 1564.26 463.79 1636.95 424.26 1564.26 381.85 1564.26 289.56 1712.29 378.23 1712.29 726.7 1636.95 772.85 1636.95 680.56 1788.95 595.85"/>
    <polyline class="cls-3" points="1340.88 254.57 1264.22 300.71 1264.22 208.42 1340.88 164.97 1415.56 208.58 1340.88 254.57"/>
    <polyline class="cls-3" points="1636.95 333.1 1712.29 298.46 1712.29 5.5"/>
    <polyline class="cls-3" points="1916.66 152.14 1861.65 121.74 1786.97 162.44 1786.97 254.73 1861.65 208.58 1861.65 34.89 1916.66 63.62"/>
    <line class="cls-3" x1="1266.21" y1="37.09" x2="1266.21" y2="2.46"/>
    <polyline class="cls-3" points="1042.17 4.46 1042.17 80.38 1116.19 121.74 1116.19 5.5"/>
    <polyline class="cls-3" points="1415.56 208.58 1490.24 164.97 1490.24 5.5"/>
    <polyline class="cls-3" points="1564.26 463.79 1490.24 423.44 1564.26 381.85"/>
    <polyline class="cls-3" points="1636.95 424.26 1712.29 465.78 1786.97 424.26 1916.66 498.62"/>
    <polyline class="cls-3" points="1916.66 583.61 1788.95 510.88 1712.29 551.03"/>
    <line class="cls-3" x1="1861.65" y1="467.08" x2="1916.66" y2="435.7"/>
    <polyline class="cls-3" points="1861.65 378.23 1788.95 335.7 1788.95 595.85 1859.46 636.72 1788.95 674.06 1788.95 766.35 1861.65 726.7 1861.65 378.23 1916.66 349.08"/>
    <polyline class="cls-3" points="1712.29 208.42 1564.26 289.56 1415.56 208.58 1415.56 116.29 1486.97 80.38 1415.56 39.09 1415.56 4.46"/>
    <polyline class="cls-3" points="1563.6 121.74 1636.95 161.94 1788.95 80.38 1788.95 5.5"/>
    <polyline class="cls-3" points="1636.95 74.23 1712.29 33.17 1763.07 5.5"/>
    <line class="cls-3" x1="1712.29" y1="33.17" x2="1658.47" y2="5.5"/>
    <polyline class="cls-3" points="1563.6 209.91 1415.56 293.51 1340.88 254.57 1340.88 5.5"/>
    <polyline class="cls-3" points="1415.56 116.29 1340.88 74.23 1415.56 39.09 1359.39 5.5"/>
    <polyline class="cls-3" points="1340.88 74.23 1266.21 34.89 1191.53 80.38 1191.53 4.46"/>
    <polyline class="cls-3" points="1168.17 5.5 1116.19 33.17 1060.3 5.5"/>
  </g>
</svg>