<?xml version="1.0" encoding="UTF-8"?>
<svg id="Layer_1" data-name="Layer 1" xmlns="http://www.w3.org/2000/svg" viewBox="0 0 1920 1080">
  <defs>
    <style>
      .cls-1 {
        fill: #999;
      }

      .cls-1, .cls-2, .cls-3, .cls-4, .cls-5, .cls-6 {
        stroke: #601113;
        stroke-miterlimit: 10;
        stroke-width: 5px;
      }

      .cls-2, .cls-7 {
        fill: #fff;
      }

      .cls-7 {
        opacity: .43;
      }

      .cls-3 {
        fill: #1a1a1a;
      }

      .cls-8 {
        fill: #c9c9c9;
      }

      .cls-4 {
        fill: #d3d2d3;
      }

      .cls-9 {
        fill: #faf1f1;
      }

      .cls-5 {
        fill: none;
      }

      .cls-6 {
        fill: #cc2b2b;
      }
    </style>
  </defs>
  <path class="cls-9" d="M1456.31,402.28c-8.14-17.28-16.67-34.52-29.35-55.17-13.14-21.4-40.1-61.75-96.26-115.04-64.75-61.44-113.22-107.44-191.35-129.13-25.03-6.95-55.26-15.01-93.91-9.39-57.11,8.3-98.36,41.48-125.61,63.39-6.04,4.86-24.46,22.87-61.04,58.7-65.31,63.95-63.63,63.62-71.61,69.26-44.3,31.33-91.15,38.1-136.17,44.61-61.44,8.88-69.37-2.28-116.22,10.57-20.75,5.69-58.17,15.95-92.74,45.78-53.81,46.44-66.06,110.44-72.78,145.57-11.96,62.5-2.03,112.14,3.52,138.52,5.75,27.33,23.88,98.77,81,167.87,7.61,9.2,36.68,43.5,84.52,76.3,29.43,20.19,53.04,36.37,86.87,45.78,74.14,20.63,157.34-2.42,210.13-37.57,13.89-9.25,28.05-20.91,55.17-34.04,28.44-13.77,53.02-25.67,83.35-24.65,22.44.76,45.4,13.04,90.39,37.57,23.47,12.8,27.44,16.22,72.78,43.43,70.96,42.58,85.13,48.52,97.43,52.83,16.21,5.67,42.53,14.65,76.3,15.26,74.73,1.34,128.86-39.36,143.22-50.48,51.05-39.53,71.64-88.48,81-111.52,30.05-74,21.63-139.45,15.26-189-10.62-82.55-38.74-142.28-93.91-259.43Z"/>
  <line class="cls-5" x1="477.66" y1="929.46" x2="1491.14" y2="929.46"/>
  <path class="cls-6" d="M590.88,565.04c-8.79-9.57-7.74-8.61-11-12.06-1.92-2.04-2.45-2.55-13.35-13.54-6.22-6.27-9.36-9.43-10.81-10.92-5.49-5.63-6.84-7.16-13.29-13.9-8.13-8.49-7.45-7.58-15.22-15.68-5.58-5.82-11.58-11.25-16.8-17.4-2.14-2.52-5.52-6.65-11.29-10.26-3.96-2.48-6.6-3.18-7.57-3.41-2.15-.51-6.98-1.3-12.27.64-3.07,1.13-5.12,2.87-9.11,6.31-4.62,3.99-7.67,7.52-8.31,8.27-8.51,9.96-15.07,21.49-16.26,23.61-4.79,8.51-9.82,17.43-14.24,29.46-8.06,21.95-9.04,40.45-9.5,50.86-1.14,25.32,3.03,44.32,6.69,60.42,2.08,9.15,7.45,30.73,19.41,56.9,13.7,29.98,28.59,49.68,42.68,68.32,22.43,29.67,42.71,49.37,56.16,62.33,23.5,22.64,40.48,35.23,44.82,38.42,18.52,13.59,33,21.66,37.15,23.93,11.17,6.13,23.58,12.86,41.3,18.69,19.04,6.26,34.1,8.15,38.46,8.65,6.87.79,18.86,2.1,34.56.66,7.36-.68,20.4-1.96,34.73-7.42,5.78-2.2,11.14-4.85,16.28-7.39,7.49-3.7,10-5.36,11.74-6.63,1.54-1.12,5.5-3.8,11.15-7.87l9.81-5.78c6.53-4.01,9.88-5.43,15.6-10.07,3.59-2.91,7.8-6.39,11.87-12.14,3.06-4.32,5.3-7.57,5.64-12.38.36-5.01-1.54-9.01-2.37-10.7-.57-1.17-1.58-2.98-6.12-7.97-4.07-4.47-5.53-5.51-9.54-9.62-3.11-3.18-3.06-3.4-10.04-11.17-.46-.51-5.19-5.77-9.43-10.34-4.93-5.3-6.2-6.42-15.22-15.68-8.55-8.76-12.83-13.15-17.1-17.82-7.8-8.52-7.08-8.39-11.61-12.89-6.3-6.27-7.25-6.09-15.81-14.3l-20.41-20.18c-1.82-1.15-3.89-2.44-6.91-2.93-4.65-.77-8.46.84-11,1.95-3.02,1.32-5.14,2.9-7.38,4.73-4.45,3.64-8.75,7.16-13.95,13.65-3.9,4.86-6.38,9.28-11.34,18.12-6.79,12.1-10.19,18.15-11.11,23.69-1.22,7.34.13,11.57-2.4,12.89-2.19,1.14-4.92-1.13-15.03-7.54-7.98-5.06-5.13-2.92-13.78-8.44-7.74-4.94-12.44-7.94-18.67-12.53-3.41-2.52-7.6-5.62-12.78-10.13-3.96-3.45-7.38-6.9-14.07-13.65-7.13-7.2-10.69-10.8-14.26-14.79-6.34-7.08-10.76-12.81-13.61-16.53-5.04-6.56-8.53-11.1-12.67-17.85-1.64-2.67-3.58-6.23-7.48-13.35-3.49-6.37-5.28-9.65-7.37-14.07-3.35-7.09-2.49-6.41-4.64-10.32-2.41-4.39-3.98-6.11-3.24-7.52.87-1.65,3.84-.8,9.45-1.46,4.25-.5,7.12-1.52,12.72-3.52,4.75-1.7,8.01-3.31,12.29-5.43,5.08-2.52,8.57-4.25,12.93-7.18,2.53-1.69,5.77-4.42,12.25-9.87,7.8-6.56,8.88-7.77,9.92-9.13,2.2-2.88,5.02-6.58,5.59-12.02.5-4.78-.99-8.57-1.95-11-.46-1.17-1.98-4.8-5.28-8.58l-17.57-17.15Z"/>
  <path class="cls-4" d="M1461.79,897.74h-108.62l-7.08-95.37h-40.96l-7.08,95.37h-108.62c-5.48,0-9.93,4.44-9.93,9.93v21.58h292.21v-21.58c0-5.48-4.44-9.93-9.93-9.93Z"/>
  <rect class="cls-4" x="1077.74" y="515.26" width="495.75" height="313" rx="26.98" ry="26.98"/>
  <rect class="cls-3" x="1110.75" y="544.5" width="426.7" height="254.51" rx="26.98" ry="26.98"/>
  <rect class="cls-7" x="1141.38" y="546.83" width="59.03" height="249.39"/>
  <rect class="cls-7" x="1221.6" y="546.83" width="39.11" height="249.39"/>
  <rect class="cls-7" x="1269.26" y="546.83" width="14.91" height="249.39"/>
  <path class="cls-2" d="M1003.57,139.51c3.89,2.12,9.83-6.24,18.66-11.48,22.9-13.6,53.24.79,54.55,1.44,4.4,2.16,14.88,7.47,22.97,19.38,3.13,4.6,8.36,13.83,9.33,25.84.3,3.67.73,9.03-.72,15.79-1.75,8.2-4.88,12-2.87,15.07,1.58,2.42,4.96,2.27,10.77,2.87,0,0,8.19.85,20.81,4.31,9.65,2.65,15.49,8.42,25.12,17.94,5.03,4.97,12.96,12.95,19.38,25.84,8.88,17.82,9.3,33.86,9.33,38.04.16,23.3-9.52,40-14.36,48.09-1.39,2.33-7.57,12.47-18.66,22.97-5.5,5.21-10.87,10.21-19.38,14.35-2.21,1.08-9.15,4.3-23.69,6.46-14.17,2.11-25.1,1.65-30.86,1.44-17.22-.64-34.46-.22-51.68-.72-18.44-.54-12.87-.07-59.57-.72-59.87-.83-54.58-1.39-82.54-1.44-26.5-.04-56.4.42-75.36.72-16.27.25-32.54-.43-48.81,0-13.33.35-22.28.88-35.17-1.44-15.16-2.73-25.86-7.62-27.99-8.61-8.62-4.01-25.85-12.04-38.04-30.14-17.09-25.37-12.76-53.43-11.48-61.72.89-5.77,4.18-23.51,17.23-41.63,12.44-17.28,27.04-25.56,30.14-27.27,5.01-2.76,15.99-8.66,30.86-10.05,5.18-.48,10.87-.08,22.25.72,5.8.41,8.71.79,12.2,2.15,6.2,2.41,8.97,5.85,10.05,5.02,1.5-1.15-3.22-8.33-6.46-17.23-3.64-9.99-4-18.22-4.31-25.12-.81-18.52,4.19-32.7,7.18-40.91,6.4-17.6,15.36-29.48,19.38-34.45,2.61-3.22,13.27-16.03,31.58-27.27,18.18-11.16,34.64-15.1,41.63-16.51,20.01-4.03,35.85-2.15,40.91-1.44,19.05,2.68,32.38,9.34,35.17,10.77,5.29,2.71,9.99,5.87,19.38,12.2,10.52,7.09,15.78,10.63,20.1,15.07,3.92,4.03,11.18,11.5,15.07,22.97,3.67,10.81,5.02,18.66,5.02,18.66,1.08,6.27.96,9.01,2.87,10.05Z"/>
  <path class="cls-8" d="M962.91,93.22c2.84-4.64-16.98-22.85-42.26-30.83-23.98-7.57-45.14-3.48-53.79-1.71-25.96,5.32-42.36,17.98-49.94,23.98-6.91,5.47-30.58,24.71-38.42,56.52-6.02,24.45-.96,49.29,3.84,49.67,3.81.3,4.92-14.98,17.29-39.39,9.22-18.21,18.37-36.27,38.42-49.67,21.65-14.47,45.4-16.4,55.71-17.13,40.14-2.82,66.09,13.56,69.15,8.56Z"/>
  <path class="cls-8" d="M769.64,219.11c0-3.04-13.28-5.3-18.84-5.99-7.69-.96-22.7-2.63-38.54,5.14-8.25,4.05-13.11,8.88-22.27,17.98-5.76,5.73-10.76,10.77-15.41,18.84-4.49,7.79-6.35,14.39-8.56,22.27-2.54,9.03-4.19,14.9-4.28,23.12-.06,5.53-.05,16.32,5.99,27.4,2.83,5.18,6.17,8.59,12.85,15.41,4.04,4.13,10.15,10.31,18.84,16.27,12.33,8.46,27.71,15.01,29.12,12.85.98-1.51-5.61-6.09-17.98-19.7-10.47-11.51-15.71-17.27-19.7-25.69-1.78-3.76-7.35-15.91-5.99-31.69,1.46-16.98,10.11-28.41,17.13-37.68,4.2-5.55,12.7-16.55,27.4-24.83,20.98-11.82,40.26-10.04,40.25-13.7Z"/>
  <g>
    <path class="cls-1" d="M685.88,457.95l14.34-53.54c.18-.67-.44-1.29-1.11-1.11l-53.54,14.35c-.67.18-.9,1.02-.41,1.51l13.9,13.9-68.45,68.45c-3.14,3.14-3.14,8.24,0,11.38s8.24,3.14,11.38,0l68.45-68.45,13.9,13.9c.49.49,1.33.27,1.52-.41Z"/>
    <path class="cls-1" d="M680.4,534.14l-53.54,14.34c-.67.18-1.29-.44-1.11-1.11l14.35-53.54c.18-.67,1.02-.9,1.51-.41l13.9,13.9,68.45-68.45c3.14-3.14,8.24-3.14,11.38,0,3.14,3.14,3.14,8.24,0,11.38l-68.45,68.45,13.9,13.9c.49.49.27,1.33-.41,1.52Z"/>
  </g>
  <g>
    <path class="cls-1" d="M987.09,760.27l48,27.71c.6.35.6,1.22,0,1.57l-48,27.71c-.6.35-1.36-.09-1.36-.78v-19.66h-96.8c-4.45,0-8.05-3.6-8.05-8.05s3.6-8.05,8.05-8.05h96.8v-19.66c0-.7.75-1.13,1.36-.78Z"/>
    <path class="cls-1" d="M929.33,710.27l-48,27.71c-.6.35-.6,1.22,0,1.57l48,27.71c.6.35,1.36-.09,1.36-.78v-19.66s96.8,0,96.8,0c4.45,0,8.05-3.6,8.05-8.05s-3.6-8.05-8.05-8.05h-96.8s0-19.66,0-19.66c0-.7-.75-1.13-1.36-.78Z"/>
  </g>
  <g>
    <path class="cls-1" d="M1234.19,394.92l-53.54-14.34c-.67-.18-1.29.44-1.11,1.11l14.35,53.54c.18.67,1.02.9,1.51.41l13.9-13.9,68.45,68.45c3.14,3.14,8.24,3.14,11.38,0s3.14-8.24,0-11.38l-68.45-68.45,13.9-13.9c.49-.49.27-1.33-.41-1.52Z"/>
    <path class="cls-1" d="M1310.38,400.4l14.34,53.54c.18.67-.44,1.29-1.11,1.11l-53.54-14.35c-.67-.18-.9-1.02-.41-1.51l13.9-13.9-68.45-68.45c-3.14-3.14-3.14-8.24,0-11.38,3.14-3.14,8.24-3.14,11.38,0l68.45,68.45,13.9-13.9c.49-.49,1.33-.27,1.52.41Z"/>
  </g>
</svg>