<?xml version="1.0" encoding="UTF-8"?>
<svg id="Layer_1" data-name="Layer 1" xmlns="http://www.w3.org/2000/svg" viewBox="0 0 1920 1080">
  <defs>
    <style>
      .cls-1 {
        fill: #999;
      }

      .cls-1, .cls-2, .cls-3 {
        stroke: #601113;
        stroke-miterlimit: 10;
        stroke-width: 5px;
      }

      .cls-4 {
        fill: #fff;
      }

      .cls-5 {
        opacity: .79;
      }

      .cls-6 {
        fill: #faf1f1;
      }

      .cls-2 {
        fill: none;
      }

      .cls-3 {
        fill: #cc2b2b;
      }
    </style>
  </defs>
  <path class="cls-6" d="M1456.31,402.28c-8.14-17.28-16.67-34.52-29.35-55.17-13.14-21.4-40.1-61.75-96.26-115.04-64.75-61.44-113.22-107.44-191.35-129.13-25.03-6.95-55.26-15.01-93.91-9.39-57.11,8.3-98.36,41.48-125.61,63.39-6.04,4.86-24.46,22.87-61.04,58.7-65.31,63.95-63.63,63.62-71.61,69.26-44.3,31.33-91.15,38.1-136.17,44.61-61.44,8.88-69.37-2.28-116.22,10.57-20.75,5.69-58.17,15.95-92.74,45.78-53.81,46.44-66.06,110.44-72.78,145.57-11.96,62.5-2.03,112.14,3.52,138.52,5.75,27.33,23.88,98.77,81,167.87,7.61,9.2,36.68,43.5,84.52,76.3,29.43,20.19,53.04,36.37,86.87,45.78,74.14,20.63,157.34-2.42,210.13-37.57,13.89-9.25,28.05-20.91,55.17-34.04,28.44-13.77,53.02-25.67,83.35-24.65,22.44.76,45.4,13.04,90.39,37.57,23.47,12.8,27.44,16.22,72.78,43.43,70.96,42.58,85.13,48.52,97.43,52.83,16.21,5.67,42.53,14.65,76.3,15.26,74.73,1.34,128.86-39.36,143.22-50.48,51.05-39.53,71.64-88.48,81-111.52,30.05-74,21.63-139.45,15.26-189-10.62-82.55-38.74-142.28-93.91-259.43Z"/>
  <g class="cls-5">
    <circle class="cls-4" cx="988.22" cy="687.92" r="56.85" transform="translate(-59.63 94.77) rotate(-5.33)"/>
    <path class="cls-4" d="M1040.46,549.78c-4.42-2.15-12.82-6.18-24.27-9.11-4.07-1.04-16.99-4.1-34.12-3.51-7.33.25-20.73,1.36-36.51,6.75-4.89,1.67-15.18,5.52-26.9,12.88-6.58,4.14-11.45,8.32-21.19,16.7-2.38,2.04-6.37,5.54-9.65,11.27-1.37,2.39-2.73,4.81-3.24,8.33-.81,5.63,1.12,10.15,2.17,12.51.67,1.52,2.05,4.55,5.05,7.56,3.66,3.66,7.62,5.19,9.57,5.8,2.06.65,6.42,1.95,11.76.58,3.83-.99,6.35-2.96,8.28-4.45,2.7-2.09,3.42-3.39,6.71-6.98,1.28-1.39,4.75-5.16,9.21-8.89,5.89-4.92,10.88-7.58,11.95-8.14.98-.51,4.33-2.24,9.01-3.85,7.68-2.65,13.97-3.3,18.39-3.72,2.97-.29,7.73-.72,14.02-.3,8.05.54,14.07,2.17,16.32,2.83,6.43,1.87,11.03,4.16,13.55,5.43,3.63,1.82,6.66,3.35,10.27,6.07,1.54,1.16,3.16,2.52,6.1,4.45,2.41,1.58,3.7,2.42,5.65,3.15.77.29,3.47,1.26,7.15,1.34,1.64.04,5.37.07,9.53-1.89,3.56-1.68,5.64-3.99,7.16-5.69,2.87-3.19,4.28-6.22,4.69-7.13.98-2.2,2.99-6.72,2.2-12.25-.71-4.97-3.32-8.2-5.73-11.18-1.01-1.25-3.81-4.54-13.02-10.49-3.13-2.02-7.49-4.82-14.13-8.05Z"/>
    <path class="cls-4" d="M1118.22,479.63c-8.92-5.86-7.33-5.54-13.96-9.74-7.39-4.68-13.33-7.58-18.33-10-9.29-4.5-16.35-7.14-25.75-10.65-9.6-3.59-14.39-5.38-20.04-6.83-7.39-1.9-13.08-2.62-24.47-4.07-9.24-1.18-14.75-1.88-22.62-2.24-12-.55-21.72.05-27.71.58-4.14.37-12.96,1.28-24.09,3.59-10.16,2.11-17.59,4.42-23.18,6.18-8.63,2.71-17.28,5.43-28.11,10.65-6.54,3.15-11.47,6.06-16.23,8.87-9.49,5.6-16.19,10.31-17.68,11.35-2.11,1.49-8.85,6.3-17.16,13.31-5.52,4.66-9.21,7.77-13.87,12.67-5.38,5.64-4.52,5.75-10.29,11.67-2.5,2.56-3.95,3.86-5.41,6.53-2.62,4.75-2.72,9.18-2.72,10.29-.01,4.33,1.34,7.48,2.22,9.49.79,1.79,2.12,4.73,5.05,7.56,2.61,2.51,5.19,3.68,6.77,4.39,2.25,1,6.11,2.66,11.25,2.3,5.65-.4,9.53-3.02,11-4.04,2.25-1.56,2.8-2.53,7.31-7.71,1.43-1.64,5.86-6.73,9.72-10.61,3.87-3.9,6.96-6.38,11.14-9.74,6.61-5.31,11.95-8.88,15.35-11.13,4.99-3.32,9.98-6.62,17.1-10.29,6.07-3.13,10.86-5.06,15.09-6.76,4.31-1.73,9.49-3.81,16.51-5.89,3.78-1.12,10.85-3.06,19.98-4.54,9.76-1.58,17.26-1.87,21.89-2.04,2.56-.09,8.73-.27,16.74.11,4.71.22,11.81.58,20.94,2.06,6.9,1.12,11.61,2.35,20.85,4.75,7.3,1.9,11.05,2.88,16.18,4.85,5.06,1.94,8.92,3.85,12.92,5.82,3.61,1.78,7.61,3.77,12.68,6.85,5.37,3.26,9.43,6.21,11.78,7.93,4.08,2.99,6.12,4.48,8.28,6.25,2.5,2.05,3.21,2.8,5.05,3.88.9.52,3.79,2.14,7.97,2.94,1.99.38,4.8.89,8.38.22,1.42-.26,5.28-1.15,8.98-4.18,2.13-1.75,3.32-3.58,5.68-7.22,2.26-3.49,3.4-5.23,3.99-7.4,1.45-5.26-.13-9.88-.75-11.64-1.41-3.95-3.59-6.42-5.48-8.52-3.7-4.11-6.73-5.74-12.96-9.83Z"/>
    <path class="cls-4" d="M818.64,381.12c-5.6,3.11-7.39,3.91-11.11,6.39-3.34,2.22-5.07,3.67-9.99,7.62-11.03,8.84-9.91,7.59-16.83,13.28-6.56,5.39-11.49,9.74-13.63,11.64-5.42,4.81-9.73,8.65-15.08,14.12-6.8,6.96-5.62,7.02-10.62,11.7-3.63,3.4-6.21,5.26-8.81,9.52-2.21,3.62-2.97,6.56-3.27,8-.37,1.79-.93,4.45-.28,7.72.5,2.53,1.71,4.46,4.12,8.31,2.23,3.57,3.35,5.35,4.96,6.56,1.81,1.36,3.87,2,8,3.27,2.81.87,4.21,1.3,5.82,1.46,1.11.11,5.37.45,9.89-1.59,2.33-1.05,3.75-2.29,8.37-7.14,4.55-4.77,7.9-8.52,9.11-9.88,5.57-6.22,8.35-9.33,11.25-12.09,3.67-3.51,3.85-3.2,12.4-10.52,7.4-6.34,6.73-6.1,11.14-9.74,2.35-1.94,8.08-6.57,15.96-11.86,5.16-3.47,9.16-5.82,12.65-7.87,4.51-2.64,10.66-6.23,18.8-10.12,3.04-1.45,8.35-3.68,18.98-8.13,7.32-3.07,10.98-4.6,12.56-5.19,9.94-3.69,17.98-5.6,23.45-6.87,5.22-1.22,8.97-1.9,15.76-3.14,2.74-.5,9.69-1.75,19.11-3.12,10.78-1.57,16.17-2.36,23.15-2.83,2.11-.14,9.12-.58,18.37-.38,11.83.26,20.75,1.42,26.63,2.2,2.22.29,9.1,1.24,18.01,3,8.91,1.77,15.62,3.52,19.49,4.54,4.12,1.08,8.4,2.22,14.09,4.04,6.38,2.04,11.14,3.86,14.88,5.3,3.72,1.43,8.17,3.15,13.92,5.73,6.61,2.96,11.47,5.51,15.43,7.59,5.04,2.65,8.58,4.68,13.41,7.45,5.8,3.32,8.76,5.03,12.05,7.24,2.16,1.45,4.67,3.34,9.7,7.12,6.64,5,9.96,7.5,11.18,8.66,2.62,2.5,3.72,3.99,6.53,5.41,2.95,1.49,5.62,1.82,7.21,2,.94.11,5.08.52,10.28-.96,2.92-.83,6.73-1.92,10.21-5.3,4.75-4.62,5.62-10.38,5.88-12.26.48-3.51-.03-6.33-.5-8.99-.57-3.15-.94-5.24-2.37-7.47-1.65-2.59-3.28-3.12-6.92-6.05-3.49-2.81-5.06-4.79-6.98-6.71-6.48-6.48-16.95-11.25-22.5-15.3q-15.02-10.94-27.76-17.82c-8.79-4.74-18.36-8.02-37.49-14.57-18.03-6.17-27.04-9.26-39.93-12-10.98-2.34-19.76-3.41-29.54-4.6-14.06-1.72-25.24-2.41-31.7-2.73-8.56-.42-14.98-.74-23.8-.46-10.51.33-18.15,1.31-28.19,2.63-11.72,1.54-21.5,2.82-34.58,5.9-4.6,1.08-16.95,4.12-32.22,9.7-5.07,1.85-11.87,4.7-25.46,10.4-10.57,4.43-13.16,5.67-16.06,7.19-6.44,3.38-6.66,4.15-17.14,9.96Z"/>
  </g>
  <line class="cls-2" x1="477.66" y1="929.46" x2="1491.14" y2="929.46"/>
  <g>
    <path class="cls-1" d="M410.78,449.35h27.89v145.54h-27.89c-6.65,0-12.06-5.4-12.06-12.06v-121.43c0-6.65,5.4-12.06,12.06-12.06Z" transform="translate(119.68 -76.63) rotate(12.19)"/>
    <path class="cls-1" d="M817.91,567.59l26.1-120.84c18.88-87.4-33.78-172.93-117.61-191.04l-65.98-14.25c-83.83-18.11-167.09,38.06-185.97,125.46l-26.1,120.84,26.74,5.2,23.8-110.18c17.21-79.68,90.23-131.52,163.1-115.78l57.35,12.39c72.87,15.74,117.98,93.09,100.77,172.78l-23.8,110.18,21.59,5.24Z"/>
    <rect class="cls-3" x="422.52" y="422.44" width="60.43" height="214.08" rx="20.54" ry="20.54" transform="translate(122 -83.65) rotate(12.19)"/>
    <path class="cls-1" d="M827.94,537.38l-21.9-3.74-21.81,110.59c-15.77,79.98-87.85,133.12-160.99,118.7l-15.07-2.97-4.99,24.14,17.15,3.38c84.14,16.59,166.38-41.07,183.68-128.79l23.92-121.3Z"/>
    <path class="cls-1" d="M822.01,538.18h27.89v145.54h-27.89c-6.65,0-12.06-5.4-12.06-12.06v-121.43c0-6.65,5.4-12.06,12.06-12.06Z" transform="translate(1512.14 1383.35) rotate(-167.81)"/>
    <rect class="cls-3" x="765.66" y="496.56" width="60.43" height="214.08" rx="20.54" ry="20.54" transform="translate(1446.38 1361.62) rotate(-167.81)"/>
    <rect class="cls-3" x="552.51" y="737.44" width="108.31" height="59.63" rx="22.2" ry="22.2" transform="translate(175.67 -110.79) rotate(12.19)"/>
  </g>
  <path class="cls-3" d="M1305.85,350.97c-6.8-10.77-5.96-9.65-8.49-13.56-1.49-2.3-1.92-2.89-10.5-15.39-4.9-7.13-7.37-10.73-8.51-12.43-4.31-6.39-5.34-8.1-10.38-15.73-6.35-9.61-5.86-8.61-11.93-17.78-4.36-6.59-9.19-12.88-13.15-19.72-1.62-2.81-4.16-7.38-9.08-11.87-3.39-3.09-5.81-4.22-6.71-4.61-1.98-.87-6.5-2.48-11.94-1.53-3.16.55-5.44,1.87-9.89,4.48-5.16,3.04-8.71,5.91-9.46,6.52-9.95,8.11-18.29,18.08-19.82,19.92-6.11,7.37-12.52,15.08-18.89,25.91-11.62,19.75-15.8,37.42-18.07,47.37-5.53,24.22-4.84,43.27-4.14,59.43.4,9.18,1.8,30.94,8.75,58.26,7.96,31.3,18.87,52.91,29.19,73.34,16.43,32.53,32.53,55.09,43.23,69.94,18.7,25.95,32.86,41.06,36.49,44.89,15.48,16.34,28.03,26.66,31.63,29.58,9.7,7.87,20.48,16.53,36.54,25.25,17.26,9.37,31.45,13.83,35.56,15.08,6.49,1.97,17.82,5.33,33.2,6.69,7.22.64,20.01,1.68,34.78-1.08,5.95-1.11,11.59-2.72,16.99-4.27,7.87-2.25,10.58-3.42,12.48-4.33,1.69-.81,5.97-2.7,12.13-5.64l10.47-3.85c7-2.72,10.48-3.5,16.81-6.98,3.97-2.18,8.63-4.79,13.57-9.62,3.71-3.63,6.44-6.37,7.61-10.95,1.22-4.77.09-8.96-.41-10.73-.35-1.23-1-3.15-4.5-8.76-3.14-5.03-4.36-6.28-7.52-10.95-2.45-3.62-2.35-3.81-7.72-12.53-.36-.58-3.99-6.48-7.28-11.62-3.83-5.98-4.85-7.28-11.93-17.78-6.71-9.95-10.06-14.92-13.37-20.17-6.02-9.59-5.36-9.33-8.93-14.47-4.98-7.15-5.92-7.14-12.74-16.55l-16.15-23.04c-1.55-1.43-3.33-3.03-6.15-4.04-4.35-1.55-8.3-.67-10.95-.05-3.14.74-5.46,1.89-7.95,3.27-4.93,2.73-9.69,5.37-15.85,10.72-4.61,4.01-7.78,7.83-14.11,15.49-8.67,10.48-13,15.71-14.86,20.89-2.46,6.86-1.9,11.18-4.58,12.01-2.31.72-4.55-1.95-13.18-9.9-6.81-6.27-4.43-3.71-11.81-10.56-6.6-6.12-10.6-9.84-15.81-15.36-2.85-3.02-6.35-6.75-10.55-12.01-3.21-4.02-5.91-7.94-11.17-15.63-5.61-8.19-8.42-12.29-11.16-16.76-4.87-7.94-8.13-14.24-10.23-18.32-3.71-7.21-6.28-12.2-9.09-19.43-1.11-2.86-2.36-6.63-4.87-14.18-2.25-6.76-3.4-10.23-4.64-14.85-1.99-7.42-1.28-6.62-2.67-10.76-1.56-4.66-2.76-6.59-1.81-7.81,1.13-1.44,3.84-.1,9.37.25,4.18.26,7.13-.22,12.89-1.17,4.88-.8,8.3-1.79,12.8-3.09,5.33-1.54,9.01-2.6,13.73-4.65,2.73-1.19,6.34-3.25,13.54-7.37,8.67-4.96,9.92-5.93,11.16-7.06,2.62-2.39,5.99-5.46,7.49-10.61,1.32-4.52.54-8.43.05-10.95-.24-1.21-1.07-4.98-3.59-9.2l-13.94-19.62Z"/>
  <path class="cls-1" d="M1117.84,238.28l-18.39-68.62c-1.73-6.45-9.8-8.61-14.52-3.89l-18.33,18.33c-101.01-66.74-200.94-61.78-299.8,14.91-2.82,2.19-4.49,5.74-4.43,9.51l.02,1.33c.13,8.94,9.21,14.26,16.15,9.5,94.35-64.72,184.89-70.97,271.6-18.79l-15.45,15.45c-4.72,4.72-2.56,12.79,3.89,14.52l68.62,18.39c6.45,1.73,12.36-4.18,10.63-10.63Z"/>
  <path class="cls-1" d="M849.3,818.87l39.11,59.31c3.68,5.58,12.01,5.08,15.01-.89l11.61-23.18c116.91,31.44,210.17-4.82,279.77-108.79,1.99-2.97,2.45-6.86,1.2-10.42l-.44-1.26c-2.95-8.44-13.24-10.62-18.33-3.91-69.1,91.19-153.03,125.71-251.78,103.57l9.78-19.53c2.99-5.97-1.61-12.95-8.28-12.55l-70.92,4.22c-6.67.4-10.41,7.86-6.73,13.44Z"/>
</svg>