<?xml version="1.0" encoding="UTF-8"?>
<svg id="Layer_1" data-name="Layer 1" xmlns="http://www.w3.org/2000/svg" viewBox="0 0 1920 1080">
  <defs>
    <style>
      .cls-1 {
        fill: #bf2026;
      }

      .cls-2 {
        fill: #e89862;
        stroke: #601113;
        stroke-miterlimit: 10;
        stroke-width: 5px;
      }

      .cls-3 {
        fill: #4d4d4d;
      }

      .cls-4 {
        fill: #fff;
      }

      .cls-5 {
        fill: #e2525c;
      }

      .cls-6 {
        fill: #601113;
      }

      .cls-7 {
        fill: #666;
      }

      .cls-8 {
        fill: #faf1f1;
      }

      .cls-9 {
        fill: #ffe7cc;
      }

      .cls-10 {
        fill: #ddd;
      }

      .cls-11 {
        fill: #333;
      }

      .cls-12 {
        fill: #1a1a1a;
      }

      .cls-13 {
        fill: #ccc;
      }

      .cls-14 {
        fill: #f4f4f4;
      }

      .cls-15 {
        fill: #ffc580;
      }

      .cls-16 {
        fill: #e6e6e6;
      }
    </style>
  </defs>
  <path class="cls-8" d="M1460.28,398.95c-8.14-17.28-16.67-34.52-29.35-55.17-13.14-21.4-40.1-61.75-96.26-115.04-64.75-61.44-113.22-107.44-191.35-129.13-25.03-6.95-55.26-15.01-93.91-9.39-57.11,8.3-98.36,41.48-125.61,63.39-6.04,4.86-24.46,22.87-61.04,58.7-65.31,63.95-63.63,63.62-71.61,69.26-44.3,31.33-91.15,38.1-136.17,44.61-61.44,8.88-69.37-2.28-116.22,10.57-20.75,5.69-58.17,15.95-92.74,45.78-53.81,46.44-66.06,110.44-72.78,145.57-11.96,62.5-2.03,112.14,3.52,138.52,5.75,27.33,23.88,98.77,81,167.87,7.61,9.2,36.68,43.5,84.52,76.3,29.43,20.19,53.04,36.37,86.87,45.78,74.14,20.63,157.34-2.42,210.13-37.57,13.89-9.25,28.05-20.91,55.17-34.04,28.44-13.77,53.02-25.67,83.35-24.65,22.44.76,45.4,13.04,90.39,37.57,23.47,12.8,27.44,16.22,72.78,43.43,70.96,42.58,85.13,48.52,97.43,52.83,16.21,5.67,42.53,14.65,76.3,15.26,74.73,1.34,128.86-39.36,143.22-50.48,51.05-39.53,71.64-88.48,81-111.52,30.05-74,21.63-139.45,15.26-189-10.62-82.55-38.74-142.28-93.91-259.43v-.02Z"/>
  <path class="cls-12" d="M1263.3,220.9h-671.06c-19.47,0-35.25,15.78-35.25,35.25v314.82h741.55v-314.82c0-19.47-15.78-35.25-35.25-35.25Z"/>
  <g>
    <path class="cls-3" d="M553.76,557.99v-76.48h-3c-2.88,0-5.23-2.34-5.23-5.23s2.34-5.23,5.23-5.23h3v-91.5h-3c-2.88,0-5.23-2.34-5.23-5.23s2.34-5.23,5.23-5.23h3v-91.5h-3c-2.88,0-5.23-2.34-5.23-5.23s2.34-5.23,5.23-5.23h3v-16.77c0-17.56,14.29-31.85,31.85-31.85h198.95v-5.03c0-3.45,2.81-6.25,6.25-6.25s6.25,2.81,6.25,6.25v5.03h124.47v-5.03c0-3.45,2.81-6.25,6.25-6.25s6.25,2.81,6.25,6.25v5.03h139.23v-5.03c0-3.45,2.81-6.25,6.25-6.25s6.25,2.81,6.25,6.25v5.03h185.51c17.56,0,31.85,14.29,31.85,31.85v16.77h3c2.88,0,5.23,2.34,5.23,5.23s-2.34,5.23-5.23,5.23h-3v91.5h3c2.88,0,5.23,2.34,5.23,5.23s-2.34,5.23-5.23,5.23h-3v91.5h3c2.88,0,5.23,2.34,5.23,5.23s-2.34,5.23-5.23,5.23h-3v76.48h-749.39ZM592.78,228.49c-16.17,0-29.32,13.15-29.32,29.32v299.71h729.04v-299.71c0-16.17-13.15-29.32-29.32-29.32h-670.4Z"/>
    <path class="cls-6" d="M1079.53,210.24c1.79,0,3.25,1.46,3.25,3.25v8.02h188.51c15.91,0,28.85,12.94,28.85,28.85v19.77h6c1.23,0,2.23,1,2.23,2.23s-1,2.23-2.23,2.23h-6v97.51h6c1.23,0,2.23,1,2.23,2.23s-1,2.23-2.23,2.23h-6v97.51h6c1.23,0,2.23,1,2.23,2.23s-1,2.23-2.23,2.23h-6v76.48h-4.66v-297.18c0-17.82-14.5-32.32-32.32-32.32h-670.4c-17.82,0-32.32,14.5-32.32,32.32v297.18h-3.7v-76.48h-6c-1.23,0-2.23-1-2.23-2.23s1-2.23,2.23-2.23h6v-97.51h-6c-1.23,0-2.23-1-2.23-2.23s1-2.23,2.23-2.23h6v-97.51h-6c-1.23,0-2.23-1-2.23-2.23s1-2.23,2.23-2.23h6v-19.77c0-15.91,12.94-28.85,28.85-28.85h201.95v-8.02c0-1.79,1.46-3.25,3.25-3.25s3.25,1.46,3.25,3.25v8.02h130.47v-8.02c0-1.79,1.46-3.25,3.25-3.25s3.25,1.46,3.25,3.25v8.02h145.23v-8.02c0-1.79,1.46-3.25,3.25-3.25M1079.53,204.24c-5.11,0-9.25,4.14-9.25,9.25v2.02h-133.23v-2.02c0-5.11-4.14-9.25-9.25-9.25s-9.25,4.14-9.25,9.25v2.02h-118.47v-2.02c0-5.11-4.14-9.25-9.25-9.25h0c-5.11,0-9.25,4.14-9.25,9.25v2.02h-195.95c-19.25,0-34.85,15.6-34.85,34.85v13.77c-4.54,0-8.23,3.68-8.23,8.23s3.68,8.23,8.23,8.23v85.51c-4.54,0-8.23,3.68-8.23,8.23s3.68,8.23,8.23,8.23v85.51c-4.54,0-8.23,3.68-8.23,8.23s3.68,8.23,8.23,8.23v76.48h755.39v-76.48c4.54,0,8.23-3.68,8.23-8.23s-3.68-8.23-8.23-8.23v-85.51c4.54,0,8.23-3.68,8.23-8.23s-3.68-8.23-8.23-8.23v-85.51c4.54,0,8.23-3.68,8.23-8.23s-3.68-8.23-8.23-8.23v-13.77c0-19.25-15.6-34.85-34.85-34.85h-182.51v-2.02c0-5.11-4.14-9.25-9.25-9.25h0ZM566.45,554.52v-296.71c0-14.54,11.78-26.32,26.32-26.32h670.4c14.54,0,26.32,11.78,26.32,26.32v296.71h-723.04Z"/>
  </g>
  <g>
    <rect class="cls-16" x="607.93" y="200.73" width="73.5" height="40.36" rx="3.09" ry="3.09"/>
    <path class="cls-6" d="M678.33,203.23c.32,0,.59.26.59.59v34.18c0,.32-.26.59-.59.59h-67.32c-.32,0-.59-.26-.59-.59v-34.18c0-.32.26-.59.59-.59h67.32M678.33,198.23h-67.32c-3.09,0-5.59,2.5-5.59,5.59v34.18c0,3.09,2.5,5.59,5.59,5.59h67.32c3.09,0,5.59-2.5,5.59-5.59v-34.18c0-3.09-2.5-5.59-5.59-5.59h0Z"/>
  </g>
  <g>
    <path class="cls-16" d="M1187.11,200.73h67.32c1.71,0,3.09,1.38,3.09,3.09v34.18c0,1.71-1.38,3.09-3.09,3.09h-67.32c-1.71,0-3.09-1.38-3.09-3.09v-34.18c0-1.7,1.38-3.09,3.09-3.09Z"/>
    <path class="cls-6" d="M1254.43,203.23c.32,0,.59.26.59.59v34.18c0,.32-.26.59-.59.59h-67.32c-.32,0-.59-.26-.59-.59v-34.18c0-.32.26-.59.59-.59h67.32M1254.43,198.23h-67.32c-3.09,0-5.59,2.5-5.59,5.59v34.18c0,3.09,2.5,5.59,5.59,5.59h67.32c3.09,0,5.59-2.5,5.59-5.59v-34.18c0-3.09-2.5-5.59-5.59-5.59h0Z"/>
  </g>
  <g>
    <g>
      <path class="cls-7" d="M765.25,517.13c.75-2.53,1.55-5.07,2.4-7.58,4.03-11.99,7.59-19.21,12.52-29.21,2.42-4.91,5.17-10.47,8.4-17.5,6.18-13.42,9.28-20.16,12.27-29.53,2.52-7.91,4.31-15.75,7.55-29.99,1.21-5.29,2.16-9.65,2.96-13.27,3.14-14.3,3.64-16.2,6.12-18.04,1.91-1.42,3.9-2.05,6.46-2.05,1.74,0,3.62.28,5.61.58,2.38.36,4.83.73,7.57.73,4.3,0,8.29-.99,12.19-3.01,3.57-1.85,8.76-7.31,20.14-19.27l1.28-1.35c5.09-5.38,8.45-8.93,14.33-10.82,1.37-.44,3.65-1.18,6.26-1.18,1.48,0,2.93.24,4.31.71.62.21,6.15,2.24,8.5,7.91,1.83,4.42.67,8.49-.56,12.79-.95,3.31-2.02,5.19-3.39,7.57-.58,1.01-1.24,2.16-1.93,3.51-3.06,5.92-3.83,9.78-4.64,13.86-.57,2.83-1.15,5.76-2.6,9.72-2.74,7.49-6.38,12.47-10.98,18.78-8.03,11-14.61,16.88-22.22,23.68-5.57,4.98-11.88,10.62-19.64,19.09-5.74,6.27-7.67,9.04-11.53,14.57-3.42,4.9-8.58,12.31-19.71,26.74l-.14.19c-3.67,4.75-9.8,12.71-15.29,24.82-1.03,2.27-1.99,4.59-2.86,6.91l-23.37-9.36Z"/>
      <path class="cls-6" d="M891.3,338.15c1.22,0,2.37.19,3.5.58.2.07,5.03,1.76,7,6.51,1.5,3.62.5,7.11-.65,11.14-.86,3.02-1.82,4.69-3.15,7.01-.59,1.03-1.27,2.21-1.99,3.6-3.22,6.24-4.06,10.45-4.87,14.52-.55,2.74-1.11,5.57-2.49,9.35-2.5,6.83-5.52,11.14-10.66,18.16-7.88,10.79-14.36,16.58-21.86,23.29-5.61,5.01-11.97,10.7-19.81,19.27-5.85,6.39-7.94,9.39-11.74,14.83-3.4,4.88-8.55,12.26-19.64,26.64l-.14.19c-3.73,4.84-9.98,12.94-15.58,25.31-.7,1.54-1.37,3.11-2,4.68l-18.9-7.57c.55-1.78,1.12-3.55,1.71-5.31,3.98-11.83,7.51-18.99,12.4-28.9,2.43-4.92,5.18-10.5,8.43-17.57,6.22-13.52,9.34-20.3,12.38-29.82,2.56-8.01,4.35-15.89,7.61-30.19,1.21-5.3,2.18-9.73,2.96-13.29,2.96-13.49,3.44-15.29,5.17-16.57,1.49-1.1,2.93-1.56,4.97-1.56,1.56,0,3.34.27,5.24.56,2.35.36,5.02.76,7.94.76,4.72,0,9.08-1.08,13.34-3.29,3.94-2.05,8.87-7.23,20.8-19.77l1.28-1.35c5-5.28,8.01-8.47,13.29-10.16,1.31-.42,3.28-1.06,5.49-1.06M891.3,333.15c-2.91,0-5.36.76-7.03,1.3-7.01,2.25-10.77,6.63-16.66,12.82-10.86,11.41-16.29,17.12-19.48,18.78-4.05,2.11-7.68,2.73-11.03,2.73-4.86,0-9.13-1.31-13.18-1.31-2.7,0-5.32.59-7.95,2.54-4.16,3.09-4,6.35-10.02,32.76-3.34,14.65-5.06,22.13-7.5,29.78-2.94,9.22-6.01,15.9-12.16,29.25-9.73,21.14-14.92,28.8-21.03,46.96-1.4,4.17-2.43,7.63-3.06,9.85l27.87,11.16c.75-2.13,1.95-5.36,3.67-9.16,5.44-12.01,11.62-19.95,15.13-24.51,23.2-30.08,20.26-29.31,31.1-41.15,18.18-19.85,27.85-23.57,42.03-42.98,4.94-6.77,8.51-11.73,11.31-19.39,3.59-9.82,2.1-13.59,7.11-23.29,2.29-4.44,4.05-6.44,5.5-11.53,1.26-4.4,2.63-9.2.47-14.43-2.8-6.75-9.37-9.11-10-9.32-1.8-.62-3.53-.84-5.12-.84h0Z"/>
    </g>
    <g>
      <path class="cls-13" d="M902.25,350.18c-.49,0-.97-.09-1.43-.28l-18.36-7.35,1.26-1.26-2.63-2.75,3.65-1.56-2.98-4.74,4.03-1.73-3.83-4.92,4.27-2.79-3.1-3.75,3.31-1.73-4.47-5.63,3.33-2.71-3.6-4.32,6.35-2.52-3.84-3.43,3.56-1.75-1.62-5.14,4.43-1.19-2.36-4.63,4.54-2.9-4.94-2.85.78-.47,4.14-16.32,1.67.67c1.19,1.6,2.25,3.3,3.18,5.06,1.61,3.07,2.47,5.69,4.21,12.73,1.6,6.49,2.41,9.75,3.17,13.98,1.48,8.17,2.08,14.98,2.32,19.25.64,11.21-.12,19.83-.62,25.53-.18,2.04-.39,4.1-.63,6.13-.23,1.94-1.86,3.4-3.8,3.4Z"/>
      <path class="cls-6" d="M894.14,268.15c.44.71.85,1.44,1.24,2.18,1.5,2.86,2.32,5.36,4,12.17,1.59,6.45,2.39,9.68,3.14,13.82,1.45,8.05,2.05,14.75,2.29,18.95.63,11.03-.12,19.54-.61,25.17-.18,2.01-.39,4.04-.62,6.06-.09.77-.75,1.19-1.32,1.19-.17,0-.33-.03-.5-.1l-14.84-5.94.31-.31-1.83-1.91,3.02-1.29-2.98-4.74,4.33-1.85-3.99-5.12-.17-.22,4.33-2.83-2.91-3.52,3.25-1.7-3.76-4.74-1.05-1.33,3.38-2.75-3.01-3.62,6.9-2.74-4.09-3.66,2.16-1.06-1.29-4.09-.19-.6,4.89-1.31-2.73-5.36,6.09-3.9-6.29-3.63,2.84-11.2M891.03,260.06l-4.59,18.1-3.51,2.14,5.04,2.9-2.98,1.91,1.98,3.9-3.97,1.07,1.75,5.58-4.97,2.44,3.59,3.21-5.8,2.3,4.19,5.03-3.29,2.67,4.12,5.2-3.36,1.76,3.28,3.97-4.2,2.75,3.51,4.51-3.74,1.6,2.98,4.74-4.28,1.83,3.44,3.59-2.22,2.21,21.88,8.76c.78.31,1.58.46,2.36.46,3.09,0,5.9-2.29,6.29-5.6.23-1.92.44-3.99.64-6.2.54-6.16,1.26-14.73.62-25.89-.15-2.57-.64-10.03-2.36-19.55-.78-4.29-1.58-7.57-3.2-14.13-1.71-6.94-2.65-9.9-4.42-13.29-1.38-2.64-2.81-4.66-3.82-5.96l-4.96-1.99h0Z"/>
    </g>
    <g>
      <path class="cls-13" d="M833.8,531c-.1-6.21-.3-12.5-.57-18.74-.73-16.45-1.09-24.7-2.45-34.01-1.12-7.65-2.26-11.48-4.76-19.88-1.42-4.78-3.37-11.33-6.05-21.06-3.43-12.45-6.38-23.17-7.82-30.02-5.68-27.11-1.12-58.53,12.84-88.47.11-.24,11.31-23.91,33.32-45.06,5.79-5.56,11.57-9.33,17.67-11.51,2.49-.89,5.09-1.56,7.73-1.99l2.26.91-3.85,14.18-7.27,5.28,2.25,1.77-3.79,1.74,1.59,2.49-3.78.97,3.07,4.58-2.68,1.45,1.71,2.93-4.39.13,1.23,6.44-9.48,1.89,5.66,3.37-3.93,2.75,1.17,2.08-3.41,1.9,1.34,3.45-6.42,1.94,3.31,3.36-4.44,2.99,1.49,3.15-6.15,2.63,4.6,5.17-2.73,6.17,2.08.83-1.47,1.58,3.25,2.17-1.92,4.8,7.3,3.81-5.95,15.39,3.54,3.39.4.5c.78.99.97,1.19,2.52,2.52,2.67,2.29,5.19,3.37,6.4,3.88l.19.08c.92.39,9.06,4.06,12.98,10.83,1.85,3.21,2.72,7.02,2.56,11.34-.02.63-.09,2.56-2.94,11.39-1.34,4.15-2.41,7.1-3.36,9.71l-.59,1.62c-.02.06-2.35,6.51-5.54,16.81-2.73,8.79-3.82,17.7-5.81,33.89-1.47,11.94-2.35,21.96-3.95,40.15-.62,7.02-1.1,12.85-1.43,16.87l-.17,1.36-25.37-5.91Z"/>
      <path class="cls-6" d="M882.9,262.95l-2.96,10.9-3.88,2.82-5.35,3.88,1.64,1.29-2.69,1.24,1.28,2-3.85.99,3.5,5.23-2.54,1.37.89,1.53-3.11.09,1.1,5.76.21,1.13-.68.13-12.75,2.54,7.92,4.72-2.62,1.84,1.05,1.86-3.11,1.73,1.15,2.96-7.8,2.36,4.1,4.17-.16.11-3.56,2.4,1.3,2.74-.58.25-6.38,2.73,4.61,5.19,1.22,1.38-1.03,2.33-2.1,4.74,1.11.44-.99,1.07,4.01,2.67-.33.81-1.68,4.2,4.01,2.09,3.32,1.73-4.54,11.75-1.2,3.11,2.41,2.31,2.22,2.13c.11.14.2.25.29.36.92,1.16,1.24,1.48,2.86,2.86,2.96,2.54,5.82,3.76,7.04,4.28l.19.08c.84.36,8.29,3.71,11.8,9.78,1.62,2.79,2.36,6.16,2.23,10-.05,1.42-1.05,5.23-2.82,10.71-1.33,4.11-2.39,7.04-3.33,9.63l-.59,1.61c-.1.26-2.37,6.57-5.58,16.91-2.8,9-3.9,18-5.91,34.32-1.47,12-2.36,22.03-3.96,40.24-.45,5.13-.89,10.29-1.31,15.37l-20.71-4.83c-.11-5.6-.29-11.25-.54-16.86-.73-16.54-1.1-24.84-2.48-34.26-1.14-7.83-2.3-11.72-4.84-20.23-1.42-4.77-3.37-11.3-6.04-21.01-3.41-12.39-6.36-23.09-7.78-29.87-5.57-26.59-1.07-57.45,12.66-86.9.11-.23,11.15-23.52,32.79-44.32,5.53-5.31,11.02-8.89,16.78-10.95,1.97-.7,4-1.26,6.07-1.66M884.01,257.69c-2.18.32-5.3.94-8.86,2.21-4.24,1.51-10.74,4.54-18.56,12.06-22.64,21.75-33.86,45.81-33.86,45.81-3.69,7.92-22,47.17-13.03,90.04,1.45,6.93,4.35,17.44,7.85,30.17,7.34,26.64,9.03,28.85,10.75,40.64,1.34,9.17,1.7,17.37,2.43,33.76.38,8.53.53,15.64.6,20.62l29.99,6.99.51-4.23c.33-4.02.82-9.84,1.43-16.85,1.65-18.77,2.51-28.4,3.94-40.07,2.04-16.58,3.11-25.05,5.72-33.45,3.22-10.36,5.51-16.7,5.51-16.7,1.09-3.03,2.34-6.33,3.98-11.4,2.9-8.98,3.03-11.14,3.06-12.07.07-1.87.2-7.33-2.9-12.68-4.35-7.53-13.12-11.43-14.15-11.87-1.02-.44-3.42-1.39-5.96-3.57-1.77-1.52-1.51-1.34-2.71-2.82l-2.46-2.35,6.16-15.92-7.28-3.8,1.83-4.58-2.5-1.67,1.95-2.1-3.05-1.22,2.33-5.27-3.36-3.78,5.35-2.29-1.68-3.55,5.16-3.47-2.52-2.56,5.04-1.53-1.53-3.93,3.71-2.06-1.3-2.29,5.23-3.66-3.4-2.03,5.54-1.1-1.14-6,5.67-.17-2.53-4.34,2.83-1.53-2.63-3.93,3.7-.95-1.91-2.98,4.89-2.25-2.86-2.25,5.31-3.85,4.67-17.18-4.96-1.99h0Z"/>
    </g>
    <g>
      <path class="cls-14" d="M836.81,415.78c-1.96,0-3.88-.37-5.72-1.11-3.82-1.53-6.81-4.45-8.43-8.23-1.62-3.78-1.67-7.96-.14-11.78,2.35-5.88,7.96-9.67,14.29-9.67,1.96,0,3.88.37,5.72,1.11,7.88,3.16,11.72,12.13,8.57,20.01-2.35,5.88-7.96,9.67-14.29,9.67h0Z"/>
      <path class="cls-6" d="M836.83,387.49c1.64,0,3.25.31,4.79.93,3.2,1.28,5.7,3.73,7.06,6.89,1.35,3.17,1.4,6.67.12,9.87-1.97,4.92-6.67,8.1-11.97,8.1-1.64,0-3.25-.31-4.79-.93-6.6-2.64-9.82-10.16-7.17-16.76,1.97-4.92,6.67-8.1,11.97-8.1M836.83,382.49c-7.1,0-13.81,4.25-16.61,11.24-3.67,9.17.78,19.59,9.96,23.26,2.18.87,4.43,1.29,6.65,1.29,7.1,0,13.81-4.25,16.61-11.24,3.67-9.17-.78-19.59-9.96-23.26-2.18-.87-4.43-1.29-6.65-1.29h0Z"/>
    </g>
    <g>
      <path class="cls-1" d="M677.65,803.31c-.74,0-1.34-.14-1.84-.42-.08-.05-.69-.57-2.42-3.45-2.56-4.24-3.84-6.37-4.29-8.48-.77-3.58.07-6.6,1.03-10.11.37-1.34.78-2.47,3.37-8.37,1.39-3.17,2.8-6.32,4.19-9.35l.09-.19.06-.2c1.84-6.18,3.63-12.5,5.3-18.8.83-3.12,2.6-9.94,5.15-20.62,2.18-9.13,3.71-16.04,4.45-19.36l.31-1.38c2.07-9.26,4.26-16.93,13.93-46.85,7.67-23.76,11.52-35.68,16.04-48.9,10.5-30.68,14.27-39.35,16.76-45.08,1.73-3.97,2.87-6.6,5.14-14.04,1.45-4.75,3.72-9.17,6.12-13.85,1.63-3.18,3.31-6.46,4.72-9.86l.06-.16c1.19-2.88,2.68-6.48,6.01-8.16,1.48-.75,3.32-1.13,5.46-1.13,1.25,0,2.34.13,3.06.22,1.04.12,1.35.23,3.08.82,1.09.37,2.63.9,5.08,1.66,2.49.78,4.24,1.29,5.52,1.66,2.61.75,2.66.79,3.09,1.18,2.04,1.8,3.21,4.97,2.82,7.72-.05.37-.24,1.03-1.88,4.47-1.66,3.5-2.5,5.25-4.2,8.31-2.08,3.76-3.11,6.43-4.3,9.52-.59,1.55-1.21,3.15-2.04,5.12-1.34,3.19-2.02,4.45-7.29,14.27l-2.45,4.56c-8.09,15.09-11.72,21.88-13,24.68-3.11,6.82-4.94,12.07-8.58,22.53-4.65,13.36-7.6,23.67-9.54,30.5-3.07,10.75-5.11,18.92-6.91,26.14-2.41,9.65-3.6,14.94-4.75,20.06-1.12,4.99-2.18,9.7-4.28,17.95-3.61,14.15-5.42,21.25-8.49,29.99-4.51,12.8-8.91,21.89-13.17,30.68-.86,1.77-2.8,5.27-6.66,12.23-4.93,8.9-6.34,11.29-9.21,12.75-.92.47-3.35,1.7-5.55,1.7h0Z"/>
      <path class="cls-6" d="M767.28,517.57c1.07,0,2.02.11,2.71.2.71.08.78.1,2.47.68,1.06.36,2.67.91,5.15,1.69,2.53.79,4.3,1.3,5.59,1.67.8.23,1.62.47,2,.6,1.24,1.13,1.99,3.23,1.78,4.95-.09.27-.42,1.12-1.63,3.65-1.69,3.54-2.45,5.16-4.1,8.13-2.19,3.94-3.25,6.7-4.47,9.9-.59,1.53-1.19,3.11-2,5.04-1.29,3.06-1.95,4.3-7.15,13.98l-2.46,4.59c-8.34,15.54-11.77,21.97-13.09,24.86-3.17,6.94-5.01,12.24-8.7,22.81-4.67,13.42-7.63,23.78-9.59,30.64-3.09,10.82-5.13,19.01-6.94,26.23-2.42,9.68-3.61,14.99-4.76,20.13-1.11,4.97-2.17,9.66-4.26,17.87-3.59,14.07-5.38,21.13-8.41,29.73-4.45,12.65-8.82,21.66-13.04,30.38-.82,1.69-2.86,5.38-6.57,12.08-4.76,8.59-5.97,10.53-7.95,11.53-.67.34-2.7,1.38-4.19,1.38-.04,0-.08,0-.12,0-.29-.38-.79-1.11-1.58-2.42-2.55-4.22-3.59-6-3.93-7.56-.61-2.86.06-5.3.99-8.68.29-1.07.59-1.96,3.23-7.96,1.37-3.11,2.77-6.24,4.17-9.32l.17-.38.12-.4c1.85-6.2,3.64-12.56,5.33-18.88.84-3.15,2.62-10.03,5.17-20.69,2.18-9.17,3.72-16.09,4.46-19.41l.3-1.36c2.05-9.15,4.23-16.77,13.85-46.59,7.67-23.77,11.53-35.7,16.03-48.84,10.46-30.57,14.2-39.17,16.68-44.86,1.77-4.07,2.94-6.75,5.26-14.36,1.37-4.49,3.58-8.8,5.92-13.35,1.66-3.23,3.37-6.57,4.82-10.08l.06-.16c1.06-2.55,2.25-5.45,4.59-6.63,1.06-.54,2.44-.81,4.1-.81M767.28,511.57c-2.04,0-4.52.29-6.81,1.45-4.4,2.23-6.18,6.68-7.49,9.85-3.36,8.12-8.37,15.58-10.93,23.98-5.43,17.79-4.04,6.93-21.87,59.03-4.52,13.2-8.37,25.11-16.06,48.95-9.57,29.64-11.88,37.66-14,47.12-.59,2.63-2.22,10.1-4.74,20.7-2.83,11.88-4.66,18.8-5.13,20.54-2.03,7.64-3.88,14.03-5.28,18.71-1.03,2.26-2.49,5.49-4.2,9.39-2.66,6.06-3.1,7.28-3.52,8.78-1.02,3.69-2,7.24-1.07,11.53.56,2.6,1.92,4.86,4.65,9.4,2.21,3.67,3.01,4.22,3.51,4.51,1.04.59,2.18.81,3.32.81,2.93,0,5.83-1.48,6.91-2.03,3.69-1.88,5.38-4.78,10.47-13.97,3.89-7.02,5.84-10.53,6.73-12.37,4.27-8.82,8.74-18.03,13.3-31,3.12-8.85,4.93-15.98,8.57-30.24,4.21-16.52,4.2-18.71,9.03-38.03,1.92-7.68,3.89-15.54,6.89-26.04,2.05-7.2,4.96-17.33,9.48-30.32,3.62-10.4,5.44-15.6,8.49-22.3,1.26-2.77,5.17-10.06,12.92-24.51,7.51-14,8.27-15.3,9.86-19.09,2.57-6.11,3.23-9.02,6.19-14.36,1.74-3.14,2.59-4.92,4.28-8.48,1.86-3.9,2.04-4.61,2.14-5.35.5-3.58-.9-7.82-3.81-10.39-1.45-1.28-2.03-1.04-9.7-3.44-6.4-2.01-6.53-2.34-8.71-2.6-.77-.09-1.99-.24-3.42-.24h0Z"/>
    </g>
    <g>
      <path class="cls-1" d="M780.87,826.46c-1.2-.06-3.15-.98-5.55-5.04-1.63-2.77-1.54-5.54-.93-15.71.48-7.95.72-11.93.94-13.88,1.12-9.72,2.29-19.75,5.35-32.97,2.09-9.02,4.37-15.98,8.92-29.86,2.66-8.1,4.29-12.65,6.02-17.46,1.78-4.94,3.61-10.04,6.75-19.47,2.35-7.05,5-15.04,8.19-25.77,2.02-6.8,5.07-17.09,8.3-30.84,2.54-10.79,3.81-16.21,4.85-23.64.42-3.05,1-10.73,2.27-27.81l.38-5.2c.82-11.08.92-12.51,1.5-15.92.36-2.11.7-3.8,1.03-5.42.66-3.25,1.23-6.05,1.48-10.34.21-3.5.45-5.43.92-9.26.46-3.78.66-4.44.81-4.78,1.15-2.53,3.83-4.58,6.53-5,.18-.03.32-.04.42-.04.4,0,1.26.25,2.81.71,1.28.38,3.03.89,5.55,1.57,2.47.66,4.06,1.05,5.18,1.32,1.78.43,2.1.51,3.05.96,1.48.71,4.93,2.37,6.7,5.34,1.91,3.21,1.23,7.04.69,10.11l-.03.17c-.64,3.62-.98,7.3-1.31,10.85-.49,5.24-.94,10.18-2.27,14.97-2.07,7.5-2.52,10.32-3.19,14.6-.97,6.18-2.44,15.52-10.04,47.04-3.26,13.54-6.41,25.68-12.69,49.88-7.9,30.45-10.17,38.09-13.38,47.01l-.48,1.34c-1.16,3.2-3.57,9.84-6.63,18.71-2.65,7.69-4.98,14.66-6.72,20.16-1.96,6.19-3.84,12.49-5.61,18.71l-.06.2-.03.21c-.48,3.44-.96,6.76-1.48,10.14-.98,6.37-1.24,7.55-1.65,8.88-1.06,3.47-1.98,6.47-4.55,9.08-1.51,1.54-3.74,2.64-8.17,4.85-2.93,1.46-3.76,1.6-3.88,1.61h-.02Z"/>
      <path class="cls-6" d="M839.02,531.07c.39.09,1.21.33,2.01.57,1.29.38,3.06.9,5.61,1.58,2.51.68,4.16,1.07,5.25,1.34,1.74.42,1.81.44,2.45.75,1.23.59,4.12,1.97,5.42,4.17,1.34,2.26.8,5.34.32,8.06l-.03.17c-.66,3.74-1,7.48-1.34,11.09-.47,5.1-.92,9.92-2.17,14.44-2.12,7.66-2.57,10.55-3.27,14.94-.97,6.13-2.43,15.4-9.99,46.81-3.25,13.51-6.4,25.64-12.68,49.82-7.87,30.33-10.12,37.92-13.3,46.74l-.47,1.31c-1.16,3.2-3.58,9.87-6.65,18.78-3.57,10.35-5.76,17.12-6.74,20.24-1.97,6.24-3.87,12.56-5.63,18.79l-.11.4-.06.41c-.46,3.33-.96,6.73-1.48,10.1-.99,6.48-1.23,7.39-1.55,8.45-1.03,3.35-1.77,5.77-3.82,7.86-1.12,1.13-2.95,2.07-7.37,4.27-1.38.69-2.19,1.03-2.64,1.2-.44-.24-1.43-1.01-2.89-3.47-1.13-1.91-1.11-4.2-.52-14.02.46-7.63.71-11.83.93-13.69,1.11-9.62,2.26-19.57,5.29-32.64,2.06-8.88,4.33-15.8,8.85-29.6,2.64-8.06,4.27-12.58,5.99-17.37,1.78-4.95,3.63-10.07,6.78-19.54,2.35-7.07,5.02-15.08,8.22-25.86,2.03-6.84,5.09-17.17,8.35-31.01,2.56-10.89,3.85-16.35,4.9-23.92.44-3.14.98-10.41,2.29-28l.38-5.2c.81-10.96.91-12.37,1.47-15.64.35-2.07.69-3.72,1.01-5.33.68-3.36,1.27-6.26,1.54-10.76.2-3.4.42-5.18.9-9.08.34-2.78.51-3.67.59-3.95.73-1.56,2.5-2.93,4.16-3.22M839.06,525.05c-.28,0-.56.03-.89.08-3.84.6-7.29,3.43-8.79,6.72-.31.67-.53,1.37-1.06,5.66-.48,3.91-.72,5.86-.93,9.45-.36,6.09-1.36,8.91-2.47,15.44-.69,4.05-.74,5.55-1.92,21.4-1.21,16.36-1.83,24.6-2.25,27.61-1.02,7.29-2.28,12.65-4.8,23.37-3.15,13.39-6.13,23.49-8.26,30.67-3.1,10.47-5.66,18.15-8.16,25.67-6.29,18.9-7.47,20.74-12.78,36.94-4.58,13.98-6.87,20.97-8.99,30.12-3.1,13.39-4.28,23.57-5.4,33.3-.24,2.03-.48,6.04-.96,14.05-.63,10.49-.76,13.84,1.34,17.41.86,1.45,3.72,6.31,7.98,6.52.05,0,.11,0,.18,0,.61,0,1.73-.19,5.21-1.93,4.74-2.36,7.11-3.54,8.97-5.43,3.08-3.13,4.16-6.65,5.28-10.31.46-1.49.74-2.76,1.74-9.3.65-4.22,1.15-7.72,1.49-10.18,1.33-4.7,3.2-11.08,5.58-18.62.54-1.72,2.71-8.54,6.69-20.09,3.55-10.29,6.18-17.48,7.1-20.01,3.29-9.12,5.64-17.12,13.46-47.27,6.29-24.24,9.44-36.36,12.7-49.93,12.9-53.53,8.25-43.62,13.21-61.55,2.34-8.47,2.11-17.45,3.64-26.1.59-3.38,1.48-8.09-1.04-12.33-2.23-3.76-6.28-5.7-7.98-6.52-1.97-.95-2.26-.73-8.74-2.48-6.43-1.73-7.78-2.38-9.14-2.38h0Z"/>
    </g>
  </g>
  <g>
    <path class="cls-7" d="M1287.96,439.76l-1.71.67c-.23.09-.46.13-.71.13-.57,0-1.09-.25-1.44-.68-.51-.63-.55-1.53-.09-2.22l1.02-1.53-3.53-4.37-1.71.67c-.23.09-.46.13-.71.13-.57,0-1.09-.25-1.44-.68-.51-.63-.55-1.53-.09-2.22l1.02-1.53-3.93-4.86-1.71.67c-.23.09-.46.13-.71.13-.57,0-1.09-.25-1.44-.68-.51-.63-.55-1.53-.09-2.22l1.02-1.53-2.32-2.87,13.57-10.97,2.3,2.85,1.51-.33c.14-.03.28-.05.42-.05.57,0,1.1.25,1.45.69.45.55.53,1.3.23,1.97l-.64,1.41,3.89,4.81,1.51-.33c.14-.03.28-.05.42-.05.57,0,1.1.25,1.45.69.45.55.53,1.3.23,1.97l-.64,1.41,3.49,4.32,1.51-.33c.14-.03.28-.05.42-.05.57,0,1.1.25,1.45.68.45.55.53,1.3.23,1.97l-.64,1.41,3.17,3.93-13.57,10.97-3.2-3.95Z"/>
    <path class="cls-6" d="M1282.58,409.32l1.7,2.1,1.79-.39-.76,1.67,1.94,2.4,1.94,2.4,1.94,2.4,1.79-.39-.76,1.67,1.94,2.4,1.55,1.91,1.94,2.4,1.79-.39-.76,1.67,1.94,2.4.63.78-9.68,7.83-.47-.58-2.31-2.85-1.54.61.92-1.38-2.31-2.85-1.23-1.52-2.31-2.85-1.54.61.92-1.38-2.31-2.85-1.62-2.01-2.31-2.85-1.54.61.92-1.38-1.9-2.36,9.68-7.83M1283.32,402.29l-17.46,14.11,2.74,3.39c-1.03,1.55-1.01,3.65.23,5.17.86,1.07,2.12,1.61,3.39,1.61.55,0,1.1-.1,1.62-.31l1.62,2.01c-1.03,1.55-1.01,3.65.23,5.17.86,1.07,2.12,1.61,3.39,1.61.55,0,1.1-.1,1.62-.31l1.23,1.52c-1.03,1.55-1.01,3.65.23,5.17.86,1.07,2.12,1.61,3.39,1.61.55,0,1.1-.1,1.62-.31l3.61,4.47,17.46-14.11-3.77-4.67c.67-1.46.52-3.24-.56-4.58-.86-1.07-2.12-1.61-3.4-1.61-.32,0-.64.03-.96.1l-1.55-1.91c.67-1.46.52-3.24-.56-4.58h0c-.86-1.07-2.12-1.61-3.4-1.61-.32,0-.64.03-.96.1l-1.94-2.4c.67-1.46.52-3.24-.56-4.58-.86-1.07-2.12-1.61-3.4-1.61-.32,0-.64.03-.96.1l-2.9-3.59h0Z"/>
  </g>
  <g>
    <path class="cls-13" d="M1112.41,764.29c-4.23,0-8.31-.96-12.13-2.85-6.56-3.25-11.46-8.85-13.8-15.78-2.34-6.93-1.84-14.36,1.4-20.92.54-1.08,1.17-2.16,1.88-3.22l.09-.14,153.72-264.73c.08-.13.15-.27.22-.41,3.4-7.01,4.93-10.21,5.46-12.41.54-2.22.59-3.41.66-4.92.06-1.52.15-3.61.81-8.07.19-1.29.35-2.23.52-3.25.24-1.41.5-2.99.92-5.83.6-4.14.93-6.42.97-8.41.04-2.15-.14-3.2-.53-5.5-.19-1.12-.44-2.6-.76-4.72-1.06-7.15-1.71-14.14-1.72-14.2-.6-4.71-1.12-9.41-1.63-13.95-.46-4.14-.9-8.04-1.38-11.91-.02-.17,0-.34.06-.51l12.54-32.68c.07-.18.18-.34.32-.46,12.3-10.09,27.83-15.64,43.75-15.64,8.1,0,16.07,1.42,23.68,4.23.5.19.64.6.67.83.03.19.05.68-.41,1.03l-34.58,26.75c-1.7,1.31-2.58,3.45-2.31,5.58l1.64,12.67c.14,1.1.58,2.14,1.27,3l24.16,30.36c.55.69,1.26,1.27,2.06,1.66l5.99,2.96c.83.41,1.76.63,2.69.63,1.47,0,2.89-.53,4-1.5l37.02-32.36c.21-.18.44-.27.7-.27.43,0,.95.26,1.06.84,2.71,14.68.63,29.54-6,42.95-2.95,5.96-6.72,11.43-11.2,16.27l-.27.3-.17.37c-.47,1.03-1.28,2.06-2.23,3.26-1.76,2.24-3.96,5.03-5.22,9.47-2.13,7.54-1.15,13.27-.56,16.69l.08.47c-.09,2.08-.34,2.65-1,3.24-.6.53-1.36.82-2.16.82h0c-.93,0-1.82-.4-2.44-1.09l-4.1-4.62-2.42,2.1-1.24-1.43,2.41-2.08-5.21-5.86-2.52,2.18-1.59-1.84,1.17-3.75-4.44,1.25c-3.74,1.05-7.55,1.79-11.34,2.19-.8.08-1.55.32-2.24.69-1.49.81-2.92,1.68-4.38,2.65-1.4.93-3.69,2.81-8.27,6.56-8.44,6.91-13.09,10.72-15.59,13.95-.21.27-.4.56-.58.9l-142.9,273.18c-4.68,9.46-14.1,15.3-24.6,15.3ZM1292.26,398.35c-1.85,0-3.67.64-5.12,1.79l-24.09,19.15c-3.56,2.83-4.15,8.02-1.32,11.58l13.67,17.19c1.57,1.98,3.92,3.11,6.45,3.11,1.85,0,3.67-.64,5.12-1.79l24.09-19.15c1.72-1.37,2.81-3.33,3.06-5.51.25-2.19-.37-4.34-1.74-6.06l-13.67-17.19c-1.57-1.98-3.92-3.11-6.45-3.11Z"/>
    <path class="cls-6" d="M1303.77,316.29c6.93,0,13.76,1.08,20.34,3.22l-32.51,25.14c-2.4,1.85-3.65,4.88-3.26,7.88l1.64,12.67c.2,1.55.82,3.02,1.79,4.24l24.16,30.36c.78.98,1.79,1.79,2.91,2.35l5.99,2.96c1.18.58,2.49.89,3.8.89,2.08,0,4.08-.75,5.64-2.12l35.1-30.68c1.94,13.32-.19,26.7-6.2,38.85-2.84,5.74-6.47,11.02-10.8,15.68l-.55.59-.33.73c-.34.76-1.07,1.68-1.92,2.75-1.8,2.29-4.27,5.42-5.66,10.33-2.28,8.08-1.24,14.16-.62,17.8l.03.19c-.04.74-.09,1.06-.13,1.2,0,0-.01,0-.02.01-.14.13-.31.19-.5.19-.16,0-.38-.04-.57-.25l-2.46-2.77-3.28-3.69h0s-1.3-1.47-1.3-1.47l-1.88-2.12-3.28-3.69-.7.6,1.31-4.16-8.89,2.5c-3.6,1.01-7.28,1.72-10.93,2.11-1.13.12-2.2.45-3.17.98-1.56.85-3.06,1.76-4.56,2.76-1.49.99-3.68,2.78-8.47,6.7-8.58,7.03-13.3,10.9-15.98,14.34-.31.4-.58.82-.82,1.29l-142.9,273.17-.03.05-.02.05c-4.23,8.55-12.79,13.86-22.33,13.86-3.84,0-7.55-.87-11.02-2.59-5.96-2.95-10.41-8.04-12.54-14.34-2.13-6.3-1.68-13.05,1.27-19.01.48-.98,1.06-1.96,1.71-2.92l.1-.14.09-.15,153.72-264.72c.11-.19.21-.39.3-.57,3.57-7.37,5.05-10.46,5.64-12.91.6-2.46.66-3.83.72-5.41.06-1.47.14-3.48.78-7.8.19-1.27.34-2.19.51-3.2.24-1.41.51-3.02.92-5.89.62-4.24.96-6.57,1-8.72.05-2.39-.17-3.66-.57-5.97-.2-1.14-.44-2.57-.75-4.67-1.01-6.77-1.63-13.33-1.7-14.06v-.1s-.02-.08-.02-.08c-.58-4.6-1.11-9.28-1.62-13.8-.45-4.02-.88-7.83-1.34-11.6l12.28-32c11.81-9.57,26.66-14.83,41.86-14.83M1281.85,453.67c2.42,0,4.79-.83,6.68-2.33l24.09-19.15c2.25-1.79,3.66-4.34,3.99-7.19.33-2.85-.48-5.66-2.26-7.9l-13.67-17.19c-2.05-2.58-5.11-4.06-8.41-4.06-2.41,0-4.79.83-6.68,2.33l-24.09,19.15c-2.25,1.79-3.66,4.34-3.99,7.19-.33,2.85.48,5.66,2.26,7.9l13.67,17.19c2.05,2.58,5.11,4.06,8.41,4.06M1303.77,311.29c-16.48,0-32.56,5.73-45.33,16.2-.48.4-.85.91-1.07,1.5l-12.54,32.68c-.21.55-.28,1.13-.21,1.71,1.02,8.23,1.9,17.04,3.01,25.78,0,.01.65,7.04,1.73,14.35.94,6.34,1.32,6.9,1.27,9.8-.03,1.8-.34,3.92-.95,8.1-.72,4.93-.98,6.02-1.43,9.08-1.31,8.89-.42,8.67-1.42,12.76-.48,1.98-2.09,5.33-5.29,11.92-.04.08-.08.16-.13.24l-153.72,264.73c-.75,1.11-1.44,2.27-2.05,3.51-7.32,14.8-1.26,32.73,13.53,40.05,4.26,2.11,8.78,3.11,13.24,3.11,11.01,0,21.6-6.11,26.82-16.64l142.9-273.17c.1-.19.21-.37.34-.53,2.29-2.95,6.7-6.58,15.2-13.55,4.52-3.7,6.78-5.55,8.07-6.41,1.49-.99,2.89-1.82,4.19-2.53.4-.22.84-.35,1.3-.4,3.98-.43,7.91-1.19,11.75-2.27-.12.4-.07.84.22,1.18l2.89,3.34c.24.28.59.43.94.43.29,0,.58-.1.81-.3l1.61-1.39,1.88,2.12-1.45,1.25c-.52.45-.57,1.23-.13,1.75l2.89,3.34c.24.28.59.43.94.43.29,0,.57-.1.81-.3l1.51-1.31,2.46,2.77c1.14,1.28,2.72,1.94,4.31,1.94,1.36,0,2.72-.48,3.82-1.45,1.54-1.37,1.77-2.94,1.85-5.27-.55-3.31-1.75-8.8.38-16.31,1.79-6.34,5.73-8.89,7.32-12.37,4.55-4.91,8.49-10.55,11.61-16.86,7.09-14.34,8.92-29.9,6.22-44.51-.33-1.8-1.9-2.89-3.52-2.89-.82,0-1.65.28-2.35.89l-37.02,32.36c-.67.58-1.51.88-2.35.88-.54,0-1.08-.12-1.59-.37l-5.99-2.96c-.47-.23-.89-.57-1.21-.98l-24.16-30.36c-.41-.51-.66-1.12-.75-1.77l-1.64-12.67c-.16-1.26.35-2.51,1.36-3.29l34.58-26.74c2.22-1.71,1.7-5.22-.93-6.19-8.04-2.96-16.34-4.39-24.55-4.39h0ZM1281.85,448.67c-1.69,0-3.36-.74-4.5-2.17l-13.67-17.19c-1.97-2.48-1.56-6.09.92-8.06l24.09-19.15c1.06-.84,2.32-1.25,3.57-1.25,1.69,0,3.36.74,4.5,2.17l13.67,17.19c1.97,2.48,1.56,6.09-.92,8.06l-24.09,19.15c-1.06.84-2.32,1.25-3.57,1.25h0Z"/>
  </g>
  <rect class="cls-7" x="1022.39" y="589.81" width="324.64" height="30.01" rx="14.28" ry="14.28" transform="translate(80.68 1346.75) rotate(-60.95)"/>
  <rect class="cls-13" x="1030.8" y="596.16" width="307.87" height="17.25" rx="8.21" ry="8.21" transform="translate(80.71 1346.75) rotate(-60.95)"/>
  <g>
    <g>
      <rect class="cls-15" x="693.46" y="192.57" width="57.24" height="416.56"/>
      <path class="cls-6" d="M748.2,195.07v411.56h-52.24V195.07h52.24M753.2,190.07h-62.24v421.56h62.24V190.07h0Z"/>
    </g>
    <rect class="cls-6" x="690.96" y="207.63" width="20.29" height="6.85"/>
    <rect class="cls-6" x="690.96" y="258.34" width="20.29" height="6.85"/>
    <rect class="cls-6" x="690.96" y="309.06" width="20.29" height="6.85"/>
    <rect class="cls-6" x="690.96" y="359.78" width="20.29" height="6.85"/>
    <rect class="cls-6" x="690.96" y="423.68" width="20.29" height="6.85"/>
    <rect class="cls-6" x="690.96" y="484.76" width="20.29" height="6.85"/>
  </g>
  <g>
    <g>
      <path class="cls-13" d="M653.01,561.97c-.79,0-1.55-.12-2.25-.34-1.05-.34-1.43-.72-2.72-2.09-1.35-1.43-3.4-3.6-7.62-6.74-1.09-.81-1.92-1.38-2.58-1.84-1.27-.88-1.74-1.2-2.46-2.07-2.53-3.04-2.91-6.63-3.22-9.51l-.03-.32c-.05-.43-1.19-10.78-4.98-26.09-.75-3.04-2.3-7.37-5.1-15.24-3.93-11.01-7-19.13-9.24-25.07l-1.41-3.73c-2.64-7.04-3.64-9.96-5.02-14.01-1.32-3.87-2.96-8.69-6.65-18.93-3.68-10.2-5.45-14.86-7.16-19.36-1.7-4.48-3.46-9.11-7.13-19.28-.04-.11-4.14-11.5-9.65-26.1-3.71-9.85-4.1-10.71-4.53-11.25-.17-.36-.65-1.51-1.91-4.77l-1-2.62c-1.98-5.19-2.72-7.13-4.72-9.79-4.31-5.74-9.76-8.43-13.01-10.05-2.9-1.44-8.94-4.43-17.23-4.43h-.26c-5.84.04-10.06,1.56-14.52,3.17-2.73.98-8.39,3.02-14.36,7.46-3.53,2.63-5.4,4.77-6.76,6.34-1.48,1.7-2.22,2.56-4.19,3.22-1.24.42-2.64.63-4.07.63-3.17,0-6.19-1.04-8.3-2.86-3.05-2.63-3.44-6.53-4.1-15.86-1.01-14.2-.09-21.98,2.75-23.1.15-.06.22-.07.29-.07.26,0,.76.16,1.33.33,1.32.41,3.31,1.04,6.53,1.13.26,0,.52.01.77.01,4.87,0,8.63-1.31,11.12-2.17,4.34-1.51,6.72-3.12,13.78-7.9l1.08-.73c8.54-5.78,13.25-8.97,15.84-10.41,5.88-3.26,10.7-4.99,14.58-6.38,16.53-5.92,34.49-8.87,43.72-10.1l1.45-.19c15.54-2.07,30.22-4.03,44.09-4.03,5.18,0,9.84.27,14.24.83,4.71.6,8.09.98,10.81,1.29,7.4.85,9.16,1.05,17.53,3.32l.33.09c1.93.51,12.64,3.4,19.95,6.49,2.06.87,4.24,1.93,4.7,2.16.92.55,1.73,1.02,2.45,1.43-1,.11-2.2.21-3.65.32-4.43.32-8.96.48-13.45.48-3.69,0-6.66-.11-8.62-.18l-.55-.02c-5.03-.18-9.38-.33-13.88-.33-4.01,0-7.63.12-11.4.39-5.04.36-11.95.84-20.79,3-5.29,1.29-12.53,3.06-20.85,7.72-5.82,3.26-10.57,7.01-14.12,11.14-2.73,3.17-6.13,7.12-6.59,12.84-.32,3.97,1.26,10.94,2.67,16.58l.2.8c1.33,5.5,2.04,7.29,2.74,9.01.81,2.02,1.64,4.1,3.74,13.33,1.71,7.52,2.95,10.93,5.42,17.71,1.62,4.44,3.83,10.53,7.08,20.32,3.3,9.94,4.54,14.28,5.73,18.46,1.12,3.92,2.17,7.62,4.76,15.45,5.48,16.58,8.83,24.36,12.37,32.59,3.17,7.36,6.44,14.97,11.64,29.59l1.16,3.27c3.25,9.24,5.4,15.34,10.58,22.73.31.44.65.92,1.02,1.44,1.81,2.52,4.28,5.97,7.13,11.11,3.87,6.98,5.57,10.23,5.34,13.91-.28,4.47-2.83,8.71-7.57,12.6-5.31,4.35-9.07,5.27-11.29,5.27Z"/>
      <path class="cls-6" d="M634.16,269.35c5.07,0,9.63.27,13.92.81,4.73.6,8.12.99,10.85,1.3,7.43.85,8.97,1.02,17.15,3.25h.03s.03.01.03.01c.11.03,10.79,2.82,18.52,5.88-2.52.1-5.06.15-7.58.15-3.65,0-6.59-.11-8.53-.18l-.54-.02c-5.06-.18-9.43-.34-13.97-.34-4.06,0-7.74.13-11.57.39-5.13.36-12.16.86-21.2,3.06-5.43,1.32-12.86,3.14-21.48,7.97-6.08,3.41-11.05,7.34-14.8,11.69-2.81,3.27-6.66,7.74-7.19,14.27-.35,4.34,1.28,11.57,2.74,17.39.08.33.15.59.19.77,1.37,5.68,2.12,7.55,2.84,9.35.77,1.93,1.57,3.92,3.62,12.96,1.74,7.68,3.08,11.35,5.51,18.01,1.61,4.43,3.82,10.49,7.06,20.25,3.28,9.89,4.51,14.2,5.7,18.36,1.13,3.95,2.19,7.67,4.79,15.55,5.52,16.68,8.88,24.51,12.44,32.79,3.15,7.32,6.41,14.89,11.58,29.44.4,1.14.79,2.22,1.15,3.26,3.32,9.43,5.52,15.66,10.9,23.33.32.45.66.94,1.04,1.47,1.77,2.47,4.2,5.85,6.97,10.86,3.72,6.71,5.22,9.55,5.03,12.54-.24,3.75-2.48,7.39-6.66,10.82-4.98,4.09-8.21,4.7-9.7,4.7-.53,0-1.01-.07-1.47-.22-.43-.14-.49-.16-1.69-1.43-1.41-1.5-3.55-3.76-7.95-7.03-1.13-.84-1.97-1.42-2.65-1.89-1.25-.86-1.47-1.02-1.95-1.6-2.05-2.47-2.37-5.5-2.66-8.18l-.03-.32c-.05-.44-1.21-10.95-5.04-26.42-.78-3.16-2.34-7.53-5.18-15.47-3.93-11.02-7.01-19.16-9.25-25.1-.51-1.34-.98-2.58-1.41-3.74-2.63-7-3.62-9.91-4.99-13.93-1.32-3.88-2.97-8.71-6.66-18.98-3.69-10.23-5.46-14.9-7.18-19.41-1.7-4.47-3.46-9.09-7.11-19.23l-.06.02c-.72-2.34-2.92-8.42-9.6-26.15-3.49-9.25-4.12-10.83-4.71-11.66-.19-.45-.65-1.57-1.74-4.39-.37-.96-.7-1.83-1-2.62-2.01-5.27-2.84-7.46-5.05-10.39-4.67-6.21-10.45-9.07-13.9-10.78-2.83-1.4-9.47-4.69-18.33-4.69h-.28c-6.27.05-10.89,1.71-15.35,3.32-2.83,1.02-8.73,3.14-15.01,7.8-3.75,2.79-5.72,5.06-7.16,6.71-1.47,1.69-1.82,2.06-3.1,2.49-.99.33-2.12.5-3.27.5-2.58,0-5-.82-6.66-2.25-2.2-1.9-2.59-5.01-3.24-14.15-.24-3.34-.6-8.39-.36-12.89.24-4.65,1.01-6.64,1.43-7.4.02,0,.04.01.05.02,1.45.45,3.64,1.14,7.21,1.24.28,0,.56.01.84.01,5.3,0,9.3-1.39,11.94-2.31,4.65-1.62,7.29-3.41,14.35-8.19l1.09-.74c8.21-5.55,13.16-8.91,15.65-10.29,5.7-3.16,10.42-4.85,14.21-6.21,16.31-5.84,34.07-8.76,43.21-9.97l1.44-.19c15.46-2.06,30.06-4.01,43.76-4.01M634.16,264.35c-14.47,0-30.04,2.14-45.86,4.24-5.21.69-25.59,3.54-44.23,10.22-4.21,1.51-9.01,3.25-14.95,6.55-2.63,1.46-7.13,4.5-16.03,10.52-7.84,5.3-10.05,6.87-14.28,8.34-2.58.9-5.94,2.03-10.3,2.03-.23,0-.46,0-.7,0-4.67-.13-6.25-1.46-7.93-1.46-.38,0-.77.07-1.21.24-5.98,2.37-4.87,17.98-4.33,25.61.67,9.44,1.09,14.23,4.96,17.57,2.7,2.33,6.38,3.47,9.93,3.47,1.69,0,3.35-.26,4.86-.76,4.86-1.63,4.48-4.59,11.65-9.93,5.56-4.14,10.76-6.05,13.72-7.11,4.35-1.56,8.28-2.98,13.7-3.02.08,0,.16,0,.24,0,7.54,0,13.12,2.69,16.11,4.17,3.22,1.59,8.17,4.05,12.12,9.31,2.06,2.74,2.61,4.6,5.38,11.8,4.39,11.4-.45-2.24,6.43,16.01,5.56,14.75,9.63,26.06,9.63,26.06,7.32,20.33,6.93,18.23,14.28,38.65,7.62,21.16,6.53,19.28,11.68,32.97,2.38,6.34,5.84,15.33,10.63,28.76,2.87,8.05,4.32,12.14,5.03,15,3.79,15.32,4.93,25.76,4.93,25.76.33,3.07.71,7.4,3.82,11.15,1.39,1.68,2.22,1.9,5.47,4.31,8.05,5.98,7.65,8.07,11.06,9.19,1,.33,2.01.47,3.03.47,5.76,0,11.38-4.61,12.87-5.83,1.75-1.43,7.98-6.55,8.48-14.37.28-4.48-1.69-8.14-5.65-15.28-3.51-6.32-6.47-10.17-8.29-12.77-5.55-7.92-7.46-14.24-11.43-25.4-11.2-31.51-13.78-31.24-23.99-62.13-5.39-16.31-4.15-14.81-10.49-33.92-8.05-24.26-9.62-25.4-12.44-37.8-3.86-17-3.6-10.42-6.48-22.38-.47-1.93-3.18-12.06-2.81-16.58.39-4.8,3.28-8.25,6-11.41,1.58-1.84,5.59-6.18,13.45-10.59,7.86-4.41,14.64-6.11,20.22-7.47,8.46-2.06,15.06-2.56,20.37-2.93,3.97-.28,7.61-.38,11.22-.38,4.45,0,8.86.16,13.79.33,1.99.07,5.16.2,9.25.2,3.81,0,8.42-.11,13.63-.48,4.77-.34,9.82-.88,9.94-2.14.05-.48-1.03-.27-7.72-4.3,0,0-2.52-1.25-4.92-2.27-8.21-3.47-20.6-6.69-20.6-6.69-11.59-3.15-10.81-2.41-28.68-4.68-4.7-.6-9.56-.85-14.55-.85h0Z"/>
    </g>
    <g>
      <path class="cls-7" d="M468.04,366.04c-3.31,0-6.3-2.08-7.44-5.19l-13.86-37.5c-.73-1.99-.65-4.14.24-6.07.89-1.92,2.47-3.39,4.46-4.12l22.22-8.21c.89-.33,1.81-.5,2.75-.5,3.31,0,6.3,2.08,7.44,5.19l13.86,37.5c.73,1.99.65,4.14-.24,6.07-.89,1.92-2.47,3.39-4.46,4.12l-22.22,8.21c-.89.33-1.81.5-2.75.5Z"/>
      <path class="cls-6" d="M476.4,306.96c2.26,0,4.31,1.43,5.1,3.55l13.86,37.5c1.04,2.81-.4,5.94-3.21,6.98l-22.22,8.21c-.61.23-1.24.34-1.88.34-2.26,0-4.31-1.43-5.1-3.55l-13.86-37.5c-1.04-2.81.4-5.94,3.21-6.98l22.22-8.21c.61-.23,1.24-.34,1.88-.34M476.39,301.96c-1.2,0-2.42.21-3.62.65l-22.22,8.21c-5.41,2-8.17,8-6.17,13.41l13.86,37.5c1.56,4.21,5.55,6.82,9.79,6.82,1.2,0,2.42-.21,3.62-.65l22.22-8.21c5.41-2,8.17-8,6.17-13.41l-13.86-37.5c-1.56-4.21-5.55-6.82-9.79-6.82h0Z"/>
    </g>
    <g>
      <path class="cls-7" d="M751.25,866.8c-2.11,0-4.02-1.33-4.75-3.31l-112.85-305.31c-.47-1.27-.42-2.64.15-3.87.57-1.23,1.58-2.16,2.84-2.63l34.34-12.69c.57-.21,1.16-.32,1.75-.32,2.11,0,4.02,1.33,4.75,3.31l112.85,305.31c.47,1.27.42,2.64-.15,3.87-.57,1.23-1.58,2.17-2.84,2.63l-34.34,12.69c-.57.21-1.16.32-1.75.32Z"/>
      <path class="cls-6" d="M672.74,541.16c.89,0,1.98.52,2.41,1.68l112.85,305.31c.24.64.21,1.34-.08,1.96-.29.62-.8,1.1-1.44,1.33l-34.34,12.69c-.29.11-.59.16-.89.16-.89,0-1.98-.52-2.41-1.68l-112.85-305.31c-.49-1.33.19-2.81,1.52-3.3l34.34-12.69c.29-.11.59-.16.89-.16M672.74,536.16c-.87,0-1.76.15-2.62.47l-34.34,12.69c-3.92,1.45-5.92,5.8-4.47,9.72l112.85,305.31c1.13,3.05,4.02,4.94,7.1,4.94.87,0,1.76-.15,2.62-.47l34.34-12.69c3.92-1.45,5.92-5.8,4.47-9.72l-112.85-305.31c-1.13-3.05-4.02-4.94-7.1-4.94h0Z"/>
    </g>
  </g>
  <g>
    <polygon class="cls-13" points="1101.57 551 1120.13 175.72 1131.18 167.75 1141.39 176.77 1122.83 552.05 1101.57 551"/>
    <path class="cls-6" d="M1131.02,170.94l7.81,6.91-18.37,371.58-16.26-.8,18.37-371.58,8.45-6.1M1131.25,164.9c-.25,0-.49.07-.68.2l-12.61,9.1c-.17.13-.27.29-.28.48l-18.72,378.69,26.25,1.3,18.72-378.69c0-.18-.07-.36-.24-.5l-11.65-10.3c-.21-.18-.5-.28-.79-.28h0Z"/>
  </g>
  <g>
    <path class="cls-7" d="M1127.43,802.95l-51.76-2.56c-1.86-.09-3.57-.9-4.81-2.28-1.25-1.38-1.88-3.16-1.79-5.02l12.49-252.58c.14-2.88,2.09-5.4,4.84-6.28l1.03-.33.47-.97c8.23-17.22,10.83-34.99,7.72-52.81l-.34-1.97-3.64-.18c-3.83-.19-6.8-3.46-6.61-7.29l.77-15.61c.18-3.71,3.23-6.62,6.94-6.62.12,0,.23,0,.35,0l51.76,2.56c3.83.19,6.8,3.46,6.61,7.29l-.77,15.61c-.18,3.71-3.23,6.62-6.94,6.62-.12,0-.23,0-.35,0l-5.63-.28-.65,1.7c-6.94,18.22-5.52,36.31,4.22,53.79l.45.81.88.32c2.88,1.05,4.72,3.82,4.57,6.88l-12.49,252.58c-.18,3.71-3.23,6.62-6.94,6.62-.12,0-.23,0-.35,0Z"/>
    <path class="cls-6" d="M1092.72,450.96c.08,0,.15,0,.23,0l51.76,2.56c1.19.06,2.29.58,3.08,1.46.8.88,1.21,2.02,1.15,3.21l-.77,15.61c-.12,2.38-2.07,4.24-4.45,4.24-.08,0-.15,0-.23,0l-3.81-.19-3.63-.18-1.29,3.39c-7.21,18.94-5.74,37.75,4.37,55.9l.91,1.63,1.75.64c1.85.67,3.02,2.44,2.93,4.41l-12.49,252.58c-.12,2.38-2.07,4.24-4.45,4.24-.08,0-.15,0-.23,0l-51.76-2.56c-1.19-.06-2.29-.58-3.09-1.46-.8-.88-1.21-2.02-1.15-3.21l12.49-252.58c.09-1.84,1.34-3.46,3.1-4.02l2.06-.66.93-1.95c8.46-17.7,11.13-35.98,7.93-54.32l-.69-3.94-3.99-.2-1.65-.08c-1.19-.06-2.29-.58-3.08-1.46-.8-.88-1.21-2.02-1.15-3.21l.77-15.61c.12-2.38,2.07-4.24,4.45-4.24h0M1092.72,445.96c-5.01,0-9.19,3.93-9.44,8.99l-.77,15.61c-.26,5.22,3.76,9.66,8.98,9.92l1.65.08c3.03,17.37.53,34.47-7.51,51.3-3.65,1.17-6.37,4.49-6.57,8.54l-12.49,252.58c-.26,5.22,3.76,9.66,8.98,9.92l51.76,2.56c.16,0,.32.01.47.01,5.01,0,9.19-3.93,9.44-8.99l12.49-252.58c.21-4.25-2.41-7.98-6.21-9.36-8.98-16.11-11.1-33.22-4.07-51.68l3.81.19c.16,0,.32.01.48.01,5.01,0,9.19-3.93,9.44-8.99l.77-15.61c.26-5.22-3.76-9.66-8.98-9.92l-51.76-2.56c-.16,0-.32-.01-.47-.01h0Z"/>
  </g>
  <rect class="cls-13" x="1098.91" y="522.25" width="18.92" height="232.47" rx="9" ry="9" transform="translate(32.88 -53.95) rotate(2.83)"/>
  <g>
    <g>
      <path class="cls-15" d="M1041.48,812.35c-1.55,0-2.85-1.16-3.04-2.7l-48.88-411.84c-.1-.81.13-1.61.64-2.26.51-.64,1.23-1.05,2.05-1.15l42.86-5.09c.12-.01.25-.02.37-.02,1.55,0,2.85,1.16,3.04,2.7l48.88,411.84c.2,1.68-1,3.21-2.68,3.41l-42.86,5.09c-.12.01-.25.02-.37.02Z"/>
      <path class="cls-6" d="M1035.47,391.79c.24,0,.52.19.55.5l48.88,411.84c.02.15-.02.29-.12.42-.1.12-.22.19-.38.21l-42.86,5.09s-.05,0-.07,0c-.24,0-.52-.19-.55-.5l-48.88-411.84c-.04-.31.19-.59.49-.63l42.86-5.09s.05,0,.07,0M1035.47,386.79c-.22,0-.44.01-.66.04l-42.86,5.09c-3.05.36-5.23,3.13-4.87,6.18l48.88,411.84c.34,2.83,2.74,4.91,5.52,4.91.22,0,.44-.01.66-.04l42.86-5.09c3.05-.36,5.23-3.13,4.87-6.18l-48.88-411.84c-.34-2.83-2.74-4.91-5.52-4.91h0Z"/>
    </g>
    <polygon class="cls-2" points="1006.2 327.12 991.33 391.99 1035.85 386.7 1006.2 327.12"/>
    <polygon class="cls-11" points="1007.16 335.21 1002.65 354.79 1016.13 353.19 1007.16 335.21"/>
    <rect class="cls-9" x="1035.38" y="402.03" width="6.58" height="397.3" rx="3.13" ry="3.13" transform="translate(-63.55 126.6) rotate(-6.77)"/>
    <rect class="cls-9" x="1021.49" y="403.68" width="6.58" height="397.3" rx="3.13" ry="3.13" transform="translate(-63.85 124.97) rotate(-6.77)"/>
    <rect class="cls-9" x="1049.67" y="400.33" width="6.58" height="397.3" rx="3.13" ry="3.13" transform="translate(-63.25 128.27) rotate(-6.77)"/>
  </g>
  <g>
    <path class="cls-3" d="M566.88,875.3c-15.12,0-27.42-11.84-27.98-26.95l-11.17-297.22c-.09-2.4.78-4.68,2.45-6.41,1.67-1.73,3.91-2.68,6.31-2.68h782.62c2.4,0,4.65.95,6.31,2.68,1.67,1.73,2.54,4.01,2.45,6.41l-11.17,297.22c-.57,15.11-12.86,26.95-27.98,26.95h-721.82Z"/>
    <path class="cls-6" d="M1319.1,545.04c1.58,0,3.06.63,4.15,1.77s1.67,2.64,1.61,4.22l-11.17,297.22c-.51,13.49-11.48,24.06-24.99,24.06h-721.82c-13.5,0-24.48-10.57-24.99-24.06l-11.17-297.22c-.06-1.58.51-3.08,1.61-4.22s2.57-1.77,4.15-1.77h782.61M1319.1,539.04h-782.61c-6.67,0-12.01,5.54-11.76,12.21l11.17,297.22c.63,16.66,14.31,29.84,30.98,29.84h721.82c16.67,0,30.36-13.18,30.98-29.84l11.17-297.22c.25-6.67-5.09-12.21-11.76-12.21h0Z"/>
  </g>
  <g>
    <g>
      <path class="cls-16" d="M638.2,568.47c-.31,0-.56-.25-.56-.56v-9.1c0-3.06-2.49-5.56-5.56-5.56h-23.59c-.31,0-.56-.25-.56-.56v-38.54c0-.31.25-.56.56-.56h72.38c.31,0,.56.25.56.56v38.54c0,.31-.25.56-.56.56h-21.28c-3.06,0-5.56,2.49-5.56,5.56v9.1c0,.31-.25.56-.56.56h-15.27Z"/>
      <path class="cls-6" d="M678.92,516.1v34.65h-19.34c-4.44,0-8.06,3.61-8.06,8.06v7.16h-11.39v-7.16c0-4.44-3.61-8.06-8.06-8.06h-21.65v-34.65h68.5M680.87,511.1h-72.38c-1.69,0-3.06,1.37-3.06,3.06v38.54c0,1.69,1.37,3.06,3.06,3.06h23.6c1.69,0,3.06,1.37,3.06,3.06v9.1c0,1.69,1.37,3.06,3.06,3.06h15.27c1.69,0,3.06-1.37,3.06-3.06v-9.1c0-1.69,1.37-3.06,3.06-3.06h21.28c1.69,0,3.06-1.37,3.06-3.06v-38.54c0-1.69-1.37-3.06-3.06-3.06h0Z"/>
    </g>
    <g>
      <path class="cls-16" d="M608.49,608.38c-.31,0-.56-.25-.56-.56v-43.78c0-.31.25-.56.56-.56h16.6c.31,0,.56.25.56.56v10.99c0,3.06,2.49,5.56,5.56,5.56h28.02c3.06,0,5.56-2.49,5.56-5.56v-10.99c0-.31.25-.56.56-.56h15.53c.31,0,.56.25.56.56v43.78c0,.31-.25.56-.56.56h-72.38Z"/>
      <path class="cls-6" d="M678.92,565.99v39.89h-68.5v-39.89h12.72v9.05c0,4.44,3.61,8.06,8.06,8.06h28.02c4.44,0,8.06-3.61,8.06-8.06v-9.05h11.64M680.87,560.99h-15.53c-1.69,0-3.06,1.37-3.06,3.06v10.99c0,1.69-1.37,3.06-3.06,3.06h-28.02c-1.69,0-3.06-1.37-3.06-3.06v-10.99c0-1.69-1.37-3.06-3.06-3.06h-16.6c-1.69,0-3.06,1.37-3.06,3.06v43.78c0,1.69,1.37,3.06,3.06,3.06h72.38c1.69,0,3.06-1.37,3.06-3.06v-43.78c0-1.69-1.37-3.06-3.06-3.06h0Z"/>
    </g>
  </g>
  <g>
    <g>
      <path class="cls-16" d="M1184.58,608.38c-.31,0-.56-.25-.56-.56v-43.78c0-.31.25-.56.56-.56h16.6c.31,0,.56.25.56.56v10.99c0,3.06,2.49,5.56,5.56,5.56h28.02c3.06,0,5.56-2.49,5.56-5.56v-10.99c0-.31.25-.56.56-.56h15.53c.31,0,.56.25.56.56v43.78c0,.31-.25.56-.56.56h-72.38Z"/>
      <path class="cls-6" d="M1255.01,565.99v39.89h-68.5v-39.89h12.72v9.05c0,4.44,3.61,8.06,8.06,8.06h28.02c4.44,0,8.06-3.61,8.06-8.06v-9.05h11.64M1256.96,560.99h-15.53c-1.69,0-3.06,1.37-3.06,3.06v10.99c0,1.69-1.37,3.06-3.06,3.06h-28.02c-1.69,0-3.06-1.37-3.06-3.06v-10.99c0-1.69-1.37-3.06-3.06-3.06h-16.6c-1.69,0-3.06,1.37-3.06,3.06v43.78c0,1.69,1.37,3.06,3.06,3.06h72.38c1.69,0,3.06-1.37,3.06-3.06v-43.78c0-1.69-1.37-3.06-3.06-3.06h0Z"/>
    </g>
    <g>
      <path class="cls-16" d="M1214.29,568.47c-.31,0-.56-.25-.56-.56v-9.1c0-3.06-2.49-5.56-5.56-5.56h-23.6c-.31,0-.56-.25-.56-.56v-38.54c0-.31.25-.56.56-.56h72.38c.31,0,.56.25.56.56v38.54c0,.31-.25.56-.56.56h-21.28c-3.06,0-5.56,2.49-5.56,5.56v9.1c0,.31-.25.56-.56.56h-15.27Z"/>
      <path class="cls-6" d="M1255.01,516.1v34.65h-19.34c-4.44,0-8.06,3.61-8.06,8.06v7.16h-11.39v-7.16c0-4.44-3.61-8.06-8.06-8.06h-21.65v-34.65h68.5M1256.96,511.1h-72.38c-1.69,0-3.06,1.37-3.06,3.06v38.54c0,1.69,1.37,3.06,3.06,3.06h23.6c1.69,0,3.06,1.37,3.06,3.06v9.1c0,1.69,1.37,3.06,3.06,3.06h15.27c1.69,0,3.06-1.37,3.06-3.06v-9.1c0-1.69,1.37-3.06,3.06-3.06h21.28c1.69,0,3.06-1.37,3.06-3.06v-38.54c0-1.69-1.37-3.06-3.06-3.06h0Z"/>
    </g>
  </g>
  <g>
    <path class="cls-5" d="M1148.5,882.19c-4.06,0-7.36-3.3-7.36-7.36v-34.59h-205.33v34.59c0,4.06-3.3,7.36-7.36,7.36s-7.36-3.3-7.36-7.36v-34.59h-202.02v34.59c0,4.06-3.3,7.36-7.36,7.36s-7.36-3.3-7.36-7.36v-34.59h-169.71c-2.88,0-5.23-2.34-5.23-5.23s2.34-5.23,5.23-5.23h169.71v-95.25h-174.05c-2.88,0-5.23-2.34-5.23-5.23s2.34-5.23,5.23-5.23h174.05v-78.8h-178.01c-2.88,0-5.23-2.34-5.23-5.23s2.34-5.23,5.23-5.23h178.01v-92.99c0-4.06,3.3-7.36,7.36-7.36s7.36,3.3,7.36,7.36v92.99h202.02v-92.99c0-4.06,3.3-7.36,7.36-7.36s7.36,3.3,7.36,7.36v92.99h205.33v-92.99c0-4.06,3.3-7.36,7.36-7.36s7.36,3.3,7.36,7.36v92.99h173.64c2.88,0,5.23,2.34,5.23,5.23s-2.34,5.23-5.23,5.23h-173.64v78.8h170.74c2.88,0,5.23,2.34,5.23,5.23s-2.34,5.23-5.23,5.23h-170.74v95.25h166.4c2.88,0,5.23,2.34,5.23,5.23s-2.34,5.23-5.23,5.23h-166.4v34.59c0,4.06-3.3,7.36-7.36,7.36ZM935.81,829.79h205.33v-95.25h-205.33v95.25ZM719.08,829.79h202.02v-95.25h-202.02v95.25ZM935.81,724.09h205.33v-78.8h-205.33v78.8ZM719.08,724.09h202.02v-78.8h-202.02v78.8Z"/>
    <path class="cls-6" d="M1148.5,537.48c2.4,0,4.36,1.96,4.36,4.36v95.99h176.64c1.23,0,2.23,1,2.23,2.23s-1,2.23-2.23,2.23h-176.64v84.8h173.74c1.23,0,2.23,1,2.23,2.23s-1,2.23-2.23,2.23h-173.74v101.25h169.4c1.23,0,2.23,1,2.23,2.23s-1,2.23-2.23,2.23h-169.4v37.59c0,2.4-1.96,4.36-4.36,4.36s-4.36-1.96-4.36-4.36v-37.59h-211.33v37.59c0,2.4-1.96,4.36-4.36,4.36s-4.36-1.96-4.36-4.36v-37.59h-208.02v37.59c0,2.4-1.96,4.36-4.36,4.36s-4.36-1.96-4.36-4.36v-37.59h-172.71c-1.23,0-2.23-1-2.23-2.23s1-2.23,2.23-2.23h172.71v-101.25h-177.05c-1.23,0-2.23-1-2.23-2.23s1-2.23,2.23-2.23h177.05v-84.8h-181.01c-1.23,0-2.23-1-2.23-2.23s1-2.23,2.23-2.23h181.01v-95.99c0-2.4,1.96-4.36,4.36-4.36s4.36,1.96,4.36,4.36v95.99h208.02v-95.99c0-2.4,1.96-4.36,4.36-4.36s4.36,1.96,4.36,4.36v95.99h211.33v-95.99c0-2.4,1.96-4.36,4.36-4.36M932.81,727.09h211.33v-84.8h-211.33v84.8M716.08,727.09h208.02v-84.8h-208.02v84.8M932.81,832.79h211.33v-101.25h-211.33v101.25M716.08,832.79h208.02v-101.25h-208.02v101.25M1148.5,531.48c-5.72,0-10.36,4.64-10.36,10.36v89.99h-199.33v-89.99c0-5.72-4.64-10.36-10.36-10.36s-10.36,4.64-10.36,10.36v89.99h-196.02v-89.99c0-5.72-4.64-10.36-10.36-10.36s-10.36,4.64-10.36,10.36v89.99h-175.01c-4.54,0-8.23,3.68-8.23,8.23s3.68,8.23,8.23,8.23h175.01v72.8h-171.05c-4.54,0-8.23,3.68-8.23,8.23h0c0,4.54,3.68,8.23,8.23,8.23h171.05v89.25h-166.71c-4.54,0-8.23,3.68-8.23,8.23s3.68,8.23,8.23,8.23h166.71v31.59c0,5.72,4.64,10.36,10.36,10.36s10.36-4.64,10.36-10.36v-31.59h196.02v31.59c0,5.72,4.64,10.36,10.36,10.36s10.36-4.64,10.36-10.36v-31.59h199.33v31.59c0,5.72,4.64,10.36,10.36,10.36s10.36-4.64,10.36-10.36v-31.59h163.4c4.54,0,8.23-3.68,8.23-8.23s-3.68-8.23-8.23-8.23h-163.4v-89.25h167.74c4.54,0,8.23-3.68,8.23-8.23h0c0-4.54-3.68-8.23-8.23-8.23h-167.74v-72.8h170.64c4.54,0,8.23-3.68,8.23-8.23s-3.68-8.23-8.23-8.23h-170.64v-89.99c0-5.72-4.64-10.36-10.36-10.36h0ZM938.81,721.09v-72.8h199.33v72.8h-199.33ZM722.08,721.09v-72.8h196.02v72.8h-196.02ZM938.81,826.79v-89.25h199.33v89.25h-199.33ZM722.08,826.79v-89.25h196.02v89.25h-196.02Z"/>
  </g>
  <g>
    <path class="cls-11" d="M1397.39,954.3c-115.88,0-210.16-94.28-210.16-210.16s94.28-210.16,210.16-210.16,210.16,94.28,210.16,210.16-94.28,210.16-210.16,210.16Z"/>
    <path class="cls-6" d="M1397.39,536.48c28.04,0,55.23,5.49,80.83,16.32,24.73,10.46,46.94,25.43,66.01,44.51,19.07,19.07,34.05,41.28,44.51,66.01,10.83,25.6,16.32,52.79,16.32,80.83s-5.49,55.23-16.32,80.83c-10.46,24.73-25.43,46.94-44.51,66.01-19.07,19.07-41.28,34.05-66.01,44.51-25.6,10.83-52.79,16.32-80.83,16.32s-55.23-5.49-80.83-16.32c-24.73-10.46-46.94-25.43-66.01-44.51-19.07-19.07-34.05-41.28-44.51-66.01-10.83-25.6-16.32-52.79-16.32-80.83s5.49-55.23,16.32-80.83c10.46-24.73,25.43-46.94,44.51-66.01,19.07-19.07,41.28-34.05,66.01-44.51,25.6-10.83,52.79-16.32,80.83-16.32M1397.39,531.48c-117.45,0-212.66,95.21-212.66,212.66s95.21,212.66,212.66,212.66,212.66-95.21,212.66-212.66-95.21-212.66-212.66-212.66h0Z"/>
  </g>
  <g>
    <path class="cls-10" d="M1397.39,913.57c-93.42,0-169.43-76.01-169.43-169.43s76.01-169.43,169.43-169.43,169.43,76.01,169.43,169.43-76.01,169.43-169.43,169.43Z"/>
    <path class="cls-6" d="M1397.39,577.21c44.59,0,86.51,17.36,118.04,48.89s48.89,73.45,48.89,118.04-17.36,86.51-48.89,118.04c-31.53,31.53-73.45,48.89-118.04,48.89s-86.51-17.36-118.04-48.89c-31.53-31.53-48.89-73.45-48.89-118.04s17.36-86.51,48.89-118.04c31.53-31.53,73.45-48.89,118.04-48.89M1397.39,572.21c-94.95,0-171.93,76.98-171.93,171.93s76.98,171.93,171.93,171.93,171.93-76.98,171.93-171.93-76.98-171.93-171.93-171.93h0Z"/>
  </g>
  <path class="cls-4" d="M1264.96,744.14c0-83.06,64.1-151.15,145.53-157.5-4.11-.32-8.27-.49-12.46-.49-87.25,0-157.99,70.73-157.99,157.99s70.73,157.99,157.99,157.99c4.19,0,8.35-.17,12.46-.49-81.43-6.35-145.53-74.44-145.53-157.5Z"/>
  <g>
    <path class="cls-11" d="M1396.55,612.73h1.68c7.69,0,13.93,6.24,13.93,13.93v101.04c0,7.69-6.24,13.94-13.94,13.94h-1.68c-7.69,0-13.93-6.24-13.93-13.93v-101.04c0-7.69,6.24-13.94,13.94-13.94Z"/>
    <path class="cls-6" d="M1398.23,615.23c6.31,0,11.43,5.13,11.43,11.43v101.04c0,6.31-5.13,11.43-11.43,11.43h-1.68c-6.31,0-11.43-5.13-11.43-11.43v-101.04c0-6.31,5.13-11.43,11.43-11.43h1.68M1398.23,610.23h-1.68c-9.08,0-16.43,7.36-16.43,16.43v101.04c0,9.08,7.36,16.43,16.43,16.43h1.68c9.08,0,16.43-7.36,16.43-16.43v-101.04c0-9.08-7.36-16.43-16.43-16.43h0Z"/>
  </g>
  <g>
    <path class="cls-11" d="M1486.7,797.03c-1.66,0-3.29-.3-4.86-.88l-56.94-21.2c-7.2-2.68-10.88-10.72-8.2-17.92l.59-1.57c2.02-5.43,7.27-9.08,13.06-9.08,1.66,0,3.29.3,4.86.88l56.94,21.2c7.2,2.68,10.88,10.72,8.2,17.92l-.59,1.57c-2.02,5.43-7.27,9.08-13.06,9.08Z"/>
    <path class="cls-6" d="M1430.36,748.87h0c1.36,0,2.7.24,3.99.72l56.94,21.2c5.91,2.2,8.93,8.8,6.73,14.71l-.59,1.57c-1.66,4.46-5.97,7.45-10.72,7.45-1.36,0-2.7-.24-3.99-.72l-56.94-21.2c-2.86-1.07-5.14-3.18-6.41-5.96s-1.38-5.88-.32-8.75l.59-1.57c1.66-4.46,5.97-7.45,10.72-7.45M1430.35,743.87c-6.67,0-12.94,4.09-15.4,10.7l-.59,1.57c-3.17,8.51,1.16,17.97,9.67,21.14l56.94,21.2c1.89.7,3.83,1.04,5.73,1.04,6.67,0,12.94-4.09,15.4-10.7l.59-1.57c3.17-8.51-1.16-17.97-9.67-21.14l-56.94-21.2c-1.89-.7-3.83-1.04-5.73-1.04h0Z"/>
  </g>
</svg>