<?xml version="1.0" encoding="UTF-8"?>
<svg id="Layer_1" data-name="Layer 1" xmlns="http://www.w3.org/2000/svg" viewBox="0 0 1920 1080">
  <defs>
    <style>
      .cls-1 {
        fill: #ccc;
      }

      .cls-1, .cls-2, .cls-3, .cls-4, .cls-5, .cls-6 {
        stroke: #601113;
        stroke-miterlimit: 10;
        stroke-width: 5px;
      }

      .cls-2 {
        fill: #f9d5b7;
      }

      .cls-3 {
        fill: #fff;
      }

      .cls-7 {
        fill: #3f190c;
      }

      .cls-8 {
        fill: #601113;
      }

      .cls-9 {
        fill: #423c3a;
      }

      .cls-10 {
        fill: #d7f7ff;
      }

      .cls-11 {
        fill: #686868;
      }

      .cls-12 {
        fill: #f3fdff;
      }

      .cls-13 {
        fill: #faf1f1;
      }

      .cls-4 {
        fill: #fdd7cf;
      }

      .cls-5 {
        fill: none;
      }

      .cls-6 {
        fill: #d8a995;
      }

      .cls-14 {
        fill: #723f37;
      }
    </style>
  </defs>
  <path class="cls-13" d="M1411.67,376.73c-8.14-17.28-16.67-34.52-29.35-55.17-13.14-21.4-40.1-61.75-96.26-115.04-64.75-61.44-113.22-107.44-191.35-129.13-25.03-6.95-55.26-15.01-93.91-9.39-57.11,8.3-98.36,41.48-125.61,63.39-6.04,4.86-24.46,22.87-61.04,58.7-65.31,63.95-63.63,63.62-71.61,69.26-44.3,31.33-91.15,38.1-136.17,44.61-61.44,8.88-69.37-2.28-116.22,10.57-20.75,5.69-58.17,15.95-92.74,45.78-53.81,46.44-66.06,110.44-72.78,145.57-11.96,62.5-2.03,112.14,3.52,138.52,5.75,27.33,23.88,98.77,81,167.87,7.61,9.2,36.68,43.5,84.52,76.3,29.43,20.19,53.04,36.37,86.87,45.78,74.14,20.63,157.34-2.42,210.13-37.57,13.89-9.25,28.05-20.91,55.17-34.04,28.44-13.77,53.02-25.67,83.35-24.65,22.44.76,45.4,13.04,90.39,37.57,23.47,12.8,27.44,16.22,72.78,43.43,70.96,42.58,85.13,48.52,97.43,52.83,16.21,5.67,42.53,14.65,76.3,15.26,74.73,1.34,128.86-39.36,143.22-50.48,51.05-39.53,71.64-88.48,81-111.52,30.05-74,21.63-139.45,15.26-189-10.62-82.55-38.74-142.28-93.91-259.43v-.02Z"/>
  <polygon class="cls-6" points="571.03 856.04 508.21 856.04 503.39 665.55 571.03 665.55 571.03 856.04"/>
  <path class="cls-3" d="M591.8,519.19h19.42v166.41h-114.16v-71.67c0-52.29,42.45-94.74,94.74-94.74Z"/>
  <path class="cls-3" d="M622.37,510.2h126.23v345.84h-194.47v-277.6c0-37.66,30.58-68.24,68.24-68.24Z"/>
  <polygon class="cls-1" points="709.52 574.02 676.31 602.39 642.76 543.01 676.31 524.82 709.52 574.02"/>
  <polygon class="cls-2" points="1329.2 862.06 1392.01 862.06 1396.83 671.57 1329.2 671.57 1329.2 862.06"/>
  <path class="cls-3" d="M1289.01,525.21h114.16v166.41h-19.42c-52.29,0-94.74-42.45-94.74-94.74v-71.67h0Z" transform="translate(2692.19 1216.83) rotate(-180)"/>
  <path class="cls-3" d="M1125.27,516.23h220.82v345.84h-152.59c-37.66,0-68.24-30.58-68.24-68.24v-277.6h0Z" transform="translate(2471.37 1378.29) rotate(-180)"/>
  <path class="cls-3" d="M1118.03,515.59h19.42v166.41h-114.16v-71.67c0-52.29,42.45-94.74,94.74-94.74Z"/>
  <path class="cls-1" d="M1192,539.82h49.96v74.26c0,7.07-5.74,12.81-12.81,12.81h-24.34c-7.07,0-12.81-5.74-12.81-12.81v-74.26h0Z"/>
  <ellipse class="cls-7" cx="1323.47" cy="305.36" rx="35.68" ry="47.8"/>
  <circle class="cls-10" cx="1332.09" cy="368.48" r="38.41"/>
  <rect class="cls-12" x="1316.69" y="321.11" width="8.88" height="81.48" transform="translate(357.92 -612.09) rotate(30)"/>
  <rect class="cls-12" x="1333.4" y="330.44" width="13.39" height="81.48" transform="translate(365.13 -620.32) rotate(30)"/>
  <path class="cls-11" d="M1323.22,321.63c-24.92,0-45.12,20.2-45.12,45.12s20.2,45.12,45.12,45.12,45.12-20.2,45.12-45.12-20.2-45.12-45.12-45.12ZM1323.22,405.15c-21.21,0-38.41-17.2-38.41-38.41s17.2-38.41,38.41-38.41,38.41,17.2,38.41,38.41-17.2,38.41-38.41,38.41Z"/>
  <circle class="cls-7" cx="1132.27" cy="344.81" r="48.8"/>
  <rect class="cls-2" x="1167.48" y="457.93" width="94.85" height="87.07"/>
  <polygon class="cls-1" points="1228.56 544.45 1262.16 575.65 1296.1 510.35 1262.16 490.34 1228.56 544.45"/>
  <polygon class="cls-1" points="1214.89 541.47 1180.49 578.01 1145.75 501.52 1180.49 478.09 1214.89 541.47"/>
  <path class="cls-2" d="M1369.01,429.63l-27.83-56.38-.98-10.54c-.29-9.98-.44-11.59-.44-13.57,0-80.46-50.04-127.47-112.86-127.47s-113.75,65.22-113.75,145.68,50.93,145.68,113.75,145.68c36.55,0,69.07-22.09,89.88-56.4h29.47c17.3,0,29.15-14.06,22.76-27.01Z"/>
  <rect class="cls-11" x="1186" y="355.55" width="46.11" height="13.89"/>
  <ellipse class="cls-7" cx="1263.53" cy="233.44" rx="74.87" ry="57.39"/>
  <circle class="cls-7" cx="1160.79" cy="265.47" r="68.69"/>
  <path class="cls-7" d="M1165.34,315.53c-10.16,29.06,15.59,60.02,26.88,58,16.29-2.93,24.42-78.54,7.07-86.29-9.41-4.2-27.85,10.85-33.95,28.29Z"/>
  <path class="cls-7" d="M1105.47,376.51c4.97,8.92,15.24,16.9,26.8,17.1,12.77.22,21.36-9.17,31.2-19.93,14.56-15.92,28.05-30.67,24.05-48.09-5-21.77-34.98-37.58-55.25-29.58-14.68,5.79-19.7,22.26-25.38,40.89-4.34,14.24-8.31,27.24-1.41,39.61Z"/>
  <path class="cls-2" d="M1176.51,351.32c-11.65-7.61-24.21-8.5-30-2.9-5.75,5.56-3.31,16.07-.97,26.13,1.62,6.95,3.88,16.68,12.58,24.19,3.07,2.65,9.84,8.49,19.36,7.74,7.55-.6,12.67-5.01,14.52-6.77"/>
  <circle class="cls-9" cx="544.55" cy="277" r="43.56"/>
  <circle class="cls-9" cx="537.21" cy="328.41" r="33.82"/>
  <rect class="cls-6" x="634.81" y="423.86" width="82.99" height="132.97" transform="translate(-157.29 436.05) rotate(-32.22)"/>
  <circle class="cls-10" cx="540.57" cy="366.74" r="38.41"/>
  <rect class="cls-12" x="525.17" y="319.37" width="8.88" height="81.48" transform="translate(251.01 -216.56) rotate(30)"/>
  <rect class="cls-12" x="541.88" y="328.7" width="13.39" height="81.48" transform="translate(258.21 -224.79) rotate(30)"/>
  <path class="cls-11" d="M540.57,321.63c-24.92,0-45.12,20.2-45.12,45.12s20.2,45.12,45.12,45.12,45.12-20.2,45.12-45.12-20.2-45.12-45.12-45.12ZM540.57,405.15c-21.21,0-38.41-17.2-38.41-38.41s17.2-38.41,38.41-38.41,38.41,17.2,38.41,38.41-17.2,38.41-38.41,38.41Z"/>
  <polygon class="cls-1" points="651.37 501.46 676.31 548.61 638.67 584.55 609.22 501.46 651.37 501.46"/>
  <polygon class="cls-1" points="688.07 552.39 709.52 602.39 762.21 552.39 709.52 519.19 688.07 552.39"/>
  <path class="cls-6" d="M727.24,358.01c-15.51-76.84-73.61-129.94-129.77-118.6-51.32,10.36-83.25,70.95-76.53,139.96l-33.58,58.17h48.58c24.05,55.19,71.53,89.45,117.71,80.12,56.16-11.34,89.11-82.82,73.59-159.66Z"/>
  <rect class="cls-11" x="627.5" y="359.63" width="48.81" height="12.64"/>
  <g>
    <polyline class="cls-5" points="692.37 650.4 709.93 625.2 723.79 652.5 729.33 664.58"/>
    <polyline class="cls-5" points="707.23 656.73 700.83 664.58 674.46 664.58 691.01 629.93 698.35 642.08"/>
    <polyline class="cls-5" points="723.48 664.58 744.58 664.58 732.17 633.17 721.13 647.26"/>
    <circle class="cls-8" cx="722.19" cy="664.58" r="3.8"/>
    <circle class="cls-8" cx="708.65" cy="654.88" r="3.8"/>
    <circle class="cls-8" cx="692.37" cy="650.4" r="3.8"/>
  </g>
  <ellipse class="cls-9" cx="601.05" cy="229.69" rx="75.25" ry="67.64"/>
  <ellipse class="cls-9" cx="688.07" cy="269.47" rx="74.14" ry="83.68"/>
  <ellipse class="cls-9" cx="740.36" cy="378.54" rx="74.14" ry="83.68"/>
  <ellipse class="cls-9" cx="814.5" cy="445.74" rx="74.14" ry="83.68"/>
  <ellipse class="cls-9" cx="767.13" cy="490.34" rx="74.14" ry="83.68"/>
  <circle class="cls-9" cx="748.61" cy="307.91" r="50.2"/>
  <polygon class="cls-4" points="814.5 901.3 731.81 901.3 719.76 739.99 814.5 739.99 814.5 901.3"/>
  <polygon class="cls-4" points="1145.63 901.3 1062.94 901.3 1062.94 739.99 1157.68 739.99 1145.63 901.3"/>
  <path class="cls-3" d="M1167.48,654.76c0-65.68-39.32-79.92-109.81-131.52-22.82-20.45-52.96-32.89-86.02-32.89h-51.21c-31.95,0-61.17,11.65-83.7,30.89-72.17,38.24-127.22,61.86-127.22,133.53v92.46c0,4.49,3.64,8.14,8.14,8.14h81.98v145.95h279.73v-145.95h79.97c4.49,0,8.14-3.64,8.14-8.14v-92.46Z"/>
  <path class="cls-1" d="M930.21,512.08h29.14v139.08c0,3.24-2.63,5.88-5.88,5.88h-17.39c-3.24,0-5.88-2.63-5.88-5.88v-139.08h0Z"/>
  <ellipse class="cls-14" cx="845.98" cy="307.91" rx="38.83" ry="45.4"/>
  <ellipse class="cls-14" cx="859.74" cy="242.19" rx="38.83" ry="45.4"/>
  <ellipse class="cls-14" cx="1041.53" cy="312.56" rx="38.83" ry="45.4"/>
  <ellipse class="cls-14" cx="1035.06" cy="247.69" rx="38.83" ry="45.4"/>
  <ellipse class="cls-14" cx="983.49" cy="202.29" rx="38.83" ry="45.4"/>
  <ellipse class="cls-14" cx="912.59" cy="196.79" rx="46.58" ry="54.46"/>
  <ellipse class="cls-4" cx="944.78" cy="512.08" rx="62.17" ry="47.4"/>
  <path class="cls-1" d="M951.11,548.86l8.67,13.32c5.7,8.75,18.57,9.9,25.87,2.32l51.58-53.53c5.08-5.27,5.73-13.16,1.59-19.12l-3.3-4.76c-8.42-12.13-28.14-7.58-29.82,6.88h0c-.58,5.03-3.7,9.48-8.35,11.93l-40.24,21.12c-8.19,4.3-10.93,14.27-5.99,21.85Z"/>
  <path class="cls-1" d="M938.71,548.86l-8.67,13.32c-5.7,8.75-18.57,9.9-25.87,2.32l-51.58-53.53c-5.08-5.27-5.73-13.16-1.59-19.12l3.3-4.76c8.42-12.13,28.14-7.58,29.82,6.88h0c.58,5.03,3.7,9.48,8.35,11.93l40.24,21.12c8.19,4.3,10.93,14.27,5.99,21.85Z"/>
  <g>
    <polyline class="cls-5" points="1006.99 650.4 1024.54 625.2 1038.4 652.5 1043.94 664.58"/>
    <polyline class="cls-5" points="1021.84 656.73 1015.44 664.58 989.07 664.58 1005.62 629.93 1012.96 642.08"/>
    <polyline class="cls-5" points="1038.09 664.58 1059.19 664.58 1046.78 633.17 1035.74 647.26"/>
    <circle class="cls-8" cx="1036.8" cy="664.58" r="3.8"/>
    <circle class="cls-8" cx="1023.26" cy="654.88" r="3.8"/>
    <circle class="cls-8" cx="1006.99" cy="650.4" r="3.8"/>
  </g>
  <g>
    <polyline class="cls-5" points="1287.59 650.4 1305.14 625.2 1319 652.5 1324.55 664.58"/>
    <polyline class="cls-5" points="1302.45 656.73 1296.04 664.58 1269.67 664.58 1286.22 629.93 1293.56 642.08"/>
    <polyline class="cls-5" points="1318.69 664.58 1339.79 664.58 1327.38 633.17 1316.34 647.26"/>
    <circle class="cls-8" cx="1317.4" cy="664.58" r="3.8"/>
    <circle class="cls-8" cx="1303.86" cy="654.88" r="3.8"/>
    <circle class="cls-8" cx="1287.59" cy="650.4" r="3.8"/>
  </g>
  <path class="cls-4" d="M1056.9,332.87c-.41,0-.81.02-1.22.04-8-81.9-54.66-144.75-111.02-144.75s-103.01,62.85-111.02,144.75c-.4-.02-.81-.04-1.22-.04-15.08,0-27.31,16.05-27.31,35.85s12.23,35.85,27.31,35.85c1.43,0,2.83-.15,4.2-.42,13.3,71.33,56.63,123.62,108.03,123.62s94.74-52.28,108.03-123.62c1.37.28,2.77.42,4.2.42,15.08,0,27.31-16.05,27.31-35.85s-12.23-35.85-27.31-35.85Z"/>
  <circle class="cls-14" cx="916.67" cy="206.44" r="46.69"/>
  <circle class="cls-14" cx="981.87" cy="215.92" r="37.21"/>
  <ellipse class="cls-14" cx="1027.91" cy="254.95" rx="35.03" ry="38.15"/>
  <ellipse class="cls-14" cx="861.02" cy="253.72" rx="33.71" ry="39.38"/>
  <polygon class="cls-14" points="845.98 349.56 827.39 378.54 827.39 277 845.98 277 845.98 349.56"/>
  <polygon class="cls-14" points="1043.17 349.56 1062.84 378.54 1062.84 277 1043.17 277 1043.17 349.56"/>
  <circle class="cls-10" cx="888.33" cy="357.96" r="38.41"/>
  <rect class="cls-12" x="872.93" y="310.59" width="8.88" height="81.48" transform="translate(293.21 -391.62) rotate(30)"/>
  <rect class="cls-12" x="889.63" y="319.92" width="13.39" height="81.48" transform="translate(300.41 -399.84) rotate(30)"/>
  <path class="cls-11" d="M888.33,312.85c-24.92,0-45.12,20.2-45.12,45.12s20.2,45.12,45.12,45.12,45.12-20.2,45.12-45.12-20.2-45.12-45.12-45.12ZM888.33,396.37c-21.21,0-38.41-17.2-38.41-38.41s17.2-38.41,38.41-38.41,38.41,17.2,38.41,38.41-17.2,38.41-38.41,38.41Z"/>
  <circle class="cls-10" cx="1000.99" cy="357.96" r="38.41"/>
  <rect class="cls-12" x="985.59" y="310.59" width="8.88" height="81.48" transform="translate(308.3 -447.95) rotate(30)"/>
  <rect class="cls-12" x="1002.3" y="319.92" width="13.39" height="81.48" transform="translate(315.51 -456.18) rotate(30)"/>
  <path class="cls-11" d="M1000.99,312.85c-24.92,0-45.12,20.2-45.12,45.12s20.2,45.12,45.12,45.12,45.12-20.2,45.12-45.12-20.2-45.12-45.12-45.12ZM1000.99,396.37c-21.21,0-38.41-17.2-38.41-38.41s17.2-38.41,38.41-38.41,38.41,17.2,38.41,38.41-17.2,38.41-38.41,38.41Z"/>
  <circle class="cls-10" cx="1274.49" cy="365.95" r="38.41"/>
  <rect class="cls-12" x="1259.1" y="318.58" width="8.88" height="81.48" transform="translate(348.94 -583.63) rotate(30)"/>
  <rect class="cls-12" x="1275.8" y="327.91" width="13.39" height="81.48" transform="translate(356.14 -591.86) rotate(30)"/>
  <path class="cls-11" d="M1274.49,320.83c-24.92,0-45.12,20.2-45.12,45.12s20.2,45.12,45.12,45.12,45.12-20.2,45.12-45.12-20.2-45.12-45.12-45.12ZM1274.49,404.36c-21.21,0-38.41-17.2-38.41-38.41s17.2-38.41,38.41-38.41,38.41,17.2,38.41,38.41-17.2,38.41-38.41,38.41Z"/>
  <circle class="cls-10" cx="585.69" cy="366.26" r="38.41"/>
  <rect class="cls-12" x="570.29" y="318.89" width="8.88" height="81.48" transform="translate(256.81 -239.18) rotate(30)"/>
  <rect class="cls-12" x="586.99" y="328.22" width="13.39" height="81.48" transform="translate(264.02 -247.41) rotate(30)"/>
  <path class="cls-11" d="M585.69,321.15c-24.92,0-45.12,20.2-45.12,45.12s20.2,45.12,45.12,45.12,45.12-20.2,45.12-45.12-20.2-45.12-45.12-45.12ZM585.69,404.67c-21.21,0-38.41-17.2-38.41-38.41s17.2-38.41,38.41-38.41,38.41,17.2,38.41,38.41-17.2,38.41-38.41,38.41Z"/>
  <path class="cls-11" d="M960.99,364.67c-10.81-8.95-21.62-8.95-32.43,0v-11.48c10.81-8.53,21.62-8.53,32.43,0v11.48Z"/>
  <path class="cls-11" d="M1340.09,371.18c-8.5-4.03-17-2.53-25.51,4.51v-11.48c10.1-7.98,20.21-8.5,30.31-1.57,1.33.91,2.12,2.44,2.12,4.06h0c0,3.56-3.71,6.01-6.93,4.48Z"/>
  <path class="cls-11" d="M547.28,375.68c-8.5-7.04-17-8.54-25.51-4.51-3.22,1.53-6.93-.92-6.93-4.48h0c0-1.62.79-3.14,2.12-4.06,10.1-6.93,20.21-6.41,30.31,1.57v11.48Z"/>
  <rect class="cls-11" x="827.3" y="351.33" width="18.68" height="12.72"/>
  <rect class="cls-11" x="1043.17" y="351.33" width="19.68" height="13.34"/>
</svg>