<?xml version="1.0" encoding="UTF-8"?>
<svg id="Layer_1" data-name="Layer 1" xmlns="http://www.w3.org/2000/svg" viewBox="0 0 1920 1080">
  <defs>
    <style>
      .cls-1 {
        fill: #bf2026;
      }

      .cls-2, .cls-3, .cls-4 {
        stroke: #601113;
        stroke-miterlimit: 10;
        stroke-width: 5px;
      }

      .cls-2, .cls-5 {
        fill: #ccc;
      }

      .cls-6 {
        fill: #fff;
      }

      .cls-7 {
        fill: #5b5b5b;
      }

      .cls-8 {
        fill: #6d1118;
      }

      .cls-9 {
        fill: #601113;
      }

      .cls-10 {
        fill: #f2f2f2;
      }

      .cls-3, .cls-11 {
        fill: #e6e6e6;
      }

      .cls-12 {
        fill: #4c050b;
      }

      .cls-13 {
        fill: #faf1f1;
      }

      .cls-4 {
        fill: none;
      }

      .cls-14 {
        fill: #333;
      }

      .cls-15 {
        fill: #999;
      }

      .cls-16 {
        fill: #b3b3b3;
      }

      .cls-17 {
        fill: #a3a3a3;
      }

      .cls-18 {
        fill: gray;
      }
    </style>
  </defs>
  <path class="cls-13" d="M1430.16,402.23c-8.14-17.28-16.67-34.52-29.35-55.17-13.14-21.4-40.1-61.75-96.26-115.04-64.75-61.44-113.22-107.44-191.35-129.13-25.03-6.95-55.26-15.01-93.91-9.39-57.11,8.3-98.36,41.48-125.61,63.39-6.04,4.86-24.46,22.87-61.04,58.7-65.31,63.95-63.63,63.62-71.61,69.26-44.3,31.33-91.15,38.1-136.17,44.61-61.44,8.88-69.37-2.28-116.22,10.57-20.75,5.69-58.17,15.95-92.74,45.78-53.81,46.44-66.06,110.44-72.78,145.57-11.96,62.5-2.03,112.14,3.52,138.52,5.75,27.33,23.88,98.77,81,167.87,7.61,9.2,36.68,43.5,84.52,76.3,29.43,20.19,53.04,36.37,86.87,45.78,74.14,20.63,157.34-2.42,210.13-37.57,13.89-9.25,28.05-20.91,55.17-34.04,28.44-13.77,53.02-25.67,83.35-24.65,22.44.76,45.4,13.04,90.39,37.57,23.47,12.8,27.44,16.22,72.78,43.43,70.96,42.58,85.13,48.52,97.43,52.83,16.21,5.67,42.53,14.65,76.3,15.26,74.73,1.34,128.86-39.36,143.22-50.48,51.05-39.53,71.64-88.48,81-111.52,30.05-74,21.63-139.45,15.26-189-10.62-82.55-38.74-142.28-93.91-259.43v-.02Z"/>
  <g>
    <path class="cls-7" d="M641.38,947.48c-2.44,0-4.72-.95-6.45-2.67l-19.11-19.11c-1.72-1.72-2.67-4.01-2.67-6.45V185.34c0-2.44.95-4.72,2.67-6.45l19.11-19.11c1.72-1.72,4.01-2.67,6.45-2.67h557.16c2.43,0,4.72.95,6.45,2.67l19.11,19.11c1.72,1.72,2.67,4.01,2.67,6.45v733.91c0,2.43-.95,4.72-2.67,6.45l-19.11,19.11c-1.72,1.72-4.01,2.67-6.45,2.67h-557.16Z"/>
    <path class="cls-9" d="M1198.54,159.61c1.77,0,3.43.69,4.68,1.94l19.11,19.11c1.25,1.25,1.94,2.91,1.94,4.68v733.91c0,1.77-.69,3.43-1.94,4.68l-19.11,19.11c-1.25,1.25-2.91,1.94-4.68,1.94h-557.16c-1.77,0-3.43-.69-4.68-1.94l-19.11-19.11c-1.25-1.25-1.94-2.91-1.94-4.68V185.34c0-1.77.69-3.43,1.94-4.68l19.11-19.11c1.25-1.25,2.91-1.94,4.68-1.94h557.16M1198.54,154.61h-557.16c-3.08,0-6.04,1.22-8.21,3.4l-19.11,19.11c-2.18,2.18-3.4,5.13-3.4,8.21v733.91c0,3.08,1.22,6.04,3.4,8.21l19.11,19.11c2.18,2.18,5.13,3.4,8.21,3.4h557.16c3.08,0,6.04-1.22,8.21-3.4l19.11-19.11c2.18-2.18,3.4-5.13,3.4-8.21V185.34c0-3.08-1.22-6.04-3.4-8.21l-19.11-19.11c-2.18-2.18-5.13-3.4-8.21-3.4h0Z"/>
  </g>
  <g>
    <path class="cls-17" d="M670.04,947.48c-2.44,0-4.72-.95-6.45-2.67l-19.11-19.11c-1.72-1.72-2.67-4.01-2.67-6.45V185.34c0-2.44.95-4.72,2.67-6.45l19.11-19.11c1.72-1.72,4.01-2.67,6.45-2.67h557.16c2.43,0,4.72.95,6.45,2.67l19.11,19.11c1.72,1.72,2.67,4.01,2.67,6.45v733.91c0,2.44-.95,4.72-2.67,6.45l-19.11,19.11c-1.72,1.72-4.01,2.67-6.45,2.67h-557.16Z"/>
    <path class="cls-9" d="M1227.2,159.61c1.77,0,3.43.69,4.68,1.94l19.11,19.11c1.25,1.25,1.94,2.91,1.94,4.68v733.91c0,1.77-.69,3.43-1.94,4.68l-19.11,19.11c-1.25,1.25-2.91,1.94-4.68,1.94h-557.16c-1.77,0-3.43-.69-4.68-1.94l-19.11-19.11c-1.25-1.25-1.94-2.91-1.94-4.68V185.34c0-1.77.69-3.43,1.94-4.68l19.11-19.11c1.25-1.25,2.91-1.94,4.68-1.94h557.16M1227.2,154.61h-557.16c-3.08,0-6.04,1.22-8.21,3.4l-19.11,19.11c-2.18,2.18-3.4,5.13-3.4,8.21v733.91c0,3.08,1.22,6.04,3.4,8.21l19.11,19.11c2.18,2.18,5.13,3.4,8.21,3.4h557.16c3.08,0,6.04-1.22,8.21-3.4l19.11-19.11c2.18-2.18,3.4-5.13,3.4-8.21V185.34c0-3.08-1.22-6.04-3.4-8.21l-19.11-19.11c-2.18-2.18-5.13-3.4-8.21-3.4h0Z"/>
  </g>
  <g>
    <rect class="cls-7" x="671.64" y="556.48" width="550.65" height="353.43" rx="20.59" ry="20.59"/>
    <path class="cls-9" d="M1201.7,558.98c9.98,0,18.09,8.12,18.09,18.09v312.25c0,9.98-8.12,18.09-18.09,18.09h-509.47c-9.98,0-18.09-8.12-18.09-18.09v-312.25c0-9.98,8.12-18.09,18.09-18.09h509.47M1201.7,553.98h-509.47c-12.75,0-23.09,10.34-23.09,23.09v312.25c0,12.75,10.34,23.09,23.09,23.09h509.47c12.75,0,23.09-10.34,23.09-23.09v-312.25c0-12.75-10.34-23.09-23.09-23.09h0Z"/>
  </g>
  <path class="cls-14" d="M1203.36,559.24h-28.53c9.04,0,16.36,7.83,16.36,16.26v315.39c0,8.43-7.33,16.26-16.36,16.26h28.53c9.04,0,16.36-7.83,16.36-16.26v-315.39c0-8.43-7.33-16.26-16.36-16.26Z"/>
  <g>
    <path class="cls-5" d="M715.87,326.17c-5.21,0-9.78-3.32-11.37-8.25l-32.5-101.04c-1.18-3.66-.56-7.53,1.69-10.62,2.25-3.08,5.82-4.92,9.55-4.92.81,0,1.64.09,2.46.25l103.97,21.32c4.22.87,7.55,3.83,8.9,7.92,1.35,4.09.44,8.45-2.44,11.66l-71.47,79.72c-2.29,2.55-5.41,3.96-8.8,3.96h0Z"/>
    <path class="cls-9" d="M683.24,203.83c.65,0,1.3.07,1.96.2l103.97,21.32c3.33.68,5.96,3.02,7.03,6.25,1.07,3.23.35,6.68-1.92,9.21l-71.47,79.72c-1.81,2.02-4.27,3.13-6.94,3.13-3.18,0-7.44-1.71-8.99-6.52l-32.51-101.04c-.93-2.89-.44-5.95,1.33-8.38,1.78-2.44,4.59-3.89,7.53-3.89M683.24,198.83c-9.42,0-16.68,9.3-13.62,18.81l32.51,101.04c2.06,6.4,7.85,9.99,13.75,9.99,3.85,0,7.73-1.52,10.66-4.79l71.47-79.72c7.42-8.27,3.06-21.47-7.82-23.7l-103.97-21.32c-1-.21-2-.3-2.96-.3h0Z"/>
  </g>
  <g>
    <path class="cls-5" d="M724.72,312.65c-5.19,0-9.62-3.15-11.29-8.04l-32.22-93.9c-1.26-3.68-.7-7.59,1.55-10.74,2.24-3.14,5.84-5.02,9.62-5.02.89,0,1.8.1,2.69.3l96.84,21.82c4.16.94,7.42,3.92,8.71,7.98,1.3,4.06.37,8.38-2.47,11.55l-64.62,72.08c-2.29,2.55-5.41,3.96-8.8,3.96h0Z"/>
    <path class="cls-9" d="M692.38,197.46c.71,0,1.43.08,2.14.24l96.84,21.82c3.28.74,5.86,3.1,6.88,6.3,1.02,3.21.29,6.62-1.95,9.12l-64.62,72.08c-1.81,2.02-4.27,3.13-6.94,3.13-3.11,0-7.32-1.66-8.93-6.35l-32.22-93.9c-1-2.91-.55-6,1.22-8.48,1.78-2.49,4.61-3.97,7.58-3.97M692.38,192.46c-9.5,0-16.82,9.49-13.53,19.07l32.22,93.9c2.14,6.25,7.85,9.72,13.66,9.72,3.85,0,7.74-1.53,10.66-4.79l64.62-72.08c7.33-8.18,3.17-21.23-7.55-23.64l-96.84-21.82c-1.1-.25-2.18-.37-3.24-.37h0Z"/>
  </g>
  <g>
    <path class="cls-5" d="M718.45,675.02c-3.55,0-6.9-1.61-9.19-4.42-2.28-2.8-3.14-6.3-2.41-9.87l21.32-103.97c1.15-5.6,5.96-9.51,11.71-9.51,2.93,0,5.65,1.05,7.88,3.05l79.71,71.47c3.21,2.88,4.59,7.11,3.69,11.33-.9,4.22-3.88,7.52-7.99,8.84l-101.04,32.51c-1.21.39-2.46.59-3.69.59h0Z"/>
    <path class="cls-9" d="M739.88,549.74c1.61,0,3.99.42,6.21,2.41l79.72,71.47c2.53,2.27,3.62,5.62,2.92,8.95-.71,3.33-3.07,5.94-6.31,6.98l-101.04,32.51c-.97.31-1.95.47-2.93.47-2.79,0-5.44-1.28-7.25-3.5-1.8-2.21-2.47-4.97-1.89-7.79l21.32-103.97c1.06-5.16,5.54-7.51,9.26-7.51M739.88,544.74c-6.45,0-12.68,4.34-14.15,11.51l-21.32,103.97c-1.9,9.24,5.34,17.3,14.04,17.3,1.46,0,2.95-.23,4.46-.71l101.04-32.51c10.57-3.4,13.47-16.99,5.2-24.41l-79.72-71.47c-2.82-2.53-6.21-3.69-9.55-3.69h0Z"/>
  </g>
  <g>
    <path class="cls-5" d="M730.56,671.13c-3.54,0-7-1.69-9.27-4.52-2.28-2.85-3.09-6.4-2.28-10l21.82-96.84c1.23-5.47,6.02-9.29,11.65-9.29,2.93,0,5.66,1.05,7.88,3.05l72.08,64.62c3.17,2.85,4.56,7.04,3.71,11.22-.85,4.18-3.76,7.5-7.79,8.88l-93.9,32.22c-1.28.44-2.6.66-3.91.66h0Z"/>
    <path class="cls-9" d="M752.48,552.98c1.61,0,3.99.42,6.21,2.41l72.08,64.62c2.51,2.25,3.6,5.56,2.93,8.86-.67,3.3-2.97,5.92-6.15,7.01l-93.9,32.22c-1.02.35-2.06.53-3.1.53-2.79,0-5.52-1.34-7.31-3.58-1.8-2.25-2.43-5.05-1.79-7.89l21.82-96.84c1.14-5.04,5.57-7.34,9.22-7.34M752.48,547.98c-6.36,0-12.51,4.21-14.09,11.24l-21.82,96.84c-2.1,9.34,5.2,17.57,13.98,17.57,1.54,0,3.13-.25,4.72-.8l93.9-32.22c10.39-3.57,13.11-16.99,4.93-24.32l-72.08-64.62c-2.82-2.52-6.21-3.69-9.55-3.69h0Z"/>
  </g>
  <g>
    <path class="cls-5" d="M1154,315.71c-3.25,0-6.29-1.32-8.56-3.7l-73.78-77.58c-2.97-3.12-4.01-7.45-2.78-11.59,1.23-4.13,4.47-7.19,8.66-8.18l103.3-24.37c.93-.22,1.87-.33,2.8-.33,3.67,0,7.2,1.79,9.46,4.78,2.25,3,2.94,6.8,1.89,10.42l-29.52,101.95c-1.72,5.93-7,8.59-11.47,8.59h0Z"/>
    <path class="cls-9" d="M1183.64,192.46c2.89,0,5.67,1.42,7.46,3.79,1.04,1.39,2.63,4.31,1.49,8.23l-29.52,101.95c-1.36,4.69-5.54,6.79-9.07,6.79-2.56,0-4.95-1.04-6.75-2.93l-73.78-77.58c-2.35-2.47-3.17-5.89-2.2-9.15.97-3.26,3.53-5.68,6.84-6.46l103.3-24.37c.74-.18,1.49-.26,2.23-.26M1183.64,187.46c-1.1,0-2.23.13-3.37.4l-103.3,24.37c-10.81,2.55-14.78,15.87-7.12,23.92l73.78,77.58c2.91,3.06,6.66,4.48,10.37,4.48,6.04,0,11.96-3.78,13.88-10.39l29.52-101.95c2.74-9.45-4.53-18.4-13.75-18.4h0Z"/>
  </g>
  <g>
    <path class="cls-5" d="M1159.71,318.19c-3.25,0-6.29-1.31-8.56-3.7l-66.72-70.15c-2.94-3.09-3.99-7.38-2.81-11.48,1.18-4.1,4.34-7.17,8.47-8.23l96.16-24.66c1-.26,2.02-.39,3.03-.39,3.71,0,7.27,1.83,9.52,4.88,2.25,3.05,2.89,6.9,1.76,10.55l-29.44,94.8c-1.55,5.01-6.14,8.37-11.4,8.37h0Z"/>
    <path class="cls-9" d="M1189.27,202.08c2.92,0,5.73,1.44,7.51,3.86,1.04,1.42,2.61,4.38,1.38,8.32l-29.44,94.8c-1.42,4.57-5.55,6.61-9.02,6.61-2.56,0-4.96-1.04-6.75-2.92l-66.72-70.15c-2.32-2.44-3.15-5.83-2.22-9.06.93-3.24,3.43-5.67,6.69-6.5l96.16-24.66c.8-.21,1.61-.31,2.41-.31M1189.27,197.08c-1.19,0-2.41.15-3.65.47l-96.16,24.66c-10.64,2.73-14.42,15.89-6.85,23.85l66.72,70.15c2.91,3.06,6.66,4.48,10.37,4.48,5.95,0,11.79-3.66,13.79-10.13l29.44-94.8c2.96-9.53-4.37-18.67-13.67-18.67h0Z"/>
  </g>
  <line class="cls-4" x1="610.65" y1="185.34" x2="639.31" y2="185.34"/>
  <line class="cls-4" x1="639.31" y1="920.25" x2="610.65" y2="920.25"/>
  <circle class="cls-15" cx="932.32" cy="417.48" r="239.02"/>
  <g>
    <path class="cls-17" d="M929.05,658.5c-64.4,0-124.96-25.08-170.5-70.62-45.54-45.54-70.62-106.09-70.62-170.5s25.08-124.96,70.62-170.5c45.54-45.54,106.09-70.62,170.5-70.62s124.96,25.08,170.5,70.62c45.54,45.54,70.62,106.09,70.62,170.5s-25.08,124.96-70.62,170.5c-45.54,45.54-106.09,70.62-170.5,70.62ZM929.05,179.13c-131.37,0-238.25,106.88-238.25,238.25s106.88,238.25,238.25,238.25,238.25-106.88,238.25-238.25-106.88-238.25-238.25-238.25Z"/>
    <path class="cls-9" d="M929.05,173.77c-134.55,0-243.62,109.07-243.62,243.62s109.07,243.62,243.62,243.62,243.62-109.07,243.62-243.62-109.07-243.62-243.62-243.62h0ZM929.05,653.13c-130.2,0-235.75-105.55-235.75-235.75s105.55-235.75,235.75-235.75,235.75,105.55,235.75,235.75-105.55,235.75-235.75,235.75h0Z"/>
  </g>
  <circle class="cls-11" cx="945.03" cy="417.48" r="239.02"/>
  <polygon class="cls-6" points="798.65 598.36 903.1 475.53 933.52 489.95 878.01 646.34 825.51 624.56 798.65 598.36"/>
  <circle class="cls-18" cx="943.03" cy="417.38" r="84.13"/>
  <polygon class="cls-6" points="976.09 184.98 961 338.14 1019.48 371.91 1133.55 265.64 1117.33 244.71 1052.69 201.99 1015.33 188.67 979.88 180.25 976.09 184.98"/>
  <g>
    <path class="cls-17" d="M948.62,658.5c-64.41,0-124.96-25.08-170.5-70.62-45.54-45.54-70.62-106.09-70.62-170.5s25.08-124.96,70.62-170.5c45.54-45.54,106.09-70.62,170.5-70.62s124.96,25.08,170.5,70.62c45.54,45.54,70.62,106.09,70.62,170.5s-25.08,124.96-70.62,170.5c-45.54,45.54-106.09,70.62-170.5,70.62ZM948.62,179.13c-131.37,0-238.25,106.88-238.25,238.25s106.88,238.25,238.25,238.25,238.25-106.88,238.25-238.25-106.88-238.25-238.25-238.25Z"/>
    <path class="cls-9" d="M948.62,173.77c-134.55,0-243.62,109.07-243.62,243.62s109.07,243.62,243.62,243.62,243.62-109.07,243.62-243.62-109.07-243.62-243.62-243.62h0ZM948.62,653.13c-130.2,0-235.75-105.55-235.75-235.75s105.55-235.75,235.75-235.75,235.75,105.55,235.75,235.75-105.55,235.75-235.75,235.75h0Z"/>
  </g>
  <circle class="cls-15" cx="948.62" cy="417.38" r="84.13"/>
  <circle class="cls-6" cx="948.62" cy="417.38" r="77.54"/>
  <circle class="cls-3" cx="948.62" cy="417.38" r="62.6"/>
  <circle class="cls-7" cx="948.62" cy="417.38" r="30.44"/>
  <circle class="cls-6" cx="948.62" cy="463.2" r="9.03"/>
  <circle class="cls-6" cx="913.96" cy="448.82" r="9.03"/>
  <circle class="cls-6" cx="984.05" cy="448.82" r="9.03"/>
  <circle class="cls-6" cx="913.96" cy="385.95" r="9.03"/>
  <circle class="cls-6" cx="984.05" cy="385.95" r="9.03"/>
  <circle class="cls-6" cx="948.62" cy="371.57" r="9.03"/>
  <circle class="cls-6" cx="995.48" cy="417.38" r="9.03"/>
  <circle class="cls-6" cx="902.35" cy="417.38" r="9.03"/>
  <path class="cls-14" d="M951.55,387.72c-.99,0-1.97.05-2.93.16,13.95,1.47,24.83,15.27,24.83,29.61s-10.88,28.14-24.83,29.61c.96.1,1.94.16,2.93.16,15.33,0,27.76-14.43,27.76-29.76s-12.43-29.76-27.76-29.76Z"/>
  <circle class="cls-11" cx="712.87" cy="225.16" r="11.99"/>
  <path class="cls-10" d="M712.87,213.17c-.62,0-1.23.06-1.83.15,5.75.88,10.16,5.84,10.16,11.84s-4.41,10.95-10.16,11.84c.6.09,1.2.15,1.83.15,6.62,0,11.99-5.37,11.99-11.99s-5.37-11.99-11.99-11.99Z"/>
  <circle class="cls-11" cx="1174.83" cy="225.16" r="11.99"/>
  <circle class="cls-11" cx="747.28" cy="641.14" r="11.99"/>
  <path class="cls-10" d="M1175.5,213.17c-.62,0-1.23.06-1.83.15,5.75.88,10.16,5.84,10.16,11.84s-4.41,10.95-10.16,11.84c.6.09,1.2.15,1.83.15,6.62,0,11.99-5.37,11.99-11.99s-5.37-11.99-11.99-11.99Z"/>
  <path class="cls-10" d="M747.93,629.15c-.62,0-1.23.06-1.83.15,5.75.88,10.16,5.84,10.16,11.84s-4.41,10.95-10.16,11.84c.6.09,1.2.15,1.83.15,6.62,0,11.99-5.37,11.99-11.99s-5.37-11.99-11.99-11.99Z"/>
  <circle class="cls-5" cx="668.35" cy="181.63" r="9.55"/>
  <circle class="cls-5" cx="1229.27" cy="183.32" r="9.55"/>
  <g>
    <path class="cls-15" d="M879.68,910.39c-46.48,0-91.09-14.47-129.01-41.85-38.28-27.64-66.16-65.95-80.63-110.77-1.24-3.83-.82-7.87,1.16-11.39,1.97-3.5,5.34-6.03,9.25-6.96l86.79-20.48c13.29,51.48,59.2,87.21,112.52,87.21,8.15,0,16.33-.87,24.37-2.59l20.48,86.79c.92,3.91.16,8.06-2.08,11.39-2.26,3.35-5.7,5.52-9.67,6.13-10.97,1.67-22.14,2.52-33.19,2.52Z"/>
    <path class="cls-9" d="M765.46,721.93c14.35,51.31,60.66,86.72,114.3,86.72,7.51,0,15.06-.72,22.49-2.15l19.92,84.43c.77,3.28.16,6.62-1.72,9.41-1.87,2.76-4.7,4.56-7.98,5.06-10.85,1.65-21.89,2.49-32.81,2.49-22.94,0-45.66-3.63-67.53-10.8-21.47-7.04-41.66-17.33-60.02-30.58-18.46-13.33-34.62-29.35-48.05-47.61-13.82-18.79-24.47-39.62-31.66-61.9-1.02-3.16-.68-6.49.96-9.4,1.65-2.93,4.37-4.98,7.65-5.75l84.43-19.92M769.08,715.94l-89.2,21.05c-9.57,2.26-15.24,12.19-12.22,21.55,29.99,92.94,116.78,154.36,212.01,154.36,11.1,0,22.31-.83,33.56-2.55,9.72-1.48,16.07-11,13.81-20.56l-21.05-89.2c-8.79,2.07-17.58,3.07-26.24,3.07-51.6,0-98.32-35.31-110.69-87.71h0Z"/>
  </g>
  <g>
    <path class="cls-5" d="M895.2,906.73c-46.48,0-91.09-14.47-129.01-41.85-38.28-27.65-66.16-65.95-80.63-110.77-1.24-3.83-.82-7.87,1.16-11.39,1.97-3.5,5.35-6.03,9.25-6.96l103.23-24.36c11.48,43.82,50.64,74.2,96.1,74.2,6.85,0,13.72-.72,20.48-2.14l24.36,103.23c.92,3.91.16,8.06-2.09,11.39-2.26,3.35-5.69,5.52-9.67,6.13-10.97,1.67-22.14,2.52-33.19,2.52Z"/>
    <path class="cls-9" d="M797.44,714.39c12.53,43.65,52.09,73.71,97.87,73.71,6.21,0,12.45-.58,18.6-1.72l23.8,100.88c.77,3.28.16,6.62-1.72,9.41-1.87,2.76-4.7,4.56-7.98,5.06-10.85,1.65-21.89,2.49-32.81,2.49-22.94,0-45.66-3.63-67.53-10.8-21.47-7.04-41.66-17.33-60.02-30.58-18.46-13.33-34.62-29.35-48.05-47.61-13.82-18.79-24.47-39.62-31.66-61.9-1.02-3.16-.68-6.49.96-9.4,1.66-2.93,4.37-4.98,7.65-5.75l100.88-23.8M801.04,708.4l-105.63,24.92c-9.57,2.26-15.24,12.19-12.22,21.55,29.99,92.94,116.78,154.36,212.01,154.36,11.1,0,22.31-.83,33.56-2.55,9.72-1.48,16.07-11,13.81-20.56l-24.92-105.63c-7.48,1.77-14.98,2.61-22.34,2.61-43.94,0-83.74-30.08-94.27-74.7h0Z"/>
  </g>
  <g>
    <path class="cls-15" d="M880.77,763.59c-12.02,0-23.57-4.42-32.53-12.45-20.02-17.95-21.7-48.83-3.75-68.85,2.11-2.36,4.48-4.53,7.03-6.45l.1-.07,203.53-186.63c3.87-3.55,8.9-5.51,14.16-5.51s10.13,1.9,13.98,5.35c8.06,7.23,9.31,19.26,2.9,27.99l-163.39,222.62-.06.1c-1.63,2.75-3.53,5.33-5.65,7.69-9.24,10.3-22.47,16.21-36.32,16.21h0ZM934.21,636.18c-5.41,0-10.59,2.31-14.2,6.34l-16.66,18.58c-7.02,7.83-6.36,19.91,1.47,26.92,3.5,3.14,8.02,4.87,12.72,4.87,5.41,0,10.59-2.31,14.2-6.34l16.66-18.58c3.4-3.79,5.12-8.68,4.84-13.77-.28-5.08-2.52-9.76-6.31-13.16-3.5-3.14-8.02-4.87-12.72-4.87ZM988.35,578.86c-4.54,0-8.89,1.94-11.92,5.32l-13.58,15.14c-5.89,6.57-5.34,16.7,1.23,22.59,2.94,2.64,6.73,4.09,10.68,4.09,4.54,0,8.89-1.94,11.92-5.32l13.58-15.14c5.89-6.57,5.34-16.7-1.23-22.59-2.94-2.64-6.73-4.09-10.68-4.09ZM1030,530.06c-5.21,0-10.19,2.22-13.67,6.1-6.75,7.53-6.12,19.16,1.41,25.91,3.37,3.02,7.72,4.69,12.24,4.69,5.21,0,10.19-2.22,13.67-6.1,6.75-7.53,6.12-19.16-1.41-25.91-3.37-3.02-7.72-4.69-12.24-4.69Z"/>
    <path class="cls-9" d="M1069.3,486.12c4.55,0,8.92,1.67,12.31,4.71,7.1,6.36,8.2,16.96,2.56,24.65l-163.31,222.52-.14.2-.12.21c-1.55,2.6-3.35,5.06-5.36,7.3-8.76,9.77-21.32,15.38-34.46,15.38-11.4,0-22.36-4.2-30.86-11.82-9.2-8.25-14.64-19.59-15.31-31.92-.67-12.34,3.5-24.2,11.75-33.4,2.01-2.24,4.25-4.3,6.67-6.12l.19-.15.18-.16,203.44-186.55c3.41-3.13,7.84-4.85,12.47-4.85M1029.99,569.26c5.92,0,11.58-2.53,15.53-6.93,3.72-4.15,5.6-9.49,5.29-15.05-.3-5.56-2.75-10.67-6.9-14.39-3.83-3.43-8.77-5.33-13.91-5.33-5.92,0-11.58,2.53-15.53,6.93-7.67,8.56-6.95,21.77,1.61,29.44,3.83,3.43,8.77,5.33,13.91,5.33M974.77,628.5c5.25,0,10.27-2.24,13.78-6.15l13.58-15.14c6.81-7.6,6.17-19.31-1.42-26.12-3.4-3.05-7.78-4.73-12.35-4.73-5.25,0-10.27,2.24-13.78,6.15l-13.57,15.14c-3.3,3.68-4.97,8.42-4.7,13.36.27,4.93,2.44,9.47,6.12,12.77,3.4,3.05,7.78,4.73,12.35,4.73M917.54,695.4c6.12,0,11.98-2.61,16.06-7.17l16.66-18.58c3.85-4.29,5.79-9.82,5.48-15.57s-2.85-11.04-7.14-14.88c-3.96-3.55-9.07-5.51-14.39-5.51-6.12,0-11.98,2.61-16.06,7.17l-16.66,18.58c-7.94,8.85-7.19,22.52,1.66,30.45h0c3.96,3.55,9.07,5.51,14.39,5.51M1069.3,481.12c-5.68,0-11.37,2.06-15.85,6.16l-203.44,186.55c-2.63,1.98-5.11,4.23-7.39,6.78-18.9,21.08-17.13,53.48,3.95,72.38,9.79,8.77,22.02,13.09,34.2,13.09,14.06,0,28.06-5.75,38.18-17.04,2.28-2.54,4.25-5.26,5.93-8.09l163.31-222.52c7.14-9.72,5.73-23.28-3.25-31.33h0c-4.46-3.99-10.05-5.99-15.65-5.99h0ZM1029.99,564.26c-3.77,0-7.55-1.34-10.57-4.05-6.52-5.84-7.06-15.86-1.22-22.38,3.13-3.49,7.46-5.27,11.81-5.27,3.77,0,7.55,1.34,10.57,4.05,6.52,5.84,7.06,15.86,1.22,22.38-3.13,3.49-7.46,5.27-11.8,5.27h0ZM974.77,623.5c-3.21,0-6.43-1.14-9.01-3.45-5.55-4.98-6.02-13.51-1.04-19.06l13.58-15.14c2.67-2.97,6.35-4.49,10.06-4.49,3.21,0,6.43,1.14,9.01,3.45,5.55,4.98,6.02,13.51,1.04,19.06l-13.58,15.14c-2.67,2.97-6.35,4.49-10.06,4.49h0ZM906.49,686.17c-6.81-6.11-7.38-16.58-1.28-23.39l16.66-18.58c3.27-3.65,7.8-5.51,12.34-5.51,3.94,0,7.89,1.4,11.05,4.23h0c6.81,6.11,7.38,16.58,1.28,23.39l-16.66,18.58c-3.27,3.65-7.8,5.51-12.34,5.51-3.94,0-7.89-1.4-11.05-4.23h0Z"/>
  </g>
  <g>
    <path class="cls-5" d="M889.64,753.7c-12.02,0-23.57-4.42-32.53-12.46-9.7-8.69-15.43-20.64-16.14-33.65s3.69-25.51,12.38-35.2c2.12-2.36,4.49-4.53,7.03-6.45l.1-.07,203.53-186.63c3.87-3.55,8.9-5.51,14.16-5.51s10.13,1.9,13.98,5.35c8.06,7.23,9.31,19.26,2.9,27.99l-163.39,222.62-.06.1c-1.63,2.74-3.53,5.33-5.65,7.69-9.24,10.3-22.47,16.21-36.32,16.21,0,0,0,0,0,0ZM943.08,626.29c-5.41,0-10.59,2.31-14.2,6.34l-16.66,18.58c-7.02,7.83-6.36,19.91,1.47,26.92,3.5,3.14,8.02,4.87,12.72,4.87,5.41,0,10.59-2.31,14.2-6.34l16.66-18.58c3.4-3.79,5.12-8.68,4.84-13.77-.28-5.08-2.52-9.76-6.31-13.16-3.5-3.14-8.02-4.87-12.72-4.87ZM997.22,568.97c-4.54,0-8.89,1.94-11.92,5.32l-13.58,15.14c-5.89,6.57-5.34,16.7,1.23,22.59,2.94,2.64,6.73,4.09,10.68,4.09,4.54,0,8.89-1.94,11.92-5.32l13.58-15.14c5.89-6.57,5.34-16.7-1.23-22.59-2.94-2.64-6.73-4.09-10.68-4.09ZM1038.87,520.17c-5.21,0-10.19,2.22-13.67,6.1-3.27,3.65-4.93,8.35-4.66,13.25.27,4.89,2.42,9.39,6.07,12.66,3.37,3.02,7.72,4.69,12.24,4.69,5.21,0,10.19-2.22,13.67-6.1,3.27-3.65,4.93-8.35,4.66-13.25-.27-4.89-2.42-9.39-6.07-12.66-3.37-3.02-7.72-4.69-12.24-4.69Z"/>
    <path class="cls-9" d="M1078.17,476.23c4.55,0,8.92,1.67,12.31,4.71,7.1,6.36,8.2,16.96,2.56,24.65l-163.31,222.52-.14.2-.12.21c-1.55,2.6-3.35,5.06-5.36,7.3-8.76,9.77-21.32,15.38-34.46,15.38-11.4,0-22.36-4.2-30.86-11.82-9.2-8.25-14.64-19.59-15.31-31.92-.67-12.34,3.5-24.2,11.75-33.4,2.01-2.24,4.25-4.3,6.67-6.12l.19-.15.18-.16,203.44-186.55c3.41-3.13,7.84-4.85,12.47-4.85M1038.85,559.37c5.92,0,11.58-2.53,15.53-6.93,3.72-4.15,5.6-9.49,5.29-15.05-.3-5.56-2.75-10.67-6.9-14.39-3.83-3.43-8.77-5.33-13.91-5.33-5.92,0-11.58,2.53-15.53,6.93-3.72,4.15-5.6,9.49-5.29,15.05.3,5.56,2.75,10.67,6.9,14.39,3.83,3.43,8.77,5.33,13.91,5.33M983.64,618.61c5.25,0,10.27-2.24,13.78-6.15l13.58-15.14c3.3-3.68,4.97-8.42,4.7-13.36-.27-4.93-2.44-9.47-6.12-12.77-3.4-3.05-7.78-4.73-12.35-4.73-5.25,0-10.27,2.24-13.78,6.15l-13.57,15.14c-3.3,3.68-4.97,8.42-4.7,13.36.27,4.93,2.44,9.47,6.12,12.77,3.4,3.05,7.78,4.73,12.35,4.73M926.41,685.51c6.12,0,11.98-2.61,16.06-7.17l16.66-18.58c7.94-8.85,7.19-22.52-1.66-30.45-3.96-3.55-9.07-5.51-14.39-5.51-6.12,0-11.98,2.61-16.06,7.17l-16.66,18.58c-7.94,8.85-7.19,22.52,1.66,30.45h0c3.96,3.55,9.07,5.51,14.39,5.51M1078.17,471.23c-5.68,0-11.37,2.06-15.85,6.16l-203.44,186.55c-2.63,1.98-5.11,4.23-7.39,6.78-18.9,21.08-17.13,53.48,3.95,72.38,9.79,8.77,22.02,13.09,34.2,13.09,14.06,0,28.06-5.75,38.18-17.04,2.28-2.54,4.25-5.26,5.93-8.09l163.31-222.52c7.14-9.72,5.73-23.28-3.25-31.33-4.46-3.99-10.05-5.99-15.65-5.99h0ZM1038.85,554.37c-3.77,0-7.55-1.34-10.57-4.05-6.52-5.84-7.06-15.86-1.22-22.38,3.13-3.49,7.46-5.27,11.8-5.27,3.77,0,7.55,1.34,10.57,4.05,6.52,5.84,7.06,15.86,1.22,22.38-3.13,3.49-7.46,5.27-11.81,5.27h0ZM983.64,613.61c-3.21,0-6.43-1.14-9.01-3.45-5.55-4.98-6.02-13.51-1.04-19.06l13.58-15.14c2.67-2.97,6.35-4.49,10.06-4.49,3.21,0,6.43,1.14,9.01,3.45,5.55,4.98,6.02,13.51,1.04,19.06l-13.58,15.14c-2.67,2.97-6.35,4.49-10.06,4.49h0ZM915.35,676.27c-6.81-6.11-7.38-16.58-1.28-23.39l16.66-18.58c3.27-3.65,7.8-5.51,12.34-5.51,3.94,0,7.89,1.4,11.05,4.23h0c6.81,6.11,7.38,16.58,1.28,23.39l-16.66,18.58c-3.27,3.65-7.8,5.51-12.34,5.51-3.94,0-7.89-1.4-11.05-4.23h0Z"/>
  </g>
  <g>
    <path class="cls-16" d="M899.78,728.56c-8.89,0-17.42-3.27-24.05-9.21-7.17-6.43-11.4-15.26-11.93-24.87s2.73-18.85,9.15-26.02c6.83-7.62,16.61-11.98,26.85-11.98,8.88,0,17.42,3.27,24.05,9.21,7.17,6.43,11.4,15.26,11.93,24.87s-2.73,18.85-9.15,26.02c-6.83,7.61-16.61,11.98-26.85,11.98,0,0,0,0,0,0Z"/>
    <path class="cls-9" d="M899.8,658.98c8.27,0,16.22,3.04,22.38,8.57,13.77,12.35,14.93,33.59,2.58,47.36-6.35,7.09-15.46,11.15-24.99,11.15-8.27,0-16.22-3.04-22.38-8.57-13.77-12.35-14.93-33.59-2.58-47.36,6.35-7.09,15.46-11.15,24.99-11.15M899.8,653.98c-10.57,0-21.1,4.32-28.71,12.81-14.21,15.85-12.88,40.22,2.97,54.42,7.36,6.6,16.55,9.85,25.72,9.85,10.57,0,21.1-4.32,28.71-12.81,14.21-15.85,12.88-40.22-2.97-54.42-7.36-6.6-16.55-9.85-25.72-9.85h0Z"/>
  </g>
  <g>
    <path class="cls-11" d="M906.47,720.47c-8.46,0-16.58-3.11-22.88-8.76-14.08-12.63-15.27-34.35-2.64-48.44,6.5-7.25,15.81-11.4,25.55-11.4,8.46,0,16.58,3.11,22.88,8.76,6.82,6.12,10.85,14.52,11.35,23.67.5,9.15-2.59,17.94-8.71,24.77-6.5,7.25-15.81,11.4-25.55,11.4h0Z"/>
    <path class="cls-9" d="M906.5,654.36c7.84,0,15.37,2.88,21.22,8.12,13.06,11.71,14.15,31.85,2.45,44.91-6.02,6.72-14.66,10.57-23.69,10.57-7.84,0-15.37-2.88-21.22-8.12-13.06-11.71-14.15-31.85-2.45-44.91,6.02-6.72,14.66-10.57,23.69-10.57M906.5,649.36c-10.09,0-20.14,4.13-27.41,12.23-13.57,15.13-12.3,38.4,2.83,51.97,7.03,6.3,15.81,9.4,24.55,9.4,10.09,0,20.14-4.13,27.41-12.23,13.57-15.13,12.3-38.4-2.83-51.97-7.03-6.3-15.81-9.4-24.55-9.4h0Z"/>
  </g>
  <circle class="cls-11" cx="915.8" cy="882.81" r="11.99"/>
  <path class="cls-10" d="M916.46,870.82c-.62,0-1.23.06-1.83.15,5.75.88,10.16,5.84,10.16,11.84s-4.41,10.95-10.16,11.84c.6.09,1.2.15,1.83.15,6.62,0,11.99-5.37,11.99-11.99s-5.37-11.99-11.99-11.99Z"/>
  <circle class="cls-11" cx="712.54" cy="756.2" r="11.99"/>
  <path class="cls-10" d="M713.19,744.21c-.62,0-1.23.06-1.83.15,5.75.88,10.16,5.84,10.16,11.84s-4.41,10.95-10.16,11.84c.6.09,1.2.15,1.83.15,6.62,0,11.99-5.37,11.99-11.99s-5.37-11.99-11.99-11.99Z"/>
  <path class="cls-2" d="M1038.02,819.14h-76.39c-3.09,0-5.59-2.5-5.59-5.59v-12c0-3.09,2.5-5.59,5.59-5.59h53.2c3.09,0,5.59-2.5,5.59-5.59v-19.56c0-3.1,2.53-5.61,5.63-5.59l115.88.87c3.07.02,5.55,2.52,5.55,5.59v18.68c0,3.09,2.5,5.59,5.59,5.59h53.21c3.09,0,5.59,2.5,5.59,5.59v12c0,3.09-2.5,5.59-5.59,5.59h-76.39c-3.09,0-5.59-2.5-5.59-5.59v-19.96c0-3.09-2.5-5.59-5.59-5.59h-69.52c-3.09,0-5.59,2.5-5.59,5.59v19.96c0,3.09-2.5,5.59-5.59,5.59Z"/>
  <path class="cls-2" d="M1048.63,818.94h-76.39c-3.09,0-5.59-2.5-5.59-5.59v-12c0-3.09,2.5-5.59,5.59-5.59h53.2c3.09,0,5.59-2.5,5.59-5.59v-19.56c0-3.1,2.53-5.61,5.63-5.59l115.88.87c3.07.02,5.55,2.52,5.55,5.59v18.68c0,3.09,2.5,5.59,5.59,5.59h53.21c3.09,0,5.59,2.5,5.59,5.59v12c0,3.09-2.5,5.59-5.59,5.59h-76.39c-3.09,0-5.59-2.5-5.59-5.59v-19.96c0-3.09-2.5-5.59-5.59-5.59h-69.52c-3.09,0-5.59,2.5-5.59,5.59v19.96c0,3.09-2.5,5.59-5.59,5.59Z"/>
  <path class="cls-2" d="M964.87,820.8h73.47c19.02,0,34.46,15.44,34.46,34.46h0c0,19.02-15.44,34.46-34.46,34.46h-73.47c-5.17,0-9.37-4.2-9.37-9.37v-50.18c0-5.17,4.2-9.37,9.37-9.37Z"/>
  <path class="cls-2" d="M976.03,820.8h73.47c19.02,0,34.46,15.44,34.46,34.46h0c0,19.02-15.44,34.46-34.46,34.46h-73.47c-5.17,0-9.37-4.2-9.37-9.37v-50.18c0-5.17,4.2-9.37,9.37-9.37Z"/>
  <path class="cls-2" d="M1103.29,820.8h73.47c19.02,0,34.46,15.44,34.46,34.46h0c0,19.02-15.44,34.46-34.46,34.46h-73.47c-5.17,0-9.37-4.2-9.37-9.37v-50.18c0-5.17,4.2-9.37,9.37-9.37Z" transform="translate(2305.13 1710.52) rotate(-180)"/>
  <path class="cls-2" d="M1113.12,820.8h73.47c19.02,0,34.46,15.44,34.46,34.46h0c0,19.02-15.44,34.46-34.46,34.46h-73.47c-5.17,0-9.37-4.2-9.37-9.37v-50.18c0-5.17,4.2-9.37,9.37-9.37Z" transform="translate(2324.8 1710.52) rotate(-180)"/>
  <circle class="cls-7" cx="1052.83" cy="855.26" r="14.67"/>
  <path class="cls-14" d="M1052.5,840.59c-1.08,0-2.12.12-3.13.34,6.6,1.44,11.54,7.3,11.54,14.33s-4.94,12.9-11.54,14.33c1.01.22,2.06.34,3.13.34,8.1,0,14.67-6.57,14.67-14.67s-6.57-14.67-14.67-14.67Z"/>
  <circle class="cls-7" cx="1134.89" cy="855.26" r="14.67"/>
  <path class="cls-14" d="M1134.57,840.59c-1.08,0-2.12.12-3.13.34,6.6,1.44,11.54,7.3,11.54,14.33s-4.94,12.9-11.54,14.33c1.01.22,2.06.34,3.13.34,8.1,0,14.67-6.57,14.67-14.67s-6.57-14.67-14.67-14.67Z"/>
  <g>
    <path class="cls-8" d="M1375.48,702.39c-.67,0-1.35-.05-2.03-.14-3.23-.45-6.09-1.91-8.08-4.11-1.87-2.08-2.72-4.58-2.37-7.04l8.72-62.51c5.89-42.2-29.92-82.19-79.81-89.15-4.98-.69-10.02-1.05-14.99-1.05-44.68,0-80.92,27.31-86.17,64.95l-8.72,62.51c-.65,4.64-5.31,8.01-11.08,8.01-.67,0-1.35-.05-2.03-.14-6.49-.91-11.18-5.91-10.45-11.16l9.47-67.87c3.17-22.69,15.9-43.34,35.85-58.14,19.85-14.73,45.59-22.83,72.48-22.83,6.31,0,12.71.45,19.04,1.33,30.54,4.26,57.84,18.25,76.87,39.4,18.92,21.03,27.39,46.62,23.84,72.06l-9.47,67.87c-.65,4.64-5.31,8.01-11.08,8.01h0Z"/>
    <path class="cls-9" d="M1276.27,516.22c6.19,0,12.48.44,18.69,1.31,29.96,4.18,56.72,17.89,75.36,38.6,18.42,20.47,26.67,45.35,23.22,70.04l-9.47,67.87c-.47,3.34-4.16,5.86-8.6,5.86-.56,0-1.12-.04-1.68-.12-5.04-.7-8.85-4.52-8.32-8.34l8.72-62.51c2.97-21.27-4.03-42.57-19.71-59.99-15.46-17.18-37.56-28.54-62.23-31.98-5.09-.71-10.25-1.07-15.33-1.07-45.94,0-83.23,28.22-88.65,67.1l-8.72,62.51c-.47,3.34-4.16,5.86-8.6,5.86-.56,0-1.12-.04-1.68-.12-2.64-.37-4.97-1.54-6.56-3.31-1.37-1.52-2-3.31-1.76-5.03l9.47-67.87c3.07-22.02,15.45-42.08,34.87-56.48,19.42-14.41,44.63-22.34,70.99-22.34M1276.27,511.22c-56.29,0-104.02,34.49-110.81,83.13l-9.47,67.87c-.92,6.62,4.71,12.88,12.58,13.98h0c.8.11,1.59.17,2.37.17,6.89,0,12.72-4.22,13.55-10.17l8.72-62.51c5.12-36.74,41.18-62.79,83.7-62.79,4.81,0,9.7.33,14.64,1.02h0c48.61,6.78,83.39,45.43,77.68,86.33l-8.72,62.51c-.92,6.62,4.71,12.88,12.58,13.98.8.11,1.59.17,2.37.17,6.89,0,12.72-4.22,13.55-10.17l9.47-67.87c7.55-54.14-38.49-105.31-102.84-114.29h0c-6.54-.91-13.02-1.35-19.38-1.35h0Z"/>
  </g>
  <g>
    <path class="cls-8" d="M1266.83,974.7c-5.43,0-10.93-.38-16.35-1.14l-37.54-5.24c-31.01-4.33-58.49-20.47-77.36-45.46s-26.88-55.83-22.56-86.85l18.89-135.42c1.26-9.04,9.08-15.86,18.2-15.86.85,0,1.72.06,2.57.18l233.31,32.55c10.05,1.4,17.08,10.72,15.68,20.77l-18.89,135.42c-3.93,28.19-17.95,53.94-39.46,72.51-21.31,18.4-48.48,28.54-76.49,28.54h0ZM1225.83,892.94c-1.27,9.07,5.08,17.48,14.16,18.75.77.11,1.54.16,2.31.16,8.23,0,15.3-6.16,16.44-14.32l7.03-50.43c10.85-4.45,18.5-14.26,20.13-25.94,1.22-8.72-1.04-17.4-6.34-24.42-5.31-7.03-13.03-11.57-21.75-12.78-1.52-.21-3.07-.32-4.59-.32-16.33,0-30.35,12.22-32.61,28.42-1.63,11.68,3.05,23.21,12.26,30.46l-7.03,50.43Z"/>
    <path class="cls-9" d="M1150.12,687.23c.74,0,1.49.05,2.22.16l233.31,32.55c8.68,1.21,14.76,9.26,13.55,17.95l-18.89,135.42c-3.85,27.59-17.56,52.79-38.62,70.97-20.86,18.01-47.45,27.93-74.86,27.93-5.31,0-10.7-.38-16-1.11l-37.54-5.24c-30.35-4.23-57.24-20.03-75.71-44.49s-26.31-54.64-22.07-84.99l18.89-135.42c1.09-7.81,7.85-13.71,15.72-13.71M1230.19,843.55l-6.84,49.04c-.71,5.06.6,10.08,3.68,14.16,3.08,4.07,7.56,6.71,12.61,7.41.88.12,1.77.19,2.66.19,9.47,0,17.6-7.08,18.91-16.47l6.84-49.04c10.96-5.03,18.64-15.25,20.33-27.33,1.31-9.38-1.11-18.71-6.82-26.28-5.71-7.56-14.02-12.45-23.4-13.75-1.64-.23-3.3-.34-4.94-.34-17.57,0-32.66,13.14-35.09,30.57-1.69,12.08,2.9,24.02,12.07,31.85M1150.12,682.23c-10.26,0-19.22,7.56-20.67,18.02l-18.89,135.42c-9.14,65.49,36.55,125.99,102.04,135.13l37.54,5.24c5.61.78,11.19,1.16,16.69,1.16,58.79,0,110.08-43.32,118.43-103.21l18.89-135.42c1.59-11.43-6.38-21.99-17.81-23.59l-233.31-32.55c-.98-.14-1.95-.2-2.91-.2h0ZM1242.3,909.35c-.65,0-1.31-.04-1.97-.14-7.72-1.08-13.1-8.21-12.03-15.93l7.24-51.89c-8.92-6.39-14.09-17.38-12.47-29,2.13-15.24,15.18-26.26,30.14-26.26,1.4,0,2.82.1,4.25.3,16.67,2.32,28.29,17.72,25.97,34.39-1.62,11.62-9.6,20.78-19.93,24.48l-7.24,51.89c-.98,7.06-7.03,12.17-13.96,12.17h0Z"/>
  </g>
  <g>
    <path class="cls-1" d="M1394.14,702.39c-.67,0-1.35-.05-2.03-.14-3.23-.45-6.09-1.91-8.08-4.11-1.87-2.08-2.72-4.58-2.37-7.04l8.72-62.51c5.89-42.2-29.92-82.19-79.81-89.15-4.98-.69-10.02-1.05-14.99-1.05-44.68,0-80.92,27.31-86.17,64.95l-8.72,62.51c-.65,4.64-5.31,8.01-11.08,8.01-.67,0-1.35-.05-2.03-.14-6.49-.91-11.18-5.91-10.45-11.16l9.47-67.87c3.17-22.69,15.9-43.34,35.85-58.14,19.85-14.73,45.59-22.83,72.48-22.83,6.31,0,12.71.45,19.04,1.33,30.54,4.26,57.84,18.25,76.87,39.4,18.92,21.03,27.39,46.62,23.84,72.06l-9.47,67.87c-.65,4.64-5.31,8.01-11.08,8.01h0Z"/>
    <path class="cls-9" d="M1294.94,516.22c6.19,0,12.48.44,18.69,1.31,61.52,8.58,105.74,57.32,98.58,108.64l-9.47,67.87c-.47,3.34-4.16,5.86-8.6,5.86-.56,0-1.12-.04-1.68-.12-5.04-.7-8.85-4.52-8.32-8.34l8.72-62.51c2.97-21.27-4.03-42.57-19.71-59.99-15.46-17.18-37.56-28.54-62.23-31.98-5.09-.71-10.25-1.07-15.33-1.07-45.94,0-83.23,28.22-88.65,67.1l-8.72,62.51c-.47,3.34-4.16,5.86-8.6,5.86-.56,0-1.12-.04-1.68-.12-2.64-.37-4.97-1.54-6.56-3.31-1.37-1.52-2-3.31-1.76-5.03l9.47-67.87c3.07-22.02,15.45-42.08,34.87-56.48,19.42-14.41,44.63-22.34,70.99-22.34M1294.94,511.22c-56.29,0-104.02,34.49-110.81,83.13l-9.47,67.87c-.92,6.62,4.71,12.88,12.58,13.98h0c.8.11,1.59.17,2.37.17,6.89,0,12.72-4.22,13.55-10.17l8.72-62.51c5.12-36.74,41.18-62.79,83.7-62.79,4.81,0,9.7.33,14.64,1.02h0c48.61,6.78,83.39,45.43,77.68,86.33l-8.72,62.51c-.92,6.62,4.71,12.88,12.58,13.98.8.11,1.59.17,2.37.17,6.89,0,12.72-4.22,13.55-10.17l9.47-67.87c7.55-54.14-38.49-105.31-102.84-114.29h0c-6.54-.91-13.02-1.35-19.38-1.35h0Z"/>
  </g>
  <g>
    <rect class="cls-8" x="1196.37" y="797.84" width="154.61" height="105.18" transform="translate(255.43 1994.39) rotate(-82.06)"/>
    <path class="cls-9" d="M1234.4,769.42l99.21,13.84-20.67,148.17-99.21-13.84,20.67-148.17M1230.14,763.78l-22.05,158.08,109.12,15.22,22.05-158.08-109.12-15.22h0Z"/>
  </g>
  <path class="cls-12" d="M1277.37,789.05c-1.29-.18-2.57-.26-3.84-.27,13.73,3.81,22.86,17.29,20.83,31.79-1.62,11.62-9.95,20.64-20.52,23.73l-7.15,51.29c-.74,5.31-4.81,9.32-9.81,10.25,1.14.57,2.39.97,3.72,1.16,6.64.93,12.78-3.71,13.7-10.35l7.15-51.29c10.57-3.09,18.9-12.11,20.52-23.73,2.2-15.79-8.81-30.38-24.6-32.58Z"/>
  <g>
    <path class="cls-1" d="M1285.5,974.7c-5.43,0-10.93-.38-16.35-1.14l-37.54-5.24c-31.01-4.33-58.49-20.47-77.36-45.46s-26.88-55.83-22.56-86.85l18.89-135.42c1.26-9.04,9.08-15.86,18.2-15.86.85,0,1.72.06,2.57.18l233.31,32.55c10.05,1.4,17.08,10.72,15.68,20.77l-18.89,135.42c-3.93,28.19-17.95,53.94-39.46,72.51-21.31,18.4-48.48,28.54-76.49,28.54h0ZM1244.49,892.94c-1.27,9.07,5.08,17.48,14.16,18.75.77.11,1.54.16,2.31.16,8.23,0,15.3-6.16,16.44-14.32l7.04-50.43c10.85-4.45,18.5-14.26,20.13-25.94,1.22-8.72-1.04-17.4-6.34-24.42-5.31-7.03-13.03-11.57-21.75-12.78-1.52-.21-3.07-.32-4.59-.32-16.33,0-30.35,12.22-32.61,28.42-1.63,11.68,3.05,23.21,12.26,30.46l-7.03,50.43Z"/>
    <path class="cls-9" d="M1168.79,687.23c.74,0,1.49.05,2.22.16l233.31,32.55c8.68,1.21,14.76,9.26,13.55,17.95l-18.89,135.42c-3.85,27.59-17.56,52.79-38.62,70.97-20.86,18.01-47.45,27.93-74.86,27.93-5.31,0-10.7-.38-16-1.11l-37.54-5.24c-30.35-4.23-57.24-20.03-75.71-44.49s-26.31-54.64-22.07-84.99l18.89-135.42c1.09-7.81,7.85-13.71,15.72-13.71M1248.85,843.55l-6.84,49.04c-.71,5.06.6,10.08,3.68,14.16,3.08,4.07,7.56,6.71,12.61,7.41.88.12,1.77.19,2.66.19,9.47,0,17.6-7.08,18.91-16.47l6.84-49.04c10.96-5.03,18.64-15.25,20.33-27.33,1.31-9.38-1.11-18.71-6.82-26.28-5.71-7.56-14.02-12.45-23.4-13.75-1.64-.23-3.3-.34-4.94-.34-17.57,0-32.66,13.14-35.09,30.57-1.69,12.08,2.9,24.02,12.07,31.85M1168.79,682.23c-10.26,0-19.22,7.56-20.67,18.02l-18.89,135.42c-9.14,65.49,36.55,125.99,102.04,135.13l37.54,5.24c5.61.78,11.19,1.16,16.69,1.16,58.79,0,110.08-43.32,118.43-103.21l18.89-135.42c1.59-11.43-6.38-21.99-17.81-23.59l-233.31-32.55c-.98-.14-1.95-.2-2.91-.2h0ZM1260.96,909.35c-.65,0-1.31-.04-1.97-.14-7.72-1.08-13.1-8.21-12.03-15.93l7.24-51.89c-8.92-6.39-14.09-17.38-12.47-29,2.13-15.24,15.18-26.26,30.14-26.26,1.4,0,2.82.1,4.25.3,16.67,2.32,28.29,17.72,25.97,34.39-1.62,11.62-9.6,20.78-19.93,24.48l-7.24,51.89c-.98,7.06-7.03,12.17-13.96,12.17h0Z"/>
  </g>
</svg>