<?xml version="1.0" encoding="UTF-8"?>
<svg id="Layer_1" data-name="Layer 1" xmlns="http://www.w3.org/2000/svg" viewBox="0 0 1920 1080">
  <defs>
    <style>
      .cls-1 {
        fill: #bf2026;
      }

      .cls-1, .cls-2, .cls-3, .cls-4, .cls-5, .cls-6, .cls-7, .cls-8, .cls-9, .cls-10, .cls-11, .cls-12 {
        stroke: #601113;
        stroke-miterlimit: 10;
      }

      .cls-1, .cls-2, .cls-5, .cls-6, .cls-10 {
        stroke-width: 6px;
      }

      .cls-2, .cls-4 {
        fill: #d8d8d8;
      }

      .cls-3, .cls-4, .cls-7, .cls-8, .cls-9, .cls-11, .cls-12 {
        stroke-width: 5px;
      }

      .cls-3, .cls-10 {
        fill: #a8a8a8;
      }

      .cls-5, .cls-13, .cls-12 {
        fill: #666;
      }

      .cls-14 {
        fill: #601113;
      }

      .cls-15 {
        fill: #282828;
      }

      .cls-16 {
        fill: #faf1f1;
      }

      .cls-6, .cls-7, .cls-17 {
        fill: #ededed;
      }

      .cls-8 {
        fill: none;
      }

      .cls-9 {
        fill: #b2b2b2;
      }

      .cls-18 {
        fill: #fc4452;
      }

      .cls-11 {
        fill: #3f3f3f;
      }
    </style>
  </defs>
  <path class="cls-16" d="M1467.55,402.23c-8.14-17.28-16.67-34.52-29.35-55.17-13.14-21.4-40.1-61.75-96.26-115.04-64.75-61.44-113.22-107.44-191.35-129.13-25.03-6.95-55.26-15.01-93.91-9.39-57.11,8.3-98.36,41.48-125.61,63.39-6.04,4.86-24.46,22.87-61.04,58.7-65.31,63.95-63.63,63.62-71.61,69.26-44.3,31.33-91.15,38.1-136.17,44.61-61.44,8.88-69.37-2.28-116.22,10.57-20.75,5.69-58.17,15.95-92.74,45.78-53.81,46.44-66.06,110.44-72.78,145.57-11.96,62.5-2.03,112.14,3.52,138.52,5.75,27.33,23.88,98.77,81,167.87,7.61,9.2,36.68,43.5,84.52,76.3,29.43,20.19,53.04,36.37,86.87,45.78,74.14,20.63,157.34-2.42,210.13-37.57,13.89-9.25,28.05-20.91,55.17-34.04,28.44-13.77,53.02-25.67,83.35-24.65,22.44.76,45.4,13.04,90.39,37.57,23.47,12.8,27.44,16.22,72.78,43.43,70.96,42.58,85.13,48.52,97.43,52.83,16.21,5.67,42.53,14.65,76.3,15.26,74.73,1.34,128.86-39.36,143.22-50.48,51.05-39.53,71.64-88.48,81-111.52,30.05-74,21.63-139.45,15.26-189-10.62-82.55-38.74-142.28-93.91-259.43v-.02Z"/>
  <path class="cls-12" d="M1126.76,742.02l229.24,83.24c7.42,2.69,15.32-2.59,15.69-10.5l11.02-235.59c.26-5.48-3.3-10.4-8.56-11.87l-240.26-66.97c-7.46-2.08-14.85,3.55-14.85,11.32v219.33c0,4.95,3.09,9.36,7.73,11.05Z"/>
  <path class="cls-3" d="M1126.41,741.6l218.77,79.2c7.08,2.56,14.62-2.47,14.97-9.99l10.52-224.17c.24-5.21-3.15-9.9-8.17-11.29l-229.28-63.72c-7.12-1.98-14.17,3.38-14.17,10.77v208.7c0,4.71,2.95,8.91,7.37,10.51Z"/>
  <path class="cls-5" d="M1161.31,617.48c-.67-10.14-1-15.21-2.45-18.66-.94-2.23-2.32-4.8-1.96-8.35.07-.66.6-5.23,4.41-8.35,4.15-3.4,9.33-2.76,11.75-2.45,3.27.41,3.24,1.23,9.31,2.95,3.59,1.01,6.44,1.82,9.8,1.96,2.77.12,3.71-.4,12.24-2.45,6.29-1.51,9.43-2.27,11.26-2.45,4.76-.47,8.28.08,13.71.98,5.09.84,8.85,1.88,16.16,3.93,2.84.79,8.1,2.49,18.61,5.89,7.29,2.36,9.44,3.09,11.75,5.4,2.93,2.93,2.58,4.86,5.88,7.86,2.79,2.54,5.02,2.96,9.79,4.91,1.59.65,8.54,3.49,14.2,7.36,3.66,2.5,9.58,6.55,12.73,13.75,1.85,4.23,1.91,7.79,1.96,14.73.07,10.73-1.51,19.22-2.45,23.57-2.26,10.5-5.48,18.75-8.33,26.02-3.41,8.72-4.62,10.22-6.37,16.69-1.15,4.27-1.91,8.41-3.43,16.69-2.06,11.25-1.92,12.34-3.43,14.73-4.35,6.91-12.48,8.91-14.2,9.33-5.55,1.36-9.28.33-22.53-2.95-23.19-5.73-21.34-4.93-24-5.89-4.64-1.68-16.13-6.26-27.43-15.22-12.87-10.22-18.84-20.86-28.9-38.79-12.13-21.63-18.19-32.44-18.12-46.15.03-5.08.81-12.78,0-25.04Z"/>
  <path class="cls-4" d="M906.49,702.15c3.2-2.98,5.72-.8,20.84-4.29,3.2-.74,7.85-1.94,24.52-7.97,13.02-4.71,22.05-8.27,27.58-10.42,23.85-9.25,25.43-8.74,44.13-15.94,16.14-6.21,10.64-4.93,45.36-19.61,25.02-10.58,34.73-14.15,46.58-21.45,5.7-3.51,11.44-6.94,17.16-10.42,10.32-6.27,12.2-7.42,15.94-9.19,5.79-2.74,7.23-2.8,11.65-5.52,5.29-3.25,5.91-4.83,9.19-5.52,3.57-.75,4.88.68,12.26,2.45,7.16,1.72,10.84,2.6,15.32,1.84,5.96-1.01,6.48-3.76,12.87-4.9,1-.18,4.12-.67,11.65.61,9.72,1.66,11.41,3.66,24.52,7.36,6.61,1.86,8.97,2.15,14.1,4.29,6.73,2.82,9.5,5.2,11.03,6.74,3.01,3.03,2.24,3.81,4.9,6.13,3.54,3.07,5.43,2.15,12.26,5.52,2.62,1.29,5.56,2.77,8.58,5.52,3.29,3,6.13,7.97,6.13,7.97h0s3.32,5.91,3.53,8.55c.67,8.62-24.36,15.97-24.37,15.97-90.13,26.44-135.19,39.66-148.94,42.9-62.09,14.64-93.14,21.96-116.46,34.32-12.59,6.68-25.97,11.6-52.71,21.45-20.04,7.38-25.56,8.54-31.87,6.74-24.78-7.04-37.09-52.56-25.74-63.13Z"/>
  <path class="cls-7" d="M942.04,747.51c10.77-2.59,20.17-9.27,30.65-12.87,20.09-6.9,30.28-13.16,59.45-24.52,23.6-9.19,45.16-15.53,88.26-28.19,26.2-7.7,45.13-12.74,68.65-19,14.81-3.94,29.03-7.62,46.58-11.65,13.85-3.17,21.1-4.57,35.55-7.36,27.74-5.35,14.56-2.66,22.68-3.68,5.43-.68,11.65-1.23,11.65-1.23,1.48,1.28,1.21,4.55.61,11.03-1.58,17.24-1.88,18.97-2.45,21.45-1.25,5.41-2.67,9.44-3.68,12.26-2.6,7.28-3.73,8.34-6.13,14.71-2.55,6.79-3.82,12.38-4.9,17.16-2.21,9.77-2.11,13.5-5.52,18.39-1.18,1.68-2.93,4.26-6.13,6.13-5.79,3.38-12.27,2.15-14.1,1.84-18.33-3.14-37.24,1.46-55.78,0-31.64-2.49-58.76,2.15-78.45,5.52-6.89,1.18-29.31,7.12-74.16,19-15.25,4.04-24.7,6.62-37.39,11.03-19.46,6.77-35.16,13.9-42.29,17.16-20.09,9.18-30.13,13.77-31.87,15.32-1.45,1.29-5.15,4.75-7.36,3.68-2.16-1.06-1.57-5.84-1.23-11.65.19-3.14.99-17.94-.61-30.03-1.45-10.97-4.28-15.22-1.23-19.61,2.37-3.4,6.42-4.24,9.19-4.9Z"/>
  <path class="cls-9" d="M792.95,813.09h147.25v32.74c0,13.39-10.87,24.26-24.26,24.26h-98.73c-13.39,0-24.26-10.87-24.26-24.26v-32.74h0Z"/>
  <rect class="cls-4" x="772.26" y="716.25" width="183.88" height="109.71" rx="12.26" ry="12.26"/>
  <path class="cls-8" d="M897.4,738.26v20.36c0,4.09,3.32,7.4,7.4,7.4h15.81c4.09,0,7.4,3.32,7.4,7.4v27.12c0,4.09-3.32,7.4-7.4,7.4h-15.81c-4.09,0-7.4,3.32-7.4,7.4v10.6"/>
  <path class="cls-9" d="M792.95,637.18h149.86v93.84c0,10.37-8.42,18.78-18.78,18.78h-112.29c-10.37,0-18.78-8.42-18.78-18.78v-93.84h0Z"/>
  <polygon class="cls-4" points="982.8 523.64 926.72 661.55 775.48 645.92 911.8 507.68 982.8 523.64"/>
  <path class="cls-12" d="M1121.01,326.92h22.07v104.15c0,7.7-6.25,13.96-13.96,13.96h-8.11v-118.11h0Z"/>
  <rect class="cls-14" x="788.59" y="651.92" width="126.28" height="4.22" transform="translate(82.46 -95.25) rotate(6.73)"/>
  <path class="cls-6" d="M786.97,652.63l331.25-203.58c8.59-5.28,13.82-14.64,13.82-24.72v-114.94l-372.2,176.59,27.12,166.65Z"/>
  <polygon class="cls-3" points="400.83 459.43 485.41 426.34 495.99 293.33 493.38 282.3 448.41 284.75 383.67 308.04 348.12 326.92 345.05 342.98 359.15 376.69 392.86 445.03 400.83 459.43"/>
  <path class="cls-2" d="M504.12,277.74l266.85,30.27c16.18,1.83,28.47,15.39,28.73,31.67l4.53,286.44c.32,20.14-17.62,35.68-37.51,32.49l-261.18-41.87c-15.26-2.45-26.67-15.33-27.24-30.78l-10.19-274.84c-.73-19.8,16.33-35.61,36.02-33.38Z"/>
  <path class="cls-10" d="M546.86,351.29l175.59,19.92c10.64,1.21,18.74,10.13,18.91,20.84l2.98,188.48c.21,13.25-11.6,23.48-24.68,21.38l-171.86-27.55c-10.04-1.61-17.55-10.09-17.92-20.25l-6.71-180.85c-.48-13.03,10.74-23.43,23.7-21.96Z"/>
  <path class="cls-13" d="M551.83,556.57l-7.02-181.82c-.3-7.74,6.18-15.62,12.29-19.6l-13.28-1.42c-12.96-1.41-18.49,13.75-17.89,23.03l6.03,175.16c.38,9.76,7.59,19.91,18.97,19.91l10.91,1.9c-3.99-3.74-9.79-11.5-10.01-17.16Z"/>
  <circle class="cls-11" cx="643.61" cy="483.77" r="87.81"/>
  <circle class="cls-15" cx="630.91" cy="483.77" r="64.59"/>
  <circle class="cls-1" cx="643.61" cy="483.77" r="61.15"/>
  <path class="cls-12" d="M633.74,405.5c-43.23,0-78.28,35.05-78.28,78.28s35.05,78.28,78.28,78.28,78.28-35.05,78.28-78.28-35.05-78.28-78.28-78.28ZM633.74,548.36c-35.67,0-64.59-28.92-64.59-64.59s28.92-64.59,64.59-64.59,64.59,28.92,64.59,64.59-28.92,64.59-64.59,64.59Z"/>
  <circle class="cls-18" cx="630.91" cy="491.59" r="10.57"/>
  <path class="cls-18" d="M633.74,445.03c-23.95,0-43.36,19.41-43.36,43.36s19.41,43.36,43.36,43.36,43.36-19.41,43.36-43.36-19.41-43.36-43.36-43.36ZM633.74,526.69c-21.15,0-38.3-17.15-38.3-38.3s17.15-38.29,38.3-38.29,38.3,17.15,38.3,38.29-17.15,38.3-38.3,38.3Z"/>
  <ellipse class="cls-3" cx="485.41" cy="451.01" rx="10.57" ry="13.33"/>
  <ellipse class="cls-7" cx="1139.61" cy="538.09" rx="10.57" ry="13.33"/>
  <ellipse class="cls-7" cx="1349.84" cy="597.94" rx="10.57" ry="13.33"/>
  <ellipse class="cls-7" cx="1339.27" cy="790.4" rx="10.57" ry="13.33"/>
  <ellipse class="cls-3" cx="764.91" cy="494.35" rx="10.57" ry="13.33"/>
  <path class="cls-12" d="M845.81,166.46c.35-5.25,8.32-8.88,21.61-13.79,14.71-5.44,22.07-8.16,34.02-11.03,13.68-3.29,24.47-4.89,28.96-5.52,12.23-1.7,34.63-4.69,63.44-2.3,17.75,1.47,30.73,4.39,45.97,7.81,5.91,1.33,22.18,5.11,42.75,11.95,21.62,7.19,31.66,12.32,34.48,13.79,5.26,2.74,13.9,7.56,23.44,15.17,8.79,7.01,12.61,11.79,14.71,14.71,5.12,7.13,6.93,12.83,7.36,14.25,1.77,5.84,1.81,10.58,1.84,12.41.51,33.25-2.62,66.61,0,99.75.1,1.22.46,5.01-1.84,7.36-1.36,1.38-3.16,1.75-5.98,2.3-2.98.58-5.23.53-8.27.46-2.38-.06-5.7-.26-9.65-.92,0,0-3.26-.54-6.44-1.38-24.42-6.44-46.89-32.18-46.89-32.18-22.85-26.18-50.94-11.07-139.75-48.73,0,0-48.36-20.51-71.71-45.97-5.89-6.42-11.08-15.71-18.85-22.52-1.14-1-5.32-4.56-7.81-10.57-.93-2.25-1.48-3.56-1.38-5.06Z"/>
  <path class="cls-4" d="M771.65,496.82c-8.32-13.49-3.18-17.44-7.66-33.4-5.98-21.29-11.27-27.73-13.79-37.69-8.01-31.72-30.94-52.05-51.87-71.71-30.05-28.24-58.08-37.56-77.99-45.97-26.67-11.26-49.73-16.32-57-17.77-16.98-3.41-30.26-7.11-40.19-7.97-17.49-1.51-29.89-.55-35.89-.61-20.09-.21-32.25,3.35-32.48,2.45-2.31-8.92,366.6-112.52,422.3-128.71,2.04-.59,13.67-3.98,29.42-7.36,11.39-2.44,21.18-4.5,34.02-5.52,12.67-1.01,22.15-.51,31.26,0,3.6.2,14.67.89,44.13,5.52,20.43,3.21,30.64,4.82,36.78,6.44,16.01,4.23,26.88,9.21,46.89,18.39,0,0,11.24,5.16,26.66,14.71,4.2,2.6,10.96,6.98,16.97,14.96.13.17.28.37.5.67,8.2,11.27,9.19,22.07,9.19,22.07h0s3.7,99.24-4.6,104.81c-67.11,45.05-105.73,65.85-167.33,92.52-104.19,45.1-112.95,48.61-197.34,89.23-.95.46-7.97-8.54-11.97-15.03Z"/>
  <path class="cls-12" d="M340.61,341.14c-.6-2.71-1.21-7.52.92-12.41,2.02-4.63,5.56-7.19,10.11-10.11,11.73-7.53,21.69-12.04,22.52-12.41,13.48-6.03,20.22-9.05,29.88-12.41,11.63-4.05,20.67-6.32,26.66-7.81,7.45-1.85,16.98-4.2,29.42-5.98,19.79-2.82,35.71-2.61,43.67-2.3,14.1.55,24.32,2.2,36.32,4.14,8.8,1.42,22.23,3.63,39.07,8.27,22.66,6.25,40.34,13.83,51.03,18.85,13.06,6.14,27.56,15.28,56.54,33.56,27.98,17.64,31.72,21.05,34.94,24.36,13.88,14.3,20.26,29.12,27.12,45.05,3.82,8.88,8.83,25.66,17.93,47.81,8.73,21.27,11.49,26.5,14.71,39.53,2.09,8.46,6.65,14.18,4.9,17.16,0,0-6.45.98-10.88,0-2.76-.61-5.86-9.87-8.27-19.92-2.59-10.75-2.72-5.35-11.03-30.34-6.48-19.48-4.99-18.52-9.19-30.34-7.71-21.67-15.51-41.65-17.93-45.51-4.68-7.46-12.53-12.58-23.44-23.44-6.81-6.78-14.38-12.86-29.88-22.52-12.78-7.97-32.52-20.15-62.98-32.64-20.4-8.37-36.93-15.15-60.68-19.77-36.32-7.06-65.22-6.65-80.91-5.06-20.11,2.04-34.21,5.77-51.49,12.41-11.75,4.52-24.66,11.33-38.61,16.09-4.87,1.66-9.35,4.38-14.25,5.98-1.56.51-5.8,1.82-9.69,5.54-.47.45-.81.81-.88.89-4.18,4.53-5.23,10.19-5.52,12.87,0,0-.12,1.13.46,10.47,23.9,51.13,47.35,93.88,54.55,109.51,1.33,2.88-8.73,3.51-10.42,0-11.03-22.98-15.34-30.84-22.98-48.27-6.18-14.11-18.39-35.4-29.73-61.24l-1.99-10.01Z"/>
  <ellipse class="cls-5" cx="928.75" cy="654.03" rx="31.32" ry="41.37"/>
  <ellipse class="cls-7" cx="936.85" cy="654.45" rx="24.13" ry="38.19"/>
  <path class="cls-17" d="M718.85,343.97c-4.11,2.09,6.36,3.78,17.47,13.79,14.46,13.03,20.82,28.33,28.5,50.57,19.78,57.26,21.15,67.11,21.15,67.11,90.33-29.88,91.43-30.28,216.05-90.1,68.95-33.1,89.18-44.13,134.23-70.79,6.14-3.63,1.88-23.58,1.84-57-.04-31.68-1.77-42.32-9.19-50.57-5.61-6.22-16.48-19.71-33.1-12.87-62.52,25.74-125,52.47-155.59,62.45-137.99,45.04-156.3,54.31-221.36,87.41Z"/>
</svg>