<?xml version="1.0" encoding="UTF-8"?>
<svg id="Layer_1" data-name="Layer 1" xmlns="http://www.w3.org/2000/svg" viewBox="0 0 1920 1080">
  <defs>
    <style>
      .cls-1 {
        fill: #999;
      }

      .cls-1, .cls-2, .cls-3, .cls-4, .cls-5, .cls-6 {
        stroke: #601113;
        stroke-miterlimit: 10;
        stroke-width: 5px;
      }

      .cls-2, .cls-7 {
        fill: #fff;
      }

      .cls-7 {
        opacity: .43;
      }

      .cls-3 {
        fill: #1a1a1a;
      }

      .cls-8 {
        fill: #c9c9c9;
      }

      .cls-4 {
        fill: #d3d2d3;
      }

      .cls-9 {
        fill: #faf1f1;
      }

      .cls-5 {
        fill: none;
      }

      .cls-6 {
        fill: #cc2b2b;
      }
    </style>
  </defs>
  <path class="cls-9" d="M1456.31,402.28c-8.14-17.28-16.67-34.52-29.35-55.17-13.14-21.4-40.1-61.75-96.26-115.04-64.75-61.44-113.22-107.44-191.35-129.13-25.03-6.95-55.26-15.01-93.91-9.39-57.11,8.3-98.36,41.48-125.61,63.39-6.04,4.86-24.46,22.87-61.04,58.7-65.31,63.95-63.63,63.62-71.61,69.26-44.3,31.33-91.15,38.1-136.17,44.61-61.44,8.88-69.37-2.28-116.22,10.57-20.75,5.69-58.17,15.95-92.74,45.78-53.81,46.44-66.06,110.44-72.78,145.57-11.96,62.5-2.03,112.14,3.52,138.52,5.75,27.33,23.88,98.77,81,167.87,7.61,9.2,36.68,43.5,84.52,76.3,29.43,20.19,53.04,36.37,86.87,45.78,74.14,20.63,157.34-2.42,210.13-37.57,13.89-9.25,28.05-20.91,55.17-34.04,28.44-13.77,53.02-25.67,83.35-24.65,22.44.76,45.4,13.04,90.39,37.57,23.47,12.8,27.44,16.22,72.78,43.43,70.96,42.58,85.13,48.52,97.43,52.83,16.21,5.67,42.53,14.65,76.3,15.26,74.73,1.34,128.86-39.36,143.22-50.48,51.05-39.53,71.64-88.48,81-111.52,30.05-74,21.63-139.45,15.26-189-10.62-82.55-38.74-142.28-93.91-259.43Z"/>
  <line class="cls-5" x1="477.66" y1="929.46" x2="1491.14" y2="929.46"/>
  <path class="cls-6" d="M615.23,596.13c-7.85-7.29-6.93-6.56-9.83-9.18-1.71-1.55-2.18-1.94-11.86-10.24-5.52-4.74-8.31-7.13-9.6-8.26-4.88-4.26-6.09-5.43-11.84-10.54-7.24-6.44-6.62-5.73-13.54-11.88-4.97-4.41-10.26-8.48-14.94-13.19-1.92-1.93-4.97-5.1-9.95-7.69-3.42-1.78-5.63-2.18-6.45-2.3-1.8-.28-5.82-.61-10.04,1.34-2.45,1.13-4.02,2.69-7.07,5.78-3.54,3.58-5.81,6.69-6.28,7.35-6.34,8.74-10.96,18.64-11.81,20.47-3.38,7.31-6.92,14.96-9.76,25.14-5.18,18.56-4.76,33.83-4.46,42.41.73,20.88,5.41,36.21,9.47,49.2,2.31,7.38,8.15,24.75,19.69,45.46,13.23,23.72,26.76,38.93,39.56,53.31,20.38,22.89,38.34,37.75,50.24,47.51,20.8,17.05,35.58,26.28,39.35,28.61,16.11,9.94,28.54,15.62,32.1,17.21,9.58,4.3,20.22,9.01,35.16,12.63,16.05,3.89,28.55,4.45,32.16,4.57,5.7.2,15.63.49,28.43-1.73,6-1.04,16.63-2.95,28.04-8.39,4.6-2.19,8.84-4.72,12.89-7.14,5.91-3.53,7.86-5.06,9.21-6.22,1.19-1.02,4.27-3.48,8.64-7.2l7.68-5.4c5.1-3.72,7.76-5.11,12.15-9.3,2.75-2.63,5.98-5.76,8.95-10.75,2.23-3.75,3.86-6.57,3.82-10.54-.04-4.14-1.86-7.3-2.65-8.63-.55-.92-1.49-2.35-5.55-6.15-3.64-3.41-4.9-4.17-8.47-7.27-2.77-2.41-2.74-2.59-8.98-8.52-.41-.39-4.64-4.4-8.43-7.87-4.4-4.03-5.51-4.87-13.54-11.88-7.6-6.64-11.4-9.95-15.22-13.51-6.97-6.49-6.37-6.43-10.39-9.83-5.59-4.74-6.36-4.52-13.93-10.7l-18.1-15.24c-1.57-.83-3.36-1.75-5.87-1.96-3.87-.32-6.89,1.25-8.91,2.33-2.39,1.28-4.03,2.72-5.75,4.38-3.41,3.28-6.72,6.46-10.56,12.13-2.88,4.25-4.63,8.05-8.12,15.63-4.78,10.39-7.18,15.58-7.57,20.19-.52,6.11.87,9.5-1.13,10.75-1.73,1.08-4.12-.6-12.85-5.2-6.89-3.63-4.4-2.06-11.88-6.03-6.69-3.55-10.74-5.71-16.16-9.07-2.97-1.84-6.62-4.11-11.17-7.48-3.48-2.57-6.52-5.18-12.46-10.29-6.33-5.45-9.49-8.17-12.69-11.21-5.67-5.4-9.68-9.81-12.27-12.68-4.57-5.06-7.74-8.56-11.58-13.83-1.52-2.09-3.35-4.88-7.02-10.47-3.29-5.01-4.97-7.58-6.98-11.07-3.22-5.6-2.47-5.1-4.49-8.17-2.27-3.45-3.67-4.76-3.16-5.96.6-1.41,3.1-.91,7.67-1.82,3.46-.69,5.75-1.72,10.22-3.73,3.79-1.71,6.36-3.25,9.74-5.27,4-2.4,6.76-4.06,10.15-6.75,1.96-1.56,4.45-4.01,9.41-8.91,5.98-5.9,6.78-6.96,7.55-8.15,1.62-2.51,3.69-5.73,3.8-10.25.09-3.96-1.38-6.97-2.33-8.91-.46-.93-1.94-3.82-4.91-6.7l-15.57-12.93Z"/>
  <path class="cls-4" d="M1425.43,900.72h-98.33l-6.41-86.34h-37.08l-6.41,86.34h-98.33c-4.96,0-8.99,4.02-8.99,8.99v19.54h264.55v-19.54c0-4.96-4.02-8.99-8.99-8.99Z"/>
  <rect class="cls-4" x="1077.74" y="554.45" width="448.81" height="283.36" rx="26.98" ry="26.98"/>
  <rect class="cls-3" x="1107.62" y="580.92" width="386.3" height="230.42" rx="26.98" ry="26.98"/>
  <rect class="cls-7" x="1143.05" y="582.31" width="59.03" height="226.91"/>
  <rect class="cls-7" x="1223.26" y="582.31" width="39.11" height="226.91"/>
  <rect class="cls-7" x="1270.92" y="582.31" width="14.91" height="226.91"/>
  <path class="cls-2" d="M1014.17,169.64c3.65,1.99,9.24-5.86,17.54-10.8,21.52-12.78,50.04.74,51.28,1.35,4.14,2.03,13.99,7.02,21.59,18.22,2.94,4.33,7.86,13,8.77,24.29.28,3.45.68,8.49-.67,14.84-1.65,7.71-4.58,11.28-2.7,14.17,1.49,2.28,4.66,2.13,10.12,2.7,0,0,7.7.8,19.57,4.05,9.07,2.49,14.56,7.91,23.61,16.87,4.72,4.67,12.18,12.17,18.22,24.29,8.35,16.76,8.74,31.83,8.77,35.76.15,21.9-8.95,37.6-13.49,45.2-1.31,2.19-7.12,11.72-17.54,21.59-5.17,4.9-10.22,9.6-18.22,13.49-2.08,1.01-8.61,4.04-22.27,6.07-13.32,1.98-23.6,1.55-29.01,1.35-16.18-.61-32.39-.2-48.58-.67-17.33-.51-12.1-.07-56-.67-56.28-.78-51.3-1.31-77.59-1.35-24.92-.04-53.02.4-70.84.67-15.29.24-30.59-.4-45.88,0-12.53.33-20.94.83-33.06-1.35-14.26-2.57-24.31-7.16-26.31-8.1-8.1-3.77-24.3-11.32-35.76-28.34-16.07-23.85-12-50.22-10.79-58.02.84-5.42,3.93-22.1,16.19-39.13,11.7-16.24,25.41-24.03,28.34-25.64,4.71-2.6,15.03-8.15,29.01-9.45,4.87-.45,10.22-.08,20.92.67,5.46.38,8.19.75,11.47,2.02,5.82,2.27,8.44,5.5,9.45,4.72,1.41-1.08-3.02-7.83-6.07-16.19-3.42-9.39-3.76-17.13-4.05-23.61-.76-17.41,3.94-30.74,6.75-38.46,6.02-16.55,14.43-27.72,18.22-32.39,2.45-3.03,12.47-15.07,29.69-25.64,17.09-10.49,32.56-14.19,39.13-15.52,18.81-3.79,33.7-2.02,38.46-1.35,17.91,2.52,30.43,8.78,33.06,10.12,4.97,2.55,9.39,5.52,18.22,11.47,9.89,6.66,14.83,9.99,18.89,14.17,3.68,3.79,10.51,10.81,14.17,21.59,3.45,10.16,4.72,17.54,4.72,17.54,1.02,5.9.9,8.47,2.7,9.45Z"/>
  <path class="cls-8" d="M975.95,126.13c2.67-4.36-15.97-21.48-39.73-28.98-22.54-7.12-42.44-3.28-50.56-1.61-24.4,5-39.82,16.9-46.95,22.54-6.5,5.14-28.75,23.22-36.11,53.13-5.66,22.99-.9,46.33,3.61,46.69,3.58.29,4.62-14.08,16.25-37.03,8.67-17.11,17.27-34.1,36.11-46.69,20.35-13.6,42.68-15.42,52.37-16.1,37.73-2.65,62.13,12.75,65.01,8.05Z"/>
  <path class="cls-8" d="M794.27,244.47c0-2.85-12.48-4.98-17.71-5.64-7.23-.9-21.34-2.47-36.23,4.83-7.75,3.8-12.33,8.35-20.93,16.91-5.41,5.38-10.11,10.12-14.49,17.71-4.22,7.32-5.97,13.52-8.05,20.93-2.39,8.49-3.94,14.01-4.03,21.74-.06,5.2-.05,15.34,5.64,25.76,2.66,4.87,5.8,8.08,12.08,14.49,3.8,3.88,9.54,9.69,17.71,15.3,11.59,7.96,26.05,14.11,27.37,12.08.93-1.42-5.27-5.73-16.91-18.52-9.84-10.82-14.77-16.24-18.52-24.15-1.67-3.53-6.91-14.95-5.64-29.79,1.37-15.97,9.51-26.71,16.1-35.42,3.95-5.22,11.94-15.56,25.76-23.35,19.72-11.11,37.85-9.44,37.84-12.88Z"/>
  <g>
    <path class="cls-1" d="M685.88,457.95l14.34-53.54c.18-.67-.44-1.29-1.11-1.11l-53.54,14.35c-.67.18-.9,1.02-.41,1.51l13.9,13.9-68.45,68.45c-3.14,3.14-3.14,8.24,0,11.38s8.24,3.14,11.38,0l68.45-68.45,13.9,13.9c.49.49,1.33.27,1.52-.41Z"/>
    <path class="cls-1" d="M680.4,534.14l-53.54,14.34c-.67.18-1.29-.44-1.11-1.11l14.35-53.54c.18-.67,1.02-.9,1.51-.41l13.9,13.9,68.45-68.45c3.14-3.14,8.24-3.14,11.38,0,3.14,3.14,3.14,8.24,0,11.38l-68.45,68.45,13.9,13.9c.49.49.27,1.33-.41,1.52Z"/>
  </g>
  <g>
    <path class="cls-1" d="M987.09,760.27l48,27.71c.6.35.6,1.22,0,1.57l-48,27.71c-.6.35-1.36-.09-1.36-.78v-19.66h-96.8c-4.45,0-8.05-3.6-8.05-8.05s3.6-8.05,8.05-8.05h96.8v-19.66c0-.7.75-1.13,1.36-.78Z"/>
    <path class="cls-1" d="M929.33,710.27l-48,27.71c-.6.35-.6,1.22,0,1.57l48,27.71c.6.35,1.36-.09,1.36-.78v-19.66s96.8,0,96.8,0c4.45,0,8.05-3.6,8.05-8.05s-3.6-8.05-8.05-8.05h-96.8s0-19.66,0-19.66c0-.7-.75-1.13-1.36-.78Z"/>
  </g>
  <g>
    <path class="cls-1" d="M1201.7,436.37l-53.54-14.34c-.67-.18-1.29.44-1.11,1.11l14.35,53.54c.18.67,1.02.9,1.51.41l13.9-13.9,68.45,68.45c3.14,3.14,8.24,3.14,11.38,0s3.14-8.24,0-11.38l-68.45-68.45,13.9-13.9c.49-.49.27-1.33-.41-1.52Z"/>
    <path class="cls-1" d="M1277.9,441.86l14.34,53.54c.18.67-.44,1.29-1.11,1.11l-53.54-14.35c-.67-.18-.9-1.02-.41-1.51l13.9-13.9-68.45-68.45c-3.14-3.14-3.14-8.24,0-11.38,3.14-3.14,8.24-3.14,11.38,0l68.45,68.45,13.9-13.9c.49-.49,1.33-.27,1.52.41Z"/>
  </g>
</svg>