<?xml version="1.0" encoding="UTF-8"?>
<svg id="Layer_1" data-name="Layer 1" xmlns="http://www.w3.org/2000/svg" viewBox="0 0 500 500">
  <defs>
    <style>
      .cls-1 {
        fill: #bf2026;
      }

      .cls-2 {
        fill: #fff;
      }
    </style>
  </defs>
  <rect x="40.52" y="129.38" width="418.96" height="274.43" rx="9.39" ry="9.39"/>
  <rect class="cls-2" x="58.52" y="140.99" width="400.96" height="251.22" rx="9.39" ry="9.39"/>
  <path d="M152.56,176.84v10.09c6.67.69,12.38,2.06,17.15,4.11,4.76,2.06,8.92,5.17,12.47,9.34,2.8,3.18,4.97,6.45,6.49,9.81,1.53,3.36,2.29,6.45,2.29,9.25,0,3.12-1.14,5.81-3.41,8.08-2.27,2.27-5.03,3.41-8.27,3.41-6.11,0-10.06-3.3-11.87-9.9-2.06-7.79-7.01-12.96-14.86-15.51v38.87c7.72,2.12,13.88,4.05,18.46,5.79,4.58,1.75,8.67,4.27,12.29,7.57,3.86,3.43,6.84,7.52,8.92,12.29,2.09,4.77,3.13,9.98,3.13,15.65,0,7.1-1.67,13.75-5,19.95-3.33,6.2-8.24,11.26-14.72,15.18-6.48,3.92-14.17,6.26-23.08,7.01v23.27c0,3.68-.36,6.35-1.07,8.04-.72,1.68-2.29,2.52-4.72,2.52-2.24,0-3.82-.69-4.72-2.06-.9-1.37-1.36-3.49-1.36-6.35v-25.23c-7.29-.81-13.66-2.52-19.11-5.14-5.45-2.62-10-5.87-13.64-9.76-3.64-3.89-6.34-7.94-8.08-12.15-1.75-4.21-2.62-8.33-2.62-12.38,0-2.99,1.17-5.68,3.5-8.08,2.34-2.4,5.25-3.6,8.74-3.6,2.8,0,5.17.65,7.1,1.96,1.93,1.31,3.27,3.15,4.02,5.51,1.68,5.11,3.14,9.02,4.39,11.73,1.25,2.71,3.13,5.19,5.65,7.43,2.52,2.24,5.87,3.96,10.04,5.14v-43.45c-8.35-2.3-15.32-4.87-20.93-7.71-5.61-2.83-10.16-6.87-13.64-12.1-3.49-5.23-5.23-11.96-5.23-20.18,0-10.71,3.41-19.5,10.23-26.35,6.82-6.85,16.68-10.84,29.57-11.96v-9.9c0-5.23,1.96-7.85,5.89-7.85s5.98,2.56,5.98,7.66ZM140.7,240.94v-35.79c-5.23,1.56-9.31,3.61-12.24,6.17-2.93,2.56-4.39,6.42-4.39,11.59s1.37,8.64,4.11,11.17,6.92,4.81,12.52,6.87ZM152.56,268.7v40.93c6.29-1.25,11.15-3.77,14.58-7.57,3.43-3.8,5.14-8.22,5.14-13.27,0-5.42-1.67-9.61-5-12.57-3.33-2.96-8.24-5.47-14.72-7.52Z"/>
  <path class="cls-1" d="M158.83,181.4v10.09c6.67.69,12.38,2.06,17.15,4.11,4.76,2.06,8.92,5.17,12.47,9.34,2.8,3.18,4.97,6.45,6.49,9.81,1.53,3.36,2.29,6.45,2.29,9.25,0,3.12-1.14,5.81-3.41,8.08-2.27,2.27-5.03,3.41-8.27,3.41-6.11,0-10.06-3.3-11.87-9.9-2.06-7.79-7.01-12.96-14.86-15.51v38.87c7.72,2.12,13.88,4.05,18.46,5.79,4.58,1.75,8.67,4.27,12.29,7.57,3.86,3.43,6.84,7.52,8.92,12.29,2.09,4.77,3.13,9.98,3.13,15.65,0,7.1-1.67,13.75-5,19.95-3.33,6.2-8.24,11.26-14.72,15.18-6.48,3.92-14.17,6.26-23.08,7.01v23.27c0,3.68-.36,6.35-1.07,8.04-.72,1.68-2.29,2.52-4.72,2.52-2.24,0-3.82-.69-4.72-2.06-.9-1.37-1.36-3.49-1.36-6.35v-25.23c-7.29-.81-13.66-2.52-19.11-5.14-5.45-2.62-10-5.87-13.64-9.76-3.64-3.89-6.34-7.94-8.08-12.15-1.75-4.21-2.62-8.33-2.62-12.38,0-2.99,1.17-5.68,3.5-8.08,2.34-2.4,5.25-3.6,8.74-3.6,2.8,0,5.17.65,7.1,1.96,1.93,1.31,3.27,3.15,4.02,5.51,1.68,5.11,3.14,9.02,4.39,11.73,1.25,2.71,3.13,5.19,5.65,7.43,2.52,2.24,5.87,3.96,10.04,5.14v-43.45c-8.35-2.3-15.32-4.87-20.93-7.71-5.61-2.83-10.16-6.87-13.64-12.1-3.49-5.23-5.23-11.96-5.23-20.18,0-10.71,3.41-19.5,10.23-26.35,6.82-6.85,16.68-10.84,29.57-11.96v-9.9c0-5.23,1.96-7.85,5.89-7.85s5.98,2.56,5.98,7.66ZM146.96,245.51v-35.79c-5.23,1.56-9.31,3.61-12.24,6.17-2.93,2.56-4.39,6.42-4.39,11.59s1.37,8.64,4.11,11.17,6.92,4.81,12.52,6.87ZM158.83,273.26v40.93c6.29-1.25,11.15-3.77,14.58-7.57,3.43-3.8,5.14-8.22,5.14-13.27,0-5.42-1.67-9.61-5-12.57-3.33-2.96-8.24-5.47-14.72-7.52Z"/>
  <rect x="242.91" y="230.03" width="199.61" height="15.64" rx="7.54" ry="7.54"/>
  <rect x="242.91" y="273.46" width="199.61" height="15.64" rx="7.54" ry="7.54"/>
  <rect class="cls-1" x="250" y="233.85" width="192.52" height="15.08" rx="7.54" ry="7.54"/>
  <rect class="cls-1" x="250" y="277.28" width="192.52" height="15.08" rx="7.54" ry="7.54"/>
</svg>