<?xml version="1.0" encoding="UTF-8"?>
<svg id="Layer_1" data-name="Layer 1" xmlns="http://www.w3.org/2000/svg" viewBox="0 0 500 500">
  <defs>
    <style>
      .cls-1 {
        fill: #bf2026;
      }

      .cls-2 {
        fill: #fff;
      }
    </style>
  </defs>
  <rect x="279.17" y="78.06" width="181.71" height="326.66" rx="22.07" ry="22.07"/>
  <rect class="cls-2" x="286" y="84.95" width="178.43" height="320.77" rx="22.07" ry="22.07"/>
  <rect x="308.7" y="127.45" width="129.63" height="30.22" rx="14.48" ry="14.48"/>
  <rect x="308.7" y="179.02" width="129.63" height="30.22" rx="14.48" ry="14.48"/>
  <rect class="cls-1" x="313.11" y="130.71" width="124.22" height="28.96" rx="14.48" ry="14.48"/>
  <rect class="cls-1" x="313.11" y="183.23" width="124.22" height="28.96" rx="14.48" ry="14.48"/>
  <g>
    <polygon points="251.2 379.4 193.47 379.4 198.61 319.48 246.06 319.48 251.2 379.4"/>
    <rect x="130.25" y="374.15" width="184.18" height="27.57" rx="13.41" ry="13.41"/>
    <rect x="63.89" y="152.48" width="316.89" height="194.5" rx="24.42" ry="24.42"/>
  </g>
  <circle cx="375.22" cy="353.98" r="23.72"/>
  <circle class="cls-1" cx="376.92" cy="353.98" r="21.1"/>
  <g>
    <rect class="cls-2" x="138.48" y="378.89" width="179.22" height="26.82" rx="13.41" ry="13.41"/>
    <polygon class="cls-2" points="256.17 384 200 384 205 325.7 251.17 325.7 256.17 384"/>
    <rect class="cls-2" x="73.91" y="163.2" width="308.35" height="189.26" rx="24.42" ry="24.42"/>
  </g>
  <rect class="cls-1" x="91.91" y="179.91" width="269.22" height="155.84" rx="12.63" ry="12.63"/>
</svg>