<?xml version="1.0" encoding="UTF-8"?>
<svg id="Layer_1" data-name="Layer 1" xmlns="http://www.w3.org/2000/svg" viewBox="0 0 500 500">
  <defs>
    <style>
      .cls-1 {
        fill: #fff;
      }
    </style>
  </defs>
  <g>
    <path d="M299.48,177.57h-1.29c-23.02,0-41.67,18.66-41.67,41.67v114.75s84.63,0,84.63,0v-114.75c0-23.02-18.66-41.67-41.67-41.67Z"/>
    <circle cx="298.84" cy="125.22" r="42.04"/>
    <path d="M271.65,462.91h-.45c-8.1,0-14.67-6.57-14.67-14.67v-120.6s29.8,0,29.8,0v120.6c0,8.1-6.57,14.67-14.67,14.67Z"/>
    <path d="M326.48,462.91h-.45c-8.1,0-14.67-6.57-14.67-14.67v-120.6s29.8,0,29.8,0v120.6c0,8.1-6.57,14.67-14.67,14.67Z"/>
    <path d="M404.47,329.63l-.38.25c-6.75,4.49-15.86,2.66-20.35-4.09l-75.94-114.1,24.81-16.51,75.94,114.1c4.49,6.75,2.66,15.86-4.09,20.35Z"/>
    <path d="M193.08,329.63l.38.25c6.75,4.49,15.86,2.66,20.35-4.09l75.94-114.1-24.81-16.51-75.94,114.1c-4.49,6.75-2.66,15.86,4.09,20.35Z"/>
  </g>
  <g>
    <path class="cls-1" d="M305.37,177.91h0c-23.02,0-41.67,18.66-41.67,41.67v112.37h83.35v-112.37c0-23.02-18.66-41.67-41.67-41.67Z"/>
    <circle class="cls-1" cx="305.37" cy="126.35" r="41.41"/>
    <path class="cls-1" d="M278.37,458.91h0c-8.1,0-14.67-6.57-14.67-14.67v-118.54h29.35v118.54c0,8.1-6.57,14.67-14.67,14.67Z"/>
    <path class="cls-1" d="M332.37,458.91h0c-8.1,0-14.67-6.57-14.67-14.67v-118.54s29.35,0,29.35,0v118.54c0,8.1-6.57,14.67-14.67,14.67Z"/>
    <path class="cls-1" d="M409.21,327.78h0c-6.75,4.49-15.86,2.66-20.35-4.09l-74.66-112.18,24.43-16.26,74.66,112.18c4.49,6.75,2.66,15.86-4.09,20.35Z"/>
    <path class="cls-1" d="M201.4,327.78h0c6.75,4.49,15.86,2.66,20.35-4.09l74.66-112.18-24.43-16.26-74.66,112.18c-4.49,6.75-2.66,15.86,4.09,20.35Z"/>
  </g>
  <path d="M165.13,78.57l21.45,44.36c.53,1.09,1.74,1.68,2.93,1.41l48.06-10.88c2.13-.48,3.88,1.71,2.93,3.68l-21.31,44.43c-.53,1.1-.23,2.41.72,3.17l38.47,30.79c1.71,1.37,1.08,4.1-1.05,4.59l-48.02,11.05c-1.19.27-2.03,1.33-2.03,2.54l-.08,49.28c0,2.19-2.53,3.4-4.24,2.04l-38.58-30.66c-.95-.76-2.3-.76-3.25,0l-38.58,30.66c-1.71,1.36-4.24.14-4.24-2.04l-.08-49.28c0-1.22-.84-2.27-2.03-2.54l-48.02-11.05c-2.13-.49-2.75-3.22-1.05-4.59l38.47-30.79c.95-.76,1.25-2.07.72-3.17l-21.31-44.43c-.94-1.97.8-4.16,2.93-3.68l48.06,10.88c1.19.27,2.4-.32,2.93-1.41l21.45-44.36c.95-1.97,3.75-1.97,4.71,0Z"/>
  <path class="cls-1" d="M174.23,83.93l20.34,42.05c.53,1.09,1.74,1.68,2.93,1.41l45.56-10.32c2.13-.48,3.88,1.71,2.93,3.68l-20.2,42.12c-.53,1.1-.23,2.41.72,3.17l36.47,29.18c1.71,1.37,1.08,4.1-1.05,4.59l-45.52,10.47c-1.19.27-2.03,1.33-2.03,2.54l-.08,46.71c0,2.19-2.53,3.4-4.24,2.04l-36.57-29.06c-.95-.76-2.3-.76-3.25,0l-36.57,29.06c-1.71,1.36-4.24.14-4.24-2.04l-.08-46.71c0-1.22-.84-2.27-2.03-2.54l-45.52-10.47c-2.13-.49-2.75-3.22-1.05-4.59l36.47-29.18c.95-.76,1.25-2.07.72-3.17l-20.2-42.12c-.94-1.97.8-4.16,2.93-3.68l45.56,10.32c1.19.27,2.4-.32,2.93-1.41l20.34-42.05c.95-1.97,3.75-1.97,4.71,0Z"/>
</svg>