<?xml version="1.0" encoding="UTF-8"?>
<svg id="Layer_1" data-name="Layer 1" xmlns="http://www.w3.org/2000/svg" viewBox="0 0 500 500">
  <defs>
    <style>
      .cls-1 {
        fill: #fff;
      }
    </style>
  </defs>
  <g>
    <rect x="137.3" y="218.56" width="221.61" height="63.16"/>
    <rect x="216.53" y="142.35" width="63.16" height="221.61"/>
    <path d="M243.65,31.94l-59.69,103.39c-1.98,3.43.49,7.71,4.45,7.71h119.39c3.96,0,6.43-4.29,4.45-7.71l-59.69-103.39c-1.98-3.43-6.93-3.43-8.91,0Z"/>
    <path d="M29.13,254.59l103.39,59.69c3.43,1.98,7.71-.49,7.71-4.45v-119.39c0-3.96-4.29-6.43-7.71-4.45l-103.39,59.69c-3.43,1.98-3.43,6.93,0,8.91Z"/>
    <path d="M470.02,245.69l-103.39-59.69c-3.43-1.98-7.71.49-7.71,4.45v119.39c0,3.96,4.29,6.43,7.71,4.45l103.39-59.69c3.43-1.98,3.43-6.93,0-8.91Z"/>
    <path d="M252.56,472l59.69-103.39c1.98-3.43-.49-7.71-4.45-7.71h-119.39c-3.96,0-6.43,4.29-4.45,7.71l59.69,103.39c1.98,3.43,6.93,3.43,8.91,0Z"/>
  </g>
  <g>
    <rect class="cls-1" x="230.31" y="139.02" width="59.52" height="208.83" transform="translate(16.63 503.5) rotate(-90)"/>
    <rect class="cls-1" x="230.31" y="141.86" width="59.52" height="208.83" transform="translate(520.13 492.56) rotate(180)"/>
    <path class="cls-1" d="M255.61,38.26l-55.74,96.54c-1.98,3.43.49,7.71,4.45,7.71h111.48c3.96,0,6.43-4.29,4.45-7.71l-55.74-96.54c-1.98-3.43-6.93-3.43-8.91,0Z"/>
    <path class="cls-1" d="M54.16,247.89l96.54,55.74c3.43,1.98,7.71-.49,7.71-4.45v-111.48c0-3.96-4.29-6.43-7.71-4.45l-96.54,55.74c-3.43,1.98-3.43,6.93,0,8.91Z"/>
    <path class="cls-1" d="M468.74,238.98l-96.54-55.74c-3.43-1.98-7.71.49-7.71,4.45v111.48c0,3.96,4.29,6.43,7.71,4.45l96.54-55.74c3.43-1.98,3.43-6.93,0-8.91Z"/>
    <path class="cls-1" d="M264.52,452.06l55.74-96.54c1.98-3.43-.49-7.71-4.45-7.71h-111.48c-3.96,0-6.43,4.29-4.45,7.71l55.74,96.54c1.98,3.43,6.93,3.43,8.91,0Z"/>
  </g>
</svg>