<?xml version="1.0" encoding="UTF-8"?>
<svg id="Layer_1" data-name="Layer 1" xmlns="http://www.w3.org/2000/svg" viewBox="0 0 500 500">
  <defs>
    <style>
      .cls-1 {
        fill: #bf2026;
      }

      .cls-2 {
        fill: #fff;
      }
    </style>
  </defs>
  <path d="M281.32,462.39h-62.65c-65.46,0-118.53-53.07-118.53-118.53v-116.14c0-7.77,6.3-14.07,14.07-14.07h271.58c7.77,0,14.07,6.3,14.07,14.07v116.14c0,65.46-53.07,118.53-118.53,118.53Z"/>
  <path class="cls-2" d="M281.32,461.61h-51.78c-65.46,0-118.53-53.07-118.53-118.53v-100.42c0-7.77,6.3-14.07,14.07-14.07h260.71c7.77,0,14.07,6.3,14.07,14.07v100.42c0,65.46-53.07,118.53-118.53,118.53Z"/>
  <path d="M207.98,15.01h0c-60.03,10.57-100.13,67.8-89.56,127.83l12.19,69.22c1.24,7.03,7.93,11.72,14.96,10.48h0c7.03-1.24,11.72-7.93,10.48-14.96l-11.79-67c-8.09-45.98,22.62-89.81,68.6-97.91h0c45.98-8.09,86.52,3.9,94.61,49.88l3.82,21.69c1.24,7.03,7.93,11.72,14.96,10.48h0c7.03-1.24,11.72-7.93,10.48-14.96l-4.21-23.92c-10.57-60.03-64.5-81.41-124.53-70.85Z"/>
  <path class="cls-2" d="M215.64,19.48h0c-58.01,10.21-96.76,65.52-86.55,123.53l11.91,67.65c1.2,6.79,7.67,11.32,14.46,10.13h0c6.79-1.2,11.32-7.67,10.13-14.46l-11.53-65.51c-7.82-44.43,21.86-86.8,66.29-94.62h0c44.43-7.82,83.5,3.14,91.32,47.58l3.56,20.2c1.2,6.79,7.67,11.32,14.46,10.13h0c6.79-1.2,11.32-7.67,10.13-14.46l-3.93-22.35c-10.21-58.01-62.23-78.05-120.24-67.84Z"/>
  <g>
    <circle cx="258.04" cy="313.45" r="23.19"/>
    <rect x="248.27" y="313.45" width="19.53" height="78.94" rx="9.39" ry="9.39"/>
  </g>
  <g>
    <circle class="cls-1" cx="261.32" cy="314.48" r="22.3"/>
    <rect class="cls-1" x="251.93" y="314.48" width="18.78" height="75.91" rx="9.39" ry="9.39"/>
  </g>
</svg>