<?xml version="1.0" encoding="UTF-8"?>
<svg id="Layer_1" data-name="Layer 1" xmlns="http://www.w3.org/2000/svg" viewBox="0 0 500 500">
  <defs>
    <style>
      .cls-1 {
        fill: #fff;
      }
    </style>
  </defs>
  <path d="M376.38,341.04c45.85,0,83.38-27,86.4-61.17.21-2.42-2.36-4.46-5.56-4.46h-161.68c-3.2,0-5.78,2.04-5.56,4.46,3.03,34.17,40.55,61.17,86.4,61.17Z"/>
  <path class="cls-1" d="M380.09,337.87c43.71,0,79.48-24.39,82.37-55.26.2-2.19-2.25-4.03-5.3-4.03h-154.12c-3.05,0-5.51,1.84-5.3,4.03,2.88,30.86,38.66,55.26,82.37,55.26Z"/>
  <g>
    <rect x="236.17" y="152.29" width="25.11" height="272.17"/>
    <rect x="115.98" y="115.48" width="265.48" height="21.01" rx="8.12" ry="8.12"/>
    <rect x="115.98" y="403.72" width="265.48" height="23.18" rx="8.96" ry="8.96"/>
    <circle cx="248.82" cy="125.98" r="37.42"/>
  </g>
  <g>
    <rect class="cls-1" x="248.16" y="151.39" width="24.5" height="265.55"/>
    <rect class="cls-1" x="250.17" y="-3.79" width="20.5" height="259.03" rx="8.12" ry="8.12" transform="translate(134.69 386.14) rotate(-90)"/>
    <rect class="cls-1" x="249.11" y="278.51" width="22.62" height="259.03" rx="8.96" ry="8.96" transform="translate(-147.61 668.44) rotate(-90)"/>
    <circle class="cls-1" cx="260.51" cy="125.72" r="36.51"/>
  </g>
  <path d="M451.21,271.39l-74.83-127.67-74.83,127.67c-.93,1.59-3.38.93-3.38-.92h0c0-.32.09-.64.25-.92l75.75-129.23c.99-1.69,3.44-1.69,4.43,0l75.75,129.23c.16.28.25.59.25.92h0c0,1.85-2.44,2.51-3.38.92Z"/>
  <path class="cls-1" d="M451.06,270.16l-72.16-123.11-72.16,123.11c-.9,1.54-3.25.9-3.25-.88h0c0-.31.08-.62.24-.88l73.04-124.61c.96-1.63,3.32-1.63,4.27,0l73.04,124.61c.16.27.24.57.24.88h0c0,1.78-2.35,2.42-3.25.88Z"/>
  <path d="M135.68,341.04c45.85,0,83.38-27,86.4-61.17.21-2.42-2.36-4.46-5.56-4.46H54.84c-3.2,0-5.78,2.04-5.56,4.46,3.03,34.17,40.55,61.17,86.4,61.17Z"/>
  <path class="cls-1" d="M140.75,337.87c43.71,0,79.48-24.39,82.37-55.26.2-2.19-2.25-4.03-5.3-4.03H63.69c-3.05,0-5.51,1.84-5.3,4.03,2.88,30.86,38.66,55.26,82.37,55.26Z"/>
  <path d="M211.99,271.39l-74.83-127.67-74.83,127.67c-.93,1.59-3.38.93-3.38-.92h0c0-.32.09-.64.25-.92l75.75-129.23c.99-1.69,3.44-1.69,4.43,0l75.75,129.23c.16.28.25.59.25.92h0c0,1.85-2.44,2.51-3.38.92Z"/>
  <path class="cls-1" d="M211.72,270.16l-72.16-123.11-72.16,123.11c-.9,1.54-3.25.9-3.25-.88h0c0-.31.08-.62.24-.88l73.04-124.61c.96-1.63,3.32-1.63,4.27,0l73.04,124.61c.16.27.24.57.24.88h0c0,1.78-2.35,2.42-3.25.88Z"/>
</svg>