<?xml version="1.0" encoding="UTF-8"?>
<svg id="Layer_1" data-name="Layer 1" xmlns="http://www.w3.org/2000/svg" viewBox="0 0 500 500">
  <defs>
    <style>
      .cls-1 {
        fill: #fff;
      }
    </style>
  </defs>
  <path d="M430.43,363.7l-72.71-72.72c-9.09-9.09-23.82-9.09-32.9,0l-37.96,37.96c-42.66-29-79.1-65.14-108.48-107.48l38.45-38.45c9.09-9.09,9.09-23.82,0-32.9l-72.72-72.72c-9.09-9.09-23.82-9.09-32.9,0l-44.13,44.13c-24.87,24.87-24.87,65.19,0,90.06l60.59,60.59h0s107.98,107.98,107.98,107.98h0s60.59,60.59,60.59,60.59c24.87,24.87,65.19,24.87,90.06,0l44.13-44.13c9.09-9.09,9.09-23.82,0-32.9Z"/>
  <path class="cls-1" d="M427.89,355.24l-70.59-70.59c-8.82-8.82-23.12-8.82-31.94,0l-36.85,36.85c-41.42-28.16-76.79-63.24-105.31-104.35l37.33-37.33c8.82-8.82,8.82-23.12,0-31.94l-70.59-70.59c-8.82-8.82-23.12-8.82-31.94,0l-42.85,42.85c-24.14,24.14-24.14,63.29,0,87.44l58.82,58.82h0s104.83,104.83,104.83,104.83h0s58.82,58.82,58.82,58.82c24.14,24.14,63.29,24.14,87.44,0l42.85-42.85c8.82-8.82,8.82-23.12,0-31.94Z"/>
  <circle cx="271.9" cy="233.31" r="29.31" transform="translate(-85.34 260.6) rotate(-45)"/>
  <circle class="cls-1" cx="274.58" cy="235.99" r="27.92" transform="translate(-86.45 263.28) rotate(-45)"/>
  <path d="M340.84,210.64c-.6-2.45-1.75-7.07-4.34-12.55-.92-1.94-3.94-8.04-9.77-14.6-2.5-2.81-7.31-7.73-14.6-12.18-2.26-1.38-7.14-4.18-13.87-6.39-3.78-1.24-7.03-1.79-13.51-2.89-1.58-.27-4.27-.7-7.6-.12-1.39.24-2.79.5-4.34,1.45-2.48,1.52-3.63,3.76-4.22,4.95-.38.76-1.12,2.29-1.33,4.46-.25,2.64.45,4.7.84,5.67.42,1.02,1.33,3.17,3.62,4.82,1.64,1.19,3.24,1.54,4.46,1.81,1.71.38,2.46.24,4.95.36.97.05,3.59.18,6.51.72,3.86.71,6.54,1.81,7.12,2.05.52.22,2.3.97,4.46,2.29,3.56,2.16,5.87,4.43,7.48,6.03,1.08,1.08,2.81,2.81,4.7,5.43,2.42,3.35,3.74,6.26,4.22,7.36,1.37,3.15,1.97,5.71,2.29,7.12.47,2.03.86,3.72.96,6.03.05.99.04,2.07.24,3.86.16,1.47.26,2.25.6,3.26.14.4.64,1.78,1.81,3.26.52.66,1.73,2.14,3.86,3.14,1.83.85,3.42.92,4.58.96,2.2.09,3.85-.35,4.34-.48,1.19-.33,3.63-1.02,5.55-3.14,1.73-1.9,2.15-3.99,2.53-5.91.16-.81.55-2.99-.12-8.56-.23-1.9-.55-4.53-1.45-8.2Z"/>
  <path class="cls-1" d="M343.17,212.43c-.57-2.35-1.68-6.78-4.16-12.03-.88-1.86-3.77-7.71-9.37-14-2.39-2.69-7.01-7.41-14-11.68-2.17-1.33-6.84-4.01-13.3-6.13-3.63-1.19-6.74-1.72-12.95-2.78-1.52-.26-4.09-.67-7.29-.12-1.33.23-2.68.48-4.16,1.39-2.38,1.46-3.48,3.61-4.05,4.74-.36.73-1.08,2.2-1.27,4.28-.24,2.53.43,4.51.81,5.44.4.98,1.28,3.04,3.47,4.63,1.57,1.14,3.11,1.47,4.28,1.73,1.64.36,2.35.23,4.74.35.93.05,3.44.18,6.25.69,3.71.68,6.28,1.74,6.82,1.97.5.21,2.2.93,4.28,2.2,3.41,2.07,5.63,4.25,7.17,5.78,1.04,1.03,2.7,2.7,4.51,5.21,2.32,3.21,3.59,6,4.05,7.06,1.31,3.02,1.89,5.47,2.2,6.82.45,1.94.82,3.57.93,5.78.04.95.04,1.98.23,3.7.16,1.41.25,2.15.58,3.12.13.38.61,1.71,1.74,3.12.5.63,1.66,2.05,3.7,3.01,1.75.82,3.28.88,4.4.93,2.1.09,3.7-.33,4.16-.46,1.14-.32,3.48-.98,5.32-3.01,1.66-1.83,2.06-3.82,2.43-5.67.16-.78.52-2.87-.12-8.21-.22-1.82-.53-4.34-1.39-7.87Z"/>
  <path d="M391.83,218.55c-.6-5.33-.21-4.62-.71-8.53-.56-4.37-1.34-7.59-2.01-10.3-1.24-5.04-2.49-8.62-4.15-13.38-1.69-4.86-2.54-7.3-3.79-9.95-1.64-3.47-3.18-5.91-6.28-10.78-2.51-3.95-4.01-6.31-6.4-9.47-3.64-4.82-6.99-8.39-9.12-10.54-1.47-1.48-4.65-4.61-9.12-8.17-4.08-3.26-7.36-5.39-9.83-6.99-3.82-2.47-7.65-4.95-13.15-7.46-3.32-1.52-6.03-2.49-8.65-3.43-5.21-1.88-9.19-2.96-10.07-3.2-1.26-.34-5.28-1.4-10.66-2.37-3.57-.64-5.96-1.07-9.36-1.3-3.91-.27-3.67.1-7.82-.24-1.79-.14-2.76-.29-4.26,0-2.68.51-4.43,1.9-4.86,2.25-1.68,1.39-2.47,2.92-2.96,3.91-.44.88-1.15,2.34-1.3,4.38-.13,1.81.24,3.19.47,4.03.34,1.19.93,3.22,2.72,5.09,1.97,2.06,4.23,2.72,5.09,2.96,1.33.37,1.88.27,5.33.36,1.09.03,4.48.11,7.22.36,2.75.25,4.7.65,7.34,1.18,4.17.85,7.27,1.78,9.24,2.37,2.89.87,5.77,1.74,9.47,3.32,3.16,1.35,5.44,2.58,7.46,3.67,2.05,1.11,4.52,2.45,7.58,4.5,1.65,1.1,4.67,3.22,8.17,6.28,3.74,3.27,6.26,6.08,7.82,7.82.86.96,2.91,3.29,5.33,6.51,1.43,1.89,3.57,4.76,5.92,8.76,1.78,3.03,2.82,5.25,4.86,9.59,1.61,3.43,2.43,5.2,3.32,7.82.87,2.58,1.38,4.69,1.89,6.87.47,1.97.98,4.16,1.42,7.11.46,3.12.62,5.64.71,7.11.15,2.54.23,3.81.24,5.21,0,1.62-.06,2.14.12,3.2.08.52.39,2.16,1.42,4.03.49.89,1.2,2.14,2.61,3.32.56.46,2.14,1.68,4.5,2.13,1.36.26,2.45.14,4.62-.12,2.08-.24,3.11-.36,4.15-.83,2.5-1.13,3.78-3.22,4.26-4.03,1.08-1.81,1.33-3.45,1.54-4.86.4-2.75.06-4.44-.36-8.17Z"/>
  <path class="cls-1" d="M394.07,219.84c-.58-5.21-.2-4.51-.69-8.33-.55-4.26-1.31-7.41-1.97-10.06-1.21-4.92-2.43-8.42-4.05-13.07-1.65-4.75-2.48-7.13-3.7-9.72-1.6-3.39-3.11-5.77-6.13-10.53-2.45-3.86-3.91-6.16-6.25-9.25-3.55-4.71-6.83-8.2-8.91-10.29-1.44-1.45-4.55-4.5-8.91-7.98-3.98-3.18-7.19-5.26-9.6-6.82-3.73-2.41-7.47-4.83-12.84-7.29-3.24-1.48-5.89-2.43-8.44-3.35-5.09-1.83-8.97-2.89-9.83-3.12-1.23-.33-5.15-1.37-10.41-2.31-3.49-.63-5.82-1.04-9.14-1.27-3.82-.26-3.59.09-7.63-.23-1.75-.14-2.7-.28-4.16,0-2.62.5-4.32,1.85-4.74,2.2-1.64,1.35-2.41,2.85-2.89,3.82-.43.86-1.12,2.28-1.27,4.28-.13,1.77.23,3.12.46,3.93.33,1.16.91,3.15,2.66,4.97,1.92,2.01,4.13,2.66,4.97,2.89,1.3.36,1.83.26,5.21.35,1.07.03,4.38.11,7.06.35,2.69.24,4.59.63,7.17,1.16,4.08.83,7.1,1.74,9.02,2.31,2.82.85,5.63,1.7,9.25,3.24,3.09,1.31,5.32,2.52,7.29,3.59,2.01,1.08,4.41,2.39,7.4,4.4,1.61,1.08,4.56,3.14,7.98,6.13,3.66,3.2,6.12,5.94,7.63,7.63.84.94,2.84,3.22,5.2,6.36,1.39,1.85,3.48,4.65,5.78,8.56,1.74,2.96,2.75,5.13,4.74,9.37,1.57,3.35,2.37,5.08,3.24,7.63.85,2.52,1.34,4.58,1.85,6.71.46,1.92.96,4.06,1.39,6.94.45,3.05.61,5.51.69,6.94.15,2.48.23,3.72.23,5.09,0,1.59-.05,2.09.12,3.12.08.5.38,2.1,1.39,3.93.48.87,1.17,2.09,2.54,3.24.54.45,2.09,1.64,4.4,2.08,1.33.26,2.39.13,4.51-.12,2.03-.24,3.04-.36,4.05-.81,2.44-1.1,3.7-3.15,4.16-3.93,1.05-1.77,1.3-3.37,1.5-4.74.39-2.69.06-4.34-.35-7.98Z"/>
  <path d="M331.41,68.89c-3.03-1.18-3.93-1.62-6.1-2.27-1.95-.59-3.08-.79-6.22-1.44-7.03-1.45-6.18-1.41-10.65-2.27-4.23-.82-7.53-1.34-8.97-1.56-3.64-.56-6.53-1-10.41-1.32-4.92-.4-4.57.08-8.01-.36-2.51-.32-4.07-.72-6.58-.36-2.13.31-3.52.97-4.19,1.32-.82.43-2.04,1.08-3.11,2.39-.83,1.02-1.19,2.11-1.91,4.31-.67,2.03-1.01,3.04-.96,4.07.06,1.15.48,2.16,1.32,4.19.57,1.38.86,2.07,1.32,2.75.31.47,1.57,2.24,3.83,3.35,1.17.57,2.11.72,5.5.96,3.34.23,5.89.32,6.82.36,4.24.16,6.35.24,8.37.48,2.56.3,2.5.47,8.13,1.44,4.88.84,4.57.65,7.42,1.2,1.52.29,5.19,1.03,9.81,2.39,3.03.89,5.24,1.69,7.18,2.39,2.49.9,5.89,2.15,10.05,4.07,1.55.72,4.14,2.07,9.33,4.78,3.57,1.87,5.36,2.8,6.1,3.23,4.66,2.69,8.02,5.22,10.29,6.94,2.17,1.65,3.65,2.89,6.34,5.14,1.08.91,3.82,3.22,7.42,6.46,4.11,3.7,6.16,5.55,8.61,8.13.74.78,3.18,3.38,6.1,7.06,3.73,4.71,6.17,8.57,7.77,11.12.6.96,2.47,3.96,4.66,8.01,2.2,4.06,3.69,7.24,4.55,9.09.91,1.96,1.86,4,2.99,6.82,1.27,3.15,2.1,5.61,2.75,7.54.65,1.92,1.42,4.21,2.27,7.3.98,3.54,1.56,6.27,2.03,8.49.6,2.83.95,4.87,1.44,7.66.58,3.34.87,5.06,1.08,7.06.13,1.31.21,2.91.36,6.1.2,4.22.3,6.32.24,7.18-.13,1.84-.35,2.75,0,4.31.37,1.64,1.11,2.79,1.55,3.47.26.4,1.44,2.15,3.71,3.71,1.27.87,2.93,2.01,5.38,2.27,3.35.36,5.88-1.17,6.7-1.67,1.53-.95,2.47-2.06,3.35-3.11,1.05-1.24,1.74-2.07,2.15-3.35.48-1.48.16-2.29.12-4.66-.03-2.28.23-3.53.36-4.9.43-4.63-1.1-10.27-1.32-13.76q-.59-9.42-2.03-16.63c-1-4.97-2.82-9.78-6.46-19.38-3.43-9.05-5.15-13.57-8.25-19.5-2.65-5.05-5.07-8.83-7.78-13.04-3.89-6.05-7.24-10.65-9.21-13.28-2.61-3.48-4.57-6.09-7.54-9.45-3.54-4-6.4-6.67-10.17-10.17-4.4-4.08-8.07-7.49-13.52-11.6-1.92-1.45-7.11-5.29-14.23-9.45-2.37-1.38-5.69-3.11-12.32-6.58-5.16-2.69-6.48-3.31-8.01-3.95-3.41-1.42-3.78-1.26-9.45-3.47Z"/>
  <path class="cls-1" d="M337.39,75.72c-2.93-1.14-3.8-1.57-5.9-2.2-1.88-.57-2.98-.76-6.01-1.39-6.8-1.4-5.98-1.37-10.29-2.2-4.09-.79-7.28-1.29-8.68-1.5-3.52-.54-6.32-.97-10.06-1.27-4.76-.39-4.41.08-7.75-.35-2.42-.31-3.94-.7-6.36-.35-2.06.3-3.41.93-4.05,1.27-.79.42-1.98,1.04-3.01,2.31-.8.98-1.15,2.04-1.85,4.16-.65,1.96-.97,2.94-.93,3.93.05,1.11.46,2.09,1.27,4.05.55,1.33.83,2,1.27,2.66.3.45,1.52,2.17,3.7,3.24,1.13.55,2.04.7,5.32.93,3.23.22,5.7.31,6.59.35,4.1.16,6.14.23,8.1.46,2.48.29,2.42.45,7.87,1.39,4.72.81,4.42.63,7.17,1.16,1.47.28,5.02,1,9.48,2.31,2.93.86,5.07,1.64,6.94,2.31,2.41.87,5.7,2.07,9.72,3.93,1.5.69,4.01,2,9.02,4.63,3.45,1.81,5.18,2.71,5.9,3.12,4.51,2.6,7.75,5.04,9.95,6.71,2.1,1.59,3.53,2.79,6.13,4.97,1.05.88,3.7,3.12,7.17,6.25,3.97,3.58,5.96,5.37,8.33,7.87.72.75,3.08,3.27,5.9,6.82,3.61,4.55,5.97,8.29,7.52,10.76.58.93,2.38,3.83,4.51,7.75,2.13,3.92,3.57,7.01,4.4,8.79.88,1.9,1.8,3.87,2.89,6.59,1.23,3.05,2.03,5.42,2.66,7.29.63,1.85,1.37,4.07,2.2,7.06.95,3.43,1.51,6.06,1.97,8.21.58,2.74.92,4.71,1.39,7.4.56,3.23.85,4.89,1.04,6.82.13,1.27.2,2.81.35,5.9.19,4.08.29,6.12.23,6.94-.12,1.77-.34,2.66,0,4.16.36,1.58,1.07,2.7,1.5,3.35.26.39,1.39,2.08,3.59,3.59,1.23.84,2.84,1.94,5.2,2.2,3.24.35,5.69-1.13,6.48-1.62,1.48-.92,2.39-2,3.24-3.01,1.01-1.2,1.69-2,2.08-3.24.46-1.44.15-2.22.12-4.51-.03-2.2.22-3.41.35-4.74.42-4.48-1.06-9.93-1.27-13.3q-.57-9.11-1.97-16.08c-.96-4.81-2.72-9.45-6.25-18.74-3.32-8.75-4.98-13.12-7.98-18.85-2.56-4.88-4.9-8.54-7.52-12.61-3.76-5.85-7-10.3-8.91-12.84-2.52-3.37-4.42-5.89-7.29-9.14-3.42-3.87-6.18-6.45-9.83-9.83-4.25-3.95-7.81-7.24-13.07-11.22-1.85-1.4-6.87-5.11-13.76-9.14-2.29-1.34-5.5-3.01-11.91-6.36-4.99-2.6-6.27-3.2-7.75-3.82-3.3-1.37-3.66-1.22-9.14-3.35Z"/>
</svg>