<?xml version="1.0" encoding="UTF-8"?>
<svg id="Layer_1" data-name="Layer 1" xmlns="http://www.w3.org/2000/svg" viewBox="0 0 500 500">
  <defs>
    <style>
      .cls-1 {
        fill: #fff;
      }
    </style>
  </defs>
  <path d="M250.34,464.78l67.6-70.08c59.06-61.23,92.03-143,91.97-228.08l-.05-64.28c0-2.35-1.54-4.42-3.8-5.1l-159.1-47.77c-1.01-.3-2.09-.3-3.1.01l-155.17,47.74c-2.24.69-3.76,2.75-3.76,5.09l-.02,65.5c-.03,84.36,32.43,165.49,90.64,226.56l67.1,70.38c2.09,2.19,5.59,2.2,7.69.02Z"/>
  <path class="cls-1" d="M260.26,459.62l58.64-60.8c59.06-61.23,92.03-143,91.97-228.08l-.04-53.29c0-2.35-1.54-4.42-3.8-5.1l-150.1-45.07c-1.01-.3-2.09-.3-3.1.01l-146.38,45.04c-2.24.69-3.76,2.75-3.76,5.09l-.02,54.51c-.03,84.36,32.43,165.49,90.64,226.56l58.25,61.1c2.09,2.19,5.59,2.2,7.69.02Z"/>
</svg>