<?xml version="1.0" encoding="UTF-8"?>
<svg id="Layer_1" data-name="Layer 1" xmlns="http://www.w3.org/2000/svg" viewBox="0 0 500 500">
  <defs>
    <style>
      .cls-1 {
        fill: #bf2026;
      }

      .cls-2 {
        fill: #fff;
      }
    </style>
  </defs>
  <g>
    <rect x="59.11" y="142.13" width="360.97" height="226.61" rx="100.27" ry="100.27"/>
    <rect x="270.83" y="331.61" width="70.38" height="90.72" rx="11.35" ry="11.35"/>
    <rect x="119.09" y="331.61" width="70.38" height="90.72" rx="11.35" ry="11.35"/>
    <path d="M375.99,114.06c-20.14-9.27-43.98-.46-53.25,19.68-9.27,20.14-.46,43.98,19.68,53.25l33.57-72.93Z"/>
    <path d="M93.7,182.12c-7.59-4.78-16.26,5.3-24.39,1.1-11.18-5.78-11.82-33.65-3.36-37.93,6.85-3.46,18.09,9.34,21.93,5.88,2.28-2.05.45-8.44-2.55-12.44-5.4-7.2-16.02-8.56-23.43-6.87-16.23,3.7-22.04,23.14-22.59,25.1-4.98,17.6,3,38.08,18.34,47.82,12.28,7.79,32.68,10.86,39.64,1.22,4.91-6.8,2.99-19.73-3.59-23.88Z"/>
  </g>
  <rect class="cls-2" x="379" y="226.47" width="68.04" height="81.62" rx="12.13" ry="12.13"/>
  <g>
    <rect class="cls-2" x="73.23" y="150.04" width="351.86" height="220.89" rx="100.27" ry="100.27"/>
    <rect class="cls-2" x="279.61" y="334.74" width="68.6" height="88.43" rx="11.35" ry="11.35"/>
    <rect class="cls-2" x="131.7" y="334.74" width="68.6" height="88.43" rx="11.35" ry="11.35"/>
    <path class="cls-2" d="M382.11,122.68c-19.63-9.04-42.87-.45-51.91,19.18-9.04,19.63-.45,42.87,19.18,51.91l32.72-71.09Z"/>
    <path class="cls-2" d="M106.94,189.02c-7.39-4.66-15.85,5.17-23.78,1.08-10.9-5.63-11.52-32.8-3.27-36.97,6.68-3.38,17.63,9.11,21.38,5.73,2.22-2,.44-8.22-2.48-12.12-5.26-7.01-15.62-8.34-22.84-6.69-15.82,3.6-21.48,22.56-22.02,24.46-4.85,17.16,2.92,37.12,17.87,46.61,11.97,7.6,31.85,10.59,38.64,1.19,4.79-6.63,2.92-19.24-3.5-23.28Z"/>
  </g>
  <circle cx="371.1" cy="216.76" r="11.01"/>
  <circle class="cls-1" cx="373.11" cy="217.47" r="9"/>
  <rect class="cls-1" x="428.3" y="242.94" width="8.15" height="48.59" rx="2.9" ry="2.9" transform="translate(864.76 534.48) rotate(180)"/>
  <rect class="cls-1" x="236.08" y="110.73" width="8.15" height="104.9" rx="2.9" ry="2.9" transform="translate(76.97 403.34) rotate(-90)"/>
  <circle cx="232.11" cy="114.97" r="49.5"/>
  <circle class="cls-2" cx="240.16" cy="115.34" r="48.13"/>
</svg>