<?xml version="1.0" encoding="UTF-8"?>
<svg id="Layer_1" data-name="Layer 1" xmlns="http://www.w3.org/2000/svg" xmlns:xlink="http://www.w3.org/1999/xlink" viewBox="0 0 4200 2000">
  <defs>
    <style>
      .cls-1 {
        fill: none;
        stroke: #fff;
        stroke-miterlimit: 10;
      }

      .cls-2 {
        fill: url(#linear-gradient);
      }
    </style>
    <linearGradient id="linear-gradient" x1="-9.44" y1="1005.78" x2="4223.89" y2="1005.78" gradientTransform="translate(0 2002) scale(1 -1)" gradientUnits="userSpaceOnUse">
      <stop offset="0" stop-color="#ccc"/>
      <stop offset=".02" stop-color="#c2c2c2"/>
      <stop offset=".11" stop-color="#8f8f8f"/>
      <stop offset=".21" stop-color="#636363"/>
      <stop offset=".3" stop-color="#3f3f3f"/>
      <stop offset=".4" stop-color="#232323"/>
      <stop offset=".49" stop-color="#0f0f0f"/>
      <stop offset=".59" stop-color="#030303"/>
      <stop offset=".69" stop-color="#000"/>
    </linearGradient>
  </defs>
  <rect class="cls-2" x="-9.44" y="-12.11" width="4233.33" height="2016.67" rx="10.39" ry="10.39"/>
  <polyline class="cls-1" points="4129.89 30.85 4104.95 5.95 4065.71 45.18"/>
  <circle class="cls-1" cx="4183.06" cy="51.12" r="2.73"/>
  <circle class="cls-1" cx="4057.05" cy="66.4" r="2.73"/>
  <circle class="cls-1" cx="4153.45" cy="51.12" r="2.73"/>
  <circle class="cls-1" cx="3978.22" cy="51.12" r="2.73"/>
  <circle class="cls-1" cx="4001.87" cy="51.12" r="2.73"/>
  <polyline class="cls-1" points="4178.54 45.99 4157.2 24.68 4108.4 73.45"/>
  <polyline class="cls-1" points="4175.81 35.74 4199.28 12.27 4223.89 36.91"/>
  <polyline class="cls-1" points="4067.09 46.86 4042.45 22.25 4018.98 45.72 4000.73 63.98"/>
  <polyline class="cls-1" points="4156.48 56.54 4172.48 72.55 4223.23 72.55"/>
  <polyline class="cls-1" points="3982.44 56.54 3998.45 72.55 4049.2 72.55"/>
  <polyline class="cls-1" points="4129.89 42.63 4104.95 17.73 4063.1 59.57"/>
  <polyline class="cls-1" points="3332.38 30.85 3307.47 5.95 3268.21 45.18"/>
  <circle class="cls-1" cx="3385.56" cy="51.12" r="2.73"/>
  <circle class="cls-1" cx="3259.57" cy="66.4" r="2.73"/>
  <polyline class="cls-1" points="3381.03 45.99 3359.69 24.68 3310.89 73.45"/>
  <polyline class="cls-1" points="3332.38 42.63 3307.47 17.73 3265.63 59.57"/>
  <polyline class="cls-1" points="3517.42 30.85 3492.51 5.95 3453.24 45.18"/>
  <circle class="cls-1" cx="3570.59" cy="51.12" r="2.73"/>
  <circle class="cls-1" cx="3444.61" cy="66.4" r="2.73"/>
  <circle class="cls-1" cx="3540.98" cy="51.12" r="2.73"/>
  <circle class="cls-1" cx="3365.74" cy="51.12" r="2.73"/>
  <polyline class="cls-1" points="3566.07 45.99 3544.72 24.68 3495.92 73.45"/>
  <polyline class="cls-1" points="3563.34 35.74 3586.81 12.27 3611.45 36.91"/>
  <polyline class="cls-1" points="3454.62 46.86 3430.01 22.25 3406.54 45.72 3388.29 63.98"/>
  <polyline class="cls-1" points="3369.97 56.54 3385.98 72.55 3436.75 72.55"/>
  <polyline class="cls-1" points="3517.42 42.63 3492.51 17.73 3450.63 59.57"/>
  <polyline class="cls-1" points="3996.23 44.97 3970.66 19.37 3919.59 71.02 3918.03 72.55 3867.28 72.55 3851.24 56.54"/>
  <polyline class="cls-1" points="3268.21 44.97 3242.64 19.37 3191.56 71.02 3190 72.55 3139.26 72.55 3123.25 56.54"/>
  <polyline class="cls-1" points="3691.03 44.97 3665.43 19.37 3614.35 71.02 3612.83 72.55 3562.05 72.55 3546.04 56.54"/>
  <polyline class="cls-1" points="3996.23 34.09 3970.66 8.49 3918.69 60.47"/>
  <polyline class="cls-1" points="3178.49 30.85 3153.55 5.95 3114.32 45.18"/>
  <circle class="cls-1" cx="3105.68" cy="66.4" r="2.73"/>
  <circle class="cls-1" cx="3026.82" cy="51.12" r="2.73"/>
  <circle class="cls-1" cx="3050.47" cy="51.12" r="2.73"/>
  <polyline class="cls-1" points="3115.7 46.86 3091.06 22.25 3067.59 45.72 3049.36 63.98"/>
  <polyline class="cls-1" points="3031.05 56.54 3047.05 72.55 3097.8 72.55"/>
  <polyline class="cls-1" points="3178.49 42.63 3153.55 17.73 3111.71 59.57"/>
  <polyline class="cls-1" points="3044.84 44.97 3019.27 19.37 2968.19 71.02 2966.63 72.55 2915.88 72.55 2899.85 56.54"/>
  <polyline class="cls-1" points="3044.84 34.09 3019.27 8.49 2967.29 60.47"/>
  <polyline class="cls-1" points="2707.62 30.85 2682.68 5.95 2643.44 45.18"/>
  <circle class="cls-1" cx="2760.8" cy="51.12" r="2.73"/>
  <circle class="cls-1" cx="2634.81" cy="66.4" r="2.73"/>
  <polyline class="cls-1" points="2756.27 45.99 2734.93 24.68 2686.13 73.45"/>
  <polyline class="cls-1" points="2314.02 45.99 2292.71 24.68 2243.91 73.45"/>
  <polyline class="cls-1" points="2707.62 42.63 2682.68 17.73 2640.84 59.57"/>
  <polyline class="cls-1" points="2892.65 30.85 2867.71 5.95 2828.48 45.18"/>
  <circle class="cls-1" cx="2819.85" cy="66.4" r="2.73"/>
  <circle class="cls-1" cx="2740.98" cy="51.12" r="2.73"/>
  <polyline class="cls-1" points="2941.3 45.99 2919.96 24.68 2871.16 73.45"/>
  <polyline class="cls-1" points="2829.86 46.86 2805.22 22.25 2781.75 45.72 2763.52 63.98"/>
  <polyline class="cls-1" points="2745.21 56.54 2761.22 72.55 2811.96 72.55"/>
  <polyline class="cls-1" points="2892.65 42.63 2867.71 17.73 2825.87 59.57"/>
  <polyline class="cls-1" points="2643.44 44.97 2617.88 19.37 2566.8 71.02 2565.24 72.55 2514.49 72.55 2498.46 56.54"/>
  <polyline class="cls-1" points="2553.7 30.85 2528.79 5.95 2489.55 45.18"/>
  <circle class="cls-1" cx="2480.89" cy="66.4" r="2.73"/>
  <circle class="cls-1" cx="2425.71" cy="51.12" r="2.73"/>
  <polyline class="cls-1" points="2490.93 46.86 2466.29 22.25 2442.82 45.72 2424.57 63.98"/>
  <polyline class="cls-1" points="2406.26 56.54 2422.29 72.55 2473.04 72.55"/>
  <polyline class="cls-1" points="2553.7 42.63 2528.79 17.73 2486.95 59.57"/>
  <polyline class="cls-1" points="2420.07 44.97 2394.48 19.37 2343.4 71.02 2341.87 72.55 2291.09 72.55 2275.09 56.54"/>
  <polyline class="cls-1" points="2420.07 34.09 2394.48 8.49 2342.53 60.47"/>
  <polyline class="cls-1" points="3824.66 30.85 3799.75 5.95 3760.51 45.18"/>
  <circle class="cls-1" cx="3877.83" cy="51.12" r="2.73"/>
  <circle class="cls-1" cx="3751.85" cy="66.4" r="2.73"/>
  <circle class="cls-1" cx="3848.25" cy="51.12" r="2.73"/>
  <circle class="cls-1" cx="3672.98" cy="51.12" r="2.73"/>
  <circle class="cls-1" cx="3696.66" cy="51.12" r="2.73"/>
  <polyline class="cls-1" points="3873.31 45.99 3851.96 24.68 3803.19 73.45"/>
  <polyline class="cls-1" points="3870.58 35.74 3894.05 12.27 3918.69 36.91"/>
  <polyline class="cls-1" points="3761.86 46.86 3737.25 22.25 3713.78 45.72 3695.53 63.98"/>
  <polyline class="cls-1" points="3677.21 56.54 3693.25 72.55 3743.99 72.55"/>
  <polyline class="cls-1" points="3824.66 42.63 3799.75 17.73 3757.9 59.57"/>
  <polyline class="cls-1" points="3691.03 34.09 3665.43 8.49 3613.48 60.47"/>
  <polyline class="cls-1" points="96.68 30.85 121.59 5.95 160.82 45.18"/>
  <circle class="cls-1" cx="43.5" cy="51.12" r="2.73"/>
  <path class="cls-1" d="M172.21,66.4c0-1.5-1.23-2.73-2.73-2.73s-2.73,1.23-2.73,2.73,1.23,2.73,2.73,2.73,2.73-1.23,2.73-2.73Z"/>
  <path class="cls-1" d="M75.81,51.12c0-1.5-1.23-2.73-2.73-2.73s-2.73,1.23-2.73,2.73,1.23,2.73,2.73,2.73,2.73-1.23,2.73-2.73Z"/>
  <circle class="cls-1" cx="248.35" cy="51.12" r="2.73"/>
  <path class="cls-1" d="M227.4,51.12c0-1.5-1.23-2.73-2.73-2.73s-2.73,1.23-2.73,2.73,1.23,2.73,2.73,2.73,2.73-1.23,2.73-2.73Z"/>
  <polyline class="cls-1" points="48.03 45.99 69.37 24.68 118.14 73.45"/>
  <polyline class="cls-1" points="50.76 35.74 27.29 12.27 2.65 36.91"/>
  <polyline class="cls-1" points="159.44 46.86 184.08 22.25 207.55 45.72 225.81 63.98"/>
  <polyline class="cls-1" points="70.09 56.54 54.05 72.55 3.31 72.55"/>
  <polyline class="cls-1" points="244.12 56.54 228.09 72.55 177.34 72.55"/>
  <polyline class="cls-1" points="96.68 42.63 121.59 17.73 163.43 59.57"/>
  <polyline class="cls-1" points="894.15 30.85 919.09 5.95 958.33 45.18"/>
  <path class="cls-1" d="M843.71,51.12c0-1.5-1.23-2.73-2.73-2.73s-2.73,1.23-2.73,2.73,1.23,2.73,2.73,2.73,2.73-1.23,2.73-2.73Z"/>
  <path class="cls-1" d="M969.69,66.4c0-1.5-1.23-2.73-2.73-2.73s-2.73,1.23-2.73,2.73,1.23,2.73,2.73,2.73,2.73-1.23,2.73-2.73Z"/>
  <polyline class="cls-1" points="845.5 45.99 866.85 24.68 915.65 73.45"/>
  <polyline class="cls-1" points="894.15 42.63 919.09 17.73 960.94 59.57"/>
  <polyline class="cls-1" points="709.12 30.85 734.06 5.95 773.3 45.18"/>
  <circle class="cls-1" cx="655.94" cy="51.12" r="2.73"/>
  <path class="cls-1" d="M784.66,66.4c0-1.5-1.23-2.73-2.73-2.73s-2.73,1.23-2.73,2.73,1.23,2.73,2.73,2.73,2.73-1.23,2.73-2.73Z"/>
  <circle class="cls-1" cx="685.56" cy="51.12" r="2.73"/>
  <circle class="cls-1" cx="860.79" cy="51.12" r="2.73"/>
  <polyline class="cls-1" points="660.47 45.99 681.81 24.68 730.61 73.45"/>
  <polyline class="cls-1" points="663.2 35.74 639.73 12.27 615.12 36.91"/>
  <polyline class="cls-1" points="771.92 46.86 796.56 22.25 820.03 45.72 838.25 63.98"/>
  <polyline class="cls-1" points="856.57 56.54 840.56 72.55 789.81 72.55"/>
  <polyline class="cls-1" points="709.12 42.63 734.06 17.73 775.9 59.57"/>
  <polyline class="cls-1" points="230.3 44.97 255.9 19.37 306.98 71.02 308.51 72.55 359.29 72.55 375.29 56.54"/>
  <polyline class="cls-1" points="958.33 44.97 983.9 19.37 1034.97 71.02 1036.53 72.55 1087.28 72.55 1103.32 56.54"/>
  <polyline class="cls-1" points="535.54 44.97 561.1 19.37 612.18 71.02 613.74 72.55 664.49 72.55 680.49 56.54"/>
  <polyline class="cls-1" points="230.3 34.09 255.9 8.49 307.85 60.47"/>
  <polyline class="cls-1" points="1048.07 30.85 1072.98 5.95 1112.22 45.18"/>
  <path class="cls-1" d="M1123.61,66.4c0-1.5-1.23-2.73-2.73-2.73s-2.73,1.23-2.73,2.73,1.23,2.73,2.73,2.73,2.73-1.23,2.73-2.73Z"/>
  <circle class="cls-1" cx="1199.74" cy="51.12" r="2.73"/>
  <path class="cls-1" d="M1178.79,51.12c0-1.5-1.23-2.73-2.73-2.73s-2.73,1.23-2.73,2.73,1.23,2.73,2.73,2.73,2.73-1.23,2.73-2.73Z"/>
  <polyline class="cls-1" points="1110.84 46.86 1135.48 22.25 1158.95 45.72 1177.2 63.98"/>
  <polyline class="cls-1" points="1195.52 56.54 1179.48 72.55 1128.73 72.55"/>
  <polyline class="cls-1" points="1048.07 42.63 1072.98 17.73 1114.83 59.57"/>
  <polyline class="cls-1" points="1181.7 44.97 1207.3 19.37 1258.38 71.02 1259.9 72.55 1310.68 72.55 1326.69 56.54"/>
  <polyline class="cls-1" points="1181.7 34.09 1207.3 8.49 1259.24 60.47"/>
  <polyline class="cls-1" points="401.88 30.85 426.82 5.95 466.06 45.18"/>
  <circle class="cls-1" cx="348.7" cy="51.12" r="2.73"/>
  <path class="cls-1" d="M477.42,66.4c0-1.5-1.23-2.73-2.73-2.73s-2.73,1.23-2.73,2.73,1.23,2.73,2.73,2.73,2.73-1.23,2.73-2.73Z"/>
  <circle class="cls-1" cx="378.32" cy="51.12" r="2.73"/>
  <circle class="cls-1" cx="553.55" cy="51.12" r="2.73"/>
  <path class="cls-1" d="M532.6,51.12c0-1.5-1.23-2.73-2.73-2.73s-2.73,1.23-2.73,2.73,1.23,2.73,2.73,2.73,2.73-1.23,2.73-2.73Z"/>
  <polyline class="cls-1" points="353.23 45.99 374.57 24.68 423.37 73.45"/>
  <polyline class="cls-1" points="355.96 35.74 332.49 12.27 307.85 36.91"/>
  <polyline class="cls-1" points="464.68 46.86 489.29 22.25 512.76 45.72 531.01 63.98"/>
  <polyline class="cls-1" points="549.32 56.54 533.32 72.55 482.54 72.55"/>
  <polyline class="cls-1" points="401.88 42.63 426.82 17.73 468.66 59.57"/>
  <polyline class="cls-1" points="535.54 34.09 561.1 8.49 613.08 60.47"/>
  <polyline class="cls-1" points="1384.81 30.85 1409.75 5.95 1448.98 45.18"/>
  <circle class="cls-1" cx="1331.63" cy="51.12" r="2.73"/>
  <path class="cls-1" d="M1460.34,66.4c0-1.5-1.23-2.73-2.73-2.73s-2.73,1.23-2.73,2.73,1.23,2.73,2.73,2.73,2.73-1.23,2.73-2.73Z"/>
  <circle class="cls-1" cx="1536.51" cy="51.12" r="2.73"/>
  <path class="cls-1" d="M1515.56,51.12c0-1.5-1.23-2.73-2.73-2.73s-2.73,1.23-2.73,2.73,1.23,2.73,2.73,2.73,2.73-1.23,2.73-2.73Z"/>
  <polyline class="cls-1" points="1336.19 45.99 1357.5 24.68 1406.3 73.45"/>
  <polyline class="cls-1" points="1338.89 35.74 1315.42 12.27 1290.81 36.91"/>
  <polyline class="cls-1" points="1447.61 46.86 1472.24 22.25 1495.71 45.72 1513.97 63.98"/>
  <polyline class="cls-1" points="1532.25 56.54 1516.25 72.55 1465.5 72.55"/>
  <polyline class="cls-1" points="1384.81 42.63 1409.75 17.73 1451.59 59.57"/>
  <polyline class="cls-1" points="2182.31 30.85 2207.25 5.95 2246.49 45.18"/>
  <path class="cls-1" d="M2131.87,51.12c0-1.5-1.23-2.73-2.73-2.73s-2.73,1.23-2.73,2.73,1.23,2.73,2.73,2.73,2.73-1.23,2.73-2.73Z"/>
  <polyline class="cls-1" points="2133.67 45.99 2155.01 24.68 2203.81 73.45"/>
  <polyline class="cls-1" points="2182.31 42.63 2207.25 17.73 2249.1 59.57"/>
  <polyline class="cls-1" points="1997.28 30.85 2022.22 5.95 2061.46 45.18"/>
  <circle class="cls-1" cx="1944.11" cy="51.12" r="2.73"/>
  <path class="cls-1" d="M2072.82,66.4c0-1.5-1.23-2.73-2.73-2.73s-2.73,1.23-2.73,2.73,1.23,2.73,2.73,2.73,2.73-1.23,2.73-2.73Z"/>
  <circle class="cls-1" cx="1973.72" cy="51.12" r="2.73"/>
  <circle class="cls-1" cx="2148.95" cy="51.12" r="2.73"/>
  <polyline class="cls-1" points="1948.63 45.99 1969.97 24.68 2018.77 73.45"/>
  <polyline class="cls-1" points="1951.36 35.74 1927.89 12.27 1903.25 36.91"/>
  <polyline class="cls-1" points="2060.08 46.86 2084.69 22.25 2108.16 45.72 2126.41 63.98"/>
  <polyline class="cls-1" points="2144.73 56.54 2128.72 72.55 2077.94 72.55"/>
  <polyline class="cls-1" points="1997.28 42.63 2022.22 17.73 2064.06 59.57"/>
  <polyline class="cls-1" points="1518.47 44.97 1544.06 19.37 1595.14 71.02 1596.67 72.55 1647.45 72.55 1663.45 56.54"/>
  <polyline class="cls-1" points="1823.67 44.97 1849.27 19.37 1900.34 71.02 1901.9 72.55 1952.65 72.55 1968.66 56.54"/>
  <polyline class="cls-1" points="1518.47 34.09 1544.06 8.49 1596.01 60.47"/>
  <polyline class="cls-1" points="1690.04 30.85 1714.95 5.95 1754.22 45.18"/>
  <circle class="cls-1" cx="1636.87" cy="51.12" r="2.73"/>
  <path class="cls-1" d="M1765.58,66.4c0-1.5-1.23-2.73-2.73-2.73s-2.73,1.23-2.73,2.73,1.23,2.73,2.73,2.73,2.73-1.23,2.73-2.73Z"/>
  <circle class="cls-1" cx="1666.48" cy="51.12" r="2.73"/>
  <circle class="cls-1" cx="1841.71" cy="51.12" r="2.73"/>
  <path class="cls-1" d="M1820.76,51.12c0-1.5-1.23-2.73-2.73-2.73s-2.73,1.23-2.73,2.73,1.23,2.73,2.73,2.73,2.73-1.23,2.73-2.73Z"/>
  <polyline class="cls-1" points="1641.39 45.99 1662.73 24.68 1711.53 73.45"/>
  <polyline class="cls-1" points="1644.12 35.74 1620.65 12.27 1596.01 36.91"/>
  <polyline class="cls-1" points="1752.84 46.86 1777.45 22.25 1800.92 45.72 1819.17 63.98"/>
  <polyline class="cls-1" points="1837.49 56.54 1821.48 72.55 1770.7 72.55"/>
  <polyline class="cls-1" points="1690.04 42.63 1714.95 17.73 1756.79 59.57"/>
  <polyline class="cls-1" points="1823.67 34.09 1849.27 8.49 1901.24 60.47"/>
  <polyline class="cls-1" points="4130.02 1934.06 4105.12 1909.16 4065.93 1948.34"/>
  <circle class="cls-1" cx="4183.12" cy="1954.27" r="2.72"/>
  <circle class="cls-1" cx="4057.28" cy="1969.57" r="2.72"/>
  <circle class="cls-1" cx="4153.55" cy="1954.27" r="2.72"/>
  <circle class="cls-1" cx="3978.56" cy="1954.27" r="2.72"/>
  <circle class="cls-1" cx="4002.18" cy="1954.27" r="2.72"/>
  <polyline class="cls-1" points="4178.6 1949.18 4157.29 1927.87 4108.56 1976.6"/>
  <polyline class="cls-1" points="4175.88 1938.94 4199.31 1915.51 4223.89 1940.08"/>
  <polyline class="cls-1" points="4067.31 1950.05 4042.71 1925.44 4019.27 1948.88 4001.04 1967.11"/>
  <polyline class="cls-1" points="4156.57 1959.72 4172.55 1975.7 4223.23 1975.7"/>
  <polyline class="cls-1" points="3982.78 1959.72 3998.76 1975.7 4049.44 1975.7"/>
  <polyline class="cls-1" points="4130.02 1945.83 4105.12 1920.92 4063.33 1962.71"/>
  <polyline class="cls-1" points="3333.63 1934.06 3308.75 1909.16 3269.54 1948.34"/>
  <circle class="cls-1" cx="3386.73" cy="1954.27" r="2.72"/>
  <circle class="cls-1" cx="3260.92" cy="1969.57" r="2.72"/>
  <polyline class="cls-1" points="3382.21 1949.18 3360.9 1927.87 3312.17 1976.6"/>
  <polyline class="cls-1" points="3333.63 1945.83 3308.75 1920.92 3266.97 1962.71"/>
  <polyline class="cls-1" points="3518.4 1934.06 3493.53 1909.16 3454.32 1948.34"/>
  <circle class="cls-1" cx="3571.5" cy="1954.27" r="2.72"/>
  <circle class="cls-1" cx="3445.7" cy="1969.57" r="2.72"/>
  <circle class="cls-1" cx="3541.93" cy="1954.27" r="2.72"/>
  <circle class="cls-1" cx="3366.94" cy="1954.27" r="2.72"/>
  <polyline class="cls-1" points="3566.98 1949.18 3545.67 1927.87 3496.94 1976.6"/>
  <polyline class="cls-1" points="3564.26 1938.94 3587.7 1915.51 3612.3 1940.08"/>
  <polyline class="cls-1" points="3455.69 1950.05 3431.12 1925.44 3407.68 1948.88 3389.45 1967.11"/>
  <polyline class="cls-1" points="3371.16 1959.72 3387.15 1975.7 3437.85 1975.7"/>
  <polyline class="cls-1" points="3518.4 1945.83 3493.53 1920.92 3451.71 1962.71"/>
  <polyline class="cls-1" points="3996.55 1948.13 3971.02 1922.6 3920.01 1974.17 3918.45 1975.7 3867.78 1975.7 3851.76 1959.72"/>
  <polyline class="cls-1" points="3269.54 1948.13 3244.01 1922.6 3193 1974.17 3191.45 1975.7 3140.77 1975.7 3124.79 1959.72"/>
  <polyline class="cls-1" points="3691.77 1948.13 3666.21 1922.6 3615.21 1974.17 3613.68 1975.7 3562.97 1975.7 3546.99 1959.72"/>
  <polyline class="cls-1" points="3996.55 1937.27 3971.02 1911.74 3919.11 1963.64"/>
  <polyline class="cls-1" points="3179.95 1934.06 3155.05 1909.16 3115.87 1948.34"/>
  <circle class="cls-1" cx="3107.25" cy="1969.57" r="2.72"/>
  <circle class="cls-1" cx="3028.49" cy="1954.27" r="2.72"/>
  <circle class="cls-1" cx="3052.11" cy="1954.27" r="2.72"/>
  <polyline class="cls-1" points="3117.24 1950.05 3092.64 1925.44 3069.2 1948.88 3051 1967.11"/>
  <polyline class="cls-1" points="3032.71 1959.72 3048.7 1975.7 3099.37 1975.7"/>
  <polyline class="cls-1" points="3179.95 1945.83 3155.05 1920.92 3113.26 1962.71"/>
  <polyline class="cls-1" points="3046.48 1948.13 3020.95 1922.6 2969.94 1974.17 2968.39 1975.7 2917.71 1975.7 2901.7 1959.72"/>
  <polyline class="cls-1" points="3046.48 1937.27 3020.95 1911.74 2969.05 1963.64"/>
  <polyline class="cls-1" points="2709.74 1934.06 2684.84 1909.16 2645.65 1948.34"/>
  <circle class="cls-1" cx="2762.84" cy="1954.27" r="2.72"/>
  <circle class="cls-1" cx="2637.03" cy="1969.57" r="2.72"/>
  <polyline class="cls-1" points="2758.32 1949.18 2737.01 1927.87 2688.28 1976.6"/>
  <polyline class="cls-1" points="2316.69 1949.18 2295.41 1927.87 2246.68 1976.6"/>
  <polyline class="cls-1" points="2709.74 1945.83 2684.84 1920.92 2643.05 1962.71"/>
  <polyline class="cls-1" points="2894.51 1934.06 2869.61 1909.16 2830.43 1948.34"/>
  <circle class="cls-1" cx="2821.81" cy="1969.57" r="2.72"/>
  <circle class="cls-1" cx="2743.05" cy="1954.27" r="2.72"/>
  <polyline class="cls-1" points="2943.1 1949.18 2921.78 1927.87 2873.05 1976.6"/>
  <polyline class="cls-1" points="2831.81 1950.05 2807.2 1925.44 2783.76 1948.88 2765.56 1967.11"/>
  <polyline class="cls-1" points="2747.28 1959.72 2763.26 1975.7 2813.94 1975.7"/>
  <polyline class="cls-1" points="2894.51 1945.83 2869.61 1920.92 2827.82 1962.71"/>
  <polyline class="cls-1" points="2645.65 1948.13 2620.12 1922.6 2569.12 1974.17 2567.56 1975.7 2516.88 1975.7 2500.87 1959.72"/>
  <polyline class="cls-1" points="2556.03 1934.06 2531.16 1909.16 2491.98 1948.34"/>
  <circle class="cls-1" cx="2483.33" cy="1969.57" r="2.72"/>
  <circle class="cls-1" cx="2428.22" cy="1954.27" r="2.72"/>
  <polyline class="cls-1" points="2493.36 1950.05 2468.75 1925.44 2445.31 1948.88 2427.08 1967.11"/>
  <polyline class="cls-1" points="2408.8 1959.72 2424.81 1975.7 2475.49 1975.7"/>
  <polyline class="cls-1" points="2556.03 1945.83 2531.16 1920.92 2489.37 1962.71"/>
  <polyline class="cls-1" points="2422.59 1948.13 2397.03 1922.6 2346.03 1974.17 2344.5 1975.7 2293.79 1975.7 2277.81 1959.72"/>
  <polyline class="cls-1" points="2422.59 1937.27 2397.03 1911.74 2345.16 1963.64"/>
  <polyline class="cls-1" points="3825.21 1934.06 3800.34 1909.16 3761.16 1948.34"/>
  <circle class="cls-1" cx="3878.31" cy="1954.27" r="2.72"/>
  <circle class="cls-1" cx="3752.51" cy="1969.57" r="2.72"/>
  <circle class="cls-1" cx="3848.77" cy="1954.27" r="2.72"/>
  <circle class="cls-1" cx="3673.75" cy="1954.27" r="2.72"/>
  <circle class="cls-1" cx="3697.4" cy="1954.27" r="2.72"/>
  <polyline class="cls-1" points="3873.8 1949.18 3852.48 1927.87 3803.78 1976.6"/>
  <polyline class="cls-1" points="3871.07 1938.94 3894.51 1915.51 3919.11 1940.08"/>
  <polyline class="cls-1" points="3762.51 1950.05 3737.93 1925.44 3714.49 1948.88 3696.26 1967.11"/>
  <polyline class="cls-1" points="3677.97 1959.72 3693.99 1975.7 3744.67 1975.7"/>
  <polyline class="cls-1" points="3825.21 1945.83 3800.34 1920.92 3758.55 1962.71"/>
  <polyline class="cls-1" points="3691.77 1937.27 3666.21 1911.74 3614.34 1963.64"/>
  <polyline class="cls-1" points="102.44 1934.06 127.32 1909.16 166.5 1948.34"/>
  <circle class="cls-1" cx="49.34" cy="1954.27" r="2.72"/>
  <path class="cls-1" d="M177.88,1969.57c0-1.5-1.23-2.72-2.72-2.72s-2.72,1.23-2.72,2.72,1.23,2.72,2.72,2.72,2.72-1.23,2.72-2.72Z"/>
  <path class="cls-1" d="M81.61,1954.27c0-1.5-1.23-2.72-2.72-2.72s-2.72,1.23-2.72,2.72,1.23,2.72,2.72,2.72,2.72-1.23,2.72-2.72Z"/>
  <circle class="cls-1" cx="253.9" cy="1954.27" r="2.72"/>
  <path class="cls-1" d="M232.98,1954.27c0-1.5-1.23-2.72-2.72-2.72s-2.72,1.23-2.72,2.72,1.23,2.72,2.72,2.72,2.72-1.23,2.72-2.72Z"/>
  <polyline class="cls-1" points="53.86 1949.18 75.18 1927.87 123.88 1976.6"/>
  <polyline class="cls-1" points="56.59 1938.94 33.15 1915.51 8.55 1940.08"/>
  <polyline class="cls-1" points="165.12 1950.05 189.73 1925.44 213.17 1948.88 231.4 1967.11"/>
  <polyline class="cls-1" points="75.89 1959.72 59.88 1975.7 9.2 1975.7"/>
  <polyline class="cls-1" points="249.68 1959.72 233.67 1975.7 182.99 1975.7"/>
  <polyline class="cls-1" points="102.44 1945.83 127.32 1920.92 169.11 1962.71"/>
  <polyline class="cls-1" points="898.81 1934.06 923.71 1909.16 962.89 1948.34"/>
  <path class="cls-1" d="M848.43,1954.27c0-1.5-1.23-2.72-2.72-2.72s-2.72,1.23-2.72,2.72,1.23,2.72,2.72,2.72,2.72-1.23,2.72-2.72Z"/>
  <path class="cls-1" d="M974.24,1969.57c0-1.5-1.23-2.72-2.72-2.72s-2.72,1.23-2.72,2.72,1.23,2.72,2.72,2.72,2.72-1.23,2.72-2.72Z"/>
  <polyline class="cls-1" points="850.23 1949.18 871.54 1927.87 920.27 1976.6"/>
  <polyline class="cls-1" points="898.81 1945.83 923.71 1920.92 965.5 1962.71"/>
  <polyline class="cls-1" points="714.03 1934.06 738.94 1909.16 778.12 1948.34"/>
  <circle class="cls-1" cx="660.93" cy="1954.27" r="2.72"/>
  <path class="cls-1" d="M789.46,1969.57c0-1.5-1.23-2.72-2.72-2.72s-2.72,1.23-2.72,2.72,1.23,2.72,2.72,2.72,2.72-1.23,2.72-2.72Z"/>
  <circle class="cls-1" cx="690.5" cy="1954.27" r="2.72"/>
  <circle class="cls-1" cx="865.49" cy="1954.27" r="2.72"/>
  <polyline class="cls-1" points="665.45 1949.18 686.76 1927.87 735.49 1976.6"/>
  <polyline class="cls-1" points="668.17 1938.94 644.74 1915.51 620.16 1940.08"/>
  <polyline class="cls-1" points="776.74 1950.05 801.35 1925.44 824.78 1948.88 842.98 1967.11"/>
  <polyline class="cls-1" points="861.27 1959.72 845.29 1975.7 794.61 1975.7"/>
  <polyline class="cls-1" points="714.03 1945.83 738.94 1920.92 780.72 1962.71"/>
  <polyline class="cls-1" points="235.89 1948.13 261.45 1922.6 312.45 1974.17 313.98 1975.7 364.69 1975.7 380.67 1959.72"/>
  <polyline class="cls-1" points="962.89 1948.13 988.42 1922.6 1039.43 1974.17 1040.99 1975.7 1091.66 1975.7 1107.68 1959.72"/>
  <polyline class="cls-1" points="540.69 1948.13 566.22 1922.6 617.23 1974.17 618.79 1975.7 669.46 1975.7 685.45 1959.72"/>
  <polyline class="cls-1" points="235.89 1937.27 261.45 1911.74 313.32 1963.64"/>
  <polyline class="cls-1" points="1052.51 1934.06 1077.39 1909.16 1116.57 1948.34"/>
  <path class="cls-1" d="M1127.94,1969.57c0-1.5-1.23-2.72-2.72-2.72s-2.72,1.23-2.72,2.72,1.23,2.72,2.72,2.72,2.72-1.23,2.72-2.72Z"/>
  <circle class="cls-1" cx="1203.97" cy="1954.27" r="2.72"/>
  <path class="cls-1" d="M1183.05,1954.27c0-1.5-1.23-2.72-2.72-2.72s-2.72,1.23-2.72,2.72,1.23,2.72,2.72,2.72,2.72-1.23,2.72-2.72Z"/>
  <polyline class="cls-1" points="1115.19 1950.05 1139.8 1925.44 1163.23 1948.88 1181.46 1967.11"/>
  <polyline class="cls-1" points="1199.75 1959.72 1183.74 1975.7 1133.06 1975.7"/>
  <polyline class="cls-1" points="1052.51 1945.83 1077.39 1920.92 1119.17 1962.71"/>
  <polyline class="cls-1" points="1185.95 1948.13 1211.51 1922.6 1262.52 1974.17 1264.05 1975.7 1314.75 1975.7 1330.74 1959.72"/>
  <polyline class="cls-1" points="1185.95 1937.27 1211.51 1911.74 1263.39 1963.64"/>
  <polyline class="cls-1" points="407.22 1934.06 432.12 1909.16 471.31 1948.34"/>
  <circle class="cls-1" cx="354.12" cy="1954.27" r="2.72"/>
  <path class="cls-1" d="M482.65,1969.57c0-1.5-1.23-2.72-2.72-2.72s-2.72,1.23-2.72,2.72,1.23,2.72,2.72,2.72,2.72-1.23,2.72-2.72Z"/>
  <circle class="cls-1" cx="383.69" cy="1954.27" r="2.72"/>
  <circle class="cls-1" cx="558.68" cy="1954.27" r="2.72"/>
  <path class="cls-1" d="M537.76,1954.27c0-1.5-1.23-2.72-2.72-2.72s-2.72,1.23-2.72,2.72,1.23,2.72,2.72,2.72,2.72-1.23,2.72-2.72Z"/>
  <polyline class="cls-1" points="358.64 1949.18 379.95 1927.87 428.68 1976.6"/>
  <polyline class="cls-1" points="361.36 1938.94 337.93 1915.51 313.32 1940.08"/>
  <polyline class="cls-1" points="469.93 1950.05 494.5 1925.44 517.94 1948.88 536.17 1967.11"/>
  <polyline class="cls-1" points="554.46 1959.72 538.48 1975.7 487.77 1975.7"/>
  <polyline class="cls-1" points="407.22 1945.83 432.12 1920.92 473.91 1962.71"/>
  <polyline class="cls-1" points="540.69 1937.27 566.22 1911.74 618.13 1963.64"/>
  <polyline class="cls-1" points="1388.78 1934.06 1413.68 1909.16 1452.86 1948.34"/>
  <circle class="cls-1" cx="1335.68" cy="1954.27" r="2.72"/>
  <path class="cls-1" d="M1464.21,1969.57c0-1.5-1.23-2.72-2.72-2.72s-2.72,1.23-2.72,2.72,1.23,2.72,2.72,2.72,2.72-1.23,2.72-2.72Z"/>
  <circle class="cls-1" cx="1540.27" cy="1954.27" r="2.72"/>
  <path class="cls-1" d="M1519.34,1954.27c0-1.5-1.23-2.72-2.72-2.72s-2.72,1.23-2.72,2.72,1.23,2.72,2.72,2.72,2.72-1.23,2.72-2.72Z"/>
  <polyline class="cls-1" points="1340.22 1949.18 1361.51 1927.87 1410.24 1976.6"/>
  <polyline class="cls-1" points="1342.92 1938.94 1319.48 1915.51 1294.91 1940.08"/>
  <polyline class="cls-1" points="1451.49 1950.05 1476.09 1925.44 1499.53 1948.88 1517.76 1967.11"/>
  <polyline class="cls-1" points="1536.02 1959.72 1520.03 1975.7 1469.36 1975.7"/>
  <polyline class="cls-1" points="1388.78 1945.83 1413.68 1920.92 1455.47 1962.71"/>
  <polyline class="cls-1" points="2185.17 1934.06 2210.07 1909.16 2249.25 1948.34"/>
  <path class="cls-1" d="M2134.79,1954.27c0-1.5-1.23-2.72-2.72-2.72s-2.72,1.23-2.72,2.72,1.23,2.72,2.72,2.72,2.72-1.23,2.72-2.72Z"/>
  <polyline class="cls-1" points="2136.59 1949.18 2157.9 1927.87 2206.63 1976.6"/>
  <polyline class="cls-1" points="2185.17 1945.83 2210.07 1920.92 2251.86 1962.71"/>
  <polyline class="cls-1" points="2000.39 1934.06 2025.3 1909.16 2064.48 1948.34"/>
  <circle class="cls-1" cx="1947.29" cy="1954.27" r="2.72"/>
  <path class="cls-1" d="M2075.82,1969.57c0-1.5-1.23-2.72-2.72-2.72s-2.72,1.23-2.72,2.72,1.23,2.72,2.72,2.72,2.72-1.23,2.72-2.72Z"/>
  <circle class="cls-1" cx="1976.87" cy="1954.27" r="2.72"/>
  <circle class="cls-1" cx="2151.85" cy="1954.27" r="2.72"/>
  <polyline class="cls-1" points="1951.81 1949.18 1973.12 1927.87 2021.85 1976.6"/>
  <polyline class="cls-1" points="1954.54 1938.94 1931.1 1915.51 1906.49 1940.08"/>
  <polyline class="cls-1" points="2063.1 1950.05 2087.68 1925.44 2111.11 1948.88 2129.34 1967.11"/>
  <polyline class="cls-1" points="2147.63 1959.72 2131.65 1975.7 2080.94 1975.7"/>
  <polyline class="cls-1" points="2000.39 1945.83 2025.3 1920.92 2067.08 1962.71"/>
  <polyline class="cls-1" points="1522.25 1948.13 1547.81 1922.6 1598.81 1974.17 1600.34 1975.7 1651.05 1975.7 1667.03 1959.72"/>
  <polyline class="cls-1" points="1827.02 1948.13 1852.58 1922.6 1903.59 1974.17 1905.15 1975.7 1955.82 1975.7 1971.81 1959.72"/>
  <polyline class="cls-1" points="1522.25 1937.27 1547.81 1911.74 1599.68 1963.64"/>
  <polyline class="cls-1" points="1693.58 1934.06 1718.46 1909.16 1757.67 1948.34"/>
  <circle class="cls-1" cx="1640.48" cy="1954.27" r="2.72"/>
  <path class="cls-1" d="M1769.01,1969.57c0-1.5-1.23-2.72-2.72-2.72s-2.72,1.23-2.72,2.72,1.23,2.72,2.72,2.72,2.72-1.23,2.72-2.72Z"/>
  <circle class="cls-1" cx="1670.05" cy="1954.27" r="2.72"/>
  <circle class="cls-1" cx="1845.04" cy="1954.27" r="2.72"/>
  <path class="cls-1" d="M1824.12,1954.27c0-1.5-1.23-2.72-2.72-2.72s-2.72,1.23-2.72,2.72,1.23,2.72,2.72,2.72,2.72-1.23,2.72-2.72Z"/>
  <polyline class="cls-1" points="1645 1949.18 1666.31 1927.87 1715.04 1976.6"/>
  <polyline class="cls-1" points="1647.72 1938.94 1624.29 1915.51 1599.68 1940.08"/>
  <polyline class="cls-1" points="1756.29 1950.05 1780.87 1925.44 1804.3 1948.88 1822.53 1967.11"/>
  <polyline class="cls-1" points="1840.82 1959.72 1824.84 1975.7 1774.13 1975.7"/>
  <polyline class="cls-1" points="1693.58 1945.83 1718.46 1920.92 1760.24 1962.71"/>
  <polyline class="cls-1" points="1827.02 1937.27 1852.58 1911.74 1904.49 1963.64"/>
</svg>