<?xml version="1.0" encoding="UTF-8"?>
<svg id="Layer_1" data-name="Layer 1" xmlns="http://www.w3.org/2000/svg" xmlns:xlink="http://www.w3.org/1999/xlink" viewBox="0 0 4200 2000">
  <defs>
    <style>
      .cls-1 {
        fill: none;
        stroke: #fff;
        stroke-miterlimit: 10;
      }

      .cls-2 {
        fill: url(#linear-gradient);
      }
    </style>
    <linearGradient id="linear-gradient" x1="-9.44" y1="1005.78" x2="4223.89" y2="1005.78" gradientTransform="translate(0 2002) scale(1 -1)" gradientUnits="userSpaceOnUse">
      <stop offset="0" stop-color="#ccc"/>
      <stop offset=".02" stop-color="#c2c2c2"/>
      <stop offset=".11" stop-color="#8f8f8f"/>
      <stop offset=".21" stop-color="#636363"/>
      <stop offset=".3" stop-color="#3f3f3f"/>
      <stop offset=".4" stop-color="#232323"/>
      <stop offset=".49" stop-color="#0f0f0f"/>
      <stop offset=".59" stop-color="#030303"/>
      <stop offset=".69" stop-color="#000"/>
    </linearGradient>
  </defs>
  <rect class="cls-2" x="-9.44" y="-12.11" width="4233.33" height="2016.67" rx="10.39" ry="10.39"/>
  <polyline class="cls-1" points="260.96 74.37 329.39 5.95 437.18 113.73"/>
  <circle class="cls-1" cx="114.88" cy="130.04" r="7.49"/>
  <path class="cls-1" d="M468.47,172.03c0-4.12-3.38-7.49-7.49-7.49s-7.49,3.38-7.49,7.49,3.38,7.49,7.49,7.49,7.49-3.38,7.49-7.49Z"/>
  <path class="cls-1" d="M203.65,130.04c0-4.12-3.38-7.49-7.49-7.49s-7.49,3.38-7.49,7.49,3.38,7.49,7.49,7.49,7.49-3.38,7.49-7.49Z"/>
  <circle class="cls-1" cx="677.63" cy="130.04" r="7.49"/>
  <path class="cls-1" d="M620.07,130.04c0-4.12-3.38-7.49-7.49-7.49s-7.49,3.38-7.49,7.49,3.38,7.49,7.49,7.49,7.49-3.38,7.49-7.49Z"/>
  <polyline class="cls-1" points="127.32 115.96 185.95 57.41 319.92 191.39"/>
  <polyline class="cls-1" points="134.81 87.8 70.33 23.32 2.65 91.01"/>
  <polyline class="cls-1" points="433.39 118.35 501.08 50.74 565.56 115.22 615.7 165.37"/>
  <polyline class="cls-1" points="187.92 144.94 143.87 188.92 4.46 188.92"/>
  <polyline class="cls-1" points="666.02 144.94 621.96 188.92 482.55 188.92"/>
  <polyline class="cls-1" points="260.96 106.74 329.39 38.31 444.34 153.26"/>
  <polyline class="cls-1" points="2451.75 74.37 2520.26 5.95 2628.05 113.73"/>
  <path class="cls-1" d="M2313.16,130.04c0-4.12-3.38-7.49-7.49-7.49s-7.49,3.38-7.49,7.49,3.38,7.49,7.49,7.49,7.49-3.38,7.49-7.49Z"/>
  <path class="cls-1" d="M2659.26,172.03c0-4.12-3.38-7.49-7.49-7.49s-7.49,3.38-7.49,7.49,3.38,7.49,7.49,7.49,7.49-3.38,7.49-7.49Z"/>
  <polyline class="cls-1" points="2318.1 115.96 2376.73 57.41 2510.79 191.39"/>
  <polyline class="cls-1" points="2451.75 106.74 2520.26 38.31 2635.21 153.26"/>
  <polyline class="cls-1" points="1943.43 74.37 2011.94 5.95 2119.73 113.73"/>
  <circle class="cls-1" cx="1797.35" cy="130.04" r="7.49"/>
  <path class="cls-1" d="M2150.94,172.03c0-4.12-3.38-7.49-7.49-7.49s-7.49,3.38-7.49,7.49,3.38,7.49,7.49,7.49,7.49-3.38,7.49-7.49Z"/>
  <circle class="cls-1" cx="1878.71" cy="130.04" r="7.49"/>
  <circle class="cls-1" cx="2360.1" cy="130.04" r="7.49"/>
  <polyline class="cls-1" points="1809.79 115.96 1868.42 57.41 2002.47 191.39"/>
  <polyline class="cls-1" points="1817.28 87.8 1752.8 23.32 1685.2 91.01"/>
  <polyline class="cls-1" points="2115.94 118.35 2183.63 50.74 2248.11 115.22 2298.17 165.37"/>
  <polyline class="cls-1" points="2348.49 144.94 2304.51 188.92 2165.1 188.92"/>
  <polyline class="cls-1" points="1943.43 106.74 2011.94 38.31 2126.9 153.26"/>
  <polyline class="cls-1" points="628.06 113.16 698.38 42.84 838.69 184.72 842.89 188.92 982.39 188.92 1026.36 144.94"/>
  <polyline class="cls-1" points="2628.05 113.16 2698.29 42.84 2838.6 184.72 2842.88 188.92 2982.29 188.92 3026.35 144.94"/>
  <polyline class="cls-1" points="1466.57 113.16 1536.81 42.84 1677.13 184.72 1681.41 188.92 1820.82 188.92 1864.79 144.94"/>
  <polyline class="cls-1" points="628.06 83.27 698.38 12.94 841.08 155.73"/>
  <polyline class="cls-1" points="2874.59 74.37 2943.02 5.95 3050.81 113.73"/>
  <path class="cls-1" d="M3082.1,172.03c0-4.12-3.38-7.49-7.49-7.49s-7.49,3.38-7.49,7.49,3.38,7.49,7.49,7.49,7.49-3.38,7.49-7.49Z"/>
  <circle class="cls-1" cx="3291.25" cy="130.04" r="7.49"/>
  <path class="cls-1" d="M3233.69,130.04c0-4.12-3.38-7.49-7.49-7.49s-7.49,3.38-7.49,7.49,3.38,7.49,7.49,7.49,7.49-3.38,7.49-7.49Z"/>
  <polyline class="cls-1" points="3047.02 118.35 3114.7 50.74 3179.18 115.22 3229.33 165.37"/>
  <polyline class="cls-1" points="3279.64 144.94 3235.59 188.92 3096.18 188.92"/>
  <polyline class="cls-1" points="2874.59 106.74 2943.02 38.31 3057.97 153.26"/>
  <polyline class="cls-1" points="3241.68 113.16 3312 42.84 3452.32 184.72 3456.52 188.92 3596.01 188.92 3639.98 144.94"/>
  <polyline class="cls-1" points="3241.68 83.27 3312 12.94 3454.71 155.73"/>
  <polyline class="cls-1" points="1099.4 74.37 1167.91 5.95 1275.7 113.73"/>
  <circle class="cls-1" cx="953.32" cy="130.04" r="7.49"/>
  <path class="cls-1" d="M1306.91,172.03c0-4.12-3.38-7.49-7.49-7.49s-7.49,3.38-7.49,7.49,3.38,7.49,7.49,7.49,7.49-3.38,7.49-7.49Z"/>
  <circle class="cls-1" cx="1034.67" cy="130.04" r="7.49"/>
  <circle class="cls-1" cx="1516.06" cy="130.04" r="7.49"/>
  <path class="cls-1" d="M1458.5,130.04c0-4.12-3.38-7.49-7.49-7.49s-7.49,3.38-7.49,7.49,3.38,7.49,7.49,7.49,7.49-3.38,7.49-7.49Z"/>
  <polyline class="cls-1" points="965.75 115.96 1024.38 57.41 1158.44 191.39"/>
  <polyline class="cls-1" points="973.25 87.8 908.77 23.32 841.08 91.01"/>
  <polyline class="cls-1" points="1271.91 118.35 1339.52 50.74 1403.99 115.22 1454.14 165.37"/>
  <polyline class="cls-1" points="1504.45 144.94 1460.48 188.92 1320.99 188.92"/>
  <polyline class="cls-1" points="1099.4 106.74 1167.91 38.31 1282.86 153.26"/>
  <polyline class="cls-1" points="1466.57 83.27 1536.81 12.94 1679.6 155.73"/>
  <polyline class="cls-1" points="3799.65 74.37 3868.16 5.95 3975.95 113.73"/>
  <circle class="cls-1" cx="3653.57" cy="130.04" r="7.49"/>
  <path class="cls-1" d="M4007.16,172.03c0-4.12-3.38-7.49-7.49-7.49s-7.49,3.38-7.49,7.49,3.38,7.49,7.49,7.49,7.49-3.38,7.49-7.49Z"/>
  <path class="cls-1" d="M4158.84,130.04c0-4.12-3.38-7.49-7.49-7.49s-7.49,3.38-7.49,7.49,3.38,7.49,7.49,7.49,7.49-3.38,7.49-7.49Z"/>
  <polyline class="cls-1" points="3666.09 115.96 3724.63 57.41 3858.69 191.39"/>
  <polyline class="cls-1" points="3673.5 87.8 3609.02 23.32 3541.42 91.01"/>
  <polyline class="cls-1" points="3972.16 118.35 4039.85 50.74 4104.32 115.22 4154.47 165.37"/>
  <polyline class="cls-1" points="4204.7 144.94 4160.73 188.92 4021.32 188.92"/>
  <polyline class="cls-1" points="3799.65 106.74 3868.16 38.31 3983.11 153.26"/>
  <polyline class="cls-1" points="260.96 1868.74 329.39 1800.31 437.18 1908.1"/>
  <circle class="cls-1" cx="114.88" cy="1924.41" r="7.49"/>
  <path class="cls-1" d="M468.47,1966.4c0-4.12-3.38-7.49-7.49-7.49s-7.49,3.38-7.49,7.49,3.38,7.49,7.49,7.49,7.49-3.38,7.49-7.49Z"/>
  <path class="cls-1" d="M203.65,1924.41c0-4.12-3.38-7.49-7.49-7.49s-7.49,3.38-7.49,7.49,3.38,7.49,7.49,7.49,7.49-3.38,7.49-7.49Z"/>
  <circle class="cls-1" cx="677.63" cy="1924.41" r="7.49"/>
  <path class="cls-1" d="M620.07,1924.41c0-4.12-3.38-7.49-7.49-7.49s-7.49,3.38-7.49,7.49,3.38,7.49,7.49,7.49,7.49-3.38,7.49-7.49Z"/>
  <polyline class="cls-1" points="127.32 1910.33 185.95 1851.78 319.92 1985.75"/>
  <polyline class="cls-1" points="134.81 1882.17 70.33 1817.69 2.65 1885.38"/>
  <polyline class="cls-1" points="433.39 1912.72 501.08 1845.11 565.56 1909.59 615.7 1959.73"/>
  <polyline class="cls-1" points="187.92 1939.31 143.87 1983.28 4.46 1983.28"/>
  <polyline class="cls-1" points="666.02 1939.31 621.96 1983.28 482.55 1983.28"/>
  <polyline class="cls-1" points="260.96 1901.1 329.39 1832.68 444.34 1947.63"/>
  <polyline class="cls-1" points="2451.75 1868.74 2520.26 1800.31 2628.05 1908.1"/>
  <path class="cls-1" d="M2313.16,1924.41c0-4.12-3.38-7.49-7.49-7.49s-7.49,3.38-7.49,7.49,3.38,7.49,7.49,7.49,7.49-3.38,7.49-7.49Z"/>
  <path class="cls-1" d="M2659.26,1966.4c0-4.12-3.38-7.49-7.49-7.49s-7.49,3.38-7.49,7.49,3.38,7.49,7.49,7.49,7.49-3.38,7.49-7.49Z"/>
  <polyline class="cls-1" points="2318.1 1910.33 2376.73 1851.78 2510.79 1985.75"/>
  <polyline class="cls-1" points="2451.75 1901.1 2520.26 1832.68 2635.21 1947.63"/>
  <polyline class="cls-1" points="1943.43 1868.74 2011.94 1800.31 2119.73 1908.1"/>
  <circle class="cls-1" cx="1797.35" cy="1924.41" r="7.49"/>
  <path class="cls-1" d="M2150.94,1966.4c0-4.12-3.38-7.49-7.49-7.49s-7.49,3.38-7.49,7.49,3.38,7.49,7.49,7.49,7.49-3.38,7.49-7.49Z"/>
  <circle class="cls-1" cx="1878.71" cy="1924.41" r="7.49"/>
  <circle class="cls-1" cx="2360.1" cy="1924.41" r="7.49"/>
  <polyline class="cls-1" points="1809.79 1910.33 1868.42 1851.78 2002.47 1985.75"/>
  <polyline class="cls-1" points="1817.28 1882.17 1752.8 1817.69 1685.2 1885.38"/>
  <polyline class="cls-1" points="2115.94 1912.72 2183.63 1845.11 2248.11 1909.59 2298.17 1959.73"/>
  <polyline class="cls-1" points="2348.49 1939.31 2304.51 1983.28 2165.1 1983.28"/>
  <polyline class="cls-1" points="1943.43 1901.1 2011.94 1832.68 2126.9 1947.63"/>
  <polyline class="cls-1" points="628.06 1907.53 698.38 1837.2 838.69 1979.09 842.89 1983.28 982.39 1983.28 1026.36 1939.31"/>
  <polyline class="cls-1" points="2628.05 1907.53 2698.29 1837.2 2838.6 1979.09 2842.88 1983.28 2982.29 1983.28 3026.35 1939.31"/>
  <polyline class="cls-1" points="1466.57 1907.53 1536.81 1837.2 1677.13 1979.09 1681.41 1983.28 1820.82 1983.28 1864.79 1939.31"/>
  <polyline class="cls-1" points="628.06 1877.64 698.38 1807.31 841.08 1950.1"/>
  <polyline class="cls-1" points="2874.59 1868.74 2943.02 1800.31 3050.81 1908.1"/>
  <path class="cls-1" d="M3082.1,1966.4c0-4.12-3.38-7.49-7.49-7.49s-7.49,3.38-7.49,7.49,3.38,7.49,7.49,7.49,7.49-3.38,7.49-7.49Z"/>
  <circle class="cls-1" cx="3291.25" cy="1924.41" r="7.49"/>
  <path class="cls-1" d="M3233.69,1924.41c0-4.12-3.38-7.49-7.49-7.49s-7.49,3.38-7.49,7.49,3.38,7.49,7.49,7.49,7.49-3.38,7.49-7.49Z"/>
  <polyline class="cls-1" points="3047.02 1912.72 3114.7 1845.11 3179.18 1909.59 3229.33 1959.73"/>
  <polyline class="cls-1" points="3279.64 1939.31 3235.59 1983.28 3096.18 1983.28"/>
  <polyline class="cls-1" points="2874.59 1901.1 2943.02 1832.68 3057.97 1947.63"/>
  <polyline class="cls-1" points="3241.68 1907.53 3312 1837.2 3452.32 1979.09 3456.52 1983.28 3596.01 1983.28 3639.98 1939.31"/>
  <polyline class="cls-1" points="3241.68 1877.64 3312 1807.31 3454.71 1950.1"/>
  <polyline class="cls-1" points="1099.4 1868.74 1167.91 1800.31 1275.7 1908.1"/>
  <circle class="cls-1" cx="953.32" cy="1924.41" r="7.49"/>
  <path class="cls-1" d="M1306.91,1966.4c0-4.12-3.38-7.49-7.49-7.49s-7.49,3.38-7.49,7.49,3.38,7.49,7.49,7.49,7.49-3.38,7.49-7.49Z"/>
  <circle class="cls-1" cx="1034.67" cy="1924.41" r="7.49"/>
  <circle class="cls-1" cx="1516.06" cy="1924.41" r="7.49"/>
  <path class="cls-1" d="M1458.5,1924.41c0-4.12-3.38-7.49-7.49-7.49s-7.49,3.38-7.49,7.49,3.38,7.49,7.49,7.49,7.49-3.38,7.49-7.49Z"/>
  <polyline class="cls-1" points="965.75 1910.33 1024.38 1851.78 1158.44 1985.75"/>
  <polyline class="cls-1" points="973.25 1882.17 908.77 1817.69 841.08 1885.38"/>
  <polyline class="cls-1" points="1271.91 1912.72 1339.52 1845.11 1403.99 1909.59 1454.14 1959.73"/>
  <polyline class="cls-1" points="1504.45 1939.31 1460.48 1983.28 1320.99 1983.28"/>
  <polyline class="cls-1" points="1099.4 1901.1 1167.91 1832.68 1282.86 1947.63"/>
  <polyline class="cls-1" points="1466.57 1877.64 1536.81 1807.31 1679.6 1950.1"/>
  <polyline class="cls-1" points="3799.65 1868.74 3868.16 1800.31 3975.95 1908.1"/>
  <circle class="cls-1" cx="3653.57" cy="1924.41" r="7.49"/>
  <path class="cls-1" d="M4007.16,1966.4c0-4.12-3.38-7.49-7.49-7.49s-7.49,3.38-7.49,7.49,3.38,7.49,7.49,7.49,7.49-3.38,7.49-7.49Z"/>
  <path class="cls-1" d="M4158.84,1924.41c0-4.12-3.38-7.49-7.49-7.49s-7.49,3.38-7.49,7.49,3.38,7.49,7.49,7.49,7.49-3.38,7.49-7.49Z"/>
  <polyline class="cls-1" points="3666.09 1910.33 3724.63 1851.78 3858.69 1985.75"/>
  <polyline class="cls-1" points="3673.5 1882.17 3609.02 1817.69 3541.42 1885.38"/>
  <polyline class="cls-1" points="3972.16 1912.72 4039.85 1845.11 4104.32 1909.59 4154.47 1959.73"/>
  <polyline class="cls-1" points="4204.7 1939.31 4160.73 1983.28 4021.32 1983.28"/>
  <polyline class="cls-1" points="3799.65 1901.1 3868.16 1832.68 3983.11 1947.63"/>
</svg>