<?xml version="1.0" encoding="UTF-8"?>
<svg id="Layer_1" xmlns="http://www.w3.org/2000/svg" version="1.1" viewBox="0 0 1920 1080">
  <!-- Generator: Adobe Illustrator 29.0.1, SVG Export Plug-In . SVG Version: 2.1.0 Build 192)  -->
  <defs>
    <style>
      .st0, .st1, .st2, .st3, .st4, .st5 {
        stroke-miterlimit: 10;
        stroke-width: 5px;
      }

      .st0, .st1, .st3, .st4, .st5 {
        stroke: #601113;
      }

      .st0, .st6 {
        fill: #999;
      }

      .st1 {
        fill: #c02126;
      }

      .st7 {
        fill: #f2f2f2;
      }

      .st2 {
        stroke: #999;
      }

      .st2, .st4 {
        fill: none;
      }

      .st3, .st8 {
        fill: #d3d2d3;
      }

      .st9 {
        fill: #eff0f1;
      }

      .st10 {
        fill: #faf1f1;
      }

      .st5 {
        fill: #cc2b2b;
      }
    </style>
  </defs>
  <path class="st10" d="M1347.42,406.88c-8.14-17.28-16.67-34.52-29.35-55.17-13.14-21.4-40.1-61.75-96.26-115.04-64.75-61.44-113.22-107.44-191.35-129.13-25.03-6.95-55.26-15.01-93.91-9.39-57.11,8.3-98.36,41.48-125.61,63.39-6.04,4.86-24.46,22.87-61.04,58.7-65.31,63.95-63.63,63.62-71.61,69.26-44.3,31.33-91.15,38.1-136.17,44.61-61.44,8.88-69.37-2.28-116.22,10.57-20.75,5.69-58.17,15.95-92.74,45.78-53.81,46.44-66.06,110.44-72.78,145.57-11.96,62.5-2.03,112.14,3.52,138.52,5.75,27.33,23.88,98.77,81,167.87,7.61,9.2,36.68,43.5,84.52,76.3,29.43,20.19,53.04,36.37,86.87,45.78,74.14,20.63,157.34-2.42,210.13-37.57,13.89-9.25,28.05-20.91,55.17-34.04,28.44-13.77,53.02-25.67,83.35-24.65,22.44.76,45.4,13.04,90.39,37.57,23.47,12.8,27.44,16.22,72.78,43.43,70.96,42.58,85.13,48.52,97.43,52.83,16.21,5.67,42.53,14.65,76.3,15.26,74.73,1.34,128.86-39.36,143.22-50.48,51.05-39.53,71.64-88.48,81-111.52,30.05-74,21.63-139.45,15.26-189-10.62-82.55-38.74-142.28-93.91-259.43Z"/>
  <path class="st8" d="M480.64,435.89h19.9v6.09c0,.51-.42.93-.93.93h-18.04c-.51,0-.93-.42-.93-.93v-6.09h0Z" transform="translate(639.34 -202.18) rotate(61.2)"/>
  <path class="st6" d="M501.09,418.84h7.04c5.1,0,9.24,4.14,9.24,9.24v16.28h-25.51v-16.28c0-5.1,4.14-9.24,9.24-9.24Z" transform="translate(639.76 -218.51) rotate(61.2)"/>
  <path class="st8" d="M458.35,484.28h19.9v6.09c0,.51-.42.93-.93.93h-18.04c-.51,0-.93-.42-.93-.93v-6.09h0Z" transform="translate(745.96 -128.78) rotate(68.08)"/>
  <path class="st6" d="M479.63,470.96h7.04c5.1,0,9.24,4.14,9.24,9.24v16.28h-25.51v-16.28c0-5.1,4.14-9.24,9.24-9.24Z" transform="translate(751.48 -145.1) rotate(68.08)"/>
  <path class="st8" d="M543.88,489.39h19.9v6.09c0,.51-.42.93-.93.93h-18.04c-.51,0-.93-.42-.93-.93v-6.09h0Z" transform="translate(531.29 -248.16) rotate(46.59)"/>
  <path class="st6" d="M561.9,469.05h7.04c5.1,0,9.24,4.14,9.24,9.24v16.28h-25.51v-16.28c0-5.1,4.14-9.24,9.24-9.24Z" transform="translate(526.85 -260.04) rotate(46.59)"/>
  <path class="st2" d="M722.27,190.88c-8.24,27.66-21.9,61.93-45.23,97.34-55.28,83.89-131.39,123.33-169.12,139.62"/>
  <path class="st2" d="M724.24,305.92c-.22,5-3.25,54.66-43.26,78.66-37.93,22.76-93.22,12.93-113.08-18.68-11.12-17.7-14.54-47.66.98-60.96,11.72-10.04,33.12-9.63,46.21,0,28.26,20.79,18.9,85.33-3.93,126.84-12.21,22.19-27.88,37.09-39.33,46.21"/>
  <path class="st2" d="M732.11,246.92c-17.17,30.75-40.68,66.29-72.76,102.26-61.95,69.47-128.93,110.37-176.01,133.72"/>
  <line class="st4" x1="368.77" y1="934.05" x2="1382.25" y2="934.05"/>
  <rect class="st3" x="601.83" y="693.79" width="208.3" height="208.3" rx="18.66" ry="18.66"/>
  <g>
    <circle class="st0" cx="705.98" cy="797.26" r="86.88"/>
    <circle class="st0" cx="705.98" cy="797.26" r="71.17"/>
    <circle class="st0" cx="705.98" cy="797.26" r="55.33"/>
    <line class="st0" x1="733.17" y1="770.06" x2="768.04" y2="735.2"/>
    <line class="st0" x1="681.15" y1="769.01" x2="646.29" y2="734.14"/>
    <line class="st0" x1="768.72" y1="856.57" x2="733.85" y2="821.71"/>
    <line class="st0" x1="643.74" y1="857.71" x2="678.6" y2="822.85"/>
  </g>
  <circle class="st0" cx="705.98" cy="795.83" r="37.41"/>
  <path class="st3" d="M715.81,164.93l305.72-94.01c26.76-3.4,47.44,9.02,47.44,30.19v801.25c0,16.34-13.25,29.59-29.59,29.59h-305.79c-16.34,0-29.59-13.25-29.59-29.59V186.99c0-8.87,4.43-17.14,11.81-22.06Z"/>
  <path class="st5" d="M771.86,872.72c0-6.54-5.3-11.84-11.84-11.84-6.54,0-11.84,5.3-11.84,11.84,0,6.54,5.3,11.84,11.84,11.84,6.54,0,11.84-5.3,11.84-11.84Z"/>
  <path class="st5" d="M1021.53,872.72c0-6.54-5.3-11.84-11.84-11.84s-11.84,5.3-11.84,11.84c0,6.54,5.3,11.84,11.84,11.84s11.84-5.3,11.84-11.84Z"/>
  <g>
    <circle class="st5" cx="770.02" cy="252.09" r="10.99"/>
    <circle class="st5" cx="770.63" cy="280.5" r="10.99"/>
    <circle class="st5" cx="771.24" cy="308.91" r="10.99"/>
    <circle class="st5" cx="771.85" cy="337.31" r="10.99"/>
    <circle class="st5" cx="772.46" cy="365.72" r="10.99"/>
    <circle class="st5" cx="808.91" cy="252.09" r="10.99"/>
    <circle class="st5" cx="809.52" cy="280.5" r="10.99"/>
    <circle class="st5" cx="810.13" cy="308.91" r="10.99"/>
    <circle class="st5" cx="810.74" cy="337.31" r="10.99"/>
    <circle class="st5" cx="811.35" cy="365.72" r="10.99"/>
    <circle class="st5" cx="846.97" cy="252.09" r="10.99"/>
    <circle class="st5" cx="847.58" cy="280.5" r="10.99"/>
    <circle class="st5" cx="848.19" cy="308.91" r="10.99"/>
    <circle class="st5" cx="848.8" cy="337.31" r="10.99"/>
    <circle class="st5" cx="849.41" cy="365.72" r="10.99"/>
    <circle class="st5" cx="884.9" cy="252.09" r="10.99"/>
    <circle class="st5" cx="885.51" cy="280.5" r="10.99"/>
    <circle class="st5" cx="886.12" cy="308.91" r="10.99"/>
    <circle class="st5" cx="886.73" cy="337.31" r="10.99"/>
    <circle class="st5" cx="887.34" cy="365.72" r="10.99"/>
    <circle class="st5" cx="923.92" cy="252.09" r="10.99"/>
    <circle class="st5" cx="924.53" cy="280.5" r="10.99"/>
    <circle class="st5" cx="925.14" cy="308.91" r="10.99"/>
    <circle class="st5" cx="925.75" cy="337.31" r="10.99"/>
    <circle class="st5" cx="926.36" cy="365.72" r="10.99"/>
    <circle class="st5" cx="963.92" cy="252.09" r="10.99"/>
    <circle class="st5" cx="964.53" cy="280.5" r="10.99"/>
    <circle class="st5" cx="965.14" cy="308.91" r="10.99"/>
    <circle class="st5" cx="965.75" cy="337.31" r="10.99"/>
    <circle class="st5" cx="966.36" cy="365.72" r="10.99"/>
    <circle class="st5" cx="1003.27" cy="252.09" r="10.99"/>
    <circle class="st5" cx="1003.88" cy="280.5" r="10.99"/>
    <circle class="st5" cx="1004.49" cy="308.91" r="10.99"/>
    <circle class="st5" cx="1005.1" cy="337.31" r="10.99"/>
    <circle class="st5" cx="1005.71" cy="365.72" r="10.99"/>
  </g>
  <g>
    <circle class="st5" cx="770.02" cy="408.95" r="10.99"/>
    <circle class="st5" cx="770.63" cy="437.36" r="10.99"/>
    <circle class="st5" cx="771.24" cy="465.77" r="10.99"/>
    <circle class="st5" cx="771.85" cy="494.18" r="10.99"/>
    <circle class="st5" cx="772.46" cy="522.59" r="10.99"/>
    <circle class="st5" cx="808.91" cy="408.95" r="10.99"/>
    <circle class="st5" cx="809.52" cy="437.36" r="10.99"/>
    <circle class="st5" cx="810.13" cy="465.77" r="10.99"/>
    <circle class="st5" cx="810.74" cy="494.18" r="10.99"/>
    <circle class="st5" cx="811.35" cy="522.59" r="10.99"/>
    <circle class="st5" cx="846.97" cy="408.95" r="10.99"/>
    <circle class="st5" cx="847.58" cy="437.36" r="10.99"/>
    <circle class="st5" cx="848.19" cy="465.77" r="10.99"/>
    <circle class="st5" cx="848.8" cy="494.18" r="10.99"/>
    <circle class="st5" cx="849.41" cy="522.59" r="10.99"/>
    <circle class="st5" cx="884.9" cy="408.95" r="10.99"/>
    <circle class="st5" cx="885.51" cy="437.36" r="10.99"/>
    <circle class="st5" cx="886.12" cy="465.77" r="10.99"/>
    <circle class="st5" cx="886.73" cy="494.18" r="10.99"/>
    <circle class="st5" cx="887.34" cy="522.59" r="10.99"/>
    <circle class="st5" cx="923.92" cy="408.95" r="10.99"/>
    <circle class="st5" cx="924.53" cy="437.36" r="10.99"/>
    <circle class="st5" cx="925.14" cy="465.77" r="10.99"/>
    <circle class="st5" cx="925.75" cy="494.18" r="10.99"/>
    <circle class="st5" cx="926.36" cy="522.59" r="10.99"/>
    <circle class="st5" cx="963.92" cy="408.95" r="10.99"/>
    <circle class="st5" cx="964.53" cy="437.36" r="10.99"/>
    <circle class="st5" cx="965.14" cy="465.77" r="10.99"/>
    <circle class="st5" cx="965.75" cy="494.18" r="10.99"/>
    <circle class="st5" cx="966.36" cy="522.59" r="10.99"/>
    <circle class="st5" cx="1003.27" cy="408.95" r="10.99"/>
    <circle class="st5" cx="1003.88" cy="437.36" r="10.99"/>
    <circle class="st5" cx="1004.49" cy="465.77" r="10.99"/>
    <circle class="st5" cx="1005.1" cy="494.18" r="10.99"/>
    <circle class="st5" cx="1005.71" cy="522.59" r="10.99"/>
  </g>
  <g>
    <circle class="st5" cx="770.02" cy="568.81" r="10.99"/>
    <circle class="st5" cx="770.63" cy="597.21" r="10.99"/>
    <circle class="st5" cx="771.24" cy="625.62" r="10.99"/>
    <circle class="st5" cx="771.85" cy="654.03" r="10.99"/>
    <circle class="st5" cx="772.46" cy="682.44" r="10.99"/>
    <circle class="st5" cx="808.91" cy="568.81" r="10.99"/>
    <circle class="st5" cx="809.52" cy="597.21" r="10.99"/>
    <circle class="st5" cx="810.13" cy="625.62" r="10.99"/>
    <circle class="st5" cx="810.74" cy="654.03" r="10.99"/>
    <circle class="st5" cx="811.35" cy="682.44" r="10.99"/>
    <circle class="st5" cx="846.97" cy="568.81" r="10.99"/>
    <circle class="st5" cx="847.58" cy="597.21" r="10.99"/>
    <circle class="st5" cx="848.19" cy="625.62" r="10.99"/>
    <circle class="st5" cx="848.8" cy="654.03" r="10.99"/>
    <circle class="st5" cx="849.41" cy="682.44" r="10.99"/>
    <circle class="st5" cx="884.9" cy="568.81" r="10.99"/>
    <circle class="st5" cx="885.51" cy="597.21" r="10.99"/>
    <circle class="st5" cx="886.12" cy="625.62" r="10.99"/>
    <circle class="st5" cx="886.73" cy="654.03" r="10.99"/>
    <circle class="st5" cx="887.34" cy="682.44" r="10.99"/>
    <circle class="st5" cx="923.92" cy="568.81" r="10.99"/>
    <circle class="st5" cx="924.53" cy="597.21" r="10.99"/>
    <circle class="st5" cx="925.14" cy="625.62" r="10.99"/>
    <circle class="st5" cx="925.75" cy="654.03" r="10.99"/>
    <circle class="st5" cx="926.36" cy="682.44" r="10.99"/>
    <circle class="st5" cx="963.92" cy="568.81" r="10.99"/>
    <circle class="st5" cx="964.53" cy="597.21" r="10.99"/>
    <circle class="st5" cx="965.14" cy="625.62" r="10.99"/>
    <circle class="st5" cx="965.75" cy="654.03" r="10.99"/>
    <circle class="st5" cx="966.36" cy="682.44" r="10.99"/>
    <circle class="st5" cx="1003.27" cy="568.81" r="10.99"/>
    <circle class="st5" cx="1003.88" cy="597.21" r="10.99"/>
    <circle class="st5" cx="1004.49" cy="625.62" r="10.99"/>
    <circle class="st5" cx="1005.1" cy="654.03" r="10.99"/>
    <circle class="st5" cx="1005.71" cy="682.44" r="10.99"/>
  </g>
  <g>
    <circle class="st5" cx="770.02" cy="734.43" r="10.99"/>
    <circle class="st5" cx="770.63" cy="762.84" r="10.99"/>
    <circle class="st5" cx="771.24" cy="791.24" r="10.99"/>
    <circle class="st5" cx="771.85" cy="819.65" r="10.99"/>
    <circle class="st5" cx="772.46" cy="848.06" r="10.99"/>
    <circle class="st5" cx="808.91" cy="734.43" r="10.99"/>
    <circle class="st5" cx="809.52" cy="762.84" r="10.99"/>
    <circle class="st5" cx="810.13" cy="791.24" r="10.99"/>
    <circle class="st5" cx="810.74" cy="819.65" r="10.99"/>
    <circle class="st5" cx="811.35" cy="848.06" r="10.99"/>
    <circle class="st5" cx="846.97" cy="734.43" r="10.99"/>
    <circle class="st5" cx="847.58" cy="762.84" r="10.99"/>
    <circle class="st5" cx="848.19" cy="791.24" r="10.99"/>
    <circle class="st5" cx="848.8" cy="819.65" r="10.99"/>
    <circle class="st5" cx="849.41" cy="848.06" r="10.99"/>
    <circle class="st5" cx="884.9" cy="734.43" r="10.99"/>
    <circle class="st5" cx="885.51" cy="762.84" r="10.99"/>
    <circle class="st5" cx="886.12" cy="791.24" r="10.99"/>
    <circle class="st5" cx="886.73" cy="819.65" r="10.99"/>
    <circle class="st5" cx="887.34" cy="848.06" r="10.99"/>
    <circle class="st5" cx="923.92" cy="734.43" r="10.99"/>
    <circle class="st5" cx="924.53" cy="762.84" r="10.99"/>
    <circle class="st5" cx="925.14" cy="791.24" r="10.99"/>
    <circle class="st5" cx="925.75" cy="819.65" r="10.99"/>
    <circle class="st5" cx="926.36" cy="848.06" r="10.99"/>
    <circle class="st5" cx="963.92" cy="734.43" r="10.99"/>
    <circle class="st5" cx="964.53" cy="762.84" r="10.99"/>
    <circle class="st5" cx="965.14" cy="791.24" r="10.99"/>
    <circle class="st5" cx="965.75" cy="819.65" r="10.99"/>
    <circle class="st5" cx="966.36" cy="848.06" r="10.99"/>
    <circle class="st5" cx="1003.27" cy="734.43" r="10.99"/>
    <circle class="st5" cx="1003.88" cy="762.84" r="10.99"/>
    <circle class="st5" cx="1004.49" cy="791.24" r="10.99"/>
    <circle class="st5" cx="1005.1" cy="819.65" r="10.99"/>
    <circle class="st5" cx="1005.71" cy="848.06" r="10.99"/>
  </g>
  <circle class="st5" cx="760.03" cy="814.66" r="11.84"/>
  <rect class="st9" x="725.18" y="135.96" width="322.61" height="9.73" rx="3.52" ry="3.52" transform="translate(-4.41 250.31) rotate(-16.03)"/>
  <rect class="st3" x="518.41" y="792.85" width="335.58" height="140.28" rx="17.02" ry="17.02"/>
  <circle class="st0" cx="595.69" cy="862.99" r="56.56"/>
  <circle class="st1" cx="595.23" cy="862.53" r="36.95"/>
  <polygon class="st0" points="671.17 896.68 852.74 910.49 852.74 814.57 671.17 828.38 671.17 896.68"/>
  <circle class="st7" cx="676.59" cy="815.84" r="4.17"/>
  <circle class="st7" cx="537.75" cy="810.94" r="4.17"/>
  <circle class="st7" cx="537.75" cy="916.78" r="4.17"/>
  <circle class="st7" cx="835.38" cy="805.41" r="4.17"/>
  <circle class="st7" cx="835.38" cy="920.93" r="4.17"/>
  <circle class="st7" cx="676.59" cy="909.56" r="4.17"/>
  <rect class="st0" x="925.76" y="747.9" width="295.28" height="182.89" rx="8.42" ry="8.42"/>
  <polyline class="st4" points="977.41 747.56 995.78 758.94 1021.36 758.94 1039.28 747.84"/>
  <polyline class="st4" points="1100.6 930.78 1081.07 901.25 1003.76 901.25 985.33 929.12"/>
  <polyline class="st4" points="1050.34 747.9 1133.09 799.15 1133.09 930.78"/>
  <polyline class="st4" points="1201.72 747.9 1201.72 772.33 1157.27 799.86 1157.27 863.36 1203.63 892.08 1203.63 930.78"/>
  <polyline class="st4" points="959.81 747.9 959.81 777.87 1013.31 811.01 1013.31 878.43 951.83 878.43 951.83 905.76 925.76 905.76"/>
  <circle class="st1" cx="1146.59" cy="770.84" r="10.68"/>
  <rect class="st3" x="910.09" y="768.64" width="31.34" height="20.78" rx="3.65" ry="3.65"/>
  <rect class="st3" x="910.09" y="815.13" width="31.34" height="20.78" rx="3.65" ry="3.65"/>
  <rect class="st3" x="910.09" y="840.26" width="31.34" height="20.78" rx="3.65" ry="3.65"/>
  <rect class="st3" x="910.09" y="791.32" width="31.34" height="20.78" rx="3.65" ry="3.65"/>
  <rect class="st3" x="942.24" y="917.22" width="29.18" height="17.65" rx="2.35" ry="2.35"/>
  <rect class="st3" x="975.94" y="917.22" width="29.18" height="17.65" rx="2.35" ry="2.35"/>
  <rect class="st3" x="1009.44" y="917.22" width="29.18" height="17.65" rx="2.35" ry="2.35"/>
  <rect class="st3" x="1042.22" y="917.22" width="29.18" height="17.65" rx="2.35" ry="2.35"/>
</svg>