<?xml version="1.0" encoding="UTF-8"?>
<svg id="Layer_1" xmlns="http://www.w3.org/2000/svg" version="1.1" viewBox="0 0 1920 1080">
  <!-- Generator: Adobe Illustrator 29.0.1, SVG Export Plug-In . SVG Version: 2.1.0 Build 192)  -->
  <defs>
    <style>
      .st0 {
        fill: #f8f4f4;
      }

      .st1 {
        fill: #d3d2d3;
      }

      .st1, .st2, .st3, .st4 {
        stroke: #601113;
        stroke-miterlimit: 10;
        stroke-width: 5px;
      }

      .st5, .st3 {
        fill: #faf1f1;
      }

      .st2 {
        fill: none;
      }

      .st6 {
        fill: #999;
      }

      .st4 {
        fill: #cc2b2b;
      }
    </style>
  </defs>
  <path class="st5" d="M1447.01,368.38c-8.14-17.28-16.67-34.52-29.35-55.17-13.14-21.4-40.1-61.75-96.26-115.04-64.75-61.44-113.22-107.44-191.35-129.13-25.03-6.95-55.26-15.01-93.91-9.39-57.11,8.3-98.36,41.48-125.61,63.39-6.04,4.86-24.46,22.87-61.04,58.7-65.31,63.95-63.63,63.62-71.61,69.26-44.3,31.33-91.15,38.1-136.17,44.61-61.44,8.88-69.37-2.28-116.22,10.57-20.75,5.69-58.17,15.95-92.74,45.78-53.81,46.44-66.06,110.44-72.78,145.57-11.96,62.5-2.03,112.14,3.52,138.52,5.75,27.33,23.88,98.77,81,167.87,7.61,9.2,36.68,43.5,84.52,76.3,29.43,20.19,53.04,36.37,86.87,45.78,74.14,20.63,157.34-2.42,210.13-37.57,13.89-9.25,28.05-20.91,55.17-34.04,28.44-13.77,53.02-25.67,83.35-24.65,22.44.76,45.4,13.04,90.39,37.57,23.47,12.8,27.44,16.22,72.78,43.43,70.96,42.58,85.13,48.52,97.43,52.83,16.21,5.67,42.53,14.65,76.3,15.26,74.73,1.34,128.86-39.36,143.22-50.48,51.05-39.53,71.64-88.48,81-111.52,30.05-74,21.63-139.45,15.26-189-10.62-82.55-38.74-142.28-93.91-259.43Z"/>
  <path class="st6" d="M724.72,122.64h624.34v755.03h-624.34c-64.3,0-116.5-52.2-116.5-116.5V239.14c0-64.3,52.2-116.5,116.5-116.5Z"/>
  <line class="st2" x1="468.36" y1="890.55" x2="1481.84" y2="890.55"/>
  <rect class="st3" x="1051.25" y="240.39" width="40.1" height="186.6" rx="5.82" ry="5.82"/>
  <rect class="st3" x="812.32" y="243.73" width="40.1" height="186.6" rx="5.82" ry="5.82"/>
  <rect class="st3" x="881.56" y="239.09" width="141.62" height="189.21" rx="19.37" ry="19.37"/>
  <rect class="st3" x="726.91" y="586.7" width="298.86" height="233.32" rx="19.37" ry="19.37"/>
  <rect class="st3" x="1183.73" y="656.42" width="117.78" height="157.36" rx="19.37" ry="19.37"/>
  <rect class="st3" x="1183.73" y="586.7" width="117.78" height="52.63" rx="10.01" ry="10.01"/>
  <rect class="st4" x="686.62" y="609.49" width="485.96" height="15.42" transform="translate(-154.82 880.11) rotate(-47.21)"/>
  <rect class="st4" x="722.62" y="604.49" width="485.96" height="15.42" transform="translate(-139.61 904.93) rotate(-47.21)"/>
  <rect class="st4" x="754.49" y="604.49" width="485.96" height="15.42" transform="translate(-129.39 928.31) rotate(-47.21)"/>
  <path class="st4" d="M767.07,255.32c110.12-154.3,245.92-181.79,407.38-82.47l3.69,18.23c-155.51-94.71-292.03-71.73-407.38,82.47l-3.69-18.23Z"/>
  <path class="st4" d="M777.79,285.39c110.12-154.3,245.92-181.79,407.38-82.47l3.69,18.23c-155.51-94.71-292.03-71.73-407.38,82.47l-3.69-18.23Z"/>
  <path class="st4" d="M786.78,315.46c110.12-154.3,245.92-181.79,407.38-82.47l3.69,18.23c-155.51-94.71-292.03-71.73-407.38,82.47l-3.69-18.23Z"/>
  <path class="st4" d="M791.93,345.91c110.12-154.3,245.92-181.79,407.38-82.47l3.69,18.23c-155.51-94.71-292.03-71.73-407.38,82.47l-3.69-18.23Z"/>
  <rect class="st4" x="782.87" y="609.49" width="485.96" height="15.42" transform="translate(-123.96 950.75) rotate(-47.21)"/>
  <rect class="st4" x="932.77" y="779.71" width="65.67" height="13.72" transform="translate(-100.59 142.91) rotate(-8.05)"/>
  <rect class="st4" x="932.77" y="801.46" width="65.67" height="13.72" transform="translate(-103.64 143.12) rotate(-8.05)"/>
  <rect class="st4" x="932.77" y="821.72" width="65.67" height="13.72" transform="translate(-106.48 143.32) rotate(-8.05)"/>
  <rect class="st4" x="932.77" y="843.82" width="65.67" height="13.72" transform="translate(-109.57 143.54) rotate(-8.05)"/>
  <rect class="st6" x="1006.04" y="768.39" width="234.25" height="103.26"/>
  <path class="st1" d="M1245.77,746.62h-253.78c-7.4,0-13.4,6-13.4,13.4v111.64h27.45v-42.66h226.21v42.66h26.92v-111.64c0-7.4-6-13.4-13.4-13.4ZM1232.25,812.52h-226.21v-38.46h226.21v38.46Z"/>
  <path class="st1" d="M1349.05,153.07c0-7.79-6.75-14.1-15.08-14.1h-252.4c42.64,159.12,16.62,267.72-10.27,304.21h134.04v1.5c0,8.55,6.93,15.47,15.47,15.47h22.89c8.55,0,15.47-6.93,15.47-15.47v-1.5h89.89V153.07Z"/>
  <path class="st1" d="M940.17,760.34l-208.93,29.89c-6.74,0-12.2,5.46-12.2,12.2v63.89h233.33v-93.78c0-6.74-5.46-12.2-12.2-12.2Z"/>
  <path class="st1" d="M706.89,131.86h90.83v288.84c0,15.55-12.62,28.17-28.17,28.17h-164.79v-214.88c0-56.37,45.76-102.13,102.13-102.13Z"/>
  <path class="st1" d="M1337.85,111.52h-626.71c-62.32,0-112.84,50.52-112.84,112.84v553.52c0,62.32,50.52,112.84,112.84,112.84h626.71c16.84,0,30.5-13.65,30.5-30.5V142.02c0-16.84-13.65-30.5-30.5-30.5ZM1340.22,853.69c0,6.97-5.65,12.62-12.62,12.62h-608.41c-52.45,0-94.96-42.52-94.96-94.96V233.93c0-52.45,42.52-94.96,94.96-94.96h608.41c6.97,0,12.62,5.65,12.62,12.62v702.1Z"/>
  <rect class="st0" x="830.93" y="692.32" width="7.46" height="200.92" rx="3.5" ry="3.5" transform="translate(166.52 1730.18) rotate(-98.05)"/>
  <rect class="st0" x="767.07" y="175.79" width="8.77" height="235.57" rx="4.11" ry="4.11"/>
  <rect class="st0" x="1310.29" y="175.79" width="8.77" height="235.57" rx="4.11" ry="4.11"/>
  <path class="st4" d="M1125.92,408.63l-13.94-.77c24.01-70.91,27.95-142.2,11.8-213.85l13.94.77c19.93,71.63,15.68,142.92-11.8,213.85Z"/>
  <path class="st4" d="M1154.86,405.9l-13.94-.77c24.09-72.27,28.1-144.9,12.02-217.88l13.94.77c19.85,72.96,15.53,145.59-12.02,217.88Z"/>
  <path class="st4" d="M1183.61,401.89l-13.94-.77c24.14-73.26,28.21-146.87,12.18-220.83l13.94.77c19.8,73.93,15.42,147.54-12.18,220.83Z"/>
  <path class="st4" d="M1212.87,399.12l-13.94-.77c24.15-73.46,28.23-147.27,12.22-221.42l13.94.77c19.79,74.12,15.4,147.93-12.22,221.42Z"/>
  <rect class="st1" x="1115.93" y="185.19" width="120.29" height="22.55" rx="2.74" ry="2.74" transform="translate(2368.37 210.52) rotate(171.19)"/>
  <path class="st1" d="M1205.68,159.09h19.9v17.28c0,1.45-1.18,2.62-2.62,2.62h-14.65c-1.45,0-2.62-1.18-2.62-2.62v-17.28h0Z" transform="translate(2442.81 149.92) rotate(171.19)"/>
  <path class="st1" d="M1179.04,163.22h19.9v17.28c0,1.45-1.18,2.62-2.62,2.62h-14.65c-1.45,0-2.62-1.18-2.62-2.62v-17.28h0Z" transform="translate(2390.48 162.21) rotate(171.19)"/>
  <path class="st1" d="M1150.23,167.68h19.9v17.28c0,1.45-1.18,2.62-2.62,2.62h-14.65c-1.45,0-2.62-1.18-2.62-2.62v-17.28h0Z" transform="translate(2333.88 175.5) rotate(171.19)"/>
  <path class="st1" d="M1122.82,171.93h19.9v17.28c0,1.45-1.18,2.62-2.62,2.62h-14.65c-1.45,0-2.62-1.18-2.62-2.62v-17.28h0Z" transform="translate(2280.02 188.14) rotate(171.19)"/>
  <rect class="st1" x="1103.24" y="382.2" width="120.29" height="22.55" rx="2.74" ry="2.74" transform="translate(2.48 -7.25) rotate(.36)"/>
  <path class="st1" d="M1110.01,404.31h19.9v17.28c0,1.45-1.18,2.62-2.62,2.62h-14.65c-1.45,0-2.62-1.18-2.62-2.62v-17.28h0Z" transform="translate(2.6 -6.98) rotate(.36)"/>
  <path class="st1" d="M1136.97,404.48h19.9v17.28c0,1.45-1.18,2.62-2.62,2.62h-14.65c-1.45,0-2.62-1.18-2.62-2.62v-17.28h0Z" transform="translate(2.61 -7.14) rotate(.36)"/>
  <path class="st1" d="M1166.13,404.66h19.9v17.28c0,1.45-1.18,2.62-2.62,2.62h-14.65c-1.45,0-2.62-1.18-2.62-2.62v-17.28h0Z" transform="translate(2.61 -7.32) rotate(.36)"/>
  <path class="st1" d="M1193.87,404.83h19.9v17.28c0,1.45-1.18,2.62-2.62,2.62h-14.65c-1.45,0-2.62-1.18-2.62-2.62v-17.28h0Z" transform="translate(2.61 -7.5) rotate(.36)"/>
</svg>