<?xml version="1.0" encoding="UTF-8"?>
<svg id="Layer_2" data-name="Layer 2" xmlns="http://www.w3.org/2000/svg" xmlns:xlink="http://www.w3.org/1999/xlink" viewBox="0 0 500 500">
  <defs>
    <style>
      .cls-1 {
        filter: url(#drop-shadow-28);
      }

      .cls-2 {
        fill: #fff;
        filter: url(#drop-shadow-25);
      }

      .cls-3 {
        fill: #bf2026;
        filter: url(#drop-shadow-24);
      }

      .cls-4 {
        filter: url(#drop-shadow-31);
      }

      .cls-5 {
        stroke: #bf2026;
      }

      .cls-5, .cls-6 {
        fill: none;
        stroke-miterlimit: 10;
        stroke-width: 2px;
      }

      .cls-7 {
        filter: url(#drop-shadow-30);
      }

      .cls-6 {
        stroke: #fff;
      }

      .cls-8 {
        filter: url(#drop-shadow-26);
      }

      .cls-9 {
        filter: url(#drop-shadow-29);
      }

      .cls-10 {
        filter: url(#drop-shadow-27);
      }
    </style>
    <filter id="drop-shadow-24" x="77" y="46" width="365" height="416" filterUnits="userSpaceOnUse">
      <feOffset dx="-4" dy="4"/>
      <feGaussianBlur result="blur" stdDeviation="5"/>
      <feFlood flood-color="#000" flood-opacity=".75"/>
      <feComposite in2="blur" operator="in"/>
      <feComposite in="SourceGraphic"/>
    </filter>
    <filter id="drop-shadow-25" x="135" y="114" width="278" height="187" filterUnits="userSpaceOnUse">
      <feOffset dx="-1" dy="1"/>
      <feGaussianBlur result="blur-2" stdDeviation="4"/>
      <feFlood flood-color="#000" flood-opacity=".75"/>
      <feComposite in2="blur-2" operator="in"/>
      <feComposite in="SourceGraphic"/>
    </filter>
    <filter id="drop-shadow-26" x="253" y="277" width="88" height="99" filterUnits="userSpaceOnUse">
      <feOffset dx="0" dy="0"/>
      <feGaussianBlur result="blur-3" stdDeviation="2"/>
      <feFlood flood-color="#000" flood-opacity=".75"/>
      <feComposite in2="blur-3" operator="in"/>
      <feComposite in="SourceGraphic"/>
    </filter>
    <filter id="drop-shadow-27" x="122" y="248" width="60" height="79" filterUnits="userSpaceOnUse">
      <feOffset dx="0" dy="0"/>
      <feGaussianBlur result="blur-4" stdDeviation="2"/>
      <feFlood flood-color="#000" flood-opacity=".75"/>
      <feComposite in2="blur-4" operator="in"/>
      <feComposite in="SourceGraphic"/>
    </filter>
    <filter id="drop-shadow-28" x="178" y="266" width="85" height="112" filterUnits="userSpaceOnUse">
      <feOffset dx="0" dy="0"/>
      <feGaussianBlur result="blur-5" stdDeviation="2"/>
      <feFlood flood-color="#000" flood-opacity=".75"/>
      <feComposite in2="blur-5" operator="in"/>
      <feComposite in="SourceGraphic"/>
    </filter>
    <filter id="drop-shadow-29" x="232" y="124" width="84" height="156" filterUnits="userSpaceOnUse">
      <feOffset dx="0" dy="0"/>
      <feGaussianBlur result="blur-6" stdDeviation="2"/>
      <feFlood flood-color="#000" flood-opacity=".75"/>
      <feComposite in2="blur-6" operator="in"/>
      <feComposite in="SourceGraphic"/>
    </filter>
    <filter id="drop-shadow-30" x="167" y="150" width="64" height="114" filterUnits="userSpaceOnUse">
      <feOffset dx="0" dy="0"/>
      <feGaussianBlur result="blur-7" stdDeviation="2"/>
      <feFlood flood-color="#000" flood-opacity=".75"/>
      <feComposite in2="blur-7" operator="in"/>
      <feComposite in="SourceGraphic"/>
    </filter>
    <filter id="drop-shadow-31" x="285" y="171" width="81" height="122" filterUnits="userSpaceOnUse">
      <feOffset dx="0" dy="0"/>
      <feGaussianBlur result="blur-8" stdDeviation="2"/>
      <feFlood flood-color="#000" flood-opacity=".75"/>
      <feComposite in2="blur-8" operator="in"/>
      <feComposite in="SourceGraphic"/>
    </filter>
  </defs>
  <polygon class="cls-3" points="96.69 153.7 96.69 346.3 263.48 442.59 430.27 346.3 430.27 153.7 263.48 57.41 96.69 153.7"/>
  <path class="cls-2" d="M380.12,224.87c.29-1.52.52-3.06.65-4.63,2.11-24.14-15.59-45.43-39.63-47.84-4.63-24.61-25.13-44.16-51.3-46.45-24.63-2.15-46.97,11.62-56.88,32.77-2.24-.56-4.56-.96-6.94-1.17-24.33-2.13-45.78,15.88-47.91,40.21,0,.09,0,.18-.02.27-15.23-.1-28.24,11.52-29.58,26.96-1.42,16.25,10.61,30.58,26.86,32,6.67.58,13.02-1.1,18.28-4.42,5,6.6,12.66,11.15,21.56,11.93,4.53.4,8.91-.23,12.92-1.68,7.28,9.72,18.5,16.42,31.55,17.56,8.39.73,16.44-.93,23.48-4.42,6.86,6.12,15.69,10.15,25.55,11.01,13.29,1.16,25.71-3.69,34.6-12.29,5.31,6.97,13.43,11.76,22.85,12.58,17.75,1.55,33.39-11.58,34.94-29.33,1.3-14.83-7.66-28.18-20.99-33.08Z"/>
  <g class="cls-8">
    <line class="cls-6" x1="304.58" y1="284.23" x2="269.09" y2="357.05"/>
    <circle class="cls-6" cx="266.28" cy="362.61" r="5.56"/>
    <circle class="cls-6" cx="328.38" cy="329.9" r="5.56"/>
    <line class="cls-6" x1="288.91" y1="316.38" x2="322.83" y2="327.43"/>
  </g>
  <g class="cls-10">
    <line class="cls-6" x1="174.93" y1="255.29" x2="149.29" y2="307.89"/>
    <circle class="cls-6" cx="145.94" cy="313.45" r="5.56"/>
    <circle class="cls-6" cx="134.82" cy="271.85" r="5.56"/>
    <line class="cls-6" x1="162.11" y1="281.59" x2="140.38" y2="273.23"/>
  </g>
  <g class="cls-1">
    <line class="cls-6" x1="239.16" y1="273.23" x2="193.43" y2="359.52"/>
    <circle class="cls-6" cx="190.83" cy="365.08" r="5.56"/>
    <circle class="cls-6" cx="244.72" cy="327.43" r="5.56"/>
    <polyline class="cls-6" points="226.56 297.02 255.52 305.26 247.17 321.91"/>
  </g>
  <g class="cls-9">
    <line class="cls-5" x1="308.57" y1="130.86" x2="239.16" y2="273.23"/>
    <circle class="cls-5" cx="246.6" cy="204.39" r="5.56"/>
    <polyline class="cls-5" points="285.46 178.26 263.48 171.17 250 199.35"/>
  </g>
  <g class="cls-7">
    <line class="cls-5" x1="222.53" y1="157.4" x2="174.05" y2="256.85"/>
    <circle class="cls-5" cx="218.3" cy="234.14" r="5.56"/>
    <line class="cls-5" x1="189.62" y1="224.91" x2="212.74" y2="232.26"/>
  </g>
  <g class="cls-4">
    <line class="cls-5" x1="359.09" y1="178.26" x2="303.72" y2="286.25"/>
    <circle class="cls-5" cx="298.16" cy="228.58" r="5.56"/>
    <line class="cls-5" x1="328.38" y1="238.14" x2="303.72" y2="230.39"/>
  </g>
</svg>