<?xml version="1.0" encoding="UTF-8"?>
<svg id="Layer_1" data-name="Layer 1" xmlns="http://www.w3.org/2000/svg" viewBox="0 0 4200 2000">
  <defs>
    <style>
      .cls-1 {
        fill: #bf2026;
      }

      .cls-2 {
        opacity: .75;
      }

      .cls-2, .cls-3, .cls-4, .cls-5 {
        fill: #a01721;
      }

      .cls-4 {
        opacity: .5;
      }

      .cls-5 {
        opacity: .25;
      }
    </style>
  </defs>
  <rect class="cls-1" width="4200" height="2000"/>
  <path class="cls-3" d="M4171.3,155.59h-55.54c-2.58-6.23-5.72-12.16-9.34-17.76l37.16-37.16c2.05-2.05,2.05-5.38,0-7.44l-37.16-37.16c-2.05-2.05-5.38-2.05-7.44,0l-40.53,40.53c-4.54-2.04-9.24-3.79-14.08-5.22v-55.33c0-2.9-2.35-5.26-5.26-5.26h-52.55c-2.9,0-5.26,2.35-5.26,5.26v55.33c-4.84,1.43-9.54,3.18-14.08,5.22l-40.53-40.53c-2.05-2.05-5.38-2.05-7.44,0l-37.16,37.16c-2.05,2.05-2.05,5.38,0,7.44l37.16,37.16c-3.62,5.6-6.76,11.53-9.34,17.76h-55.54c-2.9,0-5.26,2.35-5.26,5.26v52.55c0,2.9,2.35,5.26,5.26,5.26h48.99c1.63,8.79,4.3,17.22,7.87,25.16l-39.92,39.92c-2.05,2.05-2.05,5.38,0,7.44l37.16,37.16c2.05,2.05,5.38,2.05,7.44,0l36.56-36.56c8.83,5.71,18.52,10.2,28.83,13.24v53.31c0,2.9,2.35,5.26,5.26,5.26h52.55c2.9,0,5.26-2.35,5.26-5.26v-53.31c10.32-3.04,20-7.53,28.83-13.24l36.56,36.56c2.05,2.05,5.38,2.05,7.44,0l37.16-37.16c2.05-2.05,2.05-5.38,0-7.44l-39.92-39.92c3.57-7.94,6.23-16.36,7.87-25.16h48.99c2.9,0,5.26-2.35,5.26-5.26v-52.55c0-2.9-2.35-5.26-5.26-5.26h0ZM4012.85,243.11c-24.81,0-44.91-20.11-44.91-44.91s20.11-44.91,44.91-44.91,44.91,20.11,44.91,44.91-20.11,44.91-44.91,44.91Z"/>
  <path class="cls-4" d="M3838.24,274.99l-40.44,15.67c-3.64-3.81-7.6-7.24-11.81-10.3l16.57-37.55c.92-2.07-.02-4.5-2.1-5.41l-37.54-16.57c-2.07-.92-4.5.02-5.41,2.1l-18.07,40.94c-3.88-.21-7.8-.15-11.73.17l-15.61-40.29c-.82-2.11-3.2-3.16-5.31-2.34l-38.27,14.83c-2.11.82-3.16,3.2-2.34,5.31l15.61,40.29c-3.12,2.41-6.05,5-8.78,7.77l-40.94-18.07c-2.07-.92-4.5.02-5.41,2.1l-16.57,37.54c-.92,2.07.02,4.5,2.1,5.41l37.55,16.57c-1.06,5.1-1.67,10.3-1.79,15.57l-40.44,15.67c-2.11.82-3.16,3.2-2.34,5.31l14.83,38.27c.82,2.11,3.2,3.16,5.31,2.34l35.67-13.82c3.67,5.94,7.99,11.32,12.83,16.1l-17.8,40.33c-.92,2.07.02,4.5,2.1,5.41l37.54,16.57c2.07.92,4.5-.02,5.41-2.1l16.3-36.93c8.04,1.67,16.36,2.2,24.73,1.51l15.04,38.81c.82,2.11,3.2,3.16,5.31,2.34l38.27-14.83c2.11-.82,3.16-3.2,2.34-5.31l-15.04-38.81c6.65-5.12,12.44-11.13,17.26-17.78l36.93,16.3c2.07.92,4.5-.02,5.41-2.1l16.57-37.54c.92-2.07-.02-4.5-2.1-5.41l-40.33-17.8c.36-6.79-.08-13.67-1.37-20.54l35.67-13.82c2.11-.82,3.16-3.2,2.34-5.31l-14.83-38.27c-.82-2.11-3.2-3.16-5.31-2.34h0ZM3747.56,383.42c-18.06,7-38.38-1.97-45.38-20.03s1.97-38.38,20.03-45.38,38.38,1.97,45.38,20.03-1.97,38.38-20.03,45.38Z"/>
  <path class="cls-3" d="M4099.47,464.62l-46.56,10.22c-3.31-4.75-7.04-9.14-11.1-13.17l24.31-38c1.34-2.1.73-4.89-1.37-6.23l-37.99-24.31c-2.1-1.34-4.89-.73-6.23,1.37l-26.51,41.43c-4.18-.88-8.45-1.48-12.77-1.78l-10.19-46.38c-.53-2.43-2.94-3.97-5.38-3.44l-44.06,9.67c-2.43.53-3.97,2.94-3.44,5.38l10.19,46.38c-3.8,2.09-7.41,4.42-10.84,6.97l-41.43-26.51c-2.1-1.34-4.89-.73-6.23,1.37l-24.31,37.99c-1.34,2.1-.73,4.89,1.37,6.23l38,24.31c-2,5.36-3.54,10.91-4.56,16.61l-46.56,10.22c-2.43.53-3.97,2.94-3.44,5.38l9.67,44.06c.53,2.43,2.94,3.97,5.38,3.44l41.06-9.02c2.99,7.07,6.77,13.64,11.23,19.64l-26.12,40.81c-1.34,2.1-.73,4.89,1.37,6.23l37.99,24.31c2.1,1.34,4.89.73,6.23-1.37l23.92-37.38c8.46,3.16,17.4,5.14,26.61,5.79l9.81,44.69c.53,2.43,2.94,3.97,5.38,3.44l44.06-9.67c2.43-.53,3.97-2.94,3.44-5.38l-9.81-44.69c8.09-4.45,15.38-10,21.73-16.41l37.38,23.92c2.1,1.34,4.89.73,6.23-1.37l24.31-37.99c1.34-2.1.73-4.89-1.37-6.23l-40.81-26.12c1.53-7.31,2.21-14.86,1.96-22.54l41.06-9.02c2.43-.53,3.97-2.94,3.44-5.38l-9.67-44.06c-.53-2.43-2.94-3.97-5.38-3.44v.03h0ZM3982.75,567.16c-20.79,4.57-41.35-8.59-45.92-29.38s8.59-41.35,29.38-45.92,41.35,8.59,45.92,29.38c4.57,20.79-8.59,41.35-29.38,45.92Z"/>
  <path class="cls-3" d="M3812.48,608.35h-35.46c-1.65-3.98-3.65-7.77-5.97-11.34l23.73-23.73c1.31-1.31,1.31-3.44,0-4.75l-23.73-23.73c-1.31-1.31-3.44-1.31-4.75,0l-25.88,25.88c-2.9-1.3-5.9-2.42-8.99-3.33v-35.33c0-1.85-1.5-3.36-3.36-3.36h-33.56c-1.85,0-3.36,1.5-3.36,3.36v35.33c-3.09.91-6.09,2.03-8.99,3.33l-25.88-25.88c-1.31-1.31-3.44-1.31-4.75,0l-23.73,23.73c-1.31,1.31-1.31,3.44,0,4.75l23.73,23.73c-2.31,3.57-4.32,7.36-5.97,11.34h-35.46c-1.85,0-3.36,1.5-3.36,3.36v33.56c0,1.85,1.5,3.36,3.36,3.36h31.28c1.04,5.62,2.74,11,5.02,16.06l-25.49,25.49c-1.31,1.31-1.31,3.44,0,4.75l23.73,23.73c1.31,1.31,3.44,1.31,4.75,0l23.34-23.34c5.64,3.65,11.83,6.52,18.41,8.46v34.04c0,1.85,1.5,3.36,3.36,3.36h33.56c1.85,0,3.36-1.5,3.36-3.36v-34.04c6.59-1.94,12.77-4.81,18.41-8.46l23.34,23.34c1.31,1.31,3.44,1.31,4.75,0l23.73-23.73c1.31-1.31,1.31-3.44,0-4.75l-25.49-25.49c2.28-5.07,3.98-10.45,5.02-16.06h31.28c1.85,0,3.36-1.5,3.36-3.36v-33.56c0-1.85-1.5-3.36-3.36-3.36h.02,0ZM3711.3,664.24c-15.84,0-28.68-12.84-28.68-28.68s12.84-28.68,28.68-28.68,28.68,12.84,28.68,28.68-12.84,28.68-28.68,28.68Z"/>
  <path class="cls-5" d="M3972.2,749.46h-29.04c-1.35-3.26-2.99-6.36-4.88-9.29l19.43-19.43c1.07-1.07,1.07-2.81,0-3.89l-19.43-19.43c-1.07-1.07-2.81-1.07-3.89,0l-21.19,21.19c-2.37-1.07-4.83-1.98-7.36-2.73v-28.93c0-1.52-1.23-2.75-2.75-2.75h-27.48c-1.52,0-2.75,1.23-2.75,2.75v28.93c-2.53.75-4.99,1.66-7.36,2.73l-21.19-21.19c-1.07-1.07-2.81-1.07-3.89,0l-19.43,19.43c-1.07,1.07-1.07,2.81,0,3.89l19.43,19.43c-1.89,2.93-3.53,6.03-4.88,9.29h-29.04c-1.52,0-2.75,1.23-2.75,2.75v27.48c0,1.52,1.23,2.75,2.75,2.75h25.61c.85,4.6,2.25,9,4.11,13.15l-20.87,20.87c-1.07,1.07-1.07,2.81,0,3.89l19.43,19.43c1.07,1.07,2.81,1.07,3.89,0l19.11-19.11c4.62,2.99,9.68,5.33,15.07,6.92v27.87c0,1.52,1.23,2.75,2.75,2.75h27.48c1.52,0,2.75-1.23,2.75-2.75v-27.87c5.39-1.59,10.46-3.94,15.07-6.92l19.11,19.11c1.07,1.07,2.81,1.07,3.89,0l19.43-19.43c1.07-1.07,1.07-2.81,0-3.89l-20.87-20.87c1.87-4.15,3.26-8.55,4.11-13.15h25.61c1.52,0,2.75-1.23,2.75-2.75v-27.48c0-1.52-1.23-2.75-2.75-2.75h.02,0ZM3889.35,795.22c-12.97,0-23.48-10.51-23.48-23.48s10.51-23.48,23.48-23.48,23.48,10.51,23.48,23.48-10.51,23.48-23.48,23.48Z"/>
  <path class="cls-3" d="M4123.96,1062.58l-45.84-24.34c.6-6.27.61-12.55.07-18.75l46.96-14.39c2.59-.79,4.05-3.54,3.26-6.14l-14.39-46.96c-.79-2.59-3.54-4.05-6.14-3.26l-51.21,15.69c-2.85-3.68-5.97-7.18-9.34-10.48l24.25-45.67c1.27-2.4.36-5.37-2.04-6.64l-43.38-23.03c-2.4-1.27-5.37-.36-6.64,2.04l-24.25,45.67c-4.62-.94-9.27-1.56-13.91-1.86l-15.69-51.21c-.79-2.59-3.54-4.05-6.14-3.26l-46.96,14.39c-2.59.79-4.05,3.54-3.26,6.14l14.39,46.96c-5.44,3.03-10.63,6.55-15.49,10.56l-45.84-24.34c-2.4-1.27-5.37-.36-6.64,2.04l-23.03,43.38c-1.27,2.4-.36,5.37,2.04,6.64l40.43,21.47c-2.51,7.97-4,16.1-4.53,24.21l-50.44,15.46c-2.59.79-4.05,3.54-3.26,6.14l14.39,46.96c.79,2.59,3.54,4.05,6.14,3.26l46.19-14.15c4.79,8.58,10.81,16.54,18,23.57l-23.36,44c-1.27,2.4-.36,5.37,2.04,6.64l43.38,23.03c2.4,1.27,5.37.36,6.64-2.04l23.36-44c9.85,2.01,19.81,2.55,29.6,1.7l14.15,46.19c.79,2.59,3.54,4.05,6.14,3.26l46.96-14.39c2.59-.79,4.05-3.54,3.26-6.14l-15.46-50.44c6.42-4.99,12.32-10.77,17.52-17.32l40.43,21.47c2.4,1.27,5.37.36,6.64-2.04l23.03-43.38c1.27-2.4.36-5.37-2.04-6.64h.01ZM3954.82,1065.38c-20.47-10.87-28.26-36.28-17.39-56.75s36.28-28.26,56.75-17.39,28.26,36.28,17.39,56.75-36.28,28.26-56.75,17.39Z"/>
  <path class="cls-2" d="M3858.51,1141.1l-41.6,31.03c-5.41-3.22-11.08-5.91-16.92-8.08l7.07-48.6c.39-2.69-1.47-5.18-4.16-5.57l-48.6-7.07c-2.69-.39-5.18,1.47-5.57,4.16l-7.71,53c-4.54,1.01-9.04,2.32-13.46,3.96l-30.92-41.44c-1.62-2.17-4.7-2.62-6.88-1l-39.36,29.37c-2.17,1.62-2.62,4.7-1,6.88l30.92,41.44c-2.83,3.77-5.37,7.71-7.63,11.78l-53-7.71c-2.69-.39-5.18,1.47-5.57,4.16l-7.07,48.6c-.39,2.69,1.47,5.18,4.16,5.57l48.6,7.07c.42,6.22,1.38,12.41,2.93,18.52l-41.6,31.04c-2.17,1.62-2.62,4.7-1,6.88l29.37,39.36c1.62,2.17,4.7,2.62,6.88,1l36.69-27.37c6.14,5.67,12.84,10.5,19.95,14.45l-7.59,52.21c-.39,2.69,1.47,5.18,4.16,5.57l48.6,7.07c2.69.39,5.18-1.47,5.57-4.16l6.95-47.81c9.81-.66,19.57-2.71,29-6.19l29.79,39.93c1.62,2.17,4.7,2.62,6.88,1l39.36-29.37c2.17-1.62,2.62-4.7,1-6.88l-29.79-39.93c6.03-8.04,10.77-16.82,14.2-26.03l47.81,6.95c2.69.39,5.18-1.47,5.57-4.16l7.07-48.6c.39-2.69-1.47-5.18-4.16-5.57l-52.21-7.59c-1.76-7.94-4.47-15.74-8.16-23.24l36.69-27.37c2.17-1.62,2.62-4.7,1-6.88l-29.37-39.36c-1.62-2.17-4.7-2.62-6.88-1v-.02h-.01ZM3788.74,1295.2c-18.58,13.86-44.88,10.04-58.74-8.54-13.86-18.58-10.04-44.88,8.54-58.74s44.88-10.04,58.74,8.54c13.86,18.58,10.04,44.88-8.54,58.74Z"/>
  <path class="cls-4" d="M3731.14,1548.27l-22.92,53.98c-7.12-.06-14.18.54-21.12,1.75l-20.79-51.46c-1.15-2.84-4.38-4.22-7.23-3.07l-51.46,20.79c-2.84,1.15-4.22,4.38-3.07,7.23l22.67,56.12c-3.86,3.57-7.5,7.42-10.88,11.54l-53.78-22.83c-2.82-1.2-6.08.12-7.28,2.94l-21.69,51.09c-1.2,2.82.12,6.08,2.94,7.28l53.78,22.83c-.61,5.29-.85,10.58-.74,15.84l-56.12,22.67c-2.84,1.15-4.22,4.38-3.07,7.23l20.79,51.46c1.15,2.84,4.38,4.22,7.23,3.07l51.46-20.79c3.95,5.83,8.42,11.33,13.41,16.41l-22.92,53.98c-1.2,2.82.12,6.08,2.94,7.28l51.09,21.69c2.82,1.2,6.08-.12,7.28-2.94l20.21-47.62c9.22,2.04,18.51,2.93,27.7,2.73l22.33,55.28c1.15,2.84,4.38,4.22,7.23,3.07l51.46-20.79c2.84-1.15,4.22-4.38,3.07-7.23l-20.45-50.62c9.2-6.23,17.56-13.79,24.77-22.56l51.82,22c2.82,1.2,6.08-.12,7.28-2.94l21.69-51.09c1.2-2.82-.12-6.08-2.94-7.28l-51.82-22c1.3-11.28.93-22.55-.98-33.49l50.62-20.45c2.84-1.15,4.22-4.38,3.07-7.23l-20.79-51.46c-1.15-2.84-4.38-4.22-7.23-3.07l-55.28,22.33c-6.24-6.74-13.33-12.81-21.21-18.03l20.21-47.62c1.2-2.82-.12-6.08-2.94-7.28l-51.09-21.69c-2.82-1.2-6.08.12-7.28,2.94h.03ZM3750.83,1738.42c-10.24,24.11-38.08,35.36-62.19,25.13-24.11-10.24-35.36-38.08-25.13-62.19,10.24-24.11,38.08-35.36,62.19-25.13s35.36,38.08,25.13,62.19Z"/>
  <path class="cls-5" d="M4148.41,1308.03l-37.96-1.16c-1.63-4.31-3.66-8.43-6.01-12.34l26.18-24.63c1.45-1.36,1.52-3.64.16-5.08l-24.62-26.18c-1.36-1.45-3.64-1.52-5.08-.16l-28.55,26.86c-3.06-1.49-6.24-2.79-9.52-3.86l1.16-37.82c.06-1.98-1.5-3.64-3.48-3.7l-35.92-1.1c-1.98-.06-3.64,1.5-3.7,3.48l-1.16,37.82c-3.34.87-6.59,1.97-9.74,3.27l-26.86-28.55c-1.36-1.45-3.64-1.52-5.08-.16l-26.18,24.62c-1.45,1.36-1.52,3.64-.16,5.08l24.63,26.18c-2.59,3.75-4.86,7.74-6.76,11.94l-37.96-1.16c-1.98-.06-3.64,1.5-3.7,3.48l-1.1,35.92c-.06,1.98,1.5,3.64,3.48,3.7l33.48,1.03c.93,6.05,2.58,11.86,4.85,17.36l-28.12,26.45c-1.45,1.36-1.52,3.64-.16,5.08l24.62,26.18c1.36,1.45,3.64,1.52,5.08.16l25.75-24.22c5.92,4.09,12.45,7.36,19.43,9.66l-1.12,36.44c-.06,1.98,1.5,3.64,3.48,3.7l35.92,1.1c1.98.06,3.64-1.5,3.7-3.48l1.12-36.44c7.11-1.86,13.83-4.73,19.99-8.45l24.22,25.75c1.36,1.45,3.64,1.52,5.08.16l26.18-24.62c1.45-1.36,1.52-3.64.16-5.08l-26.45-28.12c2.61-5.35,4.6-11.05,5.9-17.03l33.48,1.03c1.98.06,3.64-1.5,3.7-3.48l1.1-35.92c.06-1.98-1.5-3.64-3.48-3.7h.02,0ZM4038.27,1364.54c-16.96-.52-30.28-14.69-29.76-31.64.52-16.96,14.69-30.28,31.64-29.76,16.96.52,30.28,14.69,29.76,31.64-.52,16.96-14.69,30.28-31.64,29.76Z"/>
  <path class="cls-3" d="M4148.48,1591.22l-39.97,10.97c-3.09-3.97-6.52-7.62-10.23-10.94l19.4-34.09c1.07-1.88.41-4.28-1.47-5.35l-34.08-19.4c-1.88-1.07-4.28-.41-5.35,1.47l-21.16,37.17c-3.67-.57-7.4-.9-11.16-.97l-10.93-39.82c-.57-2.09-2.73-3.32-4.82-2.75l-37.82,10.38c-2.09.57-3.32,2.73-2.75,4.82l10.93,39.82c-3.2,1.98-6.24,4.17-9.1,6.54l-37.17-21.16c-1.88-1.07-4.28-.41-5.35,1.47l-19.4,34.08c-1.07,1.88-.41,4.28,1.47,5.35l34.09,19.4c-1.5,4.74-2.59,9.63-3.22,14.63l-39.97,10.97c-2.09.57-3.32,2.73-2.75,4.82l10.38,37.82c.57,2.09,2.73,3.32,4.82,2.75l35.25-9.68c2.91,6.01,6.49,11.54,10.63,16.55l-20.84,36.61c-1.07,1.88-.41,4.28,1.47,5.35l34.08,19.4c1.88,1.07,4.28.41,5.35-1.47l19.09-33.53c7.48,2.36,15.34,3.69,23.37,3.84l10.53,38.36c.57,2.09,2.73,3.32,4.82,2.75l37.82-10.38c2.09-.57,3.32-2.73,2.75-4.82l-10.53-38.36c6.82-4.23,12.91-9.37,18.13-15.23l33.53,19.09c1.88,1.07,4.28.41,5.35-1.47l19.4-34.08c1.07-1.88.41-4.28-1.47-5.35l-36.61-20.84c1-6.42,1.25-13.01.69-19.66l35.25-9.67c2.09-.57,3.32-2.73,2.75-4.82l-10.38-37.82c-.57-2.09-2.73-3.32-4.82-2.75h0ZM4051.73,1685.51c-17.85,4.9-36.29-5.6-41.19-23.45s5.6-36.29,23.45-41.19c17.85-4.9,36.29,5.6,41.19,23.45s-5.6,36.29-23.45,41.19Z"/>
  <path class="cls-3" d="M3950.94,1447.73l-26.77,7.62c-2.1-2.65-4.43-5.08-6.94-7.28l12.82-23.02c.71-1.27.25-2.88-1.02-3.58l-23.02-12.81c-1.27-.71-2.88-.25-3.58,1.02l-13.98,25.1c-2.47-.36-4.98-.56-7.51-.58l-7.59-26.67c-.4-1.4-1.86-2.21-3.26-1.81l-25.34,7.21c-1.4.4-2.21,1.86-1.81,3.26l7.59,26.67c-2.14,1.35-4.16,2.84-6.07,4.45l-25.1-13.98c-1.27-.71-2.88-.25-3.58,1.02l-12.81,23.02c-.71,1.27-.25,2.88,1.02,3.58l23.02,12.82c-.98,3.2-1.68,6.49-2.07,9.84l-26.77,7.62c-1.4.4-2.21,1.86-1.81,3.26l7.21,25.34c.4,1.4,1.86,2.21,3.26,1.81l23.62-6.72c1.99,4.02,4.44,7.71,7.25,11.05l-13.77,24.73c-.71,1.27-.25,2.88,1.02,3.58l23.02,12.81c1.27.71,2.88.25,3.58-1.02l12.61-22.64c5.04,1.54,10.33,2.38,15.72,2.43l7.32,25.7c.4,1.4,1.86,2.21,3.26,1.81l25.34-7.21c1.4-.4,2.21-1.86,1.81-3.26l-7.32-25.7c4.56-2.88,8.61-6.38,12.08-10.34l22.64,12.61c1.27.71,2.88.25,3.58-1.02l12.81-23.02c.71-1.27.25-2.88-1.02-3.58l-24.73-13.77c.63-4.32.76-8.74.34-13.21l23.62-6.72c1.4-.4,2.21-1.86,1.81-3.26l-7.21-25.34c-.4-1.4-1.86-2.21-3.26-1.81h-.01ZM3886.56,1511.68c-11.96,3.4-24.41-3.53-27.82-15.49-3.4-11.96,3.53-24.41,15.49-27.82s24.41,3.53,27.82,15.49-3.53,24.41-15.49,27.82Z"/>
  <path class="cls-3" d="M4019.12,1881.4l-26.37-8.93c-.22-3.37-.76-6.69-1.58-9.93l23.62-11.67c1.3-.64,1.84-2.23,1.2-3.53l-11.67-23.62c-.64-1.3-2.23-1.84-3.53-1.2l-25.76,12.73c-1.83-1.7-3.78-3.29-5.85-4.74l8.89-26.27c.47-1.38-.27-2.87-1.65-3.34l-24.95-8.45c-1.38-.47-2.87.27-3.34,1.65l-8.89,26.27c-2.53-.1-5.04-.03-7.53.21l-12.73-25.76c-.64-1.3-2.23-1.84-3.53-1.2l-23.62,11.67c-1.3.64-1.84,2.23-1.2,3.53l11.67,23.62c-2.62,2.08-5.06,4.39-7.29,6.93l-26.37-8.93c-1.38-.47-2.87.27-3.34,1.65l-8.45,24.95c-.47,1.38.27,2.87,1.65,3.34l23.26,7.87c-.64,4.44-.73,8.87-.31,13.21l-25.37,12.54c-1.3.64-1.84,2.23-1.2,3.53l11.67,23.62c.64,1.3,2.23,1.84,3.53,1.2l23.23-11.48c3.28,4.13,7.15,7.82,11.56,10.92l-8.57,25.31c-.47,1.38.27,2.87,1.65,3.34l24.95,8.45c1.38.47,2.87-.27,3.34-1.65l8.57-25.31c5.39.21,10.71-.36,15.82-1.65l11.48,23.23c.64,1.3,2.23,1.84,3.53,1.2l23.62-11.67c1.3-.64,1.84-2.23,1.2-3.53l-12.54-25.37c2.97-3.19,5.59-6.77,7.78-10.68l23.26,7.87c1.38.47,2.87-.27,3.34-1.65l8.45-24.95c.47-1.38-.27-2.87-1.65-3.34h.02ZM3929.82,1897.49c-11.78-3.99-18.09-16.77-14.11-28.54,3.99-11.78,16.77-18.09,28.54-14.11,11.78,3.99,18.09,16.77,14.11,28.54-3.99,11.78-16.77,18.09-28.54,14.11Z"/>
  <path class="cls-2" d="M38.56,1834.25h55.54c2.58,6.23,5.72,12.16,9.34,17.76l-37.16,37.16c-2.05,2.05-2.05,5.38,0,7.44l37.16,37.16c2.05,2.05,5.38,2.05,7.44,0l40.53-40.53c4.54,2.04,9.24,3.79,14.08,5.22v55.33c0,2.9,2.35,5.26,5.26,5.26h52.55c2.9,0,5.26-2.35,5.26-5.26v-55.33c4.84-1.43,9.54-3.18,14.08-5.22l40.53,40.53c2.05,2.05,5.38,2.05,7.44,0l37.16-37.16c2.05-2.05,2.05-5.38,0-7.44l-37.16-37.16c3.62-5.6,6.76-11.53,9.34-17.76h55.54c2.9,0,5.26-2.35,5.26-5.26v-52.55c0-2.9-2.35-5.26-5.26-5.26h-48.99c-1.63-8.79-4.3-17.22-7.87-25.16l39.92-39.92c2.05-2.05,2.05-5.38,0-7.44l-37.16-37.16c-2.05-2.05-5.38-2.05-7.44,0l-36.56,36.56c-8.83-5.71-18.52-10.2-28.83-13.24v-53.31c0-2.9-2.35-5.26-5.26-5.26h-52.55c-2.9,0-5.26,2.35-5.26,5.26v53.31c-10.32,3.04-20,7.53-28.83,13.24l-36.56-36.56c-2.05-2.05-5.38-2.05-7.44,0l-37.16,37.16c-2.05,2.05-2.05,5.38,0,7.44l39.92,39.92c-3.57,7.94-6.23,16.36-7.87,25.16h-48.99c-2.9,0-5.26,2.35-5.26,5.26v52.55c0,2.9,2.35,5.26,5.26,5.26h0ZM197.02,1746.73c24.81,0,44.91,20.11,44.91,44.91s-20.11,44.91-44.91,44.91-44.91-20.11-44.91-44.91,20.11-44.91,44.91-44.91Z"/>
  <path class="cls-3" d="M371.63,1714.86l40.44-15.67c3.64,3.81,7.6,7.24,11.81,10.3l-16.57,37.55c-.92,2.07.02,4.5,2.1,5.41l37.54,16.57c2.07.92,4.5-.02,5.41-2.1l18.07-40.94c3.88.21,7.8.15,11.73-.17l15.61,40.29c.82,2.11,3.2,3.16,5.31,2.34l38.27-14.83c2.11-.82,3.16-3.2,2.34-5.31l-15.61-40.29c3.12-2.41,6.05-5,8.78-7.77l40.94,18.07c2.07.92,4.5-.02,5.41-2.1l16.57-37.54c.92-2.07-.02-4.5-2.1-5.41l-37.55-16.57c1.06-5.1,1.67-10.3,1.79-15.57l40.44-15.67c2.11-.82,3.16-3.2,2.34-5.31l-14.83-38.27c-.82-2.11-3.2-3.16-5.31-2.34l-35.67,13.82c-3.67-5.94-7.99-11.32-12.83-16.1l17.8-40.33c.92-2.07-.02-4.5-2.1-5.41l-37.54-16.57c-2.07-.92-4.5.02-5.41,2.1l-16.3,36.93c-8.04-1.67-16.36-2.2-24.73-1.51l-15.04-38.81c-.82-2.11-3.2-3.16-5.31-2.34l-38.27,14.83c-2.11.82-3.16,3.2-2.34,5.31l15.04,38.81c-6.65,5.12-12.44,11.13-17.26,17.78l-36.93-16.3c-2.07-.92-4.5.02-5.41,2.1l-16.57,37.54c-.92,2.07.02,4.5,2.1,5.41l40.33,17.8c-.36,6.79.08,13.67,1.37,20.54l-35.67,13.82c-2.11.82-3.16,3.2-2.34,5.31l14.83,38.27c.82,2.11,3.2,3.16,5.31,2.34h0ZM462.31,1606.42c18.06-7,38.38,1.97,45.38,20.03s-1.97,38.38-20.03,45.38-38.38-1.97-45.38-20.03,1.97-38.38,20.03-45.38Z"/>
  <path class="cls-3" d="M110.39,1525.22l46.56-10.22c3.31,4.75,7.04,9.14,11.1,13.17l-24.31,38c-1.34,2.1-.73,4.89,1.37,6.23l37.99,24.31c2.1,1.34,4.89.73,6.23-1.37l26.51-41.43c4.18.88,8.45,1.48,12.77,1.78l10.19,46.38c.53,2.43,2.94,3.97,5.38,3.44l44.06-9.67c2.43-.53,3.97-2.94,3.44-5.38l-10.19-46.38c3.8-2.09,7.41-4.42,10.84-6.97l41.43,26.51c2.1,1.34,4.89.73,6.23-1.37l24.31-37.99c1.34-2.1.73-4.89-1.37-6.23l-38-24.31c2-5.36,3.54-10.91,4.56-16.61l46.56-10.22c2.43-.53,3.97-2.94,3.44-5.38l-9.67-44.06c-.53-2.43-2.94-3.97-5.38-3.44l-41.06,9.02c-2.99-7.07-6.77-13.64-11.23-19.64l26.12-40.81c1.34-2.1.73-4.89-1.37-6.23l-37.99-24.31c-2.1-1.34-4.89-.73-6.23,1.37l-23.92,37.38c-8.46-3.16-17.4-5.14-26.61-5.79l-9.81-44.69c-.53-2.43-2.94-3.97-5.38-3.44l-44.06,9.67c-2.43.53-3.97,2.94-3.44,5.38l9.81,44.69c-8.09,4.45-15.38,10-21.73,16.41l-37.38-23.92c-2.1-1.34-4.89-.73-6.23,1.37l-24.31,37.99c-1.34,2.1-.73,4.89,1.37,6.23l40.81,26.12c-1.53,7.31-2.21,14.86-1.96,22.54l-41.06,9.02c-2.43.53-3.97,2.94-3.44,5.38l9.67,44.06c.53,2.43,2.94,3.97,5.38,3.44v-.03h0ZM227.11,1422.68c20.79-4.57,41.35,8.59,45.92,29.38s-8.59,41.35-29.38,45.92c-20.79,4.57-41.35-8.59-45.92-29.38-4.57-20.79,8.59-41.35,29.38-45.92Z"/>
  <path class="cls-4" d="M397.38,1381.49h35.46c1.65,3.98,3.65,7.77,5.97,11.34l-23.73,23.73c-1.31,1.31-1.31,3.44,0,4.75l23.73,23.73c1.31,1.31,3.44,1.31,4.75,0l25.88-25.88c2.9,1.3,5.9,2.42,8.99,3.33v35.33c0,1.85,1.5,3.36,3.36,3.36h33.56c1.85,0,3.36-1.5,3.36-3.36v-35.33c3.09-.91,6.09-2.03,8.99-3.33l25.88,25.88c1.31,1.31,3.44,1.31,4.75,0l23.73-23.73c1.31-1.31,1.31-3.44,0-4.75l-23.73-23.73c2.31-3.57,4.32-7.36,5.97-11.34h35.46c1.85,0,3.36-1.5,3.36-3.36v-33.56c0-1.85-1.5-3.36-3.36-3.36h-31.28c-1.04-5.62-2.74-11-5.02-16.06l25.49-25.49c1.31-1.31,1.31-3.44,0-4.75l-23.73-23.73c-1.31-1.31-3.44-1.31-4.75,0l-23.34,23.34c-5.64-3.65-11.83-6.52-18.41-8.46v-34.04c0-1.85-1.5-3.36-3.36-3.36h-33.56c-1.85,0-3.36,1.5-3.36,3.36v34.04c-6.59,1.94-12.77,4.81-18.41,8.46l-23.34-23.34c-1.31-1.31-3.44-1.31-4.75,0l-23.73,23.73c-1.31,1.31-1.31,3.44,0,4.75l25.49,25.49c-2.28,5.07-3.98,10.45-5.02,16.06h-31.28c-1.85,0-3.36,1.5-3.36,3.36v33.56c0,1.85,1.5,3.36,3.36,3.36h-.02,0ZM498.56,1325.6c15.84,0,28.68,12.84,28.68,28.68s-12.84,28.68-28.68,28.68-28.68-12.84-28.68-28.68,12.84-28.68,28.68-28.68Z"/>
  <path class="cls-5" d="M237.67,1240.38h29.04c1.35,3.26,2.99,6.36,4.88,9.29l-19.43,19.43c-1.07,1.07-1.07,2.81,0,3.89l19.43,19.43c1.07,1.07,2.81,1.07,3.89,0l21.19-21.19c2.37,1.07,4.83,1.98,7.36,2.73v28.93c0,1.52,1.23,2.75,2.75,2.75h27.48c1.52,0,2.75-1.23,2.75-2.75v-28.93c2.53-.75,4.99-1.66,7.36-2.73l21.19,21.19c1.07,1.07,2.81,1.07,3.89,0l19.43-19.43c1.07-1.07,1.07-2.81,0-3.89l-19.43-19.43c1.89-2.93,3.53-6.03,4.88-9.29h29.04c1.52,0,2.75-1.23,2.75-2.75v-27.48c0-1.52-1.23-2.75-2.75-2.75h-25.61c-.85-4.6-2.25-9-4.11-13.15l20.87-20.87c1.07-1.07,1.07-2.81,0-3.89l-19.43-19.43c-1.07-1.07-2.81-1.07-3.89,0l-19.11,19.11c-4.62-2.99-9.68-5.33-15.07-6.92v-27.87c0-1.52-1.23-2.75-2.75-2.75h-27.48c-1.52,0-2.75,1.23-2.75,2.75v27.87c-5.39,1.59-10.46,3.94-15.07,6.92l-19.11-19.11c-1.07-1.07-2.81-1.07-3.89,0l-19.43,19.43c-1.07,1.07-1.07,2.81,0,3.89l20.87,20.87c-1.87,4.15-3.26,8.55-4.11,13.15h-25.61c-1.52,0-2.75,1.23-2.75,2.75v27.48c0,1.52,1.23,2.75,2.75,2.75h-.02,0ZM320.51,1194.62c12.97,0,23.48,10.51,23.48,23.48s-10.51,23.48-23.48,23.48-23.48-10.51-23.48-23.48,10.51-23.48,23.48-23.48Z"/>
  <path class="cls-3" d="M85.9,927.26l45.84,24.34c-.6,6.27-.61,12.55-.07,18.75l-46.96,14.39c-2.59.79-4.05,3.54-3.26,6.14l14.39,46.96c.79,2.59,3.54,4.05,6.14,3.26l51.21-15.69c2.85,3.68,5.97,7.18,9.34,10.48l-24.25,45.67c-1.27,2.4-.36,5.37,2.04,6.64l43.38,23.03c2.4,1.27,5.37.36,6.64-2.04l24.25-45.67c4.62.94,9.27,1.56,13.91,1.86l15.69,51.21c.79,2.59,3.54,4.05,6.14,3.26l46.96-14.39c2.59-.79,4.05-3.54,3.26-6.14l-14.39-46.96c5.44-3.03,10.63-6.55,15.49-10.56l45.84,24.34c2.4,1.27,5.37.36,6.64-2.04l23.03-43.38c1.27-2.4.36-5.37-2.04-6.64l-40.43-21.47c2.51-7.97,4-16.1,4.53-24.21l50.44-15.46c2.59-.79,4.05-3.54,3.26-6.14l-14.39-46.96c-.79-2.59-3.54-4.05-6.14-3.26l-46.19,14.15c-4.79-8.58-10.81-16.54-18-23.57l23.36-44c1.27-2.4.36-5.37-2.04-6.64l-43.38-23.03c-2.4-1.27-5.37-.36-6.64,2.04l-23.36,44c-9.85-2.01-19.81-2.55-29.6-1.7l-14.15-46.19c-.79-2.59-3.54-4.05-6.14-3.26l-46.96,14.39c-2.59.79-4.05,3.54-3.26,6.14l15.46,50.44c-6.42,4.99-12.32,10.77-17.52,17.32l-40.43-21.47c-2.4-1.27-5.37-.36-6.64,2.04l-23.03,43.38c-1.27,2.4-.36,5.37,2.04,6.64h0ZM255.04,924.46c20.47,10.87,28.26,36.28,17.39,56.75-10.87,20.47-36.28,28.26-56.75,17.39s-28.26-36.28-17.39-56.75c10.87-20.47,36.28-28.26,56.75-17.39Z"/>
  <path class="cls-4" d="M351.35,848.74l41.6-31.03c5.41,3.22,11.08,5.91,16.92,8.08l-7.07,48.6c-.39,2.69,1.47,5.18,4.16,5.57l48.6,7.07c2.69.39,5.18-1.47,5.57-4.16l7.71-53c4.54-1.01,9.04-2.32,13.46-3.96l30.92,41.44c1.62,2.17,4.7,2.62,6.88,1l39.36-29.37c2.17-1.62,2.62-4.7,1-6.88l-30.92-41.44c2.83-3.77,5.37-7.71,7.63-11.78l53,7.71c2.69.39,5.18-1.47,5.57-4.16l7.07-48.6c.39-2.69-1.47-5.18-4.16-5.57l-48.6-7.07c-.42-6.22-1.38-12.41-2.93-18.52l41.6-31.04c2.17-1.62,2.62-4.7,1-6.88l-29.37-39.36c-1.62-2.17-4.7-2.62-6.88-1l-36.69,27.37c-6.14-5.67-12.84-10.5-19.95-14.45l7.59-52.21c.39-2.69-1.47-5.18-4.16-5.57l-48.6-7.07c-2.69-.39-5.18,1.47-5.57,4.16l-6.95,47.81c-9.81.66-19.57,2.71-29,6.19l-29.79-39.93c-1.62-2.17-4.7-2.62-6.88-1l-39.36,29.37c-2.17,1.62-2.62,4.7-1,6.88l29.79,39.93c-6.03,8.04-10.77,16.82-14.2,26.03l-47.81-6.95c-2.69-.39-5.18,1.47-5.57,4.16l-7.07,48.6c-.39,2.69,1.47,5.18,4.16,5.57l52.21,7.59c1.76,7.94,4.47,15.74,8.16,23.24l-36.69,27.37c-2.17,1.62-2.62,4.7-1,6.88l29.37,39.36c1.62,2.17,4.7,2.62,6.88,1v.02h0ZM421.13,694.64c18.58-13.86,44.88-10.04,58.74,8.54,13.86,18.58,10.04,44.88-8.54,58.74-18.58,13.86-44.88,10.04-58.74-8.54-13.86-18.58-10.04-44.88,8.54-58.74Z"/>
  <path class="cls-5" d="M478.72,441.57l22.92-53.98c7.12.06,14.18-.54,21.12-1.75l20.79,51.46c1.15,2.84,4.38,4.22,7.23,3.07l51.46-20.79c2.84-1.15,4.22-4.38,3.07-7.23l-22.67-56.12c3.86-3.57,7.5-7.42,10.88-11.54l53.78,22.83c2.82,1.2,6.08-.12,7.28-2.94l21.69-51.09c1.2-2.82-.12-6.08-2.94-7.28l-53.78-22.83c.61-5.29.85-10.58.74-15.84l56.12-22.67c2.84-1.15,4.22-4.38,3.07-7.23l-20.79-51.46c-1.15-2.84-4.38-4.22-7.23-3.07l-51.46,20.79c-3.95-5.83-8.42-11.33-13.41-16.41l22.92-53.98c1.2-2.82-.12-6.08-2.94-7.28l-51.09-21.69c-2.82-1.2-6.08.12-7.28,2.94l-20.21,47.62c-9.22-2.04-18.51-2.93-27.7-2.73l-22.33-55.28c-1.15-2.84-4.38-4.22-7.23-3.07l-51.46,20.79c-2.84,1.15-4.22,4.38-3.07,7.23l20.45,50.62c-9.2,6.23-17.56,13.79-24.77,22.56l-51.82-22c-2.82-1.2-6.08.12-7.28,2.94l-21.69,51.09c-1.2,2.82.12,6.08,2.94,7.28l51.82,22c-1.3,11.28-.93,22.55.98,33.49l-50.62,20.45c-2.84,1.15-4.22,4.38-3.07,7.23l20.79,51.46c1.15,2.84,4.38,4.22,7.23,3.07l55.28-22.33c6.24,6.74,13.33,12.81,21.21,18.03l-20.21,47.62c-1.2,2.82.12,6.08,2.94,7.28l51.09,21.69c2.82,1.2,6.08-.12,7.28-2.94h-.03ZM459.03,251.43c10.24-24.11,38.08-35.36,62.19-25.13,24.11,10.24,35.36,38.08,25.13,62.19-10.24,24.11-38.08,35.36-62.19,25.13-24.11-10.24-35.36-38.08-25.13-62.19h0Z"/>
  <path class="cls-3" d="M61.45,681.81l37.96,1.16c1.63,4.31,3.66,8.43,6.01,12.34l-26.18,24.63c-1.45,1.36-1.52,3.64-.16,5.08l24.62,26.18c1.36,1.45,3.64,1.52,5.08.16l28.55-26.86c3.06,1.49,6.24,2.79,9.52,3.86l-1.16,37.82c-.06,1.98,1.5,3.64,3.48,3.7l35.92,1.1c1.98.06,3.64-1.5,3.7-3.48l1.16-37.82c3.34-.87,6.59-1.97,9.74-3.27l26.86,28.55c1.36,1.45,3.64,1.52,5.08.16l26.18-24.62c1.45-1.36,1.52-3.64.16-5.08l-24.63-26.18c2.59-3.75,4.86-7.74,6.76-11.94l37.96,1.16c1.98.06,3.64-1.5,3.7-3.48l1.1-35.92c.06-1.98-1.5-3.64-3.48-3.7l-33.48-1.03c-.93-6.05-2.58-11.86-4.85-17.36l28.12-26.45c1.45-1.36,1.52-3.64.16-5.08l-24.62-26.18c-1.36-1.45-3.64-1.52-5.08-.16l-25.75,24.22c-5.92-4.09-12.45-7.36-19.43-9.66l1.12-36.44c.06-1.98-1.5-3.64-3.48-3.7l-35.92-1.1c-1.98-.06-3.64,1.5-3.7,3.48l-1.12,36.44c-7.11,1.86-13.83,4.73-19.99,8.45l-24.22-25.75c-1.36-1.45-3.64-1.52-5.08-.16l-26.18,24.62c-1.45,1.36-1.52,3.64-.16,5.08l26.45,28.12c-2.61,5.35-4.6,11.05-5.9,17.03l-33.48-1.03c-1.98-.06-3.64,1.5-3.7,3.48l-1.1,35.92c-.06,1.98,1.5,3.64,3.48,3.7h-.02ZM171.6,625.3c16.96.52,30.28,14.69,29.76,31.64-.52,16.96-14.69,30.28-31.64,29.76-16.96-.52-30.28-14.69-29.76-31.64.52-16.96,14.69-30.28,31.64-29.76Z"/>
  <path class="cls-3" d="M61.39,398.62l39.97-10.97c3.09,3.97,6.52,7.62,10.23,10.94l-19.4,34.09c-1.07,1.88-.41,4.28,1.47,5.35l34.08,19.4c1.88,1.07,4.28.41,5.35-1.47l21.16-37.17c3.67.57,7.4.9,11.16.97l10.93,39.82c.57,2.09,2.73,3.32,4.82,2.75l37.82-10.38c2.09-.57,3.32-2.73,2.75-4.82l-10.93-39.82c3.2-1.98,6.24-4.17,9.1-6.54l37.17,21.16c1.88,1.07,4.28.41,5.35-1.47l19.4-34.08c1.07-1.88.41-4.28-1.47-5.35l-34.09-19.4c1.5-4.74,2.59-9.63,3.22-14.63l39.97-10.97c2.09-.57,3.32-2.73,2.75-4.82l-10.38-37.82c-.57-2.09-2.73-3.32-4.82-2.75l-35.25,9.68c-2.91-6.01-6.49-11.54-10.63-16.55l20.84-36.61c1.07-1.88.41-4.28-1.47-5.35l-34.08-19.4c-1.88-1.07-4.28-.41-5.35,1.47l-19.09,33.53c-7.48-2.36-15.34-3.69-23.37-3.84l-10.53-38.36c-.57-2.09-2.73-3.32-4.82-2.75l-37.82,10.38c-2.09.57-3.32,2.73-2.75,4.82l10.53,38.36c-6.82,4.23-12.91,9.37-18.13,15.23l-33.53-19.09c-1.88-1.07-4.28-.41-5.35,1.47l-19.4,34.08c-1.07,1.88-.41,4.28,1.47,5.35l36.61,20.84c-1,6.42-1.25,13.01-.69,19.66l-35.25,9.67c-2.09.57-3.32,2.73-2.75,4.82l10.38,37.82c.57,2.09,2.73,3.32,4.82,2.75h0ZM158.13,304.33c17.85-4.9,36.29,5.6,41.19,23.45s-5.6,36.29-23.45,41.19c-17.85,4.9-36.29-5.6-41.19-23.45-4.9-17.85,5.6-36.29,23.45-41.19Z"/>
  <path class="cls-2" d="M258.93,542.11l26.77-7.62c2.1,2.65,4.43,5.08,6.94,7.28l-12.82,23.02c-.71,1.27-.25,2.88,1.02,3.58l23.02,12.81c1.27.71,2.88.25,3.58-1.02l13.98-25.1c2.47.36,4.98.56,7.51.58l7.59,26.67c.4,1.4,1.86,2.21,3.26,1.81l25.34-7.21c1.4-.4,2.21-1.86,1.81-3.26l-7.59-26.67c2.14-1.35,4.16-2.84,6.07-4.45l25.1,13.98c1.27.71,2.88.25,3.58-1.02l12.81-23.02c.71-1.27.25-2.88-1.02-3.58l-23.02-12.82c.98-3.2,1.68-6.49,2.07-9.84l26.77-7.62c1.4-.4,2.21-1.86,1.81-3.26l-7.21-25.34c-.4-1.4-1.86-2.21-3.26-1.81l-23.62,6.72c-1.99-4.02-4.44-7.71-7.25-11.05l13.77-24.73c.71-1.27.25-2.88-1.02-3.58l-23.02-12.81c-1.27-.71-2.88-.25-3.58,1.02l-12.61,22.64c-5.04-1.54-10.33-2.38-15.72-2.43l-7.32-25.7c-.4-1.4-1.86-2.21-3.26-1.81l-25.34,7.21c-1.4.4-2.21,1.86-1.81,3.26l7.32,25.7c-4.56,2.88-8.61,6.38-12.08,10.34l-22.64-12.61c-1.27-.71-2.88-.25-3.58,1.02l-12.81,23.02c-.71,1.27-.25,2.88,1.02,3.58l24.73,13.77c-.63,4.32-.76,8.74-.34,13.21l-23.62,6.72c-1.4.4-2.21,1.86-1.81,3.26l7.21,25.34c.4,1.4,1.86,2.21,3.26,1.81h0ZM323.3,478.16c11.96-3.4,24.41,3.53,27.82,15.49,3.4,11.96-3.53,24.41-15.49,27.82-11.96,3.4-24.41-3.53-27.82-15.49-3.4-11.96,3.53-24.41,15.49-27.82h0Z"/>
  <path class="cls-3" d="M190.74,108.44l26.37,8.93c.22,3.37.76,6.69,1.58,9.93l-23.62,11.67c-1.3.64-1.84,2.23-1.2,3.53l11.67,23.62c.64,1.3,2.23,1.84,3.53,1.2l25.76-12.73c1.83,1.7,3.78,3.29,5.85,4.74l-8.89,26.27c-.47,1.38.27,2.87,1.65,3.34l24.95,8.45c1.38.47,2.87-.27,3.34-1.65l8.89-26.27c2.53.1,5.04.03,7.53-.21l12.73,25.76c.64,1.3,2.23,1.84,3.53,1.2l23.62-11.67c1.3-.64,1.84-2.23,1.2-3.53l-11.67-23.62c2.62-2.08,5.06-4.39,7.29-6.93l26.37,8.93c1.38.47,2.87-.27,3.34-1.65l8.45-24.95c.47-1.38-.27-2.87-1.65-3.34l-23.26-7.87c.64-4.44.73-8.87.31-13.21l25.37-12.54c1.3-.64,1.84-2.23,1.2-3.53l-11.67-23.62c-.64-1.3-2.23-1.84-3.53-1.2l-23.23,11.48c-3.28-4.13-7.15-7.82-11.56-10.92l8.57-25.31c.47-1.38-.27-2.87-1.65-3.34l-24.95-8.45c-1.38-.47-2.87.27-3.34,1.65l-8.57,25.31c-5.39-.21-10.71.36-15.82,1.65l-11.48-23.23c-.64-1.3-2.23-1.84-3.53-1.2l-23.62,11.67c-1.3.64-1.84,2.23-1.2,3.53l12.54,25.37c-2.97,3.19-5.59,6.77-7.78,10.68l-23.26-7.87c-1.38-.47-2.87.27-3.34,1.65l-8.45,24.95c-.47,1.38.27,2.87,1.65,3.34h-.02ZM280.04,92.36c11.78,3.99,18.09,16.77,14.11,28.54-3.99,11.78-16.77,18.09-28.54,14.11s-18.09-16.77-14.11-28.54c3.99-11.78,16.77-18.09,28.54-14.11h0Z"/>
</svg>