<?xml version="1.0" encoding="UTF-8"?>
<svg id="Layer_1" data-name="Layer 1" xmlns="http://www.w3.org/2000/svg" viewBox="0 0 1920 1080">
  <defs>
    <style>
      .cls-1, .cls-2, .cls-3, .cls-4, .cls-5, .cls-6 {
        stroke: #601113;
        stroke-miterlimit: 10;
        stroke-width: 5px;
      }

      .cls-1, .cls-7 {
        fill: #999;
      }

      .cls-8 {
        fill: #fff;
      }

      .cls-9, .cls-5 {
        fill: #1e1e1e;
      }

      .cls-2 {
        fill: #e2e2e2;
      }

      .cls-10, .cls-6 {
        fill: #cc2b2b;
      }

      .cls-11 {
        fill: #601113;
      }

      .cls-3, .cls-12 {
        fill: #d3d2d3;
      }

      .cls-13 {
        fill: #faf1f1;
      }

      .cls-4 {
        fill: none;
      }
    </style>
  </defs>
  <path class="cls-13" d="M1445.05,390.08c-8.14-17.28-16.67-34.52-29.35-55.17-13.14-21.4-40.1-61.75-96.26-115.04-64.75-61.44-113.22-107.44-191.35-129.13-25.03-6.95-55.26-15.01-93.91-9.39-57.11,8.3-98.36,41.48-125.61,63.39-6.04,4.86-24.46,22.87-61.04,58.7-65.31,63.95-63.63,63.62-71.61,69.26-44.3,31.33-91.15,38.1-136.17,44.61-61.44,8.88-69.37-2.28-116.22,10.57-20.75,5.69-58.17,15.95-92.74,45.78-53.81,46.44-66.06,110.44-72.78,145.57-11.96,62.5-2.03,112.14,3.52,138.52,5.75,27.33,23.88,98.77,81,167.87,7.61,9.2,36.68,43.5,84.52,76.3,29.43,20.19,53.04,36.37,86.87,45.78,74.14,20.63,157.34-2.42,210.13-37.57,13.89-9.25,28.05-20.91,55.17-34.04,28.44-13.77,53.02-25.67,83.35-24.65,22.44.76,45.4,13.04,90.39,37.57,23.47,12.8,27.44,16.22,72.78,43.43,70.96,42.58,85.13,48.52,97.43,52.83,16.21,5.67,42.53,14.65,76.3,15.26,74.73,1.34,128.86-39.36,143.22-50.48,51.05-39.53,71.64-88.48,81-111.52,30.05-74,21.63-139.45,15.26-189-10.62-82.55-38.74-142.28-93.91-259.43Z"/>
  <line class="cls-4" x1="466.4" y1="917.25" x2="1479.88" y2="917.25"/>
  <path class="cls-5" d="M784.66,653.25c13.4-11.77,14.44-38.2,3.98-46.82-10.84-8.93-31.73,3.2-34.92-2.62-3.73-6.8,23.82-25.14,20.86-30.28-2.42-4.2-25.59-.29-40.68,15.26-1.03,1.06-22.48,23.8-13.64,46.17,9.3,23.55,46.98,33.6,64.41,18.29Z"/>
  <path class="cls-5" d="M779,641.39l-72.95,24.49c-13.64,4.58-24.45,15.11-29.38,28.63l-15.88,43.49c-5.2,14.26-16.93,25.15-31.53,29.29l-49.79,14.12c-14.71,4.17-26.5,15.2-31.65,29.6l-11.37,31.85c-7.18,20.1,0,42.53,17.51,54.73l26.79,18.67h230.55l87.73-210.73-76.66-57.2c-12.44-9.28-28.64-11.87-43.35-6.93Z"/>
  <circle class="cls-3" cx="1310.23" cy="609" r="133.56"/>
  <path class="cls-1" d="M795.12,387.39h404.04c5.12,0,9.28,4.16,9.28,9.28v488.87c0,16.95-13.76,30.71-30.71,30.71h-361.18c-16.95,0-30.71-13.76-30.71-30.71v-488.87c0-5.12,4.16-9.28,9.28-9.28Z"/>
  <path class="cls-1" d="M1239.24,331.36l-132.62-11.63,3.55-40.45c1.5-17.06-11.12-32.09-28.17-33.59l-132.36-11.61c-17.06-1.5-32.09,11.12-33.59,28.17l-3.55,40.45-132.62-11.63c-9.42-.83-17.74,6.14-18.56,15.57l-1.83,20.83c-.83,9.42,6.14,17.74,15.57,18.56l459.37,40.29c9.42.83,17.74-6.14,18.56-15.57l1.83-20.83c.83-9.42-6.14-17.74-15.57-18.56ZM938.43,270.34c.6-6.85,6.64-11.92,13.49-11.32l123.48,10.83c6.85.6,11.92,6.64,11.32,13.49l-3.01,34.37-148.29-13.01,3.01-34.37Z"/>
  <rect class="cls-12" x="988.34" y="413.52" width="17.61" height="476.61" rx="8.8" ry="8.8"/>
  <rect class="cls-12" x="1069.77" y="413.52" width="17.61" height="476.61" rx="8.8" ry="8.8"/>
  <rect class="cls-12" x="899.01" y="413.52" width="17.61" height="476.61" rx="8.8" ry="8.8"/>
  <rect class="cls-12" x="1149.79" y="413.52" width="17.61" height="476.61" rx="8.8" ry="8.8"/>
  <rect class="cls-12" x="822.62" y="413.52" width="17.61" height="476.61" rx="8.8" ry="8.8"/>
  <g>
    <path class="cls-11" d="M742.17,349.72c-1.96-.39-3.92-.79-5.86-1.21l-3.66,3.97c1.92.44,3.83.89,5.77,1.31l3.75-4.06Z"/>
    <path class="cls-11" d="M730.29,347.17c-1.76-.41-3.52-.82-5.26-1.25l-3.53,3.83c1.73.45,3.46.89,5.2,1.32l3.6-3.9Z"/>
    <path class="cls-11" d="M707.61,341.23c-1.02-.3-2.04-.61-3.05-.92l-3.35,3.63c1.01.32,2.04.61,3.05.92l3.35-3.63Z"/>
    <path class="cls-11" d="M754.57,352c-2.09-.35-4.17-.72-6.24-1.1l-3.8,4.12c2.04.41,4.07.83,6.13,1.22l3.91-4.24Z"/>
    <path class="cls-11" d="M719.15,344.44c-1.95-.51-3.88-1.03-5.81-1.57l-3.41,3.7c1.9.56,3.83,1.09,5.75,1.62l3.47-3.76Z"/>
    <path class="cls-11" d="M766.77,353.89c-1.98-.28-3.94-.57-5.89-.87l-3.97,4.3c1.93.33,3.83.69,5.77,1l4.09-4.43Z"/>
    <path class="cls-11" d="M622.77,302c-1.38-.93-2.74-1.86-4.1-2.81l-2.95,3.2c1.36.95,2.74,1.87,4.12,2.79l2.93-3.18Z"/>
    <path class="cls-11" d="M773.23,354.76l-4.15,4.49c2.31.33,4.59.7,6.92,1l4.29-4.65c-2.37-.27-4.73-.55-7.07-.84Z"/>
    <path class="cls-11" d="M659.13,322.72c-1.22-.58-2.43-1.18-3.63-1.77l-3,3.25c1.2.6,2.37,1.23,3.59,1.82l3.05-3.3Z"/>
    <path class="cls-11" d="M641.26,313.4c-1.47-.83-2.93-1.67-4.37-2.52l-2.95,3.2c1.44.85,2.9,1.69,4.36,2.53l2.96-3.21Z"/>
    <path class="cls-11" d="M650.56,318.44c-1.51-.78-3.01-1.58-4.5-2.38l-2.97,3.22c1.48.81,2.97,1.62,4.47,2.41l3-3.25Z"/>
    <path class="cls-11" d="M632.22,308.08c-1.66-1.02-3.31-2.06-4.94-3.11l-2.94,3.19c1.63,1.05,3.29,2.08,4.94,3.11l2.94-3.18Z"/>
    <path class="cls-11" d="M678.01,330.98c-1.22-.49-2.45-.98-3.66-1.48l-3.08,3.34c1.2.51,2.41,1.02,3.62,1.52l3.12-3.38Z"/>
    <path class="cls-11" d="M669.14,327.29c-1.66-.72-3.3-1.46-4.94-2.2l-3.03,3.29c1.63.75,3.24,1.53,4.89,2.26l3.08-3.34Z"/>
    <path class="cls-11" d="M688.75,335.05c-1.82-.65-3.62-1.32-5.41-2l-3.16,3.43c1.78.69,3.57,1.37,5.38,2.03l3.19-3.46Z"/>
    <path class="cls-11" d="M698.93,338.53c-1.57-.51-3.14-1.03-4.7-1.56l-3.25,3.52c1.54.54,3.11,1.06,4.67,1.59l3.27-3.54Z"/>
  </g>
  <g>
    <path class="cls-11" d="M732.46,381.66c-2.26.68-4.51,1.34-6.75,1.99l-1.33,5.86c2.24-.61,4.47-1.2,6.72-1.84l1.36-6Z"/>
    <path class="cls-11" d="M718.71,385.6c-2.06.56-4.11,1.1-6.17,1.63l-1.28,5.66c2.04-.5,4.09-1,6.14-1.52l1.31-5.76Z"/>
    <path class="cls-11" d="M691.79,392.06c-1.23.26-2.47.5-3.7.75l-1.22,5.36c1.23-.23,2.47-.51,3.7-.75l1.22-5.36Z"/>
    <path class="cls-11" d="M746.58,377.18c-2.36.79-4.72,1.55-7.07,2.3l-1.38,6.09c2.34-.7,4.68-1.39,7.04-2.13l1.42-6.26Z"/>
    <path class="cls-11" d="M705.6,388.96c-2.31.56-4.62,1.09-6.92,1.61l-1.24,5.46c2.29-.49,4.6-1,6.9-1.52l1.26-5.55Z"/>
    <path class="cls-11" d="M760.26,372.43c-2.2.8-4.39,1.57-6.58,2.33l-1.44,6.36c2.18-.72,4.35-1.39,6.54-2.15l1.49-6.55Z"/>
    <path class="cls-11" d="M580.74,399.6c-1.98-.16-3.96-.34-5.93-.53l-1.07,4.73c1.97.19,3.95.34,5.93.5l1.07-4.7Z"/>
    <path class="cls-11" d="M767.41,369.78l-1.51,6.64c2.57-.92,5.13-1.8,7.71-2.77l1.56-6.87c-2.6,1.02-5.18,2.02-7.77,3Z"/>
    <path class="cls-11" d="M630.72,400.19c-1.61.09-3.21.16-4.81.23l-1.09,4.8c1.6-.06,3.19-.08,4.79-.16l1.11-4.88Z"/>
    <path class="cls-11" d="M606.68,400.75c-2.01-.02-4.02-.05-6.03-.1l-1.07,4.73c2,.05,4.01.09,6.02.11l1.08-4.74Z"/>
    <path class="cls-11" d="M619.31,400.64c-2.03.05-4.05.09-6.07.11l-1.08,4.76c2.02-.01,4.04-.02,6.06-.07l1.09-4.8Z"/>
    <path class="cls-11" d="M594.16,400.43c-2.33-.1-4.65-.23-6.97-.37l-1.07,4.71c2.32.15,4.65.26,6.97.36l1.07-4.7Z"/>
    <path class="cls-11" d="M655.15,398.05c-1.55.18-3.11.37-4.66.53l-1.12,4.94c1.55-.15,3.09-.3,4.64-.48l1.13-5Z"/>
    <path class="cls-11" d="M643.79,399.24c-2.14.19-4.28.36-6.42.52l-1.1,4.85c2.13-.14,4.26-.26,6.4-.44l1.12-4.94Z"/>
    <path class="cls-11" d="M668.67,396.22c-2.26.34-4.52.67-6.77.97l-1.15,5.06c2.25-.28,4.5-.6,6.76-.92l1.16-5.11Z"/>
    <path class="cls-11" d="M681.24,394.12c-1.93.35-3.85.69-5.77,1.01l-1.18,5.2c1.92-.3,3.84-.65,5.77-.98l1.19-5.23Z"/>
  </g>
  <g>
    <path class="cls-11" d="M738.79,414.78c-2.06,1.75-4.12,3.48-6.19,5.19l1.35,6.58c2.08-1.67,4.16-3.32,6.23-5.03l-1.39-6.74Z"/>
    <path class="cls-11" d="M726.13,425.24c-1.91,1.53-3.82,3.05-5.74,4.55l1.31,6.35c1.93-1.46,3.85-2.94,5.77-4.43l-1.33-6.47Z"/>
    <path class="cls-11" d="M700.75,444.45c-1.18.84-2.37,1.67-3.55,2.5l1.24,6.02c1.19-.81,2.37-1.67,3.55-2.5l-1.24-6.02Z"/>
    <path class="cls-11" d="M751.59,403.59c-2.12,1.91-4.25,3.8-6.39,5.66l1.41,6.84c2.14-1.82,4.29-3.61,6.43-5.47l-1.45-7.03Z"/>
    <path class="cls-11" d="M713.87,434.81c-2.18,1.65-4.36,3.28-6.54,4.89l1.26,6.14c2.19-1.57,4.38-3.18,6.56-4.79l-1.28-6.24Z"/>
    <path class="cls-11" d="M763.79,392.33c-1.95,1.84-3.89,3.66-5.85,5.46l1.47,7.14c1.96-1.75,3.93-3.46,5.89-5.25l-1.51-7.35Z"/>
    <path class="cls-11" d="M587.07,504.29c-2.17.77-4.34,1.51-6.51,2.24l1.09,5.31c2.17-.73,4.34-1.51,6.5-2.28l-1.08-5.27Z"/>
    <path class="cls-11" d="M770.1,386.28l1.53,7.46c2.28-2.14,4.57-4.24,6.84-6.44l-1.59-7.72c-2.26,2.26-4.52,4.49-6.79,6.7Z"/>
    <path class="cls-11" d="M640.11,481.4c-1.65.85-3.31,1.67-4.97,2.5l1.11,5.4c1.66-.81,3.33-1.58,4.98-2.41l-1.13-5.48Z"/>
    <path class="cls-11" d="M615,493.27c-2.13.93-4.27,1.84-6.41,2.73l1.09,5.31c2.14-.89,4.28-1.79,6.41-2.72l-1.1-5.33Z"/>
    <path class="cls-11" d="M628.28,487.23c-2.12,1.01-4.24,1.99-6.36,2.96l1.1,5.35c2.13-.96,4.25-1.92,6.37-2.92l-1.11-5.39Z"/>
    <path class="cls-11" d="M601.63,498.84c-2.51.99-5.02,1.96-7.53,2.9l1.09,5.29c2.52-.94,5.03-1.92,7.53-2.91l-1.09-5.28Z"/>
    <path class="cls-11" d="M664.9,467.76c-1.55.92-3.11,1.84-4.67,2.73l1.14,5.55c1.56-.88,3.12-1.76,4.68-2.67l-1.15-5.61Z"/>
    <path class="cls-11" d="M653.46,474.31c-2.17,1.2-4.35,2.38-6.53,3.54l1.12,5.45c2.18-1.15,4.37-2.26,6.55-3.45l-1.14-5.54Z"/>
    <path class="cls-11" d="M678.31,459.55c-2.23,1.41-4.46,2.8-6.69,4.17l1.17,5.68c2.24-1.35,4.47-2.72,6.7-4.11l-1.18-5.74Z"/>
    <path class="cls-11" d="M690.59,451.5c-1.87,1.26-3.74,2.51-5.62,3.74l1.2,5.84c1.88-1.21,3.75-2.46,5.63-3.7l-1.21-5.88Z"/>
  </g>
  <circle class="cls-10" cx="537.83" cy="397.59" r="2.48"/>
  <circle class="cls-9" cx="540.3" cy="400.55" r="4.7"/>
  <ellipse class="cls-12" cx="550.13" cy="389.44" rx="8.68" ry="1.85" transform="translate(10.75 793.63) rotate(-72.14)"/>
  <circle class="cls-9" cx="550.13" cy="400.79" r="7.21"/>
  <ellipse class="cls-12" cx="553.31" cy="390.46" rx="8.68" ry="1.85" transform="translate(-61.5 674.41) rotate(-60)"/>
  <circle class="cls-10" cx="540.3" cy="397.59" r="2.48"/>
  <circle class="cls-10" cx="594.58" cy="281.51" r="2.48"/>
  <circle class="cls-9" cx="595.13" cy="285.33" r="4.7"/>
  <ellipse class="cls-12" cx="609.33" cy="281.01" rx="8.68" ry="1.85" transform="translate(-36.28 463.86) rotate(-40.57)"/>
  <circle class="cls-9" cx="603.38" cy="290.68" r="7.21"/>
  <ellipse class="cls-12" cx="611.5" cy="283.55" rx="8.68" ry="1.85" transform="translate(-61.24 325.32) rotate(-28.43)"/>
  <circle class="cls-10" cx="596.69" cy="282.8" r="2.48"/>
  <circle class="cls-10" cx="548.69" cy="515.95" r="2.48"/>
  <circle class="cls-9" cx="552.24" cy="517.48" r="4.7"/>
  <ellipse class="cls-12" cx="556.01" cy="503.14" rx="1.85" ry="8.68" transform="translate(-71.15 92.08) rotate(-8.9)"/>
  <circle class="cls-9" cx="561.12" cy="513.27" r="7.21"/>
  <ellipse class="cls-12" cx="559.31" cy="502.62" rx="8.68" ry="1.85" transform="translate(25.87 1032.62) rotate(-86.76)"/>
  <circle class="cls-10" cx="550.9" cy="514.83" r="2.48"/>
  <path class="cls-8" d="M1383.27,592.82c0-40.34-32.7-73.04-73.04-73.04s-73.04,32.7-73.04,73.04c0,24.36,11.93,45.92,30.26,59.19v34.2c0,6.63,5.37,12,12,12h61.57c6.63,0,12-5.37,12-12v-34.2c18.33-13.27,30.26-34.83,30.26-59.19Z"/>
  <circle class="cls-7" cx="1345.92" cy="592.04" r="20.09"/>
  <circle class="cls-7" cx="1273.96" cy="592.04" r="20.09"/>
  <path class="cls-7" d="M1307.05,601.03l-10.51,28.32c-.75,2.02.74,4.16,2.89,4.16h21.03c2.15,0,3.64-2.14,2.89-4.16l-10.51-28.32c-1-2.68-4.79-2.68-5.78,0Z"/>
  <path class="cls-7" d="M1281.27,651.52h0c2.48,0,4.5,2.02,4.5,4.5v30.98h-9v-30.98c0-2.48,2.02-4.5,4.5-4.5Z"/>
  <path class="cls-7" d="M1296.34,651.52h0c2.48,0,4.5,2.02,4.5,4.5v30.98h-9v-30.98c0-2.48,2.02-4.5,4.5-4.5Z"/>
  <path class="cls-7" d="M1310.23,651.52h0c2.48,0,4.5,2.02,4.5,4.5v30.98h-9v-30.98c0-2.48,2.02-4.5,4.5-4.5Z"/>
  <path class="cls-7" d="M1324.83,651.52h0c2.48,0,4.5,2.02,4.5,4.5v30.98h-9v-30.98c0-2.48,2.02-4.5,4.5-4.5Z"/>
  <path class="cls-7" d="M1338.88,651.52h0c2.48,0,4.5,2.02,4.5,4.5v30.98h-9v-30.98c0-2.48,2.02-4.5,4.5-4.5Z"/>
  <rect class="cls-6" x="723.44" y="847.17" width="132.13" height="69.26" rx="18.79" ry="18.79"/>
  <ellipse class="cls-12" cx="736.97" cy="882.78" rx="6.58" ry="24.65"/>
  <path class="cls-8" d="M789.51,913.91c45.59-29.62,24.15-57.9,0-64.2h27.85c28.93,7.29,11.13,37.37,0,64.2h-27.85Z"/>
  <rect class="cls-6" x="1142.38" y="812.54" width="132.13" height="69.26" rx="18.79" ry="18.79" transform="translate(2055.62 -361.27) rotate(90)"/>
  <ellipse class="cls-12" cx="1207.47" cy="794.64" rx="24.65" ry="6.58"/>
  <path class="cls-8" d="M1176.34,847.17c29.62,45.59,57.9,24.15,64.2,0v27.85c-7.29,28.93-37.37,11.13-64.2,0v-27.85Z"/>
  <rect class="cls-6" x="1134.57" y="848.15" width="132.13" height="69.26" rx="18.79" ry="18.79" transform="translate(2401.28 1765.57) rotate(-180)"/>
  <ellipse class="cls-12" cx="1253.18" cy="881.8" rx="6.58" ry="24.65"/>
  <path class="cls-8" d="M1200.64,850.67c-45.59,29.62-24.15,57.9,0,64.2h-27.85c-28.93-7.29-11.13-37.37,0-64.2h27.85Z"/>
  <path class="cls-7" d="M694.49,689.48c-3.16.41-3.97,8.65-5.87,17.22,0,0-4.16,18.72-14.87,36.78-3.28,5.54-11.43,18.95-26.61,28.17-3.69,2.25-7.16,3.85-43.43,13.3-22.74,5.92-25,6.24-29.35,9.39-11.09,8.04-15.15,19.61-20.35,34.43-6.34,18.07-9.8,27.94-5.87,39.91,4.77,14.52,17.41,22.95,25.83,28.57,1.35.9,5.19,3.46,5.87,2.74.51-.55-.92-2.89-5.48-8.61-10.81-13.58-12.05-12.14-14.09-16.43-3.99-8.4-1.25-18.05,1.96-29.35,1.14-4.03,2.22-6.65,4.3-11.74,6.04-14.74,9.07-22.12,14.48-27,3.65-3.29,7.01-4.5,27-8.61,24.56-5.05,25.56-4.49,32.48-6.26,10.08-2.59,31.26-8.03,45.39-25.83,3.41-4.3,7.36-18.13,15.26-45.78,1.33-4.65,3.84-13.91,0-23.09-.24-.58-3.51-8.23-6.65-7.83Z"/>
  <path class="cls-2" d="M883.39,821.82l-28.04,13.5c-3.97,1.91-6.85,5.53-7.83,9.82l-6.93,30.34c-.98,4.3.05,8.8,2.8,12.25l19.4,24.33c2.75,3.44,6.91,5.45,11.32,5.45h31.12c4.41,0,8.57-2.01,11.32-5.45l19.4-24.33c2.75-3.44,3.78-7.95,2.8-12.25l-6.93-30.34c-.98-4.3-3.86-7.91-7.83-9.82l-28.04-13.5c-3.97-1.91-8.59-1.91-12.56,0Z"/>
  <path class="cls-2" d="M952.4,802.06l-35.39,17.04c-3.97,1.91-6.85,5.53-7.83,9.82l-8.74,38.3c-.98,4.3.05,8.8,2.8,12.25l24.49,30.71c2.75,3.44,6.91,5.45,11.32,5.45h39.28c4.41,0,8.57-2.01,11.32-5.45l24.49-30.71c2.75-3.44,3.78-7.95,2.8-12.25l-8.74-38.3c-.98-4.3-3.86-7.91-7.83-9.82l-35.39-17.04c-3.97-1.91-8.59-1.91-12.56,0Z"/>
  <path class="cls-2" d="M958.23,818.22c2.26,8.81-.76,17.74-7.04,21.91-8.48,5.63-22.57,2.41-28.96-9.39"/>
  <path class="cls-2" d="M1005.18,868.3c-16.98-7.74-36.33-6.01-50.09,4.7-13.93,10.84-16.66,26.61-17.22,30.52"/>
  <path class="cls-2" d="M848.66,877.7c4.57-.93,18.4-3.13,33.65,3.91,15.52,7.16,22.83,19.41,25.04,23.48"/>
  <path class="cls-2" d="M892.49,830.74c.36,9.11-4.95,17.55-13.3,21.13-8.25,3.54-17.89,1.68-24.26-4.7"/>
  <path class="cls-2" d="M914.4,851.87c1.55.3,9.76,2.04,14.09,9.39,4.62,7.85,2.91,18.9-4.7,26.61"/>
</svg>