<?xml version="1.0" encoding="UTF-8"?>
<svg id="Layer_1" data-name="Layer 1" xmlns="http://www.w3.org/2000/svg" viewBox="0 0 1920 1080">
  <defs>
    <style>
      .cls-1 {
        fill: #999;
      }

      .cls-1, .cls-2, .cls-3, .cls-4, .cls-5, .cls-6 {
        stroke: #601113;
        stroke-miterlimit: 10;
        stroke-width: 5px;
      }

      .cls-2 {
        fill: #fff;
      }

      .cls-7, .cls-6 {
        fill: #cc2b2b;
      }

      .cls-3 {
        fill: #3a3a3a;
      }

      .cls-4 {
        fill: #d3d2d3;
      }

      .cls-8 {
        fill: #ff7373;
      }

      .cls-9 {
        fill: #faf1f1;
      }

      .cls-5 {
        fill: none;
      }
    </style>
  </defs>
  <path class="cls-9" d="M1444.23,406.08c-8.14-17.28-16.67-34.52-29.35-55.17-13.14-21.4-40.1-61.75-96.26-115.04-64.75-61.44-113.22-107.44-191.35-129.13-25.03-6.95-55.26-15.01-93.91-9.39-57.11,8.3-98.36,41.48-125.61,63.39-6.04,4.86-24.46,22.87-61.04,58.7-65.31,63.95-63.63,63.62-71.61,69.26-44.3,31.33-91.15,38.1-136.17,44.61-61.44,8.88-69.37-2.28-116.22,10.57-20.75,5.69-58.17,15.95-92.74,45.78-53.81,46.44-66.06,110.44-72.78,145.57-11.96,62.5-2.03,112.14,3.52,138.52,5.75,27.33,23.88,98.77,81,167.87,7.61,9.2,36.68,43.5,84.52,76.3,29.43,20.19,53.04,36.37,86.87,45.78,74.14,20.63,157.34-2.42,210.13-37.57,13.89-9.25,28.05-20.91,55.17-34.04,28.44-13.77,53.02-25.67,83.35-24.65,22.44.76,45.4,13.04,90.39,37.57,23.47,12.8,27.44,16.22,72.78,43.43,70.96,42.58,85.13,48.52,97.43,52.83,16.21,5.67,42.53,14.65,76.3,15.26,74.73,1.34,128.86-39.36,143.22-50.48,51.05-39.53,71.64-88.48,81-111.52,30.05-74,21.63-139.45,15.26-189-10.62-82.55-38.74-142.28-93.91-259.43Z"/>
  <circle class="cls-2" cx="743.75" cy="191.06" r="141.12"/>
  <circle class="cls-7" cx="736.5" cy="190.37" r="63.21"/>
  <path class="cls-3" d="M487.91,930.76v-439.23c0-3.8,3.08-6.88,6.88-6.88h44.33c3.8,0,6.88,3.08,6.88,6.88v60.1h56.46v-59.83c0-3.8,3.08-6.88,6.88-6.88h41.57c3.8,0,6.88,3.08,6.88,6.88v60.02h47.51v-58.92c0-3.8,3.08-6.88,6.88-6.88h52.73c3.8,0,6.88,3.08,6.88,6.88v58.75h46.85v-58.72c0-3.8,3.08-6.88,6.88-6.88h50.06c3.8,0,6.88,3.08,6.88,6.88v58.72h58.51v-59.25c0-3.8,3.08-6.88,6.88-6.88h47.05c3.8,0,6.88,3.08,6.88,6.88v59.25h48.25v-58.87c0-3.8,3.08-6.88,6.88-6.88h39.78c3.8,0,6.88,3.08,6.88,6.88v58.87h56.13v-58.96c0-3.8,3.08-6.88,6.88-6.88h44.7c3.8,0,6.88,3.08,6.88,6.88v58.96h64.74v-59.59c0-3.8,3.08-6.88,6.88-6.88h36.86c3.8,0,6.88,3.08,6.88,6.88v59.59h51.18v-59.59c0-3.8,3.08-6.88,6.88-6.88h52.36c3.8,0,6.88,3.08,6.88,6.88v437.6l-962.89,1.1Z"/>
  <circle class="cls-7" cx="698.62" cy="90.57" r="16.24"/>
  <path class="cls-7" d="M728.12,145.7l-12.42,5.09c-1.67-19.21-7.91-34.62-18.87-46.07l12.42-5.09c2.49,16.81,8.83,32.15,18.87,46.07Z"/>
  <circle class="cls-7" cx="835.89" cy="122.08" r="16.24"/>
  <path class="cls-7" d="M792.33,166.93l-8.62-10.29c17.8-7.43,30.58-18.05,38.16-31.98l8.62,10.29c-15.26,7.48-27.95,18.18-38.16,31.98Z"/>
  <circle class="cls-7" cx="812.68" cy="258.28" r="16.24"/>
  <path class="cls-7" d="M758.82,226.52l7.97-10.8c11.41,15.55,24.75,25.46,40.07,29.55l-7.97,10.8c-10.87-13.06-24.25-22.88-40.07-29.55Z"/>
  <circle class="cls-7" cx="665.97" cy="275.75" r="16.24"/>
  <path class="cls-7" d="M707.68,229.17l9.03,9.93c-17.48,8.14-29.82,19.27-36.84,33.5l-9.03-9.93c14.94-8.09,27.19-19.29,36.84-33.5Z"/>
  <circle class="cls-7" cx="630.86" cy="179.54" r="12.81"/>
  <path class="cls-7" d="M680.18,178.39l-.84,10.56c-14.12-5.66-27.19-6.75-39.16-3.11l.84-10.56c12.72,4.23,25.78,5.22,39.16,3.11Z"/>
  <circle class="cls-7" cx="770.93" cy="107.08" r="8.5"/>
  <path class="cls-7" d="M761.88,138.53l-6.52-2.62c6.39-7.82,9.67-15.87,9.74-24.17l6.52,2.62c-5.2,7.22-8.42,15.28-9.74,24.17Z"/>
  <circle class="cls-7" cx="713.69" cy="278.37" r="8.5"/>
  <path class="cls-7" d="M718.97,246.07l6.78,1.84c-5.42,8.52-7.73,16.9-6.82,25.15l-6.78-1.84c4.31-7.78,6.56-16.17,6.82-25.15Z"/>
  <line class="cls-5" x1="465.58" y1="933.25" x2="1479.06" y2="933.25"/>
  <path class="cls-4" d="M1419.05,169.15c-1.35-1.45-4.22-.97-7.72,0-1.97.54-3.83,1.16-5.55,1.8-1.84-4.07-5.44-8.28-9.88-13.37-10.33-11.85-21.17-18.96-29.22-23.7-12.06-7.1-29.22-17.03-54.58-22.6-10-2.2-27.21-5.83-49.61-3.31-19.11,2.15-32.93,7.76-40.79,11.03-20.11,8.34-33.14,18.39-45.75,28.11-14.17,10.93-22.8,17.58-31.42,29.77-8.1,11.45-12.23,22.19-15.99,31.97-8.07,20.99-5.15,24.63-13.23,39.14-5.7,10.25-9.99,13.51-8.82,19.29.62,3.07,2.56,5.75,5.21,8-2.73.79-5.62,1.93-8.52,3.58-.87.5-11.15,6.5-15.92,15.27-8.47-.18-17.53,11.77-22.4,19.19-8.39-1.28-15.01-.57-17.91-.28-21.76,2.13-43.75-.25-65.6.55-35.72,1.31-53.78,2.13-66.41,4.08-.58-1.19-1.39-2.18-2.5-2.98-1.61-1.16-2.23-.75-8.82-2.21-9.51-2.1-15.93-4.64-26.46-8.82-32.45-12.87-39.73-22.82-55.68-19.85-4.01.75-6.9,2-9.92,3.31-.86.37-1.69.76-2.5,1.16-8.15-7.54-10.2-9.43-14.04-11.64-8.35-4.81-16.01-5.96-20.4-6.62-27.32-4.08-51.84,10.77-59.54,15.44-15.87,9.61-24.95,20.16-37.49,34.73-9.56,11.11-19.76,23.14-28.11,41.9-2,4.49-7.97,18.5-11.03,38.04-2.61,16.69-1.53,27.38,0,51.27.55,8.54,2.55,40.48,3.31,66.15,1.17,39.64-.34,73.85,11.03,77.73,1.08.37,3.51.88,6.06,1.1,6.85.6,10.81-1.2,18.74-2.76,3.77-.74,7.73-1.52,12.68-1.65,9.04-.25,11.15,1.92,22.05,2.21,6.97.18,10.5.23,12.68-1.65,4.85-4.2,2.24-13.73.55-23.15-.85-4.74-1.12-18.6-1.65-46.31-.38-19.81-.58-30.13,1.65-44.1.71-4.45,1.67-10.37,3.35-16.99,7.2,11.47,10.09,22.93,14.84,41.8,5.12,20.36,5.97,35.77,8.74,37.8-.66,3.75-1.17,7.32-1.57,10.71-2.09,17.64-3.47,29.23-1.58,37.45-1.9,2.66-3.35,6.61-5.59,12.72-2.5,6.81-3.74,10.21-3.86,13.23-.21,5.37,1.64,7.97,10.47,24.81,7.66,14.6,8.33,16.56,8.82,18.19,2.89,9.61,1.31,13.13,4.33,15.37-.16,2.7-.31,5.96-.47,9.99-.64,16.57-.09,16.38-.55,24.81-1.32,24-6.44,37.76-7.2,45.97-3.74,4.88-5.83,7.69-7.68,11.91-3.08,7.02-5.47,17.79-1.65,20.4.83.57,2.76.38,6.62,0,3.31-.33,5.98-.84,9.92-1.65,4.2-.87,7.16-1.53,7.72-1.65,7.65-1.67,14.17,0,22.05,1.1,1.57.22,8.77.51,23.15,1.1,26.82,1.1,30.44.43,31.97-2.21,1.89-3.23-.39-7.85-4.96-17.09-2.51-5.07-5.26-10.52-11.03-15.99-1.65-1.56-4.97-4.65-9.9-7.29-1.1-5.86-4.69-14.29-7.19-29.64-2.77-16.96-4.38-32.01-5.31-43.65,8.41-4.17,5.66-15.08,17.99-33.52,4.48-6.71,5.57-6.35,6.62-9.92,2.39-8.21-2.98-11.47-8.27-31.97-.82-3.19-1.41-5.81-3.65-7.54,1.79-2.8,3.32-4.65,4.75-7.34,2.97-5.6,2.97-10.12,2.76-25.36-.04-2.78-.07-5.35-.11-7.74,1.31-.17,3.91-1.59,8.93-11,5.56-10.43,7.27-17.86,9.44-25.48,1.66,1.36,3.16,2.43,4.9,3.42,6.27,3.61,11.22,3.78,18.74,4.96,1.5.23,9.82,2.36,26.46,6.62,27.07,6.92,24.69,7.71,33.08,8.82,8.72,1.16,8.36-.09,33.08-.55,12.67-.24,11.36.11,36.93,0,5.98-.03,16.73-.09,30.32-.55,23.87-.8,26.63-3.26,29.77-3.31,4.55-.07-3.31,1.17,4.2-.05,4.3.94-3.58.05,2.42.6,1.63.15,2.51-.19,7.72,0,4.45.16,5.1,1.05,6.62.55.35-.11.47,1.24.76,1.03,1.68,1.61,4.1,1.86,6.96,4.48,5.31,4.85,10.38,9.5,13.78,15.99,2.25,4.29,2.75,7.47,3.86,12.68,0,0,3.43,16.17,8.82,31.97,3.15,9.24,5.4,15.81,8.22,20.71-.3.68-.64,1.48-1.06,2.44-5.18,12.02-6.5,15.61-7.72,19.29-1.54,4.64-2.3,7-2.21,8.82.28,5.2,3.24,5.8,6.62,13.23.93,2.04,2.46,7.06,5.51,17.09.09.29.17.56.25.82-.46,9.07-1,22.31-3.56,42.73-.43,3.41-.47,12.75-.55,31.42-.02,4.45,0,7.88.3,10.51-6.97,7.36-12.02,17.78-8.57,23.12,1.74,2.69,5.39,3.71,22.05,3.31,17.02-.42,25.88-1.8,37.49-2.76,26.69-2.21,39.01.21,40.79-4.96.65-1.89-1.76-5.33-6.62-12.13-6.74-9.45-10.11-14.17-15.99-17.64-2.93-1.73-5.8-2.81-8.51-3.52-.63-6.72-3.75-20.17-11.33-50.5-1.88-7.52-3.19-12.73-3.94-17.12.6-.26,1.15-.6,1.73-1.08,1.46-1.2,1.59-2,4.96-10.47,3.32-8.35-2.68,7.19,6.06-14.88,5.1-12.87,5.82-14.82,5.51-18.19-.27-3.01-.94-2.54-3.31-9.92-3.74-11.63-2.91-15.39-6.06-17.09-.8-.43-1.52-.55-2.39-.47,1.42-4.61,2.97-8.05,4.05-10.56,5.03-11.69,9.94-26.37,12.68-35.83,4-13.81,3.26-15.99,7.17-24.26,2.47-5.23,4.49-7.99,6.19-10.31.23.44.54.76.98.94,1.77.7,3.78-1.67,9.37-6.06,6.25-4.91,8.07-5.34,11.03-7.72,5.85-4.72,7.46-10.11,12.13-21.5,7.54-18.37,11.3-27.56,15.99-34.73,2.61-4,7.47-10.84,10.47-20.95.95-3.19,1.62-6.39,1.04-9.31,1.85-1.4,3.28-2.64,4.48-3.92,3.04-3.25,7.76-8.44,9.37-16.54,1.27-6.38.02-11.55-.55-13.78-2.05-8.05-6.54-13.26-8.82-15.99-8.29-9.92-9.91-14.17-13.81-20.36-.23-1.57-.42-3.24-.53-5-.45-7.79,1.42-7.09,8.82-35.28,0,0,2.05-7.8,9.92-27.56,1.53-3.83,2.47-6.02,3.86-6.06,4.67-.13,9.01,24.05,11.03,35.28,3.22,17.96,4.84,26.94,4.96,32.52.02.68.2,9.48,3.86,19.85,2.25,6.39,4.23,8.85,6.62,9.37,2.95.65,4.08-2.21,8.27-3.31,6.47-1.7,8.95,3.74,18.74,4.96,2.25.28,10.45,1.3,15.99-3.31,4.12-3.43,5.03-8.53,5.51-11.03,4.21-21.75,9.16-17.41,17.09-51.27,2.04-8.71,3.35-16,8.82-24.81,3.13-5.04,5.29-6.83,7.72-9.92,14.86-18.97,1.72-38.66,14.88-67.25,4.32-9.37,7.72-15.99,7.72-15.99s3.98-7.74,9.37-22.05c1.48-3.93,2.61-7.2,1.1-8.82Z"/>
  <rect class="cls-1" x="606.9" y="778.3" width="705.76" height="99.23" rx="23.48" ry="23.48"/>
  <circle class="cls-4" cx="686.28" cy="864.19" r="66.15"/>
  <circle class="cls-4" cx="860.61" cy="864.19" r="66.15"/>
  <circle class="cls-4" cx="1035.51" cy="864.19" r="66.15"/>
  <circle class="cls-4" cx="1211.78" cy="864.19" r="66.15"/>
  <circle class="cls-6" cx="1360.93" cy="256.35" r="10.89"/>
  <circle class="cls-1" cx="1211.78" cy="864.19" r="25.61"/>
  <circle class="cls-1" cx="1036.19" cy="864.19" r="25.61"/>
  <circle class="cls-1" cx="860.61" cy="864.19" r="25.61"/>
  <circle class="cls-1" cx="686.28" cy="864.19" r="25.61"/>
  <polyline class="cls-5" points="1050.21 312.74 1050.21 339.45 1073.3 339.45 1073.3 364.81 1050.21 364.81 1050.21 410.01"/>
  <circle class="cls-1" cx="1050.21" cy="419.54" r="9.97"/>
  <circle class="cls-1" cx="1155.6" cy="376.66" r="9.97"/>
  <circle class="cls-1" cx="1155.6" cy="289.67" r="9.97"/>
  <circle class="cls-1" cx="1243.7" cy="184.6" r="9.97"/>
  <circle class="cls-1" cx="1312.66" cy="174.63" r="9.97"/>
  <circle class="cls-1" cx="1173.63" cy="464.54" r="9.97"/>
  <circle class="cls-1" cx="1003.84" cy="464.54" r="9.97"/>
  <circle class="cls-1" cx="823.03" cy="400.04" r="9.97"/>
  <circle class="cls-1" cx="695.69" cy="390.06" r="9.97"/>
  <circle class="cls-1" cx="762.4" cy="361.38" r="9.97"/>
  <circle class="cls-1" cx="788.3" cy="619.72" r="9.97"/>
  <circle class="cls-1" cx="1149.65" cy="729.8" r="9.97"/>
  <circle class="cls-1" cx="899.15" cy="454.56" r="9.97"/>
  <polyline class="cls-5" points="984 533.54 984 507.59 1003.84 507.59 1003.84 474.51"/>
  <polyline class="cls-5" points="1109.83 576.6 1141.11 576.6 1141.11 535.7 1173.63 535.7 1173.63 476.71"/>
  <polyline class="cls-5" points="1139.56 184.6 1170.33 184.6 1170.33 212.66 1204.5 212.66 1204.5 184.6 1233.72 184.6"/>
  <polyline class="cls-5" points="743.75 503.77 775.07 503.77 775.07 454.56 889.18 454.56"/>
  <line class="cls-1" x1="823.03" y1="454.56" x2="823.03" y2="409.56"/>
  <polyline class="cls-5" points="638.46 451.4 695.69 451.4 695.69 400.04"/>
  <polyline class="cls-5" points="930.5 315.98 930.5 361.38 882.57 361.38 882.57 332.83 833 332.83 833 361.38 770.93 361.38"/>
  <polyline class="cls-5" points="1273.99 419.54 1211.78 419.54 1211.78 376.66 1163.66 376.66"/>
  <polyline class="cls-5" points="762.4 715.69 788.3 715.69 788.3 629.69"/>
  <polyline class="cls-5" points="1124.08 617.64 1149.65 617.64 1149.65 719.82"/>
  <polyline class="cls-5" points="1260.96 328.25 1186.16 328.25 1186.16 245.46 1312.66 245.46 1312.66 184.6"/>
  <line class="cls-1" x1="1186.64" y1="288.18" x2="1165.57" y2="288.18"/>
  <path class="cls-8" d="M779.21,163.04c-1.92,2.82-15.37-9.02-37.14-7.72-4.95.29-23.77,1.42-33.76,13.78-15.62,19.33.69,53.3-6.19,55.68-3.82,1.32-10.38-8.6-11.25-9.92-10.12-15.29-5.86-32.94-4.5-38.59,1.6-6.63,5.28-21.93,20.26-32.52,2.54-1.8,16.83-11.54,35.45-8.82,23.6,3.45,39.42,24.76,37.14,28.11Z"/>
</svg>