<?xml version="1.0" encoding="UTF-8"?>
<svg id="Layer_1" data-name="Layer 1" xmlns="http://www.w3.org/2000/svg" viewBox="0 0 1920 1080">
  <defs>
    <style>
      .cls-1 {
        fill: #999;
      }

      .cls-1, .cls-2, .cls-3, .cls-4, .cls-5, .cls-6 {
        stroke-miterlimit: 10;
        stroke-width: 5px;
      }

      .cls-1, .cls-3, .cls-4, .cls-5, .cls-6 {
        stroke: #601113;
      }

      .cls-7 {
        fill: #f8f4f4;
      }

      .cls-2 {
        stroke: #cc2b2b;
      }

      .cls-2, .cls-4 {
        fill: none;
      }

      .cls-3 {
        fill: #d3d2d3;
      }

      .cls-8 {
        fill: #3a3a3a;
      }

      .cls-9, .cls-5 {
        fill: #faf1f1;
      }

      .cls-10 {
        fill: #ffe6f3;
        opacity: .43;
      }

      .cls-6 {
        fill: #cc2b2b;
      }
    </style>
  </defs>
  <path class="cls-9" d="M1419.56,390.08c-8.14-17.28-16.67-34.52-29.35-55.17-13.14-21.4-40.1-61.75-96.26-115.04-64.75-61.44-113.22-107.44-191.35-129.13-25.03-6.95-55.26-15.01-93.91-9.39-57.11,8.3-98.36,41.48-125.61,63.39-6.04,4.86-24.46,22.87-61.04,58.7-65.31,63.95-63.63,63.62-71.61,69.26-44.3,31.33-91.15,38.1-136.17,44.61-61.44,8.88-69.37-2.28-116.22,10.57-20.75,5.69-58.17,15.95-92.74,45.78-53.81,46.44-66.06,110.44-72.78,145.57-11.96,62.5-2.03,112.14,3.52,138.52,5.75,27.33,23.88,98.77,81,167.87,7.61,9.2,36.68,43.5,84.52,76.3,29.43,20.19,53.04,36.37,86.87,45.78,74.14,20.63,157.34-2.42,210.13-37.57,13.89-9.25,28.05-20.91,55.17-34.04,28.44-13.77,53.02-25.67,83.35-24.65,22.44.76,45.4,13.04,90.39,37.57,23.47,12.8,27.44,16.22,72.78,43.43,70.96,42.58,85.13,48.52,97.43,52.83,16.21,5.67,42.53,14.65,76.3,15.26,74.73,1.34,128.86-39.36,143.22-50.48,51.05-39.53,71.64-88.48,81-111.52,30.05-74,21.63-139.45,15.26-189-10.62-82.55-38.74-142.28-93.91-259.43Z"/>
  <path class="cls-2" d="M737.87,889.83c-6.15-1.78-61.59-18.58-71.61-59.87-12.87-53.07,56.68-116.18,109.17-112.7,53.78,3.57,61.83,75.18,131.48,103.3,55.71,22.5,116.26,3.21,158.48-16.43"/>
  <path class="cls-3" d="M1019.12,234.78h295.53c18.57,0,33.65,15.08,33.65,33.65v648.82h-362.83V268.43c0-18.57,15.08-33.65,33.65-33.65Z"/>
  <path class="cls-7" d="M1336.57,310.61h0c4.52,0,8.18,3.67,8.18,8.18v594.46h-16.37V318.79c0-4.52,3.67-8.18,8.18-8.18Z"/>
  <line class="cls-4" x1="440.91" y1="917.25" x2="1454.39" y2="917.25"/>
  <path class="cls-3" d="M1008.06,876.91h-139.05l-9.07-122.09h-52.43l-9.07,122.09h-139.05c-7.02,0-12.71,5.69-12.71,12.71v27.63h374.09v-27.63c0-7.02-5.69-12.71-12.71-12.71Z"/>
  <rect class="cls-3" x="516.39" y="387.26" width="634.66" height="400.7" rx="26.98" ry="26.98"/>
  <rect class="cls-6" x="558.65" y="424.7" width="546.26" height="325.83" rx="26.98" ry="26.98"/>
  <path class="cls-5" d="M844.1,621.75l57.74-121.65c3.62-7.62-1.94-16.41-10.38-16.41h-115.47c-8.44,0-14,8.79-10.38,16.41l57.74,121.65c4.15,8.75,16.6,8.75,20.76,0Z"/>
  <circle class="cls-5" cx="833.72" cy="675.59" r="26.28"/>
  <circle class="cls-6" cx="1308.39" cy="275.02" r="16.37"/>
  <rect class="cls-3" x="1025.48" y="325.17" width="282.91" height="62.09" rx="17.61" ry="17.61"/>
  <rect class="cls-1" x="1233.26" y="422" width="75.13" height="28.17" rx="8.22" ry="8.22"/>
  <rect class="cls-1" x="1233.26" y="479.52" width="75.13" height="28.17" rx="8.22" ry="8.22"/>
  <polygon class="cls-8" points="530.55 367.67 512.92 260.6 464.96 288.87 476.02 195.37 411.62 219.77 433.22 336.96 489.07 303.37 530.55 367.67"/>
  <rect class="cls-10" x="608.74" y="426.65" width="83.48" height="320.87"/>
  <rect class="cls-10" x="722.17" y="426.65" width="55.3" height="320.87"/>
  <rect class="cls-10" x="789.57" y="426.65" width="21.08" height="320.87"/>
</svg>