<?xml version="1.0" encoding="UTF-8"?>
<svg id="Layer_1" data-name="Layer 1" xmlns="http://www.w3.org/2000/svg" viewBox="0 0 1920 1080">
  <defs>
    <style>
      .cls-1 {
        fill: #999;
      }

      .cls-1, .cls-2, .cls-3, .cls-4 {
        stroke: #601113;
        stroke-miterlimit: 10;
        stroke-width: 5px;
      }

      .cls-2 {
        fill: #3a3a3a;
      }

      .cls-3 {
        fill: #d3d2d3;
      }

      .cls-5 {
        fill: #faf1f1;
      }

      .cls-4 {
        fill: none;
      }
    </style>
  </defs>
  <path class="cls-5" d="M1420.88,411.79c-8.14-17.28-16.67-34.52-29.35-55.17-13.14-21.4-40.1-61.75-96.26-115.04-64.75-61.44-113.22-107.44-191.35-129.13-25.03-6.95-55.26-15.01-93.91-9.39-57.11,8.3-98.36,41.48-125.61,63.39-6.04,4.86-24.46,22.87-61.04,58.7-65.31,63.95-63.63,63.62-71.61,69.26-44.3,31.33-91.15,38.1-136.17,44.61-61.44,8.88-69.37-2.28-116.22,10.57-20.75,5.69-58.17,15.95-92.74,45.78-53.81,46.44-66.06,110.44-72.78,145.57-11.96,62.5-2.03,112.14,3.52,138.52,5.75,27.33,23.88,98.77,81,167.87,7.61,9.2,36.68,43.5,84.52,76.3,29.43,20.19,53.04,36.37,86.87,45.78,74.14,20.63,157.34-2.42,210.13-37.57,13.89-9.25,28.05-20.91,55.17-34.04,28.44-13.77,53.02-25.67,83.35-24.65,22.44.76,45.4,13.04,90.39,37.57,23.47,12.8,27.44,16.22,72.78,43.43,70.96,42.58,85.13,48.52,97.43,52.83,16.21,5.67,42.53,14.65,76.3,15.26,74.73,1.34,128.86-39.36,143.22-50.48,51.05-39.53,71.64-88.48,81-111.52,30.05-74,21.63-139.45,15.26-189-10.62-82.55-38.74-142.28-93.91-259.43Z"/>
  <line class="cls-4" x1="442.22" y1="938.96" x2="1455.7" y2="938.96"/>
  <path class="cls-1" d="M744.67,859.92c-2.7.54-4.66,2.88-4.66,5.64v14.05h-28.8c-3.17,0-5.74,2.57-5.74,5.74v19.02h-27.19c-3.17,0-5.74,2.57-5.74,5.74v28.42h270.27V90.33s-.09-.04-.14-.04c-1.14-.05-1.6,3.65-4.65,10.81-2.09,4.89-3.18,7.39-5.59,9.97-2.14,2.29-2.81,1.97-6.83,5.41-1.89,1.62-4.47,3.82-6.83,6.83-4.11,5.25-5.7,10.57-6.26,12.81-1.51,5.97-.98,10.74-.57,14.23.65,5.49,1.27,10.69,4.84,15.66,1.76,2.44,5.62,6.77,9.68,10.53,1.35,1.25,2.97,2.67,3.7,5.12.11.35,1.18,4.14-.85,7.4-1.06,1.7-2.15,1.95-7.97,5.12-3.79,2.07-5.69,3.1-6.83,3.99-4.07,3.14-6.11,6.9-6.83,8.25-1.31,2.47-2.24,5.18-3.13,11.67-.39,2.85-.73,5.29-.98,7.4h-4.71c-3.77,0-6.83,3.06-6.83,6.83v7.53c-3.11.21-6.42.59-9.96,1.01-4.51.53-18.05,2.42-39.28,12.52-13.33,6.34-22.35,12.43-35.86,21.63-15.76,10.73-15.71,12.03-35.86,26.19-22.99,16.14-31.31,20.25-37,22.77-12.43,5.51-22.42,7.96-27.89,9.11-9.21,1.93-20.06,4.09-33.59,1.71-9.27-1.63-15.62-4.67-20.49-8.54-3.84-3.05-6.64-6.52-7.97-10.82-.56-1.79-1.62-5.21,0-7.97,1.45-2.47,3.78-2.27,6.26-3.98,4.73-3.27,7.6-11.84,4.55-18.22-3.95-8.28-15.56-8.03-17.08-7.97-12.32.46-19.2,11.84-19.92,13.09-4.21,7.23-3.6,14.27-2.85,22.77.46,5.27,1.5,15.68,8.54,26.76.41.65,1.08,1.67,2.01,2.92l-88.37,258.95h-7.21c-.9,0-1.45,1-.96,1.76,24.39,37.33,66.54,62,114.46,62s90.07-24.67,114.46-62c.49-.75-.06-1.76-.96-1.76h-6.14l-80.49-235.88c.71.07,1.42.14,2.17.2,13.05,1.03,31.39.64,53.51-5.69,18.37-5.26,31.1-12.25,46.11-20.49,16.16-8.87,15.89-10.53,39.28-23.91,22.8-13.04,32.62-16.94,37.57-18.79,15.51-5.79,23.26-8.68,33.59-8.54,3.66.05,6.7.42,9.39.82v21.39c0,3.77,3.06,6.83,6.83,6.83h3.54v22.21c0,4.71,3.82,8.53,8.53,8.53h.74v319.03c0,3.25-.44,6.48-1.3,9.61l-12.65,45.79c-2.26,8.19-1.56,16.91,1.97,24.64l6.9,15.08h-1.75c-32.9,51.2-87.16,82.83-160.15,97.31ZM639.54,601.79h-91.94l85.53-250.65c1.85,1.68,3.99,3.4,6.41,5.04v245.62ZM740.52,601.79h-91.87v-240.64c2.58,1.06,6.07,2.21,10.84,3.19l81.03,237.45Z"/>
  <path class="cls-3" d="M979.33,762.61h-1.75s6.9-15.08,6.9-15.08c3.54-7.72,4.23-16.45,1.97-24.64l-12.65-45.79c-.87-3.13-1.3-6.37-1.3-9.61v-319.03h.74c4.71,0,8.53-3.82,8.53-8.53v-22.21h3.54c3.77,0,6.83-3.06,6.83-6.83v-21.39c2.69-.39,5.74-.77,9.39-.82,10.33-.14,18.08,2.75,33.59,8.54,4.95,1.85,14.77,5.75,37.57,18.79,23.39,13.38,23.12,15.03,39.28,23.91,15.01,8.24,27.74,15.24,46.11,20.49,22.12,6.33,40.46,6.72,53.51,5.69.75-.06,1.46-.13,2.17-.2l-80.49,235.88h-6.14c-.9,0-1.45,1-.96,1.76,24.39,37.33,66.54,62,114.46,62s90.07-24.67,114.46-62c.49-.75-.06-1.76-.96-1.76h-7.21s-88.37-258.95-88.37-258.95c.92-1.25,1.59-2.27,2.01-2.92,7.04-11.08,8.08-21.49,8.54-26.76.75-8.51,1.37-15.54-2.85-22.77-.73-1.25-7.61-12.64-19.92-13.09-1.52-.06-13.13-.31-17.08,7.97-3.04,6.38-.18,14.95,4.55,18.22,2.48,1.72,4.81,1.51,6.26,3.98,1.62,2.76.56,6.18,0,7.97-1.33,4.3-4.13,7.77-7.97,10.82-4.87,3.87-11.22,6.91-20.49,8.54-13.53,2.38-24.38.22-33.59-1.71-5.47-1.15-15.46-3.6-27.89-9.11-5.69-2.52-14.02-6.63-37-22.77-20.16-14.15-20.1-15.45-35.86-26.19-13.51-9.2-22.53-15.29-35.86-21.63-21.23-10.1-34.77-12-39.28-12.52-3.55-.42-6.86-.8-9.96-1.01v-7.53c0-3.77-3.06-6.83-6.83-6.83h-4.71c-.25-2.11-.59-4.55-.98-7.4-.89-6.49-1.82-9.2-3.13-11.67-.72-1.36-2.76-5.11-6.83-8.25-1.14-.88-3.04-1.92-6.83-3.99-5.82-3.18-6.91-3.42-7.97-5.12-2.03-3.26-.96-7.05-.85-7.4.73-2.45,2.35-3.87,3.7-5.12,4.06-3.76,7.92-8.09,9.68-10.53,3.57-4.96,4.19-10.16,4.84-15.66.42-3.49.94-8.26-.57-14.23-.56-2.24-2.15-7.56-6.26-12.81-2.36-3.01-4.94-5.21-6.83-6.83-4.02-3.44-4.69-3.12-6.83-5.41-2.41-2.58-3.51-5.08-5.59-9.97-3.05-7.16-3.51-10.86-4.65-10.81-.05,0-.1.02-.14.04v848.19s270.27,0,270.27,0v-28.42c0-3.17-2.57-5.74-5.74-5.74h-27.19v-19.02c0-3.17-2.57-5.74-5.74-5.74h-28.8v-14.05c0-2.75-1.96-5.1-4.66-5.64-72.99-14.48-127.26-46.11-160.15-97.31ZM1244.61,356.18c2.42-1.64,4.56-3.35,6.41-5.04l85.53,250.65h-91.94v-245.62ZM1224.66,364.34c4.77-.97,8.26-2.13,10.84-3.19v240.64h-91.87s81.03-237.45,81.03-237.45Z"/>
  <path class="cls-2" d="M513.5,587.56c-6.15,0-9.97,6.69-6.84,11.99,26.8,45.47,76.27,75.98,132.88,75.98s106.07-30.51,132.88-75.98c3.12-5.3-.69-11.99-6.84-11.99h-252.07Z"/>
  <path class="cls-2" d="M1118.58,587.56c-6.15,0-9.97,6.69-6.84,11.99,26.8,45.47,76.27,75.98,132.88,75.98s106.07-30.51,132.88-75.98c3.12-5.3-.69-11.99-6.84-11.99h-252.07Z"/>
</svg>