<?xml version="1.0" encoding="UTF-8"?>
<svg id="Layer_1" data-name="Layer 1" xmlns="http://www.w3.org/2000/svg" viewBox="0 0 1920 1080">
  <defs>
    <style>
      .cls-1 {
        fill: #999;
      }

      .cls-1, .cls-2, .cls-3 {
        stroke: #601113;
        stroke-miterlimit: 10;
        stroke-width: 5px;
      }

      .cls-4 {
        fill: #601113;
      }

      .cls-5 {
        fill: #faf1f1;
      }

      .cls-2 {
        fill: #fdd7cf;
      }

      .cls-3 {
        fill: none;
      }
    </style>
  </defs>
  <path class="cls-5" d="M1459.19,428.87c-8.14-17.28-16.67-34.52-29.35-55.17-13.14-21.4-40.1-61.75-96.26-115.04-64.75-61.44-113.22-107.44-191.35-129.13-25.03-6.95-55.26-15.01-93.91-9.39-57.11,8.3-98.36,41.48-125.61,63.39-6.04,4.86-24.46,22.87-61.04,58.7-65.31,63.95-63.63,63.62-71.61,69.26-44.3,31.33-91.15,38.1-136.17,44.61-61.44,8.88-69.37-2.28-116.22,10.57-20.75,5.69-58.17,15.95-92.74,45.78-53.81,46.44-66.06,110.44-72.78,145.57-11.96,62.5-2.03,112.14,3.52,138.52,5.75,27.33,23.88,98.77,81,167.87,7.61,9.2,36.68,43.5,84.52,76.3,29.43,20.19,53.04,36.37,86.87,45.78,74.14,20.63,157.34-2.42,210.13-37.57,13.89-9.25,28.05-20.91,55.17-34.04,28.44-13.77,53.02-25.67,83.35-24.65,22.44.76,45.4,13.04,90.39,37.57,23.47,12.8,27.44,16.22,72.78,43.43,70.96,42.58,85.13,48.52,97.43,52.83,16.21,5.67,42.53,14.65,76.3,15.26,74.73,1.34,128.86-39.36,143.22-50.48,51.05-39.53,71.64-88.48,81-111.52,30.05-74,21.63-139.45,15.26-189-10.62-82.55-38.74-142.28-93.91-259.43Z"/>
  <line class="cls-3" x1="480.54" y1="956.05" x2="1494.02" y2="956.05"/>
  <path class="cls-2" d="M1075.78,893.33c-.26.48-2.15,4.05-4.94,8.89-2.1,3.65-2.69,4.51-3.57,5.49-.95,1.07-2.83,2.93-7.68,5.49-4.27,2.25-5.42,2.17-9.05,3.84-4.4,2.03-7.2,4.21-12.34,8.23-6.07,4.74-5.81,5.5-10.15,8.23-3.87,2.43-7.37,3.9-9.88,4.94-4.5,1.86-6.75,2.8-9.05,3.02-3.55.34-5.19-.5-10.97,0-3.03.26-4.26.64-4.94,1.65-1.3,1.93.28,4.96.55,5.49,1.48,2.84,4.15,4.09,6.03,4.94,2.52,1.13,5.33,1.8,9.6,1.92,6.08.17,6.65-1,13.44-1.37,5.43-.3,5.31.44,13.44.27,5-.1,7.5-.15,10.42-.82,5.01-1.15,5.57-2.48,10.15-3.29,3.14-.56,5.38-.37,9.88,0,3.63.3,5.31.7,13.72,2.19,5.75,1.02,8.62,1.53,9.6,1.65,5.7.68,10.78,1.28,16.73-.27,3.85-1,7.99-2.09,10.42-5.76,1.74-2.62,1.81-5.37,1.92-9.88.06-2.44-.1-4.3-1.1-11.25-1.06-7.35-1.41-8.92-2.19-14.54-.79-5.65-1.19-8.48-1.35-11.36-.55-9.49,1-10.53-.29-12.78-4.87-8.45-33.11-4.55-38.4,5.1Z"/>
  <path class="cls-2" d="M1328.97,251.28c1.51-9.95,1.31-17.99.82-23.59-.91-10.44-2.87-13.08-3.57-26.06-.16-3.08-.11-7.82,0-17.28.1-8.82.28-10.65,1.1-13.17,2.15-6.62,5.49-11.52,5.49-11.52,2.03-2.98,3.56-4.37,3.29-6.58-.28-2.28-2.36-4.42-4.66-4.94-2.65-.59-4.88,1.13-7.68,3.29-1,.77-4.05,3.24-7.41,8.5-2.64,4.14-1.98,4.54-4.66,8.78-2.71,4.28-3.63,4.26-6.31,8.5-.46.73-2.55,4.08-4.39,8.78-2.22,5.67-1.54,6.86-3.57,12.89-1.68,4.99-3.62,8.57-4.94,10.97-1.29,2.35-3.78,6.83-7.96,11.8-2.37,2.81-3.07,3.16-5.21,6.03-1.53,2.05-3.42,4.63-4.94,8.23-1.46,3.48-2.78,6.62-2.19,9.6,1.13,5.73,8.87,8.59,12.34,9.88,16.69,6.18,36.22-.72,44.44-4.11Z"/>
  <path class="cls-2" d="M919.41,202.72c2.93-2.32,8.28-3.17,11.34-3.66,5.13-.82,7.72-.25,13.35-.18,3.16.04,8.37-.52,18.65-1.65,17.47-1.91,16.5-2.26,20.3-2.19,7.34.12,12.83,1.44,20.3,3.29,10.94,2.71,18.9,5.83,20.85,6.58,21.2,8.23,44.12,13.73,53.22,15.91,19.89,4.77,33.6,8.06,52.67,8.23,12.05.11,17.67-1.11,37.31-.55,15.46.44,24.43,1.54,29.08,2.19,6.86.96,6.41,1.22,25.24,4.94,4.93.97,16.46,2.84,39.5,6.58,7.55,1.22,11.42,1.82,16.46,1.1,5.77-.83,7.31-2.42,18.65-5.49,5.38-1.45,8.32-2.23,12.62-2.74,3.94-.47,9.49-.77,15.91.55,2,.41,9.6,1.97,9.88,4.94.14,1.5-1.67,2.62-1.1,4.11.49,1.29,2.01.91,2.74,2.19,1.18,2.07-1.76,4.8-.55,6.58.68,1.01,1.8.42,2.47,1.37,1.31,1.87-2.43,4.83-1.37,7.96.63,1.86,2.26,1.71,3.02,4.11.55,1.74.16,3.3,0,3.84-.8,2.68-3.24,4.15-4.66,4.94-11.88,6.57-27.98,9.6-27.98,9.6-10.07,1.9-15.1,2.85-16.46,2.74-10.59-.81-12.77-6.65-26.33-13.44-14.91-7.46-28.93-8.75-35.94-9.33-5.07-.42-4.42.02-21.4.27-25.85.39-24.66-.65-37.58,0-20.82,1.05-22.69,3.71-37.31,2.74-10.29-.68-11.74-2.15-24.69-4.11-10.92-1.66-11.62-.87-45.26-2.19-40.73-1.6-45.16-2.96-48.83-4.94-1.75-.95-8.52-4.83-10.7-2.74-.85.82-.69,2.25-.55,3.57.46,4.46.22,8.99.82,13.44,1.06,7.87-13.47,22.17-27.71,23.87-26.46,3.15-48.43-37.71-55.69-59.53-1.28-3.84-8.72-26.22-.27-32.92Z"/>
  <path class="cls-2" d="M853.58,231.8c-4.56-.02-5.68,4.11-15.36,7.13-7.77,2.43-13.24,1.7-20.3,1.65-12.58-.1-14.26,2.03-32.92,4.39-8.48,1.07-23.37,2.89-41.15,2.19-8.34-.33-25.43-1.52-46.09-7.13-21.62-5.87-21.81-9.69-40.6-13.72-14.12-3.03-12.04-.45-38.95-3.84-23.22-2.93-34.83-4.39-48.83-8.23-5.89-1.61-12.05-3.57-21.4-4.39-8.03-.7-12.48-.05-23.04.55-16.5.93-24.74,1.39-31.82.55-16.02-1.91-26.91-3.2-36.76-9.33-1.96-1.22-6.57-4.3-8.78-2.74-1.56,1.1-1.67,4.35-.55,6.58,1.27,2.53,3.98,3.49,4.94,3.84,6.37,2.33,11.9,6.57,18.1,9.33,11.54,5.14,9.91,5.78,19.75,9.88,7.66,3.19,11.5,4.78,17.01,5.49,8.75,1.11,16.71-.47,19.75-1.1,5.64-1.16,7.41-2.3,13.17-2.74,2.37-.18,6.55-.48,11.52.55,5.86,1.21,9.88,3.64,12.07,4.94,7.81,4.62,16.13,8.34,24.14,12.62,5.11,2.73,14.38,6.39,32.92,13.72,15.84,6.26,23.77,9.39,29.08,10.97,11.31,3.38,21.68,6.48,35.66,7.13,9.12.43,11.49-.57,21.4.55,6.44.73,10.06,1.67,21.95,4.39,15.92,3.64,23.88,5.46,27.43,6.03,7.54,1.23,19.45,3.16,34.56,2.19,10.39-.66,13.93-2.16,26.33-2.19,8.71-.02,13.07-.03,17.56,1.1,14.73,3.72,18.16,13,27.43,12.07,7.21-.72,12-7.02,12.94-8.26,14.76-19.42-6.19-64.1-21.17-64.16Z"/>
  <path class="cls-2" d="M1017.07,321.78c1.52,1.91,1.28,3.95,5.49,11.89,1.15,2.16,2.51,4.55,6.03,10.06,5.58,8.72,8.37,13.08,9.88,14.81,7.36,8.45,16.58,11.91,21.4,13.72,13.17,4.94,17.05,1.32,21.4,5.49,3.97,3.81,4.23,10.18-3.29,41.7-8.39,35.14-12.21,41.84-19.2,45.54-6.88,3.64-14.89,3.34-15.91,3.29-2.86-.14-7.68-.76-18.65-6.58-8.06-4.27-11.8-7.3-21.95-14.26-9.52-6.53-7.31-4.61-20.85-13.72-15.47-10.4-22.48-15.68-26.33-18.65-7.44-5.73-11.16-8.6-13.72-11.52-2.63-3-12.57-14.37-12.62-27.43-.05-14.22,11.63-24.15,21.94-32.92,25.03-21.28,59.23-30.41,66.38-21.4Z"/>
  <path class="cls-2" d="M802.01,121.16c-5.45,5.71-7.68,12.07-7.68,12.07-.96,2.73-1.31,5.01-1.83,8.41-.99,6.45-.56,9.74-.37,10.97.37,2.34.95,3.98,1.1,4.39,1,2.77,1.96,3.67,2.56,5.12,1.14,2.74.16,5.43-1.46,9.88-.9,2.46-2.93,8.05-6.58,13.17-.52.74-1.84,2.52-2.19,5.12-.2,1.48-.4,2.96.37,4.02,2.12,2.92,9.17-.68,11.34,2.19.47.63.44,2,.37,4.75-.12,4.46-.96,5.98,0,6.95,1.33,1.34,4.25-.21,4.76.73.58,1.08-3.3,3.1-2.93,5.49.29,1.82,2.71,1.68,4.02,4.39.23.47.28.74.73,4.75.51,4.6.5,4.76.73,5.12.78,1.18,2.44,1.66,10.97,1.1,8.38-.55,12.56-.83,14.26-1.46.92-.34,2.79-1.11,5.12-.73,1.83.3,3.15,1.18,4.02,1.83,4.44,3.32,7.32,8.49,7.68,9.14,6.81,12.19,8.72,10.91,10.61,17.19,1.8,6.02-.13,6.58,1.1,13.53.95,5.35,2.46,7.08,10.61,21.58,7.78,13.85,8.62,16.22,12.8,20.48,4.32,4.41,8.69,8.86,14.63,8.41,5.19-.39,9.67-4.37,11.7-8.41,1.88-3.74.6-5.4,1.83-10.24,1.81-7.11,5.94-8.82,9.14-14.26,2.05-3.48,2.12-10.41,2.19-24.14.08-15.67.12-23.51-1.46-31.09-.81-3.87-1.68-6.74-3.66-16.09,0,0-.55-2.61-2.56-12.44h0s-4.13-.25-7.31-1.46c-.51-.19-3.67-1.4-5.49-3.66-3.2-3.98-1.51-10.32-1.1-12.07,3.2-13.7-4.44-35.66-8.41-43.89-11.11-23.04-37.75-30.36-39.14-30.72-21.88-5.68-43.05,2.1-50.47,9.88Z"/>
  <path class="cls-1" d="M908.44,145.66c3.34,2.67,7.16,3.5,7.16,3.5,2.04.44,4.75,1.02,6.55-.2,3.3-2.24,1.85-9.45.55-15.91-1.96-9.75-3.08-15.33-8.23-19.75-4.54-3.9-10.09-5.07-12.07-5.49-3.42-.72-5.13-1.08-6.23-.4-6.42,3.95,3.6,31.31,12.27,38.26Z"/>
  <path class="cls-4" d="M794.69,131.03c.17.17.45.26,6.95-1.83,4.49-1.44,7.42-2.47,11.34-3.29,5.83-1.22,6.88-.52,7.31,0,.54.65.39,1.37,0,4.75-.66,5.69-.26,3.94-.73,7.32-.68,4.85-1.12,5.85-.37,7.32.58,1.13,1.28,1.36,3.29,2.93,1.94,1.51,1.7,1.6,5.49,5.12,6.56,6.09,6.14,4.74,8.78,7.68,2.12,2.36,2.94,3.84,4.76,4.02,1.18.12,1.97-.39,4.39-1.83,4.08-2.43,6.11-3.64,7.68-4.39,2.55-1.21,4.86-2.32,7.68-2.19,5.55.24,9.29,5.09,9.88,5.85,1.24,1.6,2.29,5.46,4.39,13.17.96,3.54,2.64,6.95,2.93,10.61.09,1.11.16,3.02,1.46,4.75.48.64,1.42,1.64,3.66,2.56,3.55,1.46,6.98,1.33,9.14,1.1,3.47-.37,9.98-1.07,15.36-5.85,5.2-4.62,6.52-10.52,7.68-16.09,1.81-8.7,1.45-17.69-1.1-27.8-3.23-12.83-7.78-30.88-24.51-42.43-13.95-9.64-28.86-9.56-38.4-9.51-8.13.04-21.07.11-34.01,8.05-16.31,10-25.16,27.9-23.04,29.99Z"/>
  <path class="cls-4" d="M906.61,110.92c6.46,4.49,9.25,9.11,10.61,12.44,2.4,5.87,1.86,11.41,6.58,15,1.8,1.37,3.71,1.95,4.76,2.19.74.17,5.53,1.29,8.78-1.1,3.19-2.34,3.24-6.83,3.29-11.34.09-8.18-3-14.23-4.02-16.09-.83-1.51-3.85-6.72-9.88-10.97-3.24-2.29-5.8-4.1-9.51-4.02-.72.01-6.51.23-9.51,5.12-2.39,3.91-1.31,8.03-1.1,8.78Z"/>
  <path class="cls-1" d="M911.37,200.89c1.2-1.31,2.84-.55,7.32-.73,7.41-.31,10.67-2.72,12.07-1.1.98,1.14.02,3.04-.73,5.85-1.2,4.48-.92,7.99-.37,15,.18,2.25,1.09,11.84,6.58,22.31.8,1.52,3.82,5.77,9.88,14.26,6.61,9.28,7.94,10.8,9.14,12.07,3.92,4.15,7.82,8.27,14.26,10.61,3.48,1.26,8.53,3.09,13.53,1.1,4.32-1.72,7.37-5.8,10.97-10.61,1.03-1.37,2.64-3.11,5.85-6.58,1.94-2.1,3.01-3.17,4.02-2.93,1.54.37,2.01,3.54,2.19,4.75,0,0,1.42,9.44,4.75,26.7,1.47,7.6,3.63,13.44,4.76,16.46,3.06,8.2,4.6,12.29,6.22,14.26.79.96,2.29,2.63,2.56,5.12.3,2.83-1.15,5.16-1.83,6.22-1.82,2.84-3.64,3.31-7.68,6.58-2.69,2.18-3.92,3.61-5.49,5.12-8.67,8.35-30.64,21.8-51.57,35.84,0,0-10.94,7.34-24.87,10.61-2.09.49-4.75.93-7.68,0-3.46-1.1-5.95-3.69-7.68-5.49-2.28-2.37-2.12-2.98-3.66-4.39-3.15-2.89-6.89-3.12-10.24-3.66-5.33-.85-9.77-2.76-18.65-6.58-7.63-3.28-11.45-4.93-13.9-8.05-2.49-3.17-3.16-7.89-4.39-17.19-1.56-11.8-.68-13.45-2.56-21.58-1.59-6.9-3.51-11.29-4.02-12.44-2.22-4.98-3.66-6.36-5.85-10.61-3.23-6.25-4.4-11.52-5.49-16.46-.61-2.77-1.14-10.01-2.19-24.51,0,0-.17-2.34-.37-13.17-.11-6.35-.07-8.96.73-9.14.77-.18,1.49,2.04,3.66,5.49,4.74,7.52,8.44,8.24,9.51,13.53.42,2.1-.18,1.88,0,5.49.19,3.76,1.02,7.6,3.29,13.17,3.07,7.54,6.56,12.71,13.53,23.04,4.37,6.48.73.5,9.14,11.34,1.31,1.69,2.78,3.62,5.49,4.75.77.32,4.24,1.68,7.32.37,3.35-1.43,4.35-5.22,5.85-9.51,4.06-11.58,5.74-9.53,8.41-18.29,1.55-5.07,1.88-10.94,2.56-22.68.6-10.41.9-15.62.37-21.21-.8-8.32-2.04-8.97-3.29-20.85-1.05-10.02-.08-8.77-1.1-13.9-.82-4.13-1.82-6.82-.37-8.41Z"/>
  <path class="cls-1" d="M1071.93,898.93c.77,1.7,3.95,1.71,9.88,1.65,10.85-.11,16.32-.17,18.65-.55,8.23-1.33,12.53-2.02,14.81-5.49,2.08-3.16,1.1-6.53.55-11.52-.2-1.77.42-9.05,1.65-23.59.39-4.64,2.13-24.68,6.04-52.12,2.88-20.23,4.28-20.49,4.94-31.27.87-14.22-.29-26.22-1.1-34.56-1.79-18.59-3.84-33.47-3.84-33.47-.42-3.05-.99-7.08-1.1-12.62-.18-9.54,1.18-16.64,1.65-19.2,2.55-13.95,3.27-28.17,4.94-42.24,2.18-18.43,3.02-31.87,4.39-53.77,1.01-16.25,1.23-24.24,2.74-45.54.69-9.69,1.7-15.15,1.65-21.4-.03-3.11.49-6.21.55-9.33.06-3.46-.06-5.25,1.1-6.03,1.22-.82,2.8.2,6.03,1.1,3.57.99,5.56.81,8.23,1.1,11.24,1.19,31.27,7.13,31.27,7.13,24.72,7.33,53.02,9.54,57.61,9.88,13.88,1.02,7.01-.7,44.99-.55,0,0,23.9.09,52.67-2.19.94-.07,9.06-.77,19.2-3.84,10.1-3.06,13.96-5.99,15.91-7.68,1.22-1.06,4.85-4.37,7.68-9.88,2.06-4.01,3.29-8.39,3.84-15.36.91-11.52-.77-20.7-1.65-25.24-3.32-17.27-7.08-30.54-8.23-34.56-2.71-9.47-6.01-20.03-12.62-41.15-.55-1.77-4.84-15.46-10.42-32.92-3.12-9.76-4.71-14.72-6.03-18.65-2.91-8.65-3.74-10.61-5.49-16.46-1.76-5.88-3.14-10.53-4.39-17.01-1.84-9.56-2.76-14.34-2.74-15.91.03-2.62.29-4.7-1.1-6.03-1.83-1.75-4.96-.7-10.42.55-14,3.19-15,1.17-21.95,4.39-3.47,1.61-9.33,4.94-9.33,4.94h0s1.7,6.31,2.19,8.23c1.83,7.04,2.69,12.89,3.29,17.01.67,4.57.9,7.37,1.65,15.91,2.13,24.52,2.04,22.81,2.19,25.24.38,5.77.19,4.58,1.1,26.33,0,0,.27,6.52,1.1,23.04.54,10.74.77,14.62,1.65,20.3,1.17,7.57,1.76,11.36,3.84,15.91.63,1.38,2.29,4.8,4.39,9.88,2.57,6.22,2.65,7.3,2.19,7.68-1.11.92-4.76-2.85-10.42-6.03-5.14-2.89-8.28-3.24-17.01-5.49-13.56-3.48-12.02-4.19-23.59-7.13-8.59-2.18-14.74-3.14-26.33-4.94-15.57-2.42-15.41-1.67-27.43-3.84,0,0-16.41-2.96-26.88-7.13-.72-.29-.13-.07-8.78-3.84-3.24-1.41-4.22-1.84-5.49-2.74-3.38-2.43-4.94-5.56-5.49-6.58-4.42-8.19-18.02-17.12-26.33-21.4-4.71-2.42-11.46-5.82-20.85-7.13-9.36-1.31-9.34,1.13-23.59,0-4.71-.37-9.37-1.01-14.81.55-1.53.44-7.13,2.19-7.13,2.19h0c1.55,7.13,1.65,7.68,1.65,7.68,1.12,6.19-2.37,12.13-4.94,17.01-8.6,16.31-4.74,16.64-14.26,34.02-.28.51-3.66,5.83-10.42,16.46-2.69,4.23-4.08,6.38-6.58,8.23-4.39,3.25-8.7,3.53-8.78,5.49-.06,1.52,2.55,1.82,4.94,4.94.49.64,1.79,2.46,2.74,7.13,1.38,6.75.59,12.36.55,12.62-1.86,13.22-.3,26.7-.55,40.05-.34,18.31,2.23,32.04,5.49,49.38,2.85,15.19,3.28,11.5,10.97,45.54,1.04,4.62,4.59,20.4,7.13,37.31.82,5.47,1.59,10.53,2.19,17.56.85,9.79.21,9.72,1.1,14.81,1.26,7.23,2.72,8.4,5.49,19.75.81,3.32,1.6,6.55,2.19,10.42,1.47,9.54.87,16.92.55,21.4-.4,5.63-.63,15.09-1.1,34.02-.36,14.87.14,26.06.55,35.11,1.35,29.96,3.62,28.23,2.74,41.7-.35,5.41-1.77,21.72,0,29.08.23.97.79,2.89.55,5.49-.43,4.67-2.99,6.48-2.19,8.23Z"/>
</svg>