<?xml version="1.0" encoding="UTF-8"?>
<svg id="Layer_1" data-name="Layer 1" xmlns="http://www.w3.org/2000/svg" viewBox="0 0 1920 1080">
  <defs>
    <style>
      .cls-1 {
        fill: #999;
      }

      .cls-1, .cls-2, .cls-3, .cls-4, .cls-5, .cls-6 {
        stroke: #601113;
        stroke-miterlimit: 10;
        stroke-width: 5px;
      }

      .cls-2 {
        fill: #fff;
      }

      .cls-7, .cls-6 {
        fill: #cc2b2b;
      }

      .cls-3 {
        fill: #3a3a3a;
      }

      .cls-4 {
        fill: #d3d2d3;
      }

      .cls-8 {
        fill: #ff7373;
      }

      .cls-9 {
        fill: #faf1f1;
      }

      .cls-5 {
        fill: none;
      }
    </style>
  </defs>
  <path class="cls-9" d="M1444.23,406.08c-8.14-17.28-16.67-34.52-29.35-55.17-13.14-21.4-40.1-61.75-96.26-115.04-64.75-61.44-113.22-107.44-191.35-129.13-25.03-6.95-55.26-15.01-93.91-9.39-57.11,8.3-98.36,41.48-125.61,63.39-6.04,4.86-24.46,22.87-61.04,58.7-65.31,63.95-63.63,63.62-71.61,69.26-44.3,31.33-91.15,38.1-136.17,44.61-61.44,8.88-69.37-2.28-116.22,10.57-20.75,5.69-58.17,15.95-92.74,45.78-53.81,46.44-66.06,110.44-72.78,145.57-11.96,62.5-2.03,112.14,3.52,138.52,5.75,27.33,23.88,98.77,81,167.87,7.61,9.2,36.68,43.5,84.52,76.3,29.43,20.19,53.04,36.37,86.87,45.78,74.14,20.63,157.34-2.42,210.13-37.57,13.89-9.25,28.05-20.91,55.17-34.04,28.44-13.77,53.02-25.67,83.35-24.65,22.44.76,45.4,13.04,90.39,37.57,23.47,12.8,27.44,16.22,72.78,43.43,70.96,42.58,85.13,48.52,97.43,52.83,16.21,5.67,42.53,14.65,76.3,15.26,74.73,1.34,128.86-39.36,143.22-50.48,51.05-39.53,71.64-88.48,81-111.52,30.05-74,21.63-139.45,15.26-189-10.62-82.55-38.74-142.28-93.91-259.43Z"/>
  <circle class="cls-2" cx="748.59" cy="233.56" r="133.56"/>
  <circle class="cls-7" cx="741.73" cy="232.91" r="59.83"/>
  <path class="cls-3" d="M506.45,933.65v-415.7c0-3.6,2.91-6.51,6.51-6.51h41.95c3.6,0,6.51,2.91,6.51,6.51v56.88h53.44v-56.63c0-3.6,2.91-6.51,6.51-6.51h39.34c3.6,0,6.51,2.91,6.51,6.51v56.81h44.97v-55.77c0-3.6,2.91-6.51,6.51-6.51h49.9c3.6,0,6.51,2.91,6.51,6.51v55.6h44.34v-55.58c0-3.6,2.91-6.51,6.51-6.51h47.38c3.6,0,6.51,2.91,6.51,6.51v55.58h55.38v-56.08c0-3.6,2.91-6.51,6.51-6.51h44.53c3.6,0,6.51,2.91,6.51,6.51v56.08h45.66v-55.71c0-3.6,2.91-6.51,6.51-6.51h37.65c3.6,0,6.51,2.91,6.51,6.51v55.71h53.12v-55.81c0-3.6,2.91-6.51,6.51-6.51h42.31c3.6,0,6.51,2.91,6.51,6.51v55.81h61.27v-56.4c0-3.6,2.91-6.51,6.51-6.51h34.89c3.6,0,6.51,2.91,6.51,6.51v56.4h48.44v-56.4c0-3.6,2.91-6.51,6.51-6.51h49.55c3.6,0,6.51,2.91,6.51,6.51v414.17l-911.32,1.04Z"/>
  <circle class="cls-7" cx="705.87" cy="138.46" r="15.37"/>
  <path class="cls-7" d="M733.79,190.64l-11.75,4.82c-1.58-18.19-7.48-32.76-17.86-43.61l11.75-4.82c2.36,15.91,8.36,30.43,17.86,43.61Z"/>
  <circle class="cls-7" cx="835.79" cy="168.28" r="15.37"/>
  <path class="cls-7" d="M794.56,210.73l-8.16-9.74c16.85-7.03,28.94-17.08,36.12-30.26l8.16,9.74c-14.44,7.08-26.45,17.2-36.12,30.26Z"/>
  <circle class="cls-7" cx="813.82" cy="297.19" r="15.37"/>
  <path class="cls-7" d="M762.85,267.13l7.54-10.22c10.8,14.71,23.42,24.1,37.93,27.97l-7.54,10.22c-10.29-12.36-22.96-21.65-37.93-27.97Z"/>
  <circle class="cls-7" cx="674.97" cy="313.72" r="15.37"/>
  <path class="cls-7" d="M714.45,269.63l8.55,9.4c-16.55,7.71-28.23,18.24-34.86,31.7l-8.55-9.4c14.14-7.66,25.73-18.26,34.86-31.7Z"/>
  <circle class="cls-7" cx="641.74" cy="222.67" r="12.12"/>
  <path class="cls-7" d="M688.42,221.57l-.79,9.99c-13.37-5.36-25.73-6.39-37.06-2.94l.79-9.99c12.04,4,24.4,4.94,37.06,2.94Z"/>
  <circle class="cls-7" cx="774.31" cy="154.08" r="8.04"/>
  <path class="cls-7" d="M765.74,183.84l-6.17-2.48c6.04-7.4,9.15-15.02,9.21-22.88l6.17,2.48c-4.92,6.83-7.97,14.46-9.21,22.88Z"/>
  <circle class="cls-7" cx="720.13" cy="316.2" r="8.04"/>
  <path class="cls-7" d="M725.13,285.63l6.42,1.74c-5.13,8.06-7.31,16-6.45,23.8l-6.42-1.74c4.08-7.36,6.21-15.3,6.45-23.8Z"/>
  <line class="cls-5" x1="465.58" y1="933.25" x2="1479.06" y2="933.25"/>
  <path class="cls-4" d="M1387.72,212.83c-1.27-1.38-3.99-.92-7.3,0-1.86.52-3.62,1.1-5.26,1.7-1.74-3.85-5.15-7.84-9.35-12.66-9.78-11.22-20.03-17.95-27.65-22.43-11.41-6.72-27.66-16.12-51.65-21.39-9.46-2.08-25.75-5.52-46.96-3.13-18.09,2.04-31.16,7.35-38.61,10.43-19.03,7.89-31.36,17.4-43.3,26.61-13.42,10.34-21.58,16.64-29.74,28.17-7.67,10.84-11.57,21-15.13,30.26-7.63,19.86-4.88,23.31-12.52,37.04-5.4,9.7-9.45,12.79-8.35,18.26.59,2.9,2.43,5.44,4.94,7.57-2.58.75-5.32,1.82-8.07,3.39-.83.47-10.56,6.15-15.06,14.45-8.02-.17-16.59,11.14-21.2,18.16-7.94-1.21-14.2-.54-16.95-.27-20.6,2.02-41.4-.23-62.09.52-33.81,1.24-50.89,2.02-62.85,3.86-.54-1.13-1.32-2.07-2.37-2.82-1.52-1.1-2.11-.71-8.35-2.09-9-1.99-15.08-4.4-25.04-8.35-30.71-12.18-37.6-21.59-52.7-18.78-3.79.71-6.53,1.89-9.39,3.13-.82.35-1.6.72-2.37,1.1-7.71-7.14-9.66-8.92-13.28-11.01-7.9-4.56-15.15-5.64-19.3-6.26-25.85-3.86-49.06,10.2-56.35,14.61-15.02,9.1-23.61,19.08-35.48,32.87-9.05,10.52-18.7,21.9-26.61,39.65-1.89,4.25-7.54,17.51-10.43,36-2.47,15.8-1.45,25.91,0,48.52.52,8.08,2.41,38.31,3.13,62.61,1.11,37.52-.32,69.9,10.43,73.57,1.03.35,3.32.83,5.74,1.04,6.48.57,10.23-1.13,17.74-2.61,3.57-.7,7.31-1.44,12-1.57,8.55-.23,10.56,1.82,20.87,2.09,6.6.17,9.94.22,12-1.57,4.59-3.97,2.12-13,.52-21.91-.8-4.49-1.06-17.6-1.57-43.83-.36-18.75-.55-28.52,1.57-41.74.67-4.21,1.58-9.81,3.17-16.08,6.81,10.86,9.55,21.7,14.05,39.56,4.85,19.27,5.65,33.85,8.27,35.78-.62,3.55-1.11,6.93-1.49,10.13-1.98,16.7-3.28,27.67-1.49,35.44-1.8,2.52-3.17,6.25-5.29,12.04-2.36,6.44-3.54,9.66-3.65,12.52-.2,5.08,1.55,7.55,9.91,23.48,7.25,13.82,7.88,15.67,8.35,17.22,2.74,9.09,1.24,12.43,4.09,14.54-.15,2.55-.3,5.64-.44,9.46-.6,15.68-.08,15.5-.52,23.48-1.25,22.71-6.1,35.74-6.82,43.51-3.54,4.62-5.52,7.28-7.27,11.27-2.92,6.65-5.17,16.84-1.57,19.3.79.54,2.61.36,6.26,0,3.14-.31,5.66-.79,9.39-1.57,3.97-.82,6.77-1.45,7.3-1.57,7.24-1.58,13.41,0,20.87,1.04,1.49.21,8.3.49,21.91,1.04,25.38,1.04,28.81.4,30.26-2.09,1.79-3.06-.37-7.43-4.7-16.17-2.37-4.8-4.98-9.95-10.43-15.13-1.56-1.48-4.71-4.4-9.37-6.9-1.04-5.55-4.43-13.53-6.81-28.06-2.62-16.05-4.14-30.3-5.03-41.32,7.96-3.95,5.36-14.27,17.03-31.73,4.24-6.35,5.28-6.01,6.26-9.39,2.26-7.77-2.82-10.86-7.83-30.26-.78-3.02-1.33-5.5-3.45-7.14,1.69-2.65,3.15-4.4,4.5-6.95,2.81-5.3,2.81-9.58,2.61-24-.04-2.63-.07-5.06-.1-7.32,1.24-.16,3.7-1.51,8.45-10.41,5.27-9.87,6.88-16.9,8.93-24.11,1.57,1.29,2.99,2.3,4.64,3.24,5.94,3.41,10.62,3.58,17.74,4.7,1.42.22,9.29,2.23,25.04,6.26,25.62,6.55,23.37,7.29,31.3,8.35,8.25,1.1,7.91-.08,31.3-.52,11.99-.23,10.75.11,34.96,0,5.66-.03,15.84-.09,28.7-.52,22.59-.76,25.21-3.09,28.17-3.13,4.3-.07-3.13,1.11,3.97-.04,4.07.89-3.39.04,2.29.57,1.54.14,2.38-.18,7.3,0,4.21.16,4.83.99,6.26.52.33-.11.45,1.17.72.98,1.59,1.52,3.88,1.77,6.59,4.24,5.02,4.59,9.83,8.99,13.04,15.13,2.13,4.06,2.61,7.07,3.65,12,0,0,3.24,15.3,8.35,30.26,2.98,8.75,5.11,14.96,7.78,19.6-.28.65-.61,1.4-1,2.31-4.9,11.38-6.15,14.78-7.3,18.26-1.45,4.4-2.18,6.63-2.09,8.35.26,4.92,3.06,5.49,6.26,12.52.88,1.93,2.32,6.68,5.22,16.17.08.28.16.53.24.78-.44,8.58-.95,21.12-3.37,40.44-.4,3.23-.44,12.06-.52,29.74-.02,4.21,0,7.45.28,9.95-6.59,6.96-11.37,16.83-8.11,21.88,1.64,2.54,5.1,3.52,20.87,3.13,16.11-.39,24.49-1.7,35.48-2.61,25.26-2.09,36.92.2,38.61-4.7.62-1.79-1.67-5.04-6.26-11.48-6.38-8.94-9.57-13.41-15.13-16.7-2.78-1.64-5.48-2.66-8.06-3.33-.59-6.36-3.55-19.09-10.73-47.8-1.78-7.12-3.02-12.05-3.73-16.2.57-.24,1.09-.57,1.64-1.02,1.38-1.13,1.51-1.89,4.7-9.91,3.14-7.9-2.54,6.8,5.74-14.09,4.82-12.18,5.5-14.02,5.22-17.22-.26-2.85-.89-2.4-3.13-9.39-3.54-11.01-2.76-14.57-5.74-16.17-.75-.41-1.44-.52-2.27-.44,1.35-4.36,2.81-7.62,3.83-9.99,4.76-11.06,9.4-24.96,12-33.91,3.79-13.07,3.08-15.14,6.78-22.96,2.34-4.95,4.25-7.56,5.86-9.75.22.42.51.72.93.89,1.67.67,3.57-1.58,8.87-5.74,5.92-4.65,7.64-5.05,10.43-7.3,5.54-4.47,7.06-9.56,11.48-20.35,7.13-17.39,10.7-26.09,15.13-32.87,2.47-3.79,7.07-10.26,9.91-19.83.9-3.02,1.53-6.05.98-8.81,1.75-1.32,3.11-2.5,4.24-3.71,2.87-3.08,7.34-7.99,8.87-15.65,1.2-6.04.02-10.93-.52-13.04-1.94-7.62-6.19-12.55-8.35-15.13-7.85-9.39-9.38-13.41-13.07-19.27-.22-1.49-.4-3.06-.5-4.73-.42-7.38,1.35-6.71,8.35-33.39,0,0,1.94-7.39,9.39-26.09,1.45-3.63,2.33-5.7,3.65-5.74,4.42-.12,8.53,22.76,10.43,33.39,3.05,17,4.58,25.5,4.7,30.78.01.64.19,8.98,3.65,18.78,2.13,6.05,4,8.37,6.26,8.87,2.79.61,3.86-2.09,7.83-3.13,6.12-1.61,8.47,3.54,17.74,4.7,2.13.27,9.89,1.23,15.13-3.13,3.9-3.25,4.76-8.07,5.22-10.43,3.98-20.59,8.67-16.47,16.17-48.52,1.93-8.24,3.17-15.14,8.35-23.48,2.96-4.77,5.01-6.46,7.3-9.39,14.07-17.95,1.63-36.59,14.09-63.65,4.08-8.87,7.3-15.13,7.3-15.13s3.77-7.32,8.87-20.87c1.4-3.71,2.47-6.81,1.04-8.35Z"/>
  <rect class="cls-1" x="619.07" y="789.35" width="667.96" height="93.91" rx="23.48" ry="23.48"/>
  <circle class="cls-4" cx="694.19" cy="870.64" r="62.61"/>
  <circle class="cls-4" cx="859.19" cy="870.64" r="62.61"/>
  <circle class="cls-4" cx="1024.72" cy="870.64" r="62.61"/>
  <circle class="cls-4" cx="1191.54" cy="870.64" r="62.61"/>
  <circle class="cls-6" cx="1332.71" cy="295.35" r="10.3"/>
  <circle class="cls-1" cx="1191.54" cy="870.64" r="24.24"/>
  <circle class="cls-1" cx="1025.37" cy="870.64" r="24.24"/>
  <circle class="cls-1" cx="859.19" cy="870.64" r="24.24"/>
  <circle class="cls-1" cx="694.19" cy="870.64" r="24.24"/>
  <polyline class="cls-5" points="1038.63 348.73 1038.63 374.01 1060.49 374.01 1060.49 398.01 1038.63 398.01 1038.63 440.79"/>
  <circle class="cls-1" cx="1038.63" cy="449.8" r="9.44"/>
  <circle class="cls-1" cx="1138.38" cy="409.22" r="9.44"/>
  <circle class="cls-1" cx="1138.38" cy="326.9" r="9.44"/>
  <circle class="cls-1" cx="1221.75" cy="227.45" r="9.44"/>
  <circle class="cls-1" cx="1287.02" cy="218.01" r="9.44"/>
  <circle class="cls-1" cx="1155.44" cy="492.39" r="9.44"/>
  <circle class="cls-1" cx="994.75" cy="492.39" r="9.44"/>
  <circle class="cls-1" cx="823.62" cy="431.35" r="9.44"/>
  <circle class="cls-1" cx="703.1" cy="421.91" r="9.44"/>
  <circle class="cls-1" cx="766.24" cy="394.76" r="9.44"/>
  <circle class="cls-1" cx="790.75" cy="639.26" r="9.44"/>
  <circle class="cls-1" cx="1132.75" cy="743.45" r="9.44"/>
  <circle class="cls-1" cx="895.67" cy="482.95" r="9.44"/>
  <polyline class="cls-5" points="975.96 557.7 975.96 533.14 994.75 533.14 994.75 501.83"/>
  <polyline class="cls-5" points="1095.06 598.45 1124.66 598.45 1124.66 559.75 1155.44 559.75 1155.44 503.92"/>
  <polyline class="cls-5" points="1123.19 227.45 1152.31 227.45 1152.31 254.01 1184.66 254.01 1184.66 227.45 1212.31 227.45"/>
  <polyline class="cls-5" points="748.59 529.52 778.23 529.52 778.23 482.95 886.23 482.95"/>
  <line class="cls-1" x1="823.62" y1="482.95" x2="823.62" y2="440.36"/>
  <polyline class="cls-5" points="648.94 479.96 703.1 479.96 703.1 431.35"/>
  <polyline class="cls-5" points="925.34 351.79 925.34 394.76 879.97 394.76 879.97 367.75 833.06 367.75 833.06 394.76 774.31 394.76"/>
  <polyline class="cls-5" points="1250.42 449.8 1191.54 449.8 1191.54 409.22 1146 409.22"/>
  <polyline class="cls-5" points="766.24 730.09 790.75 730.09 790.75 648.7"/>
  <polyline class="cls-5" points="1108.54 637.3 1132.75 637.3 1132.75 734.01"/>
  <polyline class="cls-5" points="1238.09 363.4 1167.3 363.4 1167.3 285.05 1287.02 285.05 1287.02 227.45"/>
  <line class="cls-1" x1="1167.75" y1="325.49" x2="1147.81" y2="325.49"/>
  <path class="cls-8" d="M782.15,207.05c-1.81,2.67-14.54-8.53-35.15-7.3-4.68.28-22.5,1.34-31.96,13.04-14.78,18.29.65,50.45-5.86,52.7-3.61,1.25-9.82-8.14-10.65-9.39-9.58-14.47-5.55-31.17-4.26-36.52,1.51-6.27,5-20.75,19.17-30.78,2.4-1.7,15.92-10.93,33.55-8.35,22.33,3.27,37.31,23.44,35.15,26.61Z"/>
</svg>