<?xml version="1.0" encoding="UTF-8"?>
<svg id="Layer_1" data-name="Layer 1" xmlns="http://www.w3.org/2000/svg" viewBox="0 0 1920 1080">
  <defs>
    <style>
      .cls-1 {
        fill: #3a3a3a;
      }

      .cls-1, .cls-2, .cls-3, .cls-4, .cls-5 {
        stroke-miterlimit: 10;
        stroke-width: 5px;
      }

      .cls-1, .cls-2, .cls-3, .cls-5 {
        stroke: #601113;
      }

      .cls-2 {
        fill: #d3d2d3;
      }

      .cls-6 {
        fill: #ffd4d7;
      }

      .cls-7 {
        fill: #faf1f1;
      }

      .cls-3 {
        fill: none;
      }

      .cls-8 {
        fill: #999;
      }

      .cls-4 {
        fill: #f2f2f2;
        stroke: #999;
      }

      .cls-5 {
        fill: #e6a6a8;
      }
    </style>
  </defs>
  <path class="cls-7" d="M1507.4,410.09c-8.14-17.28-16.67-34.52-29.35-55.17-13.14-21.4-40.1-61.75-96.26-115.04-64.75-61.44-113.22-107.44-191.35-129.13-25.03-6.95-55.26-15.01-93.91-9.39-57.11,8.3-98.36,41.48-125.61,63.39-6.04,4.86-24.46,22.87-61.04,58.7-65.31,63.95-63.63,63.62-71.61,69.26-44.3,31.33-91.15,38.1-136.17,44.61-61.44,8.88-69.37-2.28-116.22,10.57-20.75,5.69-58.17,15.95-92.74,45.78-53.81,46.44-66.06,110.44-72.78,145.57-11.96,62.5-2.03,112.14,3.52,138.52,5.75,27.33,23.88,98.77,81,167.87,7.61,9.2,36.68,43.5,84.52,76.3,29.43,20.19,53.04,36.37,86.87,45.78,74.14,20.63,157.34-2.42,210.13-37.57,13.89-9.25,28.05-20.91,55.17-34.04,28.44-13.77,53.02-25.67,83.35-24.65,22.44.76,45.4,13.04,90.39,37.57,23.47,12.8,27.44,16.22,72.78,43.43,70.96,42.58,85.13,48.52,97.43,52.83,16.21,5.67,42.53,14.65,76.3,15.26,74.73,1.34,128.86-39.36,143.22-50.48,51.05-39.53,71.64-88.48,81-111.52,30.05-74,21.63-139.45,15.26-189-10.62-82.55-38.74-142.28-93.91-259.43Z"/>
  <line class="cls-3" x1="528.75" y1="937.27" x2="1542.23" y2="937.27"/>
  <path class="cls-5" d="M712.23,542.41c9.36-22.53-20.78-63.95-39.13-61.04-20.6,3.26-23.58,61.89-32.87,61.04-10.13-.93-7.53-70.74-18.78-72-5.77-.65-13.1,16.97-15.65,31.3-4.88,27.41,3.74,65.23,21.91,68.87,18.76,3.75,33.28-57.9,50.09-54.78,12.34,2.29,14.29,36.14,25.04,36,5.41-.07,9.1-8.7,9.39-9.39Z"/>
  <path class="cls-5" d="M837.31,794.96h95.52v108.42c0,18.69-15.17,33.87-33.87,33.87h-42.66c-10.48,0-19-8.51-19-19v-123.29h0Z"/>
  <path class="cls-5" d="M1188.03,794.96h95.52v108.42c0,18.69-15.17,33.87-33.87,33.87h-42.66c-10.48,0-19-8.51-19-19v-123.29h0Z"/>
  <circle class="cls-1" cx="1344.59" cy="558.46" r="23.2"/>
  <path class="cls-5" d="M1238.75,349.78h0v109.71h-53.22v-56.49c0-29.37,23.85-53.22,53.22-53.22Z"/>
  <path class="cls-5" d="M1216.82,413.21h-31.48v-63.43c-29.39,0-53.22,23.83-53.22,53.22v10.21h-248.53c-116.07,0-210.16,94.09-210.16,210.16v83.22c0,59.87,39.11,84.43,93.16,101.89v98.68c0,16.62,13.47,30.08,30.08,30.08h60.73c16.62,0,30.08-13.47,30.08-30.08v-92.19h247.77v92.19c0,16.62,13.47,30.08,30.08,30.08h60.73c16.62,0,30.08-13.47,30.08-30.08v-98.04c55.11-16.83,95.19-41.92,95.19-102.53v-158.85c0-74.3-60.23-134.53-134.53-134.53Z"/>
  <ellipse class="cls-5" cx="1329.22" cy="643.51" rx="99.46" ry="64.14"/>
  <ellipse class="cls-1" cx="1328.3" cy="645.4" rx="11.36" ry="32.79"/>
  <ellipse class="cls-1" cx="1391.29" cy="645.4" rx="11.36" ry="32.79"/>
  <circle class="cls-1" cx="1235.34" cy="561.56" r="23.2"/>
  <rect class="cls-1" x="870.71" y="424.8" width="221.87" height="23.13" rx="9.39" ry="9.39"/>
  <circle class="cls-2" cx="954.77" cy="327.16" r="111.08"/>
  <circle class="cls-4" cx="954.32" cy="326.12" r="89.82"/>
  <path class="cls-8" d="M956.49,314.5c2.73-.34,5.49-.61,8.27-.82,2.78-.21,5.53-.25,8.25-.14,2.71.12,5.35.47,7.9,1.04,2.55.58,4.96,1.52,7.23,2.82,2.27,1.3,4.33,3.01,6.21,5.14,1.87,2.13,3.51,4.81,4.9,8.04,2.06,4.8,3.19,9.66,3.39,14.57.2,4.92-.57,9.67-2.3,14.28-1.73,4.61-4.43,8.91-8.09,12.91-3.67,4-8.33,7.49-14,10.46l3.13,9.79c.51,1.46.44,3-.21,4.62-.65,1.62-1.86,2.82-3.62,3.58l-8.64,3.72-5.2-16.26c-6.22,1.54-12.49,2.25-18.8,2.12-6.31-.13-12.01-1.1-17.11-2.92l2.74-13.66c.24-1.12.75-2.19,1.53-3.22.78-1.03,1.76-1.79,2.92-2.29,1.21-.52,2.58-.74,4.12-.65,1.54.09,3.24.25,5.11.5,1.87.24,3.9.45,6.1.61,2.2.17,4.56.06,7.09-.31l-9.49-29.77c-4.07.56-8.21.93-12.4,1.12-4.2.19-8.24-.26-12.12-1.34-3.88-1.09-7.49-3.03-10.82-5.85-3.34-2.82-6.17-6.93-8.49-12.33-1.72-3.99-2.58-8.23-2.59-12.71-.01-4.48.88-8.91,2.68-13.28,1.8-4.37,4.56-8.5,8.27-12.4,3.71-3.9,8.43-7.26,14.16-10.09l-2.79-8.77c-.51-1.46-.44-3,.21-4.62.65-1.62,1.85-2.82,3.62-3.58l8.64-3.72,4.95,15.47c5.89-1.33,11.28-1.71,16.17-1.12,4.89.59,9.26,1.58,13.09,2.99l-2.14,10.89c-.32,1.63-.79,2.93-1.42,3.89-.63.96-1.56,1.7-2.77,2.22-.76.33-1.74.52-2.93.59-1.2.07-2.52.1-3.96.09-1.44,0-2.98,0-4.62.01-1.64.02-3.34.13-5.1.35l8.92,28.04ZM933.06,291.99c-2.17,1.35-3.9,2.73-5.19,4.12-1.29,1.39-2.21,2.78-2.79,4.16-.57,1.38-.83,2.77-.77,4.15.06,1.38.37,2.73.93,4.04,1.28,2.98,3.28,4.98,5.99,6,2.71,1.02,5.86,1.51,9.43,1.47l-7.6-23.94ZM971.86,362.75c7.75-4.95,9.95-11.31,6.6-19.09-1.26-2.93-3.18-4.84-5.75-5.74-2.57-.9-5.62-1.28-9.15-1.14l8.3,25.97Z"/>
  <path class="cls-6" d="M724.49,758.86h0c-3.34-.51-6.15-2.68-7.18-5.61-35.2-100.68-21.04-193.85,42.49-279.52,1.85-2.49,5.17-3.73,8.52-3.22h0c6.15.94,9.52,7.14,6.47,11.92-53.06,82.99-66.58,171.98-40.58,266.98,1.5,5.47-3.56,10.39-9.71,9.46Z"/>
  <g>
    <rect class="cls-2" x="618.55" y="916.42" width="218.64" height="20.83"/>
    <line class="cls-2" x1="633.97" y1="916.42" x2="633.97" y2="937.25"/>
    <line class="cls-2" x1="651.75" y1="916.42" x2="651.75" y2="937.25"/>
    <line class="cls-2" x1="669.7" y1="916.42" x2="669.7" y2="937.25"/>
    <line class="cls-2" x1="722.87" y1="916.42" x2="722.87" y2="937.25"/>
    <line class="cls-2" x1="704.42" y1="916.42" x2="704.42" y2="937.25"/>
    <line class="cls-2" x1="740.29" y1="916.42" x2="740.29" y2="937.25"/>
    <line class="cls-2" x1="757.71" y1="916.42" x2="757.71" y2="937.25"/>
    <line class="cls-2" x1="774.45" y1="916.42" x2="774.45" y2="937.25"/>
    <line class="cls-2" x1="791.67" y1="916.42" x2="791.67" y2="937.25"/>
    <line class="cls-2" x1="808.93" y1="916.42" x2="808.93" y2="937.25"/>
    <line class="cls-2" x1="823.38" y1="916.42" x2="823.38" y2="937.25"/>
    <line class="cls-2" x1="685.56" y1="916.42" x2="685.56" y2="937.25"/>
  </g>
  <g>
    <rect class="cls-2" x="618.55" y="874.72" width="218.64" height="20.83"/>
    <line class="cls-2" x1="633.97" y1="874.72" x2="633.97" y2="895.55"/>
    <line class="cls-2" x1="651.75" y1="874.72" x2="651.75" y2="895.55"/>
    <line class="cls-2" x1="669.7" y1="874.72" x2="669.7" y2="895.55"/>
    <line class="cls-2" x1="722.87" y1="874.72" x2="722.87" y2="895.55"/>
    <line class="cls-2" x1="704.42" y1="874.72" x2="704.42" y2="895.55"/>
    <line class="cls-2" x1="740.29" y1="874.72" x2="740.29" y2="895.55"/>
    <line class="cls-2" x1="757.71" y1="874.72" x2="757.71" y2="895.55"/>
    <line class="cls-2" x1="774.45" y1="874.72" x2="774.45" y2="895.55"/>
    <line class="cls-2" x1="791.67" y1="874.72" x2="791.67" y2="895.55"/>
    <line class="cls-2" x1="808.93" y1="874.72" x2="808.93" y2="895.55"/>
    <line class="cls-2" x1="823.38" y1="874.72" x2="823.38" y2="895.55"/>
    <line class="cls-2" x1="685.56" y1="874.72" x2="685.56" y2="895.55"/>
  </g>
  <g>
    <rect class="cls-2" x="618.55" y="833.02" width="218.64" height="20.83"/>
    <line class="cls-2" x1="633.97" y1="833.02" x2="633.97" y2="853.85"/>
    <line class="cls-2" x1="651.75" y1="833.02" x2="651.75" y2="853.85"/>
    <line class="cls-2" x1="669.7" y1="833.02" x2="669.7" y2="853.85"/>
    <line class="cls-2" x1="722.87" y1="833.02" x2="722.87" y2="853.85"/>
    <line class="cls-2" x1="704.42" y1="833.02" x2="704.42" y2="853.85"/>
    <line class="cls-2" x1="740.29" y1="833.02" x2="740.29" y2="853.85"/>
    <line class="cls-2" x1="757.71" y1="833.02" x2="757.71" y2="853.85"/>
    <line class="cls-2" x1="774.45" y1="833.02" x2="774.45" y2="853.85"/>
    <line class="cls-2" x1="791.67" y1="833.02" x2="791.67" y2="853.85"/>
    <line class="cls-2" x1="808.93" y1="833.02" x2="808.93" y2="853.85"/>
    <line class="cls-2" x1="823.38" y1="833.02" x2="823.38" y2="853.85"/>
    <line class="cls-2" x1="685.56" y1="833.02" x2="685.56" y2="853.85"/>
  </g>
  <g>
    <rect class="cls-2" x="607.07" y="895.57" width="218.64" height="20.83"/>
    <line class="cls-2" x1="622.49" y1="895.57" x2="622.49" y2="916.4"/>
    <line class="cls-2" x1="640.27" y1="895.57" x2="640.27" y2="916.4"/>
    <line class="cls-2" x1="658.22" y1="895.57" x2="658.22" y2="916.4"/>
    <line class="cls-2" x1="711.39" y1="895.57" x2="711.39" y2="916.4"/>
    <line class="cls-2" x1="692.95" y1="895.57" x2="692.95" y2="916.4"/>
    <line class="cls-2" x1="728.81" y1="895.57" x2="728.81" y2="916.4"/>
    <line class="cls-2" x1="746.23" y1="895.57" x2="746.23" y2="916.4"/>
    <line class="cls-2" x1="762.97" y1="895.57" x2="762.97" y2="916.4"/>
    <line class="cls-2" x1="780.19" y1="895.57" x2="780.19" y2="916.4"/>
    <line class="cls-2" x1="797.46" y1="895.57" x2="797.46" y2="916.4"/>
    <line class="cls-2" x1="811.9" y1="895.57" x2="811.9" y2="916.4"/>
    <line class="cls-2" x1="674.08" y1="895.57" x2="674.08" y2="916.4"/>
  </g>
  <g>
    <rect class="cls-2" x="607.07" y="853.87" width="218.64" height="20.83"/>
    <line class="cls-2" x1="622.49" y1="853.87" x2="622.49" y2="874.7"/>
    <line class="cls-2" x1="640.27" y1="853.87" x2="640.27" y2="874.7"/>
    <line class="cls-2" x1="658.22" y1="853.87" x2="658.22" y2="874.7"/>
    <line class="cls-2" x1="711.39" y1="853.87" x2="711.39" y2="874.7"/>
    <line class="cls-2" x1="692.95" y1="853.87" x2="692.95" y2="874.7"/>
    <line class="cls-2" x1="728.81" y1="853.87" x2="728.81" y2="874.7"/>
    <line class="cls-2" x1="746.23" y1="853.87" x2="746.23" y2="874.7"/>
    <line class="cls-2" x1="762.97" y1="853.87" x2="762.97" y2="874.7"/>
    <line class="cls-2" x1="780.19" y1="853.87" x2="780.19" y2="874.7"/>
    <line class="cls-2" x1="797.46" y1="853.87" x2="797.46" y2="874.7"/>
    <line class="cls-2" x1="811.9" y1="853.87" x2="811.9" y2="874.7"/>
    <line class="cls-2" x1="674.08" y1="853.87" x2="674.08" y2="874.7"/>
  </g>
</svg>