<?xml version="1.0" encoding="UTF-8"?>
<svg id="Layer_1" data-name="Layer 1" xmlns="http://www.w3.org/2000/svg" viewBox="0 0 1920 1080">
  <defs>
    <style>
      .cls-1 {
        fill: #999;
      }

      .cls-1, .cls-2, .cls-3, .cls-4, .cls-5 {
        stroke: #601113;
        stroke-miterlimit: 10;
        stroke-width: 5px;
      }

      .cls-2 {
        fill: #fff;
      }

      .cls-6 {
        fill: #601113;
      }

      .cls-7 {
        fill: #30080b;
      }

      .cls-8 {
        fill: #faf1f1;
      }

      .cls-3 {
        fill: #fdd7cf;
      }

      .cls-9 {
        fill: #d3d2d3;
      }

      .cls-4 {
        fill: none;
      }

      .cls-5 {
        fill: #d0a286;
      }
    </style>
  </defs>
  <path class="cls-8" d="M1370.77,403.61c-8.14-17.28-16.67-34.52-29.35-55.17-13.14-21.4-40.1-61.75-96.26-115.04-64.75-61.44-113.22-107.44-191.35-129.13-25.03-6.95-55.26-15.01-93.91-9.39-57.11,8.3-98.36,41.48-125.61,63.39-6.04,4.86-24.46,22.87-61.04,58.7-65.31,63.95-63.63,63.62-71.61,69.26-44.3,31.33-91.15,38.1-136.17,44.61-61.44,8.88-69.37-2.28-116.22,10.57-20.75,5.69-58.17,15.95-92.74,45.78-53.81,46.44-66.06,110.44-72.78,145.57-11.96,62.5-2.03,112.14,3.52,138.52,5.75,27.33,23.88,98.77,81,167.87,7.61,9.2,36.68,43.5,84.52,76.3,29.43,20.19,53.04,36.37,86.87,45.78,74.14,20.63,157.34-2.42,210.13-37.57,13.89-9.25,28.05-20.91,55.17-34.04,28.44-13.77,53.02-25.67,83.35-24.65,22.44.76,45.4,13.04,90.39,37.57,23.47,12.8,27.44,16.22,72.78,43.43,70.96,42.58,85.13,48.52,97.43,52.83,16.21,5.67,42.53,14.65,76.3,15.26,74.73,1.34,128.86-39.36,143.22-50.48,51.05-39.53,71.64-88.48,81-111.52,30.05-74,21.63-139.45,15.26-189-10.62-82.55-38.74-142.28-93.91-259.43Z"/>
  <rect class="cls-3" x="637.82" y="777.66" width="260.21" height="43.51" transform="translate(-31.49 1567.35) rotate(-90)"/>
  <line class="cls-4" x1="392.12" y1="930.79" x2="1405.6" y2="930.79"/>
  <circle class="cls-2" cx="869.23" cy="200.16" r="147.47"/>
  <path class="cls-2" d="M789.69,551.8c0-14.67-10.93-26.57-24.41-26.57h-38.3c-2.53,0-4.98.42-7.27,1.2h-180.07v403.09h208.69v-259.13h41.37v-118.6Z"/>
  <ellipse class="cls-6" cx="734.51" cy="297" rx="47.17" ry="72.58" transform="translate(-57.6 280.37) rotate(-20.81)"/>
  <path class="cls-6" d="M569.62,250.33c26.05,0,47.17,32.5,47.17,72.58s-21.12,72.58-47.17,72.58c-26.05,0-47.17-32.5-47.17-72.58s21.12-72.58,47.17-72.58Z"/>
  <path class="cls-3" d="M551.59,354.02h7.49v57.88h-7.49c-14.47,0-26.21-11.74-26.21-26.21v-5.46c0-14.47,11.74-26.21,26.21-26.21Z"/>
  <path class="cls-3" d="M770.66,360.66h7.49v57.88h-7.49c-14.47,0-26.21-11.74-26.21-26.21v-5.46c0-14.47,11.74-26.21,26.21-26.21Z" transform="translate(1522.61 779.19) rotate(-180)"/>
  <path class="cls-3" d="M701.6,536.03c-15.55,12.96-31.95,25.39-47.92,25.39-14.99,0-24.62-9.84-44.96-25.39v-68.69h92.88v68.69Z"/>
  <rect class="cls-1" x="651.31" y="550.59" width="20.26" height="92.02"/>
  <ellipse class="cls-3" cx="655.16" cy="368.98" rx="99.98" ry="146.32"/>
  <path class="cls-1" d="M608.81,507.31c7.63.26,8.65,6.94,25.92,20.74,15.08,12.05,20.31,11.75,22.03,18.15,3.24,12.06-10.45,31.3-25.92,32.4-9.39.67-16.25-5.58-27.22-15.55-11.79-10.73-19.58-17.82-19.44-28.51.18-13.78,13.44-27.6,24.63-27.22Z"/>
  <path class="cls-3" d="M859.73,668.58h-79.86c-2.72,0-4.93-2.21-4.93-4.93v-2.81c0-2.72,2.21-4.93,4.93-4.93h66.72c5.06,0,9.48-3.82,9.8-8.87.36-5.53-4.02-10.13-9.48-10.13h-88.34l22.49-12.98c4.38-2.53,6.3-8.04,4.06-12.58-2.46-4.97-8.55-6.76-13.27-4.03l-56.48,32.61c-15.09,6.8-24.21,13.11-29.7,20.11h-183.57v31.08c0,20.99,17.01,38,38,38h150.84c10.26,12.03,25.52,19.67,42.57,19.67h95.99c5.06,0,9.48-3.82,9.8-8.87.36-5.53-4.02-10.13-9.48-10.13h-49.75c-2.57,0-4.87-1.88-5.11-4.44-.28-2.94,2.02-5.41,4.9-5.41h66.72c5.06,0,9.48-3.82,9.8-8.87.36-5.53-4.02-10.13-9.48-10.13h-67.05c-2.72,0-4.93-2.21-4.93-4.93v-3.52c0-2.72,2.21-4.93,4.93-4.93h79.53c5.06,0,9.48-3.82,9.8-8.87.36-5.53-4.02-10.13-9.48-10.13Z"/>
  <path class="cls-2" d="M509.27,515.3h65.93c13.28,0,24.07,10.78,24.07,24.07v121.1h-114.06v-121.1c0-13.28,10.78-24.07,24.07-24.07Z"/>
  <path class="cls-1" d="M709.88,505.22c-7.63.26-8.65,6.94-25.92,20.74-15.08,12.05-20.31,11.75-22.03,18.15-3.24,12.06,10.45,31.3,25.92,32.4,9.39.67,16.25-5.58,27.22-15.55,11.79-10.73,19.58-17.82,19.44-28.51-.18-13.78-13.44-27.6-24.63-27.22Z"/>
  <ellipse class="cls-6" cx="646.1" cy="250.95" rx="84.04" ry="60.15" transform="translate(-39.58 149.65) rotate(-12.82)"/>
  <ellipse class="cls-6" cx="734.51" cy="271.77" rx="26.18" ry="40.28" transform="translate(7.41 562.77) rotate(-42.12)"/>
  <rect class="cls-5" x="852.48" y="777.66" width="260.21" height="43.51" transform="translate(183.17 1782.01) rotate(-90)"/>
  <path class="cls-1" d="M960.83,551.8c0-14.67,10.93-26.57,24.41-26.57h38.3c2.53,0,4.98.42,7.27,1.2h180.07v403.09h-208.69v-259.13s-41.37,0-41.37,0v-118.6Z"/>
  <ellipse class="cls-7" cx="1016.01" cy="297" rx="72.58" ry="47.17" transform="translate(377.38 1141.17) rotate(-69.19)"/>
  <ellipse class="cls-7" cx="1180.89" cy="322.92" rx="47.17" ry="72.58"/>
  <path class="cls-5" d="M1217.65,354.02h7.49v57.88h-7.49c-14.47,0-26.21-11.74-26.21-26.21v-5.46c0-14.47,11.74-26.21,26.21-26.21Z" transform="translate(2416.57 765.93) rotate(180)"/>
  <path class="cls-5" d="M998.57,360.66h7.49v57.88h-7.49c-14.47,0-26.21-11.74-26.21-26.21v-5.46c0-14.47,11.74-26.21,26.21-26.21Z"/>
  <path class="cls-5" d="M1048.91,536.03c15.55,12.96,31.95,25.39,47.92,25.39,14.99,0,24.62-9.84,44.96-25.39,0-22.9,0-45.8,0-68.69h-92.88s0,68.69,0,68.69Z"/>
  <rect class="cls-2" x="1078.95" y="550.59" width="20.26" height="92.02" transform="translate(2178.15 1193.2) rotate(-180)"/>
  <ellipse class="cls-5" cx="1095.36" cy="368.98" rx="99.98" ry="146.32"/>
  <path class="cls-2" d="M1141.71,507.31c-7.63.26-8.65,6.94-25.92,20.74-15.08,12.05-20.31,11.75-22.03,18.15-3.24,12.06,10.45,31.3,25.92,32.4,9.39.67,16.25-5.58,27.22-15.55,11.79-10.73,19.58-17.82,19.44-28.51-.18-13.78-13.44-27.6-24.63-27.22Z"/>
  <path class="cls-5" d="M890.79,668.58h79.86c2.72,0,4.93-2.21,4.93-4.93v-2.81c0-2.72-2.21-4.93-4.93-4.93h-66.72c-5.06,0-9.48-3.82-9.8-8.87-.36-5.53,4.02-10.13,9.48-10.13h71.97s.58,0,.58,0h15.78s-22.49-12.98-22.49-12.98c-4.38-2.53-6.3-8.04-4.06-12.58,2.46-4.97,8.55-6.76,13.27-4.03l56.48,32.61c15.09,6.8,24.21,13.11,29.7,20.11h183.57v31.08c0,20.99-17.01,38-38,38h-150.84c-10.26,12.03-25.52,19.67-42.57,19.67h-35.84s-5.59,0-5.59,0h-54.56c-5.06,0-9.48-3.82-9.8-8.87-.36-5.53,4.02-10.13,9.48-10.13h49.75c2.57,0,4.87-1.88,5.11-4.44.28-2.94-2.02-5.41-4.9-5.41h-66.72c-5.06,0-9.48-3.82-9.8-8.87-.36-5.53,4.02-10.13,9.48-10.13h67.05c2.72,0,4.93-2.21,4.93-4.93v-3.52c0-2.72-2.21-4.93-4.93-4.93h-79.53c-5.06,0-9.48-3.82-9.8-8.87-.36-5.53,4.02-10.13,9.48-10.13Z"/>
  <path class="cls-1" d="M1151.26,515.3h114.06v121.1c0,13.28-10.78,24.07-24.07,24.07h-65.93c-13.28,0-24.07-10.78-24.07-24.07v-121.1h0Z" transform="translate(2416.57 1175.76) rotate(-180)"/>
  <path class="cls-2" d="M1040.64,505.22c7.63.26,8.65,6.94,25.92,20.74,15.08,12.05,20.31,11.75,22.03,18.15,3.24,12.06-10.45,31.3-25.92,32.4-9.39.67-16.25-5.58-27.22-15.55-11.79-10.73-19.58-17.82-19.44-28.51.18-13.78,13.44-27.6,24.63-27.22Z"/>
  <ellipse class="cls-7" cx="1048.91" cy="250.33" rx="42.11" ry="58.85" transform="translate(572.04 1217.54) rotate(-77.18)"/>
  <ellipse class="cls-7" cx="1093.63" cy="215.98" rx="40.88" ry="60.13" transform="translate(359.77 1055.1) rotate(-60)"/>
  <ellipse class="cls-7" cx="1146.7" cy="249.93" rx="52.22" ry="37.37" transform="translate(-15.29 414.75) rotate(-20.37)"/>
  <ellipse class="cls-7" cx="1180.89" cy="297" rx="26.18" ry="40.28" transform="translate(168.63 973.78) rotate(-47.88)"/>
  <circle class="cls-9" cx="869.23" cy="200.16" r="100.13"/>
  <ellipse cx="899.11" cy="180.9" rx="9.72" ry="27.51"/>
  <ellipse cx="843.38" cy="180.9" rx="9.72" ry="27.51"/>
  <path d="M909.77,238.38c-27.02,30.37-54.05,30.37-81.07,0-.57-.64-.94-2.16-.94-3.83h0c0-2.91,1.07-4.88,2.07-3.85,26.27,27.06,52.54,27.06,78.8,0,1-1.03,2.07.94,2.07,3.85h0c0,1.68-.37,3.2-.94,3.84Z"/>
</svg>