<?xml version="1.0" encoding="UTF-8"?>
<svg id="Layer_1" data-name="Layer 1" xmlns="http://www.w3.org/2000/svg" viewBox="0 0 1920 1080">
  <defs>
    <style>
      .cls-1 {
        fill: #999;
      }

      .cls-1, .cls-2, .cls-3, .cls-4 {
        stroke: #601113;
        stroke-miterlimit: 10;
        stroke-width: 5px;
      }

      .cls-2 {
        fill: #d3d2d3;
      }

      .cls-5 {
        fill: #faf1f1;
      }

      .cls-3 {
        fill: none;
      }

      .cls-4 {
        fill: #cc2b2b;
      }
    </style>
  </defs>
  <path class="cls-5" d="M1420.88,411.79c-8.14-17.28-16.67-34.52-29.35-55.17-13.14-21.4-40.1-61.75-96.26-115.04-64.75-61.44-113.22-107.44-191.35-129.13-25.03-6.95-55.26-15.01-93.91-9.39-57.11,8.3-98.36,41.48-125.61,63.39-6.04,4.86-24.46,22.87-61.04,58.7-65.31,63.95-63.63,63.62-71.61,69.26-44.3,31.33-91.15,38.1-136.17,44.61-61.44,8.88-69.37-2.28-116.22,10.57-20.75,5.69-58.17,15.95-92.74,45.78-53.81,46.44-66.06,110.44-72.78,145.57-11.96,62.5-2.03,112.14,3.52,138.52,5.75,27.33,23.88,98.77,81,167.87,7.61,9.2,36.68,43.5,84.52,76.3,29.43,20.19,53.04,36.37,86.87,45.78,74.14,20.63,157.34-2.42,210.13-37.57,13.89-9.25,28.05-20.91,55.17-34.04,28.44-13.77,53.02-25.67,83.35-24.65,22.44.76,45.4,13.04,90.39,37.57,23.47,12.8,27.44,16.22,72.78,43.43,70.96,42.58,85.13,48.52,97.43,52.83,16.21,5.67,42.53,14.65,76.3,15.26,74.73,1.34,128.86-39.36,143.22-50.48,51.05-39.53,71.64-88.48,81-111.52,30.05-74,21.63-139.45,15.26-189-10.62-82.55-38.74-142.28-93.91-259.43Z"/>
  <line class="cls-3" x1="442.22" y1="938.96" x2="1455.7" y2="938.96"/>
  <path class="cls-1" d="M743.7,866.48c-2.47.49-4.27,2.64-4.27,5.17v12.87h-26.39c-2.91,0-5.26,2.35-5.26,5.26v17.44h-24.92c-2.91,0-5.26,2.35-5.26,5.26v26.04h247.7V161.17s-.08-.03-.13-.04c-1.05-.05-1.47,3.35-4.26,9.91-1.91,4.48-2.92,6.77-5.13,9.14-1.96,2.09-2.57,1.81-6.26,4.96-1.74,1.48-4.1,3.5-6.26,6.26-3.77,4.81-5.22,9.69-5.74,11.74-1.38,5.48-.9,9.84-.52,13.04.6,5.03,1.17,9.8,4.43,14.35,1.61,2.24,5.15,6.2,8.87,9.65,1.24,1.15,2.72,2.45,3.39,4.7.1.32,1.08,3.79-.78,6.78-.97,1.56-1.97,1.79-7.3,4.7-3.48,1.9-5.22,2.84-6.26,3.65-3.73,2.88-5.6,6.32-6.26,7.57-1.2,2.26-2.05,4.75-2.87,10.7-.36,2.61-.67,4.85-.9,6.78h-4.32c-3.46,0-6.26,2.8-6.26,6.26v6.9c-2.85.19-5.88.54-9.13.93-4.13.48-16.54,2.22-36,11.48-12.22,5.81-20.49,11.39-32.87,19.83-14.45,9.84-14.4,11.03-32.87,24-21.07,14.79-28.7,18.56-33.91,20.87-11.39,5.05-20.55,7.3-25.57,8.35-8.44,1.77-18.39,3.75-30.78,1.57-8.5-1.5-14.32-4.28-18.78-7.83-3.52-2.79-6.08-5.97-7.3-9.91-.51-1.64-1.48-4.77,0-7.3,1.33-2.27,3.46-2.08,5.74-3.65,4.34-3,6.96-10.85,4.17-16.7-3.62-7.59-14.26-7.36-15.65-7.3-11.29.42-17.59,10.85-18.26,12-3.86,6.63-3.3,13.07-2.61,20.87.43,4.83,1.38,14.37,7.83,24.52.38.59.99,1.53,1.84,2.67l-80.99,237.33h-6.61c-.83,0-1.33.92-.88,1.61,22.35,34.21,60.98,56.82,104.9,56.82s82.55-22.61,104.9-56.82c.45-.69-.05-1.61-.88-1.61h-5.63l-73.77-216.18c.65.06,1.3.13,1.99.18,11.96.94,28.77.58,49.04-5.22,16.84-4.82,28.5-11.23,42.26-18.78,14.81-8.13,14.56-9.65,36-21.91,20.9-11.95,29.9-15.53,34.43-17.22,14.21-5.3,21.32-7.95,30.78-7.83,3.35.04,6.14.39,8.61.75v19.6c0,3.46,2.8,6.26,6.26,6.26h3.24v20.36c0,4.32,3.5,7.82,7.82,7.82h.68v292.38c0,2.98-.4,5.94-1.19,8.81l-11.6,41.97c-2.07,7.5-1.43,15.5,1.81,22.58l6.33,13.82h-1.6c-30.15,46.92-79.88,75.91-146.78,89.18ZM647.35,629.91h-84.26l78.39-229.72c1.7,1.54,3.66,3.11,5.87,4.61v225.1ZM739.89,629.91h-84.2v-220.55c2.37.97,5.57,2.03,9.94,2.92l74.26,217.62Z"/>
  <path class="cls-2" d="M958.76,777.3h-1.6s6.33-13.82,6.33-13.82c3.24-7.08,3.88-15.08,1.81-22.58l-11.6-41.97c-.79-2.87-1.19-5.83-1.19-8.81v-292.38h.68c4.32,0,7.82-3.5,7.82-7.82v-20.36h3.24c3.46,0,6.26-2.8,6.26-6.26v-19.6c2.47-.36,5.26-.7,8.61-.75,9.46-.13,16.57,2.52,30.78,7.83,4.53,1.69,13.54,5.27,34.43,17.22,21.44,12.26,21.19,13.78,36,21.91,13.76,7.56,25.43,13.96,42.26,18.78,20.27,5.8,37.09,6.16,49.04,5.22.69-.05,1.34-.12,1.99-.18l-73.77,216.18h-5.63c-.83,0-1.33.92-.88,1.61,22.35,34.21,60.98,56.82,104.9,56.82s82.55-22.61,104.9-56.82c.45-.69-.05-1.61-.88-1.61h-6.61s-80.99-237.33-80.99-237.33c.85-1.14,1.46-2.08,1.84-2.67,6.45-10.15,7.4-19.69,7.83-24.52.69-7.8,1.25-14.24-2.61-20.87-.67-1.15-6.97-11.58-18.26-12-1.39-.05-12.03-.29-15.65,7.3-2.79,5.84-.16,13.7,4.17,16.7,2.28,1.57,4.41,1.39,5.74,3.65,1.48,2.53.51,5.66,0,7.3-1.22,3.94-3.79,7.12-7.3,9.91-4.46,3.55-10.29,6.33-18.78,7.83-12.4,2.19-22.35.2-30.78-1.57-5.02-1.05-14.17-3.3-25.57-8.35-5.21-2.31-12.84-6.08-33.91-20.87-18.47-12.97-18.42-14.16-32.87-24-12.38-8.43-20.65-14.01-32.87-19.83-19.46-9.26-31.87-10.99-36-11.48-3.25-.38-6.28-.73-9.13-.93v-6.9c0-3.46-2.8-6.26-6.26-6.26h-4.32c-.23-1.93-.54-4.17-.9-6.78-.82-5.94-1.67-8.44-2.87-10.7-.66-1.25-2.53-4.68-6.26-7.57-1.05-.81-2.78-1.76-6.26-3.65-5.34-2.91-6.33-3.14-7.3-4.7-1.86-2.99-.88-6.46-.78-6.78.67-2.25,2.15-3.55,3.39-4.7,3.72-3.45,7.26-7.41,8.87-9.65,3.27-4.55,3.84-9.32,4.43-14.35.38-3.2.86-7.57-.52-13.04-.52-2.05-1.97-6.93-5.74-11.74-2.16-2.76-4.53-4.78-6.26-6.26-3.69-3.15-4.3-2.86-6.26-4.96-2.21-2.36-3.21-4.65-5.13-9.14-2.8-6.56-3.22-9.95-4.26-9.91-.05,0-.09.02-.13.04v777.35s247.7,0,247.7,0v-26.04c0-2.91-2.35-5.26-5.26-5.26h-24.92v-17.44c0-2.91-2.35-5.26-5.26-5.26h-26.39v-12.87c0-2.52-1.79-4.67-4.27-5.17-66.9-13.27-116.63-42.26-146.78-89.18ZM1201.89,404.81c2.22-1.5,4.17-3.07,5.87-4.61l78.39,229.72h-84.26v-225.1ZM1183.61,412.29c4.37-.89,7.57-1.95,9.94-2.92v220.55h-84.2s74.26-217.62,74.26-217.62Z"/>
  <path class="cls-4" d="M531.84,616.87c-5.64,0-9.13,6.13-6.27,10.99,24.56,41.67,69.9,69.64,121.78,69.64s97.21-27.96,121.78-69.64c2.86-4.86-.63-10.99-6.27-10.99h-231.02Z"/>
  <path class="cls-4" d="M1086.38,616.87c-5.64,0-9.13,6.13-6.27,10.99,24.56,41.67,69.9,69.64,121.78,69.64s97.21-27.96,121.78-69.64c2.86-4.86-.63-10.99-6.27-10.99h-231.02Z"/>
</svg>