<?xml version="1.0" encoding="UTF-8"?>
<svg id="Layer_1" data-name="Layer 1" xmlns="http://www.w3.org/2000/svg" viewBox="0 0 1920 1080">
  <defs>
    <style>
      .cls-1, .cls-2, .cls-3, .cls-4 {
        stroke: #601113;
        stroke-miterlimit: 10;
        stroke-width: 5px;
      }

      .cls-1, .cls-5 {
        fill: #fff;
      }

      .cls-2 {
        fill: #d3d2d3;
      }

      .cls-5 {
        opacity: .25;
      }

      .cls-6 {
        fill: #faf1f1;
      }

      .cls-3 {
        fill: none;
      }

      .cls-4 {
        fill: #cc2b2b;
      }
    </style>
  </defs>
  <path class="cls-6" d="M1493.45,402.28c-8.14-17.28-16.67-34.52-29.35-55.17-13.14-21.4-40.1-61.75-96.26-115.04-64.75-61.44-113.22-107.44-191.35-129.13-25.03-6.95-55.26-15.01-93.91-9.39-57.11,8.3-98.36,41.48-125.61,63.39-6.04,4.86-24.46,22.87-61.04,58.7-65.31,63.95-63.63,63.62-71.61,69.26-44.3,31.33-91.15,38.1-136.17,44.61-61.44,8.88-69.37-2.28-116.22,10.57-20.75,5.69-58.17,15.95-92.74,45.78-53.81,46.44-66.06,110.44-72.78,145.57-11.96,62.5-2.03,112.14,3.52,138.52,5.75,27.33,23.88,98.77,81,167.87,7.61,9.2,36.68,43.5,84.52,76.3,29.43,20.19,53.04,36.37,86.87,45.78,74.14,20.63,157.34-2.42,210.13-37.57,13.89-9.25,28.05-20.91,55.17-34.04,28.44-13.77,53.02-25.67,83.35-24.65,22.44.76,45.4,13.04,90.39,37.57,23.47,12.8,27.44,16.22,72.78,43.43,70.96,42.58,85.13,48.52,97.43,52.83,16.21,5.67,42.53,14.65,76.3,15.26,74.73,1.34,128.86-39.36,143.22-50.48,51.05-39.53,71.64-88.48,81-111.52,30.05-74,21.63-139.45,15.26-189-10.62-82.55-38.74-142.28-93.91-259.43Z"/>
  <line class="cls-3" x1="514.8" y1="929.46" x2="1528.28" y2="929.46"/>
  <g>
    <rect class="cls-2" x="1039.4" y="894.73" width="349.41" height="33.29"/>
    <line class="cls-2" x1="1064.04" y1="894.73" x2="1064.04" y2="928.01"/>
    <line class="cls-2" x1="1092.46" y1="894.73" x2="1092.46" y2="928.01"/>
    <line class="cls-2" x1="1121.13" y1="894.73" x2="1121.13" y2="928.01"/>
    <line class="cls-2" x1="1206.11" y1="894.73" x2="1206.11" y2="928.01"/>
    <line class="cls-2" x1="1176.63" y1="894.73" x2="1176.63" y2="928.01"/>
    <line class="cls-2" x1="1233.95" y1="894.73" x2="1233.95" y2="928.01"/>
    <line class="cls-2" x1="1261.78" y1="894.73" x2="1261.78" y2="928.01"/>
    <line class="cls-2" x1="1288.54" y1="894.73" x2="1288.54" y2="928.01"/>
    <line class="cls-2" x1="1316.05" y1="894.73" x2="1316.05" y2="928.01"/>
    <line class="cls-2" x1="1343.65" y1="894.73" x2="1343.65" y2="928.01"/>
    <line class="cls-2" x1="1366.73" y1="894.73" x2="1366.73" y2="928.01"/>
    <line class="cls-2" x1="1146.49" y1="894.73" x2="1146.49" y2="928.01"/>
  </g>
  <g>
    <rect class="cls-2" x="1039.4" y="828.09" width="349.41" height="33.29"/>
    <line class="cls-2" x1="1064.04" y1="828.09" x2="1064.04" y2="861.38"/>
    <line class="cls-2" x1="1092.46" y1="828.09" x2="1092.46" y2="861.38"/>
    <line class="cls-2" x1="1121.13" y1="828.09" x2="1121.13" y2="861.38"/>
    <line class="cls-2" x1="1206.11" y1="828.09" x2="1206.11" y2="861.38"/>
    <line class="cls-2" x1="1176.63" y1="828.09" x2="1176.63" y2="861.38"/>
    <line class="cls-2" x1="1233.95" y1="828.09" x2="1233.95" y2="861.38"/>
    <line class="cls-2" x1="1261.78" y1="828.09" x2="1261.78" y2="861.38"/>
    <line class="cls-2" x1="1288.54" y1="828.09" x2="1288.54" y2="861.38"/>
    <line class="cls-2" x1="1316.05" y1="828.09" x2="1316.05" y2="861.38"/>
    <line class="cls-2" x1="1343.65" y1="828.09" x2="1343.65" y2="861.38"/>
    <line class="cls-2" x1="1366.73" y1="828.09" x2="1366.73" y2="861.38"/>
    <line class="cls-2" x1="1146.49" y1="828.09" x2="1146.49" y2="861.38"/>
  </g>
  <g>
    <rect class="cls-2" x="1039.4" y="761.45" width="349.41" height="33.29"/>
    <line class="cls-2" x1="1064.04" y1="761.45" x2="1064.04" y2="794.74"/>
    <line class="cls-2" x1="1092.46" y1="761.45" x2="1092.46" y2="794.74"/>
    <line class="cls-2" x1="1121.13" y1="761.45" x2="1121.13" y2="794.74"/>
    <line class="cls-2" x1="1206.11" y1="761.45" x2="1206.11" y2="794.74"/>
    <line class="cls-2" x1="1176.63" y1="761.45" x2="1176.63" y2="794.74"/>
    <line class="cls-2" x1="1233.95" y1="761.45" x2="1233.95" y2="794.74"/>
    <line class="cls-2" x1="1261.78" y1="761.45" x2="1261.78" y2="794.74"/>
    <line class="cls-2" x1="1288.54" y1="761.45" x2="1288.54" y2="794.74"/>
    <line class="cls-2" x1="1316.05" y1="761.45" x2="1316.05" y2="794.74"/>
    <line class="cls-2" x1="1343.65" y1="761.45" x2="1343.65" y2="794.74"/>
    <line class="cls-2" x1="1366.73" y1="761.45" x2="1366.73" y2="794.74"/>
    <line class="cls-2" x1="1146.49" y1="761.45" x2="1146.49" y2="794.74"/>
  </g>
  <g>
    <rect class="cls-2" x="1113.83" y="728.14" width="349.41" height="33.29"/>
    <line class="cls-2" x1="1138.47" y1="728.14" x2="1138.47" y2="761.42"/>
    <line class="cls-2" x1="1166.89" y1="728.14" x2="1166.89" y2="761.42"/>
    <line class="cls-2" x1="1195.57" y1="728.14" x2="1195.57" y2="761.42"/>
    <line class="cls-2" x1="1280.54" y1="728.14" x2="1280.54" y2="761.42"/>
    <line class="cls-2" x1="1251.06" y1="728.14" x2="1251.06" y2="761.42"/>
    <line class="cls-2" x1="1308.38" y1="728.14" x2="1308.38" y2="761.42"/>
    <line class="cls-2" x1="1336.22" y1="728.14" x2="1336.22" y2="761.42"/>
    <line class="cls-2" x1="1362.97" y1="728.14" x2="1362.97" y2="761.42"/>
    <line class="cls-2" x1="1390.48" y1="728.14" x2="1390.48" y2="761.42"/>
    <line class="cls-2" x1="1418.08" y1="728.14" x2="1418.08" y2="761.42"/>
    <line class="cls-2" x1="1441.16" y1="728.14" x2="1441.16" y2="761.42"/>
    <line class="cls-2" x1="1220.92" y1="728.14" x2="1220.92" y2="761.42"/>
  </g>
  <g>
    <rect class="cls-2" x="1179.73" y="693.95" width="349.41" height="33.29"/>
    <line class="cls-2" x1="1204.37" y1="693.95" x2="1204.37" y2="727.24"/>
    <line class="cls-2" x1="1232.79" y1="693.95" x2="1232.79" y2="727.24"/>
    <line class="cls-2" x1="1261.46" y1="693.95" x2="1261.46" y2="727.24"/>
    <line class="cls-2" x1="1346.44" y1="693.95" x2="1346.44" y2="727.24"/>
    <line class="cls-2" x1="1316.96" y1="693.95" x2="1316.96" y2="727.24"/>
    <line class="cls-2" x1="1374.28" y1="693.95" x2="1374.28" y2="727.24"/>
    <line class="cls-2" x1="1402.11" y1="693.95" x2="1402.11" y2="727.24"/>
    <line class="cls-2" x1="1428.86" y1="693.95" x2="1428.86" y2="727.24"/>
    <line class="cls-2" x1="1456.38" y1="693.95" x2="1456.38" y2="727.24"/>
    <line class="cls-2" x1="1483.97" y1="693.95" x2="1483.97" y2="727.24"/>
    <line class="cls-2" x1="1507.06" y1="693.95" x2="1507.06" y2="727.24"/>
    <line class="cls-2" x1="1286.81" y1="693.95" x2="1286.81" y2="727.24"/>
  </g>
  <g>
    <rect class="cls-2" x="1021.05" y="861.41" width="349.41" height="33.29"/>
    <line class="cls-2" x1="1045.7" y1="861.41" x2="1045.7" y2="894.7"/>
    <line class="cls-2" x1="1074.11" y1="861.41" x2="1074.11" y2="894.7"/>
    <line class="cls-2" x1="1102.79" y1="861.41" x2="1102.79" y2="894.7"/>
    <line class="cls-2" x1="1187.77" y1="861.41" x2="1187.77" y2="894.7"/>
    <line class="cls-2" x1="1158.29" y1="861.41" x2="1158.29" y2="894.7"/>
    <line class="cls-2" x1="1215.61" y1="861.41" x2="1215.61" y2="894.7"/>
    <line class="cls-2" x1="1243.44" y1="861.41" x2="1243.44" y2="894.7"/>
    <line class="cls-2" x1="1270.19" y1="861.41" x2="1270.19" y2="894.7"/>
    <line class="cls-2" x1="1297.71" y1="861.41" x2="1297.71" y2="894.7"/>
    <line class="cls-2" x1="1325.3" y1="861.41" x2="1325.3" y2="894.7"/>
    <line class="cls-2" x1="1348.39" y1="861.41" x2="1348.39" y2="894.7"/>
    <line class="cls-2" x1="1128.14" y1="861.41" x2="1128.14" y2="894.7"/>
  </g>
  <g>
    <rect class="cls-2" x="1021.05" y="794.77" width="349.41" height="33.29"/>
    <line class="cls-2" x1="1045.7" y1="794.77" x2="1045.7" y2="828.06"/>
    <line class="cls-2" x1="1074.11" y1="794.77" x2="1074.11" y2="828.06"/>
    <line class="cls-2" x1="1102.79" y1="794.77" x2="1102.79" y2="828.06"/>
    <line class="cls-2" x1="1187.77" y1="794.77" x2="1187.77" y2="828.06"/>
    <line class="cls-2" x1="1158.29" y1="794.77" x2="1158.29" y2="828.06"/>
    <line class="cls-2" x1="1215.61" y1="794.77" x2="1215.61" y2="828.06"/>
    <line class="cls-2" x1="1243.44" y1="794.77" x2="1243.44" y2="828.06"/>
    <line class="cls-2" x1="1270.19" y1="794.77" x2="1270.19" y2="828.06"/>
    <line class="cls-2" x1="1297.71" y1="794.77" x2="1297.71" y2="828.06"/>
    <line class="cls-2" x1="1325.3" y1="794.77" x2="1325.3" y2="828.06"/>
    <line class="cls-2" x1="1348.39" y1="794.77" x2="1348.39" y2="828.06"/>
    <line class="cls-2" x1="1128.14" y1="794.77" x2="1128.14" y2="828.06"/>
  </g>
  <g>
    <rect class="cls-4" x="548.65" y="443.04" width="647.01" height="375.04" rx="52.41" ry="52.41" transform="translate(-187.81 444.21) rotate(-25.9)"/>
    <path class="cls-1" d="M678.17,708.02c3.44-.58,6.92-1.09,10.44-1.52,3.52-.43,7-.64,10.45-.65,3.45,0,6.81.28,10.08.87,3.27.59,6.38,1.63,9.33,3.15,2.95,1.52,5.67,3.57,8.17,6.16,2.5,2.59,4.72,5.89,6.67,9.91,2.9,5.97,4.61,12.06,5.15,18.28.54,6.22-.16,12.3-2.09,18.24-1.93,5.94-5.1,11.55-9.52,16.84-4.42,5.29-10.13,9.98-17.14,14.08l4.54,12.23c.73,1.82.73,3.78,0,5.88-.73,2.1-2.19,3.68-4.39,4.75l-10.74,5.21-7.54-20.32c-7.8,2.31-15.71,3.57-23.71,3.77-8.01.2-15.3-.7-21.86-2.71l2.69-17.48c.24-1.43.82-2.82,1.76-4.17.94-1.35,2.13-2.37,3.57-3.07,1.51-.73,3.24-1.08,5.19-1.06,1.95.02,4.12.14,6.51.33,2.38.2,4.97.34,7.77.42,2.79.08,5.79-.19,8.98-.81l-13.75-37.2c-5.13.94-10.35,1.65-15.66,2.13-5.31.48-10.46.15-15.44-1-4.98-1.15-9.67-3.41-14.06-6.79s-8.22-8.42-11.48-15.14c-2.41-4.96-3.75-10.28-4.03-15.97-.28-5.68.6-11.35,2.63-16.99,2.03-5.64,5.29-11.04,9.76-16.21,4.48-5.16,10.27-9.7,17.37-13.61l-4.04-10.96c-.73-1.82-.73-3.78,0-5.88.73-2.1,2.19-3.68,4.39-4.75l10.74-5.21,7.17,19.33c7.39-2.04,14.2-2.82,20.44-2.36,6.24.46,11.83,1.47,16.77,3.03l-2.08,13.93c-.31,2.09-.83,3.76-1.58,5.01-.75,1.26-1.88,2.25-3.38,2.98-.94.46-2.17.76-3.69.92-1.52.15-3.19.27-5.01.34s-3.78.17-5.86.28c-2.08.12-4.23.36-6.45.74l12.93,35.03ZM647.16,680.83c-2.67,1.84-4.79,3.68-6.34,5.52s-2.65,3.65-3.29,5.44c-.64,1.79-.89,3.56-.74,5.31.15,1.75.62,3.44,1.42,5.07,1.8,3.71,4.45,6.12,7.95,7.26,3.5,1.13,7.51,1.57,12.04,1.31l-11.03-29.91ZM700.46,768.31c9.54-6.72,11.96-14.92,7.26-24.59-1.77-3.64-4.31-5.96-7.62-6.95-3.31-.99-7.2-1.29-11.67-.91l12.03,32.45Z"/>
    <rect class="cls-1" x="761.72" y="513.42" width="355.3" height="35.64" rx="17.82" ry="17.82" transform="translate(-137.69 463.59) rotate(-25.9)"/>
    <rect class="cls-1" x="790.43" y="572.54" width="355.3" height="35.64" rx="17.82" ry="17.82" transform="translate(-160.63 482.06) rotate(-25.9)"/>
    <rect class="cls-1" x="819.13" y="631.67" width="355.3" height="35.64" rx="17.82" ry="17.82" transform="translate(-183.57 500.53) rotate(-25.9)"/>
    <rect class="cls-5" x="642.07" y="538.64" width="75.28" height="370.71" transform="translate(-247.94 369.54) rotate(-25.9)"/>
    <rect class="cls-5" x="726.91" y="504.55" width="46.03" height="370.71" transform="translate(-226 396.78) rotate(-25.9)"/>
    <rect class="cls-5" x="780.23" y="484.25" width="23.02" height="370.71" transform="translate(-212.94 413.01) rotate(-25.9)"/>
    <rect class="cls-5" x="812.25" y="471.37" width="12.04" height="370.71" transform="translate(-204.65 423.3) rotate(-25.9)"/>
  </g>
</svg>