<?xml version="1.0" encoding="UTF-8"?>
<svg id="Layer_1" data-name="Layer 1" xmlns="http://www.w3.org/2000/svg" viewBox="0 0 1920 1080">
  <defs>
    <style>
      .cls-1 {
        fill: #999;
      }

      .cls-1, .cls-2, .cls-3, .cls-4, .cls-5 {
        stroke: #601113;
        stroke-miterlimit: 10;
        stroke-width: 5px;
      }

      .cls-2 {
        fill: #fff;
      }

      .cls-6 {
        fill: #601113;
      }

      .cls-7 {
        fill: #30080b;
      }

      .cls-8 {
        fill: #faf1f1;
      }

      .cls-3 {
        fill: #fdd7cf;
      }

      .cls-9 {
        fill: #d3d2d3;
      }

      .cls-4 {
        fill: none;
      }

      .cls-5 {
        fill: #d0a286;
      }
    </style>
  </defs>
  <path class="cls-8" d="M1370.77,403.61c-8.14-17.28-16.67-34.52-29.35-55.17-13.14-21.4-40.1-61.75-96.26-115.04-64.75-61.44-113.22-107.44-191.35-129.13-25.03-6.95-55.26-15.01-93.91-9.39-57.11,8.3-98.36,41.48-125.61,63.39-6.04,4.86-24.46,22.87-61.04,58.7-65.31,63.95-63.63,63.62-71.61,69.26-44.3,31.33-91.15,38.1-136.17,44.61-61.44,8.88-69.37-2.28-116.22,10.57-20.75,5.69-58.17,15.95-92.74,45.78-53.81,46.44-66.06,110.44-72.78,145.57-11.96,62.5-2.03,112.14,3.52,138.52,5.75,27.33,23.88,98.77,81,167.87,7.61,9.2,36.68,43.5,84.52,76.3,29.43,20.19,53.04,36.37,86.87,45.78,74.14,20.63,157.34-2.42,210.13-37.57,13.89-9.25,28.05-20.91,55.17-34.04,28.44-13.77,53.02-25.67,83.35-24.65,22.44.76,45.4,13.04,90.39,37.57,23.47,12.8,27.44,16.22,72.78,43.43,70.96,42.58,85.13,48.52,97.43,52.83,16.21,5.67,42.53,14.65,76.3,15.26,74.73,1.34,128.86-39.36,143.22-50.48,51.05-39.53,71.64-88.48,81-111.52,30.05-74,21.63-139.45,15.26-189-10.62-82.55-38.74-142.28-93.91-259.43Z"/>
  <rect class="cls-3" x="729.58" y="793.24" width="235.68" height="39.41" transform="translate(34.48 1660.37) rotate(-90)"/>
  <line class="cls-4" x1="392.12" y1="930.79" x2="1405.6" y2="930.79"/>
  <circle class="cls-2" cx="939.17" cy="270.19" r="133.56"/>
  <path class="cls-2" d="M867.13,588.68c0-13.29-9.9-24.07-22.11-24.07h-34.69c-2.29,0-4.51.38-6.59,1.09h-163.09v365.09h189.02v-234.7h37.47v-107.41Z"/>
  <ellipse class="cls-6" cx="817.16" cy="357.9" rx="42.73" ry="65.74" transform="translate(-73.84 313.71) rotate(-20.81)"/>
  <path class="cls-6" d="M667.82,315.64c23.6,0,42.73,29.43,42.73,65.74s-19.13,65.74-42.73,65.74c-23.6,0-42.73-29.43-42.73-65.74s19.13-65.74,42.73-65.74Z"/>
  <path class="cls-3" d="M653.96,409.55h4.31v52.42h-4.31c-14.47,0-26.21-11.74-26.21-26.21h0c0-14.47,11.74-26.21,26.21-26.21Z"/>
  <path class="cls-3" d="M852.37,415.56h4.31v52.42h-4.31c-14.47,0-26.21-11.74-26.21-26.21h0c0-14.47,11.74-26.21,26.21-26.21Z" transform="translate(1682.85 883.53) rotate(-180)"/>
  <path class="cls-3" d="M787.35,574.4c-14.09,11.74-28.94,23-43.4,23-13.57,0-22.3-8.91-40.72-23v-62.22h84.13v62.22Z"/>
  <rect class="cls-1" x="741.81" y="587.58" width="18.35" height="83.35"/>
  <ellipse class="cls-3" cx="745.29" cy="423.09" rx="90.56" ry="132.52"/>
  <path class="cls-1" d="M703.31,548.38c6.91.24,7.83,6.28,23.48,18.78,13.66,10.91,18.4,10.64,19.96,16.43,2.94,10.92-9.46,28.35-23.48,29.35-8.5.6-14.72-5.05-24.65-14.09-10.68-9.72-17.74-16.14-17.61-25.83.17-12.48,12.17-25,22.3-24.65Z"/>
  <path class="cls-3" d="M930.57,694.44h-72.33c-2.46,0-4.46-2-4.46-4.46v-2.55c0-2.46,2-4.46,4.46-4.46h60.43c4.58,0,8.58-3.46,8.88-8.03.32-5.01-3.64-9.18-8.58-9.18h-80.01l20.37-11.76c3.97-2.29,5.7-7.29,3.67-11.39-2.22-4.5-7.74-6.12-12.02-3.65l-51.16,29.54c-13.66,6.16-21.92,11.87-26.9,18.22h-166.26v28.15c0,19.01,15.41,34.42,34.42,34.42h136.62c9.29,10.9,23.11,17.82,38.56,17.82h86.94c4.58,0,8.58-3.46,8.88-8.03.32-5.01-3.64-9.18-8.58-9.18h-45.06c-2.33,0-4.41-1.7-4.63-4.02-.25-2.66,1.83-4.9,4.44-4.9h60.43c4.58,0,8.58-3.46,8.88-8.03.32-5.01-3.64-9.18-8.58-9.18h-60.73c-2.46,0-4.46-2-4.46-4.46v-3.19c0-2.46,2-4.46,4.46-4.46h72.04c4.58,0,8.58-3.46,8.88-8.03.32-5.01-3.64-9.18-8.58-9.18Z"/>
  <path class="cls-2" d="M615.42,555.61h55.17c13.28,0,24.07,10.78,24.07,24.07v107.41h-103.3v-107.41c0-13.28,10.78-24.07,24.07-24.07Z"/>
  <path class="cls-1" d="M794.85,546.49c-6.91.24-7.83,6.28-23.48,18.78-13.66,10.91-18.4,10.64-19.96,16.43-2.94,10.92,9.46,28.35,23.48,29.35,8.5.6,14.72-5.05,24.65-14.09,10.68-9.72,17.74-16.14,17.61-25.83-.17-12.48-12.17-25-22.3-24.65Z"/>
  <ellipse class="cls-6" cx="737.08" cy="316.19" rx="76.12" ry="54.47" transform="translate(-51.79 171.46) rotate(-12.82)"/>
  <ellipse class="cls-6" cx="817.16" cy="335.05" rx="23.71" ry="36.48" transform="translate(-13.69 634.54) rotate(-42.12)"/>
  <rect class="cls-5" x="924.01" y="793.24" width="235.68" height="39.41" transform="translate(228.9 1854.79) rotate(-90)"/>
  <path class="cls-1" d="M1022.14,588.68c0-13.29,9.9-24.07,22.11-24.07h34.69c2.29,0,4.51.38,6.59,1.09h163.09v365.09h-189.02v-234.7s-37.47,0-37.47,0v-107.41Z"/>
  <ellipse class="cls-7" cx="1072.11" cy="357.9" rx="65.74" ry="42.73" transform="translate(356.62 1232.88) rotate(-69.19)"/>
  <ellipse class="cls-7" cx="1221.45" cy="381.38" rx="42.73" ry="65.74"/>
  <path class="cls-5" d="M1257.21,409.55h4.31v52.42h-4.31c-14.47,0-26.21-11.74-26.21-26.21h0c0-14.47,11.74-26.21,26.21-26.21Z" transform="translate(2492.52 871.52) rotate(180)"/>
  <path class="cls-5" d="M1058.79,415.56h4.31v52.42h-4.31c-14.47,0-26.21-11.74-26.21-26.21h0c0-14.47,11.74-26.21,26.21-26.21Z"/>
  <path class="cls-5" d="M1101.92,574.4c14.09,11.74,28.94,23,43.4,23,13.57,0,22.3-8.91,40.72-23,0-20.74,0-41.48,0-62.22h-84.13s0,62.22,0,62.22Z"/>
  <rect class="cls-2" x="1129.12" y="587.58" width="18.35" height="83.35" transform="translate(2276.58 1258.5) rotate(-180)"/>
  <ellipse class="cls-5" cx="1143.98" cy="423.09" rx="90.56" ry="132.52"/>
  <path class="cls-2" d="M1185.96,548.38c-6.91.24-7.83,6.28-23.48,18.78-13.66,10.91-18.4,10.64-19.96,16.43-2.94,10.92,9.46,28.35,23.48,29.35,8.5.6,14.72-5.05,24.65-14.09,10.68-9.72,17.74-16.14,17.61-25.83-.17-12.48-12.17-25-22.3-24.65Z"/>
  <path class="cls-5" d="M958.7,694.44h72.33c2.46,0,4.46-2,4.46-4.46v-2.55c0-2.46-2-4.46-4.46-4.46h-60.43c-4.58,0-8.58-3.46-8.88-8.03-.32-5.01,3.64-9.18,8.58-9.18h65.19s.53,0,.53,0h14.3s-20.37-11.76-20.37-11.76c-3.97-2.29-5.7-7.29-3.67-11.39,2.22-4.5,7.74-6.12,12.02-3.65l51.16,29.54c13.66,6.16,21.92,11.87,26.9,18.22h166.26v28.15c0,19.01-15.41,34.42-34.42,34.42h-136.62c-9.29,10.9-23.11,17.82-38.56,17.82h-32.46s-5.06,0-5.06,0h-49.41c-4.58,0-8.58-3.46-8.88-8.03-.32-5.01,3.64-9.18,8.58-9.18h45.06c2.33,0,4.41-1.7,4.63-4.02.25-2.66-1.83-4.9-4.44-4.9h-60.43c-4.58,0-8.58-3.46-8.88-8.03-.32-5.01,3.64-9.18,8.58-9.18h60.73c2.46,0,4.46-2,4.46-4.46v-3.19c0-2.46-2-4.46-4.46-4.46h-72.04c-4.58,0-8.58-3.46-8.88-8.03-.32-5.01,3.64-9.18,8.58-9.18Z"/>
  <path class="cls-1" d="M1194.61,555.61h103.3v107.41c0,13.28-10.78,24.07-24.07,24.07h-55.17c-13.28,0-24.07-10.78-24.07-24.07v-107.41h0Z" transform="translate(2492.52 1242.71) rotate(-180)"/>
  <path class="cls-2" d="M1094.42,546.49c6.91.24,7.83,6.28,23.48,18.78,13.66,10.91,18.4,10.64,19.96,16.43,2.94,10.92-9.46,28.35-23.48,29.35-8.5.6-14.72-5.05-24.65-14.09-10.68-9.72-17.74-16.14-17.61-25.83.17-12.48,12.17-25,22.3-24.65Z"/>
  <ellipse class="cls-7" cx="1101.92" cy="315.64" rx="38.14" ry="53.3" transform="translate(549.61 1320.03) rotate(-77.18)"/>
  <ellipse class="cls-7" cx="1142.41" cy="284.52" rx="37.02" ry="54.46" transform="translate(324.8 1131.62) rotate(-60)"/>
  <ellipse class="cls-7" cx="1190.48" cy="315.27" rx="47.3" ry="33.85" transform="translate(-35.29 434.08) rotate(-20.37)"/>
  <ellipse class="cls-7" cx="1221.45" cy="357.9" rx="23.71" ry="36.48" transform="translate(136.81 1023.92) rotate(-47.88)"/>
  <circle class="cls-9" cx="939.17" cy="270.19" r="90.68"/>
  <ellipse cx="966.24" cy="252.75" rx="8.8" ry="24.92"/>
  <ellipse cx="915.76" cy="252.75" rx="8.8" ry="24.92"/>
  <path d="M975.89,304.81c-24.48,27.5-48.95,27.5-73.43,0-.52-.58-.85-1.96-.85-3.47h0c0-2.64.97-4.42,1.88-3.49,23.79,24.51,47.58,24.51,71.37,0,.91-.93,1.88.85,1.88,3.49h0c0,1.52-.34,2.9-.85,3.47Z"/>
</svg>