<?xml version="1.0" encoding="UTF-8"?>
<svg id="Layer_1" data-name="Layer 1" xmlns="http://www.w3.org/2000/svg" viewBox="0 0 1920 1080">
  <defs>
    <style>
      .cls-1 {
        fill: #999;
      }

      .cls-1, .cls-2, .cls-3, .cls-4 {
        stroke: #601113;
        stroke-miterlimit: 10;
        stroke-width: 5px;
      }

      .cls-5 {
        fill: #fff;
      }

      .cls-2 {
        fill: #d3d2d3;
      }

      .cls-6 {
        fill: #faf1f1;
      }

      .cls-3 {
        fill: none;
      }

      .cls-7 {
        fill: #a5a5a5;
      }

      .cls-4 {
        fill: #cc2b2b;
      }
    </style>
  </defs>
  <path class="cls-6" d="M1459.19,400.92c-8.14-17.28-16.67-34.52-29.35-55.17-13.14-21.4-40.1-61.75-96.26-115.04-64.75-61.44-113.22-107.44-191.35-129.13-25.03-6.95-55.26-15.01-93.91-9.39-57.11,8.3-98.36,41.48-125.61,63.39-6.04,4.86-24.46,22.87-61.04,58.7-65.31,63.95-63.63,63.62-71.61,69.26-44.3,31.33-91.15,38.1-136.17,44.61-61.44,8.88-69.37-2.28-116.22,10.57-20.75,5.69-58.17,15.95-92.74,45.78-53.81,46.44-66.06,110.44-72.78,145.57-11.96,62.5-2.03,112.14,3.52,138.52,5.75,27.33,23.88,98.77,81,167.87,7.61,9.2,36.68,43.5,84.52,76.3,29.43,20.19,53.04,36.37,86.87,45.78,74.14,20.63,157.34-2.42,210.13-37.57,13.89-9.25,28.05-20.91,55.17-34.04,28.44-13.77,53.02-25.67,83.35-24.65,22.44.76,45.4,13.04,90.39,37.57,23.47,12.8,27.44,16.22,72.78,43.43,70.96,42.58,85.13,48.52,97.43,52.83,16.21,5.67,42.53,14.65,76.3,15.26,74.73,1.34,128.86-39.36,143.22-50.48,51.05-39.53,71.64-88.48,81-111.52,30.05-74,21.63-139.45,15.26-189-10.62-82.55-38.74-142.28-93.91-259.43Z"/>
  <line class="cls-3" x1="480.54" y1="928.09" x2="1494.02" y2="928.09"/>
  <path class="cls-7" d="M985.04,461.93c-2.23,0-4.42.17-6.57.48,22.22,3.19,39.29,22.29,39.29,45.39s-17.08,42.2-39.29,45.39c2.15.31,4.34.48,6.57.48,25.33,0,45.86-20.53,45.86-45.86s-20.53-45.86-45.86-45.86Z"/>
  <g>
    <circle class="cls-1" cx="575.15" cy="210.38" r="8.25"/>
    <circle class="cls-1" cx="495.12" cy="294.35" r="8.25"/>
    <circle class="cls-1" cx="515.8" cy="506.76" r="8.25"/>
    <circle class="cls-1" cx="572.54" cy="569.22" r="8.25"/>
    <circle class="cls-1" cx="547.36" cy="673.3" r="8.25"/>
    <circle class="cls-1" cx="606.06" cy="632.61" r="8.25"/>
    <circle class="cls-1" cx="507.55" cy="712.43" r="8.25"/>
    <circle class="cls-1" cx="739.88" cy="828.4" r="8.25"/>
    <circle class="cls-1" cx="784.13" cy="882.34" r="8.25"/>
    <polyline class="cls-3" points="575.15 218.63 575.15 364.17 703.13 364.17"/>
    <line class="cls-1" x1="572.54" y1="294.35" x2="503.36" y2="294.35"/>
    <polyline class="cls-3" points="758.3 442.93 609.09 442.93 609.09 506.76 524.04 506.76"/>
    <polyline class="cls-3" points="910.91 775.83 809.08 775.83 809.08 828.4 748.13 828.4"/>
    <line class="cls-1" x1="784.13" y1="830.75" x2="784.13" y2="872.87"/>
    <polyline class="cls-3" points="822.48 728.09 714.25 728.09 714.25 673.3 555.61 673.3"/>
    <polyline class="cls-3" points="653.43 673.3 653.43 632.61 614.3 632.61"/>
    <polyline class="cls-3" points="606.06 673.3 606.06 712.43 515.8 712.43"/>
    <line class="cls-1" x1="714.25" y1="569.22" x2="578.3" y2="569.22"/>
  </g>
  <g>
    <circle class="cls-1" cx="1387.64" cy="210.38" r="8.25"/>
    <circle class="cls-1" cx="1467.67" cy="294.35" r="8.25"/>
    <circle class="cls-1" cx="1446.99" cy="506.76" r="8.25"/>
    <circle class="cls-1" cx="1390.25" cy="569.22" r="8.25"/>
    <circle class="cls-1" cx="1415.42" cy="673.3" r="8.25"/>
    <circle class="cls-1" cx="1356.72" cy="632.61" r="8.25"/>
    <circle class="cls-1" cx="1455.23" cy="712.43" r="8.25"/>
    <circle class="cls-1" cx="1222.9" cy="828.4" r="8.25"/>
    <circle class="cls-1" cx="1178.65" cy="882.34" r="8.25"/>
    <polyline class="cls-3" points="1387.64 218.63 1387.64 364.17 1259.65 364.17"/>
    <line class="cls-1" x1="1390.25" y1="294.35" x2="1459.42" y2="294.35"/>
    <polyline class="cls-3" points="1204.48 442.93 1353.7 442.93 1353.7 506.76 1438.74 506.76"/>
    <polyline class="cls-3" points="1051.87 775.83 1153.71 775.83 1153.71 828.4 1214.65 828.4"/>
    <line class="cls-1" x1="1178.65" y1="830.75" x2="1178.65" y2="872.87"/>
    <polyline class="cls-3" points="1140.3 728.09 1248.53 728.09 1248.53 673.3 1407.17 673.3"/>
    <polyline class="cls-3" points="1309.35 673.3 1309.35 632.61 1348.48 632.61"/>
    <polyline class="cls-3" points="1356.72 673.3 1356.72 712.43 1446.99 712.43"/>
    <line class="cls-1" x1="1248.53" y1="569.22" x2="1384.48" y2="569.22"/>
  </g>
  <path class="cls-1" d="M981.85,921.59l204.99-212.53c58.1-60.24,90.54-140.68,90.48-224.37l-.17-232.6-297.24-89.25-290.06,89.25-.08,233.77c-.03,82.99,31.9,162.81,89.17,222.88l202.91,212.85Z"/>
  <path class="cls-2" d="M980.57,882.34l178.93-185.51c58.1-60.24,90.54-140.68,90.48-224.37l-.15-200.58-271.02-81.38-264.48,81.38-.07,201.75c-.03,82.99,31.9,162.81,89.17,222.88l177.14,185.83Z"/>
  <path class="cls-5" d="M1236.78,279.94l-259.13-77.81-252.88,77.81-.07,214.36c-.02,63.61,23.72,124.86,66.45,171.8-31.32-43.29-48.45-95.59-48.43-149.61l.06-190.27,233.63-71.89,239.4,71.89.14,189.34c.05,61.99-22.47,121.72-63.11,168.16l12.6-13.07c45.91-47.6,71.54-111.16,71.49-177.29l-.16-213.44Z"/>
  <circle class="cls-1" cx="980.81" cy="828.4" r="8.25"/>
  <circle class="cls-1" cx="751.86" cy="294.35" r="8.25"/>
  <circle class="cls-1" cx="1208.79" cy="294.35" r="8.25"/>
  <g>
    <path class="cls-7" d="M977.01,394.58c-63.1,0-114.25,51.15-114.25,114.25s51.15,114.25,114.25,114.25,114.25-51.15,114.25-114.25-51.15-114.25-114.25-114.25ZM977.01,554.9c-25.44,0-46.07-20.63-46.07-46.07s20.63-46.07,46.07-46.07,46.07,20.63,46.07,46.07-20.63,46.07-46.07,46.07Z"/>
    <path class="cls-7" d="M1005.5,337.11h-56.98c-2.13,0-3.86,1.73-3.86,3.86v60.84h64.7v-60.84c0-2.13-1.73-3.86-3.86-3.86Z"/>
    <path class="cls-7" d="M1009.36,613.78h-64.7v60.84c0,2.13,1.73,3.86,3.86,3.86h56.98c2.13,0,3.86-1.73,3.86-3.86v-60.84Z"/>
    <path class="cls-7" d="M873.77,465.12h-60.84c-2.13,0-3.86,1.73-3.86,3.86v56.98c0,2.13,1.73,3.86,3.86,3.86h60.84v-64.7Z"/>
    <path class="cls-7" d="M1141.09,465.12h-60.84v64.7h60.84c2.13,0,3.86-1.73,3.86-3.86v-56.98c0-2.13-1.73-3.86-3.86-3.86Z"/>
    <path class="cls-7" d="M919.52,600.38l-45.75-45.75-43.02,43.02c-1.51,1.51-1.51,3.95,0,5.45l40.29,40.29c1.51,1.51,3.95,1.51,5.45,0l43.02-43.02Z"/>
    <path class="cls-7" d="M1123.27,597.66l-43.02-43.02-45.75,45.75,43.02,43.02c1.51,1.51,3.95,1.51,5.45,0l40.29-40.29c1.51-1.51,1.51-3.95,0-5.45Z"/>
    <path class="cls-7" d="M930.58,404.97l-43.02-43.02c-1.51-1.51-3.95-1.51-5.45,0l-40.29,40.29c-1.51,1.51-1.51,3.95,0,5.45l43.02,43.02,45.75-45.75Z"/>
    <path class="cls-7" d="M1112.21,402.24l-40.29-40.29c-1.51-1.51-3.95-1.51-5.45,0l-43.02,43.02,45.75,45.75,43.02-43.02c1.51-1.51,1.51-3.95,0-5.45Z"/>
  </g>
  <path class="cls-4" d="M1149.06,464.08h-58.87c-2.65-6.39-5.86-12.49-9.57-18.24l39.45-39.45c1.36-1.36,1.36-3.56,0-4.92l-40.82-40.82c-1.36-1.36-3.56-1.36-4.92,0l-42.9,42.9c-4.66-2.1-9.5-3.89-14.47-5.35v-58.64c0-1.92-1.56-3.48-3.48-3.48h-57.73c-1.92,0-3.48,1.56-3.48,3.48v58.64c-4.97,1.47-9.8,3.25-14.47,5.35l-42.9-42.9c-1.36-1.36-3.56-1.36-4.92,0l-40.82,40.82c-1.36,1.36-1.36,3.56,0,4.92l39.45,39.45c-3.71,5.75-6.92,11.85-9.57,18.24h-58.87c-1.92,0-3.48,1.56-3.48,3.48v57.73c0,1.92,1.56,3.48,3.48,3.48h52.13c1.68,9.03,4.41,17.68,8.07,25.83l-42.28,42.28c-1.36,1.36-1.36,3.56,0,4.92l40.82,40.82c1.36,1.36,3.56,1.36,4.92,0l38.83-38.83c9.06,5.86,19.01,10.47,29.6,13.59v56.57c0,1.92,1.56,3.48,3.48,3.48h57.73c1.92,0,3.48-1.56,3.48-3.48v-56.57c10.59-3.12,20.53-7.73,29.6-13.59l38.83,38.83c1.36,1.36,3.56,1.36,4.92,0l40.82-40.82c1.36-1.36,1.36-3.56,0-4.92l-42.28-42.28c3.66-8.15,6.4-16.8,8.07-25.83h52.13c1.92,0,3.48-1.56,3.48-3.48v-57.73c0-1.92-1.56-3.48-3.48-3.48ZM984.61,553.86c-25.44,0-46.07-20.63-46.07-46.07s20.63-46.07,46.07-46.07,46.07,20.63,46.07,46.07-20.63,46.07-46.07,46.07Z"/>
</svg>