<?xml version="1.0" encoding="UTF-8"?>
<svg id="Layer_1" data-name="Layer 1" xmlns="http://www.w3.org/2000/svg" viewBox="0 0 1920 1080">
  <defs>
    <style>
      .cls-1, .cls-2, .cls-3, .cls-4, .cls-5, .cls-6 {
        stroke: #601113;
        stroke-miterlimit: 10;
      }

      .cls-1, .cls-3, .cls-4, .cls-6 {
        stroke-width: 5px;
      }

      .cls-1, .cls-5 {
        fill: #999;
      }

      .cls-7 {
        fill: #fff;
      }

      .cls-2, .cls-4 {
        fill: none;
      }

      .cls-2, .cls-5 {
        stroke-width: 10px;
      }

      .cls-3 {
        fill: #d3d2d3;
      }

      .cls-8 {
        fill: #faf1f1;
      }

      .cls-9 {
        fill: #a5a5a5;
      }

      .cls-6 {
        fill: #cc2b2b;
      }
    </style>
  </defs>
  <path class="cls-8" d="M1459.19,400.92c-8.14-17.28-16.67-34.52-29.35-55.17-13.14-21.4-40.1-61.75-96.26-115.04-64.75-61.44-113.22-107.44-191.35-129.13-25.03-6.95-55.26-15.01-93.91-9.39-57.11,8.3-98.36,41.48-125.61,63.39-6.04,4.86-24.46,22.87-61.04,58.7-65.31,63.95-63.63,63.62-71.61,69.26-44.3,31.33-91.15,38.1-136.17,44.61-61.44,8.88-69.37-2.28-116.22,10.57-20.75,5.69-58.17,15.95-92.74,45.78-53.81,46.44-66.06,110.44-72.78,145.57-11.96,62.5-2.03,112.14,3.52,138.52,5.75,27.33,23.88,98.77,81,167.87,7.61,9.2,36.68,43.5,84.52,76.3,29.43,20.19,53.04,36.37,86.87,45.78,74.14,20.63,157.34-2.42,210.13-37.57,13.89-9.25,28.05-20.91,55.17-34.04,28.44-13.77,53.02-25.67,83.35-24.65,22.44.76,45.4,13.04,90.39,37.57,23.47,12.8,27.44,16.22,72.78,43.43,70.96,42.58,85.13,48.52,97.43,52.83,16.21,5.67,42.53,14.65,76.3,15.26,74.73,1.34,128.86-39.36,143.22-50.48,51.05-39.53,71.64-88.48,81-111.52,30.05-74,21.63-139.45,15.26-189-10.62-82.55-38.74-142.28-93.91-259.43Z"/>
  <line class="cls-4" x1="480.54" y1="928.09" x2="1494.02" y2="928.09"/>
  <path class="cls-9" d="M982.12,419.81c-2.44,0-4.84.18-7.18.52,24.3,3.49,42.98,24.38,42.98,49.64s-18.68,46.16-42.98,49.64c2.35.34,4.74.52,7.18.52,27.71,0,50.16-22.46,50.16-50.16s-22.46-50.16-50.16-50.16Z"/>
  <circle class="cls-5" cx="533.77" cy="134.49" r="19.19"/>
  <circle class="cls-5" cx="1422.49" cy="134.49" r="19.19"/>
  <circle class="cls-5" cx="1520.19" cy="236.51" r="19.19"/>
  <circle class="cls-5" cx="1501.01" cy="468.84" r="19.19"/>
  <circle class="cls-5" cx="1257.65" cy="819.51" r="19.19"/>
  <circle class="cls-5" cx="1193.9" cy="891.05" r="19.19"/>
  <circle class="cls-5" cx="1506.59" cy="693.81" r="19.19"/>
  <circle class="cls-5" cx="1463.18" cy="651.01" r="19.19"/>
  <circle class="cls-5" cx="1403.3" cy="606.5" r="19.19"/>
  <circle class="cls-5" cx="1441.68" cy="537.16" r="19.19"/>
  <circle class="cls-5" cx="436.07" cy="236.51" r="19.19"/>
  <circle class="cls-5" cx="461.35" cy="468.84" r="19.19"/>
  <circle class="cls-5" cx="518.22" cy="537.16" r="19.19"/>
  <circle class="cls-5" cx="449.67" cy="693.81" r="19.19"/>
  <circle class="cls-5" cx="493.09" cy="650.54" r="19.19"/>
  <circle class="cls-5" cx="556.59" cy="606.5" r="19.19"/>
  <circle class="cls-5" cx="762.36" cy="891.05" r="19.19"/>
  <circle class="cls-5" cx="705.11" cy="820.66" r="19.19"/>
  <polyline class="cls-2" points="533.77 153.68 533.77 312.88 673.77 312.88"/>
  <line class="cls-5" x1="530.92" y1="236.51" x2="455.25" y2="236.51"/>
  <polyline class="cls-2" points="734.12 399.03 570.9 399.03 570.9 468.84 477.88 468.84"/>
  <polyline class="cls-2" points="901.04 763.15 789.65 763.15 789.65 820.66 722.99 820.66"/>
  <line class="cls-5" x1="762.36" y1="823.23" x2="762.36" y2="869.3"/>
  <polyline class="cls-2" points="804.31 710.93 685.93 710.93 685.93 651.01 512.4 651.01"/>
  <polyline class="cls-2" points="619.41 651.01 619.41 606.5 576.61 606.5"/>
  <polyline class="cls-2" points="567.59 651.01 567.59 693.81 468.86 693.81"/>
  <line class="cls-5" x1="685.93" y1="537.16" x2="537.23" y2="537.16"/>
  <polyline class="cls-2" points="1422.49 153.68 1422.49 312.88 1282.5 312.88"/>
  <line class="cls-5" x1="1425.34" y1="236.51" x2="1501.01" y2="236.51"/>
  <polyline class="cls-2" points="1222.15 399.03 1385.36 399.03 1385.36 468.84 1478.39 468.84"/>
  <polyline class="cls-2" points="1055.22 763.15 1166.61 763.15 1166.61 820.66 1233.28 820.66"/>
  <line class="cls-5" x1="1193.9" y1="823.23" x2="1193.9" y2="869.3"/>
  <polyline class="cls-2" points="1151.95 710.93 1270.33 710.93 1270.33 651.01 1443.86 651.01"/>
  <polyline class="cls-2" points="1336.86 651.01 1336.86 606.5 1379.66 606.5"/>
  <polyline class="cls-2" points="1388.68 651.01 1388.68 693.81 1487.41 693.81"/>
  <line class="cls-5" x1="1270.33" y1="537.16" x2="1419.03" y2="537.16"/>
  <path class="cls-1" d="M978.63,922.59l232.72-241.28c58.1-60.24,90.54-140.68,90.48-224.37l-.2-266.66-325.12-97.62-317.28,97.62-.09,267.83c-.03,82.99,31.9,162.81,89.17,222.88l230.31,241.6Z"/>
  <path class="cls-3" d="M977.23,879.66l204.21-211.72c58.1-60.24,90.54-140.68,90.48-224.37l-.17-231.64-296.45-89.01-289.29,89.01-.08,232.81c-.03,82.99,31.9,162.81,89.17,222.88l202.13,212.04Z"/>
  <path class="cls-7" d="M1257.48,220.75l-283.44-85.11-276.61,85.11-.08,234.48c-.02,69.58,25.95,136.58,72.68,187.92-34.26-47.35-52.99-104.56-52.97-163.64l.07-208.12,255.55-78.63,261.86,78.63.15,207.1c.05,67.8-24.58,133.14-69.03,183.93l13.79-14.29c50.21-52.06,78.25-121.59,78.2-193.92l-.17-233.46Z"/>
  <circle class="cls-1" cx="977.5" cy="820.66" r="9.02"/>
  <circle class="cls-1" cx="727.07" cy="236.51" r="9.02"/>
  <circle class="cls-1" cx="1226.86" cy="236.51" r="9.02"/>
  <g>
    <path class="cls-9" d="M973.34,346.14c-69.02,0-124.97,55.95-124.97,124.97s55.95,124.97,124.97,124.97,124.97-55.95,124.97-124.97-55.95-124.97-124.97-124.97ZM973.34,521.5c-27.83,0-50.39-22.56-50.39-50.39s22.56-50.39,50.39-50.39,50.39,22.56,50.39,50.39-22.56,50.39-50.39,50.39Z"/>
    <path class="cls-9" d="M1004.87,283.27h-63.05c-2.13,0-3.86,1.73-3.86,3.86v66.91h70.77v-66.91c0-2.13-1.73-3.86-3.86-3.86Z"/>
    <path class="cls-9" d="M1008.72,585.91h-70.77v66.91c0,2.13,1.73,3.86,3.86,3.86h63.05c2.13,0,3.86-1.73,3.86-3.86v-66.91Z"/>
    <path class="cls-9" d="M860.42,423.3h-66.91c-2.13,0-3.86,1.73-3.86,3.86v63.05c0,2.13,1.73,3.86,3.86,3.86h66.91v-70.77Z"/>
    <path class="cls-9" d="M1153.17,423.3h-66.91v70.77h66.91c2.13,0,3.86-1.73,3.86-3.86v-63.05c0-2.13-1.73-3.86-3.86-3.86Z"/>
    <path class="cls-9" d="M910.45,571.25l-50.04-50.04-47.31,47.31c-1.51,1.51-1.51,3.95,0,5.45l44.59,44.59c1.51,1.51,3.95,1.51,5.45,0l47.31-47.31Z"/>
    <path class="cls-9" d="M1133.57,568.52l-47.31-47.31-50.04,50.04,47.31,47.31c1.51,1.51,3.95,1.51,5.45,0l44.59-44.59c1.51-1.51,1.51-3.95,0-5.45Z"/>
    <path class="cls-9" d="M922.55,357.5l-47.31-47.31c-1.51-1.51-3.95-1.51-5.45,0l-44.59,44.59c-1.51,1.51-1.51,3.95,0,5.45l47.31,47.31,50.04-50.04Z"/>
    <path class="cls-9" d="M1121.48,354.77l-44.59-44.59c-1.51-1.51-3.95-1.51-5.45,0l-47.31,47.31,50.04,50.04,47.31-47.31c1.51-1.51,1.51-3.95,0-5.45Z"/>
  </g>
  <path class="cls-6" d="M1161.54,422.16h-64.39c-2.9-6.99-6.41-13.66-10.47-19.95l43.16-43.16c1.49-1.49,1.49-3.9,0-5.38l-44.65-44.65c-1.49-1.49-3.9-1.49-5.38,0l-46.93,46.93c-5.1-2.29-10.39-4.25-15.83-5.85v-64.15c0-2.1-1.7-3.81-3.81-3.81h-63.15c-2.1,0-3.81,1.7-3.81,3.81v64.15c-5.44,1.6-10.72,3.56-15.83,5.85l-46.93-46.93c-1.49-1.49-3.9-1.49-5.38,0l-44.65,44.65c-1.49,1.49-1.49,3.9,0,5.38l43.16,43.16c-4.06,6.28-7.57,12.96-10.47,19.95h-64.39c-2.1,0-3.81,1.7-3.81,3.81v63.15c0,2.1,1.7,3.81,3.81,3.81h57.02c1.83,9.87,4.82,19.34,8.83,28.25l-46.24,46.24c-1.49,1.49-1.49,3.9,0,5.38l44.65,44.65c1.49,1.49,3.9,1.49,5.38,0l42.47-42.47c9.91,6.41,20.79,11.45,32.37,14.86v61.88c0,2.1,1.7,3.81,3.81,3.81h63.15c2.1,0,3.81-1.7,3.81-3.81v-61.88c11.58-3.41,22.46-8.45,32.37-14.86l42.47,42.47c1.49,1.49,3.9,1.49,5.38,0l44.65-44.65c1.49-1.49,1.49-3.9,0-5.38l-46.24-46.24c4.01-8.91,7-18.38,8.83-28.25h57.02c2.1,0,3.81-1.7,3.81-3.81v-63.15c0-2.1-1.7-3.81-3.81-3.81ZM981.65,520.37c-27.83,0-50.39-22.56-50.39-50.39s22.56-50.39,50.39-50.39,50.39,22.56,50.39,50.39-22.56,50.39-50.39,50.39Z"/>
</svg>