<?xml version="1.0" encoding="UTF-8"?>
<svg id="Layer_1" data-name="Layer 1" xmlns="http://www.w3.org/2000/svg" viewBox="0 0 1920 1080">
  <defs>
    <style>
      .cls-1 {
        fill: #999;
      }

      .cls-1, .cls-2, .cls-3, .cls-4, .cls-5, .cls-6 {
        stroke-miterlimit: 10;
        stroke-width: 5px;
      }

      .cls-1, .cls-3, .cls-4, .cls-5, .cls-6 {
        stroke: #601113;
      }

      .cls-7 {
        fill: #f8f4f4;
      }

      .cls-2 {
        stroke: #cc2b2b;
      }

      .cls-2, .cls-4 {
        fill: none;
      }

      .cls-3 {
        fill: #d3d2d3;
      }

      .cls-8 {
        fill: #3a3a3a;
      }

      .cls-9, .cls-5 {
        fill: #faf1f1;
      }

      .cls-10 {
        fill: #ffe6f3;
        opacity: .43;
      }

      .cls-6 {
        fill: #cc2b2b;
      }
    </style>
  </defs>
  <path class="cls-9" d="M1419.56,390.08c-8.14-17.28-16.67-34.52-29.35-55.17-13.14-21.4-40.1-61.75-96.26-115.04-64.75-61.44-113.22-107.44-191.35-129.13-25.03-6.95-55.26-15.01-93.91-9.39-57.11,8.3-98.36,41.48-125.61,63.39-6.04,4.86-24.46,22.87-61.04,58.7-65.31,63.95-63.63,63.62-71.61,69.26-44.3,31.33-91.15,38.1-136.17,44.61-61.44,8.88-69.37-2.28-116.22,10.57-20.75,5.69-58.17,15.95-92.74,45.78-53.81,46.44-66.06,110.44-72.78,145.57-11.96,62.5-2.03,112.14,3.52,138.52,5.75,27.33,23.88,98.77,81,167.87,7.61,9.2,36.68,43.5,84.52,76.3,29.43,20.19,53.04,36.37,86.87,45.78,74.14,20.63,157.34-2.42,210.13-37.57,13.89-9.25,28.05-20.91,55.17-34.04,28.44-13.77,53.02-25.67,83.35-24.65,22.44.76,45.4,13.04,90.39,37.57,23.47,12.8,27.44,16.22,72.78,43.43,70.96,42.58,85.13,48.52,97.43,52.83,16.21,5.67,42.53,14.65,76.3,15.26,74.73,1.34,128.86-39.36,143.22-50.48,51.05-39.53,71.64-88.48,81-111.52,30.05-74,21.63-139.45,15.26-189-10.62-82.55-38.74-142.28-93.91-259.43Z"/>
  <path class="cls-2" d="M674.08,884.6c-7-2.02-70.12-21.15-81.52-68.16-14.66-60.42,64.52-132.26,124.29-128.29,61.22,4.07,70.39,85.59,149.68,117.6,63.42,25.61,132.35,3.65,180.41-18.71"/>
  <path class="cls-3" d="M989.61,138.88h345.75c18.57,0,33.65,15.08,33.65,33.65v743.28h-413.06V172.53c0-18.57,15.08-33.65,33.65-33.65Z"/>
  <path class="cls-7" d="M1354.53,225.2h2.27c4.52,0,8.18,3.67,8.18,8.18v677.88h-18.63V233.39c0-4.52,3.67-8.18,8.18-8.18Z"/>
  <line class="cls-4" x1="440.91" y1="917.25" x2="1454.39" y2="917.25"/>
  <path class="cls-3" d="M981.67,869.9h-158.3l-10.33-138.99h-59.69l-10.33,138.99h-158.3c-7.99,0-14.47,6.48-14.47,14.47v31.46h425.87v-31.46c0-7.99-6.48-14.47-14.47-14.47Z"/>
  <rect class="cls-3" x="421.95" y="312.47" width="722.5" height="456.16" rx="26.98" ry="26.98"/>
  <rect class="cls-6" x="470.06" y="355.08" width="621.87" height="370.93" rx="26.98" ry="26.98"/>
  <path class="cls-5" d="M793.58,582.44l68.24-143.78c3.62-7.62-1.94-16.41-10.38-16.41h-136.49c-8.44,0-14,8.79-10.38,16.41l68.24,143.78c4.15,8.75,16.6,8.75,20.76,0Z"/>
  <circle class="cls-5" cx="783.2" cy="640.7" r="29.92"/>
  <circle class="cls-6" cx="1323.58" cy="184.69" r="18.63"/>
  <rect class="cls-3" x="1001.5" y="241.79" width="322.07" height="70.68" rx="17.61" ry="17.61"/>
  <rect class="cls-1" x="1238.05" y="352.01" width="85.53" height="32.07" rx="8.22" ry="8.22"/>
  <rect class="cls-1" x="1238.05" y="417.5" width="85.53" height="32.07" rx="8.22" ry="8.22"/>
  <polygon class="cls-8" points="438.07 290.16 418 168.28 363.4 200.45 375.99 94.02 302.68 121.79 327.26 255.2 390.85 216.97 438.07 290.16"/>
  <rect class="cls-10" x="527.08" y="357.31" width="95.03" height="365.28"/>
  <rect class="cls-10" x="656.22" y="357.31" width="62.96" height="365.28"/>
  <rect class="cls-10" x="732.94" y="357.31" width="24" height="365.28"/>
</svg>