<?xml version="1.0" encoding="UTF-8"?>
<svg id="Layer_1" data-name="Layer 1" xmlns="http://www.w3.org/2000/svg" viewBox="0 0 1920 1080">
  <defs>
    <style>
      .cls-1 {
        fill: #3a3a3a;
      }

      .cls-1, .cls-2, .cls-3, .cls-4, .cls-5 {
        stroke-miterlimit: 10;
        stroke-width: 5px;
      }

      .cls-1, .cls-2, .cls-3, .cls-5 {
        stroke: #601113;
      }

      .cls-2 {
        fill: #d3d2d3;
      }

      .cls-6 {
        fill: #ffd4d7;
      }

      .cls-7 {
        fill: #faf1f1;
      }

      .cls-3 {
        fill: none;
      }

      .cls-8 {
        fill: #999;
      }

      .cls-4 {
        fill: #f2f2f2;
        stroke: #999;
      }

      .cls-5 {
        fill: #e6a6a8;
      }
    </style>
  </defs>
  <path class="cls-7" d="M1507.4,410.09c-8.14-17.28-16.67-34.52-29.35-55.17-13.14-21.4-40.1-61.75-96.26-115.04-64.75-61.44-113.22-107.44-191.35-129.13-25.03-6.95-55.26-15.01-93.91-9.39-57.11,8.3-98.36,41.48-125.61,63.39-6.04,4.86-24.46,22.87-61.04,58.7-65.31,63.95-63.63,63.62-71.61,69.26-44.3,31.33-91.15,38.1-136.17,44.61-61.44,8.88-69.37-2.28-116.22,10.57-20.75,5.69-58.17,15.95-92.74,45.78-53.81,46.44-66.06,110.44-72.78,145.57-11.96,62.5-2.03,112.14,3.52,138.52,5.75,27.33,23.88,98.77,81,167.87,7.61,9.2,36.68,43.5,84.52,76.3,29.43,20.19,53.04,36.37,86.87,45.78,74.14,20.63,157.34-2.42,210.13-37.57,13.89-9.25,28.05-20.91,55.17-34.04,28.44-13.77,53.02-25.67,83.35-24.65,22.44.76,45.4,13.04,90.39,37.57,23.47,12.8,27.44,16.22,72.78,43.43,70.96,42.58,85.13,48.52,97.43,52.83,16.21,5.67,42.53,14.65,76.3,15.26,74.73,1.34,128.86-39.36,143.22-50.48,51.05-39.53,71.64-88.48,81-111.52,30.05-74,21.63-139.45,15.26-189-10.62-82.55-38.74-142.28-93.91-259.43Z"/>
  <line class="cls-3" x1="528.75" y1="937.27" x2="1542.23" y2="937.27"/>
  <path class="cls-5" d="M689.74,475.03c10.95-26.37-24.32-74.86-45.81-71.46-24.11,3.82-27.6,72.45-38.48,71.46-11.86-1.08-8.81-82.81-21.99-84.29-6.76-.76-15.34,19.87-18.32,36.65-5.71,32.09,4.38,76.36,25.65,80.62,21.96,4.39,38.96-67.78,58.63-64.13,14.44,2.68,16.73,42.31,29.32,42.14,6.33-.08,10.66-10.18,10.99-10.99Z"/>
  <path class="cls-5" d="M836.16,770.68h111.82v132.7c0,18.69-15.17,33.87-33.87,33.87h-58.96c-10.48,0-19-8.51-19-19v-147.57h0Z"/>
  <path class="cls-5" d="M1246.72,770.68h111.82v132.7c0,18.69-15.17,33.87-33.87,33.87h-58.96c-10.48,0-19-8.51-19-19v-147.57h0Z"/>
  <circle class="cls-1" cx="1430" cy="493.83" r="27.16"/>
  <path class="cls-5" d="M1297.02,249.54h9.08v128.43h-62.3v-75.21c0-29.37,23.85-53.22,53.22-53.22Z"/>
  <path class="cls-5" d="M1280.42,323.79h-36.85v-74.25c-34.41,0-62.3,27.89-62.3,62.3v11.96h-290.94c-135.87,0-246.02,110.15-246.02,246.02v97.42c0,70.08,45.78,98.84,109.06,119.27v115.52c0,19.45,15.77,35.22,35.22,35.22h71.09c19.45,0,35.22-15.77,35.22-35.22v-107.92h290.04v107.92c0,19.45,15.77,35.22,35.22,35.22h71.09c19.45,0,35.22-15.77,35.22-35.22v-114.77c64.51-19.7,111.44-49.07,111.44-120.02v-185.96c0-86.98-70.51-157.49-157.49-157.49Z"/>
  <ellipse class="cls-5" cx="1412" cy="593.39" rx="116.44" ry="75.08"/>
  <ellipse class="cls-1" cx="1410.93" cy="595.6" rx="13.3" ry="38.39"/>
  <ellipse class="cls-1" cx="1484.67" cy="595.6" rx="13.3" ry="38.39"/>
  <circle class="cls-1" cx="1302.11" cy="497.46" r="27.16"/>
  <rect class="cls-1" x="875.26" y="337.36" width="259.73" height="27.07" rx="9.39" ry="9.39"/>
  <circle class="cls-2" cx="973.66" cy="223.06" r="130.04"/>
  <circle class="cls-4" cx="973.14" cy="221.85" r="105.14"/>
  <path class="cls-8" d="M975.68,208.25c3.2-.39,6.42-.71,9.68-.96s6.48-.3,9.66-.16c3.18.14,6.26.55,9.25,1.22,2.99.68,5.81,1.78,8.46,3.3,2.65,1.52,5.07,3.53,7.27,6.02,2.19,2.49,4.1,5.63,5.73,9.41,2.42,5.62,3.74,11.3,3.97,17.05.23,5.75-.67,11.32-2.69,16.71-2.03,5.39-5.18,10.43-9.48,15.11-4.29,4.68-9.75,8.77-16.38,12.25l3.67,11.46c.59,1.71.51,3.51-.25,5.41s-2.17,3.3-4.24,4.19l-10.11,4.35-6.09-19.04c-7.28,1.8-14.62,2.63-22.01,2.48-7.39-.15-14.06-1.29-20.02-3.42l3.21-15.99c.28-1.31.88-2.57,1.8-3.77.92-1.2,2.06-2.09,3.42-2.68,1.42-.61,3.03-.86,4.82-.76,1.8.1,3.79.3,5.98.58,2.19.29,4.57.52,7.14.71,2.57.19,5.34.07,8.3-.37l-11.1-34.85c-4.77.65-9.61,1.08-14.52,1.31-4.92.22-9.64-.3-14.18-1.57-4.54-1.27-8.76-3.55-12.67-6.85-3.91-3.29-7.22-8.11-9.94-14.43-2.01-4.67-3.02-9.63-3.04-14.88s1.03-10.43,3.14-15.54c2.11-5.11,5.34-9.95,9.68-14.52,4.34-4.56,9.87-8.5,16.57-11.81l-3.26-10.27c-.59-1.71-.51-3.51.25-5.41s2.17-3.3,4.24-4.19l10.11-4.35,5.79,18.11c6.9-1.56,13.21-2,18.93-1.31,5.73.69,10.84,1.85,15.33,3.5l-2.51,12.75c-.37,1.91-.93,3.43-1.67,4.55-.74,1.13-1.82,1.99-3.24,2.6-.89.38-2.03.61-3.43.69-1.4.08-2.95.11-4.63.1-1.69,0-3.49,0-5.41.01-1.92.02-3.91.16-5.97.41l10.44,32.82ZM948.25,181.89c-2.54,1.58-4.57,3.19-6.07,4.82-1.51,1.63-2.59,3.25-3.26,4.87s-.97,3.24-.91,4.86c.07,1.62.43,3.2,1.09,4.73,1.5,3.49,3.84,5.83,7.02,7.02,3.17,1.19,6.86,1.76,11.04,1.72l-8.9-28.02ZM993.67,264.73c9.07-5.79,11.65-13.24,7.73-22.35-1.47-3.43-3.72-5.67-6.73-6.72-3.01-1.05-6.58-1.5-10.71-1.33l9.71,30.4Z"/>
  <path class="cls-6" d="M704.1,728.42h0c-3.92-.6-7.2-3.14-8.4-6.57-41.2-117.85-24.63-226.93,49.73-327.22,2.16-2.92,6.06-4.37,9.97-3.77h0c7.2,1.09,11.15,8.36,7.57,13.95-62.11,97.15-77.94,201.33-47.5,312.54,1.75,6.4-4.17,12.16-11.37,11.07Z"/>
  <g>
    <rect class="cls-2" x="580.08" y="912.86" width="255.95" height="24.38"/>
    <line class="cls-2" x1="598.13" y1="912.86" x2="598.13" y2="937.25"/>
    <line class="cls-2" x1="618.94" y1="912.86" x2="618.94" y2="937.25"/>
    <line class="cls-2" x1="639.95" y1="912.86" x2="639.95" y2="937.25"/>
    <line class="cls-2" x1="702.2" y1="912.86" x2="702.2" y2="937.25"/>
    <line class="cls-2" x1="680.6" y1="912.86" x2="680.6" y2="937.25"/>
    <line class="cls-2" x1="722.59" y1="912.86" x2="722.59" y2="937.25"/>
    <line class="cls-2" x1="742.98" y1="912.86" x2="742.98" y2="937.25"/>
    <line class="cls-2" x1="762.57" y1="912.86" x2="762.57" y2="937.25"/>
    <line class="cls-2" x1="782.73" y1="912.86" x2="782.73" y2="937.25"/>
    <line class="cls-2" x1="802.94" y1="912.86" x2="802.94" y2="937.25"/>
    <line class="cls-2" x1="819.86" y1="912.86" x2="819.86" y2="937.25"/>
    <line class="cls-2" x1="658.52" y1="912.86" x2="658.52" y2="937.25"/>
  </g>
  <g>
    <rect class="cls-2" x="580.08" y="864.05" width="255.95" height="24.38"/>
    <line class="cls-2" x1="598.13" y1="864.05" x2="598.13" y2="888.44"/>
    <line class="cls-2" x1="618.94" y1="864.05" x2="618.94" y2="888.44"/>
    <line class="cls-2" x1="639.95" y1="864.05" x2="639.95" y2="888.44"/>
    <line class="cls-2" x1="702.2" y1="864.05" x2="702.2" y2="888.44"/>
    <line class="cls-2" x1="680.6" y1="864.05" x2="680.6" y2="888.44"/>
    <line class="cls-2" x1="722.59" y1="864.05" x2="722.59" y2="888.44"/>
    <line class="cls-2" x1="742.98" y1="864.05" x2="742.98" y2="888.44"/>
    <line class="cls-2" x1="762.57" y1="864.05" x2="762.57" y2="888.44"/>
    <line class="cls-2" x1="782.73" y1="864.05" x2="782.73" y2="888.44"/>
    <line class="cls-2" x1="802.94" y1="864.05" x2="802.94" y2="888.44"/>
    <line class="cls-2" x1="819.86" y1="864.05" x2="819.86" y2="888.44"/>
    <line class="cls-2" x1="658.52" y1="864.05" x2="658.52" y2="888.44"/>
  </g>
  <g>
    <rect class="cls-2" x="580.08" y="815.24" width="255.95" height="24.38"/>
    <line class="cls-2" x1="598.13" y1="815.24" x2="598.13" y2="839.62"/>
    <line class="cls-2" x1="618.94" y1="815.24" x2="618.94" y2="839.62"/>
    <line class="cls-2" x1="639.95" y1="815.24" x2="639.95" y2="839.62"/>
    <line class="cls-2" x1="702.2" y1="815.24" x2="702.2" y2="839.62"/>
    <line class="cls-2" x1="680.6" y1="815.24" x2="680.6" y2="839.62"/>
    <line class="cls-2" x1="722.59" y1="815.24" x2="722.59" y2="839.62"/>
    <line class="cls-2" x1="742.98" y1="815.24" x2="742.98" y2="839.62"/>
    <line class="cls-2" x1="762.57" y1="815.24" x2="762.57" y2="839.62"/>
    <line class="cls-2" x1="782.73" y1="815.24" x2="782.73" y2="839.62"/>
    <line class="cls-2" x1="802.94" y1="815.24" x2="802.94" y2="839.62"/>
    <line class="cls-2" x1="819.86" y1="815.24" x2="819.86" y2="839.62"/>
    <line class="cls-2" x1="658.52" y1="815.24" x2="658.52" y2="839.62"/>
  </g>
  <g>
    <rect class="cls-2" x="566.64" y="888.46" width="255.95" height="24.38"/>
    <line class="cls-2" x1="584.69" y1="888.46" x2="584.69" y2="912.84"/>
    <line class="cls-2" x1="605.51" y1="888.46" x2="605.51" y2="912.84"/>
    <line class="cls-2" x1="626.51" y1="888.46" x2="626.51" y2="912.84"/>
    <line class="cls-2" x1="688.76" y1="888.46" x2="688.76" y2="912.84"/>
    <line class="cls-2" x1="667.16" y1="888.46" x2="667.16" y2="912.84"/>
    <line class="cls-2" x1="709.15" y1="888.46" x2="709.15" y2="912.84"/>
    <line class="cls-2" x1="729.54" y1="888.46" x2="729.54" y2="912.84"/>
    <line class="cls-2" x1="749.14" y1="888.46" x2="749.14" y2="912.84"/>
    <line class="cls-2" x1="769.29" y1="888.46" x2="769.29" y2="912.84"/>
    <line class="cls-2" x1="789.51" y1="888.46" x2="789.51" y2="912.84"/>
    <line class="cls-2" x1="806.42" y1="888.46" x2="806.42" y2="912.84"/>
    <line class="cls-2" x1="645.08" y1="888.46" x2="645.08" y2="912.84"/>
  </g>
  <g>
    <rect class="cls-2" x="566.64" y="839.65" width="255.95" height="24.38"/>
    <line class="cls-2" x1="584.69" y1="839.65" x2="584.69" y2="864.03"/>
    <line class="cls-2" x1="605.51" y1="839.65" x2="605.51" y2="864.03"/>
    <line class="cls-2" x1="626.51" y1="839.65" x2="626.51" y2="864.03"/>
    <line class="cls-2" x1="688.76" y1="839.65" x2="688.76" y2="864.03"/>
    <line class="cls-2" x1="667.16" y1="839.65" x2="667.16" y2="864.03"/>
    <line class="cls-2" x1="709.15" y1="839.65" x2="709.15" y2="864.03"/>
    <line class="cls-2" x1="729.54" y1="839.65" x2="729.54" y2="864.03"/>
    <line class="cls-2" x1="749.14" y1="839.65" x2="749.14" y2="864.03"/>
    <line class="cls-2" x1="769.29" y1="839.65" x2="769.29" y2="864.03"/>
    <line class="cls-2" x1="789.51" y1="839.65" x2="789.51" y2="864.03"/>
    <line class="cls-2" x1="806.42" y1="839.65" x2="806.42" y2="864.03"/>
    <line class="cls-2" x1="645.08" y1="839.65" x2="645.08" y2="864.03"/>
  </g>
</svg>