<?xml version="1.0" encoding="UTF-8"?>
<svg id="Layer_1" data-name="Layer 1" xmlns="http://www.w3.org/2000/svg" viewBox="0 0 1920 1080">
  <defs>
    <style>
      .cls-1 {
        fill: #999;
      }

      .cls-1, .cls-2, .cls-3 {
        stroke: #601113;
        stroke-miterlimit: 10;
        stroke-width: 5px;
      }

      .cls-4 {
        fill: #601113;
      }

      .cls-5 {
        fill: #faf1f1;
      }

      .cls-2 {
        fill: #fdd7cf;
      }

      .cls-3 {
        fill: none;
      }
    </style>
  </defs>
  <path class="cls-5" d="M1459.19,428.87c-8.14-17.28-16.67-34.52-29.35-55.17-13.14-21.4-40.1-61.75-96.26-115.04-64.75-61.44-113.22-107.44-191.35-129.13-25.03-6.95-55.26-15.01-93.91-9.39-57.11,8.3-98.36,41.48-125.61,63.39-6.04,4.86-24.46,22.87-61.04,58.7-65.31,63.95-63.63,63.62-71.61,69.26-44.3,31.33-91.15,38.1-136.17,44.61-61.44,8.88-69.37-2.28-116.22,10.57-20.75,5.69-58.17,15.95-92.74,45.78-53.81,46.44-66.06,110.44-72.78,145.57-11.96,62.5-2.03,112.14,3.52,138.52,5.75,27.33,23.88,98.77,81,167.87,7.61,9.2,36.68,43.5,84.52,76.3,29.43,20.19,53.04,36.37,86.87,45.78,74.14,20.63,157.34-2.42,210.13-37.57,13.89-9.25,28.05-20.91,55.17-34.04,28.44-13.77,53.02-25.67,83.35-24.65,22.44.76,45.4,13.04,90.39,37.57,23.47,12.8,27.44,16.22,72.78,43.43,70.96,42.58,85.13,48.52,97.43,52.83,16.21,5.67,42.53,14.65,76.3,15.26,74.73,1.34,128.86-39.36,143.22-50.48,51.05-39.53,71.64-88.48,81-111.52,30.05-74,21.63-139.45,15.26-189-10.62-82.55-38.74-142.28-93.91-259.43Z"/>
  <line class="cls-3" x1="480.54" y1="956.05" x2="1494.02" y2="956.05"/>
  <path class="cls-2" d="M1028.11,896.79c-.25.46-2.03,3.82-4.67,8.4-1.98,3.44-2.54,4.26-3.37,5.18-.9,1.01-2.67,2.77-7.25,5.18-4.04,2.12-5.12,2.05-8.55,3.63-4.16,1.92-6.8,3.98-11.66,7.77-5.73,4.47-5.49,5.2-9.58,7.77-3.65,2.3-6.96,3.68-9.33,4.66-4.25,1.76-6.38,2.64-8.55,2.85-3.36.32-4.9-.47-10.36,0-2.86.25-4.02.61-4.66,1.55-1.23,1.83.26,4.69.52,5.18,1.4,2.69,3.92,3.86,5.7,4.66,2.38,1.07,5.03,1.7,9.07,1.81,5.74.16,6.28-.95,12.69-1.3,5.13-.28,5.01.42,12.69.26,4.72-.1,7.08-.15,9.84-.78,4.73-1.08,5.26-2.34,9.58-3.11,2.96-.52,5.08-.35,9.33,0,3.43.28,5.02.66,12.95,2.07,5.43.96,8.14,1.44,9.07,1.55,5.38.64,10.18,1.21,15.8-.26,3.63-.95,7.55-1.97,9.84-5.44,1.64-2.48,1.71-5.07,1.81-9.33.06-2.31-.09-4.06-1.04-10.62-1-6.94-1.33-8.43-2.07-13.73-.75-5.34-1.12-8.01-1.28-10.73-.52-8.97.95-9.95-.28-12.07-4.6-7.98-31.27-4.29-36.26,4.81Z"/>
  <path class="cls-2" d="M1267.2,290.47c1.42-9.4,1.24-16.99.78-22.28-.86-9.86-2.71-12.35-3.37-24.61-.16-2.91-.1-7.38,0-16.32.1-8.33.27-10.06,1.04-12.43,2.03-6.25,5.18-10.88,5.18-10.88,1.91-2.81,3.36-4.13,3.11-6.22-.26-2.15-2.23-4.18-4.4-4.66-2.51-.56-4.61,1.07-7.25,3.11-.94.73-3.82,3.06-6.99,8.03-2.49,3.91-1.87,4.29-4.4,8.29-2.56,4.04-3.42,4.02-5.96,8.03-.44.69-2.41,3.85-4.14,8.29-2.09,5.36-1.45,6.48-3.37,12.18-1.59,4.71-3.42,8.1-4.66,10.36-1.22,2.22-3.57,6.45-7.51,11.14-2.23,2.65-2.9,2.99-4.92,5.7-1.44,1.94-3.23,4.37-4.66,7.77-1.38,3.29-2.63,6.25-2.07,9.07,1.07,5.41,8.37,8.11,11.66,9.33,15.76,5.83,34.21-.68,41.97-3.89Z"/>
  <path class="cls-2" d="M880.44,244.62c2.76-2.19,7.82-3,10.71-3.45,4.84-.77,7.29-.24,12.61-.17,2.99.04,7.9-.49,17.62-1.55,16.5-1.8,15.58-2.13,19.17-2.07,6.93.11,12.12,1.36,19.17,3.11,10.33,2.56,17.85,5.5,19.69,6.22,20.02,7.77,41.67,12.96,50.26,15.02,18.78,4.5,31.73,7.61,49.74,7.77,11.38.1,16.69-1.04,35.23-.52,14.6.41,23.07,1.46,27.46,2.07,6.47.91,6.05,1.16,23.83,4.66,4.66.92,15.54,2.69,37.3,6.22,7.13,1.16,10.79,1.72,15.54,1.04,5.45-.79,6.91-2.29,17.62-5.18,5.08-1.37,7.85-2.11,11.92-2.59,3.72-.44,8.97-.72,15.02.52,1.89.39,9.06,1.86,9.33,4.66.13,1.42-1.58,2.48-1.04,3.89.47,1.21,1.9.86,2.59,2.07,1.11,1.95-1.66,4.53-.52,6.22.64.95,1.7.39,2.33,1.3,1.24,1.76-2.29,4.57-1.29,7.51.59,1.75,2.13,1.62,2.85,3.89.52,1.64.15,3.11,0,3.63-.76,2.53-3.06,3.92-4.4,4.66-11.22,6.2-26.42,9.07-26.42,9.07-9.51,1.79-14.26,2.69-15.54,2.59-10-.77-12.06-6.28-24.87-12.69-14.08-7.05-27.32-8.26-33.94-8.81-4.79-.4-4.18.01-20.21.26-24.41.37-23.29-.62-35.49,0-19.66.99-21.42,3.5-35.23,2.59-9.71-.64-11.09-2.03-23.31-3.89-10.31-1.57-10.97-.83-42.74-2.07-38.47-1.51-42.64-2.8-46.11-4.66-1.66-.89-8.05-4.56-10.1-2.59-.81.77-.65,2.13-.52,3.37.44,4.22.21,8.49.78,12.69,1,7.44-12.72,20.94-26.16,22.54-24.99,2.97-45.74-35.61-52.59-56.21-1.2-3.62-8.23-24.76-.26-31.09Z"/>
  <path class="cls-2" d="M818.27,272.08c-4.31-.02-5.36,3.88-14.51,6.74-7.34,2.29-12.5,1.61-19.17,1.55-11.88-.1-13.47,1.92-31.09,4.14-8,1.01-22.07,2.73-38.86,2.07-7.88-.31-24.01-1.44-43.52-6.74-20.41-5.54-20.6-9.15-38.34-12.95-13.33-2.86-11.37-.42-36.78-3.63-21.93-2.76-32.89-4.15-46.11-7.77-5.56-1.52-11.38-3.37-20.21-4.14-7.58-.66-11.78-.04-21.76.52-15.58.88-23.37,1.31-30.05.52-15.13-1.8-25.41-3.03-34.71-8.81-1.85-1.15-6.21-4.06-8.29-2.59-1.47,1.04-1.58,4.11-.52,6.22,1.2,2.39,3.76,3.3,4.66,3.63,6.02,2.2,11.24,6.2,17.1,8.81,10.9,4.85,9.36,5.46,18.65,9.33,7.24,3.01,10.86,4.52,16.06,5.18,8.27,1.05,15.78-.44,18.65-1.04,5.33-1.1,7-2.17,12.43-2.59,2.23-.17,6.18-.45,10.88.52,5.53,1.14,9.33,3.44,11.4,4.66,7.38,4.37,15.24,7.87,22.8,11.92,4.83,2.58,13.58,6.04,31.09,12.95,14.96,5.91,22.44,8.86,27.46,10.36,10.68,3.19,20.47,6.12,33.68,6.74,8.61.4,10.85-.54,20.21.52,6.09.69,9.5,1.58,20.72,4.14,15.04,3.44,22.56,5.15,25.9,5.7,7.12,1.16,18.36,2.98,32.64,2.07,9.81-.63,13.16-2.04,24.87-2.07,8.23-.02,12.34-.03,16.58,1.04,13.91,3.51,17.15,12.27,25.9,11.4,6.81-.68,11.33-6.63,12.22-7.8,13.94-18.33-5.85-60.53-19.99-60.59Z"/>
  <path class="cls-2" d="M972.67,357.05c1.43,1.8,1.21,3.73,5.18,11.23,1.08,2.04,2.37,4.3,5.7,9.5,5.27,8.23,7.9,12.35,9.33,13.99,6.95,7.98,15.66,11.25,20.21,12.95,12.44,4.66,16.1,1.25,20.21,5.18,3.75,3.59,4,9.61-3.11,39.38-7.92,33.19-11.53,39.51-18.13,43-6.5,3.44-14.07,3.15-15.03,3.11-2.7-.13-7.25-.72-17.62-6.22-7.61-4.04-11.14-6.9-20.72-13.47-8.99-6.17-6.9-4.35-19.69-12.95-14.61-9.82-21.23-14.81-24.87-17.62-7.03-5.41-10.54-8.12-12.95-10.88-2.48-2.83-11.87-13.57-11.92-25.9-.05-13.42,10.99-22.81,20.72-31.09,23.64-20.09,55.93-28.71,62.69-20.21Z"/>
  <path class="cls-2" d="M769.57,167.6c-5.15,5.39-7.25,11.4-7.25,11.4-.9,2.58-1.23,4.73-1.73,7.94-.94,6.09-.53,9.2-.35,10.36.35,2.21.9,3.76,1.04,4.14.95,2.61,1.85,3.47,2.42,4.84,1.07,2.59.15,5.12-1.38,9.33-.85,2.32-2.77,7.6-6.22,12.43-.5.69-1.74,2.38-2.07,4.84-.19,1.4-.38,2.8.35,3.8,2,2.76,8.66-.64,10.71,2.07.45.59.41,1.89.35,4.49-.11,4.21-.91,5.65,0,6.56,1.25,1.26,4.02-.2,4.49.69.54,1.02-3.12,2.93-2.76,5.18.27,1.72,2.56,1.59,3.8,4.14.21.44.27.7.69,4.49.48,4.34.47,4.5.69,4.84.73,1.12,2.31,1.57,10.36,1.04,7.91-.52,11.86-.79,13.47-1.38.87-.32,2.64-1.05,4.84-.69,1.73.28,2.98,1.11,3.8,1.73,4.19,3.14,6.91,8.02,7.25,8.63,6.43,11.51,8.24,10.3,10.02,16.23,1.7,5.68-.13,6.21,1.04,12.78.89,5.05,2.32,6.68,10.02,20.38,7.35,13.08,8.14,15.31,12.09,19.34,4.08,4.16,8.2,8.36,13.82,7.94,4.9-.37,9.13-4.13,11.05-7.94,1.77-3.53.56-5.1,1.73-9.67,1.71-6.71,5.61-8.33,8.63-13.47,1.93-3.29,2.01-9.83,2.07-22.8.08-14.8.11-22.2-1.38-29.36-.76-3.65-1.59-6.36-3.45-15.2,0,0-.52-2.47-2.42-11.74h0s-3.9-.24-6.91-1.38c-.48-.18-3.46-1.32-5.18-3.45-3.02-3.76-1.42-9.74-1.04-11.4,3.02-12.94-4.2-33.67-7.94-41.45-10.49-21.75-35.64-28.67-36.96-29.01-20.66-5.36-40.66,1.99-47.66,9.33Z"/>
  <path class="cls-1" d="M870.08,190.74c3.15,2.53,6.77,3.3,6.77,3.3,1.92.41,4.49.96,6.19-.19,3.11-2.12,1.75-8.92.52-15.02-1.85-9.2-2.91-14.48-7.77-18.65-4.29-3.69-9.53-4.79-11.4-5.18-3.23-.68-4.84-1.02-5.89-.38-6.06,3.73,3.4,29.57,11.58,36.13Z"/>
  <path class="cls-4" d="M762.66,176.92c.16.16.42.25,6.56-1.73,4.24-1.36,7-2.33,10.71-3.11,5.5-1.15,6.5-.49,6.91,0,.51.62.37,1.3,0,4.49-.62,5.37-.25,3.72-.69,6.91-.64,4.58-1.06,5.52-.35,6.91.55,1.07,1.21,1.29,3.11,2.76,1.83,1.42,1.61,1.52,5.18,4.84,6.19,5.75,5.8,4.48,8.29,7.25,2.01,2.23,2.77,3.63,4.49,3.8,1.11.11,1.86-.36,4.14-1.73,3.85-2.29,5.77-3.44,7.25-4.14,2.4-1.15,4.59-2.19,7.25-2.07,5.24.23,8.77,4.8,9.33,5.53,1.17,1.51,2.16,5.15,4.14,12.43.91,3.34,2.49,6.56,2.76,10.02.08,1.05.15,2.85,1.38,4.49.46.61,1.34,1.55,3.45,2.42,3.35,1.38,6.59,1.26,8.63,1.04,3.28-.35,9.42-1.01,14.51-5.53,4.91-4.36,6.16-9.94,7.25-15.2,1.71-8.21,1.37-16.7-1.04-26.25-3.05-12.12-7.35-29.16-23.14-40.07-13.17-9.1-27.25-9.03-36.27-8.98-7.68.04-19.9.1-32.12,7.6-15.4,9.44-23.76,26.35-21.76,28.32Z"/>
  <path class="cls-4" d="M868.36,157.93c6.1,4.24,8.73,8.6,10.02,11.74,2.27,5.54,1.76,10.78,6.22,14.16,1.7,1.29,3.5,1.84,4.49,2.07.7.16,5.22,1.22,8.29-1.04,3.01-2.21,3.06-6.45,3.11-10.71.09-7.73-2.83-13.44-3.8-15.2-.78-1.43-3.64-6.34-9.33-10.36-3.06-2.16-5.48-3.87-8.98-3.8-.68.01-6.15.22-8.98,4.84-2.26,3.69-1.24,7.58-1.04,8.29Z"/>
  <path class="cls-1" d="M872.85,242.89c1.13-1.23,2.69-.52,6.91-.69,7-.29,10.07-2.57,11.4-1.04.93,1.07.02,2.87-.69,5.53-1.13,4.23-.87,7.54-.35,14.16.17,2.13,1.03,11.18,6.22,21.07.75,1.44,3.61,5.45,9.33,13.47,6.24,8.76,7.5,10.2,8.64,11.4,3.7,3.92,7.38,7.81,13.47,10.02,3.29,1.19,8.06,2.92,12.78,1.04,4.08-1.62,6.96-5.48,10.36-10.02.97-1.3,2.49-2.94,5.53-6.22,1.83-1.98,2.84-2.99,3.8-2.76,1.46.34,1.9,3.34,2.07,4.49,0,0,1.34,8.92,4.49,25.21,1.39,7.17,3.43,12.7,4.49,15.54,2.89,7.74,4.34,11.61,5.87,13.47.75.91,2.17,2.48,2.42,4.84.29,2.67-1.09,4.87-1.73,5.87-1.72,2.68-3.44,3.13-7.25,6.22-2.54,2.06-3.7,3.41-5.18,4.84-8.19,7.89-28.93,20.59-48.7,33.85,0,0-10.33,6.93-23.49,10.02-1.97.46-4.49.88-7.25,0-3.27-1.04-5.62-3.48-7.25-5.18-2.15-2.23-2-2.81-3.45-4.14-2.98-2.72-6.51-2.95-9.67-3.45-5.03-.8-9.22-2.61-17.62-6.22-7.21-3.1-10.81-4.65-13.13-7.6-2.35-3-2.98-7.45-4.14-16.23-1.48-11.14-.65-12.7-2.42-20.38-1.5-6.51-3.32-10.66-3.8-11.74-2.1-4.7-3.45-6.01-5.53-10.02-3.05-5.91-4.15-10.88-5.18-15.54-.58-2.61-1.08-9.45-2.07-23.14,0,0-.16-2.21-.35-12.43-.11-6-.07-8.46.69-8.63.73-.17,1.4,1.93,3.45,5.18,4.47,7.1,7.97,7.78,8.98,12.78.4,1.98-.17,1.78,0,5.18.18,3.55.97,7.18,3.11,12.43,2.9,7.12,6.19,12,12.78,21.76,4.13,6.12.69.47,8.63,10.71,1.24,1.59,2.63,3.42,5.18,4.49.73.31,4.01,1.58,6.91.35,3.16-1.35,4.1-4.93,5.53-8.98,3.84-10.94,5.42-9,7.94-17.27,1.46-4.79,1.78-10.33,2.42-21.41.57-9.84.85-14.75.35-20.03-.75-7.86-1.93-8.47-3.11-19.69-.99-9.46-.08-8.28-1.04-13.12-.77-3.9-1.72-6.44-.35-7.94Z"/>
  <path class="cls-1" d="M1024.47,902.08c.73,1.61,3.73,1.61,9.33,1.55,10.25-.1,15.41-.16,17.62-.52,7.77-1.26,11.84-1.91,13.99-5.18,1.96-2.98,1.04-6.17.52-10.88-.18-1.67.4-8.54,1.55-22.28.37-4.38,2.01-23.3,5.7-49.22,2.72-19.1,4.04-19.35,4.66-29.53.82-13.43-.28-24.76-1.04-32.64-1.69-17.56-3.63-31.6-3.63-31.6-.4-2.88-.94-6.69-1.04-11.92-.17-9,1.11-15.71,1.55-18.13,2.41-13.17,3.09-26.6,4.66-39.89,2.06-17.4,2.85-30.1,4.14-50.77.96-15.35,1.16-22.89,2.59-43,.65-9.15,1.61-14.31,1.55-20.21-.03-2.94.46-5.87.52-8.81.06-3.26-.06-4.96,1.04-5.7,1.15-.78,2.64.19,5.7,1.04,3.37.93,5.25.77,7.77,1.04,10.61,1.13,29.53,6.74,29.53,6.74,23.35,6.92,50.07,9.01,54.4,9.33,13.1.96,6.62-.66,42.48-.52,0,0,22.57.09,49.74-2.07.88-.07,8.56-.72,18.13-3.63,9.54-2.89,13.19-5.66,15.02-7.25,1.15-1,4.58-4.13,7.25-9.33,1.95-3.79,3.11-7.92,3.63-14.51.86-10.88-.73-19.54-1.55-23.83-3.14-16.31-6.68-28.84-7.77-32.64-2.56-8.95-5.68-18.92-11.92-38.86-.52-1.67-4.57-14.6-9.84-31.09-2.95-9.22-4.45-13.9-5.7-17.62-2.75-8.17-3.53-10.02-5.18-15.54-1.66-5.55-2.97-9.95-4.14-16.06-1.74-9.03-2.6-13.54-2.59-15.02.02-2.48.28-4.44-1.04-5.7-1.73-1.66-4.68-.66-9.84.52-13.22,3.01-14.16,1.11-20.72,4.14-3.27,1.52-8.81,4.66-8.81,4.66h0s1.6,5.96,2.07,7.77c1.73,6.65,2.54,12.17,3.11,16.06.63,4.32.85,6.96,1.55,15.02,2.01,23.16,1.92,21.54,2.07,23.83.36,5.45.18,4.33,1.04,24.87,0,0,.26,6.16,1.04,21.76.51,10.14.72,13.8,1.55,19.17,1.11,7.15,1.66,10.73,3.63,15.02.6,1.31,2.16,4.53,4.15,9.33,2.43,5.87,2.5,6.89,2.07,7.25-1.05.87-4.5-2.69-9.84-5.7-4.86-2.73-7.82-3.06-16.06-5.18-12.8-3.29-11.36-3.96-22.28-6.74-8.12-2.06-13.92-2.96-24.87-4.66-14.71-2.28-14.55-1.58-25.9-3.63,0,0-15.49-2.79-25.39-6.74-.68-.27-.12-.06-8.29-3.63-3.06-1.34-3.99-1.73-5.18-2.59-3.2-2.29-4.66-5.25-5.18-6.22-4.17-7.73-17.02-16.17-24.87-20.21-4.45-2.29-10.82-5.49-19.69-6.74-8.84-1.24-8.82,1.06-22.28,0-4.45-.35-8.85-.95-13.99.52-1.45.41-6.74,2.07-6.74,2.07h0c1.46,6.74,1.55,7.25,1.55,7.25,1.06,5.85-2.24,11.46-4.66,16.06-8.12,15.41-4.48,15.71-13.47,32.12-.27.49-3.46,5.5-9.84,15.54-2.54,3.99-3.86,6.02-6.22,7.77-4.14,3.07-8.22,3.34-8.29,5.18-.05,1.44,2.41,1.72,4.66,4.66.46.6,1.69,2.33,2.59,6.74,1.3,6.37.55,11.67.52,11.92-1.76,12.48-.28,25.21-.52,37.82-.32,17.29,2.11,30.26,5.18,46.63,2.69,14.35,3.1,10.86,10.36,43,.99,4.36,4.33,19.27,6.74,35.23.78,5.16,1.5,9.95,2.07,16.58.8,9.24.2,9.18,1.04,13.99,1.19,6.83,2.57,7.93,5.18,18.65.76,3.13,1.51,6.18,2.07,9.84,1.39,9.01.82,15.98.52,20.21-.38,5.31-.6,14.25-1.04,32.12-.34,14.04.13,24.61.52,33.16,1.28,28.29,3.42,26.66,2.59,39.38-.33,5.11-1.67,20.51,0,27.46.22.92.75,2.73.52,5.18-.41,4.41-2.82,6.11-2.07,7.77Z"/>
</svg>