<?xml version="1.0" encoding="UTF-8"?>
<svg id="Layer_1" data-name="Layer 1" xmlns="http://www.w3.org/2000/svg" viewBox="0 0 1920 1080">
  <defs>
    <style>
      .cls-1, .cls-2, .cls-3, .cls-4, .cls-5, .cls-6 {
        stroke: #601113;
        stroke-miterlimit: 10;
        stroke-width: 5px;
      }

      .cls-1, .cls-7 {
        fill: #999;
      }

      .cls-8 {
        fill: #fff;
      }

      .cls-9, .cls-5 {
        fill: #1e1e1e;
      }

      .cls-2 {
        fill: #e2e2e2;
      }

      .cls-10, .cls-6 {
        fill: #cc2b2b;
      }

      .cls-11 {
        fill: #601113;
      }

      .cls-3, .cls-12 {
        fill: #d3d2d3;
      }

      .cls-13 {
        fill: #faf1f1;
      }

      .cls-4 {
        fill: none;
      }
    </style>
  </defs>
  <path class="cls-13" d="M1445.05,390.08c-8.14-17.28-16.67-34.52-29.35-55.17-13.14-21.4-40.1-61.75-96.26-115.04-64.75-61.44-113.22-107.44-191.35-129.13-25.03-6.95-55.26-15.01-93.91-9.39-57.11,8.3-98.36,41.48-125.61,63.39-6.04,4.86-24.46,22.87-61.04,58.7-65.31,63.95-63.63,63.62-71.61,69.26-44.3,31.33-91.15,38.1-136.17,44.61-61.44,8.88-69.37-2.28-116.22,10.57-20.75,5.69-58.17,15.95-92.74,45.78-53.81,46.44-66.06,110.44-72.78,145.57-11.96,62.5-2.03,112.14,3.52,138.52,5.75,27.33,23.88,98.77,81,167.87,7.61,9.2,36.68,43.5,84.52,76.3,29.43,20.19,53.04,36.37,86.87,45.78,74.14,20.63,157.34-2.42,210.13-37.57,13.89-9.25,28.05-20.91,55.17-34.04,28.44-13.77,53.02-25.67,83.35-24.65,22.44.76,45.4,13.04,90.39,37.57,23.47,12.8,27.44,16.22,72.78,43.43,70.96,42.58,85.13,48.52,97.43,52.83,16.21,5.67,42.53,14.65,76.3,15.26,74.73,1.34,128.86-39.36,143.22-50.48,51.05-39.53,71.64-88.48,81-111.52,30.05-74,21.63-139.45,15.26-189-10.62-82.55-38.74-142.28-93.91-259.43Z"/>
  <line class="cls-4" x1="466.4" y1="917.25" x2="1479.88" y2="917.25"/>
  <path class="cls-5" d="M753.17,611.61c15.44-13.57,16.65-44.04,4.59-53.96-12.5-10.29-36.58,3.69-40.26-3.02-4.3-7.83,27.46-28.98,24.04-34.9-2.79-4.84-29.5-.33-46.89,17.59-1.19,1.22-25.91,27.43-15.73,53.22,10.72,27.15,54.15,38.73,74.24,21.08Z"/>
  <path class="cls-5" d="M746.64,597.93l-84.09,28.23c-15.72,5.28-28.18,17.42-33.87,33l-18.3,50.13c-6,16.43-19.52,28.99-36.35,33.76l-57.4,16.27c-16.96,4.81-30.55,17.52-36.48,34.12l-13.11,36.71c-8.28,23.17,0,49.02,20.18,63.09l30.88,21.52h265.74l101.12-242.9-88.37-65.93c-14.34-10.7-33.01-13.68-49.97-7.99Z"/>
  <circle class="cls-3" cx="1358.98" cy="560.59" r="153.95"/>
  <path class="cls-1" d="M763.81,305.15h468.57c5.12,0,9.28,4.16,9.28,9.28v569.61c0,16.95-13.76,30.71-30.71,30.71h-425.7c-16.95,0-30.71-13.76-30.71-30.71V314.44c0-5.12,4.16-9.28,9.28-9.28Z"/>
  <path class="cls-1" d="M1277.16,240.57l-152.87-13.41,4.09-46.63c1.72-19.66-12.81-36.99-32.47-38.72l-152.57-13.38c-19.66-1.72-36.99,12.81-38.72,32.47l-4.09,46.63-152.87-13.41c-10.86-.95-20.44,7.08-21.4,17.94l-2.11,24.01c-.95,10.86,7.08,20.44,17.95,21.4l529.5,46.44c10.86.95,20.44-7.08,21.4-17.94l2.11-24.01c.95-10.86-7.08-20.44-17.95-21.4ZM930.42,170.23c.69-7.9,7.66-13.74,15.55-13.05l142.33,12.48c7.9.69,13.74,7.66,13.05,15.55l-3.48,39.62-170.93-14.99,3.48-39.62Z"/>
  <rect class="cls-12" x="987.94" y="335.27" width="20.3" height="549.38" rx="8.8" ry="8.8"/>
  <rect class="cls-12" x="1081.81" y="335.27" width="20.3" height="549.38" rx="8.8" ry="8.8"/>
  <rect class="cls-12" x="884.98" y="335.27" width="20.3" height="549.38" rx="8.8" ry="8.8"/>
  <rect class="cls-12" x="1174.05" y="335.27" width="20.3" height="549.38" rx="8.8" ry="8.8"/>
  <rect class="cls-12" x="796.92" y="335.27" width="20.3" height="549.38" rx="8.8" ry="8.8"/>
  <g>
    <path class="cls-11" d="M704.19,261.73c-2.26-.45-4.51-.92-6.75-1.4l-4.22,4.57c2.21.51,4.41,1.02,6.65,1.51l4.32-4.68Z"/>
    <path class="cls-11" d="M690.5,258.8c-2.03-.47-4.06-.95-6.07-1.44l-4.07,4.42c1.99.52,3.98,1.03,5.99,1.52l4.15-4.5Z"/>
    <path class="cls-11" d="M664.35,251.94c-1.18-.35-2.35-.71-3.52-1.06l-3.86,4.18c1.16.37,2.35.7,3.52,1.07l3.86-4.18Z"/>
    <path class="cls-11" d="M718.49,264.36c-2.41-.41-4.81-.83-7.19-1.27l-4.39,4.75c2.35.47,4.69.96,7.07,1.4l4.51-4.89Z"/>
    <path class="cls-11" d="M677.66,255.64c-2.25-.59-4.48-1.19-6.69-1.81l-3.93,4.26c2.19.64,4.41,1.26,6.63,1.87l4-4.33Z"/>
    <path class="cls-11" d="M732.55,266.54c-2.28-.32-4.54-.66-6.79-1.01l-4.58,4.96c2.22.38,4.41.8,6.65,1.15l4.71-5.11Z"/>
    <path class="cls-11" d="M566.57,206.72c-1.59-1.07-3.16-2.15-4.73-3.24l-3.4,3.69c1.56,1.09,3.16,2.15,4.75,3.22l3.38-3.66Z"/>
    <path class="cls-11" d="M739.99,267.54l-4.78,5.18c2.66.39,5.29.8,7.98,1.15l4.95-5.36c-2.73-.31-5.45-.63-8.15-.97Z"/>
    <path class="cls-11" d="M608.48,230.6c-1.4-.67-2.8-1.35-4.19-2.04l-3.46,3.75c1.38.69,2.74,1.42,4.13,2.1l3.51-3.81Z"/>
    <path class="cls-11" d="M587.87,219.87c-1.69-.96-3.37-1.92-5.04-2.9l-3.41,3.69c1.66.99,3.34,1.95,5.03,2.91l3.42-3.7Z"/>
    <path class="cls-11" d="M598.59,225.68c-1.74-.9-3.47-1.82-5.19-2.74l-3.43,3.71c1.71.93,3.42,1.87,5.16,2.78l3.46-3.75Z"/>
    <path class="cls-11" d="M577.46,213.73c-1.91-1.18-3.81-2.38-5.69-3.59l-3.39,3.68c1.88,1.21,3.79,2.4,5.7,3.58l3.39-3.67Z"/>
    <path class="cls-11" d="M630.23,240.13c-1.41-.56-2.82-1.13-4.22-1.7l-3.56,3.85c1.39.59,2.77,1.18,4.17,1.75l3.6-3.9Z"/>
    <path class="cls-11" d="M620.01,235.88c-1.91-.83-3.81-1.68-5.69-2.54l-3.5,3.79c1.88.87,3.73,1.76,5.64,2.6l3.55-3.85Z"/>
    <path class="cls-11" d="M642.62,244.83c-2.09-.75-4.17-1.52-6.24-2.3l-3.64,3.95c2.05.8,4.12,1.57,6.2,2.34l3.68-3.99Z"/>
    <path class="cls-11" d="M654.36,248.84c-1.82-.59-3.62-1.19-5.41-1.8l-3.74,4.06c1.78.63,3.59,1.22,5.39,1.83l3.77-4.09Z"/>
  </g>
  <g>
    <path class="cls-11" d="M693,298.55c-2.6.78-5.19,1.55-7.78,2.29l-1.53,6.75c2.58-.7,5.16-1.39,7.74-2.13l1.57-6.91Z"/>
    <path class="cls-11" d="M677.15,303.09c-2.37.64-4.74,1.27-7.11,1.88l-1.48,6.52c2.36-.57,4.72-1.15,7.08-1.76l1.51-6.64Z"/>
    <path class="cls-11" d="M646.12,310.53c-1.42.3-2.84.58-4.26.86l-1.4,6.18c1.42-.27,2.84-.58,4.26-.86l1.4-6.18Z"/>
    <path class="cls-11" d="M709.27,293.38c-2.72.91-5.44,1.79-8.15,2.65l-1.59,7.02c2.7-.81,5.4-1.6,8.11-2.45l1.64-7.22Z"/>
    <path class="cls-11" d="M662.04,306.96c-2.66.64-5.32,1.26-7.97,1.86l-1.43,6.3c2.64-.56,5.3-1.15,7.95-1.76l1.45-6.4Z"/>
    <path class="cls-11" d="M725.04,287.91c-2.53.92-5.06,1.81-7.58,2.69l-1.66,7.33c2.51-.83,5.01-1.61,7.53-2.47l1.71-7.55Z"/>
    <path class="cls-11" d="M518.11,319.22c-2.28-.19-4.56-.39-6.83-.61l-1.24,5.45c2.27.22,4.56.39,6.84.58l1.23-5.41Z"/>
    <path class="cls-11" d="M733.29,284.85l-1.74,7.65c2.96-1.06,5.92-2.08,8.89-3.19l1.8-7.92c-2.99,1.18-5.98,2.33-8.95,3.46Z"/>
    <path class="cls-11" d="M575.73,319.9c-1.85.1-3.7.19-5.54.27l-1.26,5.54c1.84-.07,3.68-.09,5.53-.18l1.28-5.62Z"/>
    <path class="cls-11" d="M548.02,320.55c-2.32-.02-4.64-.05-6.95-.11l-1.24,5.45c2.31.06,4.62.1,6.94.13l1.24-5.47Z"/>
    <path class="cls-11" d="M562.58,320.43c-2.34.06-4.67.1-7,.12l-1.25,5.49c2.33-.01,4.65-.03,6.99-.08l1.26-5.53Z"/>
    <path class="cls-11" d="M533.58,320.19c-2.69-.12-5.36-.26-8.04-.43l-1.23,5.43c2.67.17,5.35.3,8.04.42l1.23-5.42Z"/>
    <path class="cls-11" d="M603.89,317.44c-1.79.21-3.58.43-5.37.62l-1.29,5.69c1.78-.18,3.57-.35,5.35-.55l1.31-5.76Z"/>
    <path class="cls-11" d="M590.79,318.81c-2.47.22-4.94.42-7.4.6l-1.27,5.6c2.46-.16,4.91-.3,7.38-.5l1.29-5.69Z"/>
    <path class="cls-11" d="M619.47,315.33c-2.61.4-5.21.77-7.81,1.12l-1.32,5.83c2.59-.33,5.19-.69,7.79-1.06l1.34-5.89Z"/>
    <path class="cls-11" d="M633.96,312.9c-2.22.41-4.44.8-6.66,1.17l-1.36,5.99c2.21-.35,4.43-.74,6.65-1.13l1.37-6.03Z"/>
  </g>
  <g>
    <path class="cls-11" d="M700.3,336.72c-2.37,2.02-4.75,4.01-7.14,5.98l1.56,7.58c2.39-1.92,4.79-3.83,7.18-5.8l-1.6-7.77Z"/>
    <path class="cls-11" d="M685.71,348.78c-2.2,1.77-4.41,3.52-6.62,5.25l1.51,7.32c2.22-1.69,4.44-3.39,6.65-5.11l-1.53-7.46Z"/>
    <path class="cls-11" d="M656.45,370.93c-1.36.97-2.73,1.93-4.09,2.88l1.43,6.94c1.37-.94,2.73-1.93,4.09-2.88l-1.43-6.94Z"/>
    <path class="cls-11" d="M715.05,323.82c-2.45,2.2-4.9,4.38-7.36,6.53l1.62,7.89c2.47-2.09,4.95-4.16,7.41-6.3l-1.67-8.11Z"/>
    <path class="cls-11" d="M671.57,359.81c-2.51,1.9-5.02,3.78-7.54,5.63l1.45,7.08c2.53-1.81,5.05-3.66,7.57-5.52l-1.48-7.19Z"/>
    <path class="cls-11" d="M729.12,310.85c-2.24,2.12-4.49,4.22-6.74,6.3l1.69,8.23c2.26-2.02,4.54-3.99,6.79-6.05l-1.74-8.48Z"/>
    <path class="cls-11" d="M525.41,439.9c-2.5.88-5,1.75-7.5,2.59l1.26,6.12c2.5-.84,5-1.74,7.49-2.63l-1.25-6.08Z"/>
    <path class="cls-11" d="M736.39,303.87l1.77,8.59c2.63-2.47,5.27-4.89,7.89-7.42l-1.83-8.9c-2.6,2.6-5.21,5.18-7.82,7.72Z"/>
    <path class="cls-11" d="M586.56,413.52c-1.91.97-3.82,1.93-5.73,2.88l1.28,6.22c1.91-.94,3.84-1.82,5.75-2.78l-1.3-6.32Z"/>
    <path class="cls-11" d="M557.61,427.2c-2.46,1.07-4.92,2.12-7.39,3.15l1.26,6.12c2.47-1.02,4.93-2.07,7.39-3.13l-1.26-6.14Z"/>
    <path class="cls-11" d="M572.92,420.24c-2.44,1.16-4.88,2.3-7.33,3.41l1.27,6.16c2.45-1.11,4.9-2.21,7.34-3.36l-1.28-6.21Z"/>
    <path class="cls-11" d="M542.19,433.61c-2.89,1.14-5.79,2.25-8.68,3.34l1.25,6.1c2.9-1.08,5.79-2.21,8.68-3.35l-1.25-6.09Z"/>
    <path class="cls-11" d="M615.12,397.8c-1.79,1.06-3.58,2.12-5.38,3.15l1.31,6.39c1.8-1.02,3.6-2.03,5.39-3.07l-1.33-6.47Z"/>
    <path class="cls-11" d="M601.94,405.34c-2.5,1.39-5.02,2.74-7.53,4.08l1.29,6.29c2.52-1.32,5.04-2.61,7.55-3.98l-1.31-6.39Z"/>
    <path class="cls-11" d="M630.58,388.33c-2.57,1.63-5.14,3.23-7.71,4.81l1.35,6.55c2.58-1.55,5.16-3.14,7.73-4.74l-1.36-6.62Z"/>
    <path class="cls-11" d="M644.74,379.05c-2.16,1.46-4.31,2.9-6.48,4.32l1.38,6.73c2.17-1.39,4.33-2.84,6.49-4.27l-1.39-6.78Z"/>
  </g>
  <circle class="cls-10" cx="468.65" cy="316.9" r="2.85"/>
  <circle class="cls-9" cx="471.5" cy="320.33" r="5.41"/>
  <ellipse class="cls-12" cx="482.83" cy="307.52" rx="10.01" ry="2.13" transform="translate(42.06 672.78) rotate(-72.14)"/>
  <circle class="cls-9" cx="482.83" cy="320.6" r="8.31"/>
  <ellipse class="cls-12" cx="486.5" cy="308.7" rx="10.01" ry="2.13" transform="translate(-24.09 575.67) rotate(-60)"/>
  <circle class="cls-10" cx="471.5" cy="316.9" r="2.85"/>
  <circle class="cls-10" cx="534.07" cy="183.1" r="2.85"/>
  <circle class="cls-9" cx="534.71" cy="187.51" r="5.41"/>
  <ellipse class="cls-12" cx="551.07" cy="182.53" rx="10.01" ry="2.13" transform="translate(13.77 402.3) rotate(-40.57)"/>
  <circle class="cls-9" cx="544.22" cy="193.67" r="8.31"/>
  <ellipse class="cls-12" cx="553.57" cy="185.45" rx="10.01" ry="2.13" transform="translate(-21.53 285.92) rotate(-28.43)"/>
  <circle class="cls-10" cx="536.5" cy="184.6" r="2.85"/>
  <circle class="cls-10" cx="481.18" cy="453.34" r="2.85"/>
  <circle class="cls-9" cx="485.26" cy="455.11" r="5.41"/>
  <ellipse class="cls-12" cx="489.61" cy="438.57" rx="2.13" ry="10.01" transform="translate(-61.96 81.03) rotate(-8.9)"/>
  <circle class="cls-9" cx="495.5" cy="450.25" r="8.31"/>
  <ellipse class="cls-12" cx="493.41" cy="437.98" rx="10.01" ry="2.13" transform="translate(28.24 905.84) rotate(-86.76)"/>
  <circle class="cls-10" cx="483.72" cy="452.05" r="2.85"/>
  <path class="cls-8" d="M1443.17,541.95c0-46.5-37.7-84.2-84.2-84.2s-84.2,37.7-84.2,84.2c0,28.08,13.76,52.93,34.88,68.22v39.43c0,7.64,6.19,13.83,13.83,13.83h70.96c7.64,0,13.83-6.19,13.83-13.83v-39.43c21.13-15.3,34.88-40.15,34.88-68.22Z"/>
  <circle class="cls-7" cx="1400.12" cy="541.05" r="23.15"/>
  <circle class="cls-7" cx="1317.18" cy="541.05" r="23.15"/>
  <path class="cls-7" d="M1355.76,550.22l-12.8,34.47c-.75,2.02.74,4.16,2.89,4.16h25.59c2.15,0,3.64-2.14,2.89-4.16l-12.8-34.47c-1-2.68-4.79-2.68-5.78,0Z"/>
  <path class="cls-7" d="M1324.92,609.61h1.37c2.48,0,4.5,2.02,4.5,4.5v36.4h-10.37v-36.4c0-2.48,2.02-4.5,4.5-4.5Z"/>
  <path class="cls-7" d="M1342.29,609.61h1.37c2.48,0,4.5,2.02,4.5,4.5v36.4h-10.37v-36.4c0-2.48,2.02-4.5,4.5-4.5Z"/>
  <path class="cls-7" d="M1358.29,609.61h1.37c2.48,0,4.5,2.02,4.5,4.5v36.4h-10.37v-36.4c0-2.48,2.02-4.5,4.5-4.5Z"/>
  <path class="cls-7" d="M1375.13,609.61h1.37c2.48,0,4.5,2.02,4.5,4.5v36.4h-10.37v-36.4c0-2.48,2.02-4.5,4.5-4.5Z"/>
  <path class="cls-7" d="M1391.32,609.61h1.37c2.48,0,4.5,2.02,4.5,4.5v36.4h-10.37v-36.4c0-2.48,2.02-4.5,4.5-4.5Z"/>
  <rect class="cls-6" x="682.6" y="835.13" width="152.3" height="79.84" rx="18.79" ry="18.79"/>
  <ellipse class="cls-12" cx="698.2" cy="876.18" rx="7.59" ry="28.42"/>
  <path class="cls-8" d="M758.76,912.06c52.55-34.14,27.84-66.74,0-74h32.1c33.35,8.4,12.83,43.08,0,74h-32.1Z"/>
  <rect class="cls-6" x="1165.5" y="795.22" width="152.3" height="79.84" rx="18.79" ry="18.79" transform="translate(2076.79 -406.52) rotate(90)"/>
  <ellipse class="cls-12" cx="1240.53" cy="774.58" rx="28.42" ry="7.59"/>
  <path class="cls-8" d="M1204.65,835.13c34.14,52.55,66.74,27.84,74,0v32.1c-8.4,33.35-43.08,12.83-74,0v-32.1Z"/>
  <rect class="cls-6" x="1156.51" y="836.26" width="152.3" height="79.84" rx="18.79" ry="18.79" transform="translate(2465.32 1752.36) rotate(-180)"/>
  <ellipse class="cls-12" cx="1293.22" cy="875.05" rx="7.59" ry="28.42"/>
  <path class="cls-8" d="M1232.66,839.17c-52.55,34.14-27.84,66.74,0,74h-32.1c-33.35-8.4-12.83-43.08,0-74h32.1Z"/>
  <path class="cls-7" d="M649.23,653.36c-3.64.47-4.57,9.97-6.77,19.85,0,0-4.8,21.58-17.14,42.4-3.79,6.39-13.18,21.84-30.67,32.48-4.26,2.59-8.25,4.44-50.07,15.34-26.21,6.83-28.81,7.19-33.83,10.83-12.78,9.27-17.46,22.61-23.45,39.69-7.31,20.83-11.3,32.21-6.77,46.01,5.5,16.74,20.06,26.45,29.77,32.93,1.56,1.04,5.99,3.99,6.77,3.16.59-.64-1.06-3.33-6.31-9.92-12.47-15.66-13.89-13.99-16.24-18.94-4.6-9.68-1.44-20.81,2.26-33.83,1.32-4.64,2.56-7.67,4.96-13.53,6.97-17,10.45-25.49,16.69-31.12,4.21-3.8,8.08-5.18,31.12-9.92,28.31-5.82,29.46-5.17,37.44-7.22,11.62-2.98,36.04-9.25,52.32-29.77,3.93-4.95,8.48-20.89,17.59-52.77,1.53-5.36,4.43-16.03,0-26.61-.28-.67-4.05-9.49-7.67-9.02Z"/>
  <path class="cls-2" d="M867.93,805.45l-34.24,16.49c-3.97,1.91-6.85,5.53-7.83,9.82l-8.46,37.05c-.98,4.3.05,8.8,2.8,12.25l23.69,29.71c2.75,3.44,6.91,5.45,11.32,5.45h38c4.41,0,8.57-2.01,11.32-5.45l23.69-29.71c2.75-3.44,3.78-7.95,2.8-12.25l-8.46-37.05c-.98-4.3-3.86-7.91-7.83-9.82l-34.24-16.49c-3.97-1.91-8.59-1.91-12.56,0Z"/>
  <path class="cls-2" d="M947.48,782.67l-42.71,20.57c-3.97,1.91-6.85,5.53-7.83,9.82l-10.55,46.22c-.98,4.3.05,8.8,2.8,12.25l29.56,37.07c2.75,3.44,6.91,5.45,11.32,5.45h47.41c4.41,0,8.57-2.01,11.32-5.45l29.56-37.07c2.75-3.44,3.78-7.95,2.8-12.25l-10.55-46.22c-.98-4.3-3.86-7.91-7.83-9.82l-42.71-20.57c-3.97-1.91-8.59-1.91-12.56,0Z"/>
  <path class="cls-2" d="M953.24,801.76c2.6,10.16-.87,20.45-8.12,25.26-9.77,6.49-26.01,2.77-33.38-10.83"/>
  <path class="cls-2" d="M1007.36,859.49c-19.57-8.92-41.87-6.93-57.73,5.41-16.05,12.49-19.2,30.68-19.85,35.18"/>
  <path class="cls-2" d="M826.94,870.32c5.27-1.07,21.21-3.6,38.79,4.51,17.89,8.25,26.32,22.37,28.87,27.06"/>
  <path class="cls-2" d="M877.46,816.19c.42,10.51-5.71,20.23-15.34,24.36-9.51,4.08-20.63,1.93-27.96-5.41"/>
  <path class="cls-2" d="M902.72,840.55c1.78.34,11.25,2.35,16.24,10.83,5.32,9.05,3.35,21.78-5.41,30.67"/>
</svg>