<?xml version="1.0" encoding="UTF-8"?>
<svg id="Layer_1" data-name="Layer 1" xmlns="http://www.w3.org/2000/svg" viewBox="0 0 1920 1080">
  <defs>
    <style>
      .cls-1 {
        fill: #999;
      }

      .cls-1, .cls-2, .cls-3, .cls-4, .cls-5, .cls-6 {
        stroke-miterlimit: 10;
      }

      .cls-1, .cls-2, .cls-4, .cls-6 {
        stroke: #601113;
        stroke-width: 5px;
      }

      .cls-7, .cls-6 {
        fill: #cc2b2b;
      }

      .cls-2 {
        fill: #d3d2d3;
      }

      .cls-8 {
        fill: #faf1f1;
      }

      .cls-3, .cls-4, .cls-5 {
        fill: none;
      }

      .cls-3, .cls-5 {
        stroke: #cc2b2b;
        stroke-width: 10px;
      }

      .cls-3, .cls-9 {
        opacity: .28;
      }
    </style>
  </defs>
  <path class="cls-8" d="M1493.45,402.28c-8.14-17.28-16.67-34.52-29.35-55.17-13.14-21.4-40.1-61.75-96.26-115.04-64.75-61.44-113.22-107.44-191.35-129.13-25.03-6.95-55.26-15.01-93.91-9.39-57.11,8.3-98.36,41.48-125.61,63.39-6.04,4.86-24.46,22.87-61.04,58.7-65.31,63.95-63.63,63.62-71.61,69.26-44.3,31.33-91.15,38.1-136.17,44.61-61.44,8.88-69.37-2.28-116.22,10.57-20.75,5.69-58.17,15.95-92.74,45.78-53.81,46.44-66.06,110.44-72.78,145.57-11.96,62.5-2.03,112.14,3.52,138.52,5.75,27.33,23.88,98.77,81,167.87,7.61,9.2,36.68,43.5,84.52,76.3,29.43,20.19,53.04,36.37,86.87,45.78,74.14,20.63,157.34-2.42,210.13-37.57,13.89-9.25,28.05-20.91,55.17-34.04,28.44-13.77,53.02-25.67,83.35-24.65,22.44.76,45.4,13.04,90.39,37.57,23.47,12.8,27.44,16.22,72.78,43.43,70.96,42.58,85.13,48.52,97.43,52.83,16.21,5.67,42.53,14.65,76.3,15.26,74.73,1.34,128.86-39.36,143.22-50.48,51.05-39.53,71.64-88.48,81-111.52,30.05-74,21.63-139.45,15.26-189-10.62-82.55-38.74-142.28-93.91-259.43Z"/>
  <line class="cls-4" x1="514.8" y1="929.46" x2="1528.28" y2="929.46"/>
  <line class="cls-3" x1="893.08" y1="297.22" x2="951.07" y2="355.21"/>
  <g class="cls-9">
    <polyline class="cls-5" points="742.72 373.52 798.13 428.94 832.94 394.13 885.36 446.55 914.41 417.51 968.53 471.64 999.38 440.79 1111.48 552.88 1140.29 524.07 1194.75 578.52 1221.71 551.56 1289.35 619.21 1326.71 581.85 1397.17 652.31"/>
    <polygon class="cls-7" points="1419.18 672.52 1410.25 639.22 1385.88 663.6 1419.18 672.52"/>
  </g>
  <g class="cls-9">
    <polyline class="cls-5" points="1147.35 390.07 1207.95 450.67 1273.09 385.52 1412.15 524.58"/>
    <polygon class="cls-7" points="1431.88 546.22 1422.95 512.92 1398.58 537.3 1431.88 546.22"/>
  </g>
  <polyline class="cls-5" points="553.46 436.17 629.94 512.65 677.99 464.6 750.34 536.96 790.43 496.87 865.14 571.58 907.72 529 1062.44 683.73 1102.21 643.96 1177.37 719.12 1214.58 681.9 1307.95 775.27 1359.51 723.71 1456.76 820.95"/>
  <path class="cls-2" d="M1149.57,373.37c13,7.35,21.18,15.63,23.88,18.5,7.78,8.23,7.44,10.81,15.98,22.25,13.34,17.87,17.86,16.53,27.55,30.31,4.28,6.08,12.93,18.38,15.7,35.55,3.12,19.3-4.53,24.16.66,43.85,2.03,7.7,5.28,14.87,8.92,22.88,2.86,6.3,4.45,9.03,11.28,22.15,8.14,15.63,12.21,23.44,12.79,25.31,4.79,15.62-2.36,18.43,0,37.57,1.98,15.99,7.24,16.21,13.26,40.2,3.72,14.8,5.58,22.21,4.83,31.41-1.91,23.49-16.66,29.49-15.09,48.22.45,5.28,4.04,11.68,11.24,24.5,13.14,23.4,20.22,29.15,31.81,51.54,6.21,11.99,8.84,19.36,8.81,28.36-.01,3.2-.05,13.59-5.13,21.03-10.07,14.73-34.43,9.77-63.65,11.99-31.87,2.42-30.76,10.44-77.95,21.87-31.8,7.71-54.47,9.44-98.89,12.83-53.35,4.07-80.02,6.11-108.04.9-34.51-6.42-38.19-14.49-70.1-17.1-31.52-2.58-35.63,4.68-78.42,6.99-42.24,2.28-74.39,4.02-103.81-14.67-2.03-1.29-43.1-28.03-39.51-57.96,2.25-18.81,19.82-19.55,29.92-46.35,4.85-12.88,4.16-28.14,2.78-58.65-1.96-43.2-7.01-45.32-3.39-63.47,4-20.02,10.06-17.09,25.37-53.49,13.76-32.73,10.76-39.63,23.93-59.78,7.83-11.97,15.57-23.82,30.43-33.03,17.48-10.84,27.99-7.62,42.7-21.04,7.86-7.17,5.27-8.46,17.71-23.9,11.86-14.72,16.13-15.92,31.99-33,13.36-14.38,11.04-14.29,26.48-31.55,14.02-15.67,21.8-24.36,33.56-32.97,15.56-11.39,29.67-16.46,40.6-20.3,0,0,64.52-22.64,144.59-1.71,11.73,3.07,20.21,6.8,27.18,10.74Z"/>
  <path class="cls-1" d="M1014.89,388.07c-4.32,9.61-10.82,8.96-14.48,19.01-2.52,6.92.42,7.59-2.42,16.13-3.03,9.1-6.95,10.09-7.67,17.58-.55,5.73,1.64,6.29.79,12.54-.98,7.23-4.06,7.55-3.92,12.97.13,5.2,2.97,5.63,4.41,13.66.84,4.67-.09,4.71.86,8.89,1.6,7.02,4.52,8.22,3.94,11.56-.77,4.39-6.7,7.39-11.13,8.12-7.77,1.29-16.54-3.48-18.58-9.78-1.91-5.87,3.11-9.74.32-15.65-1.86-3.93-4.46-3.01-6.64-6.92-3.15-5.64,1.09-9.64.41-19.82-.58-8.64-3.8-8.39-3.35-14.68.6-8.43,6.4-8.93,9.27-19.12,2.46-8.72-1.24-10.3,1.44-19.28,2.64-8.83,6.45-8.1,8.68-16,3.14-11.12-3.31-16.54,1-22.94,3.62-5.39,11.24-6.09,15.27-6.47,2.92-.27,15.05-1.4,21.26,6.7,6.87,8.96,1.13,22.22.56,23.49Z"/>
  <path class="cls-1" d="M1026.39,361.69c6.65,5.32,8.33,14.24,9.02,17.93,1.5,7.99-.37,12.32,3.32,16.25,2.8,2.98,4.97,1.66,7.73,4.86,4,4.65.72,8.98,4.43,13.14,3.35,3.76,7.43,1.78,10.31,5.95,2.17,3.14.41,5.05,2.46,7.36,3.27,3.68,8.79,0,13.5,3.41,3.55,2.57,5.04,8.04,3.91,12.61-1.29,5.24-6.02,9.29-10.64,9.7-5.77.51-7.37-5.01-16.56-6.6-5.16-.9-5.42.71-9.39-.19-6.28-1.43-9.9-6.48-16.88-16.53-6.42-9.24-10.19-17.05-11.59-20.07-3.02-6.51-2.26-6.26-6.46-15.79-4.77-10.84-6.12-11.99-6.96-16.84-.67-3.88-2.29-13.21,2.97-17.68,5.33-4.52,15.23-1.96,20.82,2.52Z"/>
  <path class="cls-2" d="M1139.53,366.64c3.6-2.51,3.89-5.39,8.17-16.53,5.15-13.42,4.51-8.69,13.13-29.47,8.26-19.89,7.97-22.12,12.57-27.4,5.31-6.09,6.98-4.6,18.55-13.71,9.55-7.52,8.61-8.7,23.43-22.48,13.47-12.54,16.68-13.83,20.26-20.98,2.01-4.02,6.2-12.38,3.04-20.81-2.48-6.63-8.27-10-12.27-12.26-6.3-3.55-10.65-3.83-25.97-5.75-24.83-3.11-28.13-4.22-37.5-3.38-2.16.19-9.22.9-17.82,3.81-7.95,2.68-11.98,4.05-14.78,8.04-3.12,4.46-1.17,7.14-5,14.51-1.97,3.8-3.62,6.96-6.96,8.73-1.63.86-4.69,1.93-18.74-2.47-11.28-3.54-16.94-5.38-18.07-9.24-.89-3.04,1.22-4.58,3.89-11.4,1.95-4.98,5.52-14.08,3.58-21.84-2.24-8.97-11.22-13.77-16.36-16.51-8.47-4.53-15.93-4.98-30.15-5.84-3-.18-12.57-.68-25.06.53-7.59.73-15.18,1.51-24.62,4.71-9.72,3.3-14.14,6.7-16.48,8.77-3.65,3.23-8.03,7.1-7.96,12.13.09,6.28,7.05,8.85,6,12.65-.81,2.94-5.5,3.27-13.68,5.46-4.16,1.11-15.45,4.21-25.26,10.44-5.48,3.48-12.95,8.22-13.36,15.38-.22,3.78,1.62,6.78,2.95,8.93,4.18,6.8,9.45,7.76,15.4,12.32,3.71,2.85,7.21,8.78,14.19,20.65,4.45,7.57,8.16,13.88,12.05,23.21,4.12,9.9,6.46,18.46,7.84,24.69,1.62,7.28,2.43,10.92,2.3,15.18-.35,11.16-5.12,15.06-3.03,20.29,2.53,6.33,12.41,7.9,17.56,8.71,17.54,2.78,24.4-4.37,46.06-6.88,11.08-1.28,19.21-.57,33.38.69,23.4,2.07,40.59,5.53,40.59,5.53,15.69,3.16,22.27,5.72,28.15,1.62Z"/>
  <path class="cls-4" d="M977.52,207.65c3.68,6.91,8.53,16.75,13.3,28.96,5.82,14.89,13.49,34.5,15.65,60.26,1.08,12.86,1.24,32.58-4.7,56.35"/>
  <path class="cls-4" d="M1058.13,354.78c1.04-35.74,6.26-71.48,15.65-107.22"/>
  <path class="cls-4" d="M1095.7,355.57c-3.04-19.53-1.61-39.08,9.39-58.7"/>
  <path class="cls-1" d="M1163,367.12c-.17-.48-2.54-6.82-8.17-8.52-3.77-1.14-5.06,1-9.4.33-5.45-.85-5.92-4.6-11.34-7.02-6.69-2.98-8.79,1.49-17.73-.37-8.73-1.81-9.61-6.65-17.08-6.61-5.21.03-5.08,2.38-11.02,2.9-8.68.77-10.99-4.08-19.24-3.53-6.68.45-6.03,3.69-12.62,4.44-9.53,1.08-11.94-5.59-23.37-5.7-5.89-.06-5.52,1.71-13.08,1.82-9.09.13-9.75-2.42-16.66-1.91-8.02.59-8.52,4.12-17.85,5.37-7.77,1.04-8.01-1.33-14.61-.3-12.41,1.93-19.48,11.54-20.62,13.14-2.4,3.36-6.68,9.38-4.46,14,2.2,4.59,9.97,6.08,15.55,5.02,6.7-1.27,8.38-5.87,15.26-5.95,3.91-.05,3.77,1.43,7.79,1.73,9.03.66,11.82-6.62,21.03-7.39,6.78-.57,6.05,3.31,14.54,3.43,9.19.13,12.17-4.39,20.41-2.71,4.74.97,4.1,2.53,8.8,3.31,7.84,1.3,10.04-2.98,17.79-2.24,6.5.62,5.97,3.73,12.95,4.44,6.88.7,8.64-2.2,15.16-1.25,5.64.81,5.2,3.1,11.38,4.93,9.59,2.84,12.67-2.08,22.95.47,5.98,1.48,5.44,3.27,12.42,4.95,6.24,1.5,12.51,3.01,17.24-.69,4.52-3.54,5.97-10.55,3.99-16.1Z"/>
  <path class="cls-6" d="M1017.1,646.63c5.05,1.91,10.08,3.95,15.11,6.13,5.02,2.18,9.84,4.61,14.44,7.3,4.6,2.69,8.86,5.7,12.77,9.04,3.9,3.34,7.23,7.17,9.98,11.5,2.75,4.33,4.77,9.19,6.08,14.6,1.31,5.41,1.69,11.55,1.15,18.44-.8,10.22-3.27,19.69-7.42,28.4-4.15,8.71-9.83,16.28-17.04,22.69-7.21,6.42-15.83,11.42-25.85,15.02-10.02,3.6-21.31,5.39-33.86,5.38l-3.5,19.86c-.45,2.99-1.98,5.61-4.59,7.84-2.61,2.23-5.8,3.2-9.56,2.91l-18.39-1.44,5.83-32.99c-12.21-3.01-23.74-7.51-34.58-13.5-10.84-5.99-19.85-12.89-27.03-20.71l17.25-21.21c1.43-1.73,3.3-3.12,5.6-4.19,2.3-1.06,4.69-1.5,7.16-1.31,2.58.2,5.16,1.08,7.75,2.64,2.58,1.56,5.39,3.4,8.41,5.53,3.02,2.13,6.37,4.34,10.03,6.63,3.66,2.29,7.86,4.27,12.6,5.94l10.73-60.36c-7.58-2.76-15.1-5.89-22.56-9.4-7.46-3.51-14.07-7.97-19.81-13.4-5.74-5.43-10.23-12.11-13.45-20.05-3.22-7.94-4.38-17.66-3.48-29.17.67-8.5,3.03-16.65,7.11-24.44,4.07-7.8,9.67-14.67,16.79-20.6,7.12-5.94,15.68-10.6,25.69-13.98,10-3.38,21.27-4.91,33.8-4.58l3.18-17.77c.45-2.99,1.98-5.61,4.59-7.84,2.61-2.23,5.8-3.2,9.56-2.9l18.39,1.44-5.54,31.38c11.45,3.06,21.15,7.34,29.11,12.83,7.96,5.49,14.63,11.21,20.01,17.15l-13.67,16.95c-2.04,2.55-4.05,4.37-6.03,5.45-1.98,1.09-4.26,1.53-6.84,1.33-1.61-.13-3.49-.68-5.63-1.66-2.14-.98-4.46-2.14-6.95-3.47-2.49-1.33-5.17-2.73-8.03-4.2-2.86-1.47-5.92-2.82-9.18-4.05l-10.13,56.84ZM997,586.12c-5.01.37-9.26,1.17-12.77,2.41-3.51,1.24-6.39,2.8-8.65,4.68-2.26,1.88-3.97,4.05-5.13,6.5-1.17,2.46-1.86,5.08-2.08,7.87-.5,6.35,1.14,11.64,4.93,15.89,3.78,4.25,8.79,7.97,15.04,11.16l8.67-48.51ZM999.7,744.46c17.98-1.51,27.61-10.55,28.91-27.12.49-6.24-1.09-11.31-4.73-15.22-3.65-3.91-8.6-7.36-14.86-10.34l-9.32,52.68Z"/>
  <path class="cls-4" d="M1241.26,730.43c-16.73-28.37-33.67-61.77-48.52-100.17-32.59-84.28-42.88-161.08-45.39-218.35"/>
  <path class="cls-4" d="M1237.35,682.7c3.2-20.06,5.68-50.63-.78-86.87-6.82-38.26-20.84-67.31-31.3-85.3"/>
  <path class="cls-4" d="M728.65,672.52c10.74,9.79,26.51,26.02,40.7,49.3,14.78,24.26,47.02,77.16,26.61,126-3.96,9.47-13.6,27.67-38.35,43.83"/>
  <path class="cls-4" d="M754.48,863.48c-2.07-10.03-5.68-34.65,6.26-61.04,5.6-12.39,12.93-21.4,18.78-27.39"/>
  <path class="cls-4" d="M1278.83,849.39c-10.05-1.95-25.04-3.56-42.26,0-13.56,2.81-21.24,7.32-43.83,17.22,0,0-9.2,4.03-42.26,17.22-59.99,23.93-127.07,18.51-140.87,17.22-17.02-1.6-40.95-5.21-68.87-14.09"/>
  <path class="cls-4" d="M1017.43,860.35c14.17,1.72,30.5,2.59,48.52,1.57,42.61-2.42,76.93-14.42,100.17-25.04"/>
  <polygon class="cls-7" points="1487.14 848.86 1474.82 802.89 1441.17 836.54 1487.14 848.86"/>
</svg>