<?xml version="1.0" encoding="UTF-8"?>
<svg xmlns="http://www.w3.org/2000/svg" viewBox="0 0 1321.46 921.1">
  <defs>
    <style>
      .cls-1 {
        fill: #bf2026;
      }

      .cls-1, .cls-2, .cls-3, .cls-4, .cls-5, .cls-6, .cls-7, .cls-8, .cls-9, .cls-10, .cls-11, .cls-12 {
        stroke: #601113;
        stroke-miterlimit: 10;
      }

      .cls-1, .cls-2, .cls-5, .cls-6, .cls-10 {
        stroke-width: 6px;
      }

      .cls-2, .cls-4 {
        fill: #d8d8d8;
      }

      .cls-3, .cls-4, .cls-7, .cls-8, .cls-9, .cls-11, .cls-12 {
        stroke-width: 5px;
      }

      .cls-3, .cls-10 {
        fill: #a8a8a8;
      }

      .cls-5, .cls-13, .cls-12 {
        fill: #666;
      }

      .cls-14 {
        fill: #601113;
      }

      .cls-15 {
        fill: #282828;
      }

      .cls-16 {
        fill: #faf1f1;
      }

      .cls-6, .cls-7, .cls-17 {
        fill: #ededed;
      }

      .cls-8 {
        fill: none;
      }

      .cls-9 {
        fill: #b2b2b2;
      }

      .cls-18 {
        fill: #fc4452;
      }

      .cls-11 {
        fill: #3f3f3f;
      }
    </style>
  </defs>
  <g id="Layer_3" data-name="Layer 3">
    <path class="cls-16" d="M1221.41,310.62c-8.14-17.28-16.67-34.52-29.35-55.17-13.14-21.4-40.1-61.75-96.26-115.04-64.75-61.44-113.22-107.44-191.35-129.13-25.03-6.95-55.26-15.01-93.91-9.39-57.11,8.3-98.36,41.48-125.61,63.39-6.04,4.86-24.46,22.87-61.04,58.7-65.31,63.95-63.63,63.62-71.61,69.26-44.3,31.33-91.15,38.1-136.17,44.61-61.44,8.88-69.37-2.28-116.22,10.57-20.75,5.69-58.17,15.95-92.74,45.78-53.81,46.44-66.06,110.44-72.78,145.57-11.96,62.5-2.03,112.14,3.52,138.52,5.75,27.33,23.88,98.77,81,167.87,7.61,9.2,36.68,43.5,84.52,76.3,29.43,20.19,53.04,36.37,86.87,45.78,74.14,20.63,157.34-2.42,210.13-37.57,13.89-9.25,28.05-20.91,55.17-34.04,28.44-13.77,53.02-25.67,83.35-24.65,22.44.76,45.4,13.04,90.39,37.57,23.47,12.8,27.44,16.22,72.78,43.43,70.96,42.58,85.13,48.52,97.43,52.83,16.21,5.67,42.53,14.65,76.3,15.26,74.73,1.34,128.86-39.36,143.22-50.48,51.05-39.53,71.64-88.48,81-111.52,30.05-74,21.63-139.45,15.26-189-10.62-82.55-38.74-142.28-93.91-259.43v-.02Z"/>
  </g>
  <g id="Layer_2" data-name="Layer 2">
    <path class="cls-12" d="M868.18,697.49l252.25,91.59c8.16,2.96,16.86-2.85,17.26-11.55l12.13-259.24c.28-6.03-3.63-11.45-9.42-13.06l-264.38-73.69c-8.21-2.29-16.34,3.91-16.34,12.46v241.34c0,5.44,3.4,10.3,8.5,12.16Z"/>
    <path class="cls-3" d="M867.79,697.03l240.72,87.15c7.79,2.82,16.09-2.71,16.48-10.99l11.57-246.67c.27-5.73-3.46-10.89-8.99-12.43l-252.3-70.12c-7.84-2.18-15.6,3.72-15.6,11.85v229.64c0,5.18,3.24,9.8,8.11,11.57Z"/>
    <path class="cls-5" d="M906.19,560.46c-.74-11.16-1.1-16.74-2.69-20.53-1.03-2.46-2.55-5.28-2.16-9.18.07-.73.66-5.75,4.85-9.18,4.56-3.74,10.27-3.03,12.93-2.7,3.6.45,3.57,1.36,10.24,3.24,3.95,1.12,7.09,2,10.78,2.16,3.05.13,4.09-.44,13.47-2.7,6.92-1.67,10.38-2.5,12.39-2.7,5.24-.52,9.11.09,15.09,1.08,5.6.93,9.73,2.07,17.78,4.32,3.13.87,8.91,2.74,20.48,6.48,8.03,2.59,10.39,3.4,12.93,5.94,3.22,3.23,2.84,5.34,6.47,8.64,3.07,2.8,5.53,3.26,10.78,5.4,1.75.72,9.4,3.84,15.63,8.1,4.02,2.75,10.54,7.21,14.01,15.13,2.04,4.65,2.11,8.57,2.16,16.21.08,11.8-1.66,21.15-2.69,25.93-2.49,11.56-6.04,20.63-9.16,28.63-3.75,9.6-5.08,11.25-7.01,18.37-1.27,4.7-2.1,9.26-3.77,18.37-2.27,12.38-2.11,13.58-3.77,16.21-4.79,7.6-13.74,9.8-15.63,10.26-6.1,1.5-10.21.36-24.79-3.24-25.52-6.31-23.49-5.42-26.41-6.48-5.11-1.85-17.75-6.89-30.18-16.75-14.17-11.24-20.74-22.96-31.8-42.68-13.35-23.8-20.02-35.7-19.94-50.78.03-5.59.89-14.07,0-27.55Z"/>
    <path class="cls-4" d="M625.8,653.63c3.52-3.28,6.3-.88,22.93-4.72,3.52-.81,8.64-2.13,26.98-8.77,14.32-5.18,24.26-9.1,30.35-11.47,26.24-10.18,27.99-9.62,48.56-17.54,17.76-6.84,11.71-5.43,49.91-21.58,27.53-11.64,38.22-15.57,51.26-23.61,6.27-3.87,12.59-7.64,18.88-11.47,11.36-6.9,13.42-8.17,17.54-10.12,6.37-3.02,7.96-3.08,12.81-6.07,5.82-3.58,6.5-5.31,10.12-6.07,3.93-.82,5.37.75,13.49,2.7,7.87,1.89,11.93,2.86,16.86,2.02,6.55-1.11,7.13-4.14,14.16-5.4,1.1-.2,4.53-.74,12.81.67,10.69,1.83,12.56,4.02,26.98,8.09,7.27,2.05,9.87,2.36,15.51,4.72,7.4,3.1,10.45,5.72,12.14,7.42,3.31,3.33,2.46,4.2,5.4,6.74,3.89,3.38,5.97,2.37,13.49,6.07,2.89,1.42,6.12,3.04,9.44,6.07,3.63,3.3,6.74,8.77,6.74,8.77h0s3.65,6.5,3.88,9.41c.74,9.49-26.81,17.57-26.81,17.57-99.17,29.1-148.76,43.64-163.89,47.21-68.33,16.11-102.49,24.16-128.14,37.77-13.86,7.35-28.57,12.77-58,23.61-22.05,8.12-28.12,9.39-35.07,7.42-27.27-7.75-40.82-57.84-28.33-69.47Z"/>
    <path class="cls-7" d="M664.92,703.54c11.85-2.85,22.19-10.2,33.72-14.16,22.11-7.59,33.32-14.48,65.42-26.98,25.97-10.11,49.69-17.08,97.12-31.02,28.83-8.47,49.65-14.02,75.54-20.91,16.3-4.34,31.94-8.39,51.26-12.81,15.24-3.49,23.22-5.03,39.12-8.09,30.53-5.88,16.02-2.93,24.95-4.05,5.98-.75,12.81-1.35,12.81-1.35,1.63,1.41,1.33,5,.67,12.14-1.74,18.97-2.07,20.87-2.7,23.61-1.37,5.95-2.94,10.38-4.05,13.49-2.86,8.01-4.11,9.17-6.74,16.19-2.81,7.47-4.2,13.62-5.4,18.88-2.44,10.75-2.32,14.86-6.07,20.23-1.29,1.85-3.23,4.69-6.74,6.74-6.37,3.72-13.5,2.37-15.51,2.02-20.16-3.45-40.98,1.61-61.37,0-34.82-2.74-64.66,2.36-86.33,6.07-7.58,1.3-32.25,7.83-81.61,20.91-16.78,4.45-27.18,7.28-41.14,12.14-21.42,7.45-38.69,15.3-46.54,18.88-22.1,10.1-33.16,15.15-35.07,16.86-1.6,1.42-5.67,5.23-8.09,4.05-2.38-1.16-1.73-6.43-1.35-12.81.21-3.45,1.09-19.74-.67-33.05-1.6-12.08-4.71-16.75-1.35-21.58,2.61-3.75,7.07-4.66,10.12-5.4Z"/>
    <path class="cls-9" d="M500.86,775.7h162.03v38.46c0,13.39-10.87,24.26-24.26,24.26h-113.51c-13.39,0-24.26-10.87-24.26-24.26v-38.46h0Z"/>
    <rect class="cls-4" x="478.1" y="669.14" width="202.33" height="120.72" rx="12.26" ry="12.26"/>
    <path class="cls-8" d="M615.8,693.36v22.41c0,4.5,3.65,8.15,8.15,8.15h17.4c4.5,0,8.15,3.65,8.15,8.15v29.85c0,4.5-3.65,8.15-8.15,8.15h-17.4c-4.5,0-8.15,3.65-8.15,8.15v11.66"/>
    <path class="cls-9" d="M500.86,582.14h164.9v105.15c0,10.37-8.42,18.78-18.78,18.78h-127.33c-10.37,0-18.78-8.42-18.78-18.78v-105.15h0Z"/>
    <polygon class="cls-4" points="709.77 457.2 648.06 608.95 481.64 591.75 631.65 439.63 709.77 457.2"/>
    <path class="cls-12" d="M861.85,240.74h24.28v116.01c0,7.7-6.25,13.96-13.96,13.96h-10.32v-129.96h0Z"/>
    <rect class="cls-14" x="496.06" y="598.35" width="138.95" height="4.65" transform="translate(74.24 -62.1) rotate(6.73)"/>
    <path class="cls-6" d="M494.28,599.14l364.5-224.01c9.45-5.81,15.21-16.11,15.21-27.2v-126.48l-409.55,194.31,29.84,183.37Z"/>
    <polygon class="cls-3" points="69.39 386.55 162.46 350.13 174.1 203.78 171.23 191.64 121.74 194.33 50.5 219.96 11.39 240.74 8.01 258.41 23.53 295.5 60.62 370.7 69.39 386.55"/>
    <path class="cls-2" d="M183.05,186.62l293.63,33.31c17.8,2.02,31.33,16.94,31.62,34.85l4.98,315.19c.35,22.16-19.39,39.26-41.27,35.75l-287.4-46.07c-16.79-2.69-29.34-16.87-29.97-33.87l-11.22-302.43c-.81-21.79,17.96-39.19,39.63-36.73Z"/>
    <path class="cls-10" d="M230.07,267.55l193.21,21.92c11.71,1.33,20.62,11.14,20.8,22.93l3.28,207.39c.23,14.58-12.76,25.83-27.16,23.52l-189.11-30.31c-11.05-1.77-19.31-11.1-19.72-22.28l-7.38-199c-.53-14.34,11.82-25.79,26.08-24.17Z"/>
    <path class="cls-13" d="M235.54,493.43l-7.73-200.07c-.33-8.52,6.8-17.19,13.53-21.57l-14.61-1.57c-14.26-1.55-20.35,15.13-19.68,25.34l6.64,192.75c.41,10.74,8.35,21.91,20.87,21.91l12,2.09c-4.39-4.11-10.78-12.65-11.02-18.88Z"/>
    <circle class="cls-11" cx="336.54" cy="413.33" r="96.62"/>
    <circle class="cls-15" cx="322.56" cy="413.33" r="71.07"/>
    <circle class="cls-1" cx="336.54" cy="413.33" r="67.29"/>
    <path class="cls-12" d="M325.68,327.2c-47.57,0-86.13,38.56-86.13,86.13s38.56,86.13,86.13,86.13,86.13-38.56,86.13-86.13-38.56-86.13-86.13-86.13ZM325.68,484.4c-39.25,0-71.07-31.82-71.07-71.07s31.82-71.07,71.07-71.07,71.07,31.82,71.07,71.07-31.82,71.07-71.07,71.07Z"/>
    <circle class="cls-18" cx="322.56" cy="421.93" r="11.63"/>
    <path class="cls-18" d="M325.68,370.7c-26.35,0-47.71,21.36-47.71,47.71s21.36,47.71,47.71,47.71,47.71-21.36,47.71-47.71-21.36-47.71-47.71-47.71ZM325.68,460.55c-23.27,0-42.14-18.87-42.14-42.14s18.87-42.14,42.14-42.14,42.14,18.87,42.14,42.14-18.87,42.14-42.14,42.14Z"/>
    <ellipse class="cls-3" cx="162.46" cy="377.28" rx="11.63" ry="14.67"/>
    <ellipse class="cls-7" cx="882.32" cy="473.1" rx="11.63" ry="14.67"/>
    <ellipse class="cls-7" cx="1113.65" cy="538.96" rx="11.63" ry="14.67"/>
    <ellipse class="cls-7" cx="1102.02" cy="750.73" rx="11.63" ry="14.67"/>
    <ellipse class="cls-3" cx="470.01" cy="424.96" rx="11.63" ry="14.67"/>
    <path class="cls-12" d="M559.03,64.17c.38-5.77,9.15-9.77,23.77-15.17,16.19-5.99,24.28-8.98,37.43-12.14,15.05-3.62,26.93-5.38,31.87-6.07,13.46-1.87,38.11-5.16,69.8-2.53,19.53,1.62,33.81,4.83,50.58,8.6,6.5,1.46,24.41,5.63,47.04,13.15,23.79,7.91,34.84,13.56,37.94,15.17,5.79,3.02,15.29,8.32,25.8,16.69,9.68,7.71,13.88,12.97,16.19,16.19,5.63,7.84,7.62,14.12,8.09,15.68,1.95,6.43,1.99,11.64,2.02,13.66.56,36.58-2.88,73.29,0,109.76.11,1.34.51,5.52-2.02,8.09-1.5,1.52-3.47,1.93-6.58,2.53-3.28.63-5.76.59-9.1.51-2.62-.06-6.27-.29-10.62-1.01,0,0-3.59-.6-7.08-1.52-26.87-7.09-51.59-35.41-51.59-35.41-25.15-28.8-56.06-12.18-153.77-53.62,0,0-53.21-22.57-78.91-50.58-6.48-7.07-12.19-17.29-20.74-24.79-1.25-1.1-5.85-5.02-8.6-11.63-1.03-2.47-1.63-3.92-1.52-5.56Z"/>
    <path class="cls-4" d="M477.42,427.69c-9.15-14.85-3.5-19.19-8.43-36.76-6.58-23.43-12.4-30.51-15.17-41.48-8.82-34.9-34.05-57.27-57.07-78.91-33.07-31.08-63.91-41.33-85.82-50.58-29.35-12.39-54.72-17.95-62.72-19.56-18.69-3.75-33.29-7.82-44.22-8.77-19.25-1.66-32.89-.6-39.5-.67-22.11-.24-35.49,3.68-35.75,2.7-2.54-9.81,403.4-123.81,464.69-141.63,2.25-.65,15.04-4.38,32.37-8.09,12.53-2.68,23.31-4.95,37.43-6.07,13.94-1.11,24.38-.56,34.4,0,3.96.22,16.14.98,48.56,6.07,22.48,3.53,33.72,5.3,40.47,7.08,17.62,4.65,29.57,10.14,51.59,20.23,0,0,12.37,5.67,29.34,16.19,4.62,2.86,12.06,7.68,18.68,16.46.14.19.3.4.55.73,9.02,12.4,10.12,24.28,10.12,24.28h0s4.08,109.2-5.06,115.33c-73.85,49.57-116.34,72.46-184.12,101.8-114.65,49.62-124.29,53.49-217.15,98.19-1.04.5-8.77-9.4-13.17-16.54Z"/>
    <path class="cls-12" d="M3.12,256.38c-.66-2.98-1.34-8.27,1.01-13.66,2.22-5.09,6.12-7.91,11.13-11.13,12.91-8.29,23.87-13.25,24.79-13.66,14.83-6.64,22.24-9.96,32.88-13.66,12.8-4.46,22.74-6.96,29.34-8.6,8.2-2.04,18.68-4.62,32.37-6.58,21.77-3.11,39.3-2.87,48.05-2.53,15.51.6,26.76,2.42,39.96,4.55,9.68,1.56,24.47,4,43,9.1,24.93,6.87,44.39,15.21,56.15,20.74,14.37,6.76,30.32,16.81,62.22,36.93,30.79,19.41,34.9,23.16,38.44,26.81,15.28,15.73,22.3,32.04,29.84,49.57,4.2,9.77,9.72,28.23,19.73,52.61,9.61,23.41,12.65,29.16,16.19,43.5,2.3,9.31,7.31,15.6,5.4,18.88,0,0-7.1,1.08-11.97,0-3.03-.67-6.44-10.86-9.1-21.92-2.85-11.83-2.99-5.89-12.14-33.38-7.13-21.44-5.49-20.38-10.12-33.38-8.48-23.84-17.07-45.84-19.73-50.08-5.16-8.21-13.79-13.85-25.8-25.8-7.49-7.46-15.82-14.15-32.88-24.79-14.07-8.77-35.79-22.17-69.3-35.91-22.45-9.21-40.63-16.67-66.77-21.75-39.96-7.77-71.77-7.32-89.03-5.56-22.13,2.25-37.64,6.35-56.65,13.66-12.93,4.97-27.14,12.46-42.49,17.7-5.36,1.83-10.29,4.82-15.68,6.58-1.72.56-6.38,2.01-10.66,6.1-.52.5-.89.89-.97.98-4.6,4.98-5.75,11.21-6.07,14.16,0,0-.13,1.25.51,11.52,26.3,56.26,52.1,103.3,60.03,120.5,1.46,3.16-9.61,3.87-11.47,0-12.14-25.29-16.88-33.93-25.29-53.11-6.81-15.53-20.23-38.95-32.71-67.39l-2.19-11.01Z"/>
    <ellipse class="cls-5" cx="650.29" cy="600.68" rx="34.47" ry="45.52"/>
    <ellipse class="cls-7" cx="659.2" cy="601.14" rx="26.56" ry="42.02"/>
    <path class="cls-17" d="M419.32,259.49c-4.52,2.3,7,4.16,19.22,15.17,15.91,14.33,22.91,31.17,31.36,55.64,21.77,63.01,23.27,73.85,23.27,73.85,99.4-32.88,100.61-33.32,237.74-99.14,75.87-36.42,98.13-48.56,147.7-77.9,6.75-4,2.06-25.95,2.02-62.72-.04-34.86-1.94-46.57-10.12-55.64-6.17-6.85-18.13-21.69-36.42-14.16-68.79,28.33-137.54,57.73-171.21,68.72-151.84,49.56-171.99,59.76-243.57,96.18Z"/>
  </g>
</svg>