<?xml version="1.0" encoding="UTF-8"?>
<svg id="Layer_2" data-name="Layer 2" xmlns="http://www.w3.org/2000/svg" viewBox="0 0 1366 768">
  <defs>
    <style>
      .cls-1 {
        fill: none;
        stroke: #bf2026;
        stroke-miterlimit: 10;
      }
    </style>
  </defs>
  <path class="cls-1" d="M1,213.17c47.46-20.35,153.77-7.91,182.35-3.91,78.26,10.96,177.65,58.7,344.35,3.91,180.16-59.21,430.03-171.32,619.83-189.39,131.48-12.52,141.74-6.27,218.39,0"/>
  <path class="cls-1" d="M1,232.58c47.46-20.35,153.77-7.91,182.35-3.91,78.26,10.96,177.65,58.7,344.35,3.91,180.16-59.21,430.03-171.32,619.83-189.39,131.48-12.52,141.74-6.27,218.39,0"/>
  <path class="cls-1" d="M1,255.25c47.46-20.35,165.7-7.91,194.29-3.91,78.26,10.96,177.65,58.7,344.35,3.91,180.16-59.21,430.03-171.32,619.83-189.39,131.48-12.52,129.74-6.27,206.39,0"/>
  <path class="cls-1" d="M1,279.71c47.46-20.35,165.7-7.91,194.29-3.91,78.26,10.96,177.65,58.7,344.35,3.91,180.16-59.21,430.03-171.32,619.83-189.39,131.48-12.52,129.74-6.27,206.39,0"/>
  <path class="cls-1" d="M0,430.14c47.46-20.35,154.77-7.91,183.35-3.91,78.26,10.96,177.65,58.7,344.35,3.91,180.16-59.21,430.03-171.32,619.83-189.39,131.48-12.52,141.74-6.27,218.39,0"/>
  <path class="cls-1" d="M0,449.55c47.46-20.35,154.77-7.91,183.35-3.91,78.26,10.96,177.65,58.7,344.35,3.91,180.16-59.21,430.03-171.32,619.83-189.39,131.48-12.52,141.74-6.27,218.39,0"/>
  <path class="cls-1" d="M0,472.21c47.46-20.35,166.7-7.91,195.29-3.91,78.26,10.96,177.65,58.7,344.35,3.91,180.16-59.21,430.03-171.32,619.83-189.39,131.48-12.52,131.74-6.27,208.39,0"/>
  <path class="cls-1" d="M0,496.67c47.46-20.35,166.7-7.91,195.29-3.91,78.26,10.96,177.65,58.7,344.35,3.91,180.16-59.21,430.03-171.32,619.83-189.39,131.48-12.52,131.74-6.27,208.39,0"/>
  <path class="cls-1" d="M-.43,658.58c47.46-20.35,155.19-7.91,183.78-3.91,78.26,10.96,177.65,58.7,344.35,3.91,180.16-59.21,430.03-171.32,619.83-189.39,131.48-12.52,141.74-6.27,218.39,0"/>
  <path class="cls-1" d="M-.43,677.99c47.46-20.35,155.19-7.91,183.78-3.91,78.26,10.96,177.65,58.7,344.35,3.91,180.16-59.21,430.03-171.32,619.83-189.39,131.48-12.52,141.74-6.27,218.39,0"/>
  <path class="cls-1" d="M0,700.65c47.46-20.35,166.7-7.91,195.29-3.91,78.26,10.96,177.65,58.7,344.35,3.91,180.16-59.21,430.03-171.32,619.83-189.39,131.48-12.52,130.74-6.27,207.39,0"/>
  <path class="cls-1" d="M0,725.11c47.46-20.35,166.7-7.91,195.29-3.91,78.26,10.96,177.65,58.7,344.35,3.91,180.16-59.21,430.03-171.32,619.83-189.39,131.48-12.52,130.74-6.27,207.39,0"/>
</svg>