<?xml version="1.0" encoding="UTF-8"?>
<svg xmlns="http://www.w3.org/2000/svg" xmlns:xlink="http://www.w3.org/1999/xlink" viewBox="0 0 1347.31 987.87">
  <defs>
    <style>
      .cls-1 {
        filter: url(#drop-shadow-29);
      }

      .cls-1, .cls-2, .cls-3, .cls-4, .cls-5, .cls-6, .cls-7, .cls-8, .cls-9, .cls-10, .cls-11, .cls-12, .cls-13, .cls-14, .cls-15, .cls-16, .cls-17, .cls-18, .cls-19, .cls-20, .cls-21, .cls-22, .cls-23, .cls-24, .cls-25, .cls-26, .cls-27, .cls-28, .cls-29, .cls-30, .cls-31, .cls-32, .cls-33, .cls-34, .cls-35, .cls-36, .cls-37, .cls-38 {
        fill: #3a3a3a;
      }

      .cls-39, .cls-40, .cls-41, .cls-42, .cls-43, .cls-44, .cls-45, .cls-46, .cls-47, .cls-48, .cls-49, .cls-50, .cls-51, .cls-52, .cls-53, .cls-54, .cls-55, .cls-56, .cls-57, .cls-58, .cls-59, .cls-60, .cls-61 {
        fill: #bf2026;
      }

      .cls-62 {
        stroke-width: .75px;
      }

      .cls-62, .cls-63 {
        fill: none;
      }

      .cls-62, .cls-63, .cls-64 {
        stroke-miterlimit: 10;
      }

      .cls-62, .cls-64 {
        stroke: #3a3a3a;
      }

      .cls-2 {
        filter: url(#drop-shadow-11);
      }

      .cls-3 {
        filter: url(#drop-shadow-27);
      }

      .cls-40 {
        filter: url(#drop-shadow-51);
      }

      .cls-65 {
        fill: url(#linear-gradient-2);
      }

      .cls-41 {
        filter: url(#drop-shadow-46);
      }

      .cls-66 {
        fill: #727272;
      }

      .cls-42 {
        filter: url(#drop-shadow-62);
      }

      .cls-43 {
        filter: url(#drop-shadow-57);
      }

      .cls-44 {
        filter: url(#drop-shadow-43);
      }

      .cls-4 {
        filter: url(#drop-shadow-25);
      }

      .cls-45 {
        filter: url(#drop-shadow-41);
      }

      .cls-67, .cls-68, .cls-64 {
        fill: #fff;
      }

      .cls-46 {
        filter: url(#drop-shadow-50);
      }

      .cls-69 {
        fill: #541015;
      }

      .cls-47 {
        filter: url(#drop-shadow-47);
      }

      .cls-63 {
        stroke: #fff;
      }

      .cls-5 {
        filter: url(#drop-shadow-12);
      }

      .cls-6 {
        filter: url(#drop-shadow-21);
      }

      .cls-7 {
        filter: url(#drop-shadow-34);
      }

      .cls-8 {
        filter: url(#drop-shadow-33);
      }

      .cls-9 {
        filter: url(#drop-shadow-26);
      }

      .cls-10 {
        filter: url(#drop-shadow-16);
      }

      .cls-11 {
        filter: url(#drop-shadow-8);
      }

      .cls-12 {
        filter: url(#drop-shadow-4);
      }

      .cls-70 {
        fill: #f2f2f2;
      }

      .cls-13 {
        filter: url(#drop-shadow-35);
      }

      .cls-14 {
        filter: url(#drop-shadow-5);
      }

      .cls-15 {
        filter: url(#drop-shadow-30);
      }

      .cls-48 {
        filter: url(#drop-shadow-42);
      }

      .cls-17 {
        filter: url(#drop-shadow-6);
      }

      .cls-18 {
        filter: url(#drop-shadow-19);
      }

      .cls-71 {
        fill: #999;
        filter: url(#drop-shadow-1);
      }

      .cls-49 {
        filter: url(#drop-shadow-54);
      }

      .cls-19 {
        filter: url(#drop-shadow-14);
      }

      .cls-20 {
        filter: url(#drop-shadow-38);
      }

      .cls-21 {
        filter: url(#drop-shadow-15);
      }

      .cls-50 {
        filter: url(#drop-shadow-58);
      }

      .cls-22 {
        filter: url(#drop-shadow-13);
      }

      .cls-68 {
        opacity: .56;
      }

      .cls-23 {
        filter: url(#drop-shadow-32);
      }

      .cls-24 {
        filter: url(#drop-shadow-7);
      }

      .cls-25 {
        filter: url(#drop-shadow-17);
      }

      .cls-26 {
        filter: url(#drop-shadow-9);
      }

      .cls-27 {
        filter: url(#drop-shadow-31);
      }

      .cls-28 {
        filter: url(#drop-shadow-23);
      }

      .cls-29 {
        filter: url(#drop-shadow-24);
      }

      .cls-51 {
        filter: url(#drop-shadow-53);
      }

      .cls-72 {
        fill: #515151;
      }

      .cls-73 {
        filter: url(#drop-shadow-40);
      }

      .cls-30 {
        filter: url(#drop-shadow-36);
      }

      .cls-31 {
        filter: url(#drop-shadow-2);
      }

      .cls-52 {
        filter: url(#drop-shadow-49);
      }

      .cls-74 {
        fill: #7cdd6b;
      }

      .cls-64 {
        stroke-width: .5px;
      }

      .cls-32 {
        filter: url(#drop-shadow-22);
      }

      .cls-53 {
        filter: url(#drop-shadow-44);
      }

      .cls-54 {
        filter: url(#drop-shadow-55);
      }

      .cls-75 {
        fill: #ccc;
        filter: url(#drop-shadow-10);
      }

      .cls-76 {
        fill: gray;
      }

      .cls-77 {
        fill: #ef3c49;
      }

      .cls-55 {
        filter: url(#drop-shadow-52);
      }

      .cls-56 {
        filter: url(#drop-shadow-45);
      }

      .cls-57 {
        filter: url(#drop-shadow-48);
      }

      .cls-33 {
        filter: url(#drop-shadow-20);
      }

      .cls-78 {
        fill: url(#linear-gradient);
      }

      .cls-34 {
        filter: url(#drop-shadow-28);
      }

      .cls-35 {
        filter: url(#drop-shadow-37);
      }

      .cls-36 {
        filter: url(#drop-shadow-39);
      }

      .cls-58 {
        filter: url(#drop-shadow-56);
      }

      .cls-37 {
        filter: url(#drop-shadow-3);
      }

      .cls-59 {
        filter: url(#drop-shadow-61);
      }

      .cls-60 {
        filter: url(#drop-shadow-60);
      }

      .cls-38 {
        filter: url(#drop-shadow-18);
      }

      .cls-61 {
        filter: url(#drop-shadow-59);
      }
    </style>
    <linearGradient id="linear-gradient" x1="907.19" y1="234.65" x2="1298.38" y2="234.65" gradientUnits="userSpaceOnUse">
      <stop offset="0" stop-color="#fcee21"/>
      <stop offset="1" stop-color="#f15a24"/>
    </linearGradient>
    <linearGradient id="linear-gradient-2" x1="894.33" y1="763.15" x2="1347.31" y2="763.15" xlink:href="#linear-gradient"/>
    <filter id="drop-shadow-1" x="108" y="13.87" width="835" height="897" filterUnits="userSpaceOnUse">
      <feOffset dx="-2" dy="3"/>
      <feGaussianBlur result="blur" stdDeviation="5"/>
      <feFlood flood-color="#000" flood-opacity=".75"/>
      <feComposite in2="blur" operator="in"/>
      <feComposite in="SourceGraphic"/>
    </filter>
    <filter id="drop-shadow-2" x="425" y="26.87" width="444" height="279" filterUnits="userSpaceOnUse">
      <feOffset dx="-2" dy="3"/>
      <feGaussianBlur result="blur-2" stdDeviation="5"/>
      <feFlood flood-color="#000" flood-opacity=".75"/>
      <feComposite in2="blur-2" operator="in"/>
      <feComposite in="SourceGraphic"/>
    </filter>
    <filter id="drop-shadow-3" x="477" y="84.87" width="76" height="48" filterUnits="userSpaceOnUse">
      <feOffset dx="-2" dy="3"/>
      <feGaussianBlur result="blur-3" stdDeviation="5"/>
      <feFlood flood-color="#000" flood-opacity=".75"/>
      <feComposite in2="blur-3" operator="in"/>
      <feComposite in="SourceGraphic"/>
    </filter>
    <filter id="drop-shadow-4" x="477" y="117.87" width="76" height="47" filterUnits="userSpaceOnUse">
      <feOffset dx="-2" dy="3"/>
      <feGaussianBlur result="blur-4" stdDeviation="5"/>
      <feFlood flood-color="#000" flood-opacity=".75"/>
      <feComposite in2="blur-4" operator="in"/>
      <feComposite in="SourceGraphic"/>
    </filter>
    <filter id="drop-shadow-5" x="477" y="149.87" width="76" height="48" filterUnits="userSpaceOnUse">
      <feOffset dx="-2" dy="3"/>
      <feGaussianBlur result="blur-5" stdDeviation="5"/>
      <feFlood flood-color="#000" flood-opacity=".75"/>
      <feComposite in2="blur-5" operator="in"/>
      <feComposite in="SourceGraphic"/>
    </filter>
    <filter id="drop-shadow-6" x="558" y="234.87" width="76" height="48" filterUnits="userSpaceOnUse">
      <feOffset dx="-2" dy="3"/>
      <feGaussianBlur result="blur-6" stdDeviation="5"/>
      <feFlood flood-color="#000" flood-opacity=".75"/>
      <feComposite in2="blur-6" operator="in"/>
      <feComposite in="SourceGraphic"/>
    </filter>
    <filter id="drop-shadow-7" x="768" y="234.87" width="75" height="48" filterUnits="userSpaceOnUse">
      <feOffset dx="-2" dy="3"/>
      <feGaussianBlur result="blur-7" stdDeviation="5"/>
      <feFlood flood-color="#000" flood-opacity=".75"/>
      <feComposite in2="blur-7" operator="in"/>
      <feComposite in="SourceGraphic"/>
    </filter>
    <filter id="drop-shadow-8" x="698" y="234.87" width="76" height="48" filterUnits="userSpaceOnUse">
      <feOffset dx="-2" dy="3"/>
      <feGaussianBlur result="blur-8" stdDeviation="5"/>
      <feFlood flood-color="#000" flood-opacity=".75"/>
      <feComposite in2="blur-8" operator="in"/>
      <feComposite in="SourceGraphic"/>
    </filter>
    <filter id="drop-shadow-9" x="628" y="234.87" width="76" height="48" filterUnits="userSpaceOnUse">
      <feOffset dx="-2" dy="3"/>
      <feGaussianBlur result="blur-9" stdDeviation="5"/>
      <feFlood flood-color="#000" flood-opacity=".75"/>
      <feComposite in2="blur-9" operator="in"/>
      <feComposite in="SourceGraphic"/>
    </filter>
    <filter id="drop-shadow-10" x="598" y="327.87" width="137" height="137" filterUnits="userSpaceOnUse">
      <feOffset dx="-4" dy="5"/>
      <feGaussianBlur result="blur-10" stdDeviation="5"/>
      <feFlood flood-color="#000" flood-opacity=".75"/>
      <feComposite in2="blur-10" operator="in"/>
      <feComposite in="SourceGraphic"/>
    </filter>
    <filter id="drop-shadow-11" x="639" y="363.87" width="66" height="66" filterUnits="userSpaceOnUse">
      <feOffset dx="-4" dy="5"/>
      <feGaussianBlur result="blur-11" stdDeviation="5"/>
      <feFlood flood-color="#000" flood-opacity=".75"/>
      <feComposite in2="blur-11" operator="in"/>
      <feComposite in="SourceGraphic"/>
    </filter>
    <filter id="drop-shadow-12" x="639" y="417.87" width="66" height="66" filterUnits="userSpaceOnUse">
      <feOffset dx="-4" dy="5"/>
      <feGaussianBlur result="blur-12" stdDeviation="5"/>
      <feFlood flood-color="#000" flood-opacity=".75"/>
      <feComposite in2="blur-12" operator="in"/>
      <feComposite in="SourceGraphic"/>
    </filter>
    <filter id="drop-shadow-13" x="585" y="363.87" width="66" height="66" filterUnits="userSpaceOnUse">
      <feOffset dx="-4" dy="5"/>
      <feGaussianBlur result="blur-13" stdDeviation="5"/>
      <feFlood flood-color="#000" flood-opacity=".75"/>
      <feComposite in2="blur-13" operator="in"/>
      <feComposite in="SourceGraphic"/>
    </filter>
    <filter id="drop-shadow-14" x="639" y="308.87" width="66" height="67" filterUnits="userSpaceOnUse">
      <feOffset dx="-4" dy="5"/>
      <feGaussianBlur result="blur-14" stdDeviation="5"/>
      <feFlood flood-color="#000" flood-opacity=".75"/>
      <feComposite in2="blur-14" operator="in"/>
      <feComposite in="SourceGraphic"/>
    </filter>
    <filter id="drop-shadow-15" x="692" y="363.87" width="66" height="66" filterUnits="userSpaceOnUse">
      <feOffset dx="-4" dy="5"/>
      <feGaussianBlur result="blur-15" stdDeviation="5"/>
      <feFlood flood-color="#000" flood-opacity=".75"/>
      <feComposite in2="blur-15" operator="in"/>
      <feComposite in="SourceGraphic"/>
    </filter>
    <filter id="drop-shadow-16" x="795" y="732.87" width="120" height="78" filterUnits="userSpaceOnUse">
      <feOffset dx="-4" dy="5"/>
      <feGaussianBlur result="blur-16" stdDeviation="5"/>
      <feFlood flood-color="#000" flood-opacity=".75"/>
      <feComposite in2="blur-16" operator="in"/>
      <feComposite in="SourceGraphic"/>
    </filter>
    <filter id="drop-shadow-17" x="449" y="365.87" width="83" height="53" filterUnits="userSpaceOnUse">
      <feOffset dx="-4" dy="5"/>
      <feGaussianBlur result="blur-17" stdDeviation="5"/>
      <feFlood flood-color="#000" flood-opacity=".75"/>
      <feComposite in2="blur-17" operator="in"/>
      <feComposite in="SourceGraphic"/>
    </filter>
    <filter id="drop-shadow-18" x="449" y="325.87" width="83" height="53" filterUnits="userSpaceOnUse">
      <feOffset dx="-4" dy="5"/>
      <feGaussianBlur result="blur-18" stdDeviation="5"/>
      <feFlood flood-color="#000" flood-opacity=".75"/>
      <feComposite in2="blur-18" operator="in"/>
      <feComposite in="SourceGraphic"/>
    </filter>
    <filter id="drop-shadow-19" x="449" y="406.87" width="83" height="53" filterUnits="userSpaceOnUse">
      <feOffset dx="-4" dy="5"/>
      <feGaussianBlur result="blur-19" stdDeviation="5"/>
      <feFlood flood-color="#000" flood-opacity=".75"/>
      <feComposite in2="blur-19" operator="in"/>
      <feComposite in="SourceGraphic"/>
    </filter>
    <filter id="drop-shadow-20" x="810" y="365.87" width="83" height="53" filterUnits="userSpaceOnUse">
      <feOffset dx="-4" dy="5"/>
      <feGaussianBlur result="blur-20" stdDeviation="5"/>
      <feFlood flood-color="#000" flood-opacity=".75"/>
      <feComposite in2="blur-20" operator="in"/>
      <feComposite in="SourceGraphic"/>
    </filter>
    <filter id="drop-shadow-21" x="810" y="406.87" width="83" height="53" filterUnits="userSpaceOnUse">
      <feOffset dx="-4" dy="5"/>
      <feGaussianBlur result="blur-21" stdDeviation="5"/>
      <feFlood flood-color="#000" flood-opacity=".75"/>
      <feComposite in2="blur-21" operator="in"/>
      <feComposite in="SourceGraphic"/>
    </filter>
    <filter id="drop-shadow-22" x="810" y="475.87" width="83" height="53" filterUnits="userSpaceOnUse">
      <feOffset dx="-4" dy="5"/>
      <feGaussianBlur result="blur-22" stdDeviation="5"/>
      <feFlood flood-color="#000" flood-opacity=".75"/>
      <feComposite in2="blur-22" operator="in"/>
      <feComposite in="SourceGraphic"/>
    </filter>
    <filter id="drop-shadow-23" x="810" y="531.87" width="83" height="53" filterUnits="userSpaceOnUse">
      <feOffset dx="-4" dy="5"/>
      <feGaussianBlur result="blur-23" stdDeviation="5"/>
      <feFlood flood-color="#000" flood-opacity=".75"/>
      <feComposite in2="blur-23" operator="in"/>
      <feComposite in="SourceGraphic"/>
    </filter>
    <filter id="drop-shadow-24" x="810" y="586.87" width="83" height="53" filterUnits="userSpaceOnUse">
      <feOffset dx="-4" dy="5"/>
      <feGaussianBlur result="blur-24" stdDeviation="5"/>
      <feFlood flood-color="#000" flood-opacity=".75"/>
      <feComposite in2="blur-24" operator="in"/>
      <feComposite in="SourceGraphic"/>
    </filter>
    <filter id="drop-shadow-25" x="454" y="475.87" width="119" height="78" filterUnits="userSpaceOnUse">
      <feOffset dx="-4" dy="5"/>
      <feGaussianBlur result="blur-25" stdDeviation="5"/>
      <feFlood flood-color="#000" flood-opacity=".75"/>
      <feComposite in2="blur-25" operator="in"/>
      <feComposite in="SourceGraphic"/>
    </filter>
    <filter id="drop-shadow-26" x="560" y="475.87" width="120" height="78" filterUnits="userSpaceOnUse">
      <feOffset dx="-4" dy="5"/>
      <feGaussianBlur result="blur-26" stdDeviation="5"/>
      <feFlood flood-color="#000" flood-opacity=".75"/>
      <feComposite in2="blur-26" operator="in"/>
      <feComposite in="SourceGraphic"/>
    </filter>
    <filter id="drop-shadow-27" x="667" y="475.87" width="120" height="78" filterUnits="userSpaceOnUse">
      <feOffset dx="-4" dy="5"/>
      <feGaussianBlur result="blur-27" stdDeviation="5"/>
      <feFlood flood-color="#000" flood-opacity=".75"/>
      <feComposite in2="blur-27" operator="in"/>
      <feComposite in="SourceGraphic"/>
    </filter>
    <filter id="drop-shadow-28" x="454" y="541.87" width="119" height="78" filterUnits="userSpaceOnUse">
      <feOffset dx="-4" dy="5"/>
      <feGaussianBlur result="blur-28" stdDeviation="5"/>
      <feFlood flood-color="#000" flood-opacity=".75"/>
      <feComposite in2="blur-28" operator="in"/>
      <feComposite in="SourceGraphic"/>
    </filter>
    <filter id="drop-shadow-29" x="560" y="541.87" width="120" height="78" filterUnits="userSpaceOnUse">
      <feOffset dx="-4" dy="5"/>
      <feGaussianBlur result="blur-29" stdDeviation="5"/>
      <feFlood flood-color="#000" flood-opacity=".75"/>
      <feComposite in2="blur-29" operator="in"/>
      <feComposite in="SourceGraphic"/>
    </filter>
    <filter id="drop-shadow-30" x="667" y="541.87" width="120" height="78" filterUnits="userSpaceOnUse">
      <feOffset dx="-4" dy="5"/>
      <feGaussianBlur result="blur-30" stdDeviation="5"/>
      <feFlood flood-color="#000" flood-opacity=".75"/>
      <feComposite in2="blur-30" operator="in"/>
      <feComposite in="SourceGraphic"/>
    </filter>
    <filter id="drop-shadow-31" x="454" y="606.87" width="119" height="78" filterUnits="userSpaceOnUse">
      <feOffset dx="-4" dy="5"/>
      <feGaussianBlur result="blur-31" stdDeviation="5"/>
      <feFlood flood-color="#000" flood-opacity=".75"/>
      <feComposite in2="blur-31" operator="in"/>
      <feComposite in="SourceGraphic"/>
    </filter>
    <filter id="drop-shadow-32" x="560" y="606.87" width="120" height="78" filterUnits="userSpaceOnUse">
      <feOffset dx="-4" dy="5"/>
      <feGaussianBlur result="blur-32" stdDeviation="5"/>
      <feFlood flood-color="#000" flood-opacity=".75"/>
      <feComposite in2="blur-32" operator="in"/>
      <feComposite in="SourceGraphic"/>
    </filter>
    <filter id="drop-shadow-33" x="667" y="606.87" width="120" height="78" filterUnits="userSpaceOnUse">
      <feOffset dx="-4" dy="5"/>
      <feGaussianBlur result="blur-33" stdDeviation="5"/>
      <feFlood flood-color="#000" flood-opacity=".75"/>
      <feComposite in2="blur-33" operator="in"/>
      <feComposite in="SourceGraphic"/>
    </filter>
    <filter id="drop-shadow-34" x="454" y="672.87" width="119" height="78" filterUnits="userSpaceOnUse">
      <feOffset dx="-4" dy="5"/>
      <feGaussianBlur result="blur-34" stdDeviation="5"/>
      <feFlood flood-color="#000" flood-opacity=".75"/>
      <feComposite in2="blur-34" operator="in"/>
      <feComposite in="SourceGraphic"/>
    </filter>
    <filter id="drop-shadow-35" x="560" y="672.87" width="120" height="78" filterUnits="userSpaceOnUse">
      <feOffset dx="-4" dy="5"/>
      <feGaussianBlur result="blur-35" stdDeviation="5"/>
      <feFlood flood-color="#000" flood-opacity=".75"/>
      <feComposite in2="blur-35" operator="in"/>
      <feComposite in="SourceGraphic"/>
    </filter>
    <filter id="drop-shadow-36" x="667" y="672.87" width="120" height="78" filterUnits="userSpaceOnUse">
      <feOffset dx="-4" dy="5"/>
      <feGaussianBlur result="blur-36" stdDeviation="5"/>
      <feFlood flood-color="#000" flood-opacity=".75"/>
      <feComposite in2="blur-36" operator="in"/>
      <feComposite in="SourceGraphic"/>
    </filter>
    <filter id="drop-shadow-37" x="454" y="756.87" width="119" height="56" filterUnits="userSpaceOnUse">
      <feOffset dx="-4" dy="5"/>
      <feGaussianBlur result="blur-37" stdDeviation="5"/>
      <feFlood flood-color="#000" flood-opacity=".75"/>
      <feComposite in2="blur-37" operator="in"/>
      <feComposite in="SourceGraphic"/>
    </filter>
    <filter id="drop-shadow-38" x="560" y="756.87" width="120" height="56" filterUnits="userSpaceOnUse">
      <feOffset dx="-4" dy="5"/>
      <feGaussianBlur result="blur-38" stdDeviation="5"/>
      <feFlood flood-color="#000" flood-opacity=".75"/>
      <feComposite in2="blur-38" operator="in"/>
      <feComposite in="SourceGraphic"/>
    </filter>
    <filter id="drop-shadow-39" x="667" y="756.87" width="120" height="56" filterUnits="userSpaceOnUse">
      <feOffset dx="-4" dy="5"/>
      <feGaussianBlur result="blur-39" stdDeviation="5"/>
      <feFlood flood-color="#000" flood-opacity=".75"/>
      <feComposite in2="blur-39" operator="in"/>
      <feComposite in="SourceGraphic"/>
    </filter>
    <filter id="drop-shadow-40" x="141" y="-10.13" width="261" height="856" filterUnits="userSpaceOnUse">
      <feOffset dx="-4" dy="5"/>
      <feGaussianBlur result="blur-40" stdDeviation="5"/>
      <feFlood flood-color="#000" flood-opacity=".75"/>
      <feComposite in2="blur-40" operator="in"/>
      <feComposite in="SourceGraphic"/>
    </filter>
    <filter id="drop-shadow-41" x="237" y="819.87" width="80" height="48" filterUnits="userSpaceOnUse">
      <feOffset dx="-2" dy="3"/>
      <feGaussianBlur result="blur-41" stdDeviation="5"/>
      <feFlood flood-color="#000" flood-opacity=".75"/>
      <feComposite in2="blur-41" operator="in"/>
      <feComposite in="SourceGraphic"/>
    </filter>
    <filter id="drop-shadow-42" x="237" y="842.87" width="80" height="48" filterUnits="userSpaceOnUse">
      <feOffset dx="-2" dy="3"/>
      <feGaussianBlur result="blur-42" stdDeviation="5"/>
      <feFlood flood-color="#000" flood-opacity=".75"/>
      <feComposite in2="blur-42" operator="in"/>
      <feComposite in="SourceGraphic"/>
    </filter>
    <filter id="drop-shadow-43" x="233" y="865.87" width="81" height="59" filterUnits="userSpaceOnUse">
      <feOffset dx="-2" dy="3"/>
      <feGaussianBlur result="blur-43" stdDeviation="5"/>
      <feFlood flood-color="#000" flood-opacity=".75"/>
      <feComposite in2="blur-43" operator="in"/>
      <feComposite in="SourceGraphic"/>
    </filter>
    <filter id="drop-shadow-44" x="218" y="887.87" width="77" height="72" filterUnits="userSpaceOnUse">
      <feOffset dx="-2" dy="3"/>
      <feGaussianBlur result="blur-44" stdDeviation="5"/>
      <feFlood flood-color="#000" flood-opacity=".75"/>
      <feComposite in2="blur-44" operator="in"/>
      <feComposite in="SourceGraphic"/>
    </filter>
    <filter id="drop-shadow-45" x="198" y="902.87" width="65" height="81" filterUnits="userSpaceOnUse">
      <feOffset dx="-2" dy="3"/>
      <feGaussianBlur result="blur-45" stdDeviation="5"/>
      <feFlood flood-color="#000" flood-opacity=".75"/>
      <feComposite in2="blur-45" operator="in"/>
      <feComposite in="SourceGraphic"/>
    </filter>
    <filter id="drop-shadow-46" x="176" y="908.87" width="48" height="79" filterUnits="userSpaceOnUse">
      <feOffset dx="-2" dy="3"/>
      <feGaussianBlur result="blur-46" stdDeviation="5"/>
      <feFlood flood-color="#000" flood-opacity=".75"/>
      <feComposite in2="blur-46" operator="in"/>
      <feComposite in="SourceGraphic"/>
    </filter>
    <filter id="drop-shadow-47" x="139" y="902.87" width="60" height="81" filterUnits="userSpaceOnUse">
      <feOffset dx="-2" dy="3"/>
      <feGaussianBlur result="blur-47" stdDeviation="5"/>
      <feFlood flood-color="#000" flood-opacity=".75"/>
      <feComposite in2="blur-47" operator="in"/>
      <feComposite in="SourceGraphic"/>
    </filter>
    <filter id="drop-shadow-48" x="103" y="886.87" width="77" height="74" filterUnits="userSpaceOnUse">
      <feOffset dx="-2" dy="3"/>
      <feGaussianBlur result="blur-48" stdDeviation="5"/>
      <feFlood flood-color="#000" flood-opacity=".75"/>
      <feComposite in2="blur-48" operator="in"/>
      <feComposite in="SourceGraphic"/>
    </filter>
    <filter id="drop-shadow-49" x="85" y="866.87" width="77" height="73" filterUnits="userSpaceOnUse">
      <feOffset dx="-2" dy="3"/>
      <feGaussianBlur result="blur-49" stdDeviation="5"/>
      <feFlood flood-color="#000" flood-opacity=".75"/>
      <feComposite in2="blur-49" operator="in"/>
      <feComposite in="SourceGraphic"/>
    </filter>
    <filter id="drop-shadow-50" x="64" y="841.87" width="77" height="74" filterUnits="userSpaceOnUse">
      <feOffset dx="-2" dy="3"/>
      <feGaussianBlur result="blur-50" stdDeviation="5"/>
      <feFlood flood-color="#000" flood-opacity=".75"/>
      <feComposite in2="blur-50" operator="in"/>
      <feComposite in="SourceGraphic"/>
    </filter>
    <filter id="drop-shadow-51" x="43" y="817.87" width="77" height="74" filterUnits="userSpaceOnUse">
      <feOffset dx="-2" dy="3"/>
      <feGaussianBlur result="blur-51" stdDeviation="5"/>
      <feFlood flood-color="#000" flood-opacity=".75"/>
      <feComposite in2="blur-51" operator="in"/>
      <feComposite in="SourceGraphic"/>
    </filter>
    <filter id="drop-shadow-52" x="21" y="791.87" width="77" height="73" filterUnits="userSpaceOnUse">
      <feOffset dx="-2" dy="3"/>
      <feGaussianBlur result="blur-52" stdDeviation="5"/>
      <feFlood flood-color="#000" flood-opacity=".75"/>
      <feComposite in2="blur-52" operator="in"/>
      <feComposite in="SourceGraphic"/>
    </filter>
    <filter id="drop-shadow-53" x="4" y="769.87" width="81" height="62" filterUnits="userSpaceOnUse">
      <feOffset dx="-2" dy="3"/>
      <feGaussianBlur result="blur-53" stdDeviation="5"/>
      <feFlood flood-color="#000" flood-opacity=".75"/>
      <feComposite in2="blur-53" operator="in"/>
      <feComposite in="SourceGraphic"/>
    </filter>
    <filter id="drop-shadow-54" x="0" y="745.87" width="79" height="48" filterUnits="userSpaceOnUse">
      <feOffset dx="-2" dy="3"/>
      <feGaussianBlur result="blur-54" stdDeviation="5"/>
      <feFlood flood-color="#000" flood-opacity=".75"/>
      <feComposite in2="blur-54" operator="in"/>
      <feComposite in="SourceGraphic"/>
    </filter>
    <filter id="drop-shadow-55" x="0" y="713.87" width="79" height="48" filterUnits="userSpaceOnUse">
      <feOffset dx="-2" dy="3"/>
      <feGaussianBlur result="blur-55" stdDeviation="5"/>
      <feFlood flood-color="#000" flood-opacity=".75"/>
      <feComposite in2="blur-55" operator="in"/>
      <feComposite in="SourceGraphic"/>
    </filter>
    <filter id="drop-shadow-56" x="0" y="682.87" width="79" height="47" filterUnits="userSpaceOnUse">
      <feOffset dx="-2" dy="3"/>
      <feGaussianBlur result="blur-56" stdDeviation="5"/>
      <feFlood flood-color="#000" flood-opacity=".75"/>
      <feComposite in2="blur-56" operator="in"/>
      <feComposite in="SourceGraphic"/>
    </filter>
    <filter id="drop-shadow-57" x="0" y="653.87" width="79" height="48" filterUnits="userSpaceOnUse">
      <feOffset dx="-2" dy="3"/>
      <feGaussianBlur result="blur-57" stdDeviation="5"/>
      <feFlood flood-color="#000" flood-opacity=".75"/>
      <feComposite in2="blur-57" operator="in"/>
      <feComposite in="SourceGraphic"/>
    </filter>
    <filter id="drop-shadow-58" x="0" y="624.87" width="79" height="48" filterUnits="userSpaceOnUse">
      <feOffset dx="-2" dy="3"/>
      <feGaussianBlur result="blur-58" stdDeviation="5"/>
      <feFlood flood-color="#000" flood-opacity=".75"/>
      <feComposite in2="blur-58" operator="in"/>
      <feComposite in="SourceGraphic"/>
    </filter>
    <filter id="drop-shadow-59" x="0" y="596.87" width="79" height="47" filterUnits="userSpaceOnUse">
      <feOffset dx="-2" dy="3"/>
      <feGaussianBlur result="blur-59" stdDeviation="5"/>
      <feFlood flood-color="#000" flood-opacity=".75"/>
      <feComposite in2="blur-59" operator="in"/>
      <feComposite in="SourceGraphic"/>
    </filter>
    <filter id="drop-shadow-60" x="0" y="551.87" width="80" height="68" filterUnits="userSpaceOnUse">
      <feOffset dx="-2" dy="3"/>
      <feGaussianBlur result="blur-60" stdDeviation="5"/>
      <feFlood flood-color="#000" flood-opacity=".75"/>
      <feComposite in2="blur-60" operator="in"/>
      <feComposite in="SourceGraphic"/>
    </filter>
    <filter id="drop-shadow-61" x="28" y="515.87" width="68" height="80" filterUnits="userSpaceOnUse">
      <feOffset dx="-2" dy="3"/>
      <feGaussianBlur result="blur-61" stdDeviation="5"/>
      <feFlood flood-color="#000" flood-opacity=".75"/>
      <feComposite in2="blur-61" operator="in"/>
      <feComposite in="SourceGraphic"/>
    </filter>
    <filter id="drop-shadow-62" x="72" y="504.87" width="48" height="80" filterUnits="userSpaceOnUse">
      <feOffset dx="-2" dy="3"/>
      <feGaussianBlur result="blur-62" stdDeviation="5"/>
      <feFlood flood-color="#000" flood-opacity=".75"/>
      <feComposite in2="blur-62" operator="in"/>
      <feComposite in="SourceGraphic"/>
    </filter>
  </defs>
  <g id="Layer_3" data-name="Layer 3">
    <path class="cls-78" d="M1291.66,285.62c-3.05,0-5.62,2.03-6.45,4.82h-85.4v-35.83c2.78-.82,4.82-3.4,4.82-6.45,0-3.71-3.01-6.73-6.73-6.73s-6.73,3.01-6.73,6.73c0,3.05,2.03,5.62,4.82,6.45v35.83h-86.73v80.54h-56.26v-219.4h85.35v-80.62c2.78-.82,4.82-3.4,4.82-6.45,0-3.71-3.01-6.73-6.73-6.73s-6.73,3.01-6.73,6.73c0,3.05,2.03,5.62,4.82,6.45v76.8h-81.53V21.34c2.78-.82,4.82-3.4,4.82-6.45,0-3.71-3.01-6.73-6.73-6.73s-6.73,3.01-6.73,6.73c0,3.05,2.03,5.62,4.82,6.45v242.64h-79.63v-81.15c2.78-.82,4.82-3.4,4.82-6.45,0-3.71-3.01-6.73-6.73-6.73s-6.73,3.01-6.73,6.73c0,3.05,2.03,5.62,4.82,6.45v84.97h83.44v103.17h-141.99v3.82h65.64v81.53h178.94c.82,2.78,3.4,4.82,6.45,4.82,3.71,0,6.73-3.01,6.73-6.73s-3.01-6.73-6.73-6.73c-3.05,0-5.62,2.03-6.45,4.82h-175.12v-77.72h208.08c.82,2.78,3.4,4.82,6.45,4.82,3.71,0,6.73-3.01,6.73-6.73s-3.01-6.73-6.73-6.73c-3.05,0-5.62,2.03-6.45,4.82h-71.65v-76.72h172.14c.82,2.78,3.4,4.82,6.45,4.82,3.71,0,6.73-3.01,6.73-6.73s-3.01-6.73-6.73-6.73Z"/>
    <path class="cls-65" d="M1340.58,708.64c-3.05,0-5.62,2.03-6.45,4.82h-242.64v-79.63h81.15c.82,2.78,3.4,4.82,6.45,4.82,3.71,0,6.73-3.01,6.73-6.73s-3.01-6.73-6.73-6.73c-3.05,0-5.62,2.03-6.45,4.82h-84.97v83.44h-103.17v-134.36c3.5-.78,6.11-3.9,6.11-7.63,0-4.32-3.5-7.83-7.83-7.83s-7.83,3.5-7.83,7.83c0,3.59,2.43,6.61,5.73,7.53v58.11h-81.53v178.94c-2.78.82-4.82,3.4-4.82,6.45,0,3.71,3.01,6.73,6.73,6.73s6.73-3.01,6.73-6.73c0-3.05-2.03-5.62-4.82-6.45v-175.12h77.72v208.08c-2.78.82-4.82,3.4-4.82,6.45,0,3.71,3.01,6.73,6.73,6.73s6.73-3.01,6.73-6.73c0-3.05-2.03-5.62-4.82-6.45v-71.65h76.72v172.14c-2.78.82-4.82,3.4-4.82,6.45,0,3.71,3.01,6.73,6.73,6.73s6.73-3.01,6.73-6.73c0-3.05-2.03-5.62-4.82-6.45v-85.4h35.83c.82,2.78,3.4,4.82,6.45,4.82,3.71,0,6.73-3.01,6.73-6.73s-3.01-6.73-6.73-6.73c-3.05,0-5.62,2.03-6.45,4.82h-35.83v-86.73h-80.54v-56.26h219.4v85.35h80.62c.82,2.78,3.4,4.82,6.45,4.82,3.71,0,6.73-3.01,6.73-6.73s-3.01-6.73-6.73-6.73c-3.05,0-5.62,2.03-6.45,4.82h-76.8v-81.53h126.42c.82,2.78,3.4,4.82,6.45,4.82,3.71,0,6.73-3.01,6.73-6.73s-3.01-6.73-6.73-6.73Z"/>
  </g>
  <g id="Layer_1" data-name="Layer 1">
    <path class="cls-16" d="M532.67,888.19c-1.3.2-2.63.2-3.94,0l-389.16-60.21c-6.27-.97-10.9-6.37-10.9-12.72V110.99h-.47c-7.11,0-12.87,5.76-12.87,12.87v712.02c0,6.35,4.63,11.75,10.9,12.72l389.16,60.21c1.3.2,2.63.2,3.94,0l389.16-60.21c6.27-.97,10.9-6.37,10.9-12.72v-7.53l-386.72,59.84Z"/>
    <path class="cls-16" d="M432.19,82.33v-42.4c0-7.11,5.76-12.87,12.87-12.87h-29.49c-7.11,0-12.87,5.76-12.87,12.87v42.4c0,7.11-5.76,12.87-12.87,12.87h29.49c7.11,0,12.87-5.76,12.87-12.87Z"/>
    <path class="cls-71" d="M883.37,94.01h-18.93c-7.11,0-12.87-5.76-12.87-12.87v-42.4c0-7.11-5.76-12.87-12.87-12.87h-409.6c-7.11,0-12.87,5.76-12.87,12.87v42.4c0,7.11-5.76,12.87-12.87,12.87H138.36c-7.11,0-12.87,5.76-12.87,12.87v712.02c0,6.35,4.63,11.75,10.9,12.72l389.16,60.21c1.3.2,2.63.2,3.94,0l389.16-60.21c6.27-.97,10.9-6.37,10.9-12.72v-475.55c0-4.15-2-8.04-5.36-10.45l-22.59-16.22c-3.37-2.42-5.36-6.31-5.36-10.45V106.88c0-7.11-5.76-12.87-12.87-12.87Z"/>
    <g>
      <rect x="433.6" y="39.99" width="412.17" height="247.34" rx="5.83" ry="5.83"/>
      <path d="M839.94,40.49c2.94,0,5.33,2.39,5.33,5.33v235.68c0,2.94-2.39,5.33-5.33,5.33h-400.52c-2.94,0-5.33-2.39-5.33-5.33V45.82c0-2.94,2.39-5.33,5.33-5.33h400.52M839.94,39.49h-400.52c-3.5,0-6.33,2.83-6.33,6.33v235.68c0,3.5,2.83,6.33,6.33,6.33h400.52c3.5,0,6.33-2.83,6.33-6.33V45.82c0-3.5-2.83-6.33-6.33-6.33h0Z"/>
    </g>
    <rect class="cls-31" x="442.64" y="39.49" width="413.17" height="248.34" rx="6.33" ry="6.33"/>
    <rect class="cls-66" x="447.69" y="44.73" width="403.82" height="237.87" rx="3.25" ry="3.25"/>
    <rect class="cls-39" x="824.04" y="20.66" width="14.36" height="34.95" rx="3.13" ry="3.13"/>
    <circle class="cls-76" cx="664.42" cy="391.57" r="53.36"/>
    <rect class="cls-16" x="569.39" y="68.72" width="254.65" height="156.03" rx="3.65" ry="3.65"/>
    <path class="cls-72" d="M819.67,68.72h-8.11c2.41,0,4.37,1.96,4.37,4.37v147.29c0,2.41-1.96,4.37-4.37,4.37h8.11c2.41,0,4.37-1.96,4.37-4.37V73.09c0-2.41-1.96-4.37-4.37-4.37Z"/>
    <g>
      <rect x="487.66" y="98.08" width="43.78" height="15.85" rx="2.37" ry="2.37"/>
      <path d="M529.08,98.58c1.03,0,1.87.84,1.87,1.87v11.11c0,1.03-.84,1.87-1.87,1.87h-39.04c-1.03,0-1.87-.84-1.87-1.87v-11.11c0-1.03.84-1.87,1.87-1.87h39.04M529.08,97.58h-39.04c-1.58,0-2.87,1.28-2.87,2.87v11.11c0,1.58,1.28,2.87,2.87,2.87h39.04c1.58,0,2.87-1.28,2.87-2.87v-11.11c0-1.58-1.28-2.87-2.87-2.87h0Z"/>
    </g>
    <g>
      <rect x="487.66" y="130.38" width="43.78" height="15.85" rx="2.37" ry="2.37"/>
      <path d="M529.08,130.88c1.03,0,1.87.84,1.87,1.87v11.11c0,1.03-.84,1.87-1.87,1.87h-39.04c-1.03,0-1.87-.84-1.87-1.87v-11.11c0-1.03.84-1.87,1.87-1.87h39.04M529.08,129.88h-39.04c-1.58,0-2.87,1.28-2.87,2.87v11.11c0,1.58,1.28,2.87,2.87,2.87h39.04c1.58,0,2.87-1.28,2.87-2.87v-11.11c0-1.58-1.28-2.87-2.87-2.87h0Z"/>
    </g>
    <g>
      <path d="M490.03,162.68h39.04c1.31,0,2.37,1.06,2.37,2.37v11.11c0,1.31-1.06,2.37-2.37,2.37h-39.04c-1.31,0-2.37-1.06-2.37-2.37v-11.11c0-1.31,1.06-2.37,2.37-2.37Z"/>
      <path d="M529.08,163.18c1.03,0,1.87.84,1.87,1.87v11.11c0,1.03-.84,1.87-1.87,1.87h-39.04c-1.03,0-1.87-.84-1.87-1.87v-11.11c0-1.03.84-1.87,1.87-1.87h39.04M529.08,162.18h-39.04c-1.58,0-2.87,1.28-2.87,2.87v11.11c0,1.58,1.28,2.87,2.87,2.87h39.04c1.58,0,2.87-1.28,2.87-2.87v-11.11c0-1.58-1.28-2.87-2.87-2.87h0Z"/>
    </g>
    <rect class="cls-37" x="494.5" y="97.58" width="44.78" height="16.85" rx="2.87" ry="2.87"/>
    <rect class="cls-12" x="494.5" y="129.88" width="44.78" height="16.85" rx="2.87" ry="2.87"/>
    <rect class="cls-14" x="494.5" y="162.18" width="44.78" height="16.85" rx="2.87" ry="2.87"/>
    <g>
      <rect x="569.89" y="248.34" width="43.78" height="15.85" rx="2.37" ry="2.37"/>
      <path d="M611.31,248.84c1.03,0,1.87.84,1.87,1.87v11.11c0,1.03-.84,1.87-1.87,1.87h-39.04c-1.03,0-1.87-.84-1.87-1.87v-11.11c0-1.03.84-1.87,1.87-1.87h39.04M611.31,247.84h-39.04c-1.58,0-2.87,1.28-2.87,2.87v11.11c0,1.58,1.28,2.87,2.87,2.87h39.04c1.58,0,2.87-1.28,2.87-2.87v-11.11c0-1.58-1.28-2.87-2.87-2.87h0Z"/>
    </g>
    <g>
      <rect x="779.76" y="248.34" width="43.78" height="15.85" rx="2.37" ry="2.37"/>
      <path d="M821.17,248.84c1.03,0,1.87.84,1.87,1.87v11.11c0,1.03-.84,1.87-1.87,1.87h-39.04c-1.03,0-1.87-.84-1.87-1.87v-11.11c0-1.03.84-1.87,1.87-1.87h39.04M821.17,247.84h-39.04c-1.58,0-2.87,1.28-2.87,2.87v11.11c0,1.58,1.28,2.87,2.87,2.87h39.04c1.58,0,2.87-1.28,2.87-2.87v-11.11c0-1.58-1.28-2.87-2.87-2.87h0Z"/>
    </g>
    <g>
      <path d="M712.85,248.34h39.04c1.31,0,2.37,1.06,2.37,2.37v11.11c0,1.31-1.06,2.37-2.37,2.37h-39.04c-1.31,0-2.37-1.06-2.37-2.37v-11.11c0-1.31,1.06-2.37,2.37-2.37Z"/>
      <path d="M751.89,248.84c1.03,0,1.87.84,1.87,1.87v11.11c0,1.03-.84,1.87-1.87,1.87h-39.04c-1.03,0-1.87-.84-1.87-1.87v-11.11c0-1.03.84-1.87,1.87-1.87h39.04M751.89,247.84h-39.04c-1.58,0-2.87,1.28-2.87,2.87v11.11c0,1.58,1.28,2.87,2.87,2.87h39.04c1.58,0,2.87-1.28,2.87-2.87v-11.11c0-1.58-1.28-2.87-2.87-2.87h0Z"/>
    </g>
    <g>
      <rect x="640.19" y="248.34" width="43.78" height="15.85" rx="2.37" ry="2.37"/>
      <path d="M681.6,248.84c1.03,0,1.87.84,1.87,1.87v11.11c0,1.03-.84,1.87-1.87,1.87h-39.04c-1.03,0-1.87-.84-1.87-1.87v-11.11c0-1.03.84-1.87,1.87-1.87h39.04M681.6,247.84h-39.04c-1.58,0-2.87,1.28-2.87,2.87v11.11c0,1.58,1.28,2.87,2.87,2.87h39.04c1.58,0,2.87-1.28,2.87-2.87v-11.11c0-1.58-1.28-2.87-2.87-2.87h0Z"/>
    </g>
    <rect class="cls-17" x="575.33" y="247.84" width="44.78" height="16.85" rx="2.87" ry="2.87"/>
    <rect class="cls-24" x="785.19" y="247.84" width="44.78" height="16.85" rx="2.87" ry="2.87"/>
    <circle class="cls-67" cx="663.86" cy="191.53" r="17.32"/>
    <path class="cls-67" d="M698.43,162.71c-.85-1.23-2.47-3.56-5.07-6.06-.92-.89-3.89-3.64-8.53-6.05-1.98-1.03-5.7-2.75-10.7-3.68-1.55-.29-4.85-.81-9.07-.62-2.37.11-4.29.49-8.13,1.25-.94.18-2.52.51-4.25,1.54-.72.43-1.45.87-2.11,1.72-1.06,1.37-1.22,2.86-1.3,3.64-.05.5-.14,1.51.21,2.76.42,1.52,1.24,2.52,1.67,2.97.45.48,1.41,1.48,3.03,1.92,1.16.31,2.13.17,2.86.06,1.03-.15,1.42-.39,2.83-.85.55-.18,2.03-.66,3.78-.98,2.3-.42,4.02-.38,4.39-.37.34.01,1.48.05,2.97.33,2.43.45,4.2,1.22,5.44,1.77.83.37,2.16.97,3.76,2.02,2.05,1.35,3.41,2.69,3.91,3.2,1.43,1.46,2.3,2.76,2.78,3.47.69,1.03,1.26,1.89,1.81,3.15.23.54.46,1.14.95,2.1.4.78.62,1.2,1.03,1.68.16.19.73.85,1.7,1.43.43.26,1.41.82,2.81.93,1.2.09,2.09-.21,2.75-.44,1.24-.42,2.07-1.01,2.31-1.19.59-.44,1.8-1.33,2.42-2.92.56-1.42.35-2.67.16-3.83-.08-.48-.33-1.78-1.88-4.74-.53-1.01-1.26-2.4-2.54-4.25h0Z"/>
    <path class="cls-67" d="M729.58,155.76c-1.49-2.89-1.11-2.57-2.24-4.68-1.26-2.35-2.4-4.01-3.36-5.4-1.79-2.59-3.27-4.35-5.23-6.69-2.01-2.39-3.01-3.58-4.29-4.82-1.68-1.61-3.08-2.66-5.88-4.75-2.27-1.7-3.63-2.71-5.67-3.99-3.1-1.95-5.77-3.24-7.44-4-1.15-.52-3.63-1.6-6.93-2.66-3.01-.96-5.33-1.46-7.08-1.84-2.7-.57-5.4-1.15-9.05-1.39-2.21-.14-3.95-.11-5.64-.08-3.36.06-5.84.31-6.39.36-.78.08-3.29.34-6.55.96-2.16.41-3.61.68-5.58,1.28-2.27.69-2.06.85-4.48,1.55-1.05.3-1.63.43-2.41.92-1.41.87-2.1,2.03-2.26,2.32-.65,1.15-.77,2.19-.83,2.85-.06.59-.15,1.57.21,2.76.32,1.06.83,1.75,1.14,2.18.45.6,1.22,1.62,2.64,2.3,1.56.74,2.98.63,3.52.58.83-.08,1.12-.25,3.1-.95.63-.22,2.56-.91,4.17-1.36,1.61-.45,2.8-.65,4.42-.91,2.55-.42,4.5-.56,5.74-.65,1.82-.13,3.64-.26,6.08-.17,2.08.08,3.64.29,5.02.47,1.4.19,3.09.41,5.26.91,1.17.27,3.34.81,5.98,1.79,2.83,1.04,4.86,2.09,6.11,2.74.69.36,2.36,1.24,4.42,2.54,1.22.76,3.05,1.92,5.25,3.69,1.66,1.33,2.73,2.36,4.82,4.39,1.65,1.6,2.5,2.42,3.57,3.71,1.05,1.27,1.79,2.36,2.56,3.48.69,1.01,1.45,2.14,2.34,3.72.94,1.67,1.57,3.06,1.94,3.87.63,1.4.95,2.11,1.26,2.9.36.92.43,1.22.76,1.79.16.27.68,1.14,1.67,1.97.47.4,1.14.96,2.19,1.31.42.14,1.57.49,3.01.24.83-.14,1.42-.45,2.59-1.06,1.12-.59,1.69-.88,2.17-1.36,1.17-1.18,1.45-2.64,1.55-3.2.22-1.26.01-2.24-.18-3.08-.37-1.65-.92-2.53-1.96-4.55h0Z"/>
    <path class="cls-67" d="M664.87,84.71c-1.95-.01-2.55-.07-3.91.03-1.22.09-1.9.21-3.79.52-4.25.69-3.77.53-6.46,1-2.55.45-4.51.86-5.36,1.04-2.16.46-3.88.84-6.12,1.48-2.85.83-2.54,1.02-4.57,1.51-1.47.36-2.44.46-3.76,1.2-1.13.63-1.77,1.3-2.07,1.63-.37.42-.91,1.04-1.23,2.01-.25.75-.22,1.44-.15,2.82.06,1.28.09,1.92.33,2.48.28.63.73,1.11,1.63,2.07.62.65.92.98,1.33,1.26.28.2,1.36.92,2.86,1.06.78.07,1.34-.05,3.29-.64,1.92-.58,3.37-1.08,3.9-1.26,2.41-.82,3.61-1.22,4.8-1.52,1.5-.38,1.5-.27,4.87-.93,2.91-.57,2.7-.61,4.42-.91.91-.16,3.13-.53,6.01-.75,1.89-.15,3.3-.17,4.54-.19,1.59-.02,3.76-.05,6.5.13,1.02.07,2.77.28,6.25.69,2.4.28,3.6.43,4.11.51,3.19.51,5.61,1.21,7.25,1.69,1.57.46,2.66.84,4.65,1.53.8.28,2.83.99,5.54,2.04,3.1,1.2,4.64,1.8,6.57,2.72.58.28,2.51,1.21,4.93,2.65,3.1,1.84,5.29,3.49,6.73,4.58.55.41,2.23,1.69,4.33,3.5,2.1,1.81,3.62,3.28,4.49,4.13.93.9,1.9,1.85,3.13,3.18,1.39,1.5,2.38,2.69,3.15,3.64.77.94,1.7,2.06,2.83,3.61,1.31,1.78,2.22,3.18,2.96,4.33.94,1.46,1.57,2.53,2.44,3.99,1.04,1.75,1.57,2.65,2.11,3.73.36.71.74,1.59,1.51,3.34,1.01,2.32,1.52,3.48,1.67,3.97.32,1.06.39,1.62.92,2.41.56.84,1.22,1.33,1.61,1.61.23.17,1.27.9,2.87,1.29.9.22,2.07.5,3.5.12,1.95-.51,3.05-1.91,3.4-2.37.65-.86.94-1.68,1.22-2.46.32-.92.54-1.53.49-2.34-.05-.93-.4-1.32-.93-2.64-.5-1.27-.62-2.03-.85-2.83-.75-2.69-2.81-5.53-3.68-7.43-1.56-3.44-3.13-6.4-4.69-8.89-1.62-2.58-3.67-4.88-7.76-9.49-3.86-4.34-5.79-6.51-8.79-9.17-2.56-2.27-4.73-3.87-7.15-5.65-3.47-2.56-6.33-4.42-8-5.48-2.21-1.39-3.86-2.44-6.25-3.69-2.84-1.49-5.01-2.37-7.87-3.53-3.34-1.35-6.13-2.48-10.06-3.62-1.38-.4-5.11-1.45-10-2.26-1.62-.27-3.85-.53-8.31-1.06-3.47-.41-4.34-.47-5.34-.5-2.22-.07-2.39.1-6.04.07h0Z"/>
    <rect class="cls-11" x="715.92" y="247.84" width="44.78" height="16.85" rx="2.87" ry="2.87"/>
    <rect class="cls-26" x="645.62" y="247.84" width="44.78" height="16.85" rx="2.87" ry="2.87"/>
    <circle class="cls-75" cx="670.4" cy="391.57" r="52.98"/>
    <circle class="cls-70" cx="670.4" cy="391.57" r="47.64"/>
    <g>
      <path d="M670.4,408.73c-9.46,0-17.16-7.7-17.16-17.16s7.7-17.16,17.16-17.16,17.16,7.7,17.16,17.16-7.7,17.16-17.16,17.16Z"/>
      <path d="M670.4,374.92c9.19,0,16.66,7.47,16.66,16.66s-7.47,16.66-16.66,16.66-16.66-7.47-16.66-16.66,7.47-16.66,16.66-16.66M670.4,373.92c-9.75,0-17.66,7.91-17.66,17.66s7.91,17.66,17.66,17.66,17.66-7.91,17.66-17.66-7.91-17.66-17.66-17.66h0Z"/>
    </g>
    <g>
      <path d="M670.4,463.04c-9.46,0-17.16-7.7-17.16-17.16s7.7-17.16,17.16-17.16,17.16,7.7,17.16,17.16-7.7,17.16-17.16,17.16Z"/>
      <path d="M670.4,429.22c9.19,0,16.66,7.47,16.66,16.66s-7.47,16.66-16.66,16.66-16.66-7.47-16.66-16.66,7.47-16.66,16.66-16.66M670.4,428.22c-9.75,0-17.66,7.91-17.66,17.66s7.91,17.66,17.66,17.66,17.66-7.91,17.66-17.66-7.91-17.66-17.66-17.66h0Z"/>
    </g>
    <g>
      <path d="M616.38,408.73c-9.46,0-17.16-7.7-17.16-17.16s7.7-17.16,17.16-17.16,17.16,7.7,17.16,17.16-7.7,17.16-17.16,17.16Z"/>
      <path d="M616.38,374.92c9.19,0,16.66,7.47,16.66,16.66s-7.47,16.66-16.66,16.66-16.66-7.47-16.66-16.66,7.47-16.66,16.66-16.66M616.38,373.92c-9.75,0-17.66,7.91-17.66,17.66s7.91,17.66,17.66,17.66,17.66-7.91,17.66-17.66-7.91-17.66-17.66-17.66h0Z"/>
    </g>
    <g>
      <path d="M670.4,354.43c-9.46,0-17.16-7.7-17.16-17.16s7.7-17.16,17.16-17.16,17.16,7.7,17.16,17.16-7.7,17.16-17.16,17.16Z"/>
      <path d="M670.4,320.61c9.19,0,16.66,7.47,16.66,16.66s-7.47,16.66-16.66,16.66-16.66-7.47-16.66-16.66,7.47-16.66,16.66-16.66M670.4,319.61c-9.75,0-17.66,7.91-17.66,17.66s7.91,17.66,17.66,17.66,17.66-7.91,17.66-17.66-7.91-17.66-17.66-17.66h0Z"/>
    </g>
    <g>
      <path d="M723.38,408.73c-9.46,0-17.16-7.7-17.16-17.16s7.7-17.16,17.16-17.16,17.16,7.7,17.16,17.16-7.7,17.16-17.16,17.16Z"/>
      <path d="M723.38,374.92c9.19,0,16.66,7.47,16.66,16.66s-7.47,16.66-16.66,16.66-16.66-7.47-16.66-16.66,7.47-16.66,16.66-16.66M723.38,373.92c-9.75,0-17.66,7.91-17.66,17.66s7.91,17.66,17.66,17.66,17.66-7.91,17.66-17.66-7.91-17.66-17.66-17.66h0Z"/>
    </g>
    <circle class="cls-2" cx="676.34" cy="391.57" r="17.66"/>
    <circle class="cls-5" cx="676.34" cy="445.88" r="17.66"/>
    <circle class="cls-22" cx="622.31" cy="391.57" r="17.66"/>
    <circle class="cls-19" cx="676.34" cy="337.27" r="17.66"/>
    <circle class="cls-21" cx="729.32" cy="391.57" r="17.66"/>
    <g>
      <rect x="463.09" y="487.07" width="87.63" height="45.81" rx="6.02" ry="6.02"/>
      <path d="M544.69,487.57c3.04,0,5.52,2.48,5.52,5.52v33.77c0,3.04-2.48,5.52-5.52,5.52h-75.58c-3.04,0-5.52-2.48-5.52-5.52v-33.77c0-3.04,2.48-5.52,5.52-5.52h75.58M544.69,486.57h-75.58c-3.6,0-6.52,2.92-6.52,6.52v33.77c0,3.6,2.92,6.52,6.52,6.52h75.58c3.6,0,6.52-2.92,6.52-6.52v-33.77c0-3.6-2.92-6.52-6.52-6.52h0Z"/>
    </g>
    <g>
      <rect x="569.82" y="487.07" width="87.63" height="45.81" rx="6.02" ry="6.02"/>
      <path d="M651.42,487.57c3.04,0,5.52,2.48,5.52,5.52v33.77c0,3.04-2.48,5.52-5.52,5.52h-75.58c-3.04,0-5.52-2.48-5.52-5.52v-33.77c0-3.04,2.48-5.52,5.52-5.52h75.58M651.42,486.57h-75.58c-3.6,0-6.52,2.92-6.52,6.52v33.77c0,3.6,2.92,6.52,6.52,6.52h75.58c3.6,0,6.52-2.92,6.52-6.52v-33.77c0-3.6-2.92-6.52-6.52-6.52h0Z"/>
    </g>
    <g>
      <rect x="676.54" y="487.07" width="87.63" height="45.81" rx="6.02" ry="6.02"/>
      <path d="M758.15,487.57c3.04,0,5.52,2.48,5.52,5.52v33.77c0,3.04-2.48,5.52-5.52,5.52h-75.58c-3.04,0-5.52-2.48-5.52-5.52v-33.77c0-3.04,2.48-5.52,5.52-5.52h75.58M758.15,486.57h-75.58c-3.6,0-6.52,2.92-6.52,6.52v33.77c0,3.6,2.92,6.52,6.52,6.52h75.58c3.6,0,6.52-2.92,6.52-6.52v-33.77c0-3.6-2.92-6.52-6.52-6.52h0Z"/>
    </g>
    <g>
      <path d="M469.11,552.61h75.58c3.32,0,6.02,2.7,6.02,6.02v33.77c0,3.32-2.7,6.02-6.02,6.02h-75.58c-3.32,0-6.02-2.7-6.02-6.02v-33.77c0-3.32,2.7-6.02,6.02-6.02Z"/>
      <path d="M544.69,553.11c3.04,0,5.52,2.48,5.52,5.52v33.77c0,3.04-2.48,5.52-5.52,5.52h-75.58c-3.04,0-5.52-2.48-5.52-5.52v-33.77c0-3.04,2.48-5.52,5.52-5.52h75.58M544.69,552.11h-75.58c-3.6,0-6.52,2.92-6.52,6.52v33.77c0,3.6,2.92,6.52,6.52,6.52h75.58c3.6,0,6.52-2.92,6.52-6.52v-33.77c0-3.6-2.92-6.52-6.52-6.52h0Z"/>
    </g>
    <g>
      <path d="M575.84,552.61h75.58c3.32,0,6.02,2.7,6.02,6.02v33.77c0,3.32-2.7,6.02-6.02,6.02h-75.58c-3.32,0-6.02-2.7-6.02-6.02v-33.77c0-3.32,2.7-6.02,6.02-6.02Z"/>
      <path d="M651.42,553.11c3.04,0,5.52,2.48,5.52,5.52v33.77c0,3.04-2.48,5.52-5.52,5.52h-75.58c-3.04,0-5.52-2.48-5.52-5.52v-33.77c0-3.04,2.48-5.52,5.52-5.52h75.58M651.42,552.11h-75.58c-3.6,0-6.52,2.92-6.52,6.52v33.77c0,3.6,2.92,6.52,6.52,6.52h75.58c3.6,0,6.52-2.92,6.52-6.52v-33.77c0-3.6-2.92-6.52-6.52-6.52h0Z"/>
    </g>
    <g>
      <path d="M682.56,552.61h75.58c3.32,0,6.02,2.7,6.02,6.02v33.77c0,3.32-2.7,6.02-6.02,6.02h-75.58c-3.32,0-6.02-2.7-6.02-6.02v-33.77c0-3.32,2.7-6.02,6.02-6.02Z"/>
      <path d="M758.15,553.11c3.04,0,5.52,2.48,5.52,5.52v33.77c0,3.04-2.48,5.52-5.52,5.52h-75.58c-3.04,0-5.52-2.48-5.52-5.52v-33.77c0-3.04,2.48-5.52,5.52-5.52h75.58M758.15,552.11h-75.58c-3.6,0-6.52,2.92-6.52,6.52v33.77c0,3.6,2.92,6.52,6.52,6.52h75.58c3.6,0,6.52-2.92,6.52-6.52v-33.77c0-3.6-2.92-6.52-6.52-6.52h0Z"/>
    </g>
    <g>
      <rect x="463.09" y="618.14" width="87.63" height="45.81" rx="6.02" ry="6.02"/>
      <path d="M544.69,618.64c3.04,0,5.52,2.48,5.52,5.52v33.77c0,3.04-2.48,5.52-5.52,5.52h-75.58c-3.04,0-5.52-2.48-5.52-5.52v-33.77c0-3.04,2.48-5.52,5.52-5.52h75.58M544.69,617.64h-75.58c-3.6,0-6.52,2.92-6.52,6.52v33.77c0,3.6,2.92,6.52,6.52,6.52h75.58c3.6,0,6.52-2.92,6.52-6.52v-33.77c0-3.6-2.92-6.52-6.52-6.52h0Z"/>
    </g>
    <g>
      <rect x="569.82" y="618.14" width="87.63" height="45.81" rx="6.02" ry="6.02"/>
      <path d="M651.42,618.64c3.04,0,5.52,2.48,5.52,5.52v33.77c0,3.04-2.48,5.52-5.52,5.52h-75.58c-3.04,0-5.52-2.48-5.52-5.52v-33.77c0-3.04,2.48-5.52,5.52-5.52h75.58M651.42,617.64h-75.58c-3.6,0-6.52,2.92-6.52,6.52v33.77c0,3.6,2.92,6.52,6.52,6.52h75.58c3.6,0,6.52-2.92,6.52-6.52v-33.77c0-3.6-2.92-6.52-6.52-6.52h0Z"/>
    </g>
    <g>
      <rect x="676.54" y="618.14" width="87.63" height="45.81" rx="6.02" ry="6.02"/>
      <path d="M758.15,618.64c3.04,0,5.52,2.48,5.52,5.52v33.77c0,3.04-2.48,5.52-5.52,5.52h-75.58c-3.04,0-5.52-2.48-5.52-5.52v-33.77c0-3.04,2.48-5.52,5.52-5.52h75.58M758.15,617.64h-75.58c-3.6,0-6.52,2.92-6.52,6.52v33.77c0,3.6,2.92,6.52,6.52,6.52h75.58c3.6,0,6.52-2.92,6.52-6.52v-33.77c0-3.6-2.92-6.52-6.52-6.52h0Z"/>
    </g>
    <g>
      <path d="M469.11,683.67h75.58c3.32,0,6.02,2.7,6.02,6.02v33.77c0,3.32-2.7,6.02-6.02,6.02h-75.58c-3.32,0-6.02-2.7-6.02-6.02v-33.77c0-3.32,2.7-6.02,6.02-6.02Z"/>
      <path d="M544.69,684.17c3.04,0,5.52,2.48,5.52,5.52v33.77c0,3.04-2.48,5.52-5.52,5.52h-75.58c-3.04,0-5.52-2.48-5.52-5.52v-33.77c0-3.04,2.48-5.52,5.52-5.52h75.58M544.69,683.17h-75.58c-3.6,0-6.52,2.92-6.52,6.52v33.77c0,3.6,2.92,6.52,6.52,6.52h75.58c3.6,0,6.52-2.92,6.52-6.52v-33.77c0-3.6-2.92-6.52-6.52-6.52h0Z"/>
    </g>
    <g>
      <path d="M575.84,683.67h75.58c3.32,0,6.02,2.7,6.02,6.02v33.77c0,3.32-2.7,6.02-6.02,6.02h-75.58c-3.32,0-6.02-2.7-6.02-6.02v-33.77c0-3.32,2.7-6.02,6.02-6.02Z"/>
      <path d="M651.42,684.17c3.04,0,5.52,2.48,5.52,5.52v33.77c0,3.04-2.48,5.52-5.52,5.52h-75.58c-3.04,0-5.52-2.48-5.52-5.52v-33.77c0-3.04,2.48-5.52,5.52-5.52h75.58M651.42,683.17h-75.58c-3.6,0-6.52,2.92-6.52,6.52v33.77c0,3.6,2.92,6.52,6.52,6.52h75.58c3.6,0,6.52-2.92,6.52-6.52v-33.77c0-3.6-2.92-6.52-6.52-6.52h0Z"/>
    </g>
    <g>
      <path d="M682.56,683.67h75.58c3.32,0,6.02,2.7,6.02,6.02v33.77c0,3.32-2.7,6.02-6.02,6.02h-75.58c-3.32,0-6.02-2.7-6.02-6.02v-33.77c0-3.32,2.7-6.02,6.02-6.02Z"/>
      <path d="M758.15,684.17c3.04,0,5.52,2.48,5.52,5.52v33.77c0,3.04-2.48,5.52-5.52,5.52h-75.58c-3.04,0-5.52-2.48-5.52-5.52v-33.77c0-3.04,2.48-5.52,5.52-5.52h75.58M758.15,683.17h-75.58c-3.6,0-6.52,2.92-6.52,6.52v33.77c0,3.6,2.92,6.52,6.52,6.52h75.58c3.6,0,6.52-2.92,6.52-6.52v-33.77c0-3.6-2.92-6.52-6.52-6.52h0Z"/>
    </g>
    <g>
      <rect x="806.21" y="744.16" width="87.63" height="45.81" rx="6.02" ry="6.02"/>
      <path d="M887.81,744.66c3.04,0,5.52,2.48,5.52,5.52v33.77c0,3.04-2.48,5.52-5.52,5.52h-75.58c-3.04,0-5.52-2.48-5.52-5.52v-33.77c0-3.04,2.48-5.52,5.52-5.52h75.58M887.81,743.66h-75.58c-3.6,0-6.52,2.92-6.52,6.52v33.77c0,3.6,2.92,6.52,6.52,6.52h75.58c3.6,0,6.52-2.92,6.52-6.52v-33.77c0-3.6-2.92-6.52-6.52-6.52h0Z"/>
    </g>
    <rect class="cls-10" x="814.44" y="743.66" width="88.63" height="46.81" rx="6.52" ry="6.52"/>
    <g>
      <path d="M828.65,376.89h42.73c2.4,0,4.35,1.95,4.35,4.35v12.2c0,2.4-1.95,4.35-4.35,4.35h-42.73c-2.4,0-4.35-1.95-4.35-4.35v-12.2c0-2.4,1.95-4.35,4.35-4.35Z"/>
      <path d="M871.38,377.39c2.12,0,3.85,1.73,3.85,3.85v12.2c0,2.12-1.73,3.85-3.85,3.85h-42.73c-2.12,0-3.85-1.73-3.85-3.85v-12.2c0-2.12,1.73-3.85,3.85-3.85h42.73M871.38,376.39h-42.73c-2.68,0-4.85,2.17-4.85,4.85v12.2c0,2.68,2.17,4.85,4.85,4.85h42.73c2.68,0,4.85-2.17,4.85-4.85v-12.2c0-2.68-2.17-4.85-4.85-4.85h0Z"/>
    </g>
    <g>
      <rect x="824.3" y="417.77" width="51.43" height="20.9" rx="4.35" ry="4.35"/>
      <path d="M871.38,418.27c2.12,0,3.85,1.73,3.85,3.85v12.2c0,2.12-1.73,3.85-3.85,3.85h-42.73c-2.12,0-3.85-1.73-3.85-3.85v-12.2c0-2.12,1.73-3.85,3.85-3.85h42.73M871.38,417.27h-42.73c-2.68,0-4.85,2.17-4.85,4.85v12.2c0,2.68,2.17,4.85,4.85,4.85h42.73c2.68,0,4.85-2.17,4.85-4.85v-12.2c0-2.68-2.17-4.85-4.85-4.85h0Z"/>
    </g>
    <g>
      <path d="M467.44,376.89h42.73c2.4,0,4.35,1.95,4.35,4.35v12.2c0,2.4-1.95,4.35-4.35,4.35h-42.73c-2.4,0-4.35-1.95-4.35-4.35v-12.2c0-2.4,1.95-4.35,4.35-4.35Z"/>
      <path d="M510.17,377.39c2.12,0,3.85,1.73,3.85,3.85v12.2c0,2.12-1.73,3.85-3.85,3.85h-42.73c-2.12,0-3.85-1.73-3.85-3.85v-12.2c0-2.12,1.73-3.85,3.85-3.85h42.73M510.17,376.39h-42.73c-2.68,0-4.85,2.17-4.85,4.85v12.2c0,2.68,2.17,4.85,4.85,4.85h42.73c2.68,0,4.85-2.17,4.85-4.85v-12.2c0-2.68-2.17-4.85-4.85-4.85h0Z"/>
    </g>
    <g>
      <rect x="463.09" y="337.02" width="51.43" height="20.9" rx="4.35" ry="4.35"/>
      <path d="M510.17,337.52c2.12,0,3.85,1.73,3.85,3.85v12.2c0,2.12-1.73,3.85-3.85,3.85h-42.73c-2.12,0-3.85-1.73-3.85-3.85v-12.2c0-2.12,1.73-3.85,3.85-3.85h42.73M510.17,336.52h-42.73c-2.68,0-4.85,2.17-4.85,4.85v12.2c0,2.68,2.17,4.85,4.85,4.85h42.73c2.68,0,4.85-2.17,4.85-4.85v-12.2c0-2.68-2.17-4.85-4.85-4.85h0Z"/>
    </g>
    <g>
      <rect x="463.09" y="417.77" width="51.43" height="20.9" rx="4.35" ry="4.35"/>
      <path d="M510.17,418.27c2.12,0,3.85,1.73,3.85,3.85v12.2c0,2.12-1.73,3.85-3.85,3.85h-42.73c-2.12,0-3.85-1.73-3.85-3.85v-12.2c0-2.12,1.73-3.85,3.85-3.85h42.73M510.17,417.27h-42.73c-2.68,0-4.85,2.17-4.85,4.85v12.2c0,2.68,2.17,4.85,4.85,4.85h42.73c2.68,0,4.85-2.17,4.85-4.85v-12.2c0-2.68-2.17-4.85-4.85-4.85h0Z"/>
    </g>
    <rect class="cls-25" x="468.39" y="376.39" width="52.43" height="21.9" rx="4.85" ry="4.85"/>
    <rect class="cls-38" x="468.39" y="336.52" width="52.43" height="21.9" rx="4.85" ry="4.85"/>
    <rect class="cls-18" x="468.39" y="417.27" width="52.43" height="21.9" rx="4.85" ry="4.85"/>
    <g>
      <path d="M828.65,487.34h42.73c2.4,0,4.35,1.95,4.35,4.35v12.2c0,2.4-1.95,4.35-4.35,4.35h-42.73c-2.4,0-4.35-1.95-4.35-4.35v-12.2c0-2.4,1.95-4.35,4.35-4.35Z"/>
      <path d="M871.38,487.84c2.12,0,3.85,1.73,3.85,3.85v12.2c0,2.12-1.73,3.85-3.85,3.85h-42.73c-2.12,0-3.85-1.73-3.85-3.85v-12.2c0-2.12,1.73-3.85,3.85-3.85h42.73M871.38,486.84h-42.73c-2.68,0-4.85,2.17-4.85,4.85v12.2c0,2.68,2.17,4.85,4.85,4.85h42.73c2.68,0,4.85-2.17,4.85-4.85v-12.2c0-2.68-2.17-4.85-4.85-4.85h0Z"/>
    </g>
    <g>
      <path d="M828.65,542.57h42.73c2.4,0,4.35,1.95,4.35,4.35v12.2c0,2.4-1.95,4.35-4.35,4.35h-42.73c-2.4,0-4.35-1.95-4.35-4.35v-12.2c0-2.4,1.95-4.35,4.35-4.35Z"/>
      <path d="M871.38,543.07c2.12,0,3.85,1.73,3.85,3.85v12.2c0,2.12-1.73,3.85-3.85,3.85h-42.73c-2.12,0-3.85-1.73-3.85-3.85v-12.2c0-2.12,1.73-3.85,3.85-3.85h42.73M871.38,542.07h-42.73c-2.68,0-4.85,2.17-4.85,4.85v12.2c0,2.68,2.17,4.85,4.85,4.85h42.73c2.68,0,4.85-2.17,4.85-4.85v-12.2c0-2.68-2.17-4.85-4.85-4.85h0Z"/>
    </g>
    <g>
      <path d="M828.65,597.8h42.73c2.4,0,4.35,1.95,4.35,4.35v12.2c0,2.4-1.95,4.35-4.35,4.35h-42.73c-2.4,0-4.35-1.95-4.35-4.35v-12.2c0-2.4,1.95-4.35,4.35-4.35Z"/>
      <path d="M871.38,598.3c2.12,0,3.85,1.73,3.85,3.85v12.2c0,2.12-1.73,3.85-3.85,3.85h-42.73c-2.12,0-3.85-1.73-3.85-3.85v-12.2c0-2.12,1.73-3.85,3.85-3.85h42.73M871.38,597.3h-42.73c-2.68,0-4.85,2.17-4.85,4.85v12.2c0,2.68,2.17,4.85,4.85,4.85h42.73c2.68,0,4.85-2.17,4.85-4.85v-12.2c0-2.68-2.17-4.85-4.85-4.85h0Z"/>
    </g>
    <rect class="cls-33" x="829.42" y="376.39" width="52.43" height="21.9" rx="4.85" ry="4.85"/>
    <rect class="cls-6" x="829.42" y="417.27" width="52.43" height="21.9" rx="4.85" ry="4.85"/>
    <rect class="cls-32" x="829.42" y="486.84" width="52.43" height="21.9" rx="4.85" ry="4.85"/>
    <rect class="cls-28" x="829.42" y="542.07" width="52.43" height="21.9" rx="4.85" ry="4.85"/>
    <rect class="cls-29" x="829.42" y="597.3" width="52.43" height="21.9" rx="4.85" ry="4.85"/>
    <g>
      <rect x="463.09" y="767.57" width="87.63" height="24.64" rx="4.35" ry="4.35"/>
      <path d="M546.37,768.07c2.12,0,3.85,1.73,3.85,3.85v15.95c0,2.12-1.73,3.85-3.85,3.85h-78.93c-2.12,0-3.85-1.73-3.85-3.85v-15.95c0-2.12,1.73-3.85,3.85-3.85h78.93M546.37,767.07h-78.93c-2.68,0-4.85,2.17-4.85,4.85v15.95c0,2.68,2.17,4.85,4.85,4.85h78.93c2.68,0,4.85-2.17,4.85-4.85v-15.95c0-2.68-2.17-4.85-4.85-4.85h0Z"/>
    </g>
    <g>
      <rect x="569.82" y="767.57" width="87.63" height="24.64" rx="4.35" ry="4.35"/>
      <path d="M653.09,768.07c2.12,0,3.85,1.73,3.85,3.85v15.95c0,2.12-1.73,3.85-3.85,3.85h-78.93c-2.12,0-3.85-1.73-3.85-3.85v-15.95c0-2.12,1.73-3.85,3.85-3.85h78.93M653.09,767.07h-78.93c-2.68,0-4.85,2.17-4.85,4.85v15.95c0,2.68,2.17,4.85,4.85,4.85h78.93c2.68,0,4.85-2.17,4.85-4.85v-15.95c0-2.68-2.17-4.85-4.85-4.85h0Z"/>
    </g>
    <g>
      <rect x="676.54" y="767.57" width="87.63" height="24.64" rx="4.35" ry="4.35"/>
      <path d="M759.82,768.07c2.12,0,3.85,1.73,3.85,3.85v15.95c0,2.12-1.73,3.85-3.85,3.85h-78.93c-2.12,0-3.85-1.73-3.85-3.85v-15.95c0-2.12,1.73-3.85,3.85-3.85h78.93M759.82,767.07h-78.93c-2.68,0-4.85,2.17-4.85,4.85v15.95c0,2.68,2.17,4.85,4.85,4.85h78.93c2.68,0,4.85-2.17,4.85-4.85v-15.95c0-2.68-2.17-4.85-4.85-4.85h0Z"/>
    </g>
    <rect class="cls-4" x="473.04" y="486.57" width="88.63" height="46.81" rx="6.52" ry="6.52"/>
    <rect class="cls-9" x="579.77" y="486.57" width="88.63" height="46.81" rx="6.52" ry="6.52"/>
    <rect class="cls-3" x="686.5" y="486.57" width="88.63" height="46.81" rx="6.52" ry="6.52"/>
    <rect class="cls-34" x="473.04" y="552.11" width="88.63" height="46.81" rx="6.52" ry="6.52"/>
    <rect class="cls-1" x="579.77" y="552.11" width="88.63" height="46.81" rx="6.52" ry="6.52"/>
    <rect class="cls-15" x="686.5" y="552.11" width="88.63" height="46.81" rx="6.52" ry="6.52"/>
    <rect class="cls-27" x="473.04" y="617.64" width="88.63" height="46.81" rx="6.52" ry="6.52"/>
    <rect class="cls-23" x="579.77" y="617.64" width="88.63" height="46.81" rx="6.52" ry="6.52"/>
    <rect class="cls-8" x="686.5" y="617.64" width="88.63" height="46.81" rx="6.52" ry="6.52"/>
    <rect class="cls-7" x="473.04" y="683.17" width="88.63" height="46.81" rx="6.52" ry="6.52"/>
    <rect class="cls-13" x="579.77" y="683.17" width="88.63" height="46.81" rx="6.52" ry="6.52"/>
    <rect class="cls-30" x="686.5" y="683.17" width="88.63" height="46.81" rx="6.52" ry="6.52"/>
    <rect class="cls-35" x="473.04" y="767.07" width="88.63" height="25.64" rx="4.85" ry="4.85"/>
    <rect class="cls-20" x="579.77" y="767.07" width="88.63" height="25.64" rx="4.85" ry="4.85"/>
    <rect class="cls-36" x="686.5" y="767.07" width="88.63" height="25.64" rx="4.85" ry="4.85"/>
    <rect class="cls-74" x="519.33" y="101.64" width="16.07" height="8.74" rx="1.04" ry="1.04"/>
    <rect class="cls-74" x="519.33" y="133.94" width="16.07" height="8.74" rx="1.04" ry="1.04"/>
    <rect class="cls-74" x="519.33" y="166.24" width="16.07" height="8.74" rx="1.04" ry="1.04"/>
    <rect class="cls-68" x="596.28" y="68.72" width="24.59" height="156.03"/>
    <rect class="cls-68" x="631.64" y="68.72" width="12.3" height="156.03"/>
    <g>
      <path class="cls-67" d="M675.94,392.09c0,4.18-2.54,6.39-5.64,6.39s-5.46-2.48-5.46-6.16c0-3.85,2.39-6.37,5.63-6.37s5.46,2.54,5.46,6.14ZM666.52,392.29c0,2.59,1.4,4.92,3.87,4.92s3.89-2.29,3.89-5.04c0-2.41-1.26-4.93-3.87-4.93s-3.89,2.39-3.89,5.06Z"/>
      <path class="cls-67" d="M677.97,386.15h1.57v5.85h.05c.32-.47.65-.9.95-1.3l3.71-4.56h1.94l-4.39,5.15,4.74,6.99h-1.86l-4-5.96-1.15,1.33v4.63h-1.57v-12.14Z"/>
    </g>
    <path class="cls-67" d="M852.43,552.38l-.52-.4c.78-.86,1.49-1.47,2.14-1.83.64-.36,1.19-.54,1.64-.54.25,0,.44.05.57.16.13.11.2.26.2.45,0,.23-.25,1.19-.76,2.88-.83,2.77-1.24,4.45-1.24,5.02,0,.11.03.2.08.28s.11.11.18.11c.25,0,.89-.48,1.92-1.45l.46.45c-1.07,1.01-1.85,1.65-2.34,1.93s-.89.42-1.21.42c-.27,0-.49-.09-.65-.26s-.24-.41-.24-.71c0-.98.59-3.36,1.76-7.16.05-.18.08-.34.08-.48,0-.16-.07-.23-.21-.23-.16,0-.33.06-.53.19s-.64.52-1.33,1.2ZM857.04,544.62c.24,0,.44.08.6.24s.23.37.23.62c0,.34-.12.65-.36.91s-.51.39-.8.39c-.23,0-.43-.08-.59-.25s-.23-.38-.23-.64c0-.35.11-.65.34-.9s.5-.37.81-.37Z"/>
  </g>
  <g id="Layer_2" data-name="Layer 2">
    <path class="cls-69" d="M191.29,803.12c-14.22,0-25.74-11.53-25.74-25.74,14.13-250.35,14.13-500.71,0-751.06,0-7.08,2.86-13.49,7.49-18.15h0c-14.22,0-25.74,11.53-25.74,25.74,14.13,250.35,14.13,500.71,0,751.06,0,14.22,11.53,25.74,25.74,25.74h178.68c7.14,0,13.59-2.91,18.25-7.59h-178.68Z"/>
    <g class="cls-73">
      <path class="cls-39" d="M293.84,825.56h-29.18c-6.94,0-12.56-5.62-12.56-12.56v-20.3h54.3v20.3c0,6.94-5.62,12.56-12.56,12.56Z"/>
      <path class="cls-39" d="M364.74,802.91h-178.68c-14.22,0-25.74-11.53-25.74-25.74,14.13-250.35,14.13-500.71,0-751.06,0-14.22,11.53-25.74,25.74-25.74h178.68c14.22,0,25.74,11.53,25.74,25.74-16.15,250.35-16.15,500.71,0,751.06,0,14.22-11.53,25.74-25.74,25.74Z"/>
    </g>
    <path class="cls-77" d="M392.57,25.74c0-14.22-11.53-25.74-25.74-25.74h-26.45c14.22,0,25.74,11.53,25.74,25.74-16.15,250.35-16.15,500.71,0,751.06,0,14.22-11.53,25.74-25.74,25.74h26.45c14.22,0,25.74-11.53,25.74-25.74-16.15-250.35-16.15-500.71,0-751.06Z"/>
    <rect class="cls-45" x="254.93" y="832.03" width="48.63" height="16.85" rx="2.35" ry="2.35"/>
    <rect class="cls-48" x="254.93" y="855.35" width="48.63" height="16.85" rx="2.35" ry="2.35"/>
    <rect class="cls-44" x="251.09" y="883.81" width="48.63" height="16.85" rx="2.35" ry="2.35" transform="translate(229.16 -40.39) rotate(14.31)"/>
    <rect class="cls-53" x="234.32" y="912.39" width="48.63" height="16.85" rx="2.35" ry="2.35" transform="translate(635.1 41.57) rotate(38.87)"/>
    <rect class="cls-56" x="208.58" y="931.99" width="48.63" height="16.85" rx="2.35" ry="2.35" transform="translate(988.48 334.03) rotate(65.16)"/>
    <rect class="cls-41" x="177.4" y="936.92" width="48.63" height="16.85" rx="2.35" ry="2.35" transform="translate(1147.07 743.63) rotate(90)"/>
    <rect class="cls-47" x="146.78" y="931.99" width="48.63" height="16.85" rx="2.35" ry="2.35" transform="translate(1120.11 1054.58) rotate(107.17)"/>
    <rect class="cls-57" x="119.08" y="912.6" width="48.63" height="16.85" rx="2.35" ry="2.35" transform="translate(852.87 1525.59) rotate(139.28)"/>
    <rect class="cls-52" x="101.18" y="891.8" width="48.63" height="16.85" rx="2.35" ry="2.35" transform="translate(807.83 1500.71) rotate(139.28)"/>
    <rect class="cls-46" x="80.31" y="867.56" width="48.63" height="16.85" rx="2.35" ry="2.35" transform="translate(755.35 1471.7) rotate(139.28)"/>
    <rect class="cls-40" x="59.45" y="843.32" width="48.63" height="16.85" rx="2.35" ry="2.35" transform="translate(702.86 1442.69) rotate(139.28)"/>
    <rect class="cls-55" x="36.92" y="817.14" width="48.63" height="16.85" rx="2.35" ry="2.35" transform="translate(646.17 1411.36) rotate(139.28)"/>
    <rect class="cls-51" x="21.94" y="789.41" width="48.63" height="16.85" rx="2.35" ry="2.35" transform="translate(364.69 1530.83) rotate(159.84)"/>
    <rect class="cls-49" x="17.33" y="758.64" width="48.63" height="16.85" rx="2.35" ry="2.35" transform="translate(83.3 1534.13) rotate(180)"/>
    <rect class="cls-54" x="17.33" y="726.81" width="48.63" height="16.85" rx="2.35" ry="2.35" transform="translate(83.3 1470.47) rotate(180)"/>
    <rect class="cls-58" x="17.33" y="694.98" width="48.63" height="16.85" rx="2.35" ry="2.35" transform="translate(83.3 1406.81) rotate(180)"/>
    <rect class="cls-43" x="17.33" y="666.32" width="48.63" height="16.85" rx="2.35" ry="2.35" transform="translate(83.3 1349.5) rotate(180)"/>
    <rect class="cls-50" x="17.33" y="637.67" width="48.63" height="16.85" rx="2.35" ry="2.35" transform="translate(83.3 1292.18) rotate(180)"/>
    <rect class="cls-61" x="17.33" y="609.01" width="48.63" height="16.85" rx="2.35" ry="2.35" transform="translate(83.3 1234.87) rotate(180)"/>
    <rect class="cls-60" x="17.33" y="574.64" width="48.63" height="16.85" rx="2.35" ry="2.35" transform="translate(-213.82 1108.85) rotate(-150)"/>
    <rect class="cls-59" x="39.71" y="544.59" width="48.63" height="16.85" rx="2.35" ry="2.35" transform="translate(-382.9 884.97) rotate(-120)"/>
    <rect class="cls-42" x="73.87" y="533.65" width="48.63" height="16.85" rx="2.35" ry="2.35" transform="translate(-443.89 640.26) rotate(-90)"/>
  </g>
  <g id="Layer_4" data-name="Layer 4">
    <path class="cls-67" d="M493.31,496.17h-.12l-6.78,3.66-1.02-4.02,8.52-4.56h4.5v39h-5.1v-34.08Z"/>
    <path class="cls-67" d="M591,530.25v-3.24l4.14-4.02c9.96-9.48,14.46-14.52,14.52-20.4,0-3.96-1.92-7.62-7.74-7.62-3.54,0-6.48,1.8-8.28,3.3l-1.68-3.72c2.7-2.28,6.54-3.96,11.04-3.96,8.4,0,11.94,5.76,11.94,11.34,0,7.2-5.22,13.02-13.44,20.94l-3.12,2.88v.12h17.52v4.38h-24.9Z"/>
    <path class="cls-67" d="M697.96,524.19c1.5.96,4.98,2.46,8.64,2.46,6.78,0,8.88-4.32,8.82-7.56-.06-5.46-4.98-7.8-10.08-7.8h-2.94v-3.96h2.94c3.84,0,8.7-1.98,8.7-6.6,0-3.12-1.98-5.88-6.84-5.88-3.12,0-6.12,1.38-7.8,2.58l-1.38-3.84c2.04-1.5,6-3,10.2-3,7.68,0,11.16,4.56,11.16,9.3,0,4.02-2.4,7.44-7.2,9.18v.12c4.8.96,8.7,4.56,8.7,10.02,0,6.24-4.86,11.7-14.22,11.7-4.38,0-8.22-1.38-10.14-2.64l1.44-4.08Z"/>
    <path class="cls-67" d="M498.17,596.43v-10.62h-18.12v-3.48l17.4-24.9h5.7v24.24h5.46v4.14h-5.46v10.62h-4.98ZM498.17,581.67v-13.02c0-2.04.06-4.08.18-6.12h-.18c-1.2,2.28-2.16,3.96-3.24,5.76l-9.54,13.26v.12h12.78Z"/>
    <path class="cls-67" d="M614.28,561.87h-14.88l-1.5,10.02c.9-.12,1.74-.24,3.18-.24,3,0,6,.66,8.4,2.1,3.06,1.74,5.58,5.1,5.58,10.02,0,7.62-6.06,13.32-14.52,13.32-4.26,0-7.86-1.2-9.72-2.4l1.32-4.02c1.62.96,4.8,2.16,8.34,2.16,4.98,0,9.24-3.24,9.24-8.46-.06-5.04-3.42-8.64-11.22-8.64-2.22,0-3.96.24-5.4.42l2.52-18.72h18.66v4.44Z"/>
    <path class="cls-67" d="M713.02,561.15c-1.08-.06-2.46,0-3.96.24-8.28,1.38-12.66,7.44-13.56,13.86h.18c1.86-2.46,5.1-4.5,9.42-4.5,6.9,0,11.76,4.98,11.76,12.6,0,7.14-4.86,13.74-12.96,13.74s-13.8-6.48-13.8-16.62c0-7.68,2.76-13.74,6.6-17.58,3.24-3.18,7.56-5.16,12.48-5.76,1.56-.24,2.88-.3,3.84-.3v4.32ZM711.52,583.65c0-5.58-3.18-8.94-8.04-8.94-3.18,0-6.12,1.98-7.56,4.8-.36.6-.6,1.38-.6,2.34.12,6.42,3.06,11.16,8.58,11.16,4.56,0,7.62-3.78,7.62-9.36Z"/>
    <path class="cls-67" d="M507.17,622.91v3.48l-16.98,35.52h-5.46l16.92-34.5v-.12h-19.08v-4.38h24.6Z"/>
    <path class="cls-67" d="M589.22,652.01c0-4.92,2.94-8.4,7.74-10.44l-.06-.18c-4.32-2.04-6.18-5.4-6.18-8.76,0-6.18,5.22-10.38,12.06-10.38,7.56,0,11.34,4.74,11.34,9.6,0,3.3-1.62,6.84-6.42,9.12v.18c4.86,1.92,7.86,5.34,7.86,10.08,0,6.78-5.82,11.34-13.26,11.34-8.16,0-13.08-4.86-13.08-10.56ZM610.22,651.77c0-4.74-3.3-7.02-8.58-8.52-4.56,1.32-7.02,4.32-7.02,8.04-.18,3.96,2.82,7.44,7.8,7.44s7.8-2.94,7.8-6.96ZM595.7,632.27c0,3.9,2.94,6,7.44,7.2,3.36-1.14,5.94-3.54,5.94-7.08,0-3.12-1.86-6.36-6.6-6.36-4.38,0-6.78,2.88-6.78,6.24Z"/>
    <path class="cls-67" d="M690.95,658.19c1.14.12,2.46,0,4.26-.18,3.06-.42,5.94-1.68,8.16-3.78,2.58-2.34,4.44-5.76,5.16-10.38h-.18c-2.16,2.64-5.28,4.2-9.18,4.2-7.02,0-11.52-5.28-11.52-11.94,0-7.38,5.34-13.86,13.32-13.86s12.9,6.48,12.9,16.44c0,8.58-2.88,14.58-6.72,18.3-3,2.94-7.14,4.74-11.34,5.22-1.92.3-3.6.36-4.86.3v-4.32ZM692.87,635.75c0,4.86,2.94,8.28,7.5,8.28,3.54,0,6.3-1.74,7.68-4.08.3-.48.48-1.08.48-1.92,0-6.66-2.46-11.76-7.98-11.76-4.5,0-7.68,3.96-7.68,9.48Z"/>
    <path class="cls-67" d="M616.92,706.95c0,13.26-4.92,20.58-13.56,20.58-7.62,0-12.78-7.14-12.9-20.04,0-13.08,5.64-20.28,13.56-20.28s12.9,7.32,12.9,19.74ZM595.74,707.55c0,10.14,3.12,15.9,7.92,15.9,5.4,0,7.98-6.3,7.98-16.26s-2.46-15.9-7.92-15.9c-4.62,0-7.98,5.64-7.98,16.26Z"/>
    <path class="cls-67" d="M498.89,708.16l-5.7,7.5v.12l9.06-1.2v4.08l-9.06-1.08v.12l5.76,7.2-3.78,2.16-3.6-8.4h-.12l-3.9,8.46-3.42-2.16,5.7-7.32v-.12l-8.88,1.14v-4.08l8.82,1.14v-.12l-5.64-7.32,3.66-2.1,3.72,8.34h.12l3.66-8.4,3.6,2.04Z"/>
    <path class="cls-67" d="M694.1,726.87l1.56-11.76h-4.92v-3.54h5.46l1.14-8.7h-5.16v-3.54h5.7l1.56-11.46h3.48l-1.5,11.46h6.24l1.56-11.46h3.54l-1.5,11.46h4.92v3.54h-5.46l-1.08,8.7h5.16v3.54h-5.7l-1.56,11.76h-3.6l1.56-11.76h-6.24l-1.56,11.76h-3.6ZM706.04,711.57l1.14-8.7h-6.24l-1.14,8.7h6.24Z"/>
    <g>
      <path class="cls-67" d="M625.66,525.16l-1.68,5.09h-2.16l5.5-16.18h2.52l5.52,16.18h-2.23l-1.73-5.09h-5.74ZM630.96,523.53l-1.58-4.66c-.36-1.06-.6-2.02-.84-2.95h-.05c-.24.96-.5,1.94-.82,2.93l-1.58,4.68h4.87Z"/>
      <path class="cls-67" d="M637.73,514.29c.91-.19,2.35-.34,3.82-.34,2.09,0,3.43.36,4.44,1.18.84.62,1.34,1.58,1.34,2.86,0,1.56-1.03,2.93-2.74,3.55v.05c1.54.38,3.34,1.66,3.34,4.06,0,1.39-.55,2.45-1.37,3.24-1.13,1.03-2.95,1.51-5.59,1.51-1.44,0-2.54-.1-3.24-.19v-15.91ZM639.82,520.91h1.9c2.21,0,3.5-1.15,3.5-2.71,0-1.9-1.44-2.64-3.55-2.64-.96,0-1.51.07-1.85.14v5.21ZM639.82,528.67c.41.07,1.01.1,1.75.1,2.16,0,4.15-.79,4.15-3.14,0-2.21-1.9-3.12-4.18-3.12h-1.73v6.17Z"/>
      <path class="cls-67" d="M662.04,529.72c-.77.38-2.3.77-4.27.77-4.56,0-7.99-2.88-7.99-8.18s3.43-8.5,8.45-8.5c2.02,0,3.29.43,3.84.72l-.5,1.7c-.79-.38-1.92-.67-3.26-.67-3.79,0-6.31,2.42-6.31,6.67,0,3.96,2.28,6.5,6.22,6.5,1.27,0,2.57-.26,3.41-.67l.43,1.66Z"/>
    </g>
    <g>
      <path class="cls-67" d="M532.83,595.71c-.94.34-2.78.89-4.97.89-2.45,0-4.46-.62-6.05-2.14-1.39-1.34-2.26-3.5-2.26-6.03.02-4.82,3.34-8.35,8.76-8.35,1.87,0,3.34.41,4.03.74l-.5,1.7c-.86-.38-1.94-.7-3.58-.7-3.94,0-6.5,2.45-6.5,6.5s2.47,6.53,6.24,6.53c1.37,0,2.3-.19,2.78-.43v-4.82h-3.29v-1.68h5.33v7.78Z"/>
      <path class="cls-67" d="M538.11,580.25v6.77h7.82v-6.77h2.11v16.18h-2.11v-7.58h-7.82v7.58h-2.09v-16.18h2.09Z"/>
      <path class="cls-67" d="M553.76,580.25v16.18h-2.09v-16.18h2.09Z"/>
    </g>
    <g>
      <path class="cls-67" d="M505.39,644.62c1.01-.17,2.33-.31,4.01-.31,2.06,0,3.58.48,4.54,1.34.89.77,1.42,1.94,1.42,3.38s-.43,2.62-1.25,3.46c-1.1,1.18-2.9,1.78-4.94,1.78-.62,0-1.2-.02-1.68-.14v6.48h-2.09v-15.99ZM507.48,652.42c.46.12,1.03.17,1.73.17,2.52,0,4.06-1.22,4.06-3.46s-1.51-3.17-3.82-3.17c-.91,0-1.61.07-1.97.17v6.29Z"/>
      <path class="cls-67" d="M531.5,662.98c-2.18-.58-4.32-1.22-6.19-1.87-.34-.12-.67-.24-.98-.24-3.84-.14-7.13-2.98-7.13-8.18s3.17-8.52,7.54-8.52,7.25,3.41,7.25,8.18c0,4.15-1.92,6.82-4.61,7.75v.1c1.61.41,3.36.79,4.73,1.03l-.6,1.75ZM529.77,652.44c0-3.24-1.68-6.58-5.11-6.58s-5.26,3.26-5.23,6.77c-.02,3.43,1.87,6.53,5.14,6.53s5.21-3.02,5.21-6.72Z"/>
      <path class="cls-67" d="M534.69,644.64c1.06-.22,2.57-.34,4.01-.34,2.23,0,3.67.41,4.68,1.32.82.72,1.27,1.82,1.27,3.07,0,2.14-1.34,3.55-3.05,4.13v.07c1.25.43,1.99,1.58,2.38,3.26.53,2.26.91,3.82,1.25,4.44h-2.16c-.26-.46-.62-1.85-1.08-3.86-.48-2.23-1.34-3.07-3.24-3.14h-1.97v7.01h-2.09v-15.96ZM536.78,652.01h2.14c2.23,0,3.65-1.22,3.65-3.07,0-2.09-1.51-3-3.72-3.02-1.01,0-1.73.1-2.06.19v5.9Z"/>
      <path class="cls-67" d="M547.32,658.06c.94.58,2.3,1.06,3.74,1.06,2.14,0,3.38-1.13,3.38-2.76,0-1.51-.86-2.38-3.05-3.22-2.64-.94-4.27-2.3-4.27-4.58,0-2.52,2.09-4.39,5.23-4.39,1.66,0,2.86.38,3.58.79l-.58,1.7c-.53-.29-1.61-.77-3.07-.77-2.21,0-3.05,1.32-3.05,2.42,0,1.51.98,2.26,3.22,3.12,2.74,1.06,4.13,2.38,4.13,4.75,0,2.5-1.85,4.66-5.66,4.66-1.56,0-3.26-.46-4.13-1.03l.53-1.75Z"/>
    </g>
    <g>
      <path class="cls-67" d="M633.65,580.25h2.09v10.83c0,4.3-2.11,5.62-4.9,5.62-.77,0-1.7-.17-2.23-.38l.31-1.7c.43.17,1.06.31,1.75.31,1.87,0,2.98-.84,2.98-4.01v-10.66Z"/>
      <path class="cls-67" d="M639.22,580.25h2.09v7.8h.07c.43-.62.86-1.2,1.27-1.73l4.94-6.07h2.59l-5.86,6.87,6.31,9.31h-2.47l-5.33-7.94-1.54,1.78v6.17h-2.09v-16.18Z"/>
      <path class="cls-67" d="M652.23,580.25h2.09v14.43h6.91v1.75h-9v-16.18Z"/>
    </g>
    <g>
      <path class="cls-67" d="M627.41,646.2h-4.92v-1.78h11.98v1.78h-4.94v14.4h-2.11v-14.4Z"/>
      <path class="cls-67" d="M638.36,644.43v9.58c0,3.62,1.61,5.16,3.77,5.16,2.4,0,3.94-1.58,3.94-5.16v-9.58h2.11v9.43c0,4.97-2.62,7.01-6.12,7.01-3.31,0-5.81-1.9-5.81-6.91v-9.53h2.11Z"/>
      <path class="cls-67" d="M655.35,660.6l-5.28-16.18h2.26l2.52,7.97c.7,2.18,1.3,4.15,1.73,6.05h.05c.46-1.87,1.13-3.91,1.85-6.02l2.74-7.99h2.23l-5.78,16.18h-2.3Z"/>
    </g>
    <g>
      <path class="cls-67" d="M719.07,660.61l-4.1-16.18h2.21l1.92,8.18c.48,2.02.91,4.03,1.2,5.59h.05c.26-1.61.77-3.53,1.32-5.62l2.16-8.16h2.18l1.97,8.21c.46,1.92.89,3.84,1.13,5.54h.05c.34-1.78.79-3.58,1.3-5.59l2.14-8.16h2.14l-4.58,16.18h-2.18l-2.04-8.42c-.5-2.06-.84-3.65-1.06-5.28h-.05c-.29,1.61-.65,3.19-1.25,5.28l-2.3,8.42h-2.18Z"/>
      <path class="cls-67" d="M744.99,660.61l-2.06-3.58c-.84-1.37-1.37-2.26-1.87-3.19h-.05c-.46.94-.91,1.8-1.75,3.22l-1.94,3.55h-2.4l4.94-8.18-4.75-7.99h2.42l2.14,3.79c.6,1.06,1.06,1.87,1.49,2.74h.07c.46-.96.86-1.7,1.46-2.74l2.21-3.79h2.4l-4.92,7.87,5.04,8.3h-2.42Z"/>
      <path class="cls-67" d="M752.96,660.61v-6.86l-5.11-9.31h2.38l2.28,4.46c.62,1.22,1.1,2.21,1.61,3.34h.05c.46-1.06,1.01-2.11,1.63-3.34l2.33-4.46h2.38l-5.42,9.29v6.89h-2.11Z"/>
      <path class="cls-67" d="M760.64,659.38l8.98-13.13v-.07h-8.21v-1.75h10.92v1.27l-8.93,13.08v.07h9.05v1.75h-11.81v-1.22Z"/>
    </g>
    <g>
      <path class="cls-67" d="M735.81,589.33c-.12-2.26-.26-4.97-.24-6.98h-.07c-.55,1.9-1.22,3.91-2.04,6.14l-2.86,7.85h-1.58l-2.62-7.71c-.77-2.28-1.42-4.37-1.87-6.29h-.05c-.05,2.02-.17,4.73-.31,7.15l-.43,6.94h-1.99l1.13-16.18h2.66l2.76,7.83c.67,1.99,1.22,3.77,1.63,5.45h.07c.41-1.63.98-3.41,1.7-5.45l2.88-7.83h2.66l1.01,16.18h-2.04l-.41-7.1Z"/>
      <path class="cls-67" d="M741.47,596.43v-16.18h2.28l5.18,8.18c1.2,1.9,2.14,3.6,2.9,5.26l.05-.02c-.19-2.16-.24-4.13-.24-6.65v-6.77h1.97v16.18h-2.11l-5.14-8.21c-1.13-1.8-2.21-3.65-3.02-5.4l-.07.02c.12,2.04.17,3.98.17,6.67v6.91h-1.97Z"/>
      <path class="cls-67" d="M771.09,588.17c0,5.57-3.38,8.52-7.51,8.52s-7.27-3.31-7.27-8.21c0-5.14,3.19-8.5,7.51-8.5s7.27,3.38,7.27,8.18ZM758.54,588.44c0,3.46,1.87,6.55,5.16,6.55s5.18-3.05,5.18-6.72c0-3.22-1.68-6.58-5.16-6.58s-5.18,3.19-5.18,6.74Z"/>
    </g>
    <g>
      <path class="cls-67" d="M730.78,514.29c1.27-.19,2.78-.34,4.44-.34,3,0,5.14.7,6.55,2.02,1.44,1.32,2.28,3.19,2.28,5.81s-.82,4.8-2.33,6.29c-1.51,1.51-4.01,2.33-7.15,2.33-1.49,0-2.74-.07-3.79-.19v-15.91ZM732.87,528.6c.53.1,1.3.12,2.11.12,4.46,0,6.89-2.5,6.89-6.86.02-3.82-2.14-6.24-6.55-6.24-1.08,0-1.9.1-2.45.22v12.77Z"/>
      <path class="cls-67" d="M755.14,522.67h-6.29v5.83h7.01v1.75h-9.1v-16.18h8.74v1.75h-6.65v5.11h6.29v1.73Z"/>
      <path class="cls-67" d="M758.57,514.07h8.71v1.75h-6.62v5.38h6.12v1.73h-6.12v7.32h-2.09v-16.18Z"/>
    </g>
    <path class="cls-67" d="M676.29,456.59l9.71-16.83c.11-.19-.03-.43-.25-.43h-19.43c-.22,0-.36.24-.25.43l9.71,16.83c.11.19.39.19.5,0Z"/>
    <path class="cls-67" d="M611.41,391.82l16.83,9.71c.19.11.43-.03.43-.25v-19.43c0-.22-.24-.36-.43-.25l-16.83,9.71c-.19.11-.19.39,0,.5Z"/>
    <path class="cls-67" d="M741.4,391.33l-16.83-9.71c-.19-.11-.43.03-.43.25v19.43c0,.22.24.36.43.25l16.83-9.71c.19-.11.19-.39,0-.5Z"/>
    <path class="cls-67" d="M675.79,326.43l-9.71,16.83c-.11.19.03.43.25.43h19.43c.22,0,.36-.24.25-.43l-9.71-16.83c-.11-.19-.39-.19-.5,0Z"/>
    <path class="cls-67" d="M837.41,757.52h4.83c.25,0,.46.2.46.46v18.65c0,.25-.2.46-.46.46h-4.83c-1.4,0-2.54-1.14-2.54-2.54v-14.48c0-1.4,1.14-2.54,2.54-2.54Z"/>
    <path class="cls-67" d="M855.63,783.82l-9.88-6.09c-.22-.13-.35-.37-.35-.63v-19.61c0-.26.13-.5.35-.63l9.88-6.09c.49-.3,1.13.05,1.13.63v31.78c0,.58-.64.94-1.13.63Z"/>
    <path class="cls-67" d="M722.92,775.19h1.95c.25,0,.46.2.46.46v8.49c0,.25-.2.46-.46.46h-1.95c-.75,0-1.35-.61-1.35-1.35v-6.7c0-.75.61-1.35,1.35-1.35Z"/>
    <path class="cls-67" d="M731.54,787.83l-4.75-2.93c-.11-.06-.17-.18-.17-.3v-9.43c0-.12.06-.24.17-.3l4.75-2.93c.24-.15.54.02.54.3v15.28c0,.28-.31.45-.54.3Z"/>
    <path class="cls-67" d="M506.73,775.19h1.95c.25,0,.46.2.46.46v8.49c0,.25-.2.46-.46.46h-1.95c-.75,0-1.35-.61-1.35-1.35v-6.7c0-.75.61-1.35,1.35-1.35Z"/>
    <path class="cls-67" d="M515.36,787.83l-4.75-2.93c-.11-.06-.17-.18-.17-.3v-9.43c0-.12.06-.24.17-.3l4.75-2.93c.24-.15.54.02.54.3v15.28c0,.28-.31.45-.54.3Z"/>
    <path class="cls-67" d="M867.97,772.74c.16-.32.45-.93.66-1.76.08-.29.3-1.23.25-2.47-.02-.53-.1-1.5-.49-2.64-.12-.35-.4-1.1-.93-1.95-.3-.48-.6-.83-1.21-1.53-.15-.17-.4-.46-.82-.7-.17-.1-.35-.2-.6-.23-.41-.06-.73.08-.91.16-.11.05-.33.15-.55.37-.26.26-.38.55-.42.69-.05.15-.14.46-.04.85.07.28.21.46.32.6.15.2.25.25.51.49.1.09.37.34.64.67.36.43.55.79.59.87.04.07.16.31.28.65.19.56.24,1.01.27,1.33.02.22.05.56.02,1.02-.04.58-.16,1.02-.2,1.18-.14.47-.3.8-.39.98-.13.26-.24.48-.44.74-.08.11-.18.23-.32.44-.11.17-.18.27-.23.41-.02.06-.09.25-.1.52,0,.12,0,.39.14.69.12.26.29.41.41.52.23.21.45.31.52.34.16.07.49.22.89.16.36-.05.59-.24.81-.41.09-.07.33-.28.76-.94.15-.23.35-.54.58-1.02h0Z"/>
    <path class="cls-67" d="M873.05,778.37c.42-.65.4-.53.71-1.01.34-.54.55-.97.72-1.33.33-.67.52-1.18.77-1.86.26-.7.39-1.04.49-1.45.14-.54.19-.95.29-1.77.09-.67.14-1.07.16-1.64.04-.87,0-1.57-.04-2.01-.03-.3-.09-.94-.26-1.74-.15-.74-.32-1.27-.45-1.68-.2-.62-.39-1.25-.77-2.04-.23-.47-.44-.83-.64-1.18-.41-.69-.75-1.17-.82-1.28-.11-.15-.46-.64-.96-1.24-.34-.4-.56-.67-.92-1-.41-.39-.42-.33-.84-.74-.19-.18-.28-.29-.47-.39-.34-.19-.66-.2-.74-.2-.31,0-.54.1-.69.16-.13.06-.34.15-.55.37-.18.19-.27.38-.32.49-.07.16-.19.44-.17.81.03.41.22.69.29.8.11.16.18.2.56.53.12.1.49.42.77.7.28.28.46.5.71.81.38.48.64.87.81,1.11.24.36.48.72.74,1.24.23.44.37.79.49,1.09.13.31.28.69.43,1.2.08.27.22.79.33,1.45.11.71.14,1.25.15,1.58,0,.19.02.63,0,1.21-.02.34-.04.86-.15,1.52-.08.5-.17.84-.34,1.51-.14.53-.21.8-.35,1.17-.14.37-.28.65-.42.94-.13.26-.27.55-.5.92-.24.39-.45.68-.57.85-.22.3-.32.44-.45.6-.15.18-.2.23-.28.37-.04.07-.15.27-.21.58-.03.14-.06.35-.02.61.02.1.08.38.3.65.13.15.26.24.52.41.25.16.38.25.54.29.38.1.72,0,.84-.05.29-.1.46-.26.62-.4.3-.27.42-.49.71-.94h0Z"/>
    <path class="cls-67" d="M880.19,756.68c-.23-.41-.28-.54-.46-.8-.16-.24-.27-.37-.55-.72-.64-.8-.55-.72-.96-1.22-.39-.47-.71-.83-.84-.99-.35-.39-.63-.7-1.02-1.09-.5-.49-.51-.41-.85-.77-.25-.26-.38-.45-.69-.64-.26-.16-.47-.22-.58-.24-.13-.03-.32-.07-.56-.02-.18.04-.32.12-.6.3-.26.16-.39.24-.47.36-.1.13-.14.28-.24.58-.06.2-.09.3-.11.42,0,.08-.03.39.12.72.08.17.17.27.52.61.35.33.62.57.72.66.45.4.68.6.88.81.25.27.23.28.76.9.46.54.44.49.71.81.14.17.48.58.86,1.16.25.37.42.66.57.92.19.33.45.77.73,1.36.1.22.27.6.59,1.37.22.53.33.79.38.91.27.72.41,1.3.5,1.7.09.38.14.65.23,1.14.04.2.13.7.23,1.38.11.78.17,1.17.2,1.68.01.15.04.66.03,1.33-.02.86-.1,1.5-.16,1.93-.02.16-.09.66-.22,1.3-.13.65-.25,1.13-.33,1.41-.08.3-.16.61-.29,1.02-.15.46-.28.81-.38,1.08-.1.27-.23.59-.41,1.01-.21.48-.4.83-.55,1.12-.19.36-.34.62-.54.97-.24.42-.36.63-.52.87-.1.16-.24.34-.52.7-.36.48-.54.72-.63.81-.18.19-.29.27-.39.47-.11.21-.13.41-.14.52,0,.07-.04.37.07.74.06.21.14.49.38.74.33.34.75.41.89.43.25.03.46,0,.65-.04.23-.04.38-.07.54-.17.19-.12.23-.24.44-.5.2-.25.35-.37.49-.51.47-.47.81-1.23,1.11-1.63.53-.72.96-1.39,1.29-2.01.34-.64.58-1.33,1.05-2.71.45-1.31.67-1.96.87-2.89.17-.79.25-1.43.33-2.14.12-1.02.17-1.83.2-2.3.03-.62.05-1.08.03-1.72-.02-.76-.09-1.31-.19-2.04-.11-.85-.2-1.56-.43-2.5-.08-.33-.3-1.23-.7-2.33-.13-.37-.34-.86-.75-1.84-.32-.77-.41-.95-.52-1.16-.24-.47-.3-.48-.72-1.24h0Z"/>
    <path class="cls-67" d="M740.71,779.6v1.36h-5.19v-1.36h5.19Z"/>
    <path class="cls-67" d="M525.62,774.79v4.93h4.75v1.26h-4.75v4.98h-1.34v-4.98h-4.75v-1.26h4.75v-4.93h1.34Z"/>
    <circle class="cls-63" cx="494.6" cy="347.47" r="8.54"/>
    <rect class="cls-67" x="491.57" y="342.72" width="1.17" height="9.5" rx=".59" ry=".59"/>
    <rect class="cls-67" x="496.46" y="342.72" width="1.17" height="9.5" rx=".59" ry=".59"/>
    <path class="cls-67" d="M850.5,425.1h1.87v9.37c0,.23-.19.42-.42.42h-1.04c-.23,0-.42-.19-.42-.42v-9.37h0Z"/>
    <path class="cls-67" d="M851.17,420.89l-2.3,3.98c-.12.21.03.47.27.47h4.6c.24,0,.39-.26.27-.47l-2.3-3.98c-.12-.21-.42-.21-.55,0Z"/>
    <path class="cls-67" d="M491.54,384.57h1.87v5.99c0,.23-.19.42-.42.42h-1.04c-.23,0-.42-.19-.42-.42v-5.99h0Z" transform="translate(880.25 -104.7) rotate(90)"/>
    <path class="cls-67" d="M498.51,387.5l-2.76-1.6c-.21-.12-.47.03-.47.27v3.19c0,.24.26.39.47.27l2.76-1.6c.21-.12.21-.42,0-.55Z"/>
    <path class="cls-67" d="M857.92,420.73h1.87v9.37c0,.23-.19.42-.42.42h-1.04c-.23,0-.42-.19-.42-.42v-9.37h0Z" transform="translate(1717.71 851.24) rotate(180)"/>
    <path class="cls-67" d="M859.13,434.73l2.3-3.98c.12-.21-.03-.47-.27-.47h-4.6c-.24,0-.39.26-.27.47l2.3,3.98c.12.21.42.21.55,0Z"/>
    <rect class="cls-67" x="846.44" y="492.24" width="19.6" height="12.11" rx="1.61" ry="1.61"/>
    <polyline class="cls-62" points="867.68 491.23 856.37 499.67 855.85 499.67 846.05 491.92"/>
    <path class="cls-67" d="M861.54,605.71c.3.69.48,1.45.52,2.25.16,3.56-2.78,6.68-6.35,6.72s-6.5-2.85-6.5-6.43c0-3.16,2.29-5.79,5.29-6.32l.94-1.43c-4.5.11-8.05,4.04-7.51,8.68.41,3.52,3.29,6.39,6.81,6.78,4.69.52,8.65-3.13,8.65-7.71,0-1.39-.37-2.7-1.01-3.83l-.84,1.29Z"/>
    <path class="cls-67" d="M860.17,602.3l-.26,4.67c-.02.28.27.46.52.34l4.17-2.11c.25-.12.27-.47.03-.62l-3.91-2.56c-.23-.15-.54,0-.55.28Z"/>
    <path class="cls-67" d="M866.03,392.58l-10.28,2.88c-.08.02-.16.02-.23,0l-10.28-2.88c-.19-.05-.32-.22-.32-.42v-12.41c0-.29.27-.49.55-.42l10.05,2.81c.08.02.16.02.23,0l10.05-2.81c.28-.08.55.13.55.42v12.41c0,.19-.13.36-.32.42Z"/>
    <path class="cls-16" d="M854.34,393.6l-7.88-2.84c-.09-.03-.14-.11-.14-.21v-9.2c0-.15.15-.26.29-.21l7.09,2.56c.56.2.94.74.94,1.34v8.35c0,.15-.15.26-.29.21Z"/>
    <path class="cls-16" d="M856.98,393.56l7.88-2.84c.09-.03.14-.11.14-.21v-9.2c0-.15-.15-.26-.29-.21l-7.09,2.56c-.56.2-.94.74-.94,1.34v8.35c0,.15.15.26.29.21Z"/>
    <rect class="cls-67" x="619.91" y="769.65" width="6.52" height="13.57" rx="3.26" ry="3.26"/>
    <path class="cls-67" d="M627.18,780.87c-.15,2.1-1.87,3.77-4,3.77s-3.86-1.66-4-3.77h-1.25c.15,2.8,2.43,5.02,5.26,5.02s5.11-2.23,5.26-5.02h-1.25Z"/>
    <rect class="cls-67" x="622.29" y="785.3" width="1.53" height="4.7"/>
    <rect class="cls-67" x="618.8" y="788.43" width="8.22" height="1.57" rx=".78" ry=".78"/>
    <rect class="cls-64" x="613.51" y="777.08" width="19.78" height="1.82" rx=".91" ry=".91" transform="translate(626.54 -218.95) rotate(38.89)"/>
    <path class="cls-67" d="M487.14,380.2c0-.08-.07-.14-.14-.14-1.46.07-2.63,1.29-2.63,2.77s1.16,2.69,2.63,2.77c.08,0,.14-.06.14-.14v-5.26Z"/>
    <path class="cls-67" d="M486.74,394.91c0,.08-.07.14-.14.14-1.46-.07-2.63-1.29-2.63-2.77s1.16-2.69,2.63-2.77c.08,0,.14.06.14.14v5.26Z"/>
    <path class="cls-67" d="M484.88,391.26c-1.2-.71-2.01-1.99-2.01-3.48s.81-2.78,2.01-3.48v-2.56c-2.52.86-4.33,3.24-4.33,6.05s1.82,5.19,4.33,6.05v-2.56Z"/>
    <path class="cls-67" d="M507.33,379.96c0-.08-.07-.14-.14-.14-1.46.07-2.63,1.29-2.63,2.77s1.16,2.69,2.63,2.77c.08,0,.14-.06.14-.14v-5.26Z"/>
    <path class="cls-67" d="M506.92,394.66c0,.08-.07.14-.14.14-1.46-.07-2.63-1.29-2.63-2.77s1.16-2.69,2.63-2.77c.08,0,.14.06.14.14v5.26Z"/>
    <path class="cls-67" d="M505.06,391.01c-1.2-.71-2.01-1.99-2.01-3.48s.81-2.78,2.01-3.48v-2.56c-2.52.86-4.33,3.24-4.33,6.05s1.82,5.19,4.33,6.05v-2.56Z"/>
    <ellipse class="cls-67" cx="494.64" cy="426.15" rx="2.98" ry="3.77"/>
    <path class="cls-67" d="M493.83,429.03h1.6c2.31,0,4.19,1.88,4.19,4.19v2.43c0,.4-.32.72-.72.72h-8.53c-.4,0-.72-.32-.72-.72v-2.43c0-2.31,1.88-4.19,4.19-4.19Z"/>
    <ellipse class="cls-67" cx="487.84" cy="424.91" rx="2.98" ry="3.77"/>
    <path class="cls-67" d="M487.04,427.79h1.6c2.31,0,4.19,1.88,4.19,4.19v2.43c0,.4-.32.72-.72.72h-8.53c-.4,0-.72-.32-.72-.72v-2.43c0-2.31,1.88-4.19,4.19-4.19Z"/>
    <ellipse class="cls-67" cx="501.36" cy="424.91" rx="2.98" ry="3.77"/>
    <path class="cls-67" d="M500.56,427.79h1.6c2.31,0,4.19,1.88,4.19,4.19v2.43c0,.4-.32.72-.72.72h-8.53c-.4,0-.72-.32-.72-.72v-2.43c0-2.31,1.88-4.19,4.19-4.19Z"/>
  </g>
</svg>