<?xml version="1.0" encoding="utf-8"?>
<!-- Generator: Adobe Illustrator 27.0.0, SVG Export Plug-In . SVG Version: 6.00 Build 0)  -->
<svg version="1.1" xmlns="http://www.w3.org/2000/svg" xmlns:xlink="http://www.w3.org/1999/xlink" x="0px" y="0px"
	 viewBox="0 0 330.4 271.1" style="enable-background:new 0 0 330.4 271.1;" xml:space="preserve">
<style type="text/css">
	.st0{opacity:0.89;fill:#FAEFEF;}
	.st1{fill:#E6A6A8;}
	.st2{fill:#FFFFFF;}
	.st3{fill:#C8C9CB;}
	.st4{fill:none;stroke:#601113;stroke-width:2;stroke-miterlimit:10;}
	.st5{fill:none;stroke:#E6A6A8;stroke-width:2;stroke-miterlimit:10;stroke-dasharray:2;}
	.st6{fill:#C02126;}
	.st7{opacity:0.37;}
	.st8{fill:#C0C5CF;}
	.st9{opacity:0.94;fill:#C0C5CF;}
	.st10{fill:none;stroke:#C0C5CF;stroke-linecap:round;stroke-linejoin:round;stroke-miterlimit:10;}
	.st11{fill:none;stroke:#D97A7D;stroke-linecap:round;stroke-linejoin:round;stroke-miterlimit:10;}
	.st12{opacity:0.27;}
	.st13{opacity:0.15;fill:#253746;}
	.st14{fill:none;stroke:#601113;stroke-width:2;stroke-linecap:round;stroke-linejoin:round;stroke-miterlimit:10;}
	.st15{opacity:0.38;fill:#C8C9CB;}
	.st16{opacity:0.78;}
	.st17{opacity:0.31;}
	.st18{fill:#B58D90;}
	.st19{fill:#CCBABD;}
	.st20{fill:#601113;}
	.st21{fill:#D97A7D;}
	.st22{fill:#F2D3D4;}
	.st23{fill:#F7E5E5;}
	.st24{opacity:0.42;}
	.st25{opacity:0.29;}
	.st26{fill:none;stroke:#601113;stroke-width:1.5;stroke-linecap:round;stroke-linejoin:round;stroke-miterlimit:10;}
	.st27{fill:#D9E1E2;}
	.st28{opacity:0.79;fill:#D9E1E2;}
	.st29{opacity:0.56;fill:#D9E1E2;}
	.st30{fill:none;stroke:#601113;stroke-width:2;stroke-linecap:round;stroke-miterlimit:10;}
	.st31{opacity:0.15;fill:#601113;}
	.st32{opacity:0.36;}
	.st33{opacity:0.49;}
	.st34{opacity:0.48;}
	.st35{opacity:0.36;fill:none;stroke:#B58D90;stroke-width:2;stroke-linecap:round;stroke-linejoin:round;stroke-miterlimit:10;}
	.st36{opacity:0.42;fill:none;stroke:#C02126;stroke-width:2;stroke-linecap:round;stroke-linejoin:round;stroke-miterlimit:10;}
	.st37{opacity:0.34;fill:none;stroke:#D97A7D;stroke-width:2;stroke-linecap:round;stroke-linejoin:round;stroke-miterlimit:10;}
	.st38{fill:#E3E5E7;}
	.st39{opacity:0.29;fill:#601113;}
	.st40{opacity:0.74;}
	.st41{opacity:0.44;fill:#C8C9CB;}
	.st42{fill:#FAEFEF;}
	.st43{opacity:0.2;fill:#601113;}
	.st44{opacity:0.25;fill:#FFFFFF;}
	.st45{opacity:0.34;fill:none;stroke:#601113;stroke-width:2;stroke-miterlimit:10;}
	.st46{opacity:0.34;}
	.st47{opacity:0.15;}
	.st48{opacity:0.23;fill:#253746;}
	.st49{fill:#253746;}
	.st50{opacity:0.3;fill:#C8C9CB;}
	.st51{fill:none;stroke:#23185D;stroke-width:1.5;stroke-linecap:round;stroke-linejoin:round;stroke-miterlimit:10;}
	.st52{opacity:0.54;}
	.st53{fill:none;stroke:#601113;stroke-width:0.25;stroke-miterlimit:10;}
	.st54{fill:#D1D1D1;}
	.st55{fill:none;stroke:#C02126;stroke-width:2;stroke-miterlimit:10;}
	.st56{fill:none;stroke:#C02126;stroke-width:2;stroke-miterlimit:10;stroke-dasharray:1.9895,1.9895;}
	.st57{opacity:0.25;fill:#601113;}
	.st58{opacity:0.26;fill:#FFFFFF;}
	.st59{fill:none;stroke:#FFFFFF;stroke-miterlimit:10;}
	.st60{fill:none;stroke:#FFFFFF;stroke-width:2;stroke-miterlimit:10;}
	.st61{opacity:0.43;}
	.st62{opacity:0.52;fill:none;stroke:#FFFFFF;stroke-width:2;stroke-linecap:round;stroke-linejoin:round;stroke-miterlimit:10;}
	.st63{fill:#401010;}
	.st64{opacity:0.15;fill:#3D0016;}
	.st65{fill:#717171;}
	.st66{opacity:0.42;fill:#FFFFFF;}
	.st67{opacity:0.33;fill:#601113;}
	.st68{fill:#ECEAEC;}
	.st69{opacity:0.17;fill:#601113;}
	.st70{opacity:0.58;fill:#FFFFFF;}
	.st71{opacity:0.12;fill:#601113;}
	.st72{opacity:0.35;}
	
		.st73{fill:none;stroke:#601113;stroke-width:2;stroke-linejoin:round;stroke-dasharray:2.0929,2.0929,2.0929,2.0929,2.0929,2.0929;}
	.st74{opacity:0.41;}
	.st75{opacity:0.33;}
	.st76{fill:none;stroke:#601113;stroke-width:2;stroke-linejoin:round;stroke-miterlimit:10;stroke-dasharray:2,2,2,2,2,2;}
	.st77{opacity:0.57;fill:#FFFFFF;}
	.st78{opacity:0.37;fill:none;stroke:#FFFFFF;stroke-linecap:round;stroke-linejoin:round;stroke-miterlimit:10;}
	.st79{opacity:0.48;fill:#FFFFFF;}
	.st80{fill:none;stroke:#601113;stroke-linecap:round;stroke-linejoin:round;stroke-miterlimit:10;}
	.st81{fill:none;stroke:#C02126;stroke-width:2;stroke-miterlimit:10;stroke-dasharray:2.0141,2.0141;}
	.st82{fill:#FDD7CF;}
	.st83{opacity:0.32;fill:#FFFFFF;}
	.st84{opacity:0.38;fill:#EAEAEA;}
	.st85{fill:#FCBDB0;}
	.st86{fill:none;stroke:#C02126;stroke-width:2.5;stroke-linecap:round;stroke-linejoin:round;stroke-miterlimit:10;}
	.st87{opacity:0.47;fill:#FFFFFF;}
	.st88{fill:none;stroke:#C02126;stroke-linecap:round;stroke-linejoin:round;stroke-miterlimit:10;}
	.st89{fill:none;stroke:#D97A7D;stroke-width:2;stroke-linecap:round;stroke-linejoin:round;stroke-miterlimit:10;}
	.st90{opacity:0.11;}
	.st91{opacity:0.2;}
	.st92{opacity:0.56;fill:#FFFFFF;}
	.st93{fill:none;stroke:#C02126;stroke-width:3;stroke-linecap:square;stroke-linejoin:round;stroke-miterlimit:10;}
	.st94{fill:none;stroke:#FFFFFF;stroke-width:3.5;stroke-linecap:round;stroke-linejoin:round;stroke-miterlimit:10;}
	.st95{fill:none;stroke:#C02126;stroke-width:2;stroke-linecap:round;stroke-linejoin:round;stroke-miterlimit:10;}
	.st96{fill:none;stroke:#601113;stroke-width:2;stroke-miterlimit:10;stroke-dasharray:2.9915,2.9915;}
	.st97{opacity:0.42;fill:none;stroke:#D6747A;stroke-width:2;stroke-miterlimit:10;}
	.st98{opacity:0.57;}
	.st99{opacity:0.79;fill:#E6A6A8;}
	.st100{opacity:0.56;fill:#E6A6A8;}
	.st101{fill:none;stroke:#FFFFFF;stroke-linecap:round;stroke-miterlimit:10;}
	.st102{fill:#ACB7BD;}
	.st103{fill:#ACD173;stroke:#250416;stroke-width:2.5;stroke-linecap:round;stroke-miterlimit:10;}
	.st104{fill:none;stroke:#95D8D9;stroke-width:2;stroke-miterlimit:10;stroke-dasharray:2;}
	.st105{fill:none;stroke:#081F1F;stroke-width:1.5;stroke-linecap:round;stroke-linejoin:round;stroke-miterlimit:10;}
	.st106{fill:none;stroke:#95D8D9;stroke-width:2;stroke-miterlimit:10;}
	.st107{fill:none;stroke:#3BBEC2;stroke-width:2;stroke-miterlimit:10;}
	.st108{fill:none;stroke:#C0C5CF;stroke-width:2;stroke-miterlimit:10;}
</style>
<g id="Layer_2">
	<path class="st0" d="M32.3,139.4c-0.7-31,16.9-52.9,37.9-56.2s42.5-0.8,57.4-12.8s35.6-41.7,59.1-42.2
		c57.7-1.2,110.2,85.6,111.4,137.2s-34.5,67.3-56.3,67.7c-21.8,0.5-46.4-27.5-73.6-26.9s-35.7,14.4-67.2,15.1S33.3,183.1,32.3,139.4
		z"/>
	<g>
		<path id="XMLID_00000111190379601020949200000006862335912232054413_" class="st6" d="M136.3,140.4l-4-4c1.6-2.6,2.8-5.3,3.4-8.2
			l5.7,0c2,0,3.7-1.6,3.7-3.6l0-4.2c0-2-1.6-3.7-3.6-3.7l-5.7,0c-0.6-2.9-1.7-5.6-3.3-8.2l4-4c1.4-1.4,1.4-3.8,0-5.2l-3-3
			c-1.4-1.4-3.8-1.5-5.2,0l-4,4c-2.5-1.6-5.2-2.7-8-3.4l0.1-5.7c0-2-1.6-3.7-3.6-3.7l-4.2,0c-2,0-3.7,1.6-3.7,3.6l-0.1,5.7
			c-2.9,0.6-5.6,1.7-8.2,3.3l-4-4c-1.4-1.5-3.7-1.5-5.2,0l-3,3c-1.4,1.4-1.5,3.7-0.1,5.2l4,4c-1.6,2.6-2.8,5.3-3.4,8.1l-5.7,0
			c-2,0-3.7,1.6-3.7,3.6l0,4.2c0,2,1.6,3.7,3.6,3.7l5.7,0.1c0.6,2.9,1.7,5.6,3.3,8.2l-4,4c-1.4,1.4-1.5,3.7,0,5.2l3,3
			c1.4,1.4,3.7,1.5,5.2,0l4-4c2.5,1.6,5.3,2.8,8.2,3.4l0,5.7c0,2,1.6,3.7,3.7,3.7l4.2,0c2,0,3.7-1.6,3.7-3.6l0.1-5.7
			c2.9-0.6,5.6-1.7,8.2-3.3l4,4c1.4,1.4,3.7,1.5,5.2,0l3-3C137.7,144.1,137.7,141.8,136.3,140.4z M98.4,134
			c-6.5-6.6-6.4-17.1,0.1-23.6c6.5-6.5,17.1-6.4,23.6,0.1c6.5,6.5,6.4,17.1-0.1,23.6C115.4,140.5,104.9,140.5,98.4,134z"/>
		<path id="XMLID_00000045590133743307758950000003087801520328160665_" class="st14" d="M136.3,140.4l-4-4c1.6-2.6,2.8-5.3,3.4-8.2
			l5.7,0c2,0,3.7-1.6,3.7-3.6l0-4.2c0-2-1.6-3.7-3.6-3.7l-5.7,0c-0.6-2.9-1.7-5.6-3.3-8.2l4-4c1.4-1.4,1.4-3.8,0-5.2l-3-3
			c-1.4-1.4-3.8-1.5-5.2,0l-4,4c-2.5-1.6-5.2-2.7-8-3.4l0.1-5.7c0-2-1.6-3.7-3.6-3.7l-4.2,0c-2,0-3.7,1.6-3.7,3.6l-0.1,5.7
			c-2.9,0.6-5.6,1.7-8.2,3.3l-4-4c-1.4-1.5-3.7-1.5-5.2,0l-3,3c-1.4,1.4-1.5,3.7-0.1,5.2l4,4c-1.6,2.6-2.8,5.3-3.4,8.1l-5.7,0
			c-2,0-3.7,1.6-3.7,3.6l0,4.2c0,2,1.6,3.7,3.6,3.7l5.7,0.1c0.6,2.9,1.7,5.6,3.3,8.2l-4,4c-1.4,1.4-1.5,3.7,0,5.2l3,3
			c1.4,1.4,3.7,1.5,5.2,0l4-4c2.5,1.6,5.3,2.8,8.2,3.4l0,5.7c0,2,1.6,3.7,3.7,3.7l4.2,0c2,0,3.7-1.6,3.7-3.6l0.1-5.7
			c2.9-0.6,5.6-1.7,8.2-3.3l4,4c1.4,1.4,3.7,1.5,5.2,0l3-3C137.7,144.1,137.7,141.8,136.3,140.4z M98.4,134
			c-6.5-6.6-6.4-17.1,0.1-23.6c6.5-6.5,17.1-6.4,23.6,0.1c6.5,6.5,6.4,17.1-0.1,23.6C115.4,140.5,104.9,140.5,98.4,134z"/>
		<circle class="st2" cx="110.3" cy="122.2" r="19.9"/>
		<line class="st14" x1="114.1" y1="114.1" x2="106.8" y2="130.8"/>
		<polyline class="st14" points="102.9,115.4 96.1,122.5 102.9,129.7 		"/>
		<polyline class="st14" points="118.5,115.7 125.3,122.8 118.5,130.1 		"/>
	</g>
</g>
<g id="Layer_1">
	<path class="st2" d="M244.1,188.8c-7.3,3.4-15,6.1-22.9,8l-94.8-0.1c-2.2-0.5-4.3-1.1-6.4-1.8c-4-1.3-7.9-2.8-11.7-4.7
		c-1-0.5-2-1-2.5-1.9c-0.6-1.1-0.3-2.5,0-3.8c3.1-11.8,7.3-23.2,12.7-34.2c3.5-7.2,7.6-14.3,13.8-19.3c4.2-3.4,9.2-5.8,14.2-7.9
		c3.4-1.4,6.7-2.7,10.1-3.5c2.8-0.6,5.7-1,8.7-0.7c6.6,0.5,13,2.7,19.6,2.1c3.2-0.3,6.4-1.3,9.6-1.2c2.6,0.1,5.2,0.9,7.7,1.9
		c6.7,2.7,13.1,6.5,18.1,11.8c7.3,7.7,11.2,17.9,15,27.9C238.7,170.4,241.7,179.5,244.1,188.8z"/>
	<path class="st82" d="M161.2,119.2c1.6,2.6,4.8,3.6,7.8,4.3c0.8,0.2,1.5,0.3,2.1,0.8c0.9,0.7,1.2,1.9,1.4,3c0.5,2.7,1.1,5.4,1.6,8
		c1.3-2.3,2.1-4.9,2.3-7.5c0.1-1,0.1-2,0.5-2.9c0.5-1.2,1.7-1.9,2.8-2.6c2.5-1.5,5.1-2.9,7-5.1c1.9-2.2,3-5.4,1.9-8.1
		c-3.9,3.2-8.7,5.3-13.7,5.8c-4,0.4-7.6-0.4-11.5-1.5c-1.1-0.3-2.5-0.7-3.1,0.6C159.7,115.3,160.5,117.9,161.2,119.2z"/>
	<path class="st19" d="M188.5,110.1l0.2,5.5c-3.6,3.5-7.2,8.7-12.3,8.7l5.6,9.1c5.5-3.3,9.7-8.9,11-15.2l0.1-5.4
		C191.8,111.4,190.4,110.1,188.5,110.1z"/>
	<path class="st19" d="M167.1,133.8l-6.1-7.8c-1.6-2.2-3-4.6-4.1-7.1l-0.6-5.5c0.9-1.5,2.3-2.6,3.8-3.4l0.5,1.4c0,0.1,0,0.1,0,0.2
		l0.3,3.7c0.1,0.1,0.1,0.2,0.2,0.3l1.3,1.2c0.4,0.3,0.7,0.6,1.1,0.9l1.6,1.4c0.8,0.6,1.6,1.3,2.4,1.9c0,0,1.1,0.6,1.1,0.6
		c0.5,0.2,0.8,0.7,1.3,0.9c0.5,0.2,1,0.3,1.5,0.6c1.2,0.7,1.5,1.4,1,2.7C171.2,128.8,169.2,131.6,167.1,133.8z"/>
	<path class="st19" d="M173.1,124.6l2,8.8c0-0.3,0-0.5,0-0.8l1.8-8.6l2,5.1c0,0,0,0.1,0,0.1l-0.6,23.6l-6.5,0.6c-0.1,0-0.2,0-0.3,0
		l-1-24.9C171,127.3,172.2,125.6,173.1,124.6z"/>
	<path class="st82" d="M126.8,195.9l1.3,13.1c-0.4,1.1,0.1,2.5,1.1,3.2c-0.1,0,0.7,1.3,0.6,1.3l-6.3-0.4c-3,0.7-6.2-0.1-9.2-0.8
		c-3-0.7-5.8-2.4-7.3-5c-1.4-2.5-1.6-5.5-1.1-8.3s1.5-5.6,2.6-8.3L126.8,195.9z"/>
	<path class="st82" d="M222.9,195.9l-1.1,15.9c-0.2,0.6-1.3,0.3-1.5,0.8c-0.1,0.3,0.1,0.7,0.5,0.8c0.3,0.1,0.7,0.1,1.1,0.1l8.4-0.2
		c2.2,0,4.3-0.6,6.4-1.3s4-1.8,5.3-3.6c1.3-1.8,1.7-4.2,1.5-6.4c-0.1-2.2-0.8-4.4-1.5-6.5l-1.3-4.7L222.9,195.9z"/>
	<path class="st3" d="M213,213.6l6.7-0.6c0.5-0.6,1.1-1.2,1.7-1.8l4.3-48.9c-0.3-1.2-0.8-2.3-1.5-3.3h-96.9c-1.7,0.6-3.1,2-3.6,3.8
		l4.6,47.7c0.2,1,0.8,1.9,1.8,2.3l80.9,0.3"/>
	<circle class="st83" cx="174.7" cy="183.3" r="6.2"/>
	<path class="st84" d="M162.1,130c-1.2-1.9-3.9-1.3-5.6-0.7c-17,5.1-31.2,18.9-36.7,35.8c-1.7,5.2-2.6,10.8-1.4,16.2
		c1.3,5.5,4.7,10.2,8.1,14.8c-2.1-0.4-4.2-0.8-6.3-1.2c-4-1.3-7.9-2.8-11.7-4.7c-1-0.5-2-1-2.5-1.9c-0.6-1.1-0.3-2.5,0-3.8
		c3.1-11.8,7.3-23.2,12.7-34.2c3.5-7.2,7.6-14.3,13.8-19.3c4.2-3.4,9.2-5.8,14.2-7.9c3.4-1.4,6.7-2.7,10.1-3.5
		c0.1,0.2,0.2,0.3,0.2,0.5C158.6,123.4,160.4,126.7,162.1,130z"/>
	<path class="st85" d="M115.3,196.2c2.3,1.2,4.8,2.2,6.9,3.7c3,2.1,5.2,5.3,6.2,8.8c-0.5-3.1-0.9-6.3-1.4-9.4
		c-0.1-0.9-0.3-1.7-0.8-2.4c-0.7-0.9-1.8-1.2-2.8-1.5c-3.6-1-7.1-2-10.7-3c-0.4-0.1-2-0.8-2.2-0.3c-0.2,0.4,0.9,1.4,1.2,1.6
		C112,193.9,115.3,196,115.3,196.2z"/>
	<path class="st85" d="M169.7,118.5c0.9,0.9,2.1,1.6,3,2.6s1.6,2.3,1.2,3.6c-2.9-2-5.8-3.9-8.7-5.9c-0.9-0.6-1.7-1.2-2.4-1.9
		c-0.7-0.8-1.2-1.7-1.2-2.8c0,0-0.2-2.8-0.2-2.8c-0.1,0.3,2.6,1.9,2.9,2c0.9,0.5,1.8,0.9,2.8,1.2c1.1,0.3,1.1,0.3,1.3,1.4
		C168.4,116.9,168.9,117.8,169.7,118.5z"/>
	<path class="st85" d="M241.2,191c-0.8,2.5-3.2,4-5.6,5c-2.4,1-5,1.6-7.1,3.1c-2.7,1.9-4.3,5-5.9,8c0.2-3.6,0.3-7.1,0.5-10.7
		c6.7-1.7,13.2-3.7,19.6-6.2"/>
	<path class="st14" d="M109.1,190.7c-0.7,2.7-1.4,5.3-2.1,8c-0.6,2.2-1.2,4.6-0.5,6.8c0.9,3.3,4.3,5.3,7.5,6.3
		c2.3,0.7,4.8,1,7.1,1.7"/>
	<path class="st14" d="M156.8,119c-9.3,3.1-18.9,6.4-26,13.1c-5.9,5.6-9.7,13.1-12.9,20.6c-4.9,11.4-9.9,24-12.8,36
		c6.9,3.5,14.3,6,21.9,7.5"/>
	<path class="st14" d="M167.6,134.1c2.2-3.1,4-6.5,5.3-10c-4.6-1.8-8.6-4.9-12-8.5l-0.3-5.3c-1.8,0.3-3.4,1.7-4.2,3.4l0.2,5.1
		C158.7,124.7,162.6,130.4,167.6,134.1z"/>
	<path class="st14" d="M160.6,105.3c0,1.7,0,3.5,0,5.2"/>
	<path class="st14" d="M188.9,105.4c0,1.7,0,3.5,0,5.2"/>
	<path class="st14" d="M170.8,128.9l0.5,24.1c0,0.1,0,0.1,0,0l3.5,0.1"/>
	<path class="st14" d="M174.9,158.9h-47.4c-2,0-3.6,1.7-3.4,3.7l4,47.4c0.1,1.7,1.6,3,3.3,3h43.5"/>
	<path class="st14" d="M240.7,190.7c0.7,2.7,1.4,5.3,2.1,8c0.6,2.2,1.2,4.6,0.5,6.8c-0.9,3.3-4.3,5.3-7.5,6.3
		c-1.9,0.6-4.8,1.1-7,1.6"/>
	<path class="st14" d="M193,119c9.3,3.1,18.9,6.4,26,13.1c5.9,5.6,9.7,13.1,12.9,20.6c4.9,11.4,9.9,24,12.8,36
		c-6.9,3.5-14.3,6-21.9,7.5"/>
	<path class="st14" d="M182.2,134.1c-2.2-3.1-4-6.5-5.3-10c4.6-1.8,8.6-4.9,12-8.5l0.1-5.3c1.8,0.3,3.7,1.7,4.5,3.4l-0.2,5.1
		C191.1,124.7,187.2,130.4,182.2,134.1z"/>
	<path class="st14" d="M179,128.9l-0.5,24.1c0,0.1,0,0.1,0,0l-3.5,0.1"/>
	<path class="st14" d="M174.9,158.9h47.4c2,0,3.6,1.7,3.4,3.7l-4,47.4c-0.1,1.7-1.6,3-3.3,3h-43.5"/>
	<g>
		<path class="st82" d="M196.9,85.8c-0.6,6.5-1.9,13-5.3,18.6c-3.3,5.6-8.8,10.2-15.3,11.2c-7,1.1-14.3-2.2-19-7.6s-7-12.5-7.6-19.6
			c-0.5-5.5,0-11.1,2.1-16.2c2.1-5.1,5.9-9.6,10.9-11.8c5.2-2.4,11.3-2.2,16.9-1c4.6,1,9.2,2.7,12.4,6.1c2.9,3.1,4.4,7.5,4.8,11.7
			c0.4,4.3-0.1,8.6-0.6,12.9"/>
		<path class="st14" d="M196.7,83c0,10.4-2.5,19-6.6,24.2c-3.9,5-10.1,8.5-16.4,8.1c-6.3,0.5-12.5-3.1-16.4-8.1
			c-4.1-5.2-6-11.7-7-18.2"/>
		<path class="st20" d="M157.4,67c0.3,3.4-0.7,6.9-2.6,9.6c-0.4,0.6-1.2,1.3-1.9,1.1c0.1,2.6-0.7,5.1-1.3,7.6s-1.1,5.2-0.3,7.7
			c-1.4-3.1-2.8-6.3-2.7-9.8c0-1.6,0.3-3.2,0.1-4.8c-0.2-1.3-0.7-2.5-1.1-3.7c-1-2.8-1.5-5.9-1-8.9c0.5-3,2.3-5.8,4.8-7.2
			c-0.2-3,1.8-5.7,4-7.7c7.2-6.7,17.4-9.5,26.8-7.3c2.3,0.5,4.5,1.3,6.3,2.8s3.6,3.8,3.6,6.2c1.7-0.6,3.7,0.3,4.9,1.7
			c1.2,1.5,1.7,3.4,2.1,5.3c2,9.8,0,20-1.9,29.8c-1.8-3.8-2.8-9-2.8-13.3c-3.5-2.3-5.7-6.5-5.7-10.9c-4.7,2.8-9.9,4.1-15.3,4.2
			C167.8,69.5,162.6,68.4,157.4,67z"/>
		<g>
			<path class="st86" d="M198.6,83.1c0.6-3.8,1.3-7.7,1-11.5c-0.3-3.9-1.5-7.8-4.2-10.5c-3.6-3.8-8.2-5.5-13.4-6.2
				c-8-1.2-17.5-1.3-25,2c-3.3,1.5-6.4,3.8-8.3,6.9c-1.9,3.1-2.6,6.7-2.6,10.3c0,3.6,0.6,7.1,1.3,10.7"/>
			<path class="st65" d="M151.8,96.5c-0.5,0.1-1,0.1-1.5,0.2c-1.6,0-3.2-0.5-4.4-1.6c-1.6-1.5-2.5-3.5-2.9-5.7
				c-0.3-1.9-0.2-3.8,0.6-5.5c0.6-1.3,1.6-2.2,2.8-2.7c0.4-0.2,0.9-0.3,1.4-0.4C148.8,86.1,150.1,91.4,151.8,96.5z"/>
			<path class="st87" d="M151.8,96.5c-0.5,0.1-1,0.1-1.5,0.2c-0.2-0.3-0.4-0.6-0.6-0.9c-1.3-2-2.1-4.4-2.6-6.7
				c-0.6-2.6-0.9-5.2-0.6-7.8c0.4-0.2,0.9-0.3,1.4-0.4C148.8,86.1,150.1,91.4,151.8,96.5z"/>
			<path class="st65" d="M202.9,89.4c-0.4,2.1-1.3,4.2-2.9,5.7c-1.2,1.1-2.7,1.6-4.3,1.6c-0.5,0-1.1-0.1-1.6-0.2
				c1.7-5.1,3.1-10.4,4-15.7c0.6,0.1,1.1,0.3,1.6,0.5c1.1,0.5,2,1.4,2.6,2.6C203.1,85.6,203.3,87.5,202.9,89.4z"/>
			<path class="st87" d="M199.8,82.9c0,2.4-0.4,4.8-1.1,7.2c-0.7,2.3-1.7,4.5-2.9,6.6c-0.5,0-1.1-0.1-1.6-0.2
				c1.7-5.1,3.1-10.4,4-15.7c0.6,0.1,1.1,0.3,1.6,0.5C199.8,81.9,199.8,82.6,199.8,82.9z"/>
			<path class="st14" d="M151.8,96.5c-1.7-5.1-3.1-10.4-4-15.7c-1.9,0.3-3.4,1.4-4.2,3.1c-0.8,1.7-0.9,3.7-0.6,5.5
				c0.4,2.1,1.3,4.2,2.9,5.7S149.7,96.9,151.8,96.5z"/>
			<path class="st14" d="M194.1,96.5c1.7-5.1,3.1-10.4,4-15.7c1.9,0.3,3.4,1.4,4.2,3.1c0.8,1.7,0.9,3.7,0.6,5.5
				c-0.4,2.1-1.3,4.2-2.9,5.7S196.3,96.9,194.1,96.5z"/>
			<path class="st88" d="M198.6,93.7c-1.3,10.5-9.2,22.1-17.7,23.8"/>
			<path class="st6" d="M179.3,119.6H177c-0.9,0-1.6-0.7-1.6-1.6V118c0-0.9,0.7-1.6,1.6-1.6h2.3c0.9,0,1.6,0.7,1.6,1.6v0.1
				C180.9,118.9,180.2,119.6,179.3,119.6z"/>
		</g>
	</g>
	<path class="st2" d="M269.8,93.8v15.1c0,3.9-3.3,7.1-7.3,7.1h-14.2h-9.2l-13.4,13.1c-0.5,0.5-1.3,0.1-1.3-0.5V116H218
		c-4,0-7.3-3.2-7.3-7.1V80.7c0-4,3.3-7.1,7.3-7.1h44.5c4,0,7.3,3.2,7.3,7.1V93.8z"/>
	<path class="st14" d="M248.3,116h-9.2l-13.4,13.1c-0.5,0.5-1.3,0.1-1.3-0.5V116H218c-4,0-7.3-3.2-7.3-7.1V80.7c0-4,3.3-7.1,7.3-7.1
		h44.5c4,0,7.3,3.2,7.3,7.1v13.1v15.1c0,3.9-3.3,7.1-7.3,7.1H248.3z"/>
	<polyline class="st4" points="57.8,213.4 73.8,213.4 137.7,213.4 207,213.4 216.6,213.4 260.3,213.4 272.7,213.4 284,213.4 	"/>
	<line class="st14" x1="226.5" y1="86" x2="256.2" y2="86"/>
	<line class="st89" x1="226.5" y1="91.8" x2="245.6" y2="91.8"/>
	<line class="st14" x1="226.5" y1="97.7" x2="256.2" y2="97.7"/>
	<line class="st89" x1="226.5" y1="103.5" x2="249.6" y2="103.5"/>
</g>
</svg>
