<?xml version="1.0" encoding="utf-8"?>
<!-- Generator: Adobe Illustrator 27.0.0, SVG Export Plug-In . SVG Version: 6.00 Build 0)  -->
<svg version="1.1" xmlns="http://www.w3.org/2000/svg" xmlns:xlink="http://www.w3.org/1999/xlink" x="0px" y="0px"
	 viewBox="0 0 330.4 271.1" style="enable-background:new 0 0 330.4 271.1;" xml:space="preserve">
<style type="text/css">
	.st0{opacity:0.89;fill:#FAEFEF;}
	.st1{fill:#E6A6A8;}
	.st2{fill:#FFFFFF;}
	.st3{fill:#C8C9CB;}
	.st4{fill:none;stroke:#601113;stroke-width:2;stroke-miterlimit:10;}
	.st5{fill:none;stroke:#E6A6A8;stroke-width:2;stroke-miterlimit:10;stroke-dasharray:2;}
	.st6{fill:#C02126;}
	.st7{opacity:0.37;}
	.st8{fill:#C0C5CF;}
	.st9{opacity:0.94;fill:#C0C5CF;}
	.st10{fill:none;stroke:#C0C5CF;stroke-linecap:round;stroke-linejoin:round;stroke-miterlimit:10;}
	.st11{fill:none;stroke:#D97A7D;stroke-linecap:round;stroke-linejoin:round;stroke-miterlimit:10;}
	.st12{opacity:0.27;}
	.st13{opacity:0.15;fill:#253746;}
	.st14{fill:none;stroke:#601113;stroke-width:2;stroke-linecap:round;stroke-linejoin:round;stroke-miterlimit:10;}
	.st15{opacity:0.38;fill:#C8C9CB;}
	.st16{opacity:0.78;}
	.st17{opacity:0.31;}
	.st18{fill:#B58D90;}
	.st19{fill:#CCBABD;}
	.st20{fill:#601113;}
	.st21{fill:#D97A7D;}
	.st22{fill:#F2D3D4;}
	.st23{fill:#F7E5E5;}
	.st24{opacity:0.42;}
	.st25{opacity:0.29;}
	.st26{fill:none;stroke:#601113;stroke-width:1.5;stroke-linecap:round;stroke-linejoin:round;stroke-miterlimit:10;}
	.st27{fill:#D9E1E2;}
	.st28{opacity:0.79;fill:#D9E1E2;}
	.st29{opacity:0.56;fill:#D9E1E2;}
	.st30{fill:none;stroke:#601113;stroke-width:2;stroke-linecap:round;stroke-miterlimit:10;}
	.st31{opacity:0.15;fill:#601113;}
	.st32{opacity:0.36;}
	.st33{opacity:0.49;}
	.st34{opacity:0.48;}
	.st35{opacity:0.36;fill:none;stroke:#B58D90;stroke-width:2;stroke-linecap:round;stroke-linejoin:round;stroke-miterlimit:10;}
	.st36{opacity:0.42;fill:none;stroke:#C02126;stroke-width:2;stroke-linecap:round;stroke-linejoin:round;stroke-miterlimit:10;}
	.st37{opacity:0.34;fill:none;stroke:#D97A7D;stroke-width:2;stroke-linecap:round;stroke-linejoin:round;stroke-miterlimit:10;}
	.st38{fill:#E3E5E7;}
	.st39{opacity:0.29;fill:#601113;}
	.st40{opacity:0.74;}
	.st41{opacity:0.44;fill:#C8C9CB;}
	.st42{fill:#FAEFEF;}
	.st43{opacity:0.2;fill:#601113;}
	.st44{opacity:0.25;fill:#FFFFFF;}
	.st45{opacity:0.34;fill:none;stroke:#601113;stroke-width:2;stroke-miterlimit:10;}
	.st46{opacity:0.34;}
	.st47{opacity:0.15;}
	.st48{opacity:0.23;fill:#253746;}
	.st49{fill:#253746;}
	.st50{opacity:0.3;fill:#C8C9CB;}
	.st51{fill:none;stroke:#23185D;stroke-width:1.5;stroke-linecap:round;stroke-linejoin:round;stroke-miterlimit:10;}
	.st52{opacity:0.54;}
	.st53{fill:none;stroke:#601113;stroke-width:0.25;stroke-miterlimit:10;}
	.st54{fill:#D1D1D1;}
	.st55{fill:none;stroke:#C02126;stroke-width:2;stroke-miterlimit:10;}
	.st56{fill:none;stroke:#C02126;stroke-width:2;stroke-miterlimit:10;stroke-dasharray:1.9895,1.9895;}
	.st57{opacity:0.25;fill:#601113;}
	.st58{opacity:0.26;fill:#FFFFFF;}
	.st59{fill:none;stroke:#FFFFFF;stroke-miterlimit:10;}
	.st60{fill:none;stroke:#FFFFFF;stroke-width:2;stroke-miterlimit:10;}
	.st61{opacity:0.43;}
	.st62{opacity:0.52;fill:none;stroke:#FFFFFF;stroke-width:2;stroke-linecap:round;stroke-linejoin:round;stroke-miterlimit:10;}
	.st63{fill:#401010;}
	.st64{opacity:0.15;fill:#3D0016;}
	.st65{fill:#717171;}
	.st66{opacity:0.42;fill:#FFFFFF;}
	.st67{opacity:0.33;fill:#601113;}
	.st68{fill:#ECEAEC;}
	.st69{opacity:0.17;fill:#601113;}
	.st70{opacity:0.58;fill:#FFFFFF;}
	.st71{opacity:0.12;fill:#601113;}
	.st72{opacity:0.35;}
	
		.st73{fill:none;stroke:#601113;stroke-width:2;stroke-linejoin:round;stroke-dasharray:2.0929,2.0929,2.0929,2.0929,2.0929,2.0929;}
	.st74{opacity:0.41;}
	.st75{opacity:0.33;}
	.st76{fill:none;stroke:#601113;stroke-width:2;stroke-linejoin:round;stroke-miterlimit:10;stroke-dasharray:2,2,2,2,2,2;}
	.st77{opacity:0.57;fill:#FFFFFF;}
	.st78{opacity:0.37;fill:none;stroke:#FFFFFF;stroke-linecap:round;stroke-linejoin:round;stroke-miterlimit:10;}
	.st79{opacity:0.48;fill:#FFFFFF;}
	.st80{fill:none;stroke:#601113;stroke-linecap:round;stroke-linejoin:round;stroke-miterlimit:10;}
	.st81{fill:none;stroke:#C02126;stroke-width:2;stroke-miterlimit:10;stroke-dasharray:2.0141,2.0141;}
	.st82{fill:#FDD7CF;}
	.st83{opacity:0.32;fill:#FFFFFF;}
	.st84{opacity:0.38;fill:#EAEAEA;}
	.st85{fill:#FCBDB0;}
	.st86{fill:none;stroke:#C02126;stroke-width:2.5;stroke-linecap:round;stroke-linejoin:round;stroke-miterlimit:10;}
	.st87{opacity:0.47;fill:#FFFFFF;}
	.st88{fill:none;stroke:#C02126;stroke-linecap:round;stroke-linejoin:round;stroke-miterlimit:10;}
	.st89{fill:none;stroke:#D97A7D;stroke-width:2;stroke-linecap:round;stroke-linejoin:round;stroke-miterlimit:10;}
	.st90{opacity:0.11;}
	.st91{opacity:0.2;}
	.st92{opacity:0.56;fill:#FFFFFF;}
	.st93{fill:none;stroke:#C02126;stroke-width:3;stroke-linecap:square;stroke-linejoin:round;stroke-miterlimit:10;}
	.st94{fill:none;stroke:#FFFFFF;stroke-width:3.5;stroke-linecap:round;stroke-linejoin:round;stroke-miterlimit:10;}
	.st95{fill:none;stroke:#C02126;stroke-width:2;stroke-linecap:round;stroke-linejoin:round;stroke-miterlimit:10;}
	.st96{fill:none;stroke:#601113;stroke-width:2;stroke-miterlimit:10;stroke-dasharray:2.9915,2.9915;}
	.st97{opacity:0.42;fill:none;stroke:#D6747A;stroke-width:2;stroke-miterlimit:10;}
	.st98{opacity:0.57;}
	.st99{opacity:0.79;fill:#E6A6A8;}
	.st100{opacity:0.56;fill:#E6A6A8;}
	.st101{fill:none;stroke:#FFFFFF;stroke-linecap:round;stroke-miterlimit:10;}
	.st102{fill:#ACB7BD;}
	.st103{fill:#ACD173;stroke:#250416;stroke-width:2.5;stroke-linecap:round;stroke-miterlimit:10;}
	.st104{fill:none;stroke:#95D8D9;stroke-width:2;stroke-miterlimit:10;stroke-dasharray:2;}
	.st105{fill:none;stroke:#081F1F;stroke-width:1.5;stroke-linecap:round;stroke-linejoin:round;stroke-miterlimit:10;}
	.st106{fill:none;stroke:#95D8D9;stroke-width:2;stroke-miterlimit:10;}
	.st107{fill:none;stroke:#3BBEC2;stroke-width:2;stroke-miterlimit:10;}
	.st108{fill:none;stroke:#C0C5CF;stroke-width:2;stroke-miterlimit:10;}
</style>
<g id="Layer_2">
	<path class="st0" d="M32.3,139.4c-0.7-31,16.9-52.9,37.9-56.2s42.5-0.8,57.4-12.8s35.6-41.7,59.1-42.2
		c57.7-1.2,110.2,85.6,111.4,137.2s-34.5,67.3-56.3,67.7c-21.8,0.5-46.4-27.5-73.6-26.9s-35.7,14.4-67.2,15.1S33.3,183.1,32.3,139.4
		z"/>
</g>
<g id="Layer_1">
	<polyline class="st4" points="57.8,213.4 73.8,213.4 137.7,213.4 207,213.4 216.6,213.4 260.3,213.4 272.7,213.4 284,213.4 	"/>
	<g class="st16">
		<path class="st3" d="M101.8,176H76.4c-4.5,0-8.1-3.6-8.1-8.1v-25.4c0-4.5,3.6-8.1,8.1-8.1h25.4c4.5,0,8.1,3.6,8.1,8.1V168
			C109.9,172.4,106.3,176,101.8,176z"/>
		<path class="st4" d="M101.8,176H76.4c-4.5,0-8.1-3.6-8.1-8.1v-25.4c0-4.5,3.6-8.1,8.1-8.1h25.4c4.5,0,8.1,3.6,8.1,8.1V168
			C109.9,172.4,106.3,176,101.8,176z"/>
		<path id="XMLID_00000096028516123933944340000008860245408106149269_" class="st2" d="M101.1,163.6l-1.8-1.9
			c0.7-1.2,1.3-2.4,1.6-3.8l2.6,0c0.9,0,1.7-0.7,1.7-1.7l0-2c0-0.9-0.7-1.7-1.7-1.7l-2.6,0c-0.3-1.3-0.8-2.6-1.5-3.8l1.9-1.8
			c0.7-0.7,0.7-1.7,0-2.4l-1.4-1.4c-0.7-0.7-1.7-0.7-2.4,0l-1.9,1.8c-1.2-0.7-2.4-1.3-3.7-1.6l0-2.6c0-0.9-0.7-1.7-1.7-1.7l-2,0
			c-0.9,0-1.7,0.7-1.7,1.7l0,2.6c-1.3,0.3-2.6,0.8-3.8,1.5l-1.8-1.9c-0.7-0.7-1.7-0.7-2.4,0l-1.4,1.4c-0.7,0.7-0.7,1.7,0,2.4
			l1.8,1.9c-0.8,1.2-1.3,2.4-1.6,3.8l-2.6,0c-0.9,0-1.7,0.7-1.7,1.7l0,1.9c0,0.9,0.7,1.7,1.7,1.7l2.6,0c0.3,1.3,0.8,2.6,1.5,3.8
			l-1.9,1.8c-0.7,0.7-0.7,1.7,0,2.4l1.4,1.4c0.7,0.7,1.7,0.7,2.4,0l1.9-1.8c1.2,0.7,2.4,1.3,3.8,1.6l0,2.6c0,0.9,0.7,1.7,1.7,1.7
			l1.9,0c0.9,0,1.7-0.7,1.7-1.7l0-2.6c1.3-0.3,2.6-0.8,3.8-1.5l1.8,1.9c0.7,0.7,1.7,0.7,2.4,0l1.4-1.4
			C101.8,165.4,101.8,164.3,101.1,163.6z M85.3,159.1c-2.1-2.1-2.1-5.5,0-7.6c2.1-2.1,5.5-2.1,7.6,0c2.1,2.1,2.1,5.5,0,7.6
			C90.8,161.2,87.4,161.2,85.3,159.1z"/>
	</g>
	<g>
		<g>
			<path class="st1" d="M141.6,212.8H86.9c-5.5,0-9.9-4.4-9.9-9.9h18.4h7.4h140h7.2h18.7c0,5.8-4.7,10.5-10.5,10.5c0,0-0.1,0-0.1,0
				L141.6,212.8z"/>
			<path class="st2" d="M181.7,208.1H163c-3.6,0-6.4-1.7-6.4-5.2l0,0h31.6l0,0C188.2,206.4,185.3,208.1,181.7,208.1z"/>
			<rect x="103.1" y="110.2" class="st2" width="140" height="92.6"/>
			<path class="st3" d="M250.2,105.4v97.5H243v-92.6V108c0-3-2.4-5.4-5.4-5.4c-22.5,0-99.5,0-129.1,0c-3,0-5.4,2.4-5.4,5.4v2.2v92.6
				h-7.4v-97.5c0-5.9,4.7-10.6,10.6-10.6c32.9,0,89.1,0,133.3,0C245.5,94.8,250.2,99.5,250.2,105.4z"/>
			<path class="st1" d="M108.2,102.6c29.7,0,106.6,0,129.1,0c3,0,5.4,2.4,5.4,5.4v2.2h-140V108C102.8,105,105.2,102.6,108.2,102.6z"
				/>
			<path class="st4" d="M143.9,212.8h-2.2H86.9c-5.5,0-9.9-4.4-9.9-9.9h18.4h7.4h140h7.2h18.7c0,5.8-4.7,10.5-10.5,10.5
				c0,0-0.1,0-0.1,0l-116.4-0.6"/>
			<path class="st4" d="M250,202.9v-97.5c0-5.9-4.7-10.6-10.6-10.6c-44.3,0-100.5,0-133.3,0c-5.9,0-10.6,4.8-10.6,10.6v97.5"/>
		</g>
	</g>
	<g>
		<path class="st27" d="M232.7,140.5H115c-2.8,0-5.2-2.3-5.2-5.2v-12.5c0-2.8,2.3-5.2,5.2-5.2h117.7c2.8,0,5.2,2.3,5.2,5.2v12.5
			C237.9,138.2,235.6,140.5,232.7,140.5z"/>
		<path class="st27" d="M152.2,149h-41.5c-0.5,0-0.9-0.4-0.9-0.9v-0.7c0-0.5,0.4-0.9,0.9-0.9h41.5c0.5,0,0.9,0.4,0.9,0.9v0.7
			C153.1,148.6,152.7,149,152.2,149z"/>
		<path class="st27" d="M226,155.3H110.9c-0.6,0-1.1-0.5-1.1-1.1v-0.3c0-0.6,0.5-1.1,1.1-1.1H226c0.6,0,1.1,0.5,1.1,1.1v0.3
			C227.1,154.8,226.6,155.3,226,155.3z"/>
		<path class="st28" d="M232.8,169.1H112.7c-1.6,0-2.8-1.3-2.8-2.8v-4.3c0-1.6,1.3-2.8,2.8-2.8h120.1c1.6,0,2.8,1.3,2.8,2.8v4.3
			C235.6,167.8,234.4,169.1,232.8,169.1z"/>
		<path class="st29" d="M164.5,189.6h-18.4c-0.9,0-1.6-0.7-1.6-1.6v-13.5c0-0.9,0.7-1.6,1.6-1.6h18.4c0.9,0,1.6,0.7,1.6,1.6V188
			C166.1,188.9,165.4,189.6,164.5,189.6z"/>
		<path class="st29" d="M130.6,189.6h-18.4c-0.9,0-1.6-0.7-1.6-1.6v-13.5c0-0.9,0.7-1.6,1.6-1.6h18.4c0.9,0,1.6,0.7,1.6,1.6V188
			C132.2,188.9,131.5,189.6,130.6,189.6z"/>
		<path class="st29" d="M199.7,189.6h-18.4c-0.9,0-1.6-0.7-1.6-1.6v-13.5c0-0.9,0.7-1.6,1.6-1.6h18.4c0.9,0,1.6,0.7,1.6,1.6V188
			C201.3,188.9,200.6,189.6,199.7,189.6z"/>
		<path class="st29" d="M235.6,189.6h-18.4c-0.9,0-1.6-0.7-1.6-1.6v-13.5c0-0.9,0.7-1.6,1.6-1.6h18.4c0.9,0,1.6,0.7,1.6,1.6V188
			C237.2,188.9,236.5,189.6,235.6,189.6z"/>
	</g>
	<g>
		<circle class="st2" cx="172.4" cy="115.4" r="43.9"/>
		<path class="st3" d="M190.2,102.5v4.8h-7.6v-4c0-5.6-4.5-10.1-10.1-10.1s-10.1,4.5-10.1,10.1v4h-7.7v-4.8
			c0-9.8,7.9-17.7,17.7-17.7S190.2,92.7,190.2,102.5z"/>
		<path class="st6" d="M195.8,109.2c0,2.8,0,8.2,0,14.1c0,12.6-10.5,22.7-23.4,22.7s-23.4-10.2-23.4-22.7c0-5.9,0-11.3,0-14.1
			c0-1.1,0.9-1.9,1.9-1.9h3.7h7.7h10.1h10.1h7.6h3.7C194.9,107.3,195.8,108.2,195.8,109.2z"/>
		<path class="st92" d="M173.6,86.2c-8.8,0.9-15.7,8-15.7,16.6v4.6h-4.1v-4.6c0-9.2,7.9-16.7,17.7-16.7
			C172.3,86.1,172.9,86.1,173.6,86.2z"/>
		<path class="st87" d="M174.5,146c-0.7,0.1-1.3,0.1-2,0.1c-12.9,0-23.4-10.2-23.4-22.7v-14.1c0-1.1,0.9-1.9,1.9-1.9h4.1
			c-1.1,0-1.9,0.9-1.9,1.9v14.1C153.1,135.2,162.5,145,174.5,146z"/>
		<g>
			<path class="st4" d="M172.4,146.1c12.9,0,23.4-10.2,23.4-22.7c0-5.9,0-11.3,0-14.1c0-1.1-0.9-1.9-1.9-1.9h-3.7h-7.6h-10.1h-10.1
				h-7.7H151c-1.1,0-1.9,0.9-1.9,1.9c0,2.8,0,8.2,0,14.1C149.1,135.9,159.5,146.1,172.4,146.1"/>
			<path class="st4" d="M182.5,107.3v-4c0-5.6-4.5-10.1-10.1-10.1s-10.1,4.5-10.1,10.1v4"/>
			<path class="st4" d="M190.2,107.3v-4.8c0-9.8-7.9-17.7-17.7-17.7s-17.7,7.9-17.7,17.7v4.8"/>
		</g>
		<line class="st55" x1="172.4" y1="71.5" x2="172.4" y2="62.2"/>
		<polyline class="st55" points="159,73.6 159,64.8 145.8,64.8 		"/>
		<polyline class="st55" points="186.2,73.7 186.2,56.6 204.8,56.6 		"/>
		<polyline class="st55" points="129.9,104.4 110.9,104.4 110.9,88.1 		"/>
		<line class="st55" x1="128.5" y1="118.1" x2="117.9" y2="118.1"/>
		<polyline class="st55" points="131.4,130.9 119.1,130.9 119.1,143 		"/>
		<polyline class="st55" points="215,104.4 225.7,104.4 225.7,90.3 		"/>
		<line class="st55" x1="216.3" y1="117.9" x2="228.7" y2="117.9"/>
		<polyline class="st55" points="213.5,130.9 233.8,130.9 233.8,148.5 		"/>
		<polyline class="st55" points="158.7,157.1 158.7,178.7 144.4,178.7 		"/>
		<line class="st55" x1="172.4" y1="159.3" x2="172.4" y2="173.2"/>
		<polyline class="st55" points="186.1,157.1 186.1,170.7 201.7,170.7 		"/>
		<circle class="st20" cx="143.1" cy="64.8" r="4.1"/>
		<circle class="st20" cx="172.4" cy="60.6" r="4.1"/>
		<circle class="st20" cx="204.8" cy="56.3" r="4.1"/>
		<circle class="st20" cx="225.7" cy="88.1" r="4.1"/>
		<circle class="st20" cx="229.3" cy="117.7" r="4.1"/>
		<circle class="st20" cx="233.8" cy="149.4" r="4.1"/>
		<circle class="st20" cx="201.7" cy="170.7" r="4.1"/>
		<circle class="st20" cx="172.4" cy="174.7" r="4.1"/>
		<circle class="st20" cx="140.6" cy="178.8" r="4.1"/>
		<circle class="st20" cx="119.6" cy="147.1" r="4.1"/>
		<circle class="st20" cx="115.6" cy="118.1" r="4.1"/>
		<circle class="st20" cx="110.9" cy="86.5" r="4.1"/>
		<circle class="st4" cx="172.4" cy="115.4" r="43.9"/>
		<circle class="st2" cx="172.4" cy="120.2" r="4.8"/>
		<path class="st2" d="M172.4,133.5h4.5l-3.4-11.7c0,0-0.5-1.8-1.1-3.7c-0.5,1.8-1.1,3.7-1.1,3.7l-3.4,11.7
			C168,133.5,172.4,133.5,172.4,133.5z"/>
	</g>
</g>
</svg>
