<?xml version="1.0" encoding="UTF-8"?>
<svg xmlns="http://www.w3.org/2000/svg" viewBox="0 0 702.15 652.87">
  <defs>
    <style>
      .cls-1 {
        fill: #bf2026;
      }

      .cls-2 {
        fill: #efefef;
      }

      .cls-3 {
        fill: #a5a5a5;
      }

      .cls-4 {
        fill: none;
        stroke: #bf2026;
        stroke-miterlimit: 10;
        stroke-width: 19px;
      }
    </style>
  </defs>
  <g id="Layer_1" data-name="Layer 1">
    <circle class="cls-3" cx="355.31" cy="348.05" r="189.61"/>
    <circle class="cls-2" cx="446.22" cy="268.83" r="31.17"/>
    <circle class="cls-2" cx="448.82" cy="332.47" r="16.88"/>
    <circle class="cls-2" cx="489.08" cy="314.29" r="11.69"/>
    <circle class="cls-3" cx="241.68" cy="48.7" r="48.7"/>
    <path class="cls-3" d="M330.17,214.07l-37.26,15.26c-5.01-57.64-23.72-103.84-56.61-138.2l37.26-15.26c7.48,50.42,26.48,96.44,56.61,138.2Z"/>
    <circle class="cls-3" cx="653.44" cy="143.2" r="48.7"/>
    <path class="cls-3" d="M522.77,277.75l-25.86-30.86c53.39-22.28,91.73-54.14,114.48-95.92l25.86,30.86c-45.77,22.44-83.84,54.53-114.48,95.92Z"/>
    <circle class="cls-3" cx="583.82" cy="551.77" r="48.7"/>
    <path class="cls-3" d="M422.26,456.5l23.89-32.4c34.24,46.64,74.24,76.38,120.21,88.64l-23.89,32.4c-32.6-39.19-72.75-68.62-120.21-88.64Z"/>
    <circle class="cls-3" cx="143.74" cy="604.16" r="48.7"/>
    <path class="cls-3" d="M268.85,464.43l27.08,29.79c-52.45,24.42-89.46,57.81-110.5,100.48l-27.08-29.79c44.82-24.28,81.56-57.88,110.5-100.48Z"/>
    <circle class="cls-3" cx="38.43" cy="315.58" r="38.42"/>
    <path class="cls-3" d="M186.35,312.12l-2.51,31.66c-42.36-16.98-81.55-20.25-117.46-9.32l2.51-31.66c38.16,12.68,77.33,15.67,117.46,9.32Z"/>
    <circle class="cls-3" cx="458.58" cy="98.22" r="25.49"/>
    <path class="cls-3" d="M431.42,192.55l-19.54-7.87c19.16-23.45,29-47.61,29.2-72.5l19.54,7.87c-15.6,21.64-25.26,45.84-29.2,72.5Z"/>
    <circle class="cls-3" cx="286.87" cy="612.02" r="25.49"/>
    <path class="cls-3" d="M302.71,515.14l20.34,5.51c-16.26,25.55-23.18,50.7-20.44,75.44l-20.34-5.51c12.93-23.33,19.68-48.5,20.44-75.44Z"/>
    <path class="cls-2" d="M204.55,53.39c0-22.04,19.83-39.9,44.3-39.9,10.28,0,19.73,3.16,27.24,8.45-8.11-9.35-20.73-15.36-34.92-15.36-24.47,0-44.3,17.86-44.3,39.9,0,12.78,6.68,24.15,17.06,31.45-5.87-6.77-9.38-15.28-9.38-24.54Z"/>
    <path class="cls-2" d="M211.75,378.86c0-99.47,78.69-180.11,175.75-180.11,40.77,0,78.26,14.26,108.07,38.13-32.17-42.19-82.24-69.35-138.54-69.35-97.06,0-175.75,80.64-175.75,180.11,0,57.69,26.5,109.01,67.67,141.97-23.29-30.55-37.21-68.98-37.21-110.75Z"/>
    <path class="cls-2" d="M550,559.88c0-22.04,19.83-39.9,44.3-39.9,10.28,0,19.73,3.16,27.24,8.45-8.11-9.35-20.73-15.36-34.92-15.36-24.47,0-44.3,17.86-44.3,39.9,0,12.78,6.68,24.15,17.06,31.45-5.87-6.77-9.38-15.28-9.38-24.54Z"/>
    <path class="cls-2" d="M268.18,615.99c0-10.84,9.75-19.62,21.79-19.62,5.05,0,9.7,1.55,13.4,4.15-3.99-4.6-10.2-7.56-17.17-7.56-12.03,0-21.79,8.79-21.79,19.62,0,6.29,3.29,11.88,8.39,15.47-2.89-3.33-4.61-7.51-4.61-12.07Z"/>
    <path class="cls-2" d="M440.78,99.64c0-10.48,9.43-18.97,21.06-18.97,4.89,0,9.38,1.5,12.95,4.02-3.85-4.44-9.86-7.3-16.6-7.3-11.63,0-21.06,8.49-21.06,18.97,0,6.08,3.18,11.48,8.11,14.95-2.79-3.22-4.46-7.26-4.46-11.66Z"/>
    <path class="cls-2" d="M10.33,316.97c0-16.26,14.63-29.43,32.68-29.43,7.58,0,14.55,2.33,20.1,6.23-5.98-6.9-15.29-11.33-25.76-11.33-18.05,0-32.68,13.18-32.68,29.43,0,9.43,4.93,17.81,12.58,23.2-4.33-4.99-6.92-11.27-6.92-18.1Z"/>
    <path class="cls-2" d="M108.15,610.73c0-22.53,20.28-40.79,45.29-40.79,10.51,0,20.17,3.23,27.85,8.64-8.29-9.56-21.19-15.71-35.7-15.71-25.01,0-45.29,18.26-45.29,40.79,0,13.07,6.83,24.69,17.44,32.15-6-6.92-9.59-15.62-9.59-25.08Z"/>
    <path class="cls-2" d="M619.46,148.3c0-21.44,19.3-38.83,43.11-38.83,10,0,19.2,3.07,26.51,8.22-7.89-9.1-20.17-14.95-33.98-14.95-23.81,0-43.11,17.38-43.11,38.83,0,12.44,6.5,23.5,16.6,30.61-5.71-6.59-9.13-14.87-9.13-23.88Z"/>
  </g>
  <g id="Layer_2" data-name="Layer 2">
    <circle class="cls-4" cx="344.92" cy="324.68" r="290.91"/>
    <rect class="cls-1" x="345.92" y="-54.92" width="18.78" height="797.4" rx="9.39" ry="9.39" transform="translate(-139.02 351.94) rotate(-45)"/>
  </g>
</svg>