<?xml version="1.0" encoding="UTF-8"?>
<svg id="Layer_1" data-name="Layer 1" xmlns="http://www.w3.org/2000/svg" viewBox="0 0 724.04 744.84">
  <defs>
    <style>
      .cls-1 {
        fill: #bf2026;
      }

      .cls-2 {
        fill: #ff6e79;
      }

      .cls-3 {
        fill: #efefef;
      }

      .cls-4 {
        fill: #a5a5a5;
      }
    </style>
  </defs>
  <circle class="cls-4" cx="336.33" cy="408.51" r="336.33"/>
  <circle class="cls-3" cx="353.54" cy="394.43" r="336.33"/>
  <circle class="cls-4" cx="181.57" cy="156.32" r="5.87"/>
  <path class="cls-1" d="M180.92,56.84l21.24,45.98c176.04-63.94,368.32,3.96,440.95,161.2,69.67,150.83,5.36,332.2-143.71,428.44-10.99,7.1-15.1,21.19-9.62,33.07h0c6.38,13.82,23.16,19.37,36.48,12.01,173.54-95.99,245.97-311.23,161.49-494.13C599.31,51.92,372.39-31.6,180.92,56.84Z"/>
  <path class="cls-2" d="M688.75,241.3C600.31,48.64,373.39-35.4,181.92,53.59l6.06,13.21c186.21-73.09,396.46,6.01,478.24,184.16,81.28,177.07,6.24,387.94-167.54,484.04-.34.19-.68.36-1.03.53,8.03,6.83,19.76,8.46,29.6,2.98,173.54-96.59,245.97-313.17,161.49-497.21Z"/>
  <path class="cls-1" d="M65.03,147.25l163.85,14.93c4.81.44,8.3-4.5,6.27-8.88L166.16,3.93c-2.03-4.39-8.04-4.94-10.83-.99L60.47,137.37c-2.79,3.95-.25,9.43,4.56,9.87Z"/>
  <path class="cls-2" d="M70.35,144.81L165.75,9.95c.7-.99,1.6-1.69,2.59-2.13l-1.93-4.16c-2.04-4.4-8.09-4.95-10.89-.99L60.12,137.53c-2.8,3.96-.25,9.46,4.59,9.9l4.52.41c.1-1.04.46-2.08,1.13-3.03Z"/>
  <circle class="cls-4" cx="350.61" cy="398.54" r="23.48"/>
  <path class="cls-4" d="M338.09,152.8h0c3.02,0,5.48,2.45,5.48,5.48v219.91h-10.96v-219.91c0-3.02,2.45-5.48,5.48-5.48Z" transform="translate(-23.27 32.66) rotate(-5.35)"/>
  <path class="cls-4" d="M420.26,368.41h10.96v118.57c0,3.02-2.45,5.48-5.48,5.48h0c-3.02,0-5.48-2.45-5.48-5.48v-118.57h0Z" transform="translate(-137.1 653.44) rotate(-66.93)"/>
  <circle class="cls-4" cx="389.74" cy="689.67" r="10.17"/>
  <circle class="cls-4" cx="61.04" cy="393.84" r="10.17"/>
  <circle class="cls-4" cx="483.65" cy="156.32" r="5.87"/>
  <circle class="cls-4" cx="98.22" cy="270.19" r="5.87"/>
  <circle class="cls-4" cx="583.83" cy="261.19" r="5.87"/>
  <circle class="cls-4" cx="509.87" cy="634.88" r="5.87"/>
  <circle class="cls-4" cx="226.96" cy="648.97" r="5.87"/>
  <circle class="cls-4" cx="595.96" cy="537.84" r="5.87"/>
  <circle class="cls-4" cx="123.65" cy="544.1" r="5.87"/>
  <circle class="cls-4" cx="632.35" cy="375.06" r="10.17"/>
  <circle class="cls-4" cx="316.17" cy="107.41" r="10.17"/>
</svg>