<?xml version="1.0" encoding="UTF-8"?>
<svg xmlns="http://www.w3.org/2000/svg" viewBox="0 0 4200 2000">
  <defs>
    <style>
      .cls-1 {
        fill: none;
        stroke: #bf2026;
        stroke-miterlimit: 10;
        stroke-width: 4px;
      }
    </style>
  </defs>
  <g id="Layer_1" data-name="Layer 1">
    <rect x="0" width="4200" height="2000"/>
  </g>
  <g id="Layer_2" data-name="Layer 2">
    <polyline class="cls-1" points="0 101.78 215.56 101.78 215.56 226.78 929.45 226.78"/>
    <circle class="cls-1" cx="955.84" cy="226.78" r="26.39"/>
    <circle class="cls-1" cx="886.39" cy="101.78" r="26.39"/>
    <circle class="cls-1" cx="482.22" cy="75.39" r="26.39"/>
    <circle class="cls-1" cx="575.28" cy="625.7" r="26.39"/>
    <circle class="cls-1" cx="575.28" cy="801.56" r="26.39"/>
    <circle class="cls-1" cx="508.61" cy="965.35" r="26.39"/>
    <circle class="cls-1" cx="641.95" cy="460" r="26.39"/>
    <circle class="cls-1" cx="353" cy="433.61" r="26.39"/>
    <circle class="cls-1" cx="151.09" cy="607.06" r="26.39"/>
    <circle class="cls-1" cx="241.11" cy="1618.61" r="26.39"/>
    <circle class="cls-1" cx="241.11" cy="1886.26" r="26.39"/>
    <circle class="cls-1" cx="120.56" cy="1618.61" r="26.39"/>
    <circle class="cls-1" cx="241.11" cy="1044.61" r="26.39"/>
    <circle class="cls-1" cx="353" cy="1084.52" r="26.39"/>
    <circle class="cls-1" cx="353" cy="1359.22" r="26.39"/>
    <circle class="cls-1" cx="762.28" cy="460" r="26.39"/>
    <circle class="cls-1" cx="886.39" cy="407.22" r="26.39"/>
    <circle class="cls-1" cx="762.28" cy="330.19" r="26.39"/>
    <polyline class="cls-1" points="0 460 213.67 460 213.67 332.22 735.89 332.22"/>
    <polyline class="cls-1" points="762.28 226.78 762.28 101.78 860 101.78"/>
    <line class="cls-1" x1="482.22" y1="226.78" x2="482.22" y2="101.78"/>
    <polyline class="cls-1" points="482.22 332.22 482.22 460 615.56 460"/>
    <polyline class="cls-1" points="0 701.78 762.28 700.78 762.28 488.89"/>
    <polyline class="cls-1" points="762.28 595.33 886.39 595.33 886.39 433.61"/>
    <line class="cls-1" x1="353" y1="701.35" x2="353" y2="460"/>
    <polyline class="cls-1" points="353 549 482.22 549 482.22 625.7 548.89 625.7"/>
    <line class="cls-1" x1="151.09" y1="701.35" x2="151.09" y2="633.52"/>
    <line class="cls-1" x1="575.28" y1="701.78" x2="575.28" y2="775.17"/>
    <polyline class="cls-1" points="0 946.57 151.09 946.57 151.09 786.91 353 786.91 353 965.35 482.22 965.35"/>
    <polyline class="cls-1" points="0 1261.17 241.11 1261.17 241.11 1071"/>
    <polyline class="cls-1" points="241.11 1166.09 353 1166.09 353 1110.91"/>
    <polyline class="cls-1" points="0 1385.61 124.7 1385.61 124.7 1488.91 353 1488.91 353 1385.61"/>
    <line class="cls-1" x1="241.11" y1="1488.91" x2="241.11" y2="1592.22"/>
    <polyline class="cls-1" points="0 1904.48 120.56 1904.48 120.56 1645"/>
    <polyline class="cls-1" points="124.7 1774.74 241.11 1774.74 241.11 1859.87"/>
    <polyline class="cls-1" points="4198.79 101.78 3983.23 101.78 3983.23 226.78 3269.35 226.78"/>
    <circle class="cls-1" cx="3242.96" cy="226.78" r="26.39"/>
    <circle class="cls-1" cx="3312.4" cy="101.78" r="26.39"/>
    <circle class="cls-1" cx="3716.57" cy="75.39" r="26.39"/>
    <circle class="cls-1" cx="3623.51" cy="625.7" r="26.39"/>
    <circle class="cls-1" cx="3623.51" cy="801.56" r="26.39"/>
    <circle class="cls-1" cx="3690.18" cy="1873.96" r="26.39"/>
    <circle class="cls-1" cx="3556.85" cy="460" r="26.39"/>
    <circle class="cls-1" cx="3845.79" cy="433.61" r="26.39"/>
    <circle class="cls-1" cx="4047.7" cy="607.06" r="26.39"/>
    <circle class="cls-1" cx="3955.93" cy="1027.66" r="26.39"/>
    <circle class="cls-1" cx="3957.68" cy="1298.37" r="26.39"/>
    <circle class="cls-1" cx="4078.23" cy="1026.39" r="26.39"/>
    <circle class="cls-1" cx="3957.68" cy="1390.66" r="26.39"/>
    <circle class="cls-1" cx="3845.79" cy="1430.57" r="26.39"/>
    <circle class="cls-1" cx="3844.04" cy="768.28" r="26.39"/>
    <circle class="cls-1" cx="3436.51" cy="460" r="26.39"/>
    <circle class="cls-1" cx="3312.4" cy="407.22" r="26.39"/>
    <circle class="cls-1" cx="3436.51" cy="330.19" r="26.39"/>
    <polyline class="cls-1" points="4198.79 460 3985.12 460 3985.12 332.22 3462.9 332.22"/>
    <polyline class="cls-1" points="3436.51 226.78 3436.51 101.78 3338.79 101.78"/>
    <line class="cls-1" x1="3716.57" y1="226.78" x2="3716.57" y2="101.78"/>
    <polyline class="cls-1" points="3716.57 332.22 3716.57 460 3583.23 460"/>
    <polyline class="cls-1" points="4198.79 701.78 3436.51 700.78 3436.51 488.89"/>
    <polyline class="cls-1" points="3436.51 595.33 3312.4 595.33 3312.4 433.61"/>
    <line class="cls-1" x1="3845.79" y1="701.35" x2="3845.79" y2="460"/>
    <polyline class="cls-1" points="3845.79 549 3716.57 549 3716.57 625.7 3649.9 625.7"/>
    <line class="cls-1" x1="4047.7" y1="701.35" x2="4047.7" y2="633.52"/>
    <line class="cls-1" x1="3623.51" y1="701.78" x2="3623.51" y2="775.17"/>
    <polyline class="cls-1" points="4198.79 1855.17 4047.7 1855.17 4047.7 1695.52 3845.79 1695.52 3845.79 1873.96 3716.57 1873.96"/>
    <polyline class="cls-1" points="4198.79 1607.22 3957.68 1607.22 3957.68 1417.05"/>
    <polyline class="cls-1" points="3957.68 1512.13 3845.79 1512.13 3845.79 1456.96"/>
    <polyline class="cls-1" points="4197.04 794.66 4072.34 794.66 4072.34 897.97 3844.04 897.97 3844.04 794.66"/>
    <line class="cls-1" x1="3955.93" y1="897.97" x2="3955.93" y2="1001.27"/>
    <polyline class="cls-1" points="4198.79 1316.59 4078.23 1316.59 4078.23 1057.11"/>
    <polyline class="cls-1" points="4074.09 1186.85 3957.68 1186.85 3957.68 1271.98"/>
  </g>
</svg>