<svg xmlns="http://www.w3.org/2000/svg" version="1.1" xmlns:xlink="http://www.w3.org/1999/xlink" xmlns:svgjs="http://svgjs.dev/svgjs" width="1440" height="560" preserveAspectRatio="none" viewBox="0 0 1440 560"><g mask="url(&quot;#SvgjsMask1502&quot;)" fill="none"><rect width="1440" height="560" x="0" y="0" fill="rgba(239, 239, 239, 1)"></rect><path d="M1667.26 352.89C1474.11 350.05 1224.43 123.63 931.25 117.69 638.06 111.75 663.61-39.93 563.24-43.41" stroke="rgba(189, 183, 183, 1)" stroke-width="2"></path><path d="M1575.51 385.34C1464.57 385.12 1356.41 315.34 1137.31 315.34 918.2 315.34 939.2 394.29 699.1 385.34 459.01 376.39 415.34-38.71 260.9-79.05" stroke="rgba(189, 183, 183, 1)" stroke-width="2"></path><path d="M1722.08 341.08C1531.9 338.36 1286.87 117.95 996.77 111.48 706.66 105.01 734.66-58.9 634.11-63.39" stroke="rgba(189, 183, 183, 1)" stroke-width="2"></path><path d="M1597.47 478.33C1491.05 478.09 1387.53 408.33 1177.59 408.33 967.65 408.33 997.12 493.45 757.71 478.33 518.3 463.21 497.66 1.61 337.83-55.95" stroke="rgba(189, 183, 183, 1)" stroke-width="2"></path><path d="M1473.25 66.55C1284.91 71.68 1125.13 346.72 773.54 346.55 421.95 346.38 277.2-57.37 73.83-73.04" stroke="rgba(189, 183, 183, 1)" stroke-width="2"></path></g><defs><mask id="SvgjsMask1502"><rect width="1440" height="560" fill="#ffffff"></rect></mask></defs></svg>