<?xml version="1.0" encoding="UTF-8"?>
<svg xmlns="http://www.w3.org/2000/svg" xmlns:xlink="http://www.w3.org/1999/xlink" viewBox="0 0 1600 800">
  <defs>
    <style>
      .cls-1, .cls-2, .cls-3 {
        fill: #bf2026;
      }

      .cls-4 {
        filter: url(#drop-shadow-22);
      }

      .cls-2 {
        stroke: #ff8891;
        stroke-width: 2px;
      }

      .cls-2, .cls-5, .cls-6, .cls-7, .cls-8, .cls-9, .cls-10, .cls-11 {
        stroke-miterlimit: 10;
      }

      .cls-12 {
        filter: url(#drop-shadow-7);
      }

      .cls-12, .cls-13, .cls-14, .cls-15, .cls-16, .cls-17, .cls-18 {
        fill: #606060;
      }

      .cls-13 {
        filter: url(#drop-shadow-12);
      }

      .cls-19 {
        filter: url(#drop-shadow-16);
      }

      .cls-19, .cls-20 {
        fill: #3f3f3f;
      }

      .cls-14 {
        filter: url(#drop-shadow-20);
      }

      .cls-21 {
        filter: url(#drop-shadow-6);
      }

      .cls-22 {
        filter: url(#drop-shadow-5);
      }

      .cls-22, .cls-23, .cls-24, .cls-25, .cls-26, .cls-27, .cls-28, .cls-29 {
        fill: #a3a3a3;
      }

      .cls-23 {
        filter: url(#drop-shadow-4);
      }

      .cls-30, .cls-31, .cls-32, .cls-33 {
        fill: #fff;
      }

      .cls-31 {
        filter: url(#drop-shadow-26);
      }

      .cls-24 {
        filter: url(#drop-shadow-21);
      }

      .cls-25 {
        filter: url(#drop-shadow-2);
      }

      .cls-32 {
        filter: url(#drop-shadow-27);
      }

      .cls-3 {
        filter: url(#drop-shadow-25);
      }

      .cls-16 {
        filter: url(#drop-shadow-19);
      }

      .cls-33 {
        opacity: .3;
      }

      .cls-5 {
        filter: url(#drop-shadow-15);
      }

      .cls-5, .cls-6, .cls-7, .cls-8, .cls-9, .cls-10, .cls-11 {
        fill: none;
      }

      .cls-5, .cls-6, .cls-7, .cls-9, .cls-10, .cls-11 {
        stroke: #3f3f3f;
        stroke-width: 3px;
      }

      .cls-34, .cls-35 {
        fill: #2b2b2b;
      }

      .cls-35 {
        filter: url(#drop-shadow-28);
      }

      .cls-36 {
        filter: url(#drop-shadow-23);
      }

      .cls-26 {
        filter: url(#drop-shadow-3);
      }

      .cls-6 {
        filter: url(#drop-shadow-11);
      }

      .cls-37 {
        fill: #d6d6d6;
      }

      .cls-17 {
        filter: url(#drop-shadow-17);
      }

      .cls-7 {
        filter: url(#drop-shadow-10);
      }

      .cls-27 {
        filter: url(#drop-shadow-14);
      }

      .cls-18 {
        filter: url(#drop-shadow-18);
      }

      .cls-8 {
        filter: url(#drop-shadow-24);
        stroke: #bf2026;
        stroke-width: 5px;
      }

      .cls-9 {
        filter: url(#drop-shadow-8);
      }

      .cls-38 {
        fill: #c6c6c6;
      }

      .cls-10 {
        filter: url(#drop-shadow-13);
      }

      .cls-11 {
        filter: url(#drop-shadow-9);
      }

      .cls-29 {
        filter: url(#drop-shadow-1);
      }
    </style>
    <filter id="drop-shadow-1" x="223.28" y="244.57" width="264" height="78" filterUnits="userSpaceOnUse">
      <feOffset dx="-3" dy="1"/>
      <feGaussianBlur result="blur" stdDeviation="2"/>
      <feFlood flood-color="#000" flood-opacity=".75"/>
      <feComposite in2="blur" operator="in"/>
      <feComposite in="SourceGraphic"/>
    </filter>
    <filter id="drop-shadow-2" x="225.28" y="334.57" width="264" height="77" filterUnits="userSpaceOnUse">
      <feOffset dx="-3" dy="1"/>
      <feGaussianBlur result="blur-2" stdDeviation="2"/>
      <feFlood flood-color="#000" flood-opacity=".75"/>
      <feComposite in2="blur-2" operator="in"/>
      <feComposite in="SourceGraphic"/>
    </filter>
    <filter id="drop-shadow-3" x="225.28" y="422.57" width="264" height="78" filterUnits="userSpaceOnUse">
      <feOffset dx="-3" dy="1"/>
      <feGaussianBlur result="blur-3" stdDeviation="2"/>
      <feFlood flood-color="#000" flood-opacity=".75"/>
      <feComposite in2="blur-3" operator="in"/>
      <feComposite in="SourceGraphic"/>
    </filter>
    <filter id="drop-shadow-4" x="225.28" y="512.57" width="264" height="77" filterUnits="userSpaceOnUse">
      <feOffset dx="-3" dy="1"/>
      <feGaussianBlur result="blur-4" stdDeviation="2"/>
      <feFlood flood-color="#000" flood-opacity=".75"/>
      <feComposite in2="blur-4" operator="in"/>
      <feComposite in="SourceGraphic"/>
    </filter>
    <filter id="drop-shadow-5" x="225.28" y="604.57" width="264" height="77" filterUnits="userSpaceOnUse">
      <feOffset dx="-3" dy="1"/>
      <feGaussianBlur result="blur-5" stdDeviation="2"/>
      <feFlood flood-color="#000" flood-opacity=".75"/>
      <feComposite in2="blur-5" operator="in"/>
      <feComposite in="SourceGraphic"/>
    </filter>
    <filter id="drop-shadow-6" x="207.28" y="194.57" width="296" height="537" filterUnits="userSpaceOnUse">
      <feOffset dx="-3" dy="1"/>
      <feGaussianBlur result="blur-6" stdDeviation="2"/>
      <feFlood flood-color="#000" flood-opacity=".75"/>
      <feComposite in2="blur-6" operator="in"/>
      <feComposite in="SourceGraphic"/>
    </filter>
    <filter id="drop-shadow-7" x="397.28" y="589.57" width="812" height="184" filterUnits="userSpaceOnUse">
      <feOffset dx="-3" dy="1"/>
      <feGaussianBlur result="blur-7" stdDeviation="2"/>
      <feFlood flood-color="#000" flood-opacity=".75"/>
      <feComposite in2="blur-7" operator="in"/>
      <feComposite in="SourceGraphic"/>
    </filter>
    <filter id="drop-shadow-8" x="535.28" y="385.57" width="33" height="52" filterUnits="userSpaceOnUse">
      <feOffset dx="-3" dy="1"/>
      <feGaussianBlur result="blur-8" stdDeviation="2"/>
      <feFlood flood-color="#000" flood-opacity=".75"/>
      <feComposite in2="blur-8" operator="in"/>
      <feComposite in="SourceGraphic"/>
    </filter>
    <filter id="drop-shadow-9" x="965.28" y="391.57" width="37" height="50" filterUnits="userSpaceOnUse">
      <feOffset dx="-3" dy="1"/>
      <feGaussianBlur result="blur-9" stdDeviation="2"/>
      <feFlood flood-color="#000" flood-opacity=".75"/>
      <feComposite in2="blur-9" operator="in"/>
      <feComposite in="SourceGraphic"/>
    </filter>
    <filter id="drop-shadow-10" x="558.28" y="380.57" width="25" height="56" filterUnits="userSpaceOnUse">
      <feOffset dx="-3" dy="1"/>
      <feGaussianBlur result="blur-10" stdDeviation="2"/>
      <feFlood flood-color="#000" flood-opacity=".75"/>
      <feComposite in2="blur-10" operator="in"/>
      <feComposite in="SourceGraphic"/>
    </filter>
    <filter id="drop-shadow-11" x="1023.28" y="390.57" width="36" height="50" filterUnits="userSpaceOnUse">
      <feOffset dx="-3" dy="1"/>
      <feGaussianBlur result="blur-11" stdDeviation="2"/>
      <feFlood flood-color="#000" flood-opacity=".75"/>
      <feComposite in2="blur-11" operator="in"/>
      <feComposite in="SourceGraphic"/>
    </filter>
    <filter id="drop-shadow-12" x="295.28" y="437.57" width="1012" height="180" filterUnits="userSpaceOnUse">
      <feOffset dx="-3" dy="1"/>
      <feGaussianBlur result="blur-12" stdDeviation="2"/>
      <feFlood flood-color="#000" flood-opacity=".75"/>
      <feComposite in2="blur-12" operator="in"/>
      <feComposite in="SourceGraphic"/>
    </filter>
    <filter id="drop-shadow-13" x="461.28" y="389.57" width="147" height="109" filterUnits="userSpaceOnUse">
      <feOffset dx="-3" dy="1"/>
      <feGaussianBlur result="blur-13" stdDeviation="2"/>
      <feFlood flood-color="#000" flood-opacity=".75"/>
      <feComposite in2="blur-13" operator="in"/>
      <feComposite in="SourceGraphic"/>
    </filter>
    <filter id="drop-shadow-14" x="295.28" y="604.57" width="1012" height="50" filterUnits="userSpaceOnUse">
      <feOffset dx="-3" dy="1"/>
      <feGaussianBlur result="blur-14" stdDeviation="2"/>
      <feFlood flood-color="#000" flood-opacity=".75"/>
      <feComposite in2="blur-14" operator="in"/>
      <feComposite in="SourceGraphic"/>
    </filter>
    <filter id="drop-shadow-15" x="996.28" y="476.57" width="129" height="54" filterUnits="userSpaceOnUse">
      <feOffset dx="-3" dy="1"/>
      <feGaussianBlur result="blur-15" stdDeviation="2"/>
      <feFlood flood-color="#000" flood-opacity=".75"/>
      <feComposite in2="blur-15" operator="in"/>
      <feComposite in="SourceGraphic"/>
    </filter>
    <filter id="drop-shadow-16" x="543.28" y="469.57" width="519" height="98" filterUnits="userSpaceOnUse">
      <feOffset dx="-3" dy="1"/>
      <feGaussianBlur result="blur-16" stdDeviation="2"/>
      <feFlood flood-color="#000" flood-opacity=".75"/>
      <feComposite in2="blur-16" operator="in"/>
      <feComposite in="SourceGraphic"/>
    </filter>
    <filter id="drop-shadow-17" x="398.28" y="164.57" width="401" height="244" filterUnits="userSpaceOnUse">
      <feOffset dx="-3" dy="1"/>
      <feGaussianBlur result="blur-17" stdDeviation="2"/>
      <feFlood flood-color="#000" flood-opacity=".75"/>
      <feComposite in2="blur-17" operator="in"/>
      <feComposite in="SourceGraphic"/>
    </filter>
    <filter id="drop-shadow-18" x="808.28" y="164.57" width="401" height="244" filterUnits="userSpaceOnUse">
      <feOffset dx="-3" dy="1"/>
      <feGaussianBlur result="blur-18" stdDeviation="2"/>
      <feFlood flood-color="#000" flood-opacity=".75"/>
      <feComposite in2="blur-18" operator="in"/>
      <feComposite in="SourceGraphic"/>
    </filter>
    <filter id="drop-shadow-19" x="490.28" y="421.57" width="223" height="49" filterUnits="userSpaceOnUse">
      <feOffset dx="-3" dy="1"/>
      <feGaussianBlur result="blur-19" stdDeviation="2"/>
      <feFlood flood-color="#000" flood-opacity=".75"/>
      <feComposite in2="blur-19" operator="in"/>
      <feComposite in="SourceGraphic"/>
    </filter>
    <filter id="drop-shadow-20" x="890.28" y="421.57" width="223" height="49" filterUnits="userSpaceOnUse">
      <feOffset dx="-3" dy="1"/>
      <feGaussianBlur result="blur-20" stdDeviation="2"/>
      <feFlood flood-color="#000" flood-opacity=".75"/>
      <feComposite in2="blur-20" operator="in"/>
      <feComposite in="SourceGraphic"/>
    </filter>
    <filter id="drop-shadow-21" x="1086.28" y="498.57" width="66" height="78" filterUnits="userSpaceOnUse">
      <feOffset dx="-3" dy="1"/>
      <feGaussianBlur result="blur-21" stdDeviation="2"/>
      <feFlood flood-color="#000" flood-opacity=".75"/>
      <feComposite in2="blur-21" operator="in"/>
      <feComposite in="SourceGraphic"/>
    </filter>
    <filter id="drop-shadow-22" x="1024.28" y="467.57" width="136" height="143" filterUnits="userSpaceOnUse">
      <feOffset dx="-3" dy="1"/>
      <feGaussianBlur result="blur-22" stdDeviation="2"/>
      <feFlood flood-color="#000" flood-opacity=".75"/>
      <feComposite in2="blur-22" operator="in"/>
      <feComposite in="SourceGraphic"/>
    </filter>
    <filter id="drop-shadow-23" x="455.28" y="463.57" width="135" height="143" filterUnits="userSpaceOnUse">
      <feOffset dx="-3" dy="1"/>
      <feGaussianBlur result="blur-23" stdDeviation="2"/>
      <feFlood flood-color="#000" flood-opacity=".75"/>
      <feComposite in2="blur-23" operator="in"/>
      <feComposite in="SourceGraphic"/>
    </filter>
    <filter id="drop-shadow-24" x="928.28" y="201.57" width="183" height="182" filterUnits="userSpaceOnUse">
      <feOffset dx="-3" dy="1"/>
      <feGaussianBlur result="blur-24" stdDeviation="2"/>
      <feFlood flood-color="#000" flood-opacity=".75"/>
      <feComposite in2="blur-24" operator="in"/>
      <feComposite in="SourceGraphic"/>
    </filter>
    <filter id="drop-shadow-25" x="945.28" y="218.57" width="149" height="150" filterUnits="userSpaceOnUse">
      <feOffset dx="-3" dy="1"/>
      <feGaussianBlur result="blur-25" stdDeviation="2"/>
      <feFlood flood-color="#000" flood-opacity=".75"/>
      <feComposite in2="blur-25" operator="in"/>
      <feComposite in="SourceGraphic"/>
    </filter>
    <filter id="drop-shadow-26" x="572.28" y="244.57" width="59" height="84" filterUnits="userSpaceOnUse">
      <feOffset dx="-3" dy="1"/>
      <feGaussianBlur result="blur-26" stdDeviation="2"/>
      <feFlood flood-color="#000" flood-opacity=".75"/>
      <feComposite in2="blur-26" operator="in"/>
      <feComposite in="SourceGraphic"/>
    </filter>
    <filter id="drop-shadow-27" x="584.28" y="326.57" width="35" height="34" filterUnits="userSpaceOnUse">
      <feOffset dx="-3" dy="1"/>
      <feGaussianBlur result="blur-27" stdDeviation="2"/>
      <feFlood flood-color="#000" flood-opacity=".75"/>
      <feComposite in2="blur-27" operator="in"/>
      <feComposite in="SourceGraphic"/>
    </filter>
    <filter id="drop-shadow-28" x="560.28" y="173.57" width="481" height="602" filterUnits="userSpaceOnUse">
      <feOffset dx="-3" dy="1"/>
      <feGaussianBlur result="blur-28" stdDeviation="2"/>
      <feFlood flood-color="#000" flood-opacity=".75"/>
      <feComposite in2="blur-28" operator="in"/>
      <feComposite in="SourceGraphic"/>
    </filter>
  </defs>
  <g id="Layer_3" data-name="Layer 3">
    <rect class="cls-15" x="238.54" y="214.66" width="233.52" height="496.57"/>
    <rect class="cls-29" x="232.67" y="250.06" width="250.79" height="64.54"/>
    <rect class="cls-25" x="235.08" y="339.7" width="250.79" height="64.54"/>
    <rect class="cls-26" x="235.08" y="428.53" width="250.79" height="64.54"/>
    <rect class="cls-23" x="235.08" y="517.77" width="250.79" height="64.54"/>
    <rect class="cls-22" x="235.08" y="610" width="250.79" height="64.54"/>
    <rect class="cls-37" x="340.08" y="636.23" width="132.65" height="21.8" rx="10.9" ry="10.9"/>
    <circle class="cls-2" cx="304.54" cy="282.33" r="10.15"/>
    <circle class="cls-2" cx="264.69" cy="282.33" r="10.15"/>
    <circle class="cls-2" cx="304.54" cy="374.03" r="10.15"/>
    <circle class="cls-2" cx="264.69" cy="374.03" r="10.15"/>
    <circle class="cls-2" cx="304.54" cy="551.39" r="10.15"/>
    <circle class="cls-2" cx="264.69" cy="551.39" r="10.15"/>
    <circle class="cls-2" cx="264.69" cy="647.13" r="10.15"/>
    <circle class="cls-2" cx="374.02" cy="461.93" r="10.15"/>
    <rect class="cls-37" x="340.08" y="271.43" width="132.65" height="21.8" rx="10.9" ry="10.9"/>
    <rect class="cls-37" x="340.08" y="363.13" width="132.65" height="21.8" rx="10.9" ry="10.9"/>
    <rect class="cls-37" x="245.72" y="452.04" width="37.94" height="21.8" rx="10.9" ry="10.9"/>
    <rect class="cls-37" x="295.72" y="452.04" width="37.94" height="21.8" rx="10.9" ry="10.9"/>
    <path class="cls-21" d="M477.63,199.75h-238.25c-12.22,0-22.12,9.9-22.12,22.12v480.13c0,12.22,9.9,22.12,22.12,22.12h238.25c12.22,0,22.12-9.9,22.12-22.12V221.87c0-12.22-9.9-22.12-22.12-22.12ZM479.19,679.71c0,12.22-9.9,22.12-22.12,22.12h-196.41c-12.22,0-22.12-9.9-22.12-22.12V241.47c0-12.22,9.9-22.12,22.12-22.12h196.41c12.22,0,22.12,9.9,22.12,22.12v438.24Z"/>
    <rect class="cls-33" x="263.74" y="219.35" width="39.84" height="482.48"/>
    <rect class="cls-33" x="319.02" y="219.35" width="24.31" height="482.48"/>
    <rect class="cls-33" x="355.3" y="219.35" width="12.16" height="482.48"/>
    <path class="cls-12" d="M406.41,595h799.43v151.43c0,11.01-8.94,19.96-19.96,19.96H426.37c-11.01,0-19.96-8.94-19.96-19.96v-151.43h0Z"/>
    <path class="cls-9" d="M564.52,392.27c-2.82,1.48-9.52,5.5-14.01,13.71-5.86,10.69-3.91,21.07-3.31,23.82"/>
    <path class="cls-11" d="M998.73,398.45c-2.98,1.11-10.14,4.24-15.65,11.8-7.18,9.86-6.58,20.4-6.33,23.2"/>
    <path class="cls-7" d="M578.45,386.63c-2.12,2.37-7,8.47-8.35,17.74-1.76,12.06,3.69,21.11,5.22,23.48"/>
    <path class="cls-6" d="M1034.08,396.22c-.34,3.16-.75,10.96,3.55,19.28,5.6,10.83,15.29,15.01,17.92,16.05"/>
    <path class="cls-13" d="M1303.54,610.14H304.54l93.81-156.31c3.87-6.45,10.84-10.39,18.36-10.39h777.52c7.62,0,14.67,4.05,18.51,10.64l90.81,156.06Z"/>
    <path class="cls-10" d="M481.28,395.42c-3.06,5.73-6.94,14.66-8.35,26.09-.69,5.59-4.32,35.01,10.96,46.43,13.37,10,25.71-5.38,51.13,3.13,17.33,5.8,19.85,15.71,35.48,17.74,13.7,1.78,25.72-4.03,33.39-8.87"/>
    <rect class="cls-27" x="304.54" y="610.14" width="999" height="36.98"/>
    <path class="cls-5" d="M1109.45,509.19c6.78-3.57,11.46-9.05,10.96-14.09-.78-7.79-13.89-13.76-22.43-10.96-14.96,4.9-12.53,35.54-22.43,37.04-6.03.92-8.43-12.94-19.3-22.43-13.46-11.75-33.33-11.65-50.09-8.87"/>
    <polygon class="cls-19" points="1059.16 559.65 553.09 559.65 603.77 475.2 1010.03 475.2 1059.16 559.65"/>
    <rect class="cls-28" x="553.09" y="559.65" width="506.08" height="18.73"/>
    <rect class="cls-17" x="407.58" y="169.71" width="388.46" height="231.58" rx="17.77" ry="17.77"/>
    <rect x="424.02" y="185.13" width="355.7" height="200.74" rx="17.77" ry="17.77"/>
    <rect class="cls-18" x="817.38" y="169.71" width="388.46" height="231.58" rx="17.77" ry="17.77"/>
    <rect x="833.82" y="185.13" width="355.7" height="200.74" rx="17.77" ry="17.77"/>
    <rect class="cls-16" x="499.75" y="426.94" width="210.13" height="36.36" rx="18.18" ry="18.18"/>
    <rect class="cls-14" x="899.6" y="426.94" width="210.13" height="36.36" rx="18.18" ry="18.18"/>
    <rect class="cls-15" x="579.83" y="386.63" width="44.07" height="71.61"/>
    <rect class="cls-15" x="989.63" y="386.63" width="44.07" height="71.61"/>
    <rect class="cls-28" x="509.39" y="449.6" width="189" height="6.66" rx="3.33" ry="3.33"/>
    <rect class="cls-28" x="910.16" y="451.6" width="189" height="6.66" rx="3.33" ry="3.33"/>
    <ellipse class="cls-24" cx="1122.03" cy="536.72" rx="24.95" ry="33.68" transform="translate(-121.6 516.83) rotate(-24.65)"/>
    <path class="cls-20" d="M1105.06,513.99c-6.76,4-8.98,14.05-5.12,23.51.24.6.95.86,1.54.59l12.22-5.61c.58-.27.83-.95.57-1.53l-7.55-16.46c-.29-.62-1.05-.86-1.65-.51Z"/>
    <path class="cls-20" d="M1115.86,509.03c7.44-2.52,16.5,2.36,21.17,11.45.29.57.03,1.28-.56,1.55l-12.22,5.61c-.58.27-1.26.01-1.53-.57l-7.55-16.46c-.29-.62.03-1.36.68-1.58Z"/>
    <rect class="cls-20" x="1110.25" y="510.82" width="6.14" height="13.88" rx="2.56" ry="2.56" transform="translate(-114.49 511.47) rotate(-24.65)"/>
  </g>
  <g id="Layer_4" data-name="Layer 4">
    <g class="cls-4">
      <path class="cls-38" d="M1090.8,467.07h14.28v49.58c0,3.94-3.2,7.14-7.14,7.14h0c-3.94,0-7.14-3.2-7.14-7.14v-49.58h0Z" transform="translate(1549.01 1612.32) rotate(-136.28)"/>
      <path class="cls-38" d="M1107.5,474.88h14.28v56.42c0,3.94-3.2,7.14-7.14,7.14h0c-3.94,0-7.14-3.2-7.14-7.14v-56.42h0Z" transform="translate(1570 1643.21) rotate(-136.28)"/>
      <path class="cls-38" d="M1119.46,494.48h14.28v49.58c0,3.94-3.2,7.14-7.14,7.14h0c-3.94,0-7.14-3.2-7.14-7.14v-49.58h0Z" transform="translate(1579.44 1679.35) rotate(-136.28)"/>
      <path class="cls-38" d="M1130.64,516.04h14.28v40.45c0,3.94-3.2,7.14-7.14,7.14h0c-3.94,0-7.14-3.2-7.14-7.14v-40.45h0Z" transform="translate(1586.95 1716.36) rotate(-136.28)"/>
      <path class="cls-38" d="M1042.62,499.02h0c9.06,0,16.41,7.35,16.41,16.41v34.41c0,4.53-3.68,8.21-8.21,8.21h0c-4.53,0-8.21-3.68-8.21-8.21v-50.82h0Z" transform="translate(1946.28 1291.25) rotate(-166.28)"/>
      <path class="cls-38" d="M1054.51,529.14h54.46c5.33,0,9.65,4.32,9.65,9.65v42.85h-73.76v-42.85c0-5.33,4.32-9.65,9.65-9.65Z" transform="translate(1479.65 1704.44) rotate(-136.28)"/>
      <path class="cls-38" d="M1045.84,554.61h35.79c5.33,0,9.65,4.32,9.65,9.65v29.57h-55.1v-29.57c0-5.33,4.32-9.65,9.65-9.65Z" transform="translate(1435.63 1724.43) rotate(-136.28)"/>
    </g>
    <g class="cls-36">
      <path class="cls-38" d="M523.3,463.06h0c3.94,0,7.14,3.2,7.14,7.14v49.58h-14.28v-49.58c0-3.94,3.2-7.14,7.14-7.14Z" transform="translate(-194.54 497.95) rotate(-43.72)"/>
      <path class="cls-38" d="M506.6,470.87h0c3.94,0,7.14,3.2,7.14,7.14v56.42h-14.28v-56.42c0-3.94,3.2-7.14,7.14-7.14Z" transform="translate(-206.93 489.53) rotate(-43.72)"/>
      <path class="cls-38" d="M494.64,490.47h0c3.94,0,7.14,3.2,7.14,7.14v49.58h-14.28v-49.58c0-3.94,3.2-7.14,7.14-7.14Z" transform="translate(-221.43 485.74) rotate(-43.72)"/>
      <path class="cls-38" d="M483.46,512.03h0c3.94,0,7.14,3.2,7.14,7.14v40.45h-14.28v-40.45c0-3.94,3.2-7.14,7.14-7.14Z" transform="translate(-236.28 482.73) rotate(-43.72)"/>
      <path class="cls-38" d="M570.42,495.02h0c4.53,0,8.21,3.68,8.21,8.21v34.41c0,9.06-7.35,16.41-16.41,16.41h0v-50.82c0-4.53,3.68-8.21,8.21-8.21Z" transform="translate(-108.14 150.28) rotate(-13.72)"/>
      <path class="cls-38" d="M502.61,525.14h73.76v42.85c0,5.33-4.32,9.65-9.65,9.65h-54.46c-5.33,0-9.65-4.32-9.65-9.65v-42.85h0Z" transform="translate(-231.5 525.78) rotate(-43.72)"/>
      <path class="cls-38" d="M529.95,550.61h55.1v29.57c0,5.33-4.32,9.65-9.65,9.65h-35.79c-5.33,0-9.65-4.32-9.65-9.65v-29.57h0Z" transform="translate(-239.52 543.44) rotate(-43.72)"/>
    </g>
    <polygon class="cls-15" points="947.71 328.64 997.28 276.98 999.1 255.33 1011.61 261.59 1002.76 253.51 1017.89 254.55 1043.97 224.55 1050.76 238.38 1070.32 236.29 1064.84 275.42 1080.24 283.77 1064.06 283.77 1063.02 288.46 1046.58 284.29 1078.93 304.85 1066.67 315.33 1080.24 351.07 1052.32 369.59 1013.97 374.03 985.8 367.25 958.93 346.38 947.71 328.64"/>
    <polygon class="cls-30" points="1024.15 266.81 1033.7 269.68 1033.7 273.85 1022.77 273.85 1024.15 266.81"/>
    <polygon class="cls-30" points="1055.97 277.25 1046.84 273.85 1049.19 280.64 1058.06 280.64 1055.97 277.25"/>
    <circle class="cls-8" cx="1022.77" cy="291.52" r="82.37"/>
    <rect class="cls-3" x="1019.64" y="197.51" width="6.26" height="190.96" rx="3.13" ry="3.13" transform="translate(506.74 -637.4) rotate(45)"/>
    <path class="cls-1" d="M595.57,204.24l-82.05,142.11c-4.11,7.12,1.03,16.01,9.25,16.01h164.1c8.22,0,13.36-8.9,9.25-16.01l-82.05-142.11c-4.11-7.12-14.38-7.12-18.49,0Z"/>
    <path class="cls-31" d="M613.74,314.19l13.73-52.75c1.52-5.84-2.89-11.54-8.92-11.54h-27.46c-6.03,0-10.44,5.7-8.92,11.54l13.73,52.75c2.39,9.2,15.45,9.2,17.84,0Z"/>
    <circle class="cls-32" cx="604.81" cy="342.53" r="10.7"/>
    <path class="cls-34" d="M589.28,554.97h55.15c11.56,0,20.95,9.39,20.95,20.95v129.65h-97.04v-129.65c0-11.56,9.39-20.95,20.95-20.95Z" transform="translate(-265 620.78) rotate(-45)"/>
    <path class="cls-34" d="M955.59,554.97h97.04v129.65c0,11.56-9.39,20.95-20.95,20.95h-55.15c-11.56,0-20.95-9.39-20.95-20.95v-129.65h0Z" transform="translate(1268.46 1785.95) rotate(-135)"/>
  </g>
  <g id="Layer_2" data-name="Layer 2">
    <rect class="cls-33" x="900.04" y="185.13" width="41.27" height="200.74"/>
    <rect class="cls-33" x="954.94" y="185.13" width="26.13" height="200.74"/>
    <rect class="cls-33" x="993.36" y="185.13" width="16.48" height="200.74"/>
    <rect class="cls-33" x="1024.56" y="185.13" width="8.24" height="200.74"/>
    <path class="cls-35" d="M810.29,179.42c13.84-.2,23.97,4.45,34.43,9.39,8.57,4.05,28.29,14.47,46.96,36,19.56,22.56,27.26,44.96,31.3,57.13,2.55,7.68,11.9,37.48,8.61,76.7-2.48,29.56-3.84,45.75-15.65,61.83-6.21,8.45-17.33,19.63-14.09,25.04,1.28,2.14,4.09,2.17,8.61,3.13,6.4,1.36,12.35,4.56,24.26,10.96,11.34,6.09,25.76,16.57,36.78,28.17,5.9,6.21,18.33,20.65,32.87,61.04,11.57,32.14,15.46,47.25,18,65.74,1.6,11.64,7.13,29.72,8.7,50.85,0,0,3.63,17.15,6.95,52.46.36,3.83.32,9.16-1.57,15.65-2.98,10.28-8.97,16.82-11.26,19.25-2.43,2.57-7.86,10.88-17.7,12.06-15.45,1.85-24.91,3.12-37.36,2.79-17.35-.46,0,0-40.9-.45-51.19-.56-129.38.68-204.33.34-55.14-.25-77-.14-81.32-.02-6.29.17-10.77-.85-35.22-1.11-9.78-.1-15.53-8.06-18.78-10.96-1.6-1.42-7.7-6.99-12.69-16.35-1.98-3.71-5.81-11.83-6.88-22.78-.64-6.55-.19-11.34,1.57-21.13,9.62-53.58,14.09-72.78,14.09-72.78,10.66-45.78,10.16-44.05,10.96-46.96,6-21.84,11.33-40.88,22.7-63.39,7.73-15.3,11.35-23.07,18.78-31.3,5.18-5.73,17.19-19.02,36.78-25.83,16.57-5.75,29.76-3.8,32.09-10.96.9-2.76-.41-5.06-3.13-10.96-4.12-8.93-6.71-18.52-10.96-27.39-10.38-21.71-7.61-61.48-7.04-69.65,2.51-36.07,13.74-62.87,19.57-75.13,7.22-15.19,15.12-31.4,32.09-46.96,14.6-13.38,29.1-20.02,38.35-24.26,12.82-5.87,21.81-9.99,34.43-10.17Z"/>
    <path class="cls-15" d="M724.99,447.32c1.5-2.83,25.39,3.12,70.43,3.43,55.34.38,85.83-8.13,87.65-4.9,2.13,3.78-35.97,21.82-81.39,21.57-42.56-.24-78.62-16.46-76.7-20.1Z"/>
    <path class="cls-15" d="M872.9,419.68c-3.46-6.18,18.49-17.79,29.74-38.35,17.84-32.61,5.83-82.41-18-113.48-33.34-43.46-92.06-53.19-88.43-68.09.88-3.64,5.02-5.67,7.83-7.04,15.1-7.41,35.15,5.41,43.83,10.96,28.51,18.23,42.51,44.22,50.09,58.7,6.97,13.32,19.1,37.04,21.91,70.43,1.08,12.85,5.87,69.59-22.7,85.3-9.33,5.13-21.93,5.73-24.26,1.57Z"/>
    <path class="cls-15" d="M902.74,461.94c9.24-.21,16.23,4.64,19.57,7.04,40.6,29.24,56.35,54.78,56.35,54.78,12.05,19.55,16.64,34.95,25.83,65.74,10.6,35.55,13.2,58.76,16.43,87.65,3.14,28.06,2.6,40.56-3.91,53.22-8.54,16.6-25,28.87-28.17,26.61-2.23-1.59,1.48-10.79,4.7-18.78,4-9.94,8.13-16.59,9.39-18.78,5.23-9.09,6.26-19.91,3.13-46.17-3.75-31.42-6.91-57.93-21.13-93.13-3.87-9.59-11.74-27.67-25.04-48.52-16.74-26.24-27.42-42.99-47.74-50.87-15.04-5.83-28.42-4.12-28.96-8.61-.48-4.02,9.69-9.95,19.57-10.17Z"/>
    <rect class="cls-33" x="456.92" y="185.13" width="41.27" height="200.74"/>
    <rect class="cls-33" x="511.82" y="185.13" width="26.13" height="200.74"/>
    <rect class="cls-33" x="550.24" y="185.13" width="16.48" height="200.74"/>
  </g>
</svg>