<?xml version="1.0" encoding="UTF-8"?>
<svg id="Layer_2" data-name="Layer 2" xmlns="http://www.w3.org/2000/svg" viewBox="0 0 881.5 785.26">
  <defs>
    <style>
      .cls-1 {
        fill: none;
        stroke: #a5a5a5;
        stroke-miterlimit: 10;
        stroke-width: 4px;
      }
    </style>
  </defs>
  <polyline class="cls-1" points="586.33 297.44 519.05 260.93 519.05 104.26 586.33 136.49 586.33 536.11 519.65 578.43 519.65 493.79 586.33 457.53 519.65 418.63 519.65 333.98 655.42 415.31 655.42 734.92 586.33 777.24 586.33 692.6 725.73 614.91"/>
  <polyline class="cls-1" points="314.78 301.89 244.47 344.22 244.47 259.57 314.78 219.71 383.27 259.72 314.78 301.89"/>
  <polyline class="cls-1" points="655.42 73.46 655.42 342.15 586.33 373.92"/>
  <polyline class="cls-1" points="842.86 207.95 792.41 180.07 723.92 217.4 723.92 302.04 792.41 259.72 792.41 100.41 842.86 126.76"/>
  <line class="cls-1" x1="246.29" y1="72.5" x2="246.29" y2="104.26"/>
  <polyline class="cls-1" points="108.7 73.46 108.7 180.07 40.81 142.13 40.81 72.5"/>
  <polyline class="cls-1" points="451.77 73.46 451.77 219.71 383.27 259.72"/>
  <polyline class="cls-1" points="519.65 493.79 451.77 456.78 519.65 418.63"/>
  <polyline class="cls-1" points="586.33 457.53 655.42 495.61 723.92 457.53 842.86 525.73"/>
  <polyline class="cls-1" points="842.86 603.68 725.73 536.97 655.42 573.8"/>
  <line class="cls-1" x1="792.41" y1="496.8" x2="842.86" y2="468.02"/>
  <polyline class="cls-1" points="792.41 415.31 725.73 376.31 725.73 614.91 792.41 652.39 725.73 686.64 725.73 771.29 792.41 734.92 792.41 415.31 842.86 388.57"/>
  <polyline class="cls-1" points="655.42 259.57 519.65 333.98 383.27 259.72 383.27 175.07 451.77 142.13 383.27 104.26 383.27 72.5"/>
  <polyline class="cls-1" points="519.05 180.07 586.33 216.94 725.73 142.13 725.73 73.46"/>
  <polyline class="cls-1" points="586.33 136.49 655.42 98.84 702 73.46"/>
  <line class="cls-1" x1="655.42" y1="98.84" x2="606.07" y2="73.46"/>
  <polyline class="cls-1" points="519.05 260.93 383.27 337.61 314.78 301.89 314.78 73.46"/>
  <polyline class="cls-1" points="383.27 175.07 314.78 136.49 383.27 104.26 331.75 73.46"/>
  <polyline class="cls-1" points="314.78 136.49 246.29 100.41 177.8 142.13 177.8 72.5"/>
  <polyline class="cls-1" points="156.37 73.46 108.7 98.84 57.44 73.46"/>
</svg>