<?xml version="1.0" encoding="UTF-8"?>
<svg xmlns="http://www.w3.org/2000/svg" viewBox="0 0 711.01 918.15">
  <defs>
    <style>
      .cls-1 {
        fill: #fff;
      }

      .cls-2 {
        fill: #efefef;
      }

      .cls-3 {
        fill: #a5a5a5;
      }

      .cls-4 {
        fill: none;
        stroke: #a5a5a5;
        stroke-miterlimit: 10;
        stroke-width: 10px;
      }
    </style>
  </defs>
  <g id="Layer_1" data-name="Layer 1">
    <path class="cls-3" d="M353.44,918.15l267.09-276.91c58.1-60.24,90.54-140.68,90.48-224.37l-.23-308.87L351.1,0,.1,108,0,418.04c-.03,82.99,31.9,162.81,89.17,222.88l264.28,277.23Z"/>
    <path class="cls-2" d="M351.89,870.65l235.54-244.2c58.1-60.24,90.54-140.68,90.48-224.37l-.2-270.12L349.76,33.48,29.72,131.95l-.09,271.3c-.03,82.99,31.9,162.81,89.17,222.88l233.1,244.52Z"/>
    <path class="cls-1" d="M677.33,132.34L349.37,33.87,29.33,132.34l-.09,271.3c-.03,80.51,30.02,158.02,84.1,217.43-39.64-54.79-61.32-120.98-61.29-189.34l.08-240.8,295.68-90.98,302.99,90.98.18,239.62c.06,78.45-28.44,154.04-79.87,212.82l15.95-16.54c58.1-60.24,90.54-140.68,90.48-224.37l-.2-270.12Z"/>
  </g>
  <g id="Layer_2" data-name="Layer 2">
    <polyline class="cls-4" points="679.71 126.57 351.02 455.26 24.69 128.94"/>
    <line class="cls-4" x1="437.89" y1="371.91" x2="656.82" y2="590.85"/>
    <line class="cls-4" x1="55.19" y1="590.85" x2="274.13" y2="371.91"/>
    <circle class="cls-3" cx="352.19" cy="825.04" r="9.98"/>
    <circle class="cls-3" cx="75.15" cy="139.48" r="9.98"/>
    <circle class="cls-3" cx="628.06" cy="139.48" r="9.98"/>
    <circle class="cls-1" cx="68.95" cy="132.63" r="6.46"/>
    <circle class="cls-1" cx="623.56" cy="132.63" r="6.46"/>
    <circle class="cls-2" cx="348.67" cy="819.17" r="6.46"/>
  </g>
</svg>