<?xml version="1.0" encoding="UTF-8"?>
<svg id="Layer_1" data-name="Layer 1" xmlns="http://www.w3.org/2000/svg" viewBox="0 0 857.8 798.65">
  <defs>
    <style>
      .cls-1 {
        fill: #bf2026;
      }

      .cls-2 {
        fill: none;
        stroke: #ff6e79;
        stroke-miterlimit: 10;
      }

      .cls-3 {
        fill: #470c11;
        opacity: .4;
      }

      .cls-4 {
        fill: #efefef;
      }

      .cls-5 {
        fill: #a5a5a5;
      }
    </style>
  </defs>
  <rect class="cls-1" x="158" y="384" width="189" height="180"/>
  <polygon class="cls-1" points="640 431 640 403 494 403 494 587 683 587 683.85 431 640 431"/>
  <path class="cls-1" d="M357,637h-188c-5.76-11.77-11.6-34.57-9-58h197s0,58,0,58Z"/>
  <circle class="cls-2" cx="554.3" cy="567.48" r="2.48"/>
  <polyline class="cls-2" points="620.57 588.74 620.57 572.83 609.35 572.83 609.35 562.91"/>
  <polyline class="cls-2" points="649 428.83 649 441.09 637 441.09 637 452.83 649 452.83 649 464.04"/>
  <polyline class="cls-2" points="571.26 587.17 571.26 577 590.3 577"/>
  <polyline class="cls-2" points="620.57 428.57 620.57 439 609.61 439 609.61 457.52 628.39 457.52"/>
  <polyline class="cls-2" points="508.65 447.87 525.09 447.87 525.09 438.22 541.78 438.22"/>
  <polyline class="cls-2" points="525.35 479.96 525.35 464.83 544.65 464.83 544.65 441.35"/>
  <polyline class="cls-2" points="590.04 478.39 590.04 469.52 600.48 469.52 600.48 459.09"/>
  <polyline class="cls-2" points="588.22 428.3 588.22 441.09 575.43 441.09 575.43 455.17 587.7 455.17 587.7 463.52"/>
  <polyline class="cls-2" points="563.96 479.17 563.96 463.26 554.57 463.26 554.57 442.13 562.39 442.13"/>
  <polyline class="cls-2" points="624.22 535 624.22 560.57 612.22 560.57"/>
  <circle class="cls-2" cx="544.26" cy="438.35" r="2.48"/>
  <polyline class="cls-2" points="155.3 423.22 171.74 423.22 171.74 413.57 188.43 413.57"/>
  <polyline class="cls-2" points="172 455.3 172 440.17 191.3 440.17 191.3 416.7"/>
  <circle class="cls-2" cx="190.91" cy="413.7" r="2.48"/>
  <polyline class="cls-2" points="659.04 592 659.04 575.57 649.39 575.57 649.39 558.87"/>
  <polyline class="cls-2" points="691.13 575.3 676 575.3 676 556 652.52 556"/>
  <circle class="cls-2" cx="649.52" cy="556.39" r="2.48"/>
  <circle class="cls-2" cx="564.87" cy="442" r="2.48"/>
  <polyline class="cls-2" points="633.61 541.78 633.61 557.7 643 557.7 643 578.83 635.17 578.83"/>
  <circle class="cls-2" cx="632.7" cy="578.96" r="2.48"/>
  <circle class="cls-2" cx="587.7" cy="465.48" r="2.48"/>
  <circle class="cls-2" cx="600.48" cy="456.61" r="2.48"/>
  <circle class="cls-2" cx="630.87" cy="457.78" r="2.48"/>
  <polyline class="cls-2" points="590.04 541.78 590.04 552.22 579.09 552.22 579.09 570.74 597.87 570.74"/>
  <circle class="cls-2" cx="600.35" cy="571" r="2.48"/>
  <circle class="cls-2" cx="592.52" cy="576.74" r="2.48"/>
  <circle class="cls-2" cx="660.48" cy="548.17" r="2.48"/>
  <circle class="cls-2" cx="649" cy="466.78" r="2.48"/>
  <circle class="cls-2" cx="609.35" cy="560.43" r="2.48"/>
  <polyline class="cls-2" points="275.17 628.85 259.91 628.85 259.91 609.28"/>
  <polyline class="cls-2" points="163.39 627.61 173.96 627.61 173.96 617.04 187.26 617.04 187.26 628 198.61 628"/>
  <polyline class="cls-2" points="672.74 478.13 672.74 462.22 661.52 462.22 661.52 452.3"/>
  <polyline class="cls-2" points="676.39 424.39 676.39 449.96 664.39 449.96"/>
  <circle class="cls-2" cx="661.52" cy="449.83" r="2.48"/>
  <polyline class="cls-2" points="269.83 535 269.83 522.74 257.83 522.74 257.83 511 269.83 511 269.83 499.78"/>
  <polyline class="cls-2" points="257.43 606.28 238.65 606.28 238.65 624.8 249.61 624.8 249.61 635.24 249.61 639.15"/>
  <polyline class="cls-2" points="152.17 518.3 168.61 518.3 168.61 527.96 185.3 527.96"/>
  <polyline class="cls-2" points="168.87 486.22 168.87 501.35 188.17 501.35 188.17 524.83"/>
  <polyline class="cls-2" points="233.57 487.78 233.57 496.65 244 496.65 244 507.09"/>
  <polyline class="cls-2" points="220.74 537.87 220.74 525.09 207.96 525.09 207.96 511 220.22 511 220.22 502.65"/>
  <polyline class="cls-2" points="152.57 392.3 168.48 392.3 168.48 401.7 189.61 401.7 189.61 393.87"/>
  <circle class="cls-2" cx="187.78" cy="527.83" r="2.48"/>
  <circle class="cls-2" cx="189.74" cy="391.39" r="2.48"/>
  <polyline class="cls-2" points="229.13 591.41 229.13 607.33 219.74 607.33 219.74 628.46 227.57 628.46"/>
  <circle class="cls-2" cx="230.04" cy="628.59" r="2.48"/>
  <polyline class="cls-2" points="151.52 599.24 167.43 599.24 167.43 608.63 188.57 608.63 188.57 600.8"/>
  <circle class="cls-2" cx="188.7" cy="598.33" r="2.48"/>
  <circle class="cls-2" cx="220.22" cy="500.7" r="2.48"/>
  <circle class="cls-2" cx="244" cy="509.57" r="2.48"/>
  <polyline class="cls-2" points="212.43 435.74 212.43 426.87 202 426.87 202 416.43"/>
  <circle class="cls-2" cx="202" cy="413.96" r="2.48"/>
  <circle class="cls-2" cx="200.96" cy="627.87" r="2.48"/>
  <circle class="cls-2" cx="269.83" cy="497.04" r="2.48"/>
  <polyline class="cls-2" points="239.98 401.76 227.72 401.76 227.72 413.76 215.98 413.76 215.98 401.76 204.76 401.76"/>
  <circle class="cls-2" cx="202.02" cy="401.76" r="2.48"/>
  <circle class="cls-2" cx="260.04" cy="606.22" r="2.48"/>
  <polyline class="cls-2" points="297.09 486.87 297.09 502.78 285.87 502.78 285.87 512.7"/>
  <polyline class="cls-2" points="300.74 540.61 300.74 515.04 288.74 515.04"/>
  <circle class="cls-2" cx="285.87" cy="515.17" r="2.48"/>
  <polyline class="cls-2" points="206.7 585.87 206.7 601.78 195.48 601.78 195.48 611.7"/>
  <polyline class="cls-2" points="210.35 639.61 210.35 614.04 198.35 614.04"/>
  <circle class="cls-2" cx="195.48" cy="614.17" r="2.48"/>
  <polyline class="cls-2" points="565.52 595.78 565.52 579.87 554.3 579.87 554.3 569.96"/>
  <polyline class="cls-2" points="569.17 542.04 569.17 567.61 557.17 567.61"/>
  <line class="cls-2" x1="662.96" y1="548.17" x2="685.52" y2="548.17"/>
  <path class="cls-5" d="M421.21,0h0c-120.83,0-218.79,79.01-218.79,176.48v134.76h61.57v-133.43c0-69.94,70.29-126.63,156.99-126.63h0c86.7,0,156.99,56.7,156.99,126.63v133.43h62.03v-134.76C640,79.01,542.05,0,421.21,0Z"/>
  <rect class="cls-5" x="81" y="386" width="77" height="45"/>
  <rect class="cls-5" y="489" width="158" height="45"/>
  <rect class="cls-5" x="683.8" y="431" width="174" height="45"/>
  <rect class="cls-5" x="683" y="542" width="137" height="45"/>
  <path class="cls-5" d="M169,637h-105c0-16-1-23-1-45h97c.66,14.68,4.05,29.74,9,45Z"/>
  <path class="cls-1" d="M471.35,467.96c0-30.26-24.53-54.78-54.78-54.78s-54.78,24.53-54.78,54.78c0,21.83,12.77,40.67,31.24,49.47v119.85h45v-118.91c19.59-8.35,33.33-27.78,33.33-50.42Z"/>
  <polyline class="cls-2" points="381.09 576.87 397.52 576.87 397.52 567.22 414.22 567.22"/>
  <polyline class="cls-2" points="417.09 569.83 417.09 584.96 397.78 584.96 397.78 608.43 387.87 608.43"/>
  <circle class="cls-2" cx="416.7" cy="567.35" r="2.48"/>
  <circle class="cls-2" cx="428.96" cy="609.22" r="2.48"/>
  <circle class="cls-2" cx="404.17" cy="525.48" r="2.48"/>
  <circle class="cls-2" cx="451.78" cy="458.04" r="2.48"/>
  <circle class="cls-2" cx="423.22" cy="496.39" r="2.48"/>
  <circle class="cls-2" cx="404.43" cy="548.83" r="2.48"/>
  <circle class="cls-2" cx="409.52" cy="469.39" r="2.48"/>
  <circle class="cls-2" cx="431.04" cy="469" r="2.48"/>
  <circle class="cls-2" cx="391.13" cy="440.04" r="2.48"/>
  <polyline class="cls-2" points="405.22 640.13 405.22 626.83 429.09 626.83 429.09 611.57"/>
  <polyline class="cls-2" points="370 501.22 391.52 501.22 391.52 481.26 404.04 481.26 404.04 522.74"/>
  <polyline class="cls-2" points="442 534.87 426.35 534.87 426.35 507.87 409.52 507.87 409.52 471.48"/>
  <polyline class="cls-2" points="441.61 595.91 428.3 595.91 428.3 549.35 407.17 549.35"/>
  <polyline class="cls-2" points="360.61 478.13 379.78 478.13 379.78 457 391.13 457 391.13 442.91"/>
  <polyline class="cls-2" points="388.65 440.04 379.39 440.04 379.39 420.22"/>
  <polyline class="cls-2" points="471.35 482.52 451.78 482.52 451.78 496.22 425.57 496.22"/>
  <polyline class="cls-2" points="438.09 412.78 438.09 431.17 451.78 431.17 451.78 455.43"/>
  <polyline class="cls-2" points="451.78 460.52 451.78 472.26 474.09 472.26"/>
  <polyline class="cls-2" points="407.57 408.48 407.57 448.78 431.04 448.78 431.04 464.04 431.04 466.52"/>
  <rect class="cls-3" x="512.04" y="429.61" width="9.39" height="46.96"/>
  <rect class="cls-3" x="307" y="488.57" width="9.39" height="46.96"/>
  <rect class="cls-3" x="224.57" y="386.3" width="9.39" height="46.96"/>
  <rect class="cls-3" x="548.57" y="540.22" width="9.39" height="46.96"/>
  <rect class="cls-3" x="262.65" y="590.83" width="9.39" height="46.96"/>
  <path class="cls-3" d="M482.3,488.57l-3.65-32.35-12.52-27.13-25.04-13.57-20.35-2.61h0c11.39,6.9,21.49,15.74,29.84,26.12h0c3.03,3.76,5.2,8.13,6.37,12.82l.41,1.63c2,8.02,2.49,16.34,1.44,24.54h0c-.67,5.21-2.63,10.17-5.72,14.43h0c-6.93,9.56-14.98,18.24-24,25.86h0v118.96h9.39v-118.93l26.09-2.63,17.74-27.13Z"/>
  <path class="cls-5" d="M683.93,431v-101.18H157.54v56.18h76.46v45h-76.46v58h158.46v45h-158.46v30.24c0,9.39.57,18.66,1.64,27.76h112.82v45h-102.93c30.62,93.84,118.82,161.65,222.89,161.65h57.56c121.78,0,221.87-92.87,233.31-211.65h-134.82v-45h135.93v-66h-171.93v-45h171.93ZM438.02,518.37v118.91h-45v-119.85c-18.47-8.81-31.24-27.65-31.24-49.47,0-30.26,24.53-54.78,54.78-54.78s54.78,24.53,54.78,54.78c0,22.64-13.74,42.07-33.33,50.42Z"/>
  <path class="cls-4" d="M446.74,753.14h-58.82c-84.23,0-158.29-43.48-200.99-109.22,33.31,80.93,112.93,137.91,205.87,137.91h54.65c102.2,0,188.28-68.89,214.41-162.77-39,79.41-120.66,134.08-215.11,134.08Z"/>
</svg>