<?xml version="1.0" encoding="UTF-8"?>
<svg id="Layer_1" data-name="Layer 1" xmlns="http://www.w3.org/2000/svg" viewBox="0 0 814.62 790.66">
  <defs>
    <style>
      .cls-1 {
        fill: #bf2026;
      }

      .cls-2 {
        fill: #fff;
      }

      .cls-3 {
        fill: #efefef;
      }

      .cls-4 {
        fill: #a5a5a5;
      }
    </style>
  </defs>
  <path d="M388.6,625.15h41.1c4.13,0,7.48,3.35,7.48,7.48v9.29h-56.07v-9.29c0-4.13,3.35-7.48,7.48-7.48Z"/>
  <path d="M106.9,625.15h41.1c4.13,0,7.48,3.35,7.48,7.48v9.29h-56.07v-9.29c0-4.13,3.35-7.48,7.48-7.48Z"/>
  <path d="M666.54,625.15h41.1c4.13,0,7.48,3.35,7.48,7.48v9.29h-56.07v-9.29c0-4.13,3.35-7.48,7.48-7.48Z"/>
  <path d="M127.45,594.4h0c11.66,0,21.13,9.47,21.13,21.13v21.13h-42.26v-21.13c0-11.66,9.47-21.13,21.13-21.13Z"/>
  <path d="M409.15,594.4h0c11.66,0,21.13,9.47,21.13,21.13v21.13h-42.26v-21.13c0-11.66,9.47-21.13,21.13-21.13Z"/>
  <path d="M687.09,594.4h0c11.66,0,21.13,9.47,21.13,21.13v21.13h-42.26v-21.13c0-11.66,9.47-21.13,21.13-21.13Z"/>
  <rect x="399.47" y="455.88" width="17.68" height="180.78"/>
  <rect x="212.97" y="135.4" width="17.68" height="180.78" transform="translate(-3.97 447.6) rotate(-90)"/>
  <rect x="581.38" y="135.4" width="17.68" height="180.78" transform="translate(364.44 816.01) rotate(-90)"/>
  <polygon class="cls-1" points="158.28 779.45 97.61 779.45 106.41 750.62 149.65 750.62 158.28 779.45"/>
  <rect class="cls-1" x="91.45" y="779.45" width="72" height="11.21" rx="5.61" ry="5.61"/>
  <polygon class="cls-1" points="439.98 779.45 379.32 779.45 388.12 750.62 431.36 750.62 439.98 779.45"/>
  <rect class="cls-1" x="373.15" y="779.45" width="72" height="11.21" rx="5.61" ry="5.61"/>
  <polygon class="cls-1" points="716.52 779.45 655.86 779.45 664.66 750.62 707.89 750.62 716.52 779.45"/>
  <rect class="cls-1" x="649.69" y="779.45" width="72" height="11.21" rx="5.61" ry="5.61"/>
  <path d="M678.17,216.92h9.51c4.6,0,8.33,3.73,8.33,8.33v416.66h-17.84V216.92h0Z"/>
  <path d="M126.86,216.92h9.51v424.99h-17.84V225.26c0-4.6,3.73-8.33,8.33-8.33Z"/>
  <path class="cls-4" d="M408.99,486.29l98.86-102.49c58.1-60.24,90.54-140.68,90.48-224.37l-.07-102.22L407.75,0l-185.9,57.2-.03,103.4c-.03,82.99,31.9,162.81,89.17,222.88l98.01,102.81Z"/>
  <path class="cls-3" d="M408.17,461.13l82.15-85.17c58.1-60.24,90.54-140.68,90.48-224.37l-.06-81.7-173.7-52.16-169.51,52.16-.03,82.88c-.03,82.99,31.9,162.81,89.17,222.88l81.5,85.49Z"/>
  <path class="cls-2" d="M252.45,170.89l.02-64.4,154.75-47.62,158.58,47.62.05,63.23c.05,71.34-23.53,140.31-66.47,196.43,52.39-59.02,81.48-135.33,81.42-214.56l-.06-81.7-173.7-52.16-169.51,52.16-.03,82.88c-.03,79.17,29.05,155.43,81.43,214.43-42.93-56.1-66.51-125.02-66.48-196.31Z"/>
  <circle class="cls-4" cx="408.33" cy="436.98" r="5.28"/>
  <circle class="cls-4" cx="261.59" cy="73.87" r="5.28"/>
  <circle class="cls-4" cx="554.44" cy="73.87" r="5.28"/>
  <circle class="cls-2" cx="258.31" cy="70.25" r="3.42"/>
  <circle class="cls-2" cx="552.06" cy="70.25" r="3.42"/>
  <circle class="cls-3" cx="406.46" cy="433.87" r="3.42"/>
  <path class="cls-4" d="M408.63,192.26c-1.6,0-3.16.12-4.7.34,15.88,2.28,28.09,15.94,28.09,32.45s-12.21,30.17-28.09,32.45c1.53.22,3.1.34,4.7.34,18.11,0,32.79-14.68,32.79-32.79s-14.68-32.79-32.79-32.79Z"/>
  <g>
    <path class="cls-4" d="M402.89,144.1c-45.11,0-81.69,36.57-81.69,81.69s36.57,81.69,81.69,81.69,81.69-36.57,81.69-81.69-36.57-81.69-81.69-81.69ZM402.89,258.73c-18.19,0-32.94-14.75-32.94-32.94s14.75-32.94,32.94-32.94,32.94,14.75,32.94,32.94-14.75,32.94-32.94,32.94Z"/>
    <path class="cls-4" d="M422.16,103.01h-38.54c-2.13,0-3.86,1.73-3.86,3.86v42.4h46.26v-42.4c0-2.13-1.73-3.86-3.86-3.86Z"/>
    <path class="cls-4" d="M426.02,300.83h-46.26v42.4c0,2.13,1.73,3.86,3.86,3.86h38.54c2.13,0,3.86-1.73,3.86-3.86v-42.4Z"/>
    <path class="cls-4" d="M329.08,194.54h-42.4c-2.13,0-3.86,1.73-3.86,3.86v38.54c0,2.13,1.73,3.86,3.86,3.86h42.4v-46.26Z"/>
    <path class="cls-4" d="M519.1,194.54h-42.4v46.26h42.4c2.13,0,3.86-1.73,3.86-3.86v-38.54c0-2.13-1.73-3.86-3.86-3.86Z"/>
    <path class="cls-4" d="M361.79,291.25l-32.71-32.71-29.98,29.98c-1.51,1.51-1.51,3.95,0,5.45l27.25,27.25c1.51,1.51,3.95,1.51,5.45,0l29.98-29.98Z"/>
    <path class="cls-4" d="M506.69,288.52l-29.98-29.98-32.71,32.71,29.98,29.98c1.51,1.51,3.95,1.51,5.45,0l27.25-27.25c1.51-1.51,1.51-3.95,0-5.45Z"/>
    <path class="cls-4" d="M369.69,151.53l-29.98-29.98c-1.51-1.51-3.95-1.51-5.45,0l-27.25,27.25c-1.51,1.51-1.51,3.95,0,5.45l29.98,29.98,32.71-32.71Z"/>
    <path class="cls-4" d="M498.78,148.8l-27.25-27.25c-1.51-1.51-3.95-1.51-5.45,0l-29.98,29.98,32.71,32.71,29.98-29.98c1.51-1.51,1.51-3.95,0-5.45Z"/>
  </g>
  <path class="cls-1" d="M408.33,143.36c-45.11,0-81.69,36.57-81.69,81.69s36.57,81.69,81.69,81.69,81.69-36.57,81.69-81.69-36.57-81.69-81.69-81.69ZM408.33,257.99c-18.19,0-32.94-14.75-32.94-32.94s14.75-32.94,32.94-32.94,32.94,14.75,32.94,32.94-14.75,32.94-32.94,32.94Z"/>
  <path class="cls-1" d="M389.06,102.27h38.54c2.13,0,3.86,1.73,3.86,3.86v42.4h-46.26v-42.4c0-2.13,1.73-3.86,3.86-3.86Z"/>
  <path class="cls-1" d="M385.2,300.09h46.26v42.4c0,2.13-1.73,3.86-3.86,3.86h-38.54c-2.13,0-3.86-1.73-3.86-3.86v-42.4h0Z"/>
  <path class="cls-1" d="M292.11,193.8h42.4v46.26h-42.4c-2.13,0-3.86-1.73-3.86-3.86v-38.54c0-2.13,1.73-3.86,3.86-3.86Z"/>
  <path class="cls-1" d="M482.14,193.8h42.4c2.13,0,3.86,1.73,3.86,3.86v38.54c0,2.13-1.73,3.86-3.86,3.86h-42.4v-46.26h0Z"/>
  <path class="cls-1" d="M311.39,267.38h46.26v42.4c0,2.13-1.73,3.86-3.86,3.86h-38.54c-2.13,0-3.86-1.73-3.86-3.86v-42.4h0Z" transform="translate(303.4 -151.45) rotate(45)"/>
  <path class="cls-1" d="M459.01,267.38h42.4c2.13,0,3.86,1.73,3.86,3.86v38.54c0,2.13-1.73,3.86-3.86,3.86h-42.4v-46.26h0Z" transform="translate(346.63 -255.84) rotate(45)"/>
  <path class="cls-1" d="M323.15,127.66h42.4v46.26h-42.4c-2.13,0-3.86-1.73-3.86-3.86v-38.54c0-2.13,1.73-3.86,3.86-3.86Z" transform="translate(206.92 -197.96) rotate(45)"/>
  <path class="cls-1" d="M454.96,127.66h38.54c2.13,0,3.86,1.73,3.86,3.86v42.4h-46.26v-42.4c0-2.13,1.73-3.86,3.86-3.86Z" transform="translate(245.52 -291.17) rotate(45)"/>
  <rect class="cls-4" x="280.88" y="636.66" width="254.89" height="127.96" rx="16.03" ry="16.03"/>
  <rect class="cls-3" x="290.63" y="648.4" width="232.43" height="105.65" rx="16.03" ry="16.03"/>
  <rect class="cls-4" x="559.72" y="636.66" width="254.89" height="127.96" rx="16.03" ry="16.03"/>
  <rect class="cls-3" x="569.47" y="648.4" width="232.43" height="105.65" rx="16.03" ry="16.03"/>
  <rect class="cls-4" y="636.66" width="254.89" height="127.96" rx="16.03" ry="16.03"/>
  <rect class="cls-3" x="9.75" y="648.4" width="232.43" height="105.65" rx="16.03" ry="16.03"/>
</svg>