<?xml version="1.0" encoding="UTF-8"?>
<svg id="Layer_1" data-name="Layer 1" xmlns="http://www.w3.org/2000/svg" viewBox="0 0 1174.95 857.7">
  <defs>
    <style>
      .cls-1 {
        fill: #bf2026;
      }

      .cls-2 {
        fill: #fff;
      }

      .cls-3 {
        fill: #efefef;
      }

      .cls-4 {
        fill: #a5a5a5;
      }
    </style>
  </defs>
  <path d="M564.08,625.15h41.1c4.13,0,7.48,3.35,7.48,7.48v9.29h-56.07v-9.29c0-4.13,3.35-7.48,7.48-7.48Z"/>
  <path d="M161.13,625.15h41.1c4.13,0,7.48,3.35,7.48,7.48v9.29h-56.07v-9.29c0-4.13,3.35-7.48,7.48-7.48Z"/>
  <path d="M968.44,625.15h41.1c4.13,0,7.48,3.35,7.48,7.48v9.29h-56.07v-9.29c0-4.13,3.35-7.48,7.48-7.48Z"/>
  <path d="M181.68,594.4h0c11.66,0,21.13,9.47,21.13,21.13v21.13h-42.26v-21.13c0-11.66,9.47-21.13,21.13-21.13Z"/>
  <path d="M584.63,594.4h0c11.66,0,21.13,9.47,21.13,21.13v21.13h-42.26v-21.13c0-11.66,9.47-21.13,21.13-21.13Z"/>
  <path d="M988.99,594.4h0c11.66,0,21.13,9.47,21.13,21.13v21.13h-42.26v-21.13c0-11.66,9.47-21.13,21.13-21.13Z"/>
  <rect x="574.95" y="455.88" width="17.68" height="180.78"/>
  <rect x="330.29" y="77.24" width="17.7" height="297.08" transform="translate(113.37 564.92) rotate(-90)"/>
  <rect x="821.15" y="71.11" width="18.17" height="309.84" transform="translate(604.2 1056.26) rotate(-90)"/>
  <polygon class="cls-1" points="212.52 846.49 151.85 846.49 160.65 817.66 203.89 817.66 212.52 846.49"/>
  <rect class="cls-1" x="145.68" y="846.49" width="72" height="11.21" rx="5.61" ry="5.61"/>
  <polygon class="cls-1" points="616.44 846.49 555.77 846.49 564.57 817.66 607.81 817.66 616.44 846.49"/>
  <rect class="cls-1" x="549.6" y="846.49" width="72" height="11.21" rx="5.61" ry="5.61"/>
  <polygon class="cls-1" points="1021.96 846.49 961.3 846.49 970.1 817.66 1013.33 817.66 1021.96 846.49"/>
  <rect class="cls-1" x="955.13" y="846.49" width="72" height="11.21" rx="5.61" ry="5.61"/>
  <path d="M980.07,216.92h9.51c4.6,0,8.33,3.73,8.33,8.33v416.66h-17.84V216.92h0Z"/>
  <path d="M181.1,216.92h9.51v424.99h-17.84V225.26c0-4.6,3.73-8.33,8.33-8.33Z"/>
  <path class="cls-4" d="M584.47,486.29l98.86-102.49c58.1-60.24,90.54-140.68,90.48-224.37l-.07-102.22L583.23,0l-185.9,57.2-.03,103.4c-.03,82.99,31.9,162.81,89.17,222.88l98.01,102.81Z"/>
  <path class="cls-3" d="M583.65,461.13l82.15-85.17c58.1-60.24,90.54-140.68,90.48-224.37l-.06-81.7-173.7-52.16-169.51,52.16-.03,82.88c-.03,82.99,31.9,162.81,89.17,222.88l81.5,85.49Z"/>
  <path class="cls-2" d="M427.93,170.89l.02-64.4,154.75-47.62,158.58,47.62.05,63.23c.05,71.34-23.53,140.31-66.47,196.43,52.39-59.02,81.48-135.33,81.42-214.56l-.06-81.7-173.7-52.16-169.51,52.16-.03,82.88c-.03,79.17,29.05,155.43,81.43,214.43-42.93-56.1-66.51-125.02-66.48-196.31Z"/>
  <circle class="cls-4" cx="583.81" cy="436.98" r="5.28"/>
  <circle class="cls-4" cx="437.07" cy="73.87" r="5.28"/>
  <circle class="cls-4" cx="729.92" cy="73.87" r="5.28"/>
  <circle class="cls-2" cx="433.79" cy="70.25" r="3.42"/>
  <circle class="cls-2" cx="727.54" cy="70.25" r="3.42"/>
  <circle class="cls-3" cx="581.94" cy="433.87" r="3.42"/>
  <path class="cls-4" d="M584.11,192.26c-1.6,0-3.16.12-4.7.34,15.88,2.28,28.09,15.94,28.09,32.45s-12.21,30.17-28.09,32.45c1.53.22,3.1.34,4.7.34,18.11,0,32.79-14.68,32.79-32.79s-14.68-32.79-32.79-32.79Z"/>
  <g>
    <path class="cls-4" d="M578.37,144.1c-45.11,0-81.69,36.57-81.69,81.69s36.57,81.69,81.69,81.69,81.69-36.57,81.69-81.69-36.57-81.69-81.69-81.69ZM578.37,258.73c-18.19,0-32.94-14.75-32.94-32.94s14.75-32.94,32.94-32.94,32.94,14.75,32.94,32.94-14.75,32.94-32.94,32.94Z"/>
    <path class="cls-4" d="M597.64,103.01h-38.54c-2.13,0-3.86,1.73-3.86,3.86v42.4h46.26v-42.4c0-2.13-1.73-3.86-3.86-3.86Z"/>
    <path class="cls-4" d="M601.5,300.83h-46.26v42.4c0,2.13,1.73,3.86,3.86,3.86h38.54c2.13,0,3.86-1.73,3.86-3.86v-42.4Z"/>
    <path class="cls-4" d="M504.56,194.54h-42.4c-2.13,0-3.86,1.73-3.86,3.86v38.54c0,2.13,1.73,3.86,3.86,3.86h42.4v-46.26Z"/>
    <path class="cls-4" d="M694.58,194.54h-42.4v46.26h42.4c2.13,0,3.86-1.73,3.86-3.86v-38.54c0-2.13-1.73-3.86-3.86-3.86Z"/>
    <path class="cls-4" d="M537.27,291.25l-32.71-32.71-29.98,29.98c-1.51,1.51-1.51,3.95,0,5.45l27.25,27.25c1.51,1.51,3.95,1.51,5.45,0l29.98-29.98Z"/>
    <path class="cls-4" d="M682.17,288.52l-29.98-29.98-32.71,32.71,29.98,29.98c1.51,1.51,3.95,1.51,5.45,0l27.25-27.25c1.51-1.51,1.51-3.95,0-5.45Z"/>
    <path class="cls-4" d="M545.17,151.53l-29.98-29.98c-1.51-1.51-3.95-1.51-5.45,0l-27.25,27.25c-1.51,1.51-1.51,3.95,0,5.45l29.98,29.98,32.71-32.71Z"/>
    <path class="cls-4" d="M674.26,148.8l-27.25-27.25c-1.51-1.51-3.95-1.51-5.45,0l-29.98,29.98,32.71,32.71,29.98-29.98c1.51-1.51,1.51-3.95,0-5.45Z"/>
  </g>
  <path class="cls-1" d="M583.81,143.36c-45.11,0-81.69,36.57-81.69,81.69s36.57,81.69,81.69,81.69,81.69-36.57,81.69-81.69-36.57-81.69-81.69-81.69ZM583.81,257.99c-18.19,0-32.94-14.75-32.94-32.94s14.75-32.94,32.94-32.94,32.94,14.75,32.94,32.94-14.75,32.94-32.94,32.94Z"/>
  <path class="cls-1" d="M564.53,102.27h38.54c2.13,0,3.86,1.73,3.86,3.86v42.4h-46.26v-42.4c0-2.13,1.73-3.86,3.86-3.86Z"/>
  <path class="cls-1" d="M560.68,300.09h46.26v42.4c0,2.13-1.73,3.86-3.86,3.86h-38.54c-2.13,0-3.86-1.73-3.86-3.86v-42.4h0Z"/>
  <path class="cls-1" d="M467.59,193.8h42.4v46.26h-42.4c-2.13,0-3.86-1.73-3.86-3.86v-38.54c0-2.13,1.73-3.86,3.86-3.86Z"/>
  <path class="cls-1" d="M657.62,193.8h42.4c2.13,0,3.86,1.73,3.86,3.86v38.54c0,2.13-1.73,3.86-3.86,3.86h-42.4v-46.26h0Z"/>
  <path class="cls-1" d="M486.87,267.38h46.26v42.4c0,2.13-1.73,3.86-3.86,3.86h-38.54c-2.13,0-3.86-1.73-3.86-3.86v-42.4h0Z" transform="translate(354.79 -275.53) rotate(45)"/>
  <path class="cls-1" d="M634.49,267.38h42.4c2.13,0,3.86,1.73,3.86,3.86v38.54c0,2.13-1.73,3.86-3.86,3.86h-42.4v-46.26h0Z" transform="translate(398.03 -379.92) rotate(45)"/>
  <path class="cls-1" d="M498.63,127.66h42.4v46.26h-42.4c-2.13,0-3.86-1.73-3.86-3.86v-38.54c0-2.13,1.73-3.86,3.86-3.86Z" transform="translate(258.31 -322.05) rotate(45)"/>
  <path class="cls-1" d="M630.44,127.66h38.54c2.13,0,3.86,1.73,3.86,3.86v42.4h-46.26v-42.4c0-2.13,1.73-3.86,3.86-3.86Z" transform="translate(296.92 -415.25) rotate(45)"/>
  <rect class="cls-4" x="405.12" y="636.66" width="367.64" height="184.56" rx="16.03" ry="16.03"/>
  <rect class="cls-3" x="419.18" y="653.59" width="335.25" height="152.39" rx="16.03" ry="16.03"/>
  <rect class="cls-4" x="807.31" y="636.66" width="367.64" height="184.56" rx="16.03" ry="16.03"/>
  <rect class="cls-3" x="821.37" y="653.59" width="335.25" height="152.39" rx="16.03" ry="16.03"/>
  <rect class="cls-4" y="636.66" width="367.64" height="184.56" rx="16.03" ry="16.03"/>
  <rect class="cls-3" x="14.06" y="653.59" width="335.25" height="152.39" rx="16.03" ry="16.03"/>
</svg>