<?xml version="1.0" encoding="UTF-8"?>
<svg id="Layer_1" data-name="Layer 1" xmlns="http://www.w3.org/2000/svg" viewBox="0 0 703.09 936.02">
  <defs>
    <style>
      .cls-1 {
        fill: #bf2026;
      }

      .cls-2 {
        fill: #fff;
      }

      .cls-3 {
        fill: #efefef;
      }

      .cls-4 {
        fill: none;
        stroke: #a5a5a5;
        stroke-miterlimit: 10;
        stroke-width: 4px;
      }

      .cls-5 {
        fill: #a5a5a5;
      }
    </style>
  </defs>
  <path class="cls-5" d="M501.57,568.96h47.43v134.67h-47.43c-13.26,0-24.03-10.77-24.03-24.03v-86.61c0-13.26,10.77-24.03,24.03-24.03Z" transform="translate(1099.57 1206.01) rotate(173.07)"/>
  <path class="cls-5" d="M480.19,577.39c-47.48-159.21-181.16-259.88-298.58-224.87-106.29,31.7-162.83,163.72-137.38,306.55l-5.76,1.4c-27.03,6.58-43.6,33.81-37.03,60.84l7.72,31.74c6.58,27.03,33.81,43.6,60.84,37.03l19.17-4.66c61.78,110.34,168.49,172.23,264.37,143.64,117.42-35.02,174.13-192.47,126.65-351.67Z"/>
  <circle class="cls-5" cx="510.38" cy="525.76" r="21.91"/>
  <circle class="cls-5" cx="560.18" cy="471.08" r="27.51"/>
  <circle class="cls-5" cx="584.16" cy="392.93" r="34.36"/>
  <path class="cls-5" d="M703.09,204.65c0-47.37-35.48-86.43-81.3-92.14-11.75-37.82-47.02-65.29-88.71-65.29-15.55,0-30.2,3.84-43.07,10.6C476.16,23.91,442.88,0,403.99,0c-43.02,0-79.19,29.25-89.75,68.94-14.18-8.77-30.89-13.84-48.78-13.84-48.86,0-88.88,37.74-92.57,85.65-41.6,9.21-72.72,46.29-72.72,90.66,0,51.3,41.58,92.88,92.88,92.88,8.31,0,16.35-1.11,24.01-3.15,13.73,34.14,47.13,58.25,86.18,58.25,19.46,0,37.51-5.99,52.43-16.22,16.67,15.89,39.22,25.66,64.06,25.66,30.7,0,57.91-14.9,74.82-37.86,10.48,4.1,21.87,6.37,33.8,6.37,39.7,0,73.56-24.92,86.85-59.96,48.97-2.6,87.88-43.12,87.88-92.74Z"/>
  <circle class="cls-3" cx="504.89" cy="523.36" r="15.37"/>
  <circle class="cls-3" cx="562.27" cy="466.04" r="21.37"/>
  <circle class="cls-3" cx="587.82" cy="389.27" r="27.63"/>
  <path class="cls-3" d="M685.82,203.88c0-43.83-32.83-79.98-75.23-85.25-10.87-35-43.51-60.41-82.08-60.41-14.39,0-27.94,3.55-39.86,9.8-12.8-31.38-43.6-53.5-79.59-53.5-39.8,0-73.27,27.06-83.04,63.79-13.12-8.12-28.58-12.81-45.14-12.81-45.21,0-82.24,34.92-85.66,79.25-38.49,8.52-67.29,42.83-67.29,83.89,0,47.46,38.48,85.94,85.94,85.94,7.69,0,15.13-1.02,22.22-2.92,12.71,31.59,43.61,53.9,79.74,53.9,18,0,34.71-5.55,48.51-15.01,15.42,14.7,36.29,23.75,59.27,23.75,28.4,0,53.58-13.79,69.23-35.03,9.7,3.79,20.24,5.9,31.28,5.9,36.73,0,68.07-23.06,80.36-55.48,45.31-2.4,81.32-39.9,81.32-85.81Z"/>
  <path class="cls-3" d="M506.51,576.41l-40.89,4.97,14.83,122,40.89-4.97c13.17-1.6,22.55-13.58,20.95-26.75l-9.03-74.3c-1.6-13.17-13.58-22.55-26.75-20.95Z"/>
  <path class="cls-3" d="M474.07,582.38c-43.74-146.68-166.91-239.44-275.09-207.18-97.93,29.2-150.02,150.84-126.57,282.44l-5.31,1.29c-24.9,6.06-40.17,31.15-34.12,56.05l7.12,29.25c6.06,24.9,31.15,40.17,56.05,34.12l17.66-4.3c56.92,101.66,155.23,158.68,243.57,132.34,108.19-32.26,160.43-177.33,116.69-324.01Z"/>
  <circle class="cls-2" cx="367.16" cy="593.34" r="40.13"/>
  <circle class="cls-2" cx="208.35" cy="637.91" r="40.13"/>
  <circle cx="213.7" cy="619.57" r="20.07"/>
  <circle cx="372.52" cy="575.01" r="20.07"/>
  <polygon class="cls-5" points="292.19 594.69 293.11 594.58 350.09 695.25 305.08 700.72 292.19 594.69"/>
  <path class="cls-4" d="M196.85,770.71c80.07,29.24,149.32,24.09,204.77-24.89"/>
  <path class="cls-4" d="M187.52,794.18c14.86-24.32,14.1-45.95-6.78-64.14"/>
  <path class="cls-5" d="M193.95,535.61c-6.98-13.85,56.42-42.93,51.52-75.53-4.43-29.53-60.87-35.05-61.59-64.89-.37-15.24,14.07-25.82,15.42-26.78,25.86-18.38,66.84,8.28,69.73,10.2,2.12,1.42,48.09,33.25,41.3,83.7-7,52.07-62.89,69.68-72.12,72.58-14.96,4.71-40.15,8.9-44.27.71Z"/>
  <path class="cls-5" d="M403.65,252.62l63.68-130.29c2.47-5.05-.84-11.01-6.43-11.58l-99.53-10.23c-5.59-.57-10.04,4.59-8.65,10.03l35.85,140.52c1.86,7.28,11.78,8.3,15.08,1.55Z"/>
  <circle class="cls-5" cx="394.12" cy="287.82" r="22.18"/>
  <circle class="cls-1" cx="401.21" cy="288.27" r="19.62"/>
  <path class="cls-1" d="M412.32,247.79l54.48-117.39c2.34-5.03-.98-10.87-6.5-11.44l-83.94-8.63c-5.52-.57-9.95,4.47-8.69,9.87l29.46,126.02c1.75,7.48,11.96,8.53,15.19,1.56Z"/>
</svg>