<?xml version="1.0" encoding="UTF-8"?>
<svg id="Layer_1" data-name="Layer 1" xmlns="http://www.w3.org/2000/svg" viewBox="0 0 1022.15 867.14">
  <defs>
    <style>
      .cls-1 {
        fill: #bf2026;
      }

      .cls-2 {
        fill: #efefef;
      }

      .cls-3 {
        fill: #a5a5a5;
      }
    </style>
  </defs>
  <circle class="cls-3" cx="592.71" cy="783.8" r="43.29"/>
  <circle class="cls-3" cx="670.71" cy="693.28" r="58.7"/>
  <path class="cls-3" d="M1022.15,346.94c0-80.31-60.14-146.53-137.84-156.2-19.92-64.12-79.72-110.68-150.39-110.68-26.36,0-51.19,6.51-73.02,17.96C637.44,40.54,581.01,0,515.08,0c-72.93,0-134.25,49.59-152.15,116.88-24.04-14.87-52.36-23.47-82.7-23.47-82.83,0-150.68,63.98-156.94,145.21C52.76,254.23,0,317.09,0,392.31c0,86.96,70.5,157.46,157.46,157.46,14.08,0,27.72-1.88,40.71-5.34,23.28,57.87,79.9,98.75,146.1,98.75,32.99,0,63.59-10.16,88.89-27.5,28.26,26.94,66.48,43.51,108.6,43.51,52.04,0,98.17-25.26,126.84-64.18,17.77,6.95,37.08,10.8,57.31,10.8,67.3,0,124.71-42.24,147.25-101.65,83.02-4.4,148.99-73.11,148.99-157.23Z"/>
  <circle class="cls-2" cx="592.71" cy="783.8" r="29.99"/>
  <circle class="cls-3" cx="670.85" cy="834.66" r="32.48"/>
  <circle class="cls-2" cx="670.85" cy="834.66" r="21.94"/>
  <circle class="cls-2" cx="670.85" cy="693.28" r="42.39"/>
  <path class="cls-2" d="M992.88,345.65c0-74.31-55.65-135.58-127.54-144.53-18.43-59.33-73.76-102.41-139.16-102.41-24.39,0-47.37,6.03-67.57,16.62-21.71-53.2-73.92-90.7-134.92-90.7-67.48,0-124.22,45.88-140.78,108.15-22.24-13.76-48.45-21.72-76.52-21.72-76.65,0-139.42,59.2-145.21,134.36-65.25,14.45-114.07,72.61-114.07,142.21,0,80.46,65.23,145.69,145.69,145.69,13.03,0,25.65-1.74,37.67-4.94,21.54,53.55,73.93,91.37,135.19,91.37,30.52,0,58.84-9.4,82.25-25.44,26.14,24.93,61.52,40.26,100.49,40.26,48.16,0,90.84-23.38,117.36-59.38,16.44,6.43,34.31,10,53.03,10,62.27,0,115.4-39.09,136.24-94.05,76.82-4.07,137.86-67.64,137.86-145.48Z"/>
  <path class="cls-3" d="M666.06,451.47l133.19-272.5c2.47-5.05-.84-11.01-6.43-11.58l-208.17-21.4c-5.59-.57-10.04,4.59-8.65,10.03l74.97,293.9c1.86,7.28,11.78,8.3,15.08,1.55Z"/>
  <circle class="cls-3" cx="656.64" cy="500.36" r="41.84"/>
  <circle class="cls-1" cx="670.01" cy="501.23" r="37.01"/>
  <path class="cls-1" d="M682.24,443.68l115.74-249.38c2.34-5.03-.98-10.87-6.5-11.44l-178.33-18.33c-5.52-.57-9.95,4.47-8.69,9.87l62.59,267.71c1.75,7.48,11.96,8.53,15.19,1.56Z"/>
  <path class="cls-3" d="M303.47,330.32h256.03v126.8c0,63.49-51.55,115.04-115.04,115.04h-25.94c-63.49,0-115.04-51.55-115.04-115.04v-126.8h0Z" transform="translate(-55.97 61.13) rotate(-7.61)"/>
  <path class="cls-1" d="M327.32,327h256.03v126.8c0,63.49-51.55,115.04-115.04,115.04h-25.94c-63.49,0-115.04-51.55-115.04-115.04v-126.8h0Z" transform="translate(-55.32 64.25) rotate(-7.61)"/>
  <path class="cls-3" d="M398.13,157.71h0c-58.32,7.79-100.78,50.18-94.83,94.68l10.77,80.57,25.48-3.41-10.54-78.85c-4.51-33.76,27.7-65.92,71.95-71.83h0c44.25-5.91,83.77,16.66,88.28,50.42l10.54,78.85,25.48-3.41-10.77-80.57c-5.95-44.5-58.04-74.25-116.36-66.46Z"/>
  <path class="cls-1" d="M413.27,156.6h0c-58.32,7.79-100.78,50.18-94.83,94.68l10.77,80.57,25.48-3.41-10.54-78.85c-4.51-33.76,27.7-65.92,71.95-71.83h0c44.25-5.91,83.77,16.66,88.28,50.42l10.54,78.85,25.48-3.41-10.77-80.57c-5.95-44.5-58.04-74.25-116.36-66.46Z"/>
  <circle class="cls-3" cx="451.17" cy="409.24" r="40.66"/>
  <path class="cls-3" d="M445.27,421.13h29.17v93.13c0,7.23-5.87,13.11-13.11,13.11h-2.96c-7.23,0-13.11-5.87-13.11-13.11v-93.13h0Z" transform="translate(-58.76 65.09) rotate(-7.61)"/>
</svg>