<?xml version="1.0" encoding="UTF-8"?>
<svg id="Layer_1" data-name="Layer 1" xmlns="http://www.w3.org/2000/svg" viewBox="0 0 501.29 801.43">
  <defs>
    <style>
      .cls-1 {
        fill: #bf2026;
      }

      .cls-2 {
        fill: #494949;
      }

      .cls-3 {
        fill: #efefef;
      }

      .cls-4 {
        fill: #fff;
        opacity: .13;
      }

      .cls-5 {
        fill: #a5a5a5;
      }
    </style>
  </defs>
  <rect class="cls-2" x="29.87" y="27.4" width="387.44" height="722.08"/>
  <rect class="cls-5" x="30.3" y="625.06" width="377.92" height="81.69"/>
  <rect class="cls-5" x="29.87" y="512.21" width="377.92" height="81.69"/>
  <rect class="cls-5" x="29.87" y="399.35" width="377.92" height="81.69"/>
  <rect class="cls-5" x="29.87" y="286.49" width="377.92" height="81.69"/>
  <rect class="cls-5" x="29.87" y="173.64" width="377.92" height="81.69"/>
  <rect class="cls-5" x="29.87" y="60.78" width="377.92" height="81.69"/>
  <path d="M410.76,0H26.9C12.04,0,0,12.04,0,26.9v713.73c0,14.86,12.04,26.9,26.9,26.9h383.86c14.86,0,26.9-12.04,26.9-26.9V26.9c0-14.86-12.04-26.9-26.9-26.9ZM402.81,724.85c0,6.36-5.16,11.52-11.52,11.52H46.37c-6.36,0-11.52-5.16-11.52-11.52V49.31c0-6.36,5.16-11.52,11.52-11.52h344.93c6.36,0,11.52,5.16,11.52,11.52v675.54Z"/>
  <path class="cls-2" d="M12.44,743.83V27.02C12.44,12.1,24.49,0,39.34,0h-12.44C12.04,0,0,12.05,0,26.91v713.73c0,14.69,11.78,26.63,26.41,26.89-8.33-4.59-13.97-13.48-13.97-23.69Z"/>
  <path d="M86.79,801.43h-46.75c-5.38,0-9.74-4.36-9.74-9.74v-24.16h66.23v24.16c0,5.38-4.36,9.74-9.74,9.74Z"/>
  <path d="M398.48,801.43h-46.75c-5.38,0-9.74-4.36-9.74-9.74v-24.16h66.23v24.16c0,5.38-4.36,9.74-9.74,9.74Z"/>
  <rect class="cls-3" x="221.86" y="428.7" width="153.25" height="27.08" rx="13.54" ry="13.54"/>
  <rect class="cls-3" x="221.86" y="198.9" width="153.25" height="27.08" rx="13.54" ry="13.54"/>
  <rect class="cls-3" x="221.86" y="85.84" width="153.25" height="27.08" rx="13.54" ry="13.54"/>
  <rect class="cls-3" x="221.86" y="316.04" width="58.22" height="22.6" rx="11.3" ry="11.3"/>
  <rect class="cls-3" x="312.88" y="316.04" width="58.22" height="22.6" rx="11.3" ry="11.3"/>
  <rect class="cls-3" x="221.86" y="541.69" width="58.22" height="22.6" rx="11.3" ry="11.3"/>
  <rect class="cls-3" x="312.88" y="541.69" width="58.22" height="22.6" rx="11.3" ry="11.3"/>
  <rect class="cls-3" x="221.86" y="654.61" width="58.22" height="22.6" rx="11.3" ry="11.3"/>
  <rect class="cls-3" x="312.88" y="654.61" width="58.22" height="22.6" rx="11.3" ry="11.3"/>
  <circle class="cls-1" cx="72.96" cy="101.62" r="9.55"/>
  <circle class="cls-1" cx="141.99" cy="101.62" r="9.55"/>
  <circle class="cls-1" cx="72.96" cy="327.34" r="9.55"/>
  <circle class="cls-1" cx="106.08" cy="327.34" r="9.55"/>
  <circle class="cls-1" cx="141.99" cy="327.34" r="9.55"/>
  <circle class="cls-1" cx="72.96" cy="553.05" r="9.55"/>
  <circle class="cls-1" cx="106.08" cy="553.05" r="9.55"/>
  <circle class="cls-1" cx="141.99" cy="553.05" r="9.55"/>
  <circle class="cls-1" cx="72.96" cy="667.95" r="9.55"/>
  <circle class="cls-1" cx="106.08" cy="667.95" r="9.55"/>
  <circle class="cls-1" cx="141.99" cy="667.95" r="9.55"/>
  <circle class="cls-1" cx="72.96" cy="212.44" r="9.55"/>
  <circle class="cls-1" cx="141.99" cy="212.44" r="9.55"/>
  <circle class="cls-1" cx="72.96" cy="441.15" r="9.55"/>
  <circle class="cls-1" cx="141.99" cy="441.15" r="9.55"/>
  <path class="cls-2" d="M304.34,400.03h178.94v132.92c0,24.21-19.65,43.86-43.86,43.86h-91.22c-24.21,0-43.86-19.65-43.86-43.86v-132.92h0Z"/>
  <path class="cls-2" d="M322.34,398.95h178.94v132.92c0,24.21-19.65,43.86-43.86,43.86h-91.22c-24.21,0-43.86-19.65-43.86-43.86v-132.92h0Z"/>
  <path class="cls-2" d="M393.81,280.59c-37.12,0-67.2,25.19-67.2,56.26v56.26h22.67v-51.8c0-17.26,14.02-31.78,33.05-36.02,1.23-1.24,2.77-2.23,4.49-2.89,7.21-2.76,15.91-4.02,23.36-1.44.43.15.83.32,1.24.49,1.7-1.68,4.01-2.74,6.85-2.61,12.65.61,26.81.21,33.35,13.11.99,1.96,1.83,4.03,2.56,6.15,1.65,1.26,3.12,2.83,4.3,4.79.34.57.65,1.15.94,1.74-6.66-25.2-33.49-44.05-65.6-44.05Z"/>
  <path class="cls-2" d="M411.01,280.59c37.12,0,67.2,25.19,67.2,56.26v56.26h-22.67v-51.8c0-17.26-14.02-31.78-33.05-36.02-1.23-1.24-2.77-2.23-4.49-2.89-7.21-2.76-15.91-4.02-23.36-1.44-.43.15-.83.32-1.24.49-1.7-1.68-4.01-2.74-6.85-2.61-12.65.61-26.81.21-33.35,13.11-.99,1.96-1.83,4.03-2.56,6.15-1.65,1.26-3.12,2.83-4.3,4.79-.34.57-.65,1.15-.94,1.74,6.66-25.2,33.49-44.05,65.6-44.05Z"/>
  <rect class="cls-4" x="64.14" y="37.79" width="71.43" height="698.57"/>
  <rect class="cls-4" x="162.58" y="37.79" width="35.71" height="698.57"/>
  <rect class="cls-4" x="221.06" y="37.79" width="17.86" height="698.57"/>
  <path class="cls-3" d="M313.96,397.87h178.94v135.08c0,24.21-19.65,43.86-43.86,43.86h-91.22c-24.21,0-43.86-19.65-43.86-43.86v-135.08h0Z"/>
  <path class="cls-3" d="M403.43,280.59h0c-37.12,0-67.2,25.19-67.2,56.26v56.26h22.67v-51.8c0-20.59,19.94-37.28,44.53-37.28h0c24.59,0,44.53,16.69,44.53,37.28v51.8h22.67v-56.26c0-31.07-30.09-56.26-67.2-56.26Z"/>
  <circle class="cls-2" cx="403.43" cy="465.48" r="21.86"/>
  <rect class="cls-2" x="395.05" y="457.35" width="16.76" height="71.84"/>
</svg>