<?xml version="1.0" encoding="UTF-8"?>
<svg xmlns="http://www.w3.org/2000/svg" xmlns:xlink="http://www.w3.org/1999/xlink" viewBox="0 0 1759.96 989.1">
  <defs>
    <style>
      .cls-1 {
        filter: url(#drop-shadow-9);
      }

      .cls-1, .cls-2, .cls-3 {
        fill: #4c2424;
      }

      .cls-4 {
        filter: url(#drop-shadow-26);
      }

      .cls-4, .cls-5, .cls-6, .cls-7, .cls-8, .cls-9, .cls-10, .cls-11, .cls-12, .cls-13, .cls-14, .cls-15, .cls-16, .cls-17, .cls-18, .cls-19, .cls-20, .cls-21, .cls-22, .cls-23, .cls-24 {
        fill: #bfc0c5;
      }

      .cls-25 {
        filter: url(#drop-shadow-41);
      }

      .cls-25, .cls-26, .cls-27 {
        fill: #e06c6c;
      }

      .cls-2 {
        filter: url(#drop-shadow-11);
      }

      .cls-28 {
        filter: url(#drop-shadow-10);
      }

      .cls-28, .cls-29, .cls-30 {
        fill: #8d9393;
      }

      .cls-31 {
        filter: url(#drop-shadow-16);
      }

      .cls-5 {
        filter: url(#drop-shadow-23);
      }

      .cls-32 {
        fill: url(#linear-gradient-2);
      }

      .cls-33 {
        filter: url(#drop-shadow-14);
      }

      .cls-7 {
        filter: url(#drop-shadow-32);
      }

      .cls-34 {
        fill: url(#linear-gradient-10);
      }

      .cls-35 {
        fill: url(#linear-gradient-12);
      }

      .cls-36 {
        filter: url(#drop-shadow-4);
      }

      .cls-36, .cls-37, .cls-38 {
        fill: #561f1f;
      }

      .cls-39 {
        filter: url(#drop-shadow-39);
      }

      .cls-39, .cls-40, .cls-41, .cls-42, .cls-43, .cls-44 {
        fill: #b73e3e;
      }

      .cls-8 {
        filter: url(#drop-shadow-33);
      }

      .cls-45 {
        fill: #ff7d7d;
      }

      .cls-40 {
        filter: url(#drop-shadow-40);
      }

      .cls-9 {
        filter: url(#drop-shadow-7);
      }

      .cls-46 {
        filter: url(#drop-shadow-5);
      }

      .cls-41 {
        filter: url(#drop-shadow-15);
      }

      .cls-47 {
        fill: url(#linear-gradient-4);
      }

      .cls-48 {
        fill: #3d1717;
      }

      .cls-49 {
        fill: url(#linear-gradient-3);
      }

      .cls-50 {
        fill: url(#linear-gradient-5);
      }

      .cls-10 {
        filter: url(#drop-shadow-18);
      }

      .cls-11 {
        filter: url(#drop-shadow-22);
      }

      .cls-51 {
        filter: url(#drop-shadow-13);
      }

      .cls-52 {
        fill: #d8d8d8;
      }

      .cls-27 {
        filter: url(#drop-shadow-2);
      }

      .cls-53 {
        fill: url(#linear-gradient-8);
      }

      .cls-12 {
        filter: url(#drop-shadow-34);
      }

      .cls-13 {
        filter: url(#drop-shadow-24);
      }

      .cls-14 {
        filter: url(#drop-shadow-29);
      }

      .cls-54 {
        filter: url(#drop-shadow-35);
      }

      .cls-54, .cls-55, .cls-56 {
        fill: #ffc7c7;
      }

      .cls-57 {
        fill: #494c4c;
      }

      .cls-29 {
        filter: url(#drop-shadow-8);
      }

      .cls-15 {
        filter: url(#drop-shadow-6);
      }

      .cls-16 {
        filter: url(#drop-shadow-30);
      }

      .cls-58 {
        fill: url(#linear-gradient-7);
      }

      .cls-59 {
        fill: url(#linear-gradient-9);
      }

      .cls-60 {
        filter: url(#drop-shadow-38);
      }

      .cls-60, .cls-61 {
        fill: #773838;
      }

      .cls-62 {
        fill: url(#linear-gradient-11);
      }

      .cls-17 {
        filter: url(#drop-shadow-31);
      }

      .cls-18 {
        filter: url(#drop-shadow-25);
      }

      .cls-19 {
        filter: url(#drop-shadow-27);
      }

      .cls-63 {
        fill: url(#linear-gradient-6);
      }

      .cls-64 {
        fill: #b25959;
      }

      .cls-42 {
        filter: url(#drop-shadow-36);
      }

      .cls-65 {
        filter: url(#drop-shadow-12);
      }

      .cls-20 {
        filter: url(#drop-shadow-28);
      }

      .cls-66 {
        fill: #752d2d;
        filter: url(#drop-shadow-1);
      }

      .cls-21 {
        filter: url(#drop-shadow-17);
      }

      .cls-22 {
        filter: url(#drop-shadow-21);
      }

      .cls-43 {
        filter: url(#drop-shadow-43);
      }

      .cls-67 {
        fill: #595b5b;
      }

      .cls-61 {
        filter: url(#drop-shadow-37);
      }

      .cls-68 {
        fill: url(#linear-gradient);
      }

      .cls-23 {
        filter: url(#drop-shadow-20);
      }

      .cls-24 {
        filter: url(#drop-shadow-19);
      }

      .cls-56 {
        filter: url(#drop-shadow-42);
      }

      .cls-38 {
        filter: url(#drop-shadow-3);
      }

      .cls-69 {
        fill: #d85959;
      }

      .cls-70 {
        fill: #c14949;
      }
    </style>
    <linearGradient id="linear-gradient" x1="407.35" y1="82.76" x2="697.17" y2="82.76" gradientUnits="userSpaceOnUse">
      <stop offset="0" stop-color="#ffd815"/>
      <stop offset=".99" stop-color="#ff7715"/>
    </linearGradient>
    <linearGradient id="linear-gradient-2" x1="1060.04" y1="97.43" x2="1349.87" y2="97.43" xlink:href="#linear-gradient"/>
    <linearGradient id="linear-gradient-3" x1="118" y1="757.37" x2="734.48" y2="757.37" xlink:href="#linear-gradient"/>
    <linearGradient id="linear-gradient-4" x1="90.39" y1="203.87" x2="568.96" y2="203.87" xlink:href="#linear-gradient"/>
    <linearGradient id="linear-gradient-5" x1="347.48" y1="657.39" x2="552.91" y2="657.39" xlink:href="#linear-gradient"/>
    <linearGradient id="linear-gradient-6" x1="0" y1="503.02" x2="547.83" y2="503.02" xlink:href="#linear-gradient"/>
    <linearGradient id="linear-gradient-7" x1="30.13" y1="919.63" x2="798.26" y2="919.63" xlink:href="#linear-gradient"/>
    <linearGradient id="linear-gradient-8" x1="1025.48" y1="757.37" x2="1641.96" y2="757.37" xlink:href="#linear-gradient"/>
    <linearGradient id="linear-gradient-9" x1="1191" y1="205.24" x2="1669.57" y2="205.24" xlink:href="#linear-gradient"/>
    <linearGradient id="linear-gradient-10" x1="1207.04" y1="657.39" x2="1412.48" y2="657.39" xlink:href="#linear-gradient"/>
    <linearGradient id="linear-gradient-11" x1="1212.13" y1="503.02" x2="1759.96" y2="503.02" xlink:href="#linear-gradient"/>
    <linearGradient id="linear-gradient-12" x1="961.7" y1="919.63" x2="1729.83" y2="919.63" xlink:href="#linear-gradient"/>
    <filter id="drop-shadow-1" x="499.35" y="112.22" width="793" height="792" filterUnits="userSpaceOnUse">
      <feOffset dx="2" dy="5"/>
      <feGaussianBlur result="blur" stdDeviation="4"/>
      <feFlood flood-color="#000" flood-opacity=".75"/>
      <feComposite in2="blur" operator="in"/>
      <feComposite in="SourceGraphic"/>
    </filter>
    <filter id="drop-shadow-2" x="440.35" y="144.22" width="430" height="732" filterUnits="userSpaceOnUse">
      <feOffset dx="2" dy="5"/>
      <feGaussianBlur result="blur-2" stdDeviation="4"/>
      <feFlood flood-color="#000" flood-opacity=".75"/>
      <feComposite in2="blur-2" operator="in"/>
      <feComposite in="SourceGraphic"/>
    </filter>
    <filter id="drop-shadow-3" x="1140.35" y="296.22" width="62" height="91" filterUnits="userSpaceOnUse">
      <feOffset dx="2" dy="5"/>
      <feGaussianBlur result="blur-3" stdDeviation="4"/>
      <feFlood flood-color="#000" flood-opacity=".75"/>
      <feComposite in2="blur-3" operator="in"/>
      <feComposite in="SourceGraphic"/>
    </filter>
    <filter id="drop-shadow-4" x="1140.35" y="633.22" width="62" height="91" filterUnits="userSpaceOnUse">
      <feOffset dx="2" dy="5"/>
      <feGaussianBlur result="blur-4" stdDeviation="4"/>
      <feFlood flood-color="#000" flood-opacity=".75"/>
      <feComposite in2="blur-4" operator="in"/>
      <feComposite in="SourceGraphic"/>
    </filter>
    <filter id="drop-shadow-5" x="1080.35" y="438.22" width="92" height="145" filterUnits="userSpaceOnUse">
      <feOffset dx="2" dy="5"/>
      <feGaussianBlur result="blur-5" stdDeviation="4"/>
      <feFlood flood-color="#000" flood-opacity=".75"/>
      <feComposite in2="blur-5" operator="in"/>
      <feComposite in="SourceGraphic"/>
    </filter>
    <filter id="drop-shadow-6" x="868.35" y="121.22" width="56" height="43" filterUnits="userSpaceOnUse">
      <feOffset dx="2" dy="5"/>
      <feGaussianBlur result="blur-6" stdDeviation="4"/>
      <feFlood flood-color="#000" flood-opacity=".75"/>
      <feComposite in2="blur-6" operator="in"/>
      <feComposite in="SourceGraphic"/>
    </filter>
    <filter id="drop-shadow-7" x="868.35" y="857.22" width="56" height="43" filterUnits="userSpaceOnUse">
      <feOffset dx="2" dy="5"/>
      <feGaussianBlur result="blur-7" stdDeviation="4"/>
      <feFlood flood-color="#000" flood-opacity=".75"/>
      <feComposite in2="blur-7" operator="in"/>
      <feComposite in="SourceGraphic"/>
    </filter>
    <filter id="drop-shadow-8" x="805.35" y="242.22" width="182" height="126" filterUnits="userSpaceOnUse">
      <feOffset dx="2" dy="5"/>
      <feGaussianBlur result="blur-8" stdDeviation="4"/>
      <feFlood flood-color="#000" flood-opacity=".75"/>
      <feComposite in2="blur-8" operator="in"/>
      <feComposite in="SourceGraphic"/>
    </filter>
    <filter id="drop-shadow-9" x="844.35" y="237.22" width="103" height="131" filterUnits="userSpaceOnUse">
      <feOffset dx="2" dy="5"/>
      <feGaussianBlur result="blur-9" stdDeviation="4"/>
      <feFlood flood-color="#000" flood-opacity=".75"/>
      <feComposite in2="blur-9" operator="in"/>
      <feComposite in="SourceGraphic"/>
    </filter>
    <filter id="drop-shadow-10" x="805.35" y="651.22" width="182" height="126" filterUnits="userSpaceOnUse">
      <feOffset dx="2" dy="5"/>
      <feGaussianBlur result="blur-10" stdDeviation="4"/>
      <feFlood flood-color="#000" flood-opacity=".75"/>
      <feComposite in2="blur-10" operator="in"/>
      <feComposite in="SourceGraphic"/>
    </filter>
    <filter id="drop-shadow-11" x="844.35" y="651.22" width="103" height="131" filterUnits="userSpaceOnUse">
      <feOffset dx="2" dy="5"/>
      <feGaussianBlur result="blur-11" stdDeviation="4"/>
      <feFlood flood-color="#000" flood-opacity=".75"/>
      <feComposite in2="blur-11" operator="in"/>
      <feComposite in="SourceGraphic"/>
    </filter>
    <filter id="drop-shadow-12" x="526.35" y="449.22" width="58" height="124" filterUnits="userSpaceOnUse">
      <feOffset dx="2" dy="5"/>
      <feGaussianBlur result="blur-12" stdDeviation="4"/>
      <feFlood flood-color="#000" flood-opacity=".75"/>
      <feComposite in2="blur-12" operator="in"/>
      <feComposite in="SourceGraphic"/>
    </filter>
    <filter id="drop-shadow-13" x="1005.35" y="165.22" width="125" height="100" filterUnits="userSpaceOnUse">
      <feOffset dx="2" dy="5"/>
      <feGaussianBlur result="blur-13" stdDeviation="4"/>
      <feFlood flood-color="#000" flood-opacity=".75"/>
      <feComposite in2="blur-13" operator="in"/>
      <feComposite in="SourceGraphic"/>
    </filter>
    <filter id="drop-shadow-14" x="1004.35" y="755.22" width="126" height="103" filterUnits="userSpaceOnUse">
      <feOffset dx="2" dy="5"/>
      <feGaussianBlur result="blur-14" stdDeviation="4"/>
      <feFlood flood-color="#000" flood-opacity=".75"/>
      <feComposite in2="blur-14" operator="in"/>
      <feComposite in="SourceGraphic"/>
    </filter>
    <filter id="drop-shadow-15" x="766.35" y="380.22" width="259" height="259" filterUnits="userSpaceOnUse">
      <feOffset dx="2" dy="5"/>
      <feGaussianBlur result="blur-15" stdDeviation="4"/>
      <feFlood flood-color="#000" flood-opacity=".75"/>
      <feComposite in2="blur-15" operator="in"/>
      <feComposite in="SourceGraphic"/>
    </filter>
    <filter id="drop-shadow-16" x="505.35" y="167.22" width="600" height="687" filterUnits="userSpaceOnUse">
      <feOffset dx="2" dy="5"/>
      <feGaussianBlur result="blur-16" stdDeviation="4"/>
      <feFlood flood-color="#000" flood-opacity=".75"/>
      <feComposite in2="blur-16" operator="in"/>
      <feComposite in="SourceGraphic"/>
    </filter>
    <filter id="drop-shadow-17" x="814.35" y="311.22" width="46" height="46" filterUnits="userSpaceOnUse">
      <feOffset dx="2" dy="5"/>
      <feGaussianBlur result="blur-17" stdDeviation="4"/>
      <feFlood flood-color="#000" flood-opacity=".75"/>
      <feComposite in2="blur-17" operator="in"/>
      <feComposite in="SourceGraphic"/>
    </filter>
    <filter id="drop-shadow-18" x="814.35" y="283.22" width="46" height="46" filterUnits="userSpaceOnUse">
      <feOffset dx="2" dy="5"/>
      <feGaussianBlur result="blur-18" stdDeviation="4"/>
      <feFlood flood-color="#000" flood-opacity=".75"/>
      <feComposite in2="blur-18" operator="in"/>
      <feComposite in="SourceGraphic"/>
    </filter>
    <filter id="drop-shadow-19" x="814.35" y="255.22" width="46" height="46" filterUnits="userSpaceOnUse">
      <feOffset dx="2" dy="5"/>
      <feGaussianBlur result="blur-19" stdDeviation="4"/>
      <feFlood flood-color="#000" flood-opacity=".75"/>
      <feComposite in2="blur-19" operator="in"/>
      <feComposite in="SourceGraphic"/>
    </filter>
    <filter id="drop-shadow-20" x="930.35" y="311.22" width="46" height="46" filterUnits="userSpaceOnUse">
      <feOffset dx="2" dy="5"/>
      <feGaussianBlur result="blur-20" stdDeviation="4"/>
      <feFlood flood-color="#000" flood-opacity=".75"/>
      <feComposite in2="blur-20" operator="in"/>
      <feComposite in="SourceGraphic"/>
    </filter>
    <filter id="drop-shadow-21" x="930.35" y="283.22" width="46" height="46" filterUnits="userSpaceOnUse">
      <feOffset dx="2" dy="5"/>
      <feGaussianBlur result="blur-21" stdDeviation="4"/>
      <feFlood flood-color="#000" flood-opacity=".75"/>
      <feComposite in2="blur-21" operator="in"/>
      <feComposite in="SourceGraphic"/>
    </filter>
    <filter id="drop-shadow-22" x="930.35" y="255.22" width="46" height="46" filterUnits="userSpaceOnUse">
      <feOffset dx="2" dy="5"/>
      <feGaussianBlur result="blur-22" stdDeviation="4"/>
      <feFlood flood-color="#000" flood-opacity=".75"/>
      <feComposite in2="blur-22" operator="in"/>
      <feComposite in="SourceGraphic"/>
    </filter>
    <filter id="drop-shadow-23" x="1018.35" y="173.22" width="46" height="46" filterUnits="userSpaceOnUse">
      <feOffset dx="2" dy="5"/>
      <feGaussianBlur result="blur-23" stdDeviation="4"/>
      <feFlood flood-color="#000" flood-opacity=".75"/>
      <feComposite in2="blur-23" operator="in"/>
      <feComposite in="SourceGraphic"/>
    </filter>
    <filter id="drop-shadow-24" x="1076.35" y="205.22" width="46" height="46" filterUnits="userSpaceOnUse">
      <feOffset dx="2" dy="5"/>
      <feGaussianBlur result="blur-24" stdDeviation="4"/>
      <feFlood flood-color="#000" flood-opacity=".75"/>
      <feComposite in2="blur-24" operator="in"/>
      <feComposite in="SourceGraphic"/>
    </filter>
    <filter id="drop-shadow-25" x="814.35" y="719.22" width="46" height="46" filterUnits="userSpaceOnUse">
      <feOffset dx="2" dy="5"/>
      <feGaussianBlur result="blur-25" stdDeviation="4"/>
      <feFlood flood-color="#000" flood-opacity=".75"/>
      <feComposite in2="blur-25" operator="in"/>
      <feComposite in="SourceGraphic"/>
    </filter>
    <filter id="drop-shadow-26" x="814.35" y="690.22" width="46" height="46" filterUnits="userSpaceOnUse">
      <feOffset dx="2" dy="5"/>
      <feGaussianBlur result="blur-26" stdDeviation="4"/>
      <feFlood flood-color="#000" flood-opacity=".75"/>
      <feComposite in2="blur-26" operator="in"/>
      <feComposite in="SourceGraphic"/>
    </filter>
    <filter id="drop-shadow-27" x="814.35" y="662.22" width="46" height="46" filterUnits="userSpaceOnUse">
      <feOffset dx="2" dy="5"/>
      <feGaussianBlur result="blur-27" stdDeviation="4"/>
      <feFlood flood-color="#000" flood-opacity=".75"/>
      <feComposite in2="blur-27" operator="in"/>
      <feComposite in="SourceGraphic"/>
    </filter>
    <filter id="drop-shadow-28" x="528.35" y="454.22" width="46" height="46" filterUnits="userSpaceOnUse">
      <feOffset dx="2" dy="5"/>
      <feGaussianBlur result="blur-28" stdDeviation="4"/>
      <feFlood flood-color="#000" flood-opacity=".75"/>
      <feComposite in2="blur-28" operator="in"/>
      <feComposite in="SourceGraphic"/>
    </filter>
    <filter id="drop-shadow-29" x="528.35" y="521.22" width="46" height="46" filterUnits="userSpaceOnUse">
      <feOffset dx="2" dy="5"/>
      <feGaussianBlur result="blur-29" stdDeviation="4"/>
      <feFlood flood-color="#000" flood-opacity=".75"/>
      <feComposite in2="blur-29" operator="in"/>
      <feComposite in="SourceGraphic"/>
    </filter>
    <filter id="drop-shadow-30" x="930.35" y="719.22" width="46" height="46" filterUnits="userSpaceOnUse">
      <feOffset dx="2" dy="5"/>
      <feGaussianBlur result="blur-30" stdDeviation="4"/>
      <feFlood flood-color="#000" flood-opacity=".75"/>
      <feComposite in2="blur-30" operator="in"/>
      <feComposite in="SourceGraphic"/>
    </filter>
    <filter id="drop-shadow-31" x="1075.35" y="770.22" width="46" height="46" filterUnits="userSpaceOnUse">
      <feOffset dx="2" dy="5"/>
      <feGaussianBlur result="blur-31" stdDeviation="4"/>
      <feFlood flood-color="#000" flood-opacity=".75"/>
      <feComposite in2="blur-31" operator="in"/>
      <feComposite in="SourceGraphic"/>
    </filter>
    <filter id="drop-shadow-32" x="1018.35" y="803.22" width="46" height="46" filterUnits="userSpaceOnUse">
      <feOffset dx="2" dy="5"/>
      <feGaussianBlur result="blur-32" stdDeviation="4"/>
      <feFlood flood-color="#000" flood-opacity=".75"/>
      <feComposite in2="blur-32" operator="in"/>
      <feComposite in="SourceGraphic"/>
    </filter>
    <filter id="drop-shadow-33" x="930.35" y="690.22" width="46" height="46" filterUnits="userSpaceOnUse">
      <feOffset dx="2" dy="5"/>
      <feGaussianBlur result="blur-33" stdDeviation="4"/>
      <feFlood flood-color="#000" flood-opacity=".75"/>
      <feComposite in2="blur-33" operator="in"/>
      <feComposite in="SourceGraphic"/>
    </filter>
    <filter id="drop-shadow-34" x="930.35" y="662.22" width="46" height="46" filterUnits="userSpaceOnUse">
      <feOffset dx="2" dy="5"/>
      <feGaussianBlur result="blur-34" stdDeviation="4"/>
      <feFlood flood-color="#000" flood-opacity=".75"/>
      <feComposite in2="blur-34" operator="in"/>
      <feComposite in="SourceGraphic"/>
    </filter>
    <filter id="drop-shadow-35" x="1044.35" y="395.22" width="229" height="229" filterUnits="userSpaceOnUse">
      <feOffset dx="2" dy="5"/>
      <feGaussianBlur result="blur-35" stdDeviation="4"/>
      <feFlood flood-color="#000" flood-opacity=".75"/>
      <feComposite in2="blur-35" operator="in"/>
      <feComposite in="SourceGraphic"/>
    </filter>
    <filter id="drop-shadow-36" x="1086.35" y="438.22" width="144" height="145" filterUnits="userSpaceOnUse">
      <feOffset dx="2" dy="5"/>
      <feGaussianBlur result="blur-36" stdDeviation="4"/>
      <feFlood flood-color="#000" flood-opacity=".75"/>
      <feComposite in2="blur-36" operator="in"/>
      <feComposite in="SourceGraphic"/>
    </filter>
    <filter id="drop-shadow-37" x="440.35" y="211.22" width="106" height="163" filterUnits="userSpaceOnUse">
      <feOffset dx="2" dy="5"/>
      <feGaussianBlur result="blur-37" stdDeviation="4"/>
      <feFlood flood-color="#000" flood-opacity=".75"/>
      <feComposite in2="blur-37" operator="in"/>
      <feComposite in="SourceGraphic"/>
    </filter>
    <filter id="drop-shadow-38" x="440.35" y="647.22" width="106" height="163" filterUnits="userSpaceOnUse">
      <feOffset dx="2" dy="5"/>
      <feGaussianBlur result="blur-38" stdDeviation="4"/>
      <feFlood flood-color="#000" flood-opacity=".75"/>
      <feComposite in2="blur-38" operator="in"/>
      <feComposite in="SourceGraphic"/>
    </filter>
    <filter id="drop-shadow-39" x="843.35" y="133.22" width="105" height="141" filterUnits="userSpaceOnUse">
      <feOffset dx="2" dy="5"/>
      <feGaussianBlur result="blur-39" stdDeviation="4"/>
      <feFlood flood-color="#000" flood-opacity=".75"/>
      <feComposite in2="blur-39" operator="in"/>
      <feComposite in="SourceGraphic"/>
    </filter>
    <filter id="drop-shadow-40" x="843.35" y="746.22" width="105" height="141" filterUnits="userSpaceOnUse">
      <feOffset dx="2" dy="5"/>
      <feGaussianBlur result="blur-40" stdDeviation="4"/>
      <feFlood flood-color="#000" flood-opacity=".75"/>
      <feComposite in2="blur-40" operator="in"/>
      <feComposite in="SourceGraphic"/>
    </filter>
    <filter id="drop-shadow-41" x="1162.35" y="318.22" width="173" height="386" filterUnits="userSpaceOnUse">
      <feOffset dx="2" dy="5"/>
      <feGaussianBlur result="blur-41" stdDeviation="4"/>
      <feFlood flood-color="#000" flood-opacity=".75"/>
      <feComposite in2="blur-41" operator="in"/>
      <feComposite in="SourceGraphic"/>
    </filter>
    <filter id="drop-shadow-42" x="696.35" y="288.22" width="401" height="445" filterUnits="userSpaceOnUse">
      <feOffset dx="2" dy="5"/>
      <feGaussianBlur result="blur-42" stdDeviation="4"/>
      <feFlood flood-color="#000" flood-opacity=".75"/>
      <feComposite in2="blur-42" operator="in"/>
      <feComposite in="SourceGraphic"/>
    </filter>
    <filter id="drop-shadow-43" x="789.35" y="405.22" width="214" height="214" filterUnits="userSpaceOnUse">
      <feOffset dx="2" dy="5"/>
      <feGaussianBlur result="blur-43" stdDeviation="4"/>
      <feFlood flood-color="#000" flood-opacity=".75"/>
      <feComposite in2="blur-43" operator="in"/>
      <feComposite in="SourceGraphic"/>
    </filter>
  </defs>
  <g id="Layer_3" data-name="Layer 3">
    <path class="cls-68" d="M697.17,17.61c0-9.73-7.88-17.61-17.61-17.61s-17.61,7.88-17.61,17.61c0,8.14,5.54,14.98,13.04,16.99v53.97h-232.95c-1.88-7.71-8.81-13.43-17.09-13.43-9.73,0-17.61,7.88-17.61,17.61s7.88,17.61,17.61,17.61c7.91,0,14.6-5.21,16.82-12.39h233.22v67.57h9.39V34.53c7.38-2.1,12.78-8.87,12.78-16.92Z"/>
    <path class="cls-32" d="M1332.26,75.13c-8.28,0-15.21,5.73-17.09,13.43h-232.95v-53.97c7.51-2.01,13.04-8.85,13.04-16.99,0-9.73-7.88-17.61-17.61-17.61s-17.61,7.88-17.61,17.61c0,8.05,5.41,14.82,12.78,16.92v160.34h9.39v-96.91h233.22c2.22,7.18,8.91,12.39,16.82,12.39,9.72,0,17.61-7.88,17.61-17.61s-7.88-17.61-17.61-17.61Z"/>
    <path class="cls-49" d="M734.48,806.87h-441.17v-108.39h-140.84c-2.18-7.24-8.9-12.52-16.86-12.52-9.73,0-17.61,7.88-17.61,17.61s7.88,17.61,17.61,17.61c8.24,0,15.13-5.66,17.06-13.3h131.25v99h-65.33c-1.92-7.64-8.82-13.3-17.06-13.3-9.72,0-17.61,7.88-17.61,17.61s7.88,17.61,17.61,17.61c7.96,0,14.67-5.28,16.86-12.52h516.1v-9.39Z"/>
    <path class="cls-47" d="M235.57,372.52v-171.39h104.87V60.29c7.24-2.18,12.52-8.9,12.52-16.86,0-9.72-7.88-17.61-17.61-17.61s-17.61,7.88-17.61,17.61c0,8.24,5.66,15.13,13.3,17.06v131.25h-95.48v-86.35c7.44-2.06,12.91-8.86,12.91-16.96,0-9.72-7.88-17.61-17.61-17.61s-17.61,7.88-17.61,17.61c0,8.1,5.47,14.9,12.91,16.96v190.44h-101.22c-2.06-7.44-8.86-12.91-16.96-12.91-9.72,0-17.61,7.88-17.61,17.61s7.88,17.61,17.61,17.61c8.1,0,14.9-5.47,16.96-12.91h101.22v76.7h342.78v-9.39H235.57Z"/>
    <path class="cls-50" d="M552.91,653.09h-170.77c-1.92-7.64-8.82-13.3-17.06-13.3-9.73,0-17.61,7.88-17.61,17.61s7.88,17.61,17.61,17.61c7.96,0,14.67-5.28,16.86-12.52h170.97v-9.39Z"/>
    <path class="cls-63" d="M547.83,508.7H171v-104.25c7.64-1.92,13.3-8.82,13.3-17.06,0-9.72-7.88-17.61-17.61-17.61s-17.61,7.88-17.61,17.61c0,7.96,5.28,14.67,12.52,16.86v104.45H34.67c-1.92-7.64-8.82-13.3-17.06-13.3-9.73,0-17.61,7.88-17.61,17.61s7.88,17.61,17.61,17.61c7.96,0,14.67-5.28,16.86-12.52h249.62v96.26h-131.25c-1.92-7.64-8.82-13.3-17.06-13.3-9.72,0-17.61,7.88-17.61,17.61s7.88,17.61,17.61,17.61c7.96,0,14.67-5.28,16.86-12.52h140.84v-105.65h254.35v-9.39Z"/>
    <path class="cls-58" d="M798.26,855.13h-9.39v107.87h-404.78v-71.61H107.51c-2.3-7.04-8.92-12.13-16.73-12.13-9.72,0-17.61,7.88-17.61,17.61s7.88,17.61,17.61,17.61c8.38,0,15.38-5.86,17.16-13.7h266.76v62.22H64.99c-1.63-8.04-8.74-14.09-17.26-14.09-9.73,0-17.61,7.88-17.61,17.61s7.88,17.61,17.61,17.61c7.66,0,14.17-4.9,16.59-11.74h733.55v-6.91h.39v-110.35Z"/>
    <path class="cls-53" d="M1624.35,685.96c-7.96,0-14.67,5.28-16.86,12.52h-140.84v108.39h-441.17v9.39h516.1c2.18,7.24,8.9,12.52,16.86,12.52,9.73,0,17.61-7.88,17.61-17.61s-7.88-17.61-17.61-17.61c-8.24,0-15.13,5.66-17.06,13.3h-65.33v-99h131.25c1.92,7.64,8.82,13.3,17.06,13.3,9.73,0,17.61-7.88,17.61-17.61s-7.88-17.61-17.61-17.61Z"/>
    <path class="cls-59" d="M1651.96,282.91c-8.1,0-14.9,5.47-16.96,12.91h-101.22V105.39c7.44-2.06,12.91-8.86,12.91-16.96,0-9.72-7.88-17.61-17.61-17.61s-17.61,7.88-17.61,17.61c0,8.1,5.47,14.9,12.91,16.96v86.35h-95.48V63.51c8.29-1.43,14.61-8.63,14.61-17.33,0-9.72-7.88-17.61-17.61-17.61s-17.61,7.88-17.61,17.61c0,7.47,4.66,13.83,11.22,16.39v138.56h104.87v171.39h-333.39v9.39h342.78v-76.7h101.22c2.06,7.44,8.86,12.91,16.96,12.91,9.73,0,17.61-7.88,17.61-17.61s-7.88-17.61-17.61-17.61Z"/>
    <path class="cls-34" d="M1394.87,639.78c-8.24,0-15.13,5.66-17.06,13.3h-170.77v9.39h170.97c2.18,7.24,8.9,12.52,16.86,12.52,9.73,0,17.61-7.88,17.61-17.61s-7.88-17.61-17.61-17.61Z"/>
    <path class="cls-62" d="M1742.35,495.39c-8.24,0-15.13,5.66-17.06,13.3h-126.94v-104.45c7.24-2.18,12.52-8.9,12.52-16.86,0-9.72-7.88-17.61-17.61-17.61s-17.61,7.88-17.61,17.61c0,8.24,5.66,15.13,13.3,17.06v104.25h-376.83v9.39h254.35v105.65h140.84c2.18,7.24,8.9,12.52,16.86,12.52,9.72,0,17.61-7.88,17.61-17.61s-7.88-17.61-17.61-17.61c-8.24,0-15.13,5.66-17.06,13.3h-131.25v-96.26h249.62c2.18,7.24,8.9,12.52,16.86,12.52,9.73,0,17.61-7.88,17.61-17.61s-7.88-17.61-17.61-17.61Z"/>
    <path class="cls-35" d="M1712.22,948.91c-8.52,0-15.62,6.05-17.26,14.09h-309.7v-62.22h266.76c1.78,7.84,8.78,13.7,17.16,13.7,9.72,0,17.61-7.88,17.61-17.61s-7.88-17.61-17.61-17.61c-7.81,0-14.42,5.09-16.73,12.13h-276.58v71.61h-404.78v-107.87h-9.39v110.35h.39v6.91h733.55c2.42,6.83,8.92,11.74,16.59,11.74,9.72,0,17.61-7.88,17.61-17.61s-7.88-17.61-17.61-17.61Z"/>
  </g>
  <g id="Layer_2" data-name="Layer 2">
    <rect class="cls-26" x="458.61" y="151.83" width="62.22" height="706.7" rx="17.61" ry="17.61"/>
    <path class="cls-55" d="M475.43,151.83h9.78v706.7h-9.78c-9.29,0-16.83-7.54-16.83-16.83V168.65c0-9.29,7.54-16.83,16.83-16.83Z"/>
    <circle class="cls-66" cx="894" cy="503.3" r="383.87"/>
    <path class="cls-27" d="M855.49,244.34v-92.35h-121.4v-.17h-52.04c-37.56,0-69.67,23.31-82.66,56.26-5.46,13.85-19.04,22.79-33.93,22.79h-106.55c-4.48,0-8.12,3.64-8.12,8.12v104.09c0,4.48,3.64,8.12,8.12,8.12h109.3c13.81,0,25.01,11.2,25.01,25.01v259.24c0,13.81-11.2,25.01-25.01,25.01h-109.3c-4.48,0-8.12,3.64-8.12,8.12v104.09c0,4.48,3.64,8.12,8.12,8.12h107.08c14.73,0,28.21,8.75,33.77,22.39,13.22,32.46,45.09,55.35,82.3,55.35h172.83v-92.35h-78.13c-23.56,0-42.65-19.1-42.65-42.65v-436.53c0-23.56,19.1-42.65,42.65-42.65h78.75Z"/>
    <path class="cls-38" d="M1160.02,336.53c0-16.55,12.24-30.24,28.17-32.52-1.53-.22-3.1-.34-4.7-.34-18.15,0-32.86,14.71-32.86,32.86s14.71,32.86,32.86,32.86c1.59,0,3.16-.12,4.7-.34-15.92-2.28-28.17-15.97-28.17-32.52Z"/>
    <circle class="cls-44" cx="1188.8" cy="336.53" r="32.86"/>
    <path class="cls-36" d="M1160.02,673.44c0-16.55,12.24-30.24,28.17-32.52-1.53-.22-3.1-.34-4.7-.34-18.15,0-32.86,14.71-32.86,32.86s14.71,32.86,32.86,32.86c1.59,0,3.16-.12,4.7-.34-15.92-2.28-28.17-15.97-28.17-32.52Z"/>
    <circle class="cls-44" cx="1188.8" cy="673.44" r="32.86"/>
    <g class="cls-46">
      <path class="cls-37" d="M1104.83,505.42c0-30.66,23.06-55.91,52.78-59.4-2.31-.27-4.66-.43-7.04-.43-33.04,0-59.82,26.78-59.82,59.82s26.78,59.82,59.82,59.82c2.38,0,4.73-.16,7.04-.43-29.72-3.49-52.78-28.74-52.78-59.4Z"/>
    </g>
    <circle class="cls-48" cx="1156.8" cy="507" r="35.05"/>
    <path class="cls-37" d="M1157.76,476.08c-1.96,0-3.88.19-5.74.54,14.4,2.69,25.3,15.32,25.3,30.51s-10.9,27.81-25.3,30.51c1.86.35,3.78.54,5.74.54,17.14,0,31.04-13.9,31.04-31.04s-13.9-31.04-31.04-31.04Z"/>
    <path class="cls-15" d="M886.3,129.13h16.43c4.1,0,7.43,3.33,7.43,7.43v10.57h-31.3v-10.57c0-4.1,3.33-7.43,7.43-7.43Z"/>
    <path class="cls-9" d="M878.87,864.6h31.3v10.57c0,4.1-3.33,7.43-7.43,7.43h-16.43c-4.1,0-7.43-3.33-7.43-7.43v-10.57h0Z"/>
    <rect class="cls-29" x="815.74" y="249.72" width="157.04" height="101.48" rx="13.57" ry="13.57"/>
    <rect class="cls-57" x="854.87" y="340.73" width="78" height="10.46"/>
    <path class="cls-1" d="M932.87,249.68c-24.56-6.88-50.54-6.94-78,0v101.52c26.38-4.24,52.42-4.74,78,0v-101.52Z"/>
    <circle class="cls-6" cx="835.46" cy="272.66" r="10.49"/>
    <circle class="cls-6" cx="835.46" cy="300.95" r="10.49"/>
    <circle class="cls-6" cx="835.46" cy="329.24" r="10.49"/>
    <circle class="cls-6" cx="951.29" cy="272.66" r="10.49"/>
    <circle class="cls-6" cx="951.29" cy="300.95" r="10.49"/>
    <circle class="cls-6" cx="951.29" cy="329.24" r="10.49"/>
    <rect class="cls-28" x="815.74" y="658.43" width="157.04" height="101.48" rx="13.57" ry="13.57"/>
    <rect class="cls-57" x="854.87" y="658.43" width="78" height="10.46"/>
    <path class="cls-2" d="M932.87,759.95c-24.56,6.88-50.54,6.94-78,0v-101.52c26.38,4.24,52.42,4.74,78,0v101.52Z"/>
    <g class="cls-65">
      <rect class="cls-67" x="543.22" y="456.26" width="27.13" height="99.13" rx="4.04" ry="4.04"/>
      <path class="cls-30" d="M540.91,456.26h23.09v99.13h-23.09c-2.23,0-4.04-1.81-4.04-4.04v-91.04c0-2.23,1.81-4.04,4.04-4.04Z"/>
    </g>
    <g class="cls-51">
      <rect class="cls-67" x="1050.97" y="163.34" width="27.13" height="99.13" rx="4.04" ry="4.04" transform="translate(1781.18 -602.56) rotate(120)"/>
      <path class="cls-30" d="M1058.19,157.84h23.09v99.13h-23.09c-2.23,0-4.04-1.81-4.04-4.04v-91.04c0-2.23,1.81-4.04,4.04-4.04Z" transform="translate(1781.18 -613.55) rotate(120)"/>
    </g>
    <g class="cls-33">
      <rect class="cls-67" x="1049.71" y="747.96" width="27.13" height="99.13" rx="4.04" ry="4.04" transform="translate(904.23 2117.11) rotate(-120)"/>
      <path class="cls-30" d="M1058.51,756.21h23.09v99.13h-23.09c-2.23,0-4.04-1.81-4.04-4.04v-91.04c0-2.23,1.81-4.04,4.04-4.04Z" transform="translate(904.23 2133.6) rotate(-120)"/>
    </g>
    <circle class="cls-41" cx="893.87" cy="504.81" r="116.76"/>
    <path class="cls-55" d="M700.52,162.39h0c2.81,0,5.09,2.28,5.09,5.09v671.87c0,2.81-2.28,5.09-5.09,5.09h0c-44.06,0-79.83-35.77-79.83-79.83V242.22c0-44.06,35.77-79.83,79.83-79.83Z"/>
    <circle class="cls-48" cx="893.87" cy="502.23" r="76.43"/>
    <g class="cls-31">
      <path class="cls-45" d="M520.04,495h363.13v21.39h-363.13c-2.16,0-3.91-1.75-3.91-3.91v-13.57c0-2.16,1.75-3.91,3.91-3.91Z"/>
      <path class="cls-45" d="M811.02,326.52h363.13v21.39h-363.13c-2.16,0-3.91-1.75-3.91-3.91v-13.57c0-2.16,1.75-3.91,3.91-3.91Z" transform="translate(1777.99 -352.08) rotate(120)"/>
      <path class="cls-45" d="M811.74,663h363.13v21.39h-363.13c-2.16,0-3.91-1.75-3.91-3.91v-13.57c0-2.16,1.75-3.91,3.91-3.91Z" transform="translate(903.58 1869.08) rotate(-120)"/>
    </g>
    <circle class="cls-21" cx="835.46" cy="329.55" r="10.49"/>
    <circle class="cls-10" cx="835.46" cy="301.26" r="10.49"/>
    <circle class="cls-24" cx="835.46" cy="272.97" r="10.49"/>
    <circle class="cls-23" cx="951.29" cy="329.55" r="10.49"/>
    <circle class="cls-22" cx="951.29" cy="301.26" r="10.49"/>
    <circle class="cls-11" cx="951.29" cy="272.97" r="10.49"/>
    <circle class="cls-5" cx="1039.72" cy="191.06" r="10.49"/>
    <circle class="cls-13" cx="1097.12" cy="223.67" r="10.49"/>
    <circle class="cls-18" cx="835.46" cy="736.97" r="10.49"/>
    <circle class="cls-4" cx="835.46" cy="708.68" r="10.49"/>
    <circle class="cls-19" cx="835.46" cy="680.39" r="10.49"/>
    <circle class="cls-20" cx="549.81" cy="472.37" r="10.49"/>
    <path class="cls-52" d="M545.42,472.37c0-4.8,3.23-8.84,7.62-10.09-.91-.26-1.87-.41-2.87-.41-5.8,0-10.49,4.7-10.49,10.49s4.7,10.49,10.49,10.49c1,0,1.96-.15,2.87-.41-4.4-1.25-7.62-5.29-7.62-10.09Z"/>
    <path class="cls-52" d="M831.07,329.54c0-4.8,3.23-8.84,7.62-10.09-.91-.26-1.87-.41-2.87-.41-5.8,0-10.49,4.7-10.49,10.49s4.7,10.49,10.49,10.49c1,0,1.96-.15,2.87-.41-4.4-1.25-7.62-5.29-7.62-10.09Z"/>
    <path class="cls-52" d="M831.07,300.98c0-4.8,3.23-8.84,7.62-10.09-.91-.26-1.87-.41-2.87-.41-5.8,0-10.49,4.7-10.49,10.49s4.7,10.49,10.49,10.49c1,0,1.96-.15,2.87-.41-4.4-1.25-7.62-5.29-7.62-10.09Z"/>
    <path class="cls-52" d="M831.07,272.8c0-4.8,3.23-8.84,7.62-10.09-.91-.26-1.87-.41-2.87-.41-5.8,0-10.49,4.7-10.49,10.49s4.7,10.49,10.49,10.49c1,0,1.96-.15,2.87-.41-4.4-1.25-7.62-5.29-7.62-10.09Z"/>
    <path class="cls-52" d="M946.9,272.8c0-4.8,3.23-8.84,7.62-10.09-.91-.26-1.87-.41-2.87-.41-5.8,0-10.49,4.7-10.49,10.49s4.7,10.49,10.49,10.49c1,0,1.96-.15,2.87-.41-4.4-1.25-7.62-5.29-7.62-10.09Z"/>
    <path class="cls-52" d="M1035.33,191.02c0-4.8,3.23-8.84,7.62-10.09-.91-.26-1.87-.41-2.87-.41-5.8,0-10.49,4.7-10.49,10.49s4.7,10.49,10.49,10.49c1,0,1.96-.15,2.87-.41-4.4-1.25-7.62-5.29-7.62-10.09Z"/>
    <path class="cls-52" d="M1092.46,223.5c0-4.8,3.23-8.84,7.62-10.09-.91-.26-1.87-.41-2.87-.41-5.8,0-10.49,4.7-10.49,10.49s4.7,10.49,10.49,10.49c1,0,1.96-.15,2.87-.41-4.4-1.25-7.62-5.29-7.62-10.09Z"/>
    <path class="cls-52" d="M946.9,300.98c0-4.8,3.23-8.84,7.62-10.09-.91-.26-1.87-.41-2.87-.41-5.8,0-10.49,4.7-10.49,10.49s4.7,10.49,10.49,10.49c1,0,1.96-.15,2.87-.41-4.4-1.25-7.62-5.29-7.62-10.09Z"/>
    <path class="cls-52" d="M946.9,329.15c0-4.8,3.23-8.84,7.62-10.09-.91-.26-1.87-.41-2.87-.41-5.8,0-10.49,4.7-10.49,10.49s4.7,10.49,10.49,10.49c1,0,1.96-.15,2.87-.41-4.4-1.25-7.62-5.29-7.62-10.09Z"/>
    <path class="cls-52" d="M831.07,680.28c0-4.8,3.23-8.84,7.62-10.09-.91-.26-1.87-.41-2.87-.41-5.8,0-10.49,4.7-10.49,10.49s4.7,10.49,10.49,10.49c1,0,1.96-.15,2.87-.41-4.4-1.25-7.62-5.29-7.62-10.09Z"/>
    <path class="cls-52" d="M831.07,708.85c0-4.8,3.23-8.84,7.62-10.09-.91-.26-1.87-.41-2.87-.41-5.8,0-10.49,4.7-10.49,10.49s4.7,10.49,10.49,10.49c1,0,1.96-.15,2.87-.41-4.4-1.25-7.62-5.29-7.62-10.09Z"/>
    <path class="cls-52" d="M831.07,737.02c0-4.8,3.23-8.84,7.62-10.09-.91-.26-1.87-.41-2.87-.41-5.8,0-10.49,4.7-10.49,10.49s4.7,10.49,10.49,10.49c1,0,1.96-.15,2.87-.41-4.4-1.25-7.62-5.29-7.62-10.09Z"/>
    <circle class="cls-14" cx="549.81" cy="539.01" r="10.49"/>
    <circle class="cls-16" cx="951.29" cy="736.97" r="10.49"/>
    <circle class="cls-17" cx="1096.66" cy="788.62" r="10.49"/>
    <circle class="cls-7" cx="1039.72" cy="821.49" r="10.49"/>
    <circle class="cls-8" cx="951.29" cy="708.68" r="10.49"/>
    <path class="cls-70" d="M520.43,494.87h355.3v11.48h-360v-6.78c0-2.59,2.1-4.7,4.7-4.7Z"/>
    <path class="cls-70" d="M820.96,330.52h355.3v11.48h-360v-6.78c0-2.59,2.1-4.7,4.7-4.7Z" transform="translate(1785.6 -358.4) rotate(120)"/>
    <path class="cls-70" d="M813.13,673.04h355.3v11.48h-360v-6.78c0-2.59,2.1-4.7,4.7-4.7Z" transform="translate(894.81 1874.18) rotate(-120)"/>
    <circle class="cls-12" cx="951.29" cy="680.39" r="10.49"/>
    <path class="cls-3" d="M560.5,526.17h-22.43c-2.14,0-4.04-1.42-4.61-3.48-3.11-11.33-3.11-22.66,0-33.99.57-2.06,2.47-3.48,4.61-3.48h22.23c3.14,0,5.4,2.97,4.61,6.01-2.46,9.39-2.26,19.07.21,28.98.75,3.03-1.5,5.97-4.62,5.97Z"/>
    <path class="cls-3" d="M1080.88,785.17l11.22,19.43c1.07,1.85.79,4.21-.71,5.73-8.26,8.36-18.07,14.03-29.44,17-2.07.54-4.25-.39-5.32-2.25l-11.12-19.26c-1.57-2.72-.13-6.17,2.9-7,9.36-2.57,17.64-7.58,24.99-14.67,2.25-2.17,5.92-1.69,7.48,1.01Z"/>
    <path class="cls-3" d="M1045.78,203.57l11.22-19.43c1.07-1.85,3.25-2.79,5.32-2.25,11.37,2.97,21.18,8.63,29.44,17,1.5,1.52,1.78,3.88.71,5.73l-11.12,19.26c-1.57,2.72-5.27,3.2-7.51.99-6.91-6.82-15.38-11.49-25.2-14.31-3-.86-4.43-4.28-2.86-6.99Z"/>
    <path class="cls-54" d="M1254.66,494.34h-10.43c-.43,0-.78.35-.78.78v3.5h-3.17v-2.98c0-.72-.58-1.3-1.3-1.3h-2.61c-.72,0-1.3.58-1.3,1.3v2.98h-4.39v-.11c0-2.31-1.87-4.17-4.17-4.17h-59.51v-59.51c0-2.31-1.87-4.17-4.17-4.17h-.11v-4.39h2.98c.72,0,1.3-.58,1.3-1.3v-2.61c0-.72-.58-1.3-1.3-1.3h-2.98v-3.17h3.5c.43,0,.78-.35.78-.78v-10.43c0-2.31-1.87-4.17-4.17-4.17h-12c-2.31,0-4.17,1.87-4.17,4.17v10.43c0,.43.35.78.78.78h3.5v3.17h-2.98c-.72,0-1.3.58-1.3,1.3v2.61c0,.72.58,1.3,1.3,1.3h2.98v4.39h-.11c-2.31,0-4.17,1.87-4.17,4.17v59.51h-59.51c-2.31,0-4.17,1.87-4.17,4.17v.11h-4.39v-2.98c0-.72-.58-1.3-1.3-1.3h-2.61c-.72,0-1.3.58-1.3,1.3v2.98h-3.17v-3.5c0-.43-.35-.78-.78-.78h-10.43c-2.31,0-4.17,1.87-4.17,4.17v12c0,2.31,1.87,4.17,4.17,4.17h10.43c.43,0,.78-.35.78-.78v-3.5h3.17v2.98c0,.72.58,1.3,1.3,1.3h2.61c.72,0,1.3-.58,1.3-1.3v-2.98h4.39v.11c0,2.31,1.87,4.17,4.17,4.17h59.51v60.12c0,2.31,1.87,4.17,4.17,4.17h.11v4.39h-2.98c-.72,0-1.3.58-1.3,1.3v2.61c0,.72.58,1.3,1.3,1.3h2.98v3.17h-3.5c-.43,0-.78.35-.78.78v10.43c0,2.31,1.87,4.17,4.17,4.17h12c2.31,0,4.17-1.87,4.17-4.17v-10.43c0-.43-.35-.78-.78-.78h-3.5v-3.17h2.98c.72,0,1.3-.58,1.3-1.3v-2.61c0-.72-.58-1.3-1.3-1.3h-2.98v-4.39h.11c2.31,0,4.17-1.87,4.17-4.17v-60.12h59.51c2.31,0,4.17-1.87,4.17-4.17v-.11h4.39v2.98c0,.72.58,1.3,1.3,1.3h2.61c.72,0,1.3-.58,1.3-1.3v-2.98h3.17v3.5c0,.43.35.78.78.78h10.43c2.31,0,4.17-1.87,4.17-4.17v-12c0-2.31-1.87-4.17-4.17-4.17ZM1156.8,505.12v-.61h0v.61h0Z"/>
    <path class="cls-42" d="M1156.36,445.6c-33.04,0-59.82,26.78-59.82,59.82s26.78,59.82,59.82,59.82,59.82-26.78,59.82-59.82-26.78-59.82-59.82-59.82ZM1156.36,537.86c-17.14,0-31.04-13.9-31.04-31.04s13.9-31.04,31.04-31.04,31.04,13.9,31.04,31.04-13.9,31.04-31.04,31.04Z"/>
    <path class="cls-61" d="M526.3,223.44c-22.29-6.81-45.7-6.83-70.26.09-3.11.88-5.26,3.8-5.26,7.11v118.56c0,4.52,3.95,8.02,8.31,7.29,21.53-3.59,42.83-3.99,63.84-.21,4.41.79,8.46-2.67,8.46-7.26v-118.53c0-3.24-2.05-6.13-5.09-7.06Z"/>
    <path class="cls-60" d="M526.3,787.94c-22.29,6.81-45.7,6.83-70.26-.09-3.11-.88-5.26-3.8-5.26-7.11v-118.56c0-4.52,3.95-8.02,8.31-7.29,21.53,3.59,42.83,3.99,63.84.21,4.41-.79,8.46,2.67,8.46,7.26v118.53c0,3.24-2.05,6.13-5.09,7.06Z"/>
    <path class="cls-39" d="M857.65,256.49c24.15-8.71,48.3-8.71,72.45,0,2.05.74,4.21-.76,4.21-2.94v-96.41c0-5.82-3.91-10.9-9.52-12.45-20.61-5.69-41.21-5.69-61.82,0-5.61,1.55-9.52,6.63-9.52,12.45v96.41c0,2.18,2.16,3.68,4.21,2.94Z"/>
    <path class="cls-40" d="M857.65,754.05c24.15,8.71,48.3,8.71,72.45,0,2.05-.74,4.21.76,4.21,2.94v96.41c0,5.82-3.91,10.9-9.52,12.45-20.61,5.69-41.21,5.69-61.82,0-5.61-1.55-9.52-6.63-9.52-12.45v-96.41c0-2.18,2.16-3.68,4.21-2.94Z"/>
    <path class="cls-25" d="M1305.31,325.26h-122.2c-5.4,0-9.78,4.38-9.78,9.78h0c0,5.4,4.38,9.78,9.78,9.78h85.74c18.02,0,32.63,14.61,32.63,32.63v257.31c0,18.02-14.61,32.63-32.63,32.63h-84.95c-5.4,0-9.78,4.38-9.78,9.78h0c0,5.4,4.38,9.78,9.78,9.78h117.59s4.61,0,4.61,0h0c8.26,0,14.95-6.7,14.95-14.95v-331.02c0-8.69-7.05-15.74-15.74-15.74h0Z"/>
    <path class="cls-56" d="M1080.22,602.83l-18.6-10.74c-2.73-1.58-6.1-1.05-8.24,1.07.41-3.18-1.08-6.45-4.03-8.15l-13.53-7.81c-2.69-1.55-6.05-.89-7.98,1.41-.23-.45-.59-.84-1.06-1.11l-2.46-1.42,1.56-2.7c.46-.8.19-1.81-.61-2.27l-105.39-60.85c.12-1.03.2-2.07.2-3.14s-.06-2.01-.18-2.99l103.71-59.88c.8-.46,1.07-1.48.61-2.27l-1.56-2.7,2.46-1.42c.47-.27.82-.66,1.06-1.11,1.93,2.3,5.29,2.96,7.98,1.41l13.53-7.81c2.95-1.7,4.44-4.97,4.03-8.15,2.14,2.12,5.5,2.65,8.24,1.07l18.6-10.74c2.13-1.23,2.86-3.95,1.63-6.08l-6.24-10.82c-1.23-2.13-3.95-2.86-6.08-1.63l-18.6,10.74c-2.73,1.58-3.96,4.75-3.19,7.67-2.55-1.95-6.12-2.29-9.08-.58l-13.53,7.81c-2.69,1.55-3.8,4.79-2.77,7.62-.5-.02-1.02.09-1.49.36l-2.46,1.42-1.56-2.7c-.46-.8-1.48-1.07-2.27-.61l-104.08,60.09c-1.34-.92-2.77-1.72-4.28-2.37v-120.19c0-.92-.74-1.66-1.66-1.66h-3.11v-2.84c0-.54-.16-1.05-.44-1.47,2.96-.52,5.21-3.1,5.21-6.21v-15.62c0-3.41-2.08-6.33-5.04-7.57,2.9-.79,5.04-3.44,5.04-6.6v-21.47c0-2.46-1.99-4.45-4.45-4.45h-12.49c-2.46,0-4.45,1.99-4.45,4.45v21.47c0,3.16,2.14,5.81,5.04,6.6-2.96,1.24-5.04,4.16-5.04,7.57v15.62c0,3.11,2.25,5.69,5.21,6.21-.27.43-.44.93-.44,1.47v2.84h-3.11c-.92,0-1.66.74-1.66,1.66v120.54c-1.38.66-2.69,1.44-3.92,2.32l-102.39-59.11c-.8-.46-1.81-.19-2.27.61l-1.56,2.7-2.46-1.42c-.47-.27-.99-.38-1.49-.36,1.03-2.82-.08-6.06-2.77-7.62l-13.53-7.81c-2.95-1.7-6.52-1.36-9.08.58.77-2.91-.46-6.09-3.19-7.67l-18.6-10.74c-2.13-1.23-4.85-.5-6.08,1.63l-6.24,10.82c-1.23,2.13-.5,4.85,1.63,6.08l18.6,10.74c2.73,1.58,6.1,1.05,8.24-1.07-.41,3.18,1.08,6.45,4.03,8.15l13.53,7.81c2.69,1.55,6.05.89,7.98-1.41.23.45.59.84,1.06,1.11l2.46,1.42-1.56,2.7c-.46.8-.19,1.81.61,2.27l102.39,59.11c-.08.82-.12,1.65-.12,2.49,0,.67.03,1.33.08,1.98l-104.39,60.27c-.8.46-1.07,1.48-.61,2.27l1.56,2.7-2.46,1.42c-.47.27-.82.66-1.06,1.11-1.93-2.3-5.29-2.96-7.98-1.41l-13.53,7.81c-2.95,1.7-4.44,4.97-4.03,8.15-2.14-2.12-5.5-2.65-8.24-1.07l-18.6,10.74c-2.13,1.23-2.86,3.95-1.63,6.08l6.24,10.82c1.23,2.13,3.95,2.86,6.08,1.63l18.6-10.74c2.73-1.58,3.96-4.75,3.19-7.67,2.55,1.95,6.12,2.29,9.08.58l13.53-7.81c2.69-1.55,3.8-4.79,2.77-7.62.5.02,1.02-.09,1.49-.36l2.46-1.42,1.56,2.7c.46.8,1.48,1.07,2.27.61l104.02-60.06c1.35,1.01,2.8,1.88,4.34,2.61v117.51c0,.92.74,1.66,1.66,1.66h3.11v2.84c0,.54.16,1.05.44,1.47-2.96.52-5.21,3.1-5.21,6.21v15.62c0,3.41,2.08,6.33,5.04,7.57-2.9.79-5.04,3.44-5.04,6.6v21.47c0,2.46,1.99,4.45,4.45,4.45h12.49c2.46,0,4.45-1.99,4.45-4.45v-21.47c0-3.16-2.14-5.81-5.04-6.6,2.96-1.24,5.04-4.16,5.04-7.57v-15.62c0-3.11-2.25-5.69-5.21-6.21.27-.43.44-.93.44-1.47v-2.84h3.11c.92,0,1.66-.74,1.66-1.66v-117.16c1.46-.64,2.85-1.4,4.16-2.29l105.85,61.12c.8.46,1.81.19,2.27-.61l1.56-2.7,2.46,1.42c.47.27.99.38,1.49.36-1.03,2.82.08,6.06,2.77,7.62l13.53,7.81c2.95,1.7,6.52,1.36,9.08-.58-.77,2.91.46,6.09,3.19,7.67l18.6,10.74c2.13,1.23,4.85.5,6.08-1.63l6.24-10.82c1.23-2.13.5-4.85-1.63-6.08Z"/>
    <path class="cls-43" d="M894.26,412.24c-52.23,0-94.57,42.34-94.57,94.57s42.34,94.57,94.57,94.57,94.57-42.34,94.57-94.57-42.34-94.57-94.57-94.57ZM894.26,579.62c-40.21,0-72.8-32.6-72.8-72.8s32.6-72.8,72.8-72.8,72.8,32.6,72.8,72.8-32.6,72.8-72.8,72.8Z"/>
    <path class="cls-52" d="M545.42,538.89c0-4.8,3.23-8.84,7.62-10.09-.91-.26-1.87-.41-2.87-.41-5.8,0-10.49,4.7-10.49,10.49s4.7,10.49,10.49,10.49c1,0,1.96-.15,2.87-.41-4.4-1.25-7.62-5.29-7.62-10.09Z"/>
    <path class="cls-52" d="M946.9,737.02c0-4.8,3.23-8.84,7.62-10.09-.91-.26-1.87-.41-2.87-.41-5.8,0-10.49,4.7-10.49,10.49s4.7,10.49,10.49,10.49c1,0,1.96-.15,2.87-.41-4.4-1.25-7.62-5.29-7.62-10.09Z"/>
    <path class="cls-52" d="M946.9,708.45c0-4.8,3.23-8.84,7.62-10.09-.91-.26-1.87-.41-2.87-.41-5.8,0-10.49,4.7-10.49,10.49s4.7,10.49,10.49,10.49c1,0,1.96-.15,2.87-.41-4.4-1.25-7.62-5.29-7.62-10.09Z"/>
    <path class="cls-52" d="M1034.55,821.15c0-4.8,3.23-8.84,7.62-10.09-.91-.26-1.87-.41-2.87-.41-5.8,0-10.49,4.7-10.49,10.49s4.7,10.49,10.49,10.49c1,0,1.96-.15,2.87-.41-4.4-1.25-7.62-5.29-7.62-10.09Z"/>
    <path class="cls-52" d="M1091.68,788.67c0-4.8,3.23-8.84,7.62-10.09-.91-.26-1.87-.41-2.87-.41-5.8,0-10.49,4.7-10.49,10.49s4.7,10.49,10.49,10.49c1,0,1.96-.15,2.87-.41-4.4-1.25-7.62-5.29-7.62-10.09Z"/>
    <path class="cls-52" d="M946.9,680.28c0-4.8,3.23-8.84,7.62-10.09-.91-.26-1.87-.41-2.87-.41-5.8,0-10.49,4.7-10.49,10.49s4.7,10.49,10.49,10.49c1,0,1.96-.15,2.87-.41-4.4-1.25-7.62-5.29-7.62-10.09Z"/>
    <path class="cls-64" d="M485.61,218.64c-9.57.63-19.32,2.25-29.25,4.89-3.3.88-5.57,3.8-5.57,7.11v118.56c0,4.52,4.18,8.02,8.8,7.29,8.71-1.37,17.39-2.27,26.02-2.66v-135.2Z"/>
    <path class="cls-64" d="M485.22,792.68c-9.57-.63-19.32-2.25-29.25-4.89-3.3-.88-5.57-3.8-5.57-7.11v-118.56c0-4.52,4.18-8.02,8.8-7.29,8.71,1.37,17.39,2.27,26.02,2.66v135.2Z"/>
    <path class="cls-69" d="M887.74,140.64c-8.04.49-16.09,1.83-24.13,4.05-5.61,1.55-9.52,6.63-9.52,12.45v96.41c0,2.18,2.16,3.68,4.21,2.94,9.81-3.54,19.63-5.62,29.44-6.28v-109.58Z"/>
    <path class="cls-69" d="M886.7,870.25c-8.04-.49-16.09-1.83-24.13-4.05-5.61-1.55-9.52-6.63-9.52-12.45v-96.41c0-2.18,2.16-3.68,4.21-2.94,9.81,3.54,19.63,5.62,29.44,6.28v109.58Z"/>
  </g>
</svg>