<?xml version="1.0" encoding="UTF-8"?>
<svg xmlns="http://www.w3.org/2000/svg" viewBox="0 0 1920 1080">
  <defs>
    <style>
      .cls-1, .cls-2 {
        fill: #bf2026;
      }

      .cls-3 {
        fill: #fff;
      }

      .cls-3, .cls-2, .cls-4, .cls-5, .cls-6 {
        stroke: #601113;
        stroke-miterlimit: 10;
        stroke-width: 5px;
      }

      .cls-4 {
        fill: #d3d2d3;
      }

      .cls-7 {
        fill: #faf1f1;
      }

      .cls-5 {
        fill: none;
      }

      .cls-6 {
        fill: #e6a6a8;
      }
    </style>
  </defs>
  <g id="Layer_2" data-name="Layer 2">
    <path class="cls-7" d="M1428.26,391.48c-8.14-17.28-16.67-34.52-29.35-55.17-13.14-21.4-40.1-61.75-96.26-115.04-64.75-61.44-113.22-107.44-191.35-129.13-25.03-6.95-55.26-15.01-93.91-9.39-57.11,8.3-98.36,41.48-125.61,63.39-6.04,4.86-24.46,22.87-61.04,58.7-65.31,63.95-63.63,63.62-71.61,69.26-44.3,31.33-91.15,38.1-136.17,44.61-61.44,8.88-69.37-2.28-116.22,10.57-20.75,5.69-58.17,15.95-92.74,45.78-53.81,46.44-66.06,110.44-72.78,145.57-11.96,62.5-2.03,112.14,3.52,138.52,5.75,27.33,23.88,98.77,81,167.87,7.61,9.2,36.68,43.5,84.52,76.3,29.43,20.19,53.04,36.37,86.87,45.78,74.14,20.63,157.34-2.42,210.13-37.57,13.89-9.25,28.05-20.91,55.17-34.04,28.44-13.77,53.02-25.67,83.35-24.65,22.44.76,45.4,13.04,90.39,37.57,23.47,12.8,27.44,16.22,72.78,43.43,70.96,42.58,85.13,48.52,97.43,52.83,16.21,5.67,42.53,14.65,76.3,15.26,74.73,1.34,128.86-39.36,143.22-50.48,51.05-39.53,71.64-88.48,81-111.52,30.05-74,21.63-139.45,15.26-189-10.62-82.55-38.74-142.28-93.91-259.43Z"/>
  </g>
  <g id="Layer_5" data-name="Layer 5">
    <rect class="cls-3" x="593.48" y="145.44" width="198.78" height="198.78" rx="99.39" ry="99.39"/>
    <path class="cls-4" d="M1353.29,865.24h-695.43l52-507.41c0-24.86,15.42-45.01,34.43-45.01h520.56c19.02,0,34.43,20.15,34.43,45.01l54,507.41Z"/>
    <path class="cls-3" d="M656.86,865.24h697.43c0,26.78-21.74,48.52-48.52,48.52h-600.39c-26.78,0-48.52-21.74-48.52-48.52h0Z"/>
    <line class="cls-5" x1="488.51" y1="914.85" x2="1501.99" y2="914.85"/>
    <rect class="cls-2" x="810.95" y="773.34" width="53.66" height="53.66" rx="7.83" ry="7.83"/>
    <path class="cls-4" d="M954,806.13h-232.43c-12.88,0-23.32-10.44-23.32-23.32l45.75-476.61c0-12.88,10.44-23.32,23.32-23.32h141.31c12.88,0,23.32,10.44,23.32,23.32l45.37,476.61c0,12.88-10.44,23.32-23.32,23.32Z"/>
    <path class="cls-3" d="M1250.53,348.04h-182.49c-8.59,0-15.55,6.04-15.55,13.5l-3.45,97.43c0,7.46,6.96,13.5,15.55,13.5h196.31c8.59,0,15.55-6.04,15.55-13.5l-10.36-97.43c0-7.46-6.96-13.5-15.55-13.5Z"/>
    <rect class="cls-6" x="1017.93" y="535.45" width="62.22" height="39.34" rx="14.98" ry="14.98"/>
    <rect class="cls-6" x="1104.86" y="535.45" width="62.22" height="39.34" rx="14.98" ry="14.98"/>
    <rect class="cls-6" x="1191.73" y="535.45" width="62.22" height="39.34" rx="14.98" ry="14.98"/>
    <rect class="cls-6" x="1017.93" y="599.65" width="62.22" height="39.34" rx="14.98" ry="14.98"/>
    <rect class="cls-6" x="1104.86" y="599.65" width="62.22" height="39.34" rx="14.98" ry="14.98"/>
    <rect class="cls-6" x="1191.73" y="599.65" width="62.22" height="39.34" rx="14.98" ry="14.98"/>
    <rect class="cls-6" x="1017.93" y="663.86" width="62.22" height="39.34" rx="14.98" ry="14.98"/>
    <rect class="cls-6" x="1104.86" y="663.86" width="62.22" height="39.34" rx="14.98" ry="14.98"/>
    <rect class="cls-6" x="1104.86" y="728.07" width="62.22" height="39.34" rx="14.98" ry="14.98"/>
    <rect class="cls-6" x="1191.73" y="663.86" width="62.22" height="39.34" rx="14.98" ry="14.98"/>
    <circle class="cls-1" cx="695.63" cy="286.05" r="15.86"/>
    <path class="cls-1" d="M713.71,249.04c-1.17-.71-3.4-2.05-6.5-3.16-1.1-.39-4.61-1.58-9.38-1.86-2.04-.12-5.79-.16-10.31.93-1.4.34-4.36,1.14-7.8,2.88-1.94.98-3.4,2.01-6.32,4.09-.71.51-1.91,1.37-2.97,2.88-.44.63-.88,1.27-1.11,2.23-.37,1.54.05,2.85.28,3.53.15.44.45,1.32,1.21,2.23.92,1.11,1.98,1.64,2.51,1.86.56.23,1.73.71,3.25.46,1.09-.17,1.84-.66,2.42-1.02.8-.51,1.04-.85,2.04-1.77.39-.35,1.45-1.31,2.79-2.23,1.76-1.21,3.22-1.82,3.53-1.95.29-.12,1.26-.51,2.6-.84,2.2-.54,3.96-.55,5.2-.56.83,0,2.17,0,3.9.28,2.22.36,3.85.97,4.46,1.21,1.74.69,2.96,1.44,3.62,1.86.96.6,1.76,1.1,2.69,1.95.4.36.81.78,1.58,1.39.63.5.96.77,1.49,1.02.21.1.93.44,1.95.56.46.05,1.49.16,2.69-.28,1.03-.38,1.67-.96,2.14-1.39.88-.81,1.35-1.62,1.49-1.86.33-.59,1.01-1.79.93-3.34-.07-1.4-.71-2.36-1.3-3.25-.25-.37-.94-1.36-3.34-3.25-.82-.64-1.95-1.53-3.72-2.6Z"/>
    <path class="cls-1" d="M737.13,231.58c-2.33-1.86-1.89-1.73-3.62-3.07-1.93-1.49-3.5-2.45-4.83-3.25-2.46-1.49-4.36-2.41-6.87-3.62-2.57-1.24-3.86-1.87-5.39-2.42-2-.72-3.57-1.07-6.69-1.77-2.54-.57-4.05-.9-6.22-1.21-3.32-.46-6.03-.55-7.71-.56-1.16,0-3.63.02-6.78.37-2.88.32-5,.77-6.6,1.11-2.47.53-4.94,1.06-8.08,2.23-1.9.71-3.34,1.39-4.74,2.04-2.78,1.31-4.76,2.44-5.2,2.69-.63.36-2.62,1.52-5.11,3.25-1.65,1.15-2.76,1.92-4.18,3.16-1.64,1.43-1.4,1.48-3.16,2.97-.76.65-1.2.97-1.67,1.67-.85,1.25-.99,2.48-1.02,2.79-.11,1.2.18,2.11.37,2.69.17.52.46,1.37,1.21,2.23.66.76,1.34,1.16,1.77,1.39.6.34,1.63.9,3.07.93,1.58.03,2.72-.59,3.16-.84.67-.37.84-.63,2.23-1.95.44-.42,1.8-1.72,2.97-2.69,1.18-.98,2.1-1.59,3.34-2.42,1.97-1.3,3.55-2.16,4.55-2.69,1.47-.79,2.94-1.58,5.02-2.42,1.77-.71,3.15-1.12,4.37-1.49,1.24-.37,2.73-.81,4.74-1.21,1.08-.21,3.09-.57,5.67-.74,2.75-.19,4.84-.07,6.13,0,.71.04,2.43.15,4.64.46,1.3.18,3.27.47,5.76,1.11,1.89.49,3.16.95,5.67,1.86,1.98.72,2.99,1.09,4.37,1.77,1.36.67,2.38,1.3,3.44,1.95.96.59,2.02,1.24,3.34,2.23,1.41,1.04,2.46,1.97,3.07,2.51,1.06.93,1.58,1.4,2.14,1.95.64.63.82.86,1.3,1.21.24.17,1,.69,2.14,1.02.54.16,1.31.37,2.32.28.4-.04,1.5-.18,2.6-.93.64-.43,1.01-.91,1.77-1.86.72-.91,1.08-1.36,1.3-1.95.54-1.42.22-2.75.09-3.25-.29-1.13-.83-1.88-1.3-2.51-.92-1.24-1.72-1.77-3.34-3.07Z"/>
    <path class="cls-1" d="M656.49,196.46c-1.64.72-2.15.9-3.25,1.49-.98.53-1.5.89-2.97,1.86-3.29,2.17-2.95,1.85-5.02,3.25-1.96,1.33-3.44,2.41-4.09,2.88-1.63,1.2-2.93,2.15-4.55,3.53-2.07,1.76-1.74,1.8-3.25,2.97-1.1.85-1.86,1.3-2.69,2.42-.71.95-.99,1.74-1.11,2.14-.15.49-.37,1.21-.28,2.14.07.71.36,1.28.93,2.42.53,1.05.79,1.57,1.21,1.95.47.42,1.02.65,2.14,1.11.76.31,1.14.47,1.58.56.3.06,1.48.26,2.79-.19.67-.23,1.1-.54,2.51-1.77,1.39-1.21,2.41-2.16,2.79-2.51,1.71-1.58,2.56-2.37,3.44-3.07,1.11-.88,1.15-.79,3.72-2.6,2.22-1.57,2.03-1.52,3.34-2.42.7-.48,2.41-1.61,4.74-2.88,1.52-.83,2.69-1.38,3.72-1.86,1.32-.62,3.12-1.46,5.48-2.32.88-.32,2.41-.8,5.48-1.77,2.11-.66,3.17-.99,3.62-1.11,2.86-.77,5.14-1.09,6.69-1.3,1.48-.2,2.54-.3,4.46-.46.77-.07,2.74-.23,5.39-.37,3.03-.16,4.55-.24,6.5-.19.59.02,2.55.08,5.11.37,3.28.38,5.73.93,7.34,1.3.61.14,2.49.58,4.92,1.3,2.43.72,4.25,1.38,5.3,1.77,1.11.41,2.28.83,3.81,1.49,1.72.73,2.99,1.36,3.99,1.86,1,.49,2.19,1.09,3.72,1.95,1.76.99,3.04,1.83,4.09,2.51,1.33.87,2.26,1.52,3.53,2.42,1.52,1.07,2.3,1.62,3.16,2.32.56.46,1.21,1.05,2.51,2.23,1.71,1.56,2.57,2.34,2.88,2.69.66.76.93,1.21,1.67,1.67.78.49,1.51.65,1.95.74.26.05,1.4.28,2.88,0,.83-.16,1.92-.36,2.97-1.21,1.44-1.16,1.83-2.74,1.95-3.25.22-.96.16-1.76.09-2.51-.08-.89-.13-1.48-.46-2.14-.39-.76-.83-.95-1.77-1.86-.9-.87-1.28-1.46-1.77-2.04-1.63-1.97-4.41-3.56-5.85-4.83q-3.89-3.43-7.25-5.67c-2.32-1.55-4.89-2.7-10.03-5.02-4.85-2.18-7.27-3.27-10.78-4.37-2.99-.93-5.4-1.46-8.08-2.04-3.86-.84-6.95-1.32-8.73-1.58-2.37-.34-4.14-.59-6.6-.74-2.93-.18-5.07-.11-7.9,0-3.29.12-6.04.23-9.75.74-1.31.18-4.81.71-9.2,1.86-1.46.38-3.42,1-7.34,2.23-3.05.96-3.8,1.23-4.64,1.58-1.88.77-1.96.98-5.02,2.32Z"/>
    <rect class="cls-2" x="833.1" y="807.72" width="11.74" height="56.04" transform="translate(3.23 1674.71) rotate(-90)"/>
    <rect class="cls-2" x="833.1" y="825.4" width="11.74" height="56.04" transform="translate(-95.82 1600.67) rotate(-84.13)"/>
    <rect class="cls-2" x="828.04" y="842.9" width="11.74" height="56.04" transform="translate(-257.33 1383.88) rotate(-71.42)"/>
    <rect class="cls-2" x="814.17" y="855.43" width="11.74" height="56.04" transform="translate(-374.19 1047.01) rotate(-54.93)"/>
    <rect class="cls-2" x="792.88" y="858.13" width="11.74" height="56.04" transform="translate(-350.23 565.04) rotate(-32.36)"/>
    <rect class="cls-2" x="770.45" y="855.43" width="11.74" height="56.04" transform="translate(-183.78 204.21) rotate(-13.41)"/>
    <rect class="cls-2" x="753.36" y="853.43" width="11.74" height="56.04"/>
    <rect class="cls-2" x="734.09" y="853.43" width="11.74" height="56.04"/>
    <rect class="cls-2" x="714.78" y="853.43" width="11.74" height="56.04"/>
    <rect class="cls-2" x="695.48" y="853.43" width="11.74" height="56.04"/>
    <rect class="cls-2" x="674.09" y="849.77" width="11.74" height="56.04" transform="translate(194.4 -120.76) rotate(11.83)"/>
    <rect class="cls-2" x="652.9" y="845.34" width="11.74" height="56.04" transform="translate(393.91 -188.05) rotate(23.02)"/>
    <rect class="cls-2" x="633.8" y="837.22" width="11.74" height="56.04" transform="translate(613.27 -210.45) rotate(35.07)"/>
    <rect class="cls-2" x="619.19" y="825.4" width="11.74" height="56.04" transform="translate(603.83 -204.21) rotate(35.07)"/>
    <rect class="cls-2" x="602.36" y="813.59" width="11.74" height="56.04" transform="translate(773.25 -183.58) rotate(45)"/>
    <rect class="cls-2" x="590.36" y="796.11" width="11.74" height="56.04" transform="translate(973.33 -120.57) rotate(57.64)"/>
    <rect class="cls-2" x="580.96" y="778.11" width="11.74" height="56.04" transform="translate(1206.24 24.75) rotate(74.46)"/>
    <rect class="cls-2" x="578.31" y="758.96" width="11.74" height="56.04" transform="translate(1404.09 250.01) rotate(93.36)"/>
    <rect class="cls-2" x="579.64" y="736.25" width="11.74" height="56.04" transform="translate(1517.87 524.18) rotate(113.02)"/>
    <rect class="cls-2" x="587.48" y="717.8" width="11.74" height="56.04" transform="translate(1540.28 853.64) rotate(135)"/>
    <rect class="cls-2" x="604.1" y="707.95" width="11.74" height="56.04" transform="translate(1455.5 1181.84) rotate(157.46)"/>
    <rect class="cls-2" x="622.84" y="700.17" width="11.74" height="56.04" transform="translate(1363.49 1349.18) rotate(171.01)"/>
    <rect class="cls-2" x="640.31" y="695.41" width="11.74" height="56.04" transform="translate(1292.36 1446.87) rotate(180)"/>
    <rect class="cls-2" x="656.32" y="697.06" width="11.74" height="56.04" transform="translate(1246.7 1514.12) rotate(-174.13)"/>
    <path class="cls-1" d="M1167.17,419.53l19.22-47.19c1.62-3.99-1.31-8.35-5.62-8.35h-38.44c-4.31,0-7.24,4.36-5.62,8.35l19.22,47.19c2.05,5.04,9.18,5.04,11.23,0Z"/>
    <circle class="cls-1" cx="1161.56" cy="442.02" r="11.53"/>
  </g>
</svg>