<?xml version="1.0" encoding="UTF-8"?>
<svg xmlns="http://www.w3.org/2000/svg" xmlns:xlink="http://www.w3.org/1999/xlink" viewBox="0 0 830 829.95">
  <defs>
    <style>
      .cls-1, .cls-2 {
        fill: #bf2026;
      }

      .cls-2, .cls-3, .cls-4, .cls-5, .cls-6 {
        stroke-miterlimit: 10;
      }

      .cls-2, .cls-3, .cls-5 {
        stroke: #fff;
      }

      .cls-7 {
        filter: url(#drop-shadow-2);
      }

      .cls-8 {
        filter: url(#drop-shadow-6);
      }

      .cls-9 {
        filter: url(#drop-shadow-5);
      }

      .cls-10 {
        fill: #fff;
      }

      .cls-3, .cls-4, .cls-5, .cls-6 {
        fill: none;
      }

      .cls-11 {
        filter: url(#drop-shadow-4);
      }

      .cls-12 {
        filter: url(#drop-shadow-7);
      }

      .cls-13 {
        filter: url(#drop-shadow-1);
      }

      .cls-4, .cls-6 {
        stroke: #bf2026;
      }

      .cls-5 {
        stroke-width: 2px;
      }

      .cls-14 {
        filter: url(#drop-shadow-3);
      }

      .cls-6 {
        stroke-width: 3px;
      }
    </style>
    <filter id="drop-shadow-1" x="655" y="412" width="164" height="132" filterUnits="userSpaceOnUse">
      <feOffset dx="2" dy="2"/>
      <feGaussianBlur result="blur" stdDeviation="2"/>
      <feFlood flood-color="#000" flood-opacity=".75"/>
      <feComposite in2="blur" operator="in"/>
      <feComposite in="SourceGraphic"/>
    </filter>
    <filter id="drop-shadow-2" x="344" y="50" width="144" height="89" filterUnits="userSpaceOnUse">
      <feOffset dx="2" dy="2"/>
      <feGaussianBlur result="blur-2" stdDeviation="2"/>
      <feFlood flood-color="#000" flood-opacity=".75"/>
      <feComposite in2="blur-2" operator="in"/>
      <feComposite in="SourceGraphic"/>
    </filter>
    <filter id="drop-shadow-3" x="625" y="179" width="92" height="83" filterUnits="userSpaceOnUse">
      <feOffset dx="2" dy="2"/>
      <feGaussianBlur result="blur-3" stdDeviation="2"/>
      <feFlood flood-color="#000" flood-opacity=".75"/>
      <feComposite in2="blur-3" operator="in"/>
      <feComposite in="SourceGraphic"/>
    </filter>
    <filter id="drop-shadow-4" x="469" y="662" width="189" height="89" filterUnits="userSpaceOnUse">
      <feOffset dx="2" dy="2"/>
      <feGaussianBlur result="blur-4" stdDeviation="2"/>
      <feFlood flood-color="#000" flood-opacity=".75"/>
      <feComposite in2="blur-4" operator="in"/>
      <feComposite in="SourceGraphic"/>
    </filter>
    <filter id="drop-shadow-5" x="19" y="412" width="149" height="83" filterUnits="userSpaceOnUse">
      <feOffset dx="2" dy="2"/>
      <feGaussianBlur result="blur-5" stdDeviation="2"/>
      <feFlood flood-color="#000" flood-opacity=".75"/>
      <feComposite in2="blur-5" operator="in"/>
      <feComposite in="SourceGraphic"/>
    </filter>
    <filter id="drop-shadow-6" x="165" y="654" width="218" height="82" filterUnits="userSpaceOnUse">
      <feOffset dx="2" dy="2"/>
      <feGaussianBlur result="blur-6" stdDeviation="2"/>
      <feFlood flood-color="#000" flood-opacity=".75"/>
      <feComposite in2="blur-6" operator="in"/>
      <feComposite in="SourceGraphic"/>
    </filter>
    <filter id="drop-shadow-7" x="71" y="191" width="199" height="46" filterUnits="userSpaceOnUse">
      <feOffset dx="2" dy="2"/>
      <feGaussianBlur result="blur-7" stdDeviation="2"/>
      <feFlood flood-color="#000" flood-opacity=".75"/>
      <feComposite in2="blur-7" operator="in"/>
      <feComposite in="SourceGraphic"/>
    </filter>
  </defs>
  <g id="Layer_1" data-name="Layer 1">
    <g id="MainCircle">
      <path class="cls-1" d="M191.98,354.6L12.78,312.43C4.44,345.24,0,379.6,0,415c0,89.11,28.09,171.65,75.89,239.27l150.75-105.55c-26.84-37.74-42.63-83.88-42.63-133.72,0-20.9,2.78-41.14,7.98-60.4Z"/>
      <path class="cls-1" d="M233.75,41.57C128.74,92.64,48.51,186.69,15.92,300.84l179.51,42.24c19.29-58.93,61.65-107.42,116.41-134.8L233.75,41.57Z"/>
      <path class="cls-1" d="M595.85,558.7c-41.16,51.73-104.04,85.41-174.85,87.22v184.03c133.16-1.89,251.14-66.49,325.75-165.59l-150.9-105.66Z"/>
      <path class="cls-1" d="M233.84,558.32l-150.89,105.65c74.59,99.33,192.71,164.1,326.04,165.99v-184.03c-70.99-1.81-134-35.65-175.16-87.61Z"/>
      <path class="cls-1" d="M638.31,355.71c5.01,18.92,7.69,38.79,7.69,59.29,0,50.01-15.91,96.3-42.92,134.12l150.75,105.55c47.97-67.69,76.17-150.39,76.17-239.67,0-35-4.34-68.99-12.5-101.46l-179.19,42.17Z"/>
      <path class="cls-1" d="M598.69,42.78l-78.09,166.73c53.91,27.76,95.49,76.12,114.33,134.67l179.49-42.24c-32.14-113.76-111.58-207.67-215.72-259.16Z"/>
      <path class="cls-1" d="M415,0c-60.72,0-118.4,13.04-170.38,36.48l78.08,166.72c28.27-12.34,59.48-19.2,92.3-19.2s65.87,7.25,94.79,20.29l78.06-166.67C535.23,13.47,476.69,0,415,0Z"/>
    </g>
    <g class="cls-13">
      <path class="cls-10" d="M668.3,417.41c1.7,0,3.16.16,4.37.49,1.21.32,2.21.79,2.98,1.39.77.6,1.34,1.33,1.7,2.18.36.85.54,1.81.54,2.88,0,.61-.09,1.2-.27,1.75-.18.56-.46,1.08-.84,1.57-.38.49-.86.93-1.44,1.32-.58.4-1.28.73-2.08,1.01,3.58.8,5.36,2.74,5.36,5.8,0,1.1-.21,2.12-.63,3.06-.42.94-1.03,1.74-1.84,2.42-.8.68-1.79,1.21-2.97,1.59-1.18.38-2.52.58-4.03.58h-9.83v-26.03h8.96ZM664.17,421.15v7.52h3.85c1.66,0,2.91-.3,3.75-.9.85-.6,1.27-1.55,1.27-2.86s-.38-2.32-1.15-2.9-1.97-.86-3.6-.86h-4.12ZM669.07,439.65c.9,0,1.66-.11,2.27-.32.61-.22,1.1-.5,1.47-.86.37-.36.63-.78.79-1.26.16-.48.24-.99.24-1.53s-.09-1.07-.27-1.52c-.18-.45-.46-.83-.85-1.15-.38-.32-.88-.56-1.49-.73-.61-.17-1.33-.25-2.19-.25h-4.88v7.63h4.9Z"/>
      <path class="cls-10" d="M681.62,427.54c2.12-1.94,4.68-2.92,7.67-2.92,1.08,0,2.05.18,2.9.53.85.35,1.57.85,2.16,1.48s1.04,1.38,1.34,2.26.46,1.84.46,2.88v11.66h-2.02c-.42,0-.74-.06-.97-.19-.23-.13-.41-.38-.54-.76l-.4-1.33c-.47.42-.92.79-1.37,1.11-.44.32-.91.58-1.39.8-.48.22-.99.38-1.54.5-.55.11-1.15.17-1.81.17-.78,0-1.5-.11-2.16-.32-.66-.21-1.23-.52-1.71-.94-.48-.42-.85-.94-1.12-1.57-.26-.62-.4-1.35-.4-2.18,0-.47.08-.93.23-1.4.16-.46.41-.9.76-1.32s.81-.82,1.38-1.19,1.26-.7,2.08-.97,1.78-.5,2.87-.67,2.34-.28,3.74-.32v-1.08c0-1.24-.26-2.15-.79-2.75-.53-.59-1.29-.89-2.29-.89-.72,0-1.32.08-1.79.25-.47.17-.89.36-1.25.57-.36.21-.69.4-.98.57s-.62.25-.98.25c-.31,0-.58-.08-.79-.24s-.39-.35-.52-.57l-.79-1.42ZM691.8,435.55c-1.28.06-2.36.17-3.24.33s-1.58.37-2.11.62c-.53.25-.91.55-1.13.88-.23.34-.34.7-.34,1.1,0,.78.23,1.34.69,1.67.46.34,1.06.5,1.81.5.91,0,1.7-.16,2.37-.49s1.32-.83,1.95-1.5v-3.11Z"/>
      <path class="cls-10" d="M713.55,428.87c-.13.17-.26.3-.39.4-.13.1-.31.14-.55.14s-.45-.07-.67-.21c-.22-.14-.47-.29-.77-.47-.3-.17-.66-.33-1.07-.47-.41-.14-.93-.21-1.54-.21-.78,0-1.46.14-2.05.42-.59.28-1.08.69-1.47,1.21-.39.53-.68,1.17-.87,1.92-.19.75-.29,1.6-.29,2.55s.11,1.86.32,2.63c.21.77.51,1.41.91,1.93.4.52.88.92,1.44,1.19.56.27,1.2.4,1.91.4s1.28-.09,1.72-.26c.44-.17.81-.37,1.11-.58.3-.21.56-.4.78-.58.22-.17.47-.26.75-.26.36,0,.63.14.81.41l1.28,1.62c-.49.58-1.03,1.06-1.6,1.45s-1.17.7-1.79.94c-.62.23-1.25.4-1.91.5-.65.1-1.3.14-1.95.14-1.14,0-2.21-.21-3.22-.64s-1.89-1.05-2.65-1.86c-.76-.82-1.35-1.81-1.79-3-.44-1.18-.66-2.53-.66-4.04,0-1.36.2-2.61.58-3.77s.96-2.16,1.72-3.01,1.69-1.51,2.81-1.99c1.12-.48,2.4-.72,3.85-.72s2.59.22,3.63.67,1.97,1.08,2.8,1.91l-1.17,1.62Z"/>
      <path class="cls-10" d="M722.12,416.69v15.32h.83c.3,0,.54-.04.71-.12s.35-.24.53-.48l4.59-5.67c.19-.25.41-.44.64-.58.23-.13.54-.2.91-.2h4.07l-5.74,6.86c-.41.54-.85.95-1.33,1.24.25.18.48.39.67.63.2.24.39.5.57.77l6.16,8.96h-4.01c-.35,0-.65-.06-.9-.17s-.46-.32-.63-.62l-4.72-7c-.17-.28-.34-.46-.52-.54s-.45-.13-.81-.13h-1.01v8.46h-4.45v-26.75h4.45Z"/>
      <path class="cls-10" d="M752.82,424.97v18.47h-2.72c-.59,0-.96-.27-1.12-.81l-.31-1.48c-.76.77-1.59,1.39-2.5,1.86s-1.99.71-3.22.71c-1.01,0-1.9-.17-2.67-.51-.77-.34-1.43-.83-1.95-1.45-.53-.62-.93-1.37-1.2-2.22-.27-.86-.41-1.8-.41-2.83v-11.74h4.45v11.74c0,1.13.26,2,.78,2.62.52.62,1.3.93,2.35.93.77,0,1.49-.17,2.16-.51s1.31-.81,1.91-1.41v-13.36h4.45Z"/>
      <path class="cls-10" d="M761.43,427.49c.76-.85,1.61-1.54,2.57-2.07.96-.53,2.09-.79,3.38-.79,1.01,0,1.93.21,2.76.63s1.55,1.03,2.16,1.83c.61.8,1.07,1.78,1.4,2.95.33,1.17.5,2.51.5,4.02,0,1.38-.19,2.66-.56,3.83s-.9,2.2-1.59,3.06c-.69.86-1.52,1.54-2.5,2.03-.98.49-2.07.73-3.29.73-1.03,0-1.91-.16-2.65-.48-.73-.32-1.39-.76-1.96-1.32v7.56h-4.45v-24.5h2.72c.58,0,.95.27,1.13.81l.36,1.71ZM761.66,438.65c.5.61,1.05,1.04,1.65,1.3s1.24.38,1.93.38,1.28-.13,1.82-.38,1-.64,1.38-1.15c.38-.52.67-1.17.87-1.95s.31-1.71.31-2.78-.09-2-.26-2.75-.42-1.36-.75-1.83-.72-.81-1.18-1.03c-.46-.22-.99-.32-1.58-.32-.92,0-1.71.2-2.36.58-.65.39-1.26.94-1.84,1.65v8.28Z"/>
      <path class="cls-10" d="M810.15,443.43h-4.36c-.46,0-.83-.05-1.11-.16-.28-.11-.58-.34-.89-.68l-1.8-1.85c-1.14.94-2.42,1.67-3.83,2.2-1.42.53-2.95.79-4.59.79-1,0-1.98-.17-2.94-.51-.97-.34-1.83-.84-2.58-1.49s-1.37-1.43-1.83-2.35-.69-1.95-.69-3.11c0-.82.13-1.59.4-2.31.26-.73.63-1.4,1.1-2.03.47-.62,1.03-1.18,1.67-1.68.65-.5,1.36-.93,2.12-1.29-.65-.9-1.12-1.78-1.4-2.64-.29-.86-.43-1.71-.43-2.56,0-.9.17-1.75.5-2.57.33-.81.81-1.51,1.43-2.11.62-.6,1.39-1.08,2.3-1.43.91-.35,1.94-.53,3.1-.53,1.06,0,2,.16,2.83.49s1.55.76,2.14,1.3c.59.54,1.06,1.16,1.4,1.85.34.7.54,1.42.6,2.16l-2.83.59c-.53.11-.91-.12-1.15-.68-.11-.31-.25-.61-.42-.89s-.38-.53-.62-.74-.52-.38-.85-.5-.7-.19-1.12-.19c-.5,0-.95.09-1.35.26-.4.17-.73.41-1,.7-.27.29-.48.64-.62,1.03-.14.39-.22.8-.22,1.23,0,.36.04.71.11,1.04.07.34.19.67.36,1.01s.39.68.66,1.04c.27.35.6.74,1,1.14l6.91,7.18c.4-.76.71-1.55.95-2.39.24-.84.4-1.69.47-2.56.04-.28.13-.5.29-.67.16-.17.37-.25.65-.25h2.77c-.01,1.58-.24,3.1-.68,4.54-.44,1.44-1.08,2.77-1.91,3.98l5.45,5.65ZM792.82,431.27c-.96.62-1.66,1.33-2.1,2.12s-.66,1.63-.66,2.53c0,.66.11,1.25.34,1.78.23.53.54.98.93,1.34.39.37.85.65,1.37.85.52.2,1.08.3,1.67.3,1.06,0,2.02-.17,2.9-.5s1.67-.79,2.38-1.38l-6.82-7.04Z"/>
      <path class="cls-10" d="M693.34,473.62c0,1.91-.32,3.66-.95,5.26-.64,1.6-1.53,2.97-2.68,4.12-1.15,1.15-2.54,2.05-4.16,2.68-1.62.64-3.42.95-5.4.95h-9.92v-26.03h9.92c1.98,0,3.78.32,5.4.96,1.62.64,3.01,1.54,4.16,2.68,1.15,1.15,2.05,2.52,2.68,4.11.64,1.6.95,3.35.95,5.26ZM688.38,473.62c0-1.43-.19-2.71-.57-3.84-.38-1.13-.92-2.09-1.64-2.88-.71-.79-1.58-1.39-2.59-1.81-1.01-.42-2.16-.63-3.43-.63h-5.06v18.32h5.06c1.27,0,2.41-.21,3.43-.63,1.01-.42,1.88-1.02,2.59-1.81s1.26-1.75,1.64-2.88.57-2.42.57-3.84Z"/>
      <path class="cls-10" d="M701.82,462.79c0,.38-.08.74-.23,1.08-.16.34-.36.63-.62.88-.26.25-.56.45-.91.6-.35.15-.72.23-1.12.23s-.75-.08-1.09-.23c-.34-.15-.64-.35-.89-.6s-.45-.55-.6-.88c-.15-.34-.23-.7-.23-1.08s.08-.77.23-1.12c.15-.35.35-.65.6-.9s.55-.45.89-.6.7-.23,1.09-.23.77.08,1.12.23c.35.15.65.35.91.6.26.25.47.55.62.9.16.35.23.72.23,1.12ZM701.21,468.17v18.47h-4.46v-18.47h4.46Z"/>
      <path class="cls-10" d="M717.01,471.77c-.12.19-.25.33-.38.41s-.3.12-.5.12c-.22,0-.45-.06-.69-.18-.25-.12-.53-.25-.85-.4-.32-.15-.69-.29-1.11-.41s-.9-.18-1.47-.18c-.88,0-1.56.19-2.06.56-.5.37-.75.86-.75,1.46,0,.4.13.73.39,1,.26.27.6.51,1.03.71.43.2.91.39,1.45.55s1.09.34,1.65.53c.56.19,1.11.41,1.65.66s1.02.56,1.45.94.77.83,1.03,1.36c.26.53.39,1.16.39,1.91,0,.89-.16,1.71-.48,2.46-.32.75-.79,1.4-1.41,1.94-.62.55-1.4.97-2.31,1.28s-1.98.46-3.18.46c-.64,0-1.26-.06-1.86-.17-.61-.11-1.19-.27-1.75-.48-.56-.2-1.07-.44-1.55-.72-.47-.28-.89-.58-1.25-.9l1.03-1.69c.13-.2.29-.36.47-.47.18-.11.41-.16.68-.16s.54.08.78.23c.25.16.53.32.86.5.32.18.7.35,1.14.5.44.16.99.23,1.67.23.53,0,.98-.06,1.36-.19s.69-.29.94-.5.43-.44.54-.71c.11-.27.17-.55.17-.84,0-.43-.13-.79-.39-1.06-.26-.28-.6-.52-1.03-.72s-.91-.39-1.46-.55-1.1-.34-1.67-.53c-.57-.19-1.13-.42-1.67-.67s-1.03-.58-1.46-.98c-.43-.4-.77-.88-1.03-1.46-.26-.58-.39-1.27-.39-2.09,0-.76.15-1.48.45-2.16.3-.68.74-1.28,1.32-1.79.58-.51,1.31-.92,2.18-1.22s1.88-.46,3.01-.46c1.27,0,2.43.21,3.47.63s1.91.97,2.61,1.66l-1.01,1.6Z"/>
      <path class="cls-10" d="M721.13,470.74c2.12-1.94,4.68-2.92,7.67-2.92,1.08,0,2.05.18,2.9.53.85.35,1.57.85,2.16,1.48s1.04,1.38,1.34,2.26.46,1.84.46,2.88v11.66h-2.02c-.42,0-.74-.06-.97-.19-.23-.13-.41-.38-.54-.76l-.4-1.33c-.47.42-.92.79-1.37,1.11-.44.32-.91.58-1.39.8-.48.22-.99.38-1.54.5-.55.11-1.15.17-1.81.17-.78,0-1.5-.11-2.16-.32-.66-.21-1.23-.52-1.71-.94-.48-.42-.85-.94-1.12-1.57-.26-.62-.4-1.35-.4-2.18,0-.47.08-.93.23-1.4.16-.46.41-.9.76-1.32s.81-.82,1.38-1.19,1.26-.7,2.08-.97,1.78-.5,2.87-.67,2.34-.28,3.74-.32v-1.08c0-1.24-.26-2.15-.79-2.75-.53-.59-1.29-.89-2.29-.89-.72,0-1.32.08-1.79.25-.47.17-.89.36-1.25.57-.36.21-.69.4-.98.57s-.62.25-.98.25c-.31,0-.58-.08-.79-.24s-.39-.35-.52-.57l-.79-1.42ZM731.32,478.75c-1.28.06-2.36.17-3.24.33s-1.58.37-2.11.62c-.53.25-.91.55-1.13.88-.23.34-.34.7-.34,1.1,0,.78.23,1.34.69,1.67.46.34,1.06.5,1.81.5.91,0,1.7-.16,2.37-.49s1.32-.83,1.95-1.5v-3.11Z"/>
      <path class="cls-10" d="M751.1,471.77c-.12.19-.25.33-.38.41s-.3.12-.5.12c-.22,0-.45-.06-.69-.18-.25-.12-.53-.25-.85-.4-.32-.15-.69-.29-1.11-.41s-.9-.18-1.47-.18c-.88,0-1.56.19-2.06.56-.5.37-.75.86-.75,1.46,0,.4.13.73.39,1,.26.27.6.51,1.03.71.43.2.91.39,1.45.55s1.09.34,1.65.53c.56.19,1.11.41,1.65.66s1.02.56,1.45.94.77.83,1.03,1.36c.26.53.39,1.16.39,1.91,0,.89-.16,1.71-.48,2.46-.32.75-.79,1.4-1.41,1.94-.62.55-1.4.97-2.31,1.28s-1.98.46-3.18.46c-.64,0-1.26-.06-1.86-.17-.61-.11-1.19-.27-1.75-.48-.56-.2-1.07-.44-1.55-.72-.47-.28-.89-.58-1.25-.9l1.03-1.69c.13-.2.29-.36.47-.47.18-.11.41-.16.68-.16s.54.08.78.23c.25.16.53.32.86.5.32.18.7.35,1.14.5.44.16.99.23,1.67.23.53,0,.98-.06,1.36-.19s.69-.29.94-.5.43-.44.54-.71c.11-.27.17-.55.17-.84,0-.43-.13-.79-.39-1.06-.26-.28-.6-.52-1.03-.72s-.91-.39-1.46-.55-1.1-.34-1.67-.53c-.57-.19-1.13-.42-1.67-.67s-1.03-.58-1.46-.98c-.43-.4-.77-.88-1.03-1.46-.26-.58-.39-1.27-.39-2.09,0-.76.15-1.48.45-2.16.3-.68.74-1.28,1.32-1.79.58-.51,1.31-.92,2.18-1.22s1.88-.46,3.01-.46c1.27,0,2.43.21,3.47.63s1.91.97,2.61,1.66l-1.01,1.6Z"/>
      <path class="cls-10" d="M761.81,486.92c-1.61,0-2.84-.45-3.7-1.36-.86-.91-1.29-2.16-1.29-3.75v-10.31h-1.89c-.24,0-.44-.08-.61-.23-.17-.16-.25-.39-.25-.7v-1.76l2.97-.49.94-5.04c.06-.24.17-.43.34-.56.17-.13.38-.2.65-.2h2.3v5.81h4.93v3.17h-4.93v10.01c0,.58.14,1.03.42,1.35.28.32.67.49,1.16.49.28,0,.51-.03.69-.1.19-.07.35-.14.49-.21.14-.07.26-.14.37-.21.11-.07.22-.1.32-.1.13,0,.24.03.32.1.08.07.17.17.27.3l1.33,2.16c-.65.54-1.39.95-2.23,1.22s-1.71.41-2.61.41Z"/>
      <path class="cls-10" d="M772.33,477.96c.07.95.24,1.77.5,2.46.26.69.61,1.26,1.04,1.71s.95.79,1.54,1.01,1.25.33,1.97.33,1.34-.08,1.86-.25c.52-.17.98-.35,1.37-.56.39-.2.73-.39,1.03-.56s.58-.25.86-.25c.37,0,.65.14.83.41l1.28,1.62c-.49.58-1.04,1.06-1.66,1.45-.61.39-1.25.7-1.92.94-.67.23-1.34.4-2.03.5-.69.1-1.36.14-2.01.14-1.28,0-2.48-.21-3.58-.64-1.1-.43-2.06-1.06-2.88-1.89-.82-.83-1.46-1.87-1.93-3.1-.47-1.23-.7-2.65-.7-4.27,0-1.26.2-2.45.61-3.55.41-1.11.99-2.08,1.75-2.9.76-.82,1.69-1.47,2.79-1.95,1.1-.48,2.34-.72,3.72-.72,1.16,0,2.24.19,3.22.56.98.37,1.83.92,2.54,1.63.71.71,1.26,1.59,1.67,2.63.4,1.04.6,2.22.6,3.56,0,.67-.07,1.12-.22,1.36-.14.23-.42.35-.83.35h-11.43ZM780.8,475.28c0-.58-.08-1.12-.24-1.63-.16-.51-.4-.96-.73-1.34-.32-.38-.74-.69-1.23-.91-.5-.22-1.08-.33-1.74-.33-1.28,0-2.29.37-3.03,1.1-.74.73-1.21,1.77-1.41,3.11h8.39Z"/>
      <path class="cls-10" d="M792.32,471.37c.58-1.1,1.26-1.97,2.05-2.6s1.73-.94,2.81-.94c.85,0,1.54.19,2.05.56l-.29,3.33c-.06.22-.15.37-.26.46s-.27.13-.46.13c-.18,0-.45-.03-.8-.09-.35-.06-.7-.09-1.04-.09-.49,0-.93.07-1.31.22-.38.14-.73.35-1.03.62-.31.27-.58.6-.81.98-.23.38-.45.82-.66,1.31v11.38h-4.45v-18.47h2.61c.46,0,.77.08.95.24.18.16.3.45.36.87l.27,2.09Z"/>
      <path class="cls-10" d="M682.38,529.83h-4.37c-.83,0-1.43-.32-1.8-.97l-5.47-8.33c-.2-.31-.43-.53-.67-.67-.25-.13-.61-.2-1.09-.2h-2.07v10.17h-4.84v-26.03h7.94c1.76,0,3.28.18,4.54.55,1.27.37,2.3.88,3.11,1.54.81.66,1.41,1.45,1.79,2.37.38.92.58,1.93.58,3.03,0,.88-.13,1.7-.39,2.48s-.63,1.49-1.12,2.12c-.49.64-1.09,1.19-1.8,1.67-.71.48-1.53.86-2.44,1.13.31.18.6.39.86.64.26.25.5.54.72.87l6.52,9.61ZM669.92,516.19c.91,0,1.71-.11,2.39-.34.68-.23,1.24-.54,1.67-.94.44-.4.76-.88.98-1.43.22-.55.32-1.16.32-1.82,0-1.32-.43-2.33-1.3-3.04s-2.2-1.06-3.99-1.06h-3.1v8.64h3.02Z"/>
      <path class="cls-10" d="M686.72,521.16c.07.95.24,1.77.5,2.46.26.69.61,1.26,1.04,1.71s.95.79,1.54,1.01,1.25.33,1.97.33,1.34-.08,1.86-.25c.52-.17.98-.35,1.37-.56.39-.2.73-.39,1.03-.56s.58-.25.86-.25c.37,0,.65.14.83.41l1.28,1.62c-.49.58-1.04,1.06-1.66,1.45-.61.39-1.25.7-1.92.94-.67.23-1.34.4-2.03.5-.69.1-1.36.14-2.01.14-1.28,0-2.48-.21-3.58-.64-1.1-.43-2.06-1.06-2.88-1.89-.82-.83-1.46-1.87-1.93-3.1-.47-1.23-.7-2.65-.7-4.27,0-1.26.2-2.45.61-3.55.41-1.11.99-2.08,1.75-2.9.76-.82,1.69-1.47,2.79-1.95,1.1-.48,2.34-.72,3.72-.72,1.16,0,2.24.19,3.22.56.98.37,1.83.92,2.54,1.63.71.71,1.26,1.59,1.67,2.63.4,1.04.6,2.22.6,3.56,0,.67-.07,1.12-.22,1.36-.14.23-.42.35-.83.35h-11.43ZM695.2,518.48c0-.58-.08-1.12-.24-1.63-.16-.51-.4-.96-.73-1.34-.32-.38-.74-.69-1.23-.91-.5-.22-1.08-.33-1.74-.33-1.28,0-2.29.37-3.03,1.1-.74.73-1.21,1.77-1.41,3.11h8.39Z"/>
      <path class="cls-10" d="M715.75,515.27c-.13.17-.26.3-.39.4-.13.1-.31.14-.55.14s-.45-.07-.67-.21c-.22-.14-.47-.29-.77-.47-.3-.17-.66-.33-1.07-.47-.41-.14-.93-.21-1.54-.21-.78,0-1.46.14-2.05.42-.59.28-1.08.69-1.47,1.21-.39.53-.68,1.17-.87,1.92-.19.75-.29,1.6-.29,2.55s.11,1.86.32,2.63c.21.77.51,1.41.91,1.93.4.52.88.92,1.44,1.19.56.27,1.2.4,1.91.4s1.28-.09,1.72-.26c.44-.17.81-.37,1.11-.58.3-.21.56-.4.78-.58.22-.17.47-.26.75-.26.36,0,.63.14.81.41l1.28,1.62c-.49.58-1.03,1.06-1.6,1.45s-1.17.7-1.79.94c-.62.23-1.25.4-1.91.5-.65.1-1.3.14-1.95.14-1.14,0-2.21-.21-3.22-.64s-1.89-1.05-2.65-1.86c-.76-.82-1.35-1.81-1.79-3-.44-1.18-.66-2.53-.66-4.04,0-1.36.2-2.61.58-3.77s.96-2.16,1.72-3.01,1.69-1.51,2.81-1.99c1.12-.48,2.4-.72,3.85-.72s2.59.22,3.63.67,1.97,1.08,2.8,1.91l-1.17,1.62Z"/>
      <path class="cls-10" d="M727.72,511.08c1.37,0,2.61.22,3.73.67s2.08,1.07,2.88,1.89c.8.82,1.41,1.81,1.84,2.99s.65,2.49.65,3.94-.22,2.78-.65,3.96c-.43,1.18-1.05,2.18-1.84,3.01-.8.83-1.76,1.46-2.88,1.91-1.12.44-2.37.67-3.73.67s-2.63-.22-3.76-.67c-1.13-.44-2.09-1.08-2.89-1.91s-1.42-1.83-1.85-3.01c-.44-1.18-.66-2.5-.66-3.96s.22-2.77.66-3.94c.44-1.18,1.06-2.17,1.85-2.99.8-.82,1.76-1.45,2.89-1.89,1.13-.44,2.38-.67,3.76-.67ZM727.72,526.68c1.54,0,2.67-.52,3.41-1.55.74-1.03,1.11-2.54,1.11-4.54s-.37-3.51-1.11-4.55c-.74-1.04-1.88-1.57-3.41-1.57s-2.72.52-3.46,1.57c-.75,1.05-1.12,2.57-1.12,4.54s.38,3.49,1.12,4.53c.75,1.04,1.9,1.56,3.46,1.56Z"/>
      <path class="cls-10" d="M756.31,511.37l-7.33,18.47h-4.03l-7.33-18.47h3.67c.34,0,.62.08.84.23.22.16.37.35.44.59l3.56,9.86c.19.58.36,1.14.5,1.69.14.55.27,1.1.38,1.66.12-.55.25-1.1.4-1.66.14-.55.32-1.12.52-1.69l3.64-9.86c.08-.24.23-.44.45-.59.22-.16.47-.23.77-.23h3.51Z"/>
      <path class="cls-10" d="M761.51,521.16c.07.95.24,1.77.5,2.46.26.69.61,1.26,1.04,1.71s.95.79,1.54,1.01,1.25.33,1.97.33,1.34-.08,1.86-.25c.52-.17.98-.35,1.37-.56.39-.2.73-.39,1.03-.56s.58-.25.86-.25c.37,0,.65.14.83.41l1.28,1.62c-.49.58-1.04,1.06-1.66,1.45-.61.39-1.25.7-1.92.94-.67.23-1.34.4-2.03.5-.69.1-1.36.14-2.01.14-1.28,0-2.48-.21-3.58-.64-1.1-.43-2.06-1.06-2.88-1.89-.82-.83-1.46-1.87-1.93-3.1-.47-1.23-.7-2.65-.7-4.27,0-1.26.2-2.45.61-3.55.41-1.11.99-2.08,1.75-2.9.76-.82,1.69-1.47,2.79-1.95,1.1-.48,2.34-.72,3.72-.72,1.16,0,2.24.19,3.22.56.98.37,1.83.92,2.54,1.63.71.71,1.26,1.59,1.67,2.63.4,1.04.6,2.22.6,3.56,0,.67-.07,1.12-.22,1.36-.14.23-.42.35-.83.35h-11.43ZM769.99,518.48c0-.58-.08-1.12-.24-1.63-.16-.51-.4-.96-.73-1.34-.32-.38-.74-.69-1.23-.91-.5-.22-1.08-.33-1.74-.33-1.28,0-2.29.37-3.03,1.1-.74.73-1.21,1.77-1.41,3.11h8.39Z"/>
      <path class="cls-10" d="M781.51,514.57c.58-1.1,1.26-1.97,2.05-2.6s1.73-.94,2.81-.94c.85,0,1.54.19,2.05.56l-.29,3.33c-.06.22-.15.37-.26.46s-.27.13-.46.13c-.18,0-.45-.03-.8-.09-.35-.06-.7-.09-1.04-.09-.49,0-.93.07-1.31.22-.38.14-.73.35-1.03.62-.31.27-.58.6-.81.98-.23.38-.45.82-.66,1.31v11.38h-4.45v-18.47h2.61c.46,0,.77.08.95.24.18.16.3.45.36.87l.27,2.09Z"/>
      <path class="cls-10" d="M807.52,511.37l-10.06,23.54c-.13.31-.3.55-.51.71-.21.16-.53.24-.96.24h-3.31l3.46-7.42-7.47-17.08h3.91c.35,0,.62.08.82.25s.34.36.44.58l3.92,9.58c.13.32.24.65.33.97s.18.65.26.99c.11-.34.22-.67.32-1,.11-.33.23-.66.36-.98l3.71-9.56c.1-.24.25-.44.48-.59.22-.16.47-.23.75-.23h3.56Z"/>
    </g>
    <g class="cls-7">
      <path class="cls-10" d="M382.47,75.3c.26,0,.5.1.7.31l1.91,2.07c-1.06,1.31-2.36,2.31-3.9,3.01-1.54.7-3.39,1.04-5.55,1.04-1.93,0-3.67-.33-5.21-.99-1.54-.66-2.86-1.58-3.95-2.75s-1.93-2.58-2.51-4.21-.87-3.41-.87-5.35.31-3.75.94-5.37,1.5-3.03,2.64-4.2,2.49-2.09,4.06-2.75c1.57-.65,3.31-.98,5.22-.98s3.58.31,5.05.94,2.72,1.44,3.75,2.45l-1.62,2.25c-.1.14-.22.27-.37.38-.15.11-.36.16-.62.16-.18,0-.37-.05-.56-.15-.19-.1-.4-.23-.63-.38-.23-.15-.49-.32-.79-.5s-.65-.34-1.04-.5c-.4-.15-.86-.28-1.38-.38-.52-.1-1.12-.15-1.81-.15-1.16,0-2.23.21-3.19.62-.97.41-1.8,1.01-2.49,1.8-.7.79-1.24,1.75-1.62,2.88-.38,1.13-.58,2.43-.58,3.88s.21,2.77.62,3.91c.41,1.14.97,2.1,1.68,2.88.71.78,1.54,1.38,2.5,1.79.96.41,1.99.62,3.1.62.66,0,1.26-.04,1.79-.11.53-.07,1.03-.19,1.48-.34.45-.16.88-.36,1.28-.6.4-.25.8-.55,1.2-.91.12-.11.25-.19.38-.26.13-.07.27-.1.41-.1Z"/>
      <path class="cls-10" d="M403.89,62.97l-10.06,23.54c-.13.31-.3.55-.51.71-.21.16-.53.24-.96.24h-3.31l3.46-7.42-7.47-17.08h3.91c.35,0,.62.08.82.25s.34.36.44.58l3.92,9.58c.13.32.24.65.33.97s.18.65.26.99c.11-.34.22-.67.32-1,.11-.33.23-.66.36-.98l3.71-9.56c.1-.24.25-.44.48-.59.22-.16.47-.23.75-.23h3.56Z"/>
      <path class="cls-10" d="M410.55,65.23c.74-.78,1.57-1.4,2.48-1.86.91-.46,1.94-.69,3.1-.69,1.07,0,2.03.21,2.89.63.86.42,1.59,1.02,2.2,1.81.61.79,1.07,1.74,1.4,2.85s.49,2.37.49,3.76c0,1.5-.19,2.86-.56,4.09-.37,1.22-.9,2.27-1.59,3.14-.69.87-1.52,1.54-2.49,2.02-.97.48-2.05.72-3.24.72-.58,0-1.1-.06-1.57-.17-.47-.11-.9-.27-1.3-.48-.4-.2-.76-.45-1.09-.75s-.64-.62-.94-.98l-.2,1.24c-.07.31-.2.53-.37.67-.17.13-.41.2-.71.2h-2.93v-26.75h4.45v10.55ZM410.55,76.65c.5.61,1.05,1.04,1.65,1.3s1.22.38,1.88.38,1.3-.12,1.84-.37c.55-.25,1.01-.63,1.4-1.15.38-.52.68-1.19.88-2,.2-.81.31-1.78.31-2.91,0-2.03-.34-3.5-1.01-4.4-.67-.91-1.64-1.36-2.9-1.36-.85,0-1.6.2-2.23.58s-1.24.94-1.82,1.65v8.28Z"/>
      <path class="cls-10" d="M429.96,72.76c.07.95.24,1.77.5,2.46.26.69.61,1.26,1.04,1.71s.95.79,1.54,1.01,1.25.33,1.97.33,1.34-.08,1.86-.25c.52-.17.98-.35,1.37-.56.39-.2.73-.39,1.03-.56s.58-.25.86-.25c.37,0,.65.14.83.41l1.28,1.62c-.49.58-1.04,1.06-1.66,1.45-.61.39-1.25.7-1.92.94-.67.23-1.34.4-2.03.5-.69.1-1.36.14-2.01.14-1.28,0-2.48-.21-3.58-.64-1.1-.43-2.06-1.06-2.88-1.89-.82-.83-1.46-1.87-1.93-3.1-.47-1.23-.7-2.65-.7-4.27,0-1.26.2-2.45.61-3.55.41-1.11.99-2.08,1.75-2.9.76-.82,1.69-1.47,2.79-1.95,1.1-.48,2.34-.72,3.72-.72,1.16,0,2.24.19,3.22.56.98.37,1.83.92,2.54,1.63.71.71,1.26,1.59,1.67,2.63.4,1.04.6,2.22.6,3.56,0,.67-.07,1.12-.22,1.36-.14.23-.42.35-.83.35h-11.43ZM438.44,70.08c0-.58-.08-1.12-.24-1.63-.16-.51-.4-.96-.73-1.34-.32-.38-.74-.69-1.23-.91-.5-.22-1.08-.33-1.74-.33-1.28,0-2.29.37-3.03,1.1-.74.73-1.21,1.77-1.41,3.11h8.39Z"/>
      <path class="cls-10" d="M449.96,66.17c.58-1.1,1.26-1.97,2.05-2.6s1.73-.94,2.81-.94c.85,0,1.54.19,2.05.56l-.29,3.33c-.06.22-.15.37-.26.46s-.27.13-.46.13c-.18,0-.45-.03-.8-.09-.35-.06-.7-.09-1.04-.09-.49,0-.93.07-1.31.22-.38.14-.73.35-1.03.62-.31.27-.58.6-.81.98-.23.38-.45.82-.66,1.31v11.38h-4.45v-18.47h2.61c.46,0,.77.08.95.24.18.16.3.45.36.87l.27,2.09Z"/>
      <path class="cls-10" d="M364.72,103.34c-.14.25-.3.43-.46.55s-.36.17-.6.17c-.25,0-.53-.09-.82-.28-.29-.19-.65-.39-1.05-.62-.41-.23-.89-.44-1.43-.62-.55-.19-1.19-.28-1.93-.28-.67,0-1.26.08-1.76.24s-.93.39-1.27.67-.6.63-.76,1.04-.25.84-.25,1.32c0,.61.17,1.12.51,1.53.34.41.79.76,1.36,1.04.56.29,1.21.55,1.93.77.72.23,1.46.47,2.21.73.76.26,1.49.56,2.21.9s1.36.77,1.93,1.3c.56.52,1.02,1.16,1.36,1.92s.51,1.67.51,2.75c0,1.18-.2,2.28-.6,3.3-.4,1.03-.99,1.92-1.76,2.68-.77.76-1.72,1.36-2.83,1.8-1.12.44-2.39.66-3.83.66-.83,0-1.64-.08-2.45-.24-.8-.16-1.58-.39-2.31-.69-.74-.3-1.43-.66-2.08-1.08-.65-.42-1.22-.89-1.73-1.4l1.42-2.32c.12-.17.28-.31.47-.42.19-.11.4-.17.61-.17.3,0,.62.12.97.37.35.25.76.52,1.24.82.48.3,1.04.57,1.68.82.64.25,1.41.37,2.31.37,1.38,0,2.45-.33,3.2-.98.76-.65,1.13-1.59,1.13-2.82,0-.68-.17-1.24-.51-1.67-.34-.43-.79-.79-1.36-1.09-.56-.29-1.21-.54-1.93-.75-.72-.2-1.45-.43-2.2-.67-.74-.24-1.48-.53-2.2-.86-.72-.34-1.36-.77-1.93-1.31-.56-.54-1.02-1.21-1.36-2.02-.34-.81-.51-1.81-.51-3,0-.95.19-1.87.57-2.77.38-.9.93-1.7,1.65-2.39.72-.7,1.61-1.25,2.66-1.67,1.06-.42,2.27-.63,3.64-.63,1.54,0,2.95.24,4.25.72,1.3.48,2.4,1.15,3.31,2.02l-1.21,2.29Z"/>
      <path class="cls-10" d="M373.27,115.96c.07.95.24,1.77.5,2.46.26.69.61,1.26,1.04,1.71s.95.79,1.54,1.01,1.25.33,1.97.33,1.34-.08,1.86-.25c.52-.17.98-.35,1.37-.56.39-.2.73-.39,1.03-.56s.58-.25.86-.25c.37,0,.65.14.83.41l1.28,1.62c-.49.58-1.04,1.06-1.66,1.45-.61.39-1.25.7-1.92.94-.67.23-1.34.4-2.03.5-.69.1-1.36.14-2.01.14-1.28,0-2.48-.21-3.58-.64-1.1-.43-2.06-1.06-2.88-1.89-.82-.83-1.46-1.87-1.93-3.1-.47-1.23-.7-2.65-.7-4.27,0-1.26.2-2.45.61-3.55.41-1.11.99-2.08,1.75-2.9.76-.82,1.69-1.47,2.79-1.95,1.1-.48,2.34-.72,3.72-.72,1.16,0,2.24.19,3.22.56.98.37,1.83.92,2.54,1.63.71.71,1.26,1.59,1.67,2.63.4,1.04.6,2.22.6,3.56,0,.67-.07,1.12-.22,1.36-.14.23-.42.35-.83.35h-11.43ZM381.75,113.28c0-.58-.08-1.12-.24-1.63-.16-.51-.4-.96-.73-1.34-.32-.38-.74-.69-1.23-.91-.5-.22-1.08-.33-1.74-.33-1.28,0-2.29.37-3.03,1.1-.74.73-1.21,1.77-1.41,3.11h8.39Z"/>
      <path class="cls-10" d="M402.3,110.07c-.13.17-.26.3-.39.4-.13.1-.31.14-.55.14s-.45-.07-.67-.21c-.22-.14-.47-.29-.77-.47-.3-.17-.66-.33-1.07-.47-.41-.14-.93-.21-1.54-.21-.78,0-1.46.14-2.05.42-.59.28-1.08.69-1.47,1.21-.39.53-.68,1.17-.87,1.92-.19.75-.29,1.6-.29,2.55s.11,1.86.32,2.63c.21.77.51,1.41.91,1.93.4.52.88.92,1.44,1.19.56.27,1.2.4,1.91.4s1.28-.09,1.72-.26c.44-.17.81-.37,1.11-.58.3-.21.56-.4.78-.58.22-.17.47-.26.75-.26.36,0,.63.14.81.41l1.28,1.62c-.49.58-1.03,1.06-1.6,1.45s-1.17.7-1.79.94c-.62.23-1.25.4-1.91.5-.65.1-1.3.14-1.95.14-1.14,0-2.21-.21-3.22-.64s-1.89-1.05-2.65-1.86c-.76-.82-1.35-1.81-1.79-3-.44-1.18-.66-2.53-.66-4.04,0-1.36.2-2.61.58-3.77s.96-2.16,1.72-3.01,1.69-1.51,2.81-1.99c1.12-.48,2.4-.72,3.85-.72s2.59.22,3.63.67,1.97,1.08,2.8,1.91l-1.17,1.62Z"/>
      <path class="cls-10" d="M422.34,106.17v18.47h-2.72c-.59,0-.96-.27-1.12-.81l-.31-1.48c-.76.77-1.59,1.39-2.5,1.86s-1.99.71-3.22.71c-1.01,0-1.9-.17-2.67-.51-.77-.34-1.43-.83-1.95-1.45-.53-.62-.93-1.37-1.2-2.22-.27-.86-.41-1.8-.41-2.83v-11.74h4.45v11.74c0,1.13.26,2,.78,2.62.52.62,1.3.93,2.35.93.77,0,1.49-.17,2.16-.51s1.31-.81,1.91-1.41v-13.36h4.45Z"/>
      <path class="cls-10" d="M430.92,109.37c.58-1.1,1.26-1.97,2.05-2.6s1.73-.94,2.81-.94c.85,0,1.54.19,2.05.56l-.29,3.33c-.06.22-.15.37-.26.46s-.27.13-.46.13c-.18,0-.45-.03-.8-.09-.35-.06-.7-.09-1.04-.09-.49,0-.93.07-1.31.22-.38.14-.73.35-1.03.62-.31.27-.58.6-.81.98-.23.38-.45.82-.66,1.31v11.38h-4.45v-18.47h2.61c.46,0,.77.08.95.24.18.16.3.45.36.87l.27,2.09Z"/>
      <path class="cls-10" d="M445.38,100.79c0,.38-.08.74-.23,1.08-.16.34-.36.63-.62.88-.26.25-.56.45-.91.6-.35.15-.72.23-1.12.23s-.75-.08-1.09-.23c-.34-.15-.64-.35-.89-.6s-.45-.55-.6-.88c-.15-.34-.23-.7-.23-1.08s.08-.77.23-1.12c.15-.35.35-.65.6-.9s.55-.45.89-.6.7-.23,1.09-.23.77.08,1.12.23c.35.15.65.35.91.6.26.25.47.55.62.9.16.35.23.72.23,1.12ZM444.76,106.17v18.47h-4.46v-18.47h4.46Z"/>
      <path class="cls-10" d="M455.45,124.92c-1.61,0-2.84-.45-3.7-1.36-.86-.91-1.29-2.16-1.29-3.75v-10.31h-1.89c-.24,0-.44-.08-.61-.23-.17-.16-.25-.39-.25-.7v-1.76l2.97-.49.94-5.04c.06-.24.17-.43.34-.56.17-.13.38-.2.65-.2h2.3v5.81h4.93v3.17h-4.93v10.01c0,.58.14,1.03.42,1.35.28.32.67.49,1.16.49.28,0,.51-.03.69-.1.19-.07.35-.14.49-.21.14-.07.26-.14.37-.21.11-.07.22-.1.32-.1.13,0,.24.03.32.1.08.07.17.17.27.3l1.33,2.16c-.65.54-1.39.95-2.23,1.22s-1.71.41-2.61.41Z"/>
      <path class="cls-10" d="M479.47,106.17l-10.06,23.54c-.13.31-.3.55-.51.71-.21.16-.53.24-.96.24h-3.31l3.46-7.42-7.47-17.08h3.91c.35,0,.62.08.82.25s.34.36.44.58l3.92,9.58c.13.32.24.65.33.97s.18.65.26.99c.11-.34.22-.67.32-1,.11-.33.23-.66.36-.98l3.71-9.56c.1-.24.25-.44.48-.59.22-.16.47-.23.75-.23h3.56Z"/>
    </g>
    <g class="cls-14">
      <path class="cls-10" d="M654.29,184.41v26.03h-4.86v-11.38h-12.22v11.38h-4.86v-26.03h4.86v11.2h12.22v-11.2h4.86Z"/>
      <path class="cls-10" d="M662.25,201.76c.07.95.24,1.77.5,2.46.26.69.61,1.26,1.04,1.71s.95.79,1.54,1.01,1.25.33,1.97.33,1.34-.08,1.86-.25c.52-.17.98-.35,1.37-.56.39-.2.73-.39,1.03-.56s.58-.25.86-.25c.37,0,.65.14.83.41l1.28,1.62c-.49.58-1.04,1.06-1.66,1.45-.61.39-1.25.7-1.92.94-.67.23-1.34.4-2.03.5-.69.1-1.36.14-2.01.14-1.28,0-2.48-.21-3.58-.64-1.1-.43-2.06-1.06-2.88-1.89-.82-.83-1.46-1.87-1.93-3.1-.47-1.23-.7-2.65-.7-4.27,0-1.26.2-2.45.61-3.55.41-1.11.99-2.08,1.75-2.9.76-.82,1.69-1.47,2.79-1.95,1.1-.48,2.34-.72,3.72-.72,1.16,0,2.24.19,3.22.56.98.37,1.83.92,2.54,1.63.71.71,1.26,1.59,1.67,2.63.4,1.04.6,2.22.6,3.56,0,.67-.07,1.12-.22,1.36-.14.23-.42.35-.83.35h-11.43ZM670.72,199.08c0-.58-.08-1.12-.24-1.63-.16-.51-.4-.96-.73-1.34-.32-.38-.74-.69-1.23-.91-.5-.22-1.08-.33-1.74-.33-1.28,0-2.29.37-3.03,1.1-.74.73-1.21,1.77-1.41,3.11h8.39Z"/>
      <path class="cls-10" d="M682.55,183.69v26.75h-4.45v-26.75h4.45Z"/>
      <path class="cls-10" d="M691.21,194.49c.76-.85,1.61-1.54,2.57-2.07.96-.53,2.09-.79,3.38-.79,1.01,0,1.93.21,2.76.63s1.55,1.03,2.16,1.83c.61.8,1.07,1.78,1.4,2.95.33,1.17.5,2.51.5,4.02,0,1.38-.19,2.66-.56,3.83s-.9,2.2-1.59,3.06c-.69.86-1.52,1.54-2.5,2.03-.98.49-2.07.73-3.29.73-1.03,0-1.91-.16-2.65-.48-.73-.32-1.39-.76-1.96-1.32v7.56h-4.45v-24.5h2.72c.58,0,.95.27,1.13.81l.36,1.71ZM691.44,205.65c.5.61,1.05,1.04,1.65,1.3s1.24.38,1.93.38,1.28-.13,1.82-.38,1-.64,1.38-1.15c.38-.52.67-1.17.87-1.95s.31-1.71.31-2.78-.09-2-.26-2.75-.42-1.36-.75-1.83-.72-.81-1.18-1.03c-.46-.22-.99-.32-1.58-.32-.92,0-1.71.2-2.36.58-.65.39-1.26.94-1.84,1.65v8.28Z"/>
      <path class="cls-10" d="M652.64,240.62c0,1.91-.32,3.66-.95,5.26-.64,1.6-1.53,2.97-2.68,4.12-1.15,1.15-2.54,2.05-4.16,2.68-1.62.64-3.42.95-5.4.95h-9.92v-26.03h9.92c1.98,0,3.78.32,5.4.96,1.62.64,3.01,1.54,4.16,2.68,1.15,1.15,2.05,2.52,2.68,4.11.64,1.6.95,3.35.95,5.26ZM647.67,240.62c0-1.43-.19-2.71-.57-3.84-.38-1.13-.92-2.09-1.64-2.88-.71-.79-1.58-1.39-2.59-1.81-1.01-.42-2.16-.63-3.43-.63h-5.06v18.32h5.06c1.27,0,2.41-.21,3.43-.63,1.01-.42,1.88-1.02,2.59-1.81s1.26-1.75,1.64-2.88.57-2.42.57-3.84Z"/>
      <path class="cls-10" d="M659.39,244.96c.07.95.24,1.77.5,2.46.26.69.61,1.26,1.04,1.71s.95.79,1.54,1.01,1.25.33,1.97.33,1.34-.08,1.86-.25c.52-.17.98-.35,1.37-.56.39-.2.73-.39,1.03-.56s.58-.25.86-.25c.37,0,.65.14.83.41l1.28,1.62c-.49.58-1.04,1.06-1.66,1.45-.61.39-1.25.7-1.92.94-.67.23-1.34.4-2.03.5-.69.1-1.36.14-2.01.14-1.28,0-2.48-.21-3.58-.64-1.1-.43-2.06-1.06-2.88-1.89-.82-.83-1.46-1.87-1.93-3.1-.47-1.23-.7-2.65-.7-4.27,0-1.26.2-2.45.61-3.55.41-1.11.99-2.08,1.75-2.9.76-.82,1.69-1.47,2.79-1.95,1.1-.48,2.34-.72,3.72-.72,1.16,0,2.24.19,3.22.56.98.37,1.83.92,2.54,1.63.71.71,1.26,1.59,1.67,2.63.4,1.04.6,2.22.6,3.56,0,.67-.07,1.12-.22,1.36-.14.23-.42.35-.83.35h-11.43ZM667.87,242.28c0-.58-.08-1.12-.24-1.63-.16-.51-.4-.96-.73-1.34-.32-.38-.74-.69-1.23-.91-.5-.22-1.08-.33-1.74-.33-1.28,0-2.29.37-3.03,1.1-.74.73-1.21,1.77-1.41,3.11h8.39Z"/>
      <path class="cls-10" d="M686.46,238.77c-.12.19-.25.33-.38.41s-.3.12-.5.12c-.22,0-.45-.06-.69-.18-.25-.12-.53-.25-.85-.4-.32-.15-.69-.29-1.11-.41s-.9-.18-1.47-.18c-.88,0-1.56.19-2.06.56-.5.37-.75.86-.75,1.46,0,.4.13.73.39,1,.26.27.6.51,1.03.71.43.2.91.39,1.45.55s1.09.34,1.65.53c.56.19,1.11.41,1.65.66s1.02.56,1.45.94.77.83,1.03,1.36c.26.53.39,1.16.39,1.91,0,.89-.16,1.71-.48,2.46-.32.75-.79,1.4-1.41,1.94-.62.55-1.4.97-2.31,1.28s-1.98.46-3.18.46c-.64,0-1.26-.06-1.86-.17-.61-.11-1.19-.27-1.75-.48-.56-.2-1.07-.44-1.55-.72-.47-.28-.89-.58-1.25-.9l1.03-1.69c.13-.2.29-.36.47-.47.18-.11.41-.16.68-.16s.54.08.78.23c.25.16.53.32.86.5.32.18.7.35,1.14.5.44.16.99.23,1.67.23.53,0,.98-.06,1.36-.19s.69-.29.94-.5.43-.44.54-.71c.11-.27.17-.55.17-.84,0-.43-.13-.79-.39-1.06-.26-.28-.6-.52-1.03-.72s-.91-.39-1.46-.55-1.1-.34-1.67-.53c-.57-.19-1.13-.42-1.67-.67s-1.03-.58-1.46-.98c-.43-.4-.77-.88-1.03-1.46-.26-.58-.39-1.27-.39-2.09,0-.76.15-1.48.45-2.16.3-.68.74-1.28,1.32-1.79.58-.51,1.31-.92,2.18-1.22s1.88-.46,3.01-.46c1.27,0,2.43.21,3.47.63s1.91.97,2.61,1.66l-1.01,1.6Z"/>
      <path class="cls-10" d="M695.46,226.89v15.32h.83c.3,0,.54-.04.71-.12s.35-.24.53-.48l4.59-5.67c.19-.25.41-.44.64-.58.23-.13.54-.2.91-.2h4.07l-5.74,6.86c-.41.54-.85.95-1.33,1.24.25.18.48.39.67.63.2.24.39.5.57.77l6.16,8.96h-4.01c-.35,0-.65-.06-.9-.17s-.46-.32-.63-.62l-4.72-7c-.17-.28-.34-.46-.52-.54s-.45-.13-.81-.13h-1.01v8.46h-4.45v-26.75h4.45Z"/>
    </g>
    <g class="cls-11">
      <path class="cls-10" d="M511.25,671.14c-.14.25-.3.43-.46.55s-.36.17-.6.17c-.25,0-.53-.09-.82-.28-.29-.19-.65-.39-1.05-.62-.41-.23-.89-.44-1.43-.62-.55-.19-1.19-.28-1.93-.28-.67,0-1.26.08-1.76.24s-.93.39-1.27.67-.6.63-.76,1.04-.25.84-.25,1.32c0,.61.17,1.12.51,1.53.34.41.79.76,1.36,1.04.56.29,1.21.55,1.93.77.72.23,1.46.47,2.21.73.76.26,1.49.56,2.21.9s1.36.77,1.93,1.3c.56.52,1.02,1.16,1.36,1.92s.51,1.67.51,2.75c0,1.18-.2,2.28-.6,3.3-.4,1.03-.99,1.92-1.76,2.68-.77.76-1.72,1.36-2.83,1.8-1.12.44-2.39.66-3.83.66-.83,0-1.64-.08-2.45-.24-.8-.16-1.58-.39-2.31-.69-.74-.3-1.43-.66-2.08-1.08-.65-.42-1.22-.89-1.73-1.4l1.42-2.32c.12-.17.28-.31.47-.42.19-.11.4-.17.61-.17.3,0,.62.12.97.37.35.25.76.52,1.24.82.48.3,1.04.57,1.68.82.64.25,1.41.37,2.31.37,1.38,0,2.45-.33,3.2-.98.76-.65,1.13-1.59,1.13-2.82,0-.68-.17-1.24-.51-1.67-.34-.43-.79-.79-1.36-1.09-.56-.29-1.21-.54-1.93-.75-.72-.2-1.45-.43-2.2-.67-.74-.24-1.48-.53-2.2-.86-.72-.34-1.36-.77-1.93-1.31-.56-.54-1.02-1.21-1.36-2.02-.34-.81-.51-1.81-.51-3,0-.95.19-1.87.57-2.77.38-.9.93-1.7,1.65-2.39.72-.7,1.61-1.25,2.66-1.67,1.06-.42,2.27-.63,3.64-.63,1.54,0,2.95.24,4.25.72,1.3.48,2.4,1.15,3.31,2.02l-1.21,2.29Z"/>
      <path class="cls-10" d="M532.29,673.97l-10.06,23.54c-.13.31-.3.55-.51.71-.21.16-.53.24-.96.24h-3.31l3.46-7.42-7.47-17.08h3.91c.35,0,.62.08.82.25s.34.36.44.58l3.92,9.58c.13.32.24.65.33.97s.18.65.26.99c.11-.34.22-.67.32-1,.11-.33.23-.66.36-.98l3.71-9.56c.1-.24.25-.44.48-.59.22-.16.47-.23.75-.23h3.56Z"/>
      <path class="cls-10" d="M545.4,677.57c-.12.19-.25.33-.38.41s-.3.12-.5.12c-.22,0-.45-.06-.69-.18-.25-.12-.53-.25-.85-.4-.32-.15-.69-.29-1.11-.41s-.9-.18-1.47-.18c-.88,0-1.56.19-2.06.56-.5.37-.75.86-.75,1.46,0,.4.13.73.39,1,.26.27.6.51,1.03.71.43.2.91.39,1.45.55s1.09.34,1.65.53c.56.19,1.11.41,1.65.66s1.02.56,1.45.94.77.83,1.03,1.36c.26.53.39,1.16.39,1.91,0,.89-.16,1.71-.48,2.46-.32.75-.79,1.4-1.41,1.94-.62.55-1.4.97-2.31,1.28s-1.98.46-3.18.46c-.64,0-1.26-.06-1.86-.17-.61-.11-1.19-.27-1.75-.48-.56-.2-1.07-.44-1.55-.72-.47-.28-.89-.58-1.25-.9l1.03-1.69c.13-.2.29-.36.47-.47.18-.11.41-.16.68-.16s.54.08.78.23c.25.16.53.32.86.5.32.18.7.35,1.14.5.44.16.99.23,1.67.23.53,0,.98-.06,1.36-.19s.69-.29.94-.5.43-.44.54-.71c.11-.27.17-.55.17-.84,0-.43-.13-.79-.39-1.06-.26-.28-.6-.52-1.03-.72s-.91-.39-1.46-.55-1.1-.34-1.67-.53c-.57-.19-1.13-.42-1.67-.67s-1.03-.58-1.46-.98c-.43-.4-.77-.88-1.03-1.46-.26-.58-.39-1.27-.39-2.09,0-.76.15-1.48.45-2.16.3-.68.74-1.28,1.32-1.79.58-.51,1.31-.92,2.18-1.22s1.88-.46,3.01-.46c1.27,0,2.43.21,3.47.63s1.91.97,2.61,1.66l-1.01,1.6Z"/>
      <path class="cls-10" d="M556.11,692.72c-1.61,0-2.84-.45-3.7-1.36-.86-.91-1.29-2.16-1.29-3.75v-10.31h-1.89c-.24,0-.44-.08-.61-.23-.17-.16-.25-.39-.25-.7v-1.76l2.97-.49.94-5.04c.06-.24.17-.43.34-.56.17-.13.38-.2.65-.2h2.3v5.81h4.93v3.17h-4.93v10.01c0,.58.14,1.03.42,1.35.28.32.67.49,1.16.49.28,0,.51-.03.69-.1.19-.07.35-.14.49-.21.14-.07.26-.14.37-.21.11-.07.22-.1.32-.1.13,0,.24.03.32.1.08.07.17.17.27.3l1.33,2.16c-.65.54-1.39.95-2.23,1.22s-1.71.41-2.61.41Z"/>
      <path class="cls-10" d="M566.62,683.76c.07.95.24,1.77.5,2.46.26.69.61,1.26,1.04,1.71s.95.79,1.54,1.01,1.25.33,1.97.33,1.34-.08,1.86-.25c.52-.17.98-.35,1.37-.56.39-.2.73-.39,1.03-.56s.58-.25.86-.25c.37,0,.65.14.83.41l1.28,1.62c-.49.58-1.04,1.06-1.66,1.45-.61.39-1.25.7-1.92.94-.67.23-1.34.4-2.03.5-.69.1-1.36.14-2.01.14-1.28,0-2.48-.21-3.58-.64-1.1-.43-2.06-1.06-2.88-1.89-.82-.83-1.46-1.87-1.93-3.1-.47-1.23-.7-2.65-.7-4.27,0-1.26.2-2.45.61-3.55.41-1.11.99-2.08,1.75-2.9.76-.82,1.69-1.47,2.79-1.95,1.1-.48,2.34-.72,3.72-.72,1.16,0,2.24.19,3.22.56.98.37,1.83.92,2.54,1.63.71.71,1.26,1.59,1.67,2.63.4,1.04.6,2.22.6,3.56,0,.67-.07,1.12-.22,1.36-.14.23-.42.35-.83.35h-11.43ZM575.1,681.08c0-.58-.08-1.12-.24-1.63-.16-.51-.4-.96-.73-1.34-.32-.38-.74-.69-1.23-.91-.5-.22-1.08-.33-1.74-.33-1.28,0-2.29.37-3.03,1.1-.74.73-1.21,1.77-1.41,3.11h8.39Z"/>
      <path class="cls-10" d="M582.42,692.43v-18.47h2.72c.58,0,.95.27,1.13.81l.29,1.37c.32-.36.66-.69,1.02-.99.35-.3.73-.56,1.13-.77.4-.22.83-.39,1.3-.51s.97-.19,1.52-.19c1.16,0,2.12.31,2.87.95.75.63,1.31,1.47,1.68,2.51.29-.61.65-1.14,1.08-1.58.43-.44.91-.79,1.42-1.07.52-.28,1.06-.48,1.65-.61s1.17-.2,1.75-.2c1.02,0,1.93.16,2.72.47.79.31,1.46.77,2,1.37.54.6.95,1.33,1.23,2.2.28.86.42,1.85.42,2.97v11.75h-4.45v-11.75c0-1.18-.26-2.06-.77-2.66-.52-.59-1.27-.89-2.27-.89-.46,0-.88.08-1.27.23-.39.16-.73.38-1.03.68s-.52.66-.69,1.11c-.17.44-.25.95-.25,1.53v11.75h-4.46v-11.75c0-1.24-.25-2.14-.75-2.7-.5-.56-1.23-.85-2.19-.85-.65,0-1.25.16-1.81.48-.56.32-1.08.75-1.56,1.31v13.52h-4.45Z"/>
      <path class="cls-10" d="M623.84,677.57c-.12.19-.25.33-.38.41s-.3.12-.5.12c-.22,0-.45-.06-.69-.18-.25-.12-.53-.25-.85-.4-.32-.15-.69-.29-1.11-.41s-.9-.18-1.47-.18c-.88,0-1.56.19-2.06.56-.5.37-.75.86-.75,1.46,0,.4.13.73.39,1,.26.27.6.51,1.03.71.43.2.91.39,1.45.55s1.09.34,1.65.53c.56.19,1.11.41,1.65.66s1.02.56,1.45.94.77.83,1.03,1.36c.26.53.39,1.16.39,1.91,0,.89-.16,1.71-.48,2.46-.32.75-.79,1.4-1.41,1.94-.62.55-1.4.97-2.31,1.28s-1.98.46-3.18.46c-.64,0-1.26-.06-1.86-.17-.61-.11-1.19-.27-1.75-.48-.56-.2-1.07-.44-1.55-.72-.47-.28-.89-.58-1.25-.9l1.03-1.69c.13-.2.29-.36.47-.47.18-.11.41-.16.68-.16s.54.08.78.23c.25.16.53.32.86.5.32.18.7.35,1.14.5.44.16.99.23,1.67.23.53,0,.98-.06,1.36-.19s.69-.29.94-.5.43-.44.54-.71c.11-.27.17-.55.17-.84,0-.43-.13-.79-.39-1.06-.26-.28-.6-.52-1.03-.72s-.91-.39-1.46-.55-1.1-.34-1.67-.53c-.57-.19-1.13-.42-1.67-.67s-1.03-.58-1.46-.98c-.43-.4-.77-.88-1.03-1.46-.26-.58-.39-1.27-.39-2.09,0-.76.15-1.48.45-2.16.3-.68.74-1.28,1.32-1.79.58-.51,1.31-.92,2.18-1.22s1.88-.46,3.01-.46c1.27,0,2.43.21,3.47.63s1.91.97,2.61,1.66l-1.01,1.6Z"/>
      <path class="cls-10" d="M501.77,709.61v26.03h-4.27v-16.81c0-.67.04-1.4.11-2.18l-7.87,14.78c-.37.71-.94,1.06-1.71,1.06h-.68c-.77,0-1.34-.35-1.71-1.06l-7.96-14.83c.04.4.07.79.09,1.17s.04.74.04,1.06v16.81h-4.27v-26.03h3.65c.22,0,.4,0,.56.02.16.01.3.04.42.09s.24.13.34.23c.1.11.2.25.3.43l7.79,14.45c.2.38.39.78.57,1.19.17.41.34.83.51,1.26.17-.44.34-.87.52-1.29.18-.41.37-.81.58-1.2l7.69-14.42c.1-.18.2-.32.31-.43s.23-.19.35-.23.27-.08.42-.09c.16-.01.34-.02.56-.02h3.65Z"/>
      <path class="cls-10" d="M514.48,716.88c1.37,0,2.61.22,3.73.67s2.08,1.07,2.88,1.89c.8.82,1.41,1.81,1.84,2.99s.65,2.49.65,3.94-.22,2.78-.65,3.96c-.43,1.18-1.05,2.18-1.84,3.01-.8.83-1.76,1.46-2.88,1.91-1.12.44-2.37.67-3.73.67s-2.63-.22-3.76-.67c-1.13-.44-2.09-1.08-2.89-1.91s-1.42-1.83-1.85-3.01c-.44-1.18-.66-2.5-.66-3.96s.22-2.77.66-3.94c.44-1.18,1.06-2.17,1.85-2.99.8-.82,1.76-1.45,2.89-1.89,1.13-.44,2.38-.67,3.76-.67ZM514.48,732.48c1.54,0,2.67-.52,3.41-1.55.74-1.03,1.11-2.54,1.11-4.54s-.37-3.51-1.11-4.55c-.74-1.04-1.88-1.57-3.41-1.57s-2.72.52-3.46,1.57c-.75,1.05-1.12,2.57-1.12,4.54s.38,3.49,1.12,4.53c.75,1.04,1.9,1.56,3.46,1.56Z"/>
      <path class="cls-10" d="M531.14,719.43c.37-.37.77-.72,1.18-1.04.41-.32.85-.59,1.31-.81s.96-.4,1.49-.52,1.1-.19,1.73-.19c1.01,0,1.9.17,2.68.51.78.34,1.43.82,1.95,1.44.52.62.92,1.36,1.19,2.21.27.86.41,1.8.41,2.83v11.75h-4.45v-11.75c0-1.13-.26-2-.77-2.62-.52-.62-1.3-.93-2.36-.93-.77,0-1.49.17-2.16.52-.67.35-1.31.82-1.91,1.42v13.36h-4.45v-18.47h2.72c.58,0,.95.27,1.13.81l.31,1.46Z"/>
      <path class="cls-10" d="M552.51,711.79c0,.38-.08.74-.23,1.08-.16.34-.36.63-.62.88-.26.25-.56.45-.91.6-.35.15-.72.23-1.12.23s-.75-.08-1.09-.23c-.34-.15-.64-.35-.89-.6s-.45-.55-.6-.88c-.15-.34-.23-.7-.23-1.08s.08-.77.23-1.12c.15-.35.35-.65.6-.9s.55-.45.89-.6.7-.23,1.09-.23.77.08,1.12.23c.35.15.65.35.91.6.26.25.47.55.62.9.16.35.23.72.23,1.12ZM551.9,717.17v18.47h-4.46v-18.47h4.46Z"/>
      <path class="cls-10" d="M562.59,735.92c-1.61,0-2.84-.45-3.7-1.36-.86-.91-1.29-2.16-1.29-3.75v-10.31h-1.89c-.24,0-.44-.08-.61-.23-.17-.16-.25-.39-.25-.7v-1.76l2.97-.49.94-5.04c.06-.24.17-.43.34-.56.17-.13.38-.2.65-.2h2.3v5.81h4.93v3.17h-4.93v10.01c0,.58.14,1.03.42,1.35.28.32.67.49,1.16.49.28,0,.51-.03.69-.1.19-.07.35-.14.49-.21.14-.07.26-.14.37-.21.11-.07.22-.1.32-.1.13,0,.24.03.32.1.08.07.17.17.27.3l1.33,2.16c-.65.54-1.39.95-2.23,1.22s-1.71.41-2.61.41Z"/>
      <path class="cls-10" d="M577.85,716.88c1.37,0,2.61.22,3.73.67s2.08,1.07,2.88,1.89c.8.82,1.41,1.81,1.84,2.99s.65,2.49.65,3.94-.22,2.78-.65,3.96c-.43,1.18-1.05,2.18-1.84,3.01-.8.83-1.76,1.46-2.88,1.91-1.12.44-2.37.67-3.73.67s-2.63-.22-3.76-.67c-1.13-.44-2.09-1.08-2.89-1.91s-1.42-1.83-1.85-3.01c-.44-1.18-.66-2.5-.66-3.96s.22-2.77.66-3.94c.44-1.18,1.06-2.17,1.85-2.99.8-.82,1.76-1.45,2.89-1.89,1.13-.44,2.38-.67,3.76-.67ZM577.85,732.48c1.54,0,2.67-.52,3.41-1.55.74-1.03,1.11-2.54,1.11-4.54s-.37-3.51-1.11-4.55c-.74-1.04-1.88-1.57-3.41-1.57s-2.72.52-3.46,1.57c-.75,1.05-1.12,2.57-1.12,4.54s.38,3.49,1.12,4.53c.75,1.04,1.9,1.56,3.46,1.56Z"/>
      <path class="cls-10" d="M594.56,720.37c.58-1.1,1.26-1.97,2.05-2.6s1.73-.94,2.81-.94c.85,0,1.54.19,2.05.56l-.29,3.33c-.06.22-.15.37-.26.46s-.27.13-.46.13c-.18,0-.45-.03-.8-.09-.35-.06-.7-.09-1.04-.09-.49,0-.93.07-1.31.22-.38.14-.73.35-1.03.62-.31.27-.58.6-.81.98-.23.38-.45.82-.66,1.31v11.38h-4.45v-18.47h2.61c.46,0,.77.08.95.24.18.16.3.45.36.87l.27,2.09Z"/>
      <path class="cls-10" d="M609.01,711.79c0,.38-.08.74-.23,1.08-.16.34-.36.63-.62.88-.26.25-.56.45-.91.6-.35.15-.72.23-1.12.23s-.75-.08-1.09-.23c-.34-.15-.64-.35-.89-.6s-.45-.55-.6-.88c-.15-.34-.23-.7-.23-1.08s.08-.77.23-1.12c.15-.35.35-.65.6-.9s.55-.45.89-.6.7-.23,1.09-.23.77.08,1.12.23c.35.15.65.35.91.6.26.25.47.55.62.9.16.35.23.72.23,1.12ZM608.4,717.17v18.47h-4.46v-18.47h4.46Z"/>
      <path class="cls-10" d="M617.09,719.43c.37-.37.77-.72,1.18-1.04.41-.32.85-.59,1.31-.81s.96-.4,1.49-.52,1.1-.19,1.73-.19c1.01,0,1.9.17,2.68.51.78.34,1.43.82,1.95,1.44.52.62.92,1.36,1.19,2.21.27.86.41,1.8.41,2.83v11.75h-4.45v-11.75c0-1.13-.26-2-.77-2.62-.52-.62-1.3-.93-2.36-.93-.77,0-1.49.17-2.16.52-.67.35-1.31.82-1.91,1.42v13.36h-4.45v-18.47h2.72c.58,0,.95.27,1.13.81l.31,1.46Z"/>
      <path class="cls-10" d="M649.44,717.8v1.66c0,.53-.32.85-.95.97l-1.66.31c.25.64.38,1.33.38,2.09,0,.91-.18,1.74-.55,2.48-.37.74-.87,1.37-1.52,1.88-.65.52-1.41.92-2.29,1.2s-1.83.42-2.85.42c-.36,0-.71-.02-1.04-.05-.34-.04-.67-.08-.99-.14-.58.35-.86.74-.86,1.17,0,.37.17.65.51.82.34.17.79.3,1.36.37.56.07,1.21.12,1.93.13.72.02,1.46.06,2.21.12.76.06,1.49.17,2.21.31.72.15,1.36.39,1.93.71.56.32,1.02.77,1.36,1.32.34.56.51,1.28.51,2.15,0,.82-.2,1.61-.6,2.38-.4.77-.98,1.45-1.75,2.05-.76.6-1.7,1.08-2.81,1.45-1.11.37-2.37.55-3.79.55s-2.6-.13-3.64-.41c-1.03-.27-1.89-.63-2.57-1.08-.68-.45-1.19-.97-1.53-1.56s-.5-1.2-.5-1.84c0-.86.26-1.59.78-2.17.52-.58,1.24-1.05,2.15-1.4-.49-.25-.88-.59-1.17-1.01-.29-.42-.43-.97-.43-1.66,0-.28.05-.56.15-.85.1-.29.25-.58.45-.87.2-.29.45-.56.75-.82.3-.26.65-.49,1.06-.69-.94-.5-1.67-1.18-2.21-2.02-.53-.84-.8-1.82-.8-2.95,0-.91.18-1.74.55-2.47s.88-1.37,1.53-1.89c.65-.52,1.43-.92,2.32-1.2.89-.28,1.87-.41,2.92-.41.79,0,1.54.08,2.23.24s1.33.4,1.91.71h5.31ZM645.01,736.46c0-.36-.11-.65-.32-.88-.22-.23-.51-.41-.88-.53s-.81-.22-1.3-.28c-.5-.06-1.03-.1-1.58-.13s-1.13-.06-1.73-.08c-.59-.02-1.17-.07-1.74-.14-.49.28-.89.6-1.2.97s-.46.8-.46,1.3c0,.32.08.63.24.91.16.28.42.52.77.73.35.2.81.36,1.38.48.56.11,1.25.17,2.07.17s1.54-.06,2.14-.19c.6-.13,1.09-.3,1.48-.52.39-.22.67-.49.86-.79.18-.31.27-.64.27-1ZM639.99,725.95c.55,0,1.03-.08,1.44-.23.41-.15.75-.36,1.02-.62.27-.26.47-.58.61-.95.14-.37.21-.78.21-1.22,0-.91-.27-1.63-.82-2.17-.55-.53-1.37-.8-2.46-.8s-1.91.27-2.46.8c-.55.53-.82,1.26-.82,2.17,0,.43.07.83.21,1.21s.34.69.61.96c.27.27.61.48,1.03.63.41.15.89.23,1.43.23Z"/>
    </g>
    <g class="cls-9">
      <path class="cls-10" d="M32.3,417.41c1.7,0,3.16.16,4.37.49,1.21.32,2.21.79,2.98,1.39.77.6,1.34,1.33,1.7,2.18.36.85.54,1.81.54,2.88,0,.61-.09,1.2-.27,1.75-.18.56-.46,1.08-.84,1.57-.38.49-.86.93-1.44,1.32-.58.4-1.28.73-2.08,1.01,3.58.8,5.36,2.74,5.36,5.8,0,1.1-.21,2.12-.63,3.06-.42.94-1.03,1.74-1.84,2.42-.8.68-1.79,1.21-2.97,1.59-1.18.38-2.52.58-4.03.58h-9.83v-26.03h8.96ZM28.18,421.15v7.52h3.85c1.66,0,2.91-.3,3.75-.9.85-.6,1.27-1.55,1.27-2.86s-.38-2.32-1.15-2.9-1.97-.86-3.6-.86h-4.12ZM33.07,439.65c.9,0,1.66-.11,2.27-.32.61-.22,1.1-.5,1.47-.86.37-.36.63-.78.79-1.26.16-.48.24-.99.24-1.53s-.09-1.07-.27-1.52c-.18-.45-.46-.83-.85-1.15-.38-.32-.88-.56-1.49-.73-.61-.17-1.33-.25-2.19-.25h-4.88v7.63h4.9Z"/>
      <path class="cls-10" d="M61.93,424.97v18.47h-2.72c-.59,0-.96-.27-1.12-.81l-.31-1.48c-.76.77-1.59,1.39-2.5,1.86s-1.99.71-3.22.71c-1.01,0-1.9-.17-2.67-.51-.77-.34-1.43-.83-1.95-1.45-.53-.62-.93-1.37-1.2-2.22-.27-.86-.41-1.8-.41-2.83v-11.74h4.45v11.74c0,1.13.26,2,.78,2.62.52.62,1.3.93,2.35.93.77,0,1.49-.17,2.16-.51s1.31-.81,1.91-1.41v-13.36h4.45Z"/>
      <path class="cls-10" d="M77.58,428.57c-.12.19-.25.33-.38.41s-.3.12-.5.12c-.22,0-.45-.06-.69-.18-.25-.12-.53-.25-.85-.4-.32-.15-.69-.29-1.11-.41s-.9-.18-1.47-.18c-.88,0-1.56.19-2.06.56-.5.37-.75.86-.75,1.46,0,.4.13.73.39,1,.26.27.6.51,1.03.71.43.2.91.39,1.45.55s1.09.34,1.65.53c.56.19,1.11.41,1.65.66s1.02.56,1.45.94.77.83,1.03,1.36c.26.53.39,1.16.39,1.91,0,.89-.16,1.71-.48,2.46-.32.75-.79,1.4-1.41,1.94-.62.55-1.4.97-2.31,1.28s-1.98.46-3.18.46c-.64,0-1.26-.06-1.86-.17-.61-.11-1.19-.27-1.75-.48-.56-.2-1.07-.44-1.55-.72-.47-.28-.89-.58-1.25-.9l1.03-1.69c.13-.2.29-.36.47-.47.18-.11.41-.16.68-.16s.54.08.78.23c.25.16.53.32.86.5.32.18.7.35,1.14.5.44.16.99.23,1.67.23.53,0,.98-.06,1.36-.19s.69-.29.94-.5.43-.44.54-.71c.11-.27.17-.55.17-.84,0-.43-.13-.79-.39-1.06-.26-.28-.6-.52-1.03-.72s-.91-.39-1.46-.55-1.1-.34-1.67-.53c-.57-.19-1.13-.42-1.67-.67s-1.03-.58-1.46-.98c-.43-.4-.77-.88-1.03-1.46-.26-.58-.39-1.27-.39-2.09,0-.76.15-1.48.45-2.16.3-.68.74-1.28,1.32-1.79.58-.51,1.31-.92,2.18-1.22s1.88-.46,3.01-.46c1.27,0,2.43.21,3.47.63s1.91.97,2.61,1.66l-1.01,1.6Z"/>
      <path class="cls-10" d="M87.36,419.58c0,.38-.08.74-.23,1.08-.16.34-.36.63-.62.88-.26.25-.56.45-.91.6-.35.15-.72.23-1.12.23s-.75-.08-1.09-.23c-.34-.15-.64-.35-.89-.6s-.45-.55-.6-.88c-.15-.34-.23-.7-.23-1.08s.08-.77.23-1.12c.15-.35.35-.65.6-.9s.55-.45.89-.6.7-.23,1.09-.23.77.08,1.12.23c.35.15.65.35.91.6.26.25.47.55.62.9.16.35.23.72.23,1.12ZM86.75,424.97v18.47h-4.46v-18.47h4.46Z"/>
      <path class="cls-10" d="M95.44,427.23c.37-.37.77-.72,1.18-1.04.41-.32.85-.59,1.31-.81s.96-.4,1.49-.52,1.1-.19,1.73-.19c1.01,0,1.9.17,2.68.51.78.34,1.43.82,1.95,1.44.52.62.92,1.36,1.19,2.21.27.86.41,1.8.41,2.83v11.75h-4.45v-11.75c0-1.13-.26-2-.77-2.62-.52-.62-1.3-.93-2.36-.93-.77,0-1.49.17-2.16.52-.67.35-1.31.82-1.91,1.42v13.36h-4.45v-18.47h2.72c.58,0,.95.27,1.13.81l.31,1.46Z"/>
      <path class="cls-10" d="M115.01,434.76c.07.95.24,1.77.5,2.46.26.69.61,1.26,1.04,1.71s.95.79,1.54,1.01,1.25.33,1.97.33,1.34-.08,1.86-.25c.52-.17.98-.35,1.37-.56.39-.2.73-.39,1.03-.56s.58-.25.86-.25c.37,0,.65.14.83.41l1.28,1.62c-.49.58-1.04,1.06-1.66,1.45-.61.39-1.25.7-1.92.94-.67.23-1.34.4-2.03.5-.69.1-1.36.14-2.01.14-1.28,0-2.48-.21-3.58-.64-1.1-.43-2.06-1.06-2.88-1.89-.82-.83-1.46-1.87-1.93-3.1-.47-1.23-.7-2.65-.7-4.27,0-1.26.2-2.45.61-3.55.41-1.11.99-2.08,1.75-2.9.76-.82,1.69-1.47,2.79-1.95,1.1-.48,2.34-.72,3.72-.72,1.16,0,2.24.19,3.22.56.98.37,1.83.92,2.54,1.63.71.71,1.26,1.59,1.67,2.63.4,1.04.6,2.22.6,3.56,0,.67-.07,1.12-.22,1.36-.14.23-.42.35-.83.35h-11.43ZM123.49,432.08c0-.58-.08-1.12-.24-1.63-.16-.51-.4-.96-.73-1.34-.32-.38-.74-.69-1.23-.91-.5-.22-1.08-.33-1.74-.33-1.28,0-2.29.37-3.03,1.1-.74.73-1.21,1.77-1.41,3.11h8.39Z"/>
      <path class="cls-10" d="M142.08,428.57c-.12.19-.25.33-.38.41s-.3.12-.5.12c-.22,0-.45-.06-.69-.18-.25-.12-.53-.25-.85-.4-.32-.15-.69-.29-1.11-.41s-.9-.18-1.47-.18c-.88,0-1.56.19-2.06.56-.5.37-.75.86-.75,1.46,0,.4.13.73.39,1,.26.27.6.51,1.03.71.43.2.91.39,1.45.55s1.09.34,1.65.53c.56.19,1.11.41,1.65.66s1.02.56,1.45.94.77.83,1.03,1.36c.26.53.39,1.16.39,1.91,0,.89-.16,1.71-.48,2.46-.32.75-.79,1.4-1.41,1.94-.62.55-1.4.97-2.31,1.28s-1.98.46-3.18.46c-.64,0-1.26-.06-1.86-.17-.61-.11-1.19-.27-1.75-.48-.56-.2-1.07-.44-1.55-.72-.47-.28-.89-.58-1.25-.9l1.03-1.69c.13-.2.29-.36.47-.47.18-.11.41-.16.68-.16s.54.08.78.23c.25.16.53.32.86.5.32.18.7.35,1.14.5.44.16.99.23,1.67.23.53,0,.98-.06,1.36-.19s.69-.29.94-.5.43-.44.54-.71c.11-.27.17-.55.17-.84,0-.43-.13-.79-.39-1.06-.26-.28-.6-.52-1.03-.72s-.91-.39-1.46-.55-1.1-.34-1.67-.53c-.57-.19-1.13-.42-1.67-.67s-1.03-.58-1.46-.98c-.43-.4-.77-.88-1.03-1.46-.26-.58-.39-1.27-.39-2.09,0-.76.15-1.48.45-2.16.3-.68.74-1.28,1.32-1.79.58-.51,1.31-.92,2.18-1.22s1.88-.46,3.01-.46c1.27,0,2.43.21,3.47.63s1.91.97,2.61,1.66l-1.01,1.6Z"/>
      <path class="cls-10" d="M157.9,428.57c-.12.19-.25.33-.38.41s-.3.12-.5.12c-.22,0-.45-.06-.69-.18-.25-.12-.53-.25-.85-.4-.32-.15-.69-.29-1.11-.41s-.9-.18-1.47-.18c-.88,0-1.56.19-2.06.56-.5.37-.75.86-.75,1.46,0,.4.13.73.39,1,.26.27.6.51,1.03.71.43.2.91.39,1.45.55s1.09.34,1.65.53c.56.19,1.11.41,1.65.66s1.02.56,1.45.94.77.83,1.03,1.36c.26.53.39,1.16.39,1.91,0,.89-.16,1.71-.48,2.46-.32.75-.79,1.4-1.41,1.94-.62.55-1.4.97-2.31,1.28s-1.98.46-3.18.46c-.64,0-1.26-.06-1.86-.17-.61-.11-1.19-.27-1.75-.48-.56-.2-1.07-.44-1.55-.72-.47-.28-.89-.58-1.25-.9l1.03-1.69c.13-.2.29-.36.47-.47.18-.11.41-.16.68-.16s.54.08.78.23c.25.16.53.32.86.5.32.18.7.35,1.14.5.44.16.99.23,1.67.23.53,0,.98-.06,1.36-.19s.69-.29.94-.5.43-.44.54-.71c.11-.27.17-.55.17-.84,0-.43-.13-.79-.39-1.06-.26-.28-.6-.52-1.03-.72s-.91-.39-1.46-.55-1.1-.34-1.67-.53c-.57-.19-1.13-.42-1.67-.67s-1.03-.58-1.46-.98c-.43-.4-.77-.88-1.03-1.46-.26-.58-.39-1.27-.39-2.09,0-.76.15-1.48.45-2.16.3-.68.74-1.28,1.32-1.79.58-.51,1.31-.92,2.18-1.22s1.88-.46,3.01-.46c1.27,0,2.43.21,3.47.63s1.91.97,2.61,1.66l-1.01,1.6Z"/>
      <path class="cls-10" d="M64.03,480.5c.26,0,.5.1.7.31l1.91,2.07c-1.06,1.31-2.36,2.31-3.9,3.01-1.54.7-3.39,1.04-5.55,1.04-1.93,0-3.67-.33-5.21-.99-1.54-.66-2.86-1.58-3.95-2.75s-1.93-2.58-2.51-4.21-.87-3.41-.87-5.35.31-3.75.94-5.37,1.5-3.03,2.64-4.2,2.49-2.09,4.06-2.75c1.57-.65,3.31-.98,5.22-.98s3.58.31,5.05.94,2.72,1.44,3.75,2.45l-1.62,2.25c-.1.14-.22.27-.37.38-.15.11-.36.16-.62.16-.18,0-.37-.05-.56-.15-.19-.1-.4-.23-.63-.38-.23-.15-.49-.32-.79-.5s-.65-.34-1.04-.5c-.4-.15-.86-.28-1.38-.38-.52-.1-1.12-.15-1.81-.15-1.16,0-2.23.21-3.19.62-.97.41-1.8,1.01-2.49,1.8-.7.79-1.24,1.75-1.62,2.88-.38,1.13-.58,2.43-.58,3.88s.21,2.77.62,3.91c.41,1.14.97,2.1,1.68,2.88.71.78,1.54,1.38,2.5,1.79.96.41,1.99.62,3.1.62.66,0,1.26-.04,1.79-.11.53-.07,1.03-.19,1.48-.34.45-.16.88-.36,1.28-.6.4-.25.8-.55,1.2-.91.12-.11.25-.19.38-.26.13-.07.27-.1.41-.1Z"/>
      <path class="cls-10" d="M73.77,459.89v26.75h-4.45v-26.75h4.45Z"/>
      <path class="cls-10" d="M86.39,467.88c1.37,0,2.61.22,3.73.67s2.08,1.07,2.88,1.89c.8.82,1.41,1.81,1.84,2.99s.65,2.49.65,3.94-.22,2.78-.65,3.96c-.43,1.18-1.05,2.18-1.84,3.01-.8.83-1.76,1.46-2.88,1.91-1.12.44-2.37.67-3.73.67s-2.63-.22-3.76-.67c-1.13-.44-2.09-1.08-2.89-1.91s-1.42-1.83-1.85-3.01c-.44-1.18-.66-2.5-.66-3.96s.22-2.77.66-3.94c.44-1.18,1.06-2.17,1.85-2.99.8-.82,1.76-1.45,2.89-1.89,1.13-.44,2.38-.67,3.76-.67ZM86.39,483.48c1.54,0,2.67-.52,3.41-1.55.74-1.03,1.11-2.54,1.11-4.54s-.37-3.51-1.11-4.55c-.74-1.04-1.88-1.57-3.41-1.57s-2.72.52-3.46,1.57c-.75,1.05-1.12,2.57-1.12,4.54s.38,3.49,1.12,4.53c.75,1.04,1.9,1.56,3.46,1.56Z"/>
      <path class="cls-10" d="M114.81,468.17v18.47h-2.72c-.59,0-.96-.27-1.12-.81l-.31-1.48c-.76.77-1.59,1.39-2.5,1.86s-1.99.71-3.22.71c-1.01,0-1.9-.17-2.67-.51-.77-.34-1.43-.83-1.95-1.45-.53-.62-.93-1.37-1.2-2.22-.27-.86-.41-1.8-.41-2.83v-11.74h4.45v11.74c0,1.13.26,2,.78,2.62.52.62,1.3.93,2.35.93.77,0,1.49-.17,2.16-.51s1.31-.81,1.91-1.41v-13.36h4.45Z"/>
      <path class="cls-10" d="M135.24,459.89v26.75h-2.72c-.59,0-.96-.27-1.12-.81l-.38-1.78c-.75.85-1.6,1.54-2.57,2.07-.97.53-2.09.79-3.38.79-1.01,0-1.93-.21-2.77-.63s-1.56-1.03-2.17-1.83c-.61-.8-1.07-1.79-1.4-2.96-.33-1.18-.5-2.52-.5-4.03,0-1.37.19-2.64.56-3.82.37-1.18.91-2.2,1.6-3.06.7-.86,1.53-1.54,2.5-2.03.97-.49,2.06-.73,3.28-.73,1.03,0,1.91.16,2.65.49.73.32,1.39.76,1.96,1.31v-9.74h4.45ZM130.79,472.88c-.5-.61-1.05-1.04-1.65-1.3-.59-.25-1.23-.38-1.92-.38s-1.28.13-1.82.38-1,.63-1.39,1.14c-.38.51-.68,1.16-.88,1.94s-.31,1.71-.31,2.78.09,2,.26,2.75.42,1.36.75,1.84c.32.47.72.82,1.19,1.03.47.21.99.32,1.57.32.92,0,1.71-.19,2.36-.58.65-.38,1.26-.93,1.84-1.64v-8.28Z"/>
    </g>
    <g class="cls-8">
      <path class="cls-10" d="M222.25,663.14c-.14.25-.3.43-.46.55s-.36.17-.6.17c-.25,0-.53-.09-.82-.28-.29-.19-.65-.39-1.05-.62-.41-.23-.89-.44-1.43-.62-.55-.19-1.19-.28-1.93-.28-.67,0-1.26.08-1.76.24s-.93.39-1.27.67-.6.63-.76,1.04-.25.84-.25,1.32c0,.61.17,1.12.51,1.53.34.41.79.76,1.36,1.04.56.29,1.21.55,1.93.77.72.23,1.46.47,2.21.73.76.26,1.49.56,2.21.9s1.36.77,1.93,1.3c.56.52,1.02,1.16,1.36,1.92s.51,1.67.51,2.75c0,1.18-.2,2.28-.6,3.3-.4,1.03-.99,1.92-1.76,2.68-.77.76-1.72,1.36-2.83,1.8-1.12.44-2.39.66-3.83.66-.83,0-1.64-.08-2.45-.24-.8-.16-1.58-.39-2.31-.69-.74-.3-1.43-.66-2.08-1.08-.65-.42-1.22-.89-1.73-1.4l1.42-2.32c.12-.17.28-.31.47-.42.19-.11.4-.17.61-.17.3,0,.62.12.97.37.35.25.76.52,1.24.82.48.3,1.04.57,1.68.82.64.25,1.41.37,2.31.37,1.38,0,2.45-.33,3.2-.98.76-.65,1.13-1.59,1.13-2.82,0-.68-.17-1.24-.51-1.67-.34-.43-.79-.79-1.36-1.09-.56-.29-1.21-.54-1.93-.75-.72-.2-1.45-.43-2.2-.67-.74-.24-1.48-.53-2.2-.86-.72-.34-1.36-.77-1.93-1.31-.56-.54-1.02-1.21-1.36-2.02-.34-.81-.51-1.81-.51-3,0-.95.19-1.87.57-2.77.38-.9.93-1.7,1.65-2.39.72-.7,1.61-1.25,2.66-1.67,1.06-.42,2.27-.63,3.64-.63,1.54,0,2.95.24,4.25.72,1.3.48,2.4,1.15,3.31,2.02l-1.21,2.29Z"/>
      <path class="cls-10" d="M243.29,665.97l-10.06,23.54c-.13.31-.3.55-.51.71-.21.16-.53.24-.96.24h-3.31l3.46-7.42-7.47-17.08h3.91c.35,0,.62.08.82.25s.34.36.44.58l3.92,9.58c.13.32.24.65.33.97s.18.65.26.99c.11-.34.22-.67.32-1,.11-.33.23-.66.36-.98l3.71-9.56c.1-.24.25-.44.48-.59.22-.16.47-.23.75-.23h3.56Z"/>
      <path class="cls-10" d="M256.4,669.57c-.12.19-.25.33-.38.41s-.3.12-.5.12c-.22,0-.45-.06-.69-.18-.25-.12-.53-.25-.85-.4-.32-.15-.69-.29-1.11-.41s-.9-.18-1.47-.18c-.88,0-1.56.19-2.06.56-.5.37-.75.86-.75,1.46,0,.4.13.73.39,1,.26.27.6.51,1.03.71.43.2.91.39,1.45.55s1.09.34,1.65.53c.56.19,1.11.41,1.65.66s1.02.56,1.45.94.77.83,1.03,1.36c.26.53.39,1.16.39,1.91,0,.89-.16,1.71-.48,2.46-.32.75-.79,1.4-1.41,1.94-.62.55-1.4.97-2.31,1.28s-1.98.46-3.18.46c-.64,0-1.26-.06-1.86-.17-.61-.11-1.19-.27-1.75-.48-.56-.2-1.07-.44-1.55-.72-.47-.28-.89-.58-1.25-.9l1.03-1.69c.13-.2.29-.36.47-.47.18-.11.41-.16.68-.16s.54.08.78.23c.25.16.53.32.86.5.32.18.7.35,1.14.5.44.16.99.23,1.67.23.53,0,.98-.06,1.36-.19s.69-.29.94-.5.43-.44.54-.71c.11-.27.17-.55.17-.84,0-.43-.13-.79-.39-1.06-.26-.28-.6-.52-1.03-.72s-.91-.39-1.46-.55-1.1-.34-1.67-.53c-.57-.19-1.13-.42-1.67-.67s-1.03-.58-1.46-.98c-.43-.4-.77-.88-1.03-1.46-.26-.58-.39-1.27-.39-2.09,0-.76.15-1.48.45-2.16.3-.68.74-1.28,1.32-1.79.58-.51,1.31-.92,2.18-1.22s1.88-.46,3.01-.46c1.27,0,2.43.21,3.47.63s1.91.97,2.61,1.66l-1.01,1.6Z"/>
      <path class="cls-10" d="M267.11,684.72c-1.61,0-2.84-.45-3.7-1.36-.86-.91-1.29-2.16-1.29-3.75v-10.31h-1.89c-.24,0-.44-.08-.61-.23-.17-.16-.25-.39-.25-.7v-1.76l2.97-.49.94-5.04c.06-.24.17-.43.34-.56.17-.13.38-.2.65-.2h2.3v5.81h4.93v3.17h-4.93v10.01c0,.58.14,1.03.42,1.35.28.32.67.49,1.16.49.28,0,.51-.03.69-.1.19-.07.35-.14.49-.21.14-.07.26-.14.37-.21.11-.07.22-.1.32-.1.13,0,.24.03.32.1.08.07.17.17.27.3l1.33,2.16c-.65.54-1.39.95-2.23,1.22s-1.71.41-2.61.41Z"/>
      <path class="cls-10" d="M277.62,675.76c.07.95.24,1.77.5,2.46.26.69.61,1.26,1.04,1.71s.95.79,1.54,1.01,1.25.33,1.97.33,1.34-.08,1.86-.25c.52-.17.98-.35,1.37-.56.39-.2.73-.39,1.03-.56s.58-.25.86-.25c.37,0,.65.14.83.41l1.28,1.62c-.49.58-1.04,1.06-1.66,1.45-.61.39-1.25.7-1.92.94-.67.23-1.34.4-2.03.5-.69.1-1.36.14-2.01.14-1.28,0-2.48-.21-3.58-.64-1.1-.43-2.06-1.06-2.88-1.89-.82-.83-1.46-1.87-1.93-3.1-.47-1.23-.7-2.65-.7-4.27,0-1.26.2-2.45.61-3.55.41-1.11.99-2.08,1.75-2.9.76-.82,1.69-1.47,2.79-1.95,1.1-.48,2.34-.72,3.72-.72,1.16,0,2.24.19,3.22.56.98.37,1.83.92,2.54,1.63.71.71,1.26,1.59,1.67,2.63.4,1.04.6,2.22.6,3.56,0,.67-.07,1.12-.22,1.36-.14.23-.42.35-.83.35h-11.43ZM286.1,673.08c0-.58-.08-1.12-.24-1.63-.16-.51-.4-.96-.73-1.34-.32-.38-.74-.69-1.23-.91-.5-.22-1.08-.33-1.74-.33-1.28,0-2.29.37-3.03,1.1-.74.73-1.21,1.77-1.41,3.11h8.39Z"/>
      <path class="cls-10" d="M293.42,684.43v-18.47h2.72c.58,0,.95.27,1.13.81l.29,1.37c.32-.36.66-.69,1.02-.99.35-.3.73-.56,1.13-.77.4-.22.83-.39,1.3-.51s.97-.19,1.52-.19c1.16,0,2.12.31,2.87.95.75.63,1.31,1.47,1.68,2.51.29-.61.65-1.14,1.08-1.58.43-.44.91-.79,1.42-1.07.52-.28,1.06-.48,1.65-.61s1.17-.2,1.75-.2c1.02,0,1.93.16,2.72.47.79.31,1.46.77,2,1.37.54.6.95,1.33,1.23,2.2.28.86.42,1.85.42,2.97v11.75h-4.45v-11.75c0-1.18-.26-2.06-.77-2.66-.52-.59-1.27-.89-2.27-.89-.46,0-.88.08-1.27.23-.39.16-.73.38-1.03.68s-.52.66-.69,1.11c-.17.44-.25.95-.25,1.53v11.75h-4.46v-11.75c0-1.24-.25-2.14-.75-2.7-.5-.56-1.23-.85-2.19-.85-.65,0-1.25.16-1.81.48-.56.32-1.08.75-1.56,1.31v13.52h-4.45Z"/>
      <path class="cls-10" d="M334.84,669.57c-.12.19-.25.33-.38.41s-.3.12-.5.12c-.22,0-.45-.06-.69-.18-.25-.12-.53-.25-.85-.4-.32-.15-.69-.29-1.11-.41s-.9-.18-1.47-.18c-.88,0-1.56.19-2.06.56-.5.37-.75.86-.75,1.46,0,.4.13.73.39,1,.26.27.6.51,1.03.71.43.2.91.39,1.45.55s1.09.34,1.65.53c.56.19,1.11.41,1.65.66s1.02.56,1.45.94.77.83,1.03,1.36c.26.53.39,1.16.39,1.91,0,.89-.16,1.71-.48,2.46-.32.75-.79,1.4-1.41,1.94-.62.55-1.4.97-2.31,1.28s-1.98.46-3.18.46c-.64,0-1.26-.06-1.86-.17-.61-.11-1.19-.27-1.75-.48-.56-.2-1.07-.44-1.55-.72-.47-.28-.89-.58-1.25-.9l1.03-1.69c.13-.2.29-.36.47-.47.18-.11.41-.16.68-.16s.54.08.78.23c.25.16.53.32.86.5.32.18.7.35,1.14.5.44.16.99.23,1.67.23.53,0,.98-.06,1.36-.19s.69-.29.94-.5.43-.44.54-.71c.11-.27.17-.55.17-.84,0-.43-.13-.79-.39-1.06-.26-.28-.6-.52-1.03-.72s-.91-.39-1.46-.55-1.1-.34-1.67-.53c-.57-.19-1.13-.42-1.67-.67s-1.03-.58-1.46-.98c-.43-.4-.77-.88-1.03-1.46-.26-.58-.39-1.27-.39-2.09,0-.76.15-1.48.45-2.16.3-.68.74-1.28,1.32-1.79.58-.51,1.31-.92,2.18-1.22s1.88-.46,3.01-.46c1.27,0,2.43.21,3.47.63s1.91.97,2.61,1.66l-1.01,1.6Z"/>
      <path class="cls-10" d="M198.16,701.61v26.03h-4.27v-16.81c0-.67.04-1.4.11-2.18l-7.87,14.78c-.37.71-.94,1.06-1.71,1.06h-.68c-.77,0-1.34-.35-1.71-1.06l-7.96-14.83c.04.4.07.79.09,1.17s.04.74.04,1.06v16.81h-4.27v-26.03h3.65c.22,0,.4,0,.56.02.16.01.3.04.42.09s.24.13.34.23c.1.11.2.25.3.43l7.79,14.45c.2.38.39.78.57,1.19.17.41.34.83.51,1.26.17-.44.34-.87.52-1.29.18-.41.37-.81.58-1.2l7.69-14.42c.1-.18.2-.32.31-.43s.23-.19.35-.23.27-.08.42-.09c.16-.01.34-.02.56-.02h3.65Z"/>
      <path class="cls-10" d="M202.35,711.74c2.12-1.94,4.68-2.92,7.67-2.92,1.08,0,2.05.18,2.9.53.85.35,1.57.85,2.16,1.48s1.04,1.38,1.34,2.26.46,1.84.46,2.88v11.66h-2.02c-.42,0-.74-.06-.97-.19-.23-.13-.41-.38-.54-.76l-.4-1.33c-.47.42-.92.79-1.37,1.11-.44.32-.91.58-1.39.8-.48.22-.99.38-1.54.5-.55.11-1.15.17-1.81.17-.78,0-1.5-.11-2.16-.32-.66-.21-1.23-.52-1.71-.94-.48-.42-.85-.94-1.12-1.57-.26-.62-.4-1.35-.4-2.18,0-.47.08-.93.23-1.4.16-.46.41-.9.76-1.32s.81-.82,1.38-1.19,1.26-.7,2.08-.97,1.78-.5,2.87-.67,2.34-.28,3.74-.32v-1.08c0-1.24-.26-2.15-.79-2.75-.53-.59-1.29-.89-2.29-.89-.72,0-1.32.08-1.79.25-.47.17-.89.36-1.25.57-.36.21-.69.4-.98.57s-.62.25-.98.25c-.31,0-.58-.08-.79-.24s-.39-.35-.52-.57l-.79-1.42ZM212.54,719.75c-1.28.06-2.36.17-3.24.33s-1.58.37-2.11.62c-.53.25-.91.55-1.13.88-.23.34-.34.7-.34,1.1,0,.78.23,1.34.69,1.67.46.34,1.06.5,1.81.5.91,0,1.7-.16,2.37-.49s1.32-.83,1.95-1.5v-3.11Z"/>
      <path class="cls-10" d="M226.28,703.79c0,.38-.08.74-.23,1.08-.16.34-.36.63-.62.88-.26.25-.56.45-.91.6-.35.15-.72.23-1.12.23s-.75-.08-1.09-.23c-.34-.15-.64-.35-.89-.6s-.45-.55-.6-.88c-.15-.34-.23-.7-.23-1.08s.08-.77.23-1.12c.15-.35.35-.65.6-.9s.55-.45.89-.6.7-.23,1.09-.23.77.08,1.12.23c.35.15.65.35.91.6.26.25.47.55.62.9.16.35.23.72.23,1.12ZM225.66,709.17v18.47h-4.46v-18.47h4.46Z"/>
      <path class="cls-10" d="M234.36,711.43c.37-.37.77-.72,1.18-1.04.41-.32.85-.59,1.31-.81s.96-.4,1.49-.52,1.1-.19,1.73-.19c1.01,0,1.9.17,2.68.51.78.34,1.43.82,1.95,1.44.52.62.92,1.36,1.19,2.21.27.86.41,1.8.41,2.83v11.75h-4.45v-11.75c0-1.13-.26-2-.77-2.62-.52-.62-1.3-.93-2.36-.93-.77,0-1.49.17-2.16.52-.67.35-1.31.82-1.91,1.42v13.36h-4.45v-18.47h2.72c.58,0,.95.27,1.13.81l.31,1.46Z"/>
      <path class="cls-10" d="M256.41,727.92c-1.61,0-2.84-.45-3.7-1.36-.86-.91-1.29-2.16-1.29-3.75v-10.31h-1.89c-.24,0-.44-.08-.61-.23-.17-.16-.25-.39-.25-.7v-1.76l2.97-.49.94-5.04c.06-.24.17-.43.34-.56.17-.13.38-.2.65-.2h2.3v5.81h4.93v3.17h-4.93v10.01c0,.58.14,1.03.42,1.35.28.32.67.49,1.16.49.28,0,.51-.03.69-.1.19-.07.35-.14.49-.21.14-.07.26-.14.37-.21.11-.07.22-.1.32-.1.13,0,.24.03.32.1.08.07.17.17.27.3l1.33,2.16c-.65.54-1.39.95-2.23,1.22s-1.71.41-2.61.41Z"/>
      <path class="cls-10" d="M266.92,718.96c.07.95.24,1.77.5,2.46.26.69.61,1.26,1.04,1.71s.95.79,1.54,1.01,1.25.33,1.97.33,1.34-.08,1.86-.25c.52-.17.98-.35,1.37-.56.39-.2.73-.39,1.03-.56s.58-.25.86-.25c.37,0,.65.14.83.41l1.28,1.62c-.49.58-1.04,1.06-1.66,1.45-.61.39-1.25.7-1.92.94-.67.23-1.34.4-2.03.5-.69.1-1.36.14-2.01.14-1.28,0-2.48-.21-3.58-.64-1.1-.43-2.06-1.06-2.88-1.89-.82-.83-1.46-1.87-1.93-3.1-.47-1.23-.7-2.65-.7-4.27,0-1.26.2-2.45.61-3.55.41-1.11.99-2.08,1.75-2.9.76-.82,1.69-1.47,2.79-1.95,1.1-.48,2.34-.72,3.72-.72,1.16,0,2.24.19,3.22.56.98.37,1.83.92,2.54,1.63.71.71,1.26,1.59,1.67,2.63.4,1.04.6,2.22.6,3.56,0,.67-.07,1.12-.22,1.36-.14.23-.42.35-.83.35h-11.43ZM275.4,716.28c0-.58-.08-1.12-.24-1.63-.16-.51-.4-.96-.73-1.34-.32-.38-.74-.69-1.23-.91-.5-.22-1.08-.33-1.74-.33-1.28,0-2.29.37-3.03,1.1-.74.73-1.21,1.77-1.41,3.11h8.39Z"/>
      <path class="cls-10" d="M286.88,711.43c.37-.37.77-.72,1.18-1.04.41-.32.85-.59,1.31-.81s.96-.4,1.49-.52,1.1-.19,1.73-.19c1.01,0,1.9.17,2.68.51.78.34,1.43.82,1.95,1.44.52.62.92,1.36,1.19,2.21.27.86.41,1.8.41,2.83v11.75h-4.45v-11.75c0-1.13-.26-2-.77-2.62-.52-.62-1.3-.93-2.36-.93-.77,0-1.49.17-2.16.52-.67.35-1.31.82-1.91,1.42v13.36h-4.45v-18.47h2.72c.58,0,.95.27,1.13.81l.31,1.46Z"/>
      <path class="cls-10" d="M302.6,711.74c2.12-1.94,4.68-2.92,7.67-2.92,1.08,0,2.05.18,2.9.53.85.35,1.57.85,2.16,1.48s1.04,1.38,1.34,2.26.46,1.84.46,2.88v11.66h-2.02c-.42,0-.74-.06-.97-.19-.23-.13-.41-.38-.54-.76l-.4-1.33c-.47.42-.92.79-1.37,1.11-.44.32-.91.58-1.39.8-.48.22-.99.38-1.54.5-.55.11-1.15.17-1.81.17-.78,0-1.5-.11-2.16-.32-.66-.21-1.23-.52-1.71-.94-.48-.42-.85-.94-1.12-1.57-.26-.62-.4-1.35-.4-2.18,0-.47.08-.93.23-1.4.16-.46.41-.9.76-1.32s.81-.82,1.38-1.19,1.26-.7,2.08-.97,1.78-.5,2.87-.67,2.34-.28,3.74-.32v-1.08c0-1.24-.26-2.15-.79-2.75-.53-.59-1.29-.89-2.29-.89-.72,0-1.32.08-1.79.25-.47.17-.89.36-1.25.57-.36.21-.69.4-.98.57s-.62.25-.98.25c-.31,0-.58-.08-.79-.24s-.39-.35-.52-.57l-.79-1.42ZM312.78,719.75c-1.28.06-2.36.17-3.24.33s-1.58.37-2.11.62c-.53.25-.91.55-1.13.88-.23.34-.34.7-.34,1.1,0,.78.23,1.34.69,1.67.46.34,1.06.5,1.81.5.91,0,1.7-.16,2.37-.49s1.32-.83,1.95-1.5v-3.11Z"/>
      <path class="cls-10" d="M325.46,711.43c.37-.37.77-.72,1.18-1.04.41-.32.85-.59,1.31-.81s.96-.4,1.49-.52,1.1-.19,1.73-.19c1.01,0,1.9.17,2.68.51.78.34,1.43.82,1.95,1.44.52.62.92,1.36,1.19,2.21.27.86.41,1.8.41,2.83v11.75h-4.45v-11.75c0-1.13-.26-2-.77-2.62-.52-.62-1.3-.93-2.36-.93-.77,0-1.49.17-2.16.52-.67.35-1.31.82-1.91,1.42v13.36h-4.45v-18.47h2.72c.58,0,.95.27,1.13.81l.31,1.46Z"/>
      <path class="cls-10" d="M354.83,713.07c-.13.17-.26.3-.39.4-.13.1-.31.14-.55.14s-.45-.07-.67-.21c-.22-.14-.47-.29-.77-.47-.3-.17-.66-.33-1.07-.47-.41-.14-.93-.21-1.54-.21-.78,0-1.46.14-2.05.42-.59.28-1.08.69-1.47,1.21-.39.53-.68,1.17-.87,1.92-.19.75-.29,1.6-.29,2.55s.11,1.86.32,2.63c.21.77.51,1.41.91,1.93.4.52.88.92,1.44,1.19.56.27,1.2.4,1.91.4s1.28-.09,1.72-.26c.44-.17.81-.37,1.11-.58.3-.21.56-.4.78-.58.22-.17.47-.26.75-.26.36,0,.63.14.81.41l1.28,1.62c-.49.58-1.03,1.06-1.6,1.45s-1.17.7-1.79.94c-.62.23-1.25.4-1.91.5-.65.1-1.3.14-1.95.14-1.14,0-2.21-.21-3.22-.64s-1.89-1.05-2.65-1.86c-.76-.82-1.35-1.81-1.79-3-.44-1.18-.66-2.53-.66-4.04,0-1.36.2-2.61.58-3.77s.96-2.16,1.72-3.01,1.69-1.51,2.81-1.99c1.12-.48,2.4-.72,3.85-.72s2.59.22,3.63.67,1.97,1.08,2.8,1.91l-1.17,1.62Z"/>
      <path class="cls-10" d="M362.05,718.96c.07.95.24,1.77.5,2.46.26.69.61,1.26,1.04,1.71s.95.79,1.54,1.01,1.25.33,1.97.33,1.34-.08,1.86-.25c.52-.17.98-.35,1.37-.56.39-.2.73-.39,1.03-.56s.58-.25.86-.25c.37,0,.65.14.83.41l1.28,1.62c-.49.58-1.04,1.06-1.66,1.45-.61.39-1.25.7-1.92.94-.67.23-1.34.4-2.03.5-.69.1-1.36.14-2.01.14-1.28,0-2.48-.21-3.58-.64-1.1-.43-2.06-1.06-2.88-1.89-.82-.83-1.46-1.87-1.93-3.1-.47-1.23-.7-2.65-.7-4.27,0-1.26.2-2.45.61-3.55.41-1.11.99-2.08,1.75-2.9.76-.82,1.69-1.47,2.79-1.95,1.1-.48,2.34-.72,3.72-.72,1.16,0,2.24.19,3.22.56.98.37,1.83.92,2.54,1.63.71.71,1.26,1.59,1.67,2.63.4,1.04.6,2.22.6,3.56,0,.67-.07,1.12-.22,1.36-.14.23-.42.35-.83.35h-11.43ZM370.53,716.28c0-.58-.08-1.12-.24-1.63-.16-.51-.4-.96-.73-1.34-.32-.38-.74-.69-1.23-.91-.5-.22-1.08-.33-1.74-.33-1.28,0-2.29.37-3.03,1.1-.74.73-1.21,1.77-1.41,3.11h8.39Z"/>
    </g>
    <g class="cls-12">
      <path class="cls-10" d="M95.3,216.3c.26,0,.5.1.7.31l1.91,2.07c-1.06,1.31-2.36,2.31-3.9,3.01-1.54.7-3.39,1.04-5.55,1.04-1.93,0-3.67-.33-5.21-.99-1.54-.66-2.86-1.58-3.95-2.75s-1.93-2.58-2.51-4.21-.87-3.41-.87-5.35.31-3.75.94-5.37,1.5-3.03,2.64-4.2,2.49-2.09,4.06-2.75c1.57-.65,3.31-.98,5.22-.98s3.58.31,5.05.94,2.72,1.44,3.75,2.45l-1.62,2.25c-.1.14-.22.27-.37.38-.15.11-.36.16-.62.16-.18,0-.37-.05-.56-.15-.19-.1-.4-.23-.63-.38-.23-.15-.49-.32-.79-.5s-.65-.34-1.04-.5c-.4-.15-.86-.28-1.38-.38-.52-.1-1.12-.15-1.81-.15-1.16,0-2.23.21-3.19.62-.97.41-1.8,1.01-2.49,1.8-.7.79-1.24,1.75-1.62,2.88-.38,1.13-.58,2.43-.58,3.88s.21,2.77.62,3.91c.41,1.14.97,2.1,1.68,2.88.71.78,1.54,1.38,2.5,1.79.96.41,1.99.62,3.1.62.66,0,1.26-.04,1.79-.11.53-.07,1.03-.19,1.48-.34.45-.16.88-.36,1.28-.6.4-.25.8-.55,1.2-.91.12-.11.25-.19.38-.26.13-.07.27-.1.41-.1Z"/>
      <path class="cls-10" d="M108.34,203.68c1.37,0,2.61.22,3.73.67s2.08,1.07,2.88,1.89c.8.82,1.41,1.81,1.84,2.99s.65,2.49.65,3.94-.22,2.78-.65,3.96c-.43,1.18-1.05,2.18-1.84,3.01-.8.83-1.76,1.46-2.88,1.91-1.12.44-2.37.67-3.73.67s-2.63-.22-3.76-.67c-1.13-.44-2.09-1.08-2.89-1.91s-1.42-1.83-1.85-3.01c-.44-1.18-.66-2.5-.66-3.96s.22-2.77.66-3.94c.44-1.18,1.06-2.17,1.85-2.99.8-.82,1.76-1.45,2.89-1.89,1.13-.44,2.38-.67,3.76-.67ZM108.34,219.28c1.54,0,2.67-.52,3.41-1.55.74-1.03,1.11-2.54,1.11-4.54s-.37-3.51-1.11-4.55c-.74-1.04-1.88-1.57-3.41-1.57s-2.72.52-3.46,1.57c-.75,1.05-1.12,2.57-1.12,4.54s.38,3.49,1.12,4.53c.75,1.04,1.9,1.56,3.46,1.56Z"/>
      <path class="cls-10" d="M120.85,222.43v-18.47h2.72c.58,0,.95.27,1.13.81l.29,1.37c.32-.36.66-.69,1.02-.99.35-.3.73-.56,1.13-.77.4-.22.83-.39,1.3-.51s.97-.19,1.52-.19c1.16,0,2.12.31,2.87.95.75.63,1.31,1.47,1.68,2.51.29-.61.65-1.14,1.08-1.58.43-.44.91-.79,1.42-1.07.52-.28,1.06-.48,1.65-.61s1.17-.2,1.75-.2c1.02,0,1.93.16,2.72.47.79.31,1.46.77,2,1.37.54.6.95,1.33,1.23,2.2.28.86.42,1.85.42,2.97v11.75h-4.45v-11.75c0-1.18-.26-2.06-.77-2.66-.52-.59-1.27-.89-2.27-.89-.46,0-.88.08-1.27.23-.39.16-.73.38-1.03.68s-.52.66-.69,1.11c-.17.44-.25.95-.25,1.53v11.75h-4.46v-11.75c0-1.24-.25-2.14-.75-2.7-.5-.56-1.23-.85-2.19-.85-.65,0-1.25.16-1.81.48-.56.32-1.08.75-1.56,1.31v13.52h-4.45Z"/>
      <path class="cls-10" d="M155.21,206.49c.76-.85,1.61-1.54,2.57-2.07.96-.53,2.09-.79,3.38-.79,1.01,0,1.93.21,2.76.63s1.55,1.03,2.16,1.83c.61.8,1.07,1.78,1.4,2.95.33,1.17.5,2.51.5,4.02,0,1.38-.19,2.66-.56,3.83s-.9,2.2-1.59,3.06c-.69.86-1.52,1.54-2.5,2.03-.98.49-2.07.73-3.29.73-1.03,0-1.91-.16-2.65-.48-.73-.32-1.39-.76-1.96-1.32v7.56h-4.45v-24.5h2.72c.58,0,.95.27,1.13.81l.36,1.71ZM155.44,217.65c.5.61,1.05,1.04,1.65,1.3s1.24.38,1.93.38,1.28-.13,1.82-.38,1-.64,1.38-1.15c.38-.52.67-1.17.87-1.95s.31-1.71.31-2.78-.09-2-.26-2.75-.42-1.36-.75-1.83-.72-.81-1.18-1.03c-.46-.22-.99-.32-1.58-.32-.92,0-1.71.2-2.36.58-.65.39-1.26.94-1.84,1.65v8.28Z"/>
      <path class="cls-10" d="M175.94,195.69v26.75h-4.45v-26.75h4.45Z"/>
      <path class="cls-10" d="M185.61,198.58c0,.38-.08.74-.23,1.08-.16.34-.36.63-.62.88-.26.25-.56.45-.91.6-.35.15-.72.23-1.12.23s-.75-.08-1.09-.23c-.34-.15-.64-.35-.89-.6s-.45-.55-.6-.88c-.15-.34-.23-.7-.23-1.08s.08-.77.23-1.12c.15-.35.35-.65.6-.9s.55-.45.89-.6.7-.23,1.09-.23.77.08,1.12.23c.35.15.65.35.91.6.26.25.47.55.62.9.16.35.23.72.23,1.12ZM185,203.97v18.47h-4.46v-18.47h4.46Z"/>
      <path class="cls-10" d="M189.1,206.54c2.12-1.94,4.68-2.92,7.67-2.92,1.08,0,2.05.18,2.9.53.85.35,1.57.85,2.16,1.48s1.04,1.38,1.34,2.26.46,1.84.46,2.88v11.66h-2.02c-.42,0-.74-.06-.97-.19-.23-.13-.41-.38-.54-.76l-.4-1.33c-.47.42-.92.79-1.37,1.11-.44.32-.91.58-1.39.8-.48.22-.99.38-1.54.5-.55.11-1.15.17-1.81.17-.78,0-1.5-.11-2.16-.32-.66-.21-1.23-.52-1.71-.94-.48-.42-.85-.94-1.12-1.57-.26-.62-.4-1.35-.4-2.18,0-.47.08-.93.23-1.4.16-.46.41-.9.76-1.32s.81-.82,1.38-1.19,1.26-.7,2.08-.97,1.78-.5,2.87-.67,2.34-.28,3.74-.32v-1.08c0-1.24-.26-2.15-.79-2.75-.53-.59-1.29-.89-2.29-.89-.72,0-1.32.08-1.79.25-.47.17-.89.36-1.25.57-.36.21-.69.4-.98.57s-.62.25-.98.25c-.31,0-.58-.08-.79-.24s-.39-.35-.52-.57l-.79-1.42ZM199.29,214.55c-1.28.06-2.36.17-3.24.33s-1.58.37-2.11.62c-.53.25-.91.55-1.13.88-.23.34-.34.7-.34,1.1,0,.78.23,1.34.69,1.67.46.34,1.06.5,1.81.5.91,0,1.7-.16,2.37-.49s1.32-.83,1.95-1.5v-3.11Z"/>
      <path class="cls-10" d="M211.96,206.23c.37-.37.77-.72,1.18-1.04.41-.32.85-.59,1.31-.81s.96-.4,1.49-.52,1.1-.19,1.73-.19c1.01,0,1.9.17,2.68.51.78.34,1.43.82,1.95,1.44.52.62.92,1.36,1.19,2.21.27.86.41,1.8.41,2.83v11.75h-4.45v-11.75c0-1.13-.26-2-.77-2.62-.52-.62-1.3-.93-2.36-.93-.77,0-1.49.17-2.16.52-.67.35-1.31.82-1.91,1.42v13.36h-4.45v-18.47h2.72c.58,0,.95.27,1.13.81l.31,1.46Z"/>
      <path class="cls-10" d="M241.34,207.87c-.13.17-.26.3-.39.4-.13.1-.31.14-.55.14s-.45-.07-.67-.21c-.22-.14-.47-.29-.77-.47-.3-.17-.66-.33-1.07-.47-.41-.14-.93-.21-1.54-.21-.78,0-1.46.14-2.05.42-.59.28-1.08.69-1.47,1.21-.39.53-.68,1.17-.87,1.92-.19.75-.29,1.6-.29,2.55s.11,1.86.32,2.63c.21.77.51,1.41.91,1.93.4.52.88.92,1.44,1.19.56.27,1.2.4,1.91.4s1.28-.09,1.72-.26c.44-.17.81-.37,1.11-.58.3-.21.56-.4.78-.58.22-.17.47-.26.75-.26.36,0,.63.14.81.41l1.28,1.62c-.49.58-1.03,1.06-1.6,1.45s-1.17.7-1.79.94c-.62.23-1.25.4-1.91.5-.65.1-1.3.14-1.95.14-1.14,0-2.21-.21-3.22-.64s-1.89-1.05-2.65-1.86c-.76-.82-1.35-1.81-1.79-3-.44-1.18-.66-2.53-.66-4.04,0-1.36.2-2.61.58-3.77s.96-2.16,1.72-3.01,1.69-1.51,2.81-1.99c1.12-.48,2.4-.72,3.85-.72s2.59.22,3.63.67,1.97,1.08,2.8,1.91l-1.17,1.62Z"/>
      <path class="cls-10" d="M248.55,213.76c.07.95.24,1.77.5,2.46.26.69.61,1.26,1.04,1.71s.95.79,1.54,1.01,1.25.33,1.97.33,1.34-.08,1.86-.25c.52-.17.98-.35,1.37-.56.39-.2.73-.39,1.03-.56s.58-.25.86-.25c.37,0,.65.14.83.41l1.28,1.62c-.49.58-1.04,1.06-1.66,1.45-.61.39-1.25.7-1.92.94-.67.23-1.34.4-2.03.5-.69.1-1.36.14-2.01.14-1.28,0-2.48-.21-3.58-.64-1.1-.43-2.06-1.06-2.88-1.89-.82-.83-1.46-1.87-1.93-3.1-.47-1.23-.7-2.65-.7-4.27,0-1.26.2-2.45.61-3.55.41-1.11.99-2.08,1.75-2.9.76-.82,1.69-1.47,2.79-1.95,1.1-.48,2.34-.72,3.72-.72,1.16,0,2.24.19,3.22.56.98.37,1.83.92,2.54,1.63.71.71,1.26,1.59,1.67,2.63.4,1.04.6,2.22.6,3.56,0,.67-.07,1.12-.22,1.36-.14.23-.42.35-.83.35h-11.43ZM257.03,211.08c0-.58-.08-1.12-.24-1.63-.16-.51-.4-.96-.73-1.34-.32-.38-.74-.69-1.23-.91-.5-.22-1.08-.33-1.74-.33-1.28,0-2.29.37-3.03,1.1-.74.73-1.21,1.77-1.41,3.11h8.39Z"/>
    </g>
    <g>
      <path class="cls-1" d="M358.38,366.77v34.7h-5.69v-22.42c0-.9.05-1.86.14-2.9l-10.49,19.7c-.5.94-1.26,1.42-2.28,1.42h-.91c-1.02,0-1.78-.47-2.28-1.42l-10.61-19.78c.05.53.09,1.05.12,1.56.03.51.05.98.05,1.42v22.42h-5.69v-34.7h4.87c.29,0,.54,0,.74.02.21.02.4.06.56.12.17.06.32.17.46.31.14.14.27.34.4.58l10.39,19.27c.27.51.52,1.04.76,1.58s.46,1.1.68,1.68c.22-.59.46-1.16.7-1.72.24-.55.5-1.08.77-1.6l10.25-19.22c.13-.24.26-.43.41-.58s.3-.25.47-.31c.17-.06.36-.1.56-.12.21-.02.46-.02.74-.02h4.87Z"/>
      <path class="cls-1" d="M363.98,380.29c2.83-2.59,6.24-3.89,10.22-3.89,1.44,0,2.73.24,3.86.71,1.14.47,2.1,1.13,2.88,1.97.78.84,1.38,1.84,1.79,3.01.41,1.17.61,2.45.61,3.84v15.55h-2.69c-.56,0-.99-.08-1.3-.25-.3-.17-.54-.51-.72-1.02l-.53-1.78c-.62.56-1.23,1.05-1.82,1.48-.59.42-1.21.78-1.85,1.07-.64.29-1.32.51-2.05.66-.73.15-1.53.23-2.41.23-1.04,0-2-.14-2.88-.42-.88-.28-1.64-.7-2.28-1.26-.64-.56-1.14-1.26-1.49-2.09-.35-.83-.53-1.8-.53-2.9,0-.62.1-1.24.31-1.86.21-.62.55-1.2,1.02-1.76.47-.56,1.08-1.09,1.84-1.58.75-.5,1.68-.93,2.77-1.3,1.1-.37,2.37-.67,3.83-.9s3.12-.37,4.99-.42v-1.44c0-1.65-.35-2.87-1.06-3.66s-1.72-1.19-3.05-1.19c-.96,0-1.76.11-2.39.34-.63.22-1.19.48-1.67.76-.48.28-.92.53-1.31.76s-.83.34-1.31.34c-.42,0-.77-.11-1.06-.32s-.52-.47-.7-.76l-1.06-1.9ZM377.56,390.97c-1.71.08-3.15.23-4.32.44-1.17.22-2.1.49-2.81.83-.7.34-1.21.73-1.51,1.18-.3.45-.46.94-.46,1.46,0,1.04.31,1.78.92,2.23.62.45,1.42.67,2.41.67,1.22,0,2.27-.22,3.16-.66.89-.44,1.76-1.11,2.6-2v-4.15Z"/>
      <path class="cls-1" d="M394.46,379.88c.5-.5,1.02-.96,1.57-1.38.55-.42,1.14-.78,1.75-1.08.62-.3,1.28-.53,1.98-.7s1.47-.25,2.3-.25c1.34,0,2.54.23,3.58.68,1.04.46,1.91,1.1,2.6,1.92.7.82,1.22,1.81,1.58,2.95.36,1.14.54,2.4.54,3.78v15.67h-5.93v-15.67c0-1.5-.34-2.67-1.03-3.49-.69-.82-1.74-1.24-3.14-1.24-1.02,0-1.98.23-2.88.7-.9.46-1.74,1.1-2.54,1.9v17.81h-5.93v-24.62h3.62c.77,0,1.27.36,1.51,1.08l.41,1.94Z"/>
      <path class="cls-1" d="M415.41,380.29c2.83-2.59,6.24-3.89,10.22-3.89,1.44,0,2.73.24,3.86.71,1.13.47,2.1,1.13,2.88,1.97.78.84,1.38,1.84,1.79,3.01.41,1.17.61,2.45.61,3.84v15.55h-2.69c-.56,0-.99-.08-1.3-.25-.3-.17-.54-.51-.72-1.02l-.53-1.78c-.62.56-1.23,1.05-1.82,1.48-.59.42-1.21.78-1.85,1.07-.64.29-1.32.51-2.05.66-.73.15-1.53.23-2.41.23-1.04,0-2-.14-2.88-.42s-1.64-.7-2.28-1.26c-.64-.56-1.14-1.26-1.49-2.09-.35-.83-.53-1.8-.53-2.9,0-.62.1-1.24.31-1.86.21-.62.55-1.2,1.02-1.76.47-.56,1.08-1.09,1.84-1.58.75-.5,1.68-.93,2.77-1.3,1.1-.37,2.37-.67,3.83-.9,1.46-.23,3.12-.37,4.99-.42v-1.44c0-1.65-.35-2.87-1.06-3.66s-1.72-1.19-3.05-1.19c-.96,0-1.76.11-2.39.34-.63.22-1.19.48-1.67.76-.48.28-.92.53-1.31.76s-.83.34-1.31.34c-.42,0-.77-.11-1.06-.32-.29-.22-.52-.47-.7-.76l-1.06-1.9ZM428.99,390.97c-1.71.08-3.15.23-4.32.44-1.17.22-2.1.49-2.81.83-.7.34-1.21.73-1.51,1.18-.3.45-.46.94-.46,1.46,0,1.04.31,1.78.92,2.23.62.45,1.42.67,2.41.67,1.22,0,2.27-.22,3.16-.66.89-.44,1.76-1.11,2.6-2v-4.15Z"/>
      <path class="cls-1" d="M461.94,377.69v2.21c0,.7-.42,1.14-1.27,1.3l-2.21.41c.34.85.5,1.78.5,2.78,0,1.22-.24,2.32-.73,3.3s-1.16,1.82-2.03,2.51-1.88,1.22-3.06,1.6c-1.18.38-2.44.56-3.8.56-.48,0-.95-.02-1.39-.07-.45-.05-.89-.11-1.32-.19-.77.46-1.15.98-1.15,1.56,0,.5.23.86.68,1.09s1.06.4,1.81.49c.75.1,1.61.16,2.57.18s1.94.08,2.95.16c1.01.08,1.99.22,2.95.42.96.2,1.82.52,2.57.95.75.43,1.36,1.02,1.81,1.76s.68,1.7.68,2.87c0,1.09-.27,2.14-.8,3.17-.54,1.02-1.31,1.94-2.33,2.74-1.02.8-2.26,1.44-3.74,1.93-1.48.49-3.16.73-5.05.73s-3.47-.18-4.85-.54c-1.38-.36-2.52-.84-3.43-1.44s-1.59-1.29-2.04-2.08c-.45-.78-.67-1.6-.67-2.45,0-1.15.35-2.12,1.04-2.89.7-.78,1.65-1.4,2.87-1.86-.66-.34-1.18-.78-1.56-1.34-.38-.56-.58-1.3-.58-2.21,0-.37.07-.75.2-1.14.14-.39.34-.78.6-1.16.26-.38.6-.75,1-1.09.4-.34.87-.65,1.42-.92-1.25-.67-2.23-1.57-2.94-2.69-.71-1.12-1.07-2.43-1.07-3.94,0-1.22.24-2.32.73-3.3.49-.98,1.17-1.82,2.04-2.52.87-.7,1.9-1.23,3.1-1.6,1.19-.37,2.49-.55,3.9-.55,1.05,0,2.05.11,2.97.32.93.22,1.78.53,2.54.95h7.08ZM456.04,402.58c0-.48-.14-.87-.43-1.18-.29-.3-.68-.54-1.18-.71-.5-.17-1.08-.29-1.74-.37s-1.37-.14-2.11-.18c-.74-.04-1.51-.08-2.3-.11-.79-.03-1.56-.1-2.32-.19-.66.37-1.19.8-1.6,1.3s-.61,1.07-.61,1.73c0,.43.11.84.32,1.21s.56.7,1.03.97c.47.27,1.08.48,1.84.64.75.15,1.67.23,2.76.23s2.06-.08,2.86-.25c.8-.17,1.46-.4,1.98-.7.52-.3.9-.65,1.14-1.06.24-.41.36-.85.36-1.33ZM449.34,388.57c.73,0,1.38-.1,1.92-.3.54-.2,1-.48,1.36-.83.36-.35.63-.78.82-1.27.18-.5.28-1.04.28-1.63,0-1.22-.36-2.18-1.09-2.89-.73-.71-1.82-1.07-3.28-1.07s-2.55.36-3.28,1.07c-.73.71-1.09,1.68-1.09,2.89,0,.58.09,1.11.28,1.61.18.5.46.92.82,1.28.36.36.82.64,1.37.84.55.2,1.19.3,1.91.3Z"/>
      <path class="cls-1" d="M469.82,389.91c.1,1.26.32,2.36.67,3.28.35.92.82,1.68,1.39,2.28.58.6,1.26,1.05,2.05,1.34.79.3,1.67.44,2.63.44s1.79-.11,2.48-.34c.7-.22,1.3-.47,1.82-.74.52-.27.98-.52,1.37-.74.39-.22.77-.34,1.14-.34.5,0,.87.18,1.1.55l1.7,2.16c-.66.77-1.39,1.41-2.21,1.93-.82.52-1.67.94-2.56,1.25-.89.31-1.79.53-2.71.66-.92.13-1.81.19-2.68.19-1.71,0-3.3-.28-4.78-.85-1.47-.57-2.75-1.41-3.84-2.52-1.09-1.11-1.94-2.49-2.57-4.13-.62-1.64-.94-3.54-.94-5.7,0-1.68.27-3.26.82-4.74.54-1.48,1.32-2.77,2.34-3.86,1.02-1.1,2.26-1.96,3.72-2.6,1.46-.64,3.12-.96,4.96-.96,1.55,0,2.98.25,4.29.74,1.31.5,2.44,1.22,3.38,2.17.94.95,1.68,2.12,2.22,3.5s.8,2.96.8,4.74c0,.9-.1,1.5-.29,1.81-.19.31-.56.47-1.1.47h-15.24ZM481.12,386.33c0-.77-.11-1.49-.32-2.17-.21-.68-.54-1.28-.97-1.79-.43-.51-.98-.92-1.64-1.21-.66-.3-1.44-.44-2.32-.44-1.71,0-3.06.49-4.04,1.46-.98.98-1.61,2.36-1.88,4.15h11.18Z"/>
      <path class="cls-1" d="M512.27,365.81v35.66h-3.62c-.78,0-1.28-.36-1.49-1.08l-.5-2.38c-.99,1.14-2.13,2.06-3.42,2.76-1.29.7-2.79,1.06-4.5,1.06-1.34,0-2.58-.28-3.7-.84-1.12-.56-2.08-1.37-2.89-2.44-.81-1.06-1.43-2.38-1.87-3.95s-.66-3.36-.66-5.38c0-1.82.25-3.52.74-5.09.5-1.57,1.21-2.93,2.14-4.08.93-1.15,2.04-2.05,3.34-2.7,1.29-.65,2.75-.97,4.37-.97,1.38,0,2.55.22,3.53.65.98.43,1.85,1.02,2.62,1.75v-12.98h5.93ZM506.34,383.14c-.67-.82-1.4-1.39-2.2-1.73s-1.64-.5-2.56-.5-1.7.17-2.42.5c-.72.34-1.34.84-1.85,1.52-.51.68-.9,1.54-1.18,2.59-.27,1.05-.41,2.28-.41,3.71s.12,2.66.35,3.66c.23,1,.56,1.82,1,2.45.43.63.96,1.09,1.58,1.37.62.28,1.32.42,2.09.42,1.23,0,2.28-.26,3.14-.77s1.68-1.24,2.45-2.18v-11.04Z"/>
      <path class="cls-1" d="M311.39,459.08h-6.48v-34.7h6.48v34.7Z"/>
      <path class="cls-1" d="M343.38,429.68h-10.46v29.4h-6.46v-29.4h-10.46v-5.3h27.38v5.3Z"/>
      <path class="cls-1" d="M376.62,430.69c-.19.34-.4.58-.61.73-.22.15-.48.23-.8.23-.34,0-.7-.12-1.09-.37-.39-.25-.86-.52-1.4-.83-.54-.3-1.18-.58-1.91-.83s-1.59-.37-2.58-.37c-.9,0-1.68.11-2.35.32-.67.22-1.24.52-1.69.9-.46.38-.8.84-1.02,1.38-.22.54-.34,1.12-.34,1.76,0,.82.23,1.5.68,2.04s1.06,1.01,1.81,1.39c.75.38,1.61.73,2.57,1.03.96.3,1.94.63,2.95.97,1.01.34,1.99.74,2.95,1.2.96.46,1.82,1.03,2.57,1.73.75.7,1.36,1.55,1.81,2.56s.68,2.23.68,3.67c0,1.57-.27,3.04-.8,4.4s-1.32,2.56-2.35,3.58c-1.03,1.02-2.29,1.82-3.78,2.4-1.49.58-3.19.88-5.11.88-1.1,0-2.19-.11-3.26-.32-1.07-.22-2.1-.52-3.08-.92-.98-.4-1.91-.88-2.77-1.44-.86-.56-1.63-1.18-2.3-1.87l1.9-3.1c.16-.22.37-.41.62-.56.26-.15.53-.23.82-.23.4,0,.83.17,1.3.49.46.33,1.02.69,1.66,1.09.64.4,1.39.76,2.24,1.09.86.33,1.88.49,3.08.49,1.84,0,3.26-.44,4.27-1.31,1.01-.87,1.51-2.12,1.51-3.76,0-.91-.23-1.66-.68-2.23-.46-.58-1.06-1.06-1.81-1.45-.75-.39-1.61-.72-2.57-1-.96-.27-1.94-.57-2.93-.89-.99-.32-1.97-.7-2.93-1.15-.96-.45-1.82-1.03-2.57-1.75-.75-.72-1.36-1.62-1.81-2.7s-.68-2.41-.68-4c0-1.26.25-2.5.76-3.7.5-1.2,1.24-2.26,2.2-3.19s2.14-1.67,3.55-2.23c1.41-.56,3.02-.84,4.85-.84,2.05,0,3.94.32,5.66.96s3.2,1.54,4.42,2.69l-1.61,3.05Z"/>
      <path class="cls-1" d="M388.02,447.51c.1,1.26.32,2.36.67,3.28.35.92.82,1.68,1.39,2.28.58.6,1.26,1.05,2.05,1.34s1.67.44,2.63.44,1.79-.11,2.48-.34c.7-.22,1.3-.47,1.82-.74.52-.27.98-.52,1.37-.74.39-.22.77-.34,1.14-.34.5,0,.86.18,1.1.55l1.7,2.16c-.66.77-1.39,1.41-2.21,1.93-.82.52-1.67.94-2.56,1.25-.89.31-1.79.53-2.71.66s-1.81.19-2.68.19c-1.71,0-3.3-.28-4.78-.85-1.47-.57-2.75-1.41-3.84-2.52-1.09-1.11-1.94-2.49-2.57-4.13-.62-1.64-.94-3.54-.94-5.7,0-1.68.27-3.26.82-4.74.54-1.48,1.32-2.77,2.34-3.86,1.02-1.1,2.26-1.96,3.72-2.6s3.12-.96,4.96-.96c1.55,0,2.98.25,4.3.74s2.44,1.22,3.38,2.17c.94.95,1.68,2.12,2.22,3.5s.8,2.96.8,4.74c0,.9-.1,1.5-.29,1.81-.19.31-.56.47-1.1.47h-15.24ZM399.33,443.93c0-.77-.11-1.49-.32-2.17-.22-.68-.54-1.28-.97-1.79s-.98-.92-1.64-1.21c-.66-.29-1.44-.44-2.32-.44-1.71,0-3.06.49-4.04,1.46-.98.98-1.61,2.36-1.88,4.15h11.18Z"/>
      <path class="cls-1" d="M414.69,438.73c.77-1.47,1.68-2.63,2.74-3.47s2.3-1.26,3.74-1.26c1.14,0,2.05.25,2.74.74l-.38,4.44c-.08.29-.2.49-.35.61-.15.12-.36.18-.61.18-.24,0-.6-.04-1.07-.12-.47-.08-.93-.12-1.38-.12-.66,0-1.24.1-1.75.29-.51.19-.97.47-1.38.83-.41.36-.77.8-1.08,1.31s-.6,1.1-.88,1.75v15.17h-5.93v-24.62h3.48c.61,0,1.03.11,1.27.32.24.22.4.6.48,1.16l.36,2.79Z"/>
      <path class="cls-1" d="M449.2,434.45l-9.77,24.62h-5.38l-9.77-24.62h4.9c.45,0,.82.1,1.12.31.29.21.49.47.59.79l4.75,13.15c.26.77.48,1.52.67,2.26.19.74.36,1.47.5,2.21.16-.74.34-1.47.53-2.21.19-.74.42-1.49.7-2.26l4.85-13.15c.11-.32.31-.58.6-.79.29-.21.63-.31,1.03-.31h4.68Z"/>
      <path class="cls-1" d="M459.3,427.28c0,.51-.1.99-.31,1.44-.21.45-.48.84-.83,1.18s-.75.6-1.21.8c-.46.2-.96.3-1.49.3s-1-.1-1.45-.3-.85-.47-1.19-.8-.6-.73-.8-1.18c-.2-.45-.3-.93-.3-1.44s.1-1.02.3-1.49.47-.86.8-1.2.73-.6,1.19-.8.94-.3,1.45-.3,1.02.1,1.49.3c.46.2.87.47,1.21.8s.62.74.83,1.2.31.96.31,1.49ZM458.49,434.45v24.62h-5.95v-24.62h5.95Z"/>
      <path class="cls-1" d="M482.17,439.66c-.18.22-.35.4-.52.53-.17.13-.41.19-.73.19-.3,0-.6-.09-.89-.28-.29-.18-.63-.39-1.03-.62-.4-.23-.88-.44-1.43-.62-.55-.18-1.24-.28-2.05-.28-1.04,0-1.95.19-2.74.56-.79.38-1.44.92-1.96,1.62-.52.71-.91,1.56-1.16,2.56s-.38,2.13-.38,3.4.14,2.48.42,3.5c.28,1.02.68,1.88,1.21,2.58.53.7,1.17,1.22,1.92,1.58.75.36,1.6.54,2.54.54s1.71-.12,2.29-.35c.58-.23,1.08-.49,1.48-.77.4-.28.75-.54,1.04-.77.3-.23.63-.35,1-.35.48,0,.84.18,1.08.55l1.7,2.16c-.66.77-1.37,1.41-2.14,1.93-.77.52-1.56.94-2.39,1.25-.83.31-1.67.53-2.54.66s-1.74.19-2.6.19c-1.52,0-2.95-.28-4.3-.85-1.34-.57-2.52-1.4-3.53-2.48s-1.8-2.42-2.39-4-.88-3.37-.88-5.39c0-1.81.26-3.48.78-5.03.52-1.54,1.28-2.88,2.29-4.01,1.01-1.13,2.26-2.01,3.74-2.65,1.49-.64,3.2-.96,5.14-.96s3.45.3,4.84.89c1.38.59,2.63,1.44,3.73,2.54l-1.56,2.16Z"/>
      <path class="cls-1" d="M491.8,447.51c.1,1.26.32,2.36.67,3.28s.82,1.68,1.39,2.28c.58.6,1.26,1.05,2.05,1.34.79.3,1.67.44,2.63.44s1.79-.11,2.48-.34c.7-.22,1.3-.47,1.82-.74.52-.27.98-.52,1.37-.74.39-.22.77-.34,1.14-.34.5,0,.86.18,1.1.55l1.7,2.16c-.66.77-1.39,1.41-2.21,1.93-.82.52-1.67.94-2.56,1.25-.89.31-1.79.53-2.71.66s-1.81.19-2.68.19c-1.71,0-3.3-.28-4.78-.85-1.47-.57-2.75-1.41-3.84-2.52s-1.94-2.49-2.57-4.13c-.62-1.64-.94-3.54-.94-5.7,0-1.68.27-3.26.82-4.74.54-1.48,1.32-2.77,2.34-3.86,1.02-1.1,2.26-1.96,3.72-2.6s3.12-.96,4.96-.96c1.55,0,2.98.25,4.3.74s2.44,1.22,3.38,2.17c.94.95,1.68,2.12,2.22,3.5.54,1.38.8,2.96.8,4.74,0,.9-.1,1.5-.29,1.81-.19.31-.56.47-1.1.47h-15.24ZM503.1,443.93c0-.77-.11-1.49-.32-2.17-.22-.68-.54-1.28-.97-1.79s-.98-.92-1.64-1.21c-.66-.29-1.44-.44-2.32-.44-1.71,0-3.06.49-4.04,1.46s-1.61,2.36-1.88,4.15h11.18Z"/>
      <path class="cls-1" d="M527.89,439.25c-.16.26-.33.44-.5.54-.18.1-.4.16-.67.16-.29,0-.6-.08-.92-.24-.33-.16-.71-.34-1.14-.54-.43-.2-.92-.38-1.48-.54-.55-.16-1.2-.24-1.96-.24-1.17,0-2.08.25-2.75.74s-1,1.14-1,1.94c0,.53.17.97.52,1.33s.8.68,1.37.95,1.21.52,1.93.73c.72.22,1.45.45,2.2.71.74.26,1.48.55,2.2.88.72.33,1.36.74,1.93,1.25s1.02,1.11,1.37,1.81.52,1.55.52,2.54c0,1.18-.21,2.28-.64,3.28-.42,1-1.05,1.86-1.88,2.59-.83.73-1.86,1.3-3.08,1.7-1.22.41-2.64.61-4.24.61-.85,0-1.68-.08-2.48-.23-.81-.15-1.58-.36-2.33-.64-.74-.27-1.43-.59-2.06-.96-.63-.37-1.19-.77-1.67-1.2l1.37-2.26c.18-.27.38-.48.62-.62.24-.14.54-.22.91-.22s.72.1,1.04.31.71.43,1.14.67c.43.24.94.46,1.52.67s1.32.31,2.22.31c.7,0,1.31-.08,1.81-.25.5-.17.92-.39,1.25-.66.33-.27.57-.59.72-.95s.23-.73.23-1.12c0-.58-.17-1.05-.52-1.42-.34-.37-.8-.69-1.37-.96-.57-.27-1.22-.52-1.94-.73-.73-.22-1.47-.45-2.23-.71s-1.5-.56-2.23-.9-1.38-.78-1.94-1.31c-.57-.53-1.02-1.18-1.37-1.94-.34-.77-.52-1.7-.52-2.78,0-1.01.2-1.97.6-2.88.4-.91.99-1.71,1.76-2.39s1.74-1.22,2.9-1.63c1.16-.41,2.5-.61,4.02-.61,1.7,0,3.24.28,4.63.84,1.39.56,2.55,1.3,3.48,2.21l-1.34,2.14Z"/>
    </g>
    <g id="SubCircle">
      <circle class="cls-1" cx="220" cy="453" r="52"/>
      <circle class="cls-10" cx="220.5" cy="453.5" r="44.5"/>
      <circle class="cls-1" cx="324" cy="589" r="52"/>
      <circle class="cls-10" cx="324.5" cy="589.5" r="44.5"/>
      <circle class="cls-1" cx="510" cy="589" r="52"/>
      <circle class="cls-10" cx="510.5" cy="589.5" r="44.5"/>
      <circle class="cls-1" cx="604" cy="447" r="52"/>
      <circle class="cls-10" cx="604.5" cy="447.5" r="44.5"/>
      <circle class="cls-1" cx="577" cy="280" r="52"/>
      <circle class="cls-10" cx="577.5" cy="280.5" r="44.5"/>
      <circle class="cls-1" cx="415" cy="210" r="52"/>
      <circle class="cls-10" cx="415.5" cy="210.5" r="44.5"/>
      <circle class="cls-1" cx="265" cy="286" r="52"/>
      <circle class="cls-10" cx="265.5" cy="286.5" r="44.5"/>
    </g>
  </g>
  <g id="Layer_3" data-name="Layer 3">
    <path class="cls-1" d="M243.49,466h-52.37c-1.95,0-2.58-1.96-2.99-2.99-.85-2.15-.17-5.09,1.5-5.99,1.75-.94,3.76.81,4.49,0,.84-.94-1.9-3.2-1.5-5.99.42-2.92,4.14-5.42,7.48-5.99,3.78-.64,6.33,1.33,7.48,0,.9-1.04-.47-2.47,0-4.49.94-4.01,7.59-6.78,9.93-7.57,4.66-1.58,9.55-1.74,14.01,3.08,2,2.17,1.09,5.27,2.99,5.99,1.34.5,2.29-.76,4.49-1.5,3.79-1.26,8.93-.16,11.97,2.99,3.28,3.4,3.04,8.07,2.99,8.98-.34,6.48-5.2,13.47-10.47,13.47Z"/>
    <g>
      <g>
        <path class="cls-1" d="M332.25,568.73h-14.64v-13.6c0-.58.47-1.04,1.04-1.04h12.55c.58,0,1.04.47,1.04,1.04v13.6Z"/>
        <path class="cls-1" d="M305.06,581.28v14.64h-13.6c-.58,0-1.04-.47-1.04-1.04v-12.55c0-.58.47-1.04,1.04-1.04h13.6Z"/>
        <path class="cls-1" d="M344.8,595.92v-14.64h13.6c.58,0,1.04.47,1.04,1.04v12.55c0,.58-.47,1.04-1.04,1.04h-13.6Z"/>
        <path class="cls-1" d="M317.61,610.56h14.64v13.6c0,.58-.47,1.04-1.04,1.04h-12.55c-.58,0-1.04-.47-1.04-1.04v-13.6Z"/>
        <path class="cls-1" d="M304.01,599.16l10.35,10.35-9.61,9.61c-.41.41-1.07.41-1.48,0l-8.88-8.88c-.41-.41-.41-1.07,0-1.48l9.61-9.61Z"/>
        <path class="cls-1" d="M316.46,569.77l-10.35,10.35-9.61-9.61c-.41-.41-.41-1.07,0-1.48l8.88-8.88c.41-.41,1.07-.41,1.48,0l9.61,9.61Z"/>
        <path class="cls-1" d="M343.75,580.12l-10.35-10.35,9.61-9.61c.41-.41,1.07-.41,1.48,0l8.88,8.88c.41.41.41,1.07,0,1.48l-9.61,9.61Z"/>
      </g>
      <path class="cls-1" d="M331.24,601.44c-1.74.91-3.71,1.43-5.81,1.43-6.93,0-12.55-5.62-12.55-12.55,0-2.21.6-4.28,1.61-6.08l1.13,1.13s0,.02.01.03l5.3,5.3c1.39,1.39,3.65,1.39,5.05,0l.87-.87c1.39-1.39,1.39-3.65,0-5.05l-5.3-5.3s-.04-.03-.05-.04l-.75-.75c1.45-.58,3.03-.91,4.68-.91,6.93,0,12.55,5.62,12.55,12.55,0,1.84-.41,3.58-1.12,5.16l11.27,11.27c3.16-4.56,5.03-10.09,5.03-16.07,0-15.59-12.64-28.23-28.23-28.23s-28.23,12.64-28.23,28.23,12.64,28.23,28.23,28.23c6.67,0,12.78-2.32,17.61-6.19l-11.3-11.3Z"/>
    </g>
    <path class="cls-6" d="M576,446.68c0,1.54.3,16.4,12.52,25.04,10.32,7.29,25.57,7.64,36.09-1.47,10.56-9.16,11.7-23.84,7.36-33.88-3.36-7.76-9.65-11.96-11.78-13.26-6.45-3.93-12.67-4.38-15.47-4.42"/>
    <polyline class="cls-6" points="606.58 427.87 596.53 420.06 604.35 410.01"/>
    <polyline class="cls-6" points="619.04 462.91 603.39 447.26 616.54 447.26"/>
    <path class="cls-1" d="M563.23,273.27l-.54-.55c-7.34.02-13.29,5.98-13.29,13.32s5.95,13.3,13.29,13.32l.54-.55v-25.54Z"/>
    <path class="cls-1" d="M592.64,273.27l.54-.55c7.34.02,13.29,5.98,13.29,13.32s-5.95,13.3-13.29,13.32l-.54-.55v-25.54Z"/>
    <path class="cls-1" d="M578.34,248.17c-11.02,0-19.95,6.84-19.95,15.27v15.27h3.28v-14.97c0-6.97,7.38-12.61,16.48-12.61s16.48,5.65,16.48,12.61v14.97h3.66v-15.27c0-8.43-8.93-15.27-19.95-15.27Z"/>
    <path class="cls-4" d="M579.03,313.54h0c9.17-2.16,16.53-8.99,19.36-17.98l.17-.54"/>
    <circle class="cls-1" cx="578.38" cy="313.52" r="2.66"/>
    <rect class="cls-1" x="502.04" y="598.2" width="5.19" height="9.52"/>
    <rect class="cls-1" x="502.04" y="598.16" width="5.16" height="24.3" rx="2.4" ry="2.4" transform="translate(-105.69 1114.94) rotate(-90)"/>
    <g>
      <path class="cls-1" d="M530.97,597.04c.17-.57.27-1.18.27-1.8v-21.21c0-3.47-2.81-6.28-6.28-6.28h-40.68c-3.47,0-6.28,2.81-6.28,6.28v21.21c0,.63.09,1.23.27,1.8h52.7Z"/>
      <path class="cls-1" d="M478.72,598.15c1.05,2,3.14,3.37,5.56,3.37h40.68c2.42,0,4.51-1.37,5.56-3.37h-51.8Z"/>
    </g>
    <circle class="cls-3" cx="501.29" cy="581.16" r="5.71"/>
    <rect class="cls-10" x="508.27" y="585.56" width=".78" height="7.27" transform="translate(-264.73 501.09) rotate(-42.7)"/>
    <g>
      <polygon class="cls-1" points="520.62 613.5 520.62 582.79 539.77 582.79 545.06 588.08 545.06 613.5 520.62 613.5"/>
      <path class="cls-10" d="M539.57,583.29l5,5v24.71h-23.44v-29.71h18.44M539.98,582.29h-19.86v31.71h25.44v-26.12l-5.58-5.58h0Z"/>
    </g>
    <line class="cls-2" x1="523.81" y1="589.67" x2="536.62" y2="589.67"/>
    <line class="cls-2" x1="523.81" y1="595.2" x2="541.14" y2="595.2"/>
    <line class="cls-2" x1="523.81" y1="600.73" x2="541.14" y2="600.73"/>
    <line class="cls-2" x1="523.81" y1="606.26" x2="541.14" y2="606.26"/>
    <circle class="cls-1" cx="415.25" cy="210.55" r="17.97"/>
    <path class="cls-10" d="M406.09,209.46h17.97v12.16c0,1.22-.99,2.22-2.22,2.22h-13.54c-1.22,0-2.22-.99-2.22-2.22v-12.16h0Z"/>
    <path class="cls-10" d="M416.61,197.37h-3.01c-3.05,0-5.53,2.46-5.53,5.5v5.5h1.85v-5.39c0-2.25,1.83-4.07,4.1-4.07h2.47c2.26,0,4.1,1.82,4.1,4.07v5.39h1.55v-5.5c0-3.04-2.48-5.5-5.53-5.5Z"/>
    <circle class="cls-1" cx="415.11" cy="215.12" r="1.85"/>
    <rect class="cls-1" x="414.58" y="214.6" width="1.03" height="5.48" rx=".21" ry=".21"/>
    <line class="cls-4" x1="415.08" y1="225.39" x2="415.08" y2="256.7"/>
    <line class="cls-4" x1="462.52" y1="211.22" x2="429.65" y2="211.22"/>
    <line class="cls-4" x1="400.3" y1="211.22" x2="369" y2="211.22"/>
    <path class="cls-4" d="M433.17,168.6c20.58,29.05,19.41,57.47,0,85.35"/>
    <path class="cls-4" d="M398.48,168.21c-20.58,29.05-19.41,57.47,0,85.35"/>
    <path class="cls-4" d="M441,171.14c-17.54,18.31-34.7,17.27-51.54,0"/>
    <path class="cls-4" d="M441,248.27c-17.54-18.31-34.7-17.27-51.54,0"/>
    <line class="cls-4" x1="415.08" y1="163.57" x2="415.08" y2="195.26"/>
  </g>
  <g id="Layer_4" data-name="Layer 4">
    <polygon class="cls-1" points="274.74 258.65 248.09 258.65 248.09 311.77 285 311.77 285 267.01 274.74 258.65"/>
    <polyline class="cls-3" points="286.94 267.2 275.58 268.83 273.95 257.46"/>
    <path class="cls-5" d="M253.37,284.05c2.86,5.92,4.61,12.45,4.91,19.75,6.69-10.83,13.94-20.13,21.83-27.67"/>
  </g>
</svg>